<svg width="360" height="464" viewBox="0 0 360 464" fill="none" xmlns="http://www.w3.org/2000/svg">
<g filter="url(#filter0_dd)">
<path d="M294.808 24H102.913L26.545 251.238C24.8029 256.422 28.6595 261.787 34.1282 261.787H160.43L110.937 435.79C109.151 442.07 117.262 446.281 121.371 441.207L323.444 191.678C327.68 186.448 323.957 178.643 317.227 178.643H245.943L294.808 24Z" fill="#1AE0DB"/>
</g>
<g filter="url(#filter1_d)">
<path fill-rule="evenodd" clip-rule="evenodd" d="M74.9854 68.8405V369.368C82.3027 374.341 103.706 375.896 110.658 374.798C114.164 374.244 131.703 373.551 151.689 373.059C151.72 374.097 151.762 375.126 151.818 376.128C152.203 383.061 156.48 385.452 161.918 388.493L161.919 388.493C162.938 389.063 163.998 389.656 165.08 390.305C171.941 394.421 181.545 396.708 194.807 397.165C208.07 397.623 236.882 389.391 238.712 388.476C240.541 387.561 243.285 382.988 243.285 378.872V358.332C244.935 358.931 247.313 359.614 249.23 359.614C251.791 359.614 256.09 358.7 257.92 358.242L278.042 351.382C278.957 351.077 280.969 350.193 281.701 349.096C282.616 347.724 283.073 344.065 283.073 343.15C283.073 342.615 282.759 340.509 282.499 338.765L282.499 338.765C282.315 337.532 282.158 336.48 282.158 336.29C282.158 335.833 280.786 331.26 279.872 330.345C279.14 329.613 278.042 328.82 277.585 328.516L274.841 325.314L306.397 315.253C307.007 315.405 308.501 315.71 309.598 315.71C310.696 315.71 314.019 314.491 315.544 313.881L322.861 315.253L338.411 310.222C338.563 309.765 338.959 308.21 339.325 305.649C339.783 302.447 337.953 298.331 337.039 297.417C336.307 296.685 333.99 296.197 332.923 296.045L310.056 303.362L309.141 307.021C308.379 307.631 306.763 308.759 306.397 308.393C306.031 308.027 305.025 309.155 304.568 309.765L266.152 321.656L253.804 317.997L236.425 312.509L217.217 318.307V212.444V71.5845C214.93 65.6391 209.899 60.6084 198.009 59.2364C195.531 58.9506 177.22 59.3766 155.191 59.8892C131.972 60.4294 104.622 61.0658 87.3334 61.0658L78.644 62.8951L74.9854 68.8405Z" fill="white"/>
<path d="M74.9854 369.368H73.7354V370.029L74.2827 370.401L74.9854 369.368ZM74.9854 68.8405L73.9208 68.1853L73.7354 68.4867V68.8405H74.9854ZM110.658 374.798L110.852 376.033H110.852L110.658 374.798ZM151.689 373.059L152.938 373.021L152.901 371.778L151.658 371.809L151.689 373.059ZM151.818 376.128L153.066 376.059L151.818 376.128ZM161.918 388.493L161.308 389.584L161.319 389.59L161.33 389.596L161.918 388.493ZM161.919 388.493L162.529 387.402L162.518 387.396L162.507 387.39L161.919 388.493ZM165.08 390.305L164.437 391.377H164.437L165.08 390.305ZM194.807 397.165L194.85 395.916L194.807 397.165ZM238.712 388.476L238.153 387.358H238.152L238.712 388.476ZM243.285 358.332L243.712 357.157L242.035 356.548V358.332H243.285ZM257.92 358.242L258.223 359.455L258.273 359.442L258.323 359.426L257.92 358.242ZM278.042 351.382L277.647 350.196L277.639 350.199L278.042 351.382ZM281.701 349.096L280.661 348.402V348.402L281.701 349.096ZM282.499 338.765L281.259 338.92L281.261 338.935L281.263 338.95L282.499 338.765ZM282.499 338.765L283.739 338.61L283.738 338.595L283.735 338.58L282.499 338.765ZM279.872 330.345L280.756 329.461L280.756 329.461L279.872 330.345ZM277.585 328.516L276.636 329.329L276.748 329.46L276.892 329.556L277.585 328.516ZM274.841 325.314L274.461 324.123L272.665 324.696L273.892 326.128L274.841 325.314ZM306.397 315.253L306.7 314.04L306.356 313.954L306.017 314.062L306.397 315.253ZM315.544 313.881L315.774 312.652L315.417 312.585L315.08 312.72L315.544 313.881ZM322.861 315.253L322.631 316.481L322.943 316.54L323.246 316.442L322.861 315.253ZM338.411 310.222L338.795 311.411L339.397 311.217L339.596 310.617L338.411 310.222ZM339.325 305.649L340.563 305.826L339.325 305.649ZM337.039 297.417L336.155 298.301L337.039 297.417ZM332.923 296.045L333.099 294.807L332.815 294.767L332.542 294.854L332.923 296.045ZM310.056 303.362L309.675 302.172L309.012 302.384L308.843 303.059L310.056 303.362ZM309.141 307.021L309.922 307.997L310.251 307.733L310.354 307.324L309.141 307.021ZM306.397 308.393L305.513 309.277L305.513 309.277L306.397 308.393ZM304.568 309.765L304.937 310.959L305.325 310.839L305.568 310.515L304.568 309.765ZM266.152 321.656L265.796 322.854L266.16 322.962L266.521 322.85L266.152 321.656ZM253.804 317.997L253.427 319.189L253.438 319.192L253.448 319.195L253.804 317.997ZM236.425 312.509L236.801 311.317L236.433 311.201L236.064 311.312L236.425 312.509ZM217.217 318.307H215.967V319.991L217.578 319.504L217.217 318.307ZM217.217 71.5845H218.467V71.3524L218.383 71.1358L217.217 71.5845ZM198.009 59.2364L197.865 60.4782L198.009 59.2364ZM155.191 59.8892L155.22 61.1388L155.191 59.8892ZM87.3334 61.0658V59.8158H87.2033L87.0759 59.8426L87.3334 61.0658ZM78.644 62.8951L78.3865 61.6719L77.861 61.7826L77.5795 62.24L78.644 62.8951ZM76.2354 369.368V68.8405H73.7354V369.368H76.2354ZM110.463 373.563C107.158 374.085 100.205 373.987 93.1105 373.119C89.5814 372.687 86.0613 372.069 82.9869 371.26C79.8885 370.444 77.3414 369.457 75.688 368.334L74.2827 370.401C76.2879 371.764 79.1604 372.837 82.3503 373.677C85.5642 374.524 89.2014 375.159 92.8068 375.6C99.9808 376.478 107.205 376.609 110.852 376.033L110.463 373.563ZM151.658 371.809C141.661 372.055 132.272 372.352 124.941 372.656C117.656 372.959 112.305 373.272 110.463 373.563L110.852 376.033C112.516 375.77 117.688 375.46 125.045 375.154C132.357 374.851 141.731 374.554 151.72 374.308L151.658 371.809ZM153.066 376.059C153.011 375.069 152.969 374.051 152.938 373.021L150.44 373.096C150.471 374.143 150.513 375.183 150.57 376.197L153.066 376.059ZM162.528 387.402C159.768 385.858 157.514 384.587 155.869 382.898C154.288 381.276 153.242 379.232 153.066 376.059L150.57 376.197C150.779 379.956 152.064 382.575 154.078 384.642C156.027 386.642 158.631 388.087 161.308 389.584L162.528 387.402ZM162.507 387.39L162.507 387.39L161.33 389.596L161.33 389.596L162.507 387.39ZM165.724 389.233C164.622 388.572 163.546 387.971 162.529 387.402L161.309 389.584C162.33 390.155 163.374 390.739 164.437 391.377L165.724 389.233ZM194.85 395.916C181.687 395.462 172.325 393.194 165.724 389.233L164.437 391.377C171.556 395.648 181.403 397.954 194.764 398.415L194.85 395.916ZM238.152 387.358C238.153 387.358 238.142 387.363 238.114 387.375C238.088 387.386 238.053 387.401 238.008 387.418C237.917 387.454 237.798 387.497 237.649 387.55C237.351 387.654 236.955 387.785 236.468 387.938C235.495 388.245 234.18 388.637 232.605 389.081C229.457 389.969 225.288 391.065 220.764 392.118C211.664 394.235 201.295 396.138 194.85 395.916L194.764 398.415C201.582 398.65 212.251 396.665 221.33 394.553C225.895 393.49 230.101 392.385 233.284 391.487C234.875 391.038 236.215 390.639 237.22 390.323C238.174 390.022 238.933 389.763 239.271 389.594L238.152 387.358ZM242.035 378.872C242.035 380.675 241.426 382.65 240.573 384.301C240.151 385.12 239.684 385.828 239.235 386.371C238.769 386.934 238.386 387.241 238.153 387.358L239.271 389.594C239.952 389.253 240.598 388.645 241.161 387.965C241.74 387.265 242.303 386.401 242.795 385.448C243.772 383.555 244.535 381.184 244.535 378.872H242.035ZM242.035 358.332V378.872H244.535V358.332H242.035ZM249.23 358.364C247.54 358.364 245.332 357.745 243.712 357.157L242.858 359.507C244.538 360.117 247.086 360.864 249.23 360.864V358.364ZM257.616 357.03C255.784 357.488 251.62 358.364 249.23 358.364V360.864C251.962 360.864 256.396 359.912 258.223 359.455L257.616 357.03ZM277.639 350.199L257.516 357.059L258.323 359.426L278.446 352.565L277.639 350.199ZM280.661 348.402C280.466 348.694 280 349.071 279.33 349.445C278.698 349.799 278.039 350.066 277.647 350.197L278.438 352.568C278.96 352.394 279.765 352.066 280.55 351.627C281.299 351.209 282.204 350.595 282.741 349.789L280.661 348.402ZM281.823 343.15C281.823 343.498 281.723 344.555 281.502 345.718C281.393 346.288 281.261 346.853 281.108 347.345C280.949 347.854 280.791 348.207 280.661 348.402L282.741 349.789C283.068 349.299 283.31 348.68 283.495 348.088C283.685 347.479 283.838 346.816 283.958 346.185C284.194 344.947 284.323 343.718 284.323 343.15H281.823ZM281.263 338.95C281.393 339.824 281.535 340.778 281.645 341.58C281.761 342.43 281.823 342.988 281.823 343.15H284.323C284.323 342.777 284.228 342.015 284.122 341.242C284.01 340.421 283.865 339.451 283.735 338.581L281.263 338.95ZM281.259 338.92L281.259 338.92L283.739 338.61L283.739 338.61L281.259 338.92ZM280.908 336.29C280.908 336.429 280.93 336.611 280.945 336.734C280.964 336.891 280.991 337.088 281.022 337.311C281.085 337.758 281.171 338.334 281.263 338.949L283.735 338.58C283.643 337.962 283.559 337.396 283.497 336.962C283.467 336.744 283.443 336.565 283.427 336.433C283.406 336.267 283.408 336.247 283.408 336.29H280.908ZM278.988 331.229C278.984 331.225 278.999 331.24 279.033 331.287C279.066 331.332 279.106 331.394 279.154 331.476C279.25 331.641 279.36 331.855 279.477 332.114C279.713 332.63 279.956 333.263 280.177 333.9C280.398 334.534 280.591 335.153 280.727 335.636C280.795 335.878 280.846 336.077 280.88 336.222C280.926 336.423 280.908 336.401 280.908 336.29H283.408C283.408 336.065 283.348 335.8 283.316 335.66C283.27 335.464 283.208 335.223 283.133 334.958C282.983 334.426 282.775 333.759 282.539 333.078C282.303 332.401 282.031 331.69 281.752 331.077C281.498 330.519 281.162 329.868 280.756 329.461L278.988 331.229ZM276.892 329.556C277.324 329.844 278.342 330.583 278.988 331.229L280.756 329.461C279.938 328.643 278.761 327.797 278.278 327.476L276.892 329.556ZM273.892 326.128L276.636 329.329L278.534 327.702L275.79 324.501L273.892 326.128ZM306.017 314.062L274.461 324.123L275.221 326.505L306.777 316.444L306.017 314.062ZM309.598 314.46C308.658 314.46 307.283 314.186 306.7 314.04L306.094 316.466C306.73 316.625 308.344 316.96 309.598 316.96V314.46ZM315.08 312.72C314.335 313.018 313.149 313.466 312.02 313.837C311.456 314.023 310.92 314.184 310.47 314.298C309.987 314.42 309.704 314.46 309.598 314.46V316.96C310.041 316.96 310.586 316.848 311.083 316.722C311.611 316.588 312.208 316.407 312.802 316.212C313.991 315.82 315.228 315.354 316.008 315.041L315.08 312.72ZM323.092 314.024L315.774 312.652L315.313 315.109L322.631 316.481L323.092 314.024ZM338.026 309.033L322.476 314.064L323.246 316.442L338.795 311.411L338.026 309.033ZM338.088 305.472C337.727 307.998 337.344 309.47 337.225 309.827L339.596 310.617C339.782 310.059 340.192 308.422 340.563 305.826L338.088 305.472ZM336.155 298.301C336.245 298.391 336.461 298.682 336.737 299.215C336.998 299.718 337.273 300.357 337.511 301.071C337.995 302.524 338.278 304.142 338.088 305.472L340.563 305.826C340.83 303.954 340.427 301.914 339.882 300.28C339.606 299.45 339.28 298.689 338.956 298.063C338.646 297.466 338.289 296.9 337.922 296.533L336.155 298.301ZM332.746 297.282C333.234 297.352 334.022 297.501 334.759 297.714C335.128 297.821 335.46 297.937 335.725 298.056C335.857 298.115 335.961 298.17 336.039 298.217C336.077 298.241 336.105 298.261 336.125 298.276C336.135 298.284 336.143 298.29 336.148 298.294C336.153 298.299 336.155 298.301 336.155 298.301L337.922 296.533C337.58 296.191 337.136 295.948 336.748 295.775C336.34 295.592 335.889 295.439 335.454 295.313C334.583 295.061 333.678 294.89 333.099 294.807L332.746 297.282ZM310.437 304.553L333.304 297.235L332.542 294.854L309.675 302.172L310.437 304.553ZM310.354 307.324L311.268 303.665L308.843 303.059L307.928 306.718L310.354 307.324ZM305.513 309.277C305.855 309.618 306.267 309.703 306.543 309.713C306.812 309.723 307.054 309.669 307.229 309.617C307.582 309.512 307.941 309.33 308.242 309.157C308.862 308.801 309.512 308.325 309.922 307.997L308.36 306.045C308.008 306.326 307.469 306.719 306.999 306.988C306.755 307.128 306.594 307.198 306.517 307.22C306.477 307.232 306.527 307.211 306.635 307.215C306.75 307.219 307.031 307.259 307.281 307.509L305.513 309.277ZM305.568 310.515C305.769 310.246 306.077 309.885 306.343 309.651C306.488 309.523 306.54 309.505 306.503 309.521C306.48 309.53 306.359 309.579 306.174 309.57C305.954 309.56 305.707 309.47 305.513 309.277L307.281 307.509C306.645 306.873 305.857 307.081 305.54 307.214C305.197 307.357 304.9 307.59 304.69 307.775C304.247 308.166 303.824 308.674 303.568 309.015L305.568 310.515ZM266.521 322.85L304.937 310.959L304.198 308.571L265.782 320.461L266.521 322.85ZM253.448 319.195L265.796 322.854L266.507 320.457L254.159 316.798L253.448 319.195ZM236.048 313.701L253.427 319.189L254.18 316.805L236.801 311.317L236.048 313.701ZM217.578 319.504L236.786 313.705L236.064 311.312L216.855 317.111L217.578 319.504ZM215.967 212.444V318.307H218.467V212.444H215.967ZM215.967 71.5845V212.444H218.467V71.5845H215.967ZM197.865 60.4782C203.662 61.147 207.673 62.6946 210.486 64.7113C213.286 66.7189 214.979 69.2493 216.05 72.0332L218.383 71.1358C217.167 67.9743 215.202 65.0167 211.943 62.6796C208.696 60.3516 204.246 58.6979 198.152 57.9947L197.865 60.4782ZM155.22 61.1388C166.236 60.8825 176.317 60.648 183.954 60.5132C187.773 60.4458 190.975 60.4035 193.375 60.3957C195.816 60.3879 197.337 60.4172 197.865 60.4782L198.152 57.9947C197.442 57.9127 195.744 57.8881 193.367 57.8958C190.949 57.9035 187.732 57.9461 183.91 58.0136C176.264 58.1485 166.175 58.3833 155.162 58.6395L155.22 61.1388ZM87.3334 62.3158C104.64 62.3158 132.007 61.6789 155.22 61.1388L155.162 58.6395C131.936 59.1799 104.604 59.8158 87.3334 59.8158V62.3158ZM78.9015 64.1183L87.5909 62.2889L87.0759 59.8426L78.3865 61.6719L78.9015 64.1183ZM76.0499 69.4956L79.7086 63.5502L77.5795 62.24L73.9208 68.1853L76.0499 69.4956Z" fill="#737373"/>
</g>
<path d="M236.425 311.594L212.186 318.911L212.643 327.6L214.473 331.716L213.558 333.088C213.71 337.205 214.015 345.528 214.015 345.894C214.015 346.26 214.625 347.266 214.93 347.723L241.913 356.87C243.285 357.48 246.669 358.699 249.23 358.699C251.791 358.699 256.09 357.785 257.92 357.327L278.042 350.467C278.957 350.162 280.969 349.278 281.701 348.181C282.616 346.809 283.073 343.15 283.073 342.235C283.073 341.321 282.158 335.833 282.158 335.375C282.158 334.918 280.786 330.344 279.872 329.43C279.14 328.698 278.042 327.905 277.585 327.6L274.841 324.399L306.397 314.338C307.007 314.49 308.501 314.795 309.599 314.795C310.696 314.795 314.019 313.576 315.544 312.966L322.861 314.338L338.411 309.307C338.563 308.85 338.959 307.295 339.325 304.734C339.783 301.532 337.953 297.416 337.039 296.502C336.307 295.77 333.99 295.282 332.923 295.13L310.056 302.447L309.141 306.106C308.379 306.715 306.763 307.844 306.397 307.478C306.031 307.112 305.025 308.24 304.568 308.85L266.152 320.74L253.804 317.082L236.425 311.594Z" fill="white" stroke="#737373"/>
<path d="M266.564 321.128C266.564 321.128 272.853 323.075 274.431 324.405" stroke="#737373" stroke-miterlimit="1.415" stroke-linecap="round" stroke-linejoin="round"/>
<path d="M266.73 321.214L264.122 322.295C264.122 322.295 268.087 323.493 268.827 323.788C269.567 324.083 272.004 325.505 272.138 325.77" stroke="#737373" stroke-width="0.5" stroke-miterlimit="1.415" stroke-linecap="round" stroke-linejoin="round"/>
<path d="M277.926 328.292C277.926 328.292 274.568 329.341 274.257 329.341C273.943 329.341 273.584 329.242 273.584 329.242L258.504 334.039C258.504 334.039 257.423 334.594 256.832 334.775C256.236 334.957 253.599 335.279 254.468 336.497C255.337 337.715 257.571 343.1 258.03 345.775C258.489 348.449 257.93 355.932 257.061 356.77" stroke="#737373" stroke-miterlimit="1.415" stroke-linecap="round" stroke-linejoin="round"/>
<path d="M275.546 328.888L272.796 325.692L271.023 326.315L272.494 328.328C272.494 328.328 273.147 327.947 273.985 329.05" stroke="#737373" stroke-width="0.5" stroke-miterlimit="1.415" stroke-linecap="round" stroke-linejoin="round"/>
<path d="M272.488 328.195L257.834 333.046" stroke="#737373" stroke-width="0.5" stroke-miterlimit="1.415" stroke-linecap="round" stroke-linejoin="round"/>
<path d="M257.621 334.398L254.936 331.446" stroke="#737373" stroke-width="0.5" stroke-miterlimit="1.415" stroke-linecap="round" stroke-linejoin="round"/>
<path d="M256.699 332.994L257.861 333.043L257.579 334.128" stroke="#737373" stroke-width="0.5" stroke-miterlimit="1.415" stroke-linecap="round" stroke-linejoin="round"/>
<path d="M270.91 326.321L270.68 327.649L272.482 328.14" stroke="#737373" stroke-width="0.5" stroke-miterlimit="1.415" stroke-linecap="round" stroke-linejoin="round"/>
<path d="M270.7 327.128L255.588 331.894" stroke="#737373" stroke-width="0.5" stroke-miterlimit="1.415" stroke-linecap="round" stroke-linejoin="round"/>
<path d="M270.945 326.157L253.468 331.889C253.468 331.889 249.425 328.578 245.294 328.006" stroke="#737373" stroke-width="0.5" stroke-miterlimit="1.415" stroke-linecap="round" stroke-linejoin="round"/>
<path d="M232.658 335.908L229.563 337.296" stroke="#737373" stroke-width="0.5" stroke-miterlimit="1.415" stroke-linecap="round" stroke-linejoin="round"/>
<path d="M231.197 335.446L229.157 336.675" stroke="#737373" stroke-miterlimit="1.415" stroke-linecap="round" stroke-linejoin="round"/>
<path d="M226.362 335.762L229.09 336.664L234.062 346.29L238.736 347.931L243.976 357.372" stroke="#737373" stroke-miterlimit="1.415" stroke-linecap="round" stroke-linejoin="round"/>
<path d="M226.281 336.381L228.765 337.32L233.299 346.586L238.314 348.307L243.446 357.141" stroke="#737373" stroke-width="0.5" stroke-miterlimit="1.415" stroke-linecap="round" stroke-linejoin="round"/>
<path d="M233.832 345.687L238.857 344.159" stroke="#737373" stroke-width="0.5" stroke-miterlimit="1.415" stroke-linecap="round" stroke-linejoin="round"/>
<path d="M239.062 344.966L234.387 346.412" stroke="#737373" stroke-width="0.5" stroke-miterlimit="1.415" stroke-linecap="round" stroke-linejoin="round"/>
<path d="M215.08 332.273L226.369 335.77" stroke="#737373" stroke-width="0.5" stroke-miterlimit="1.415" stroke-linecap="round" stroke-linejoin="round"/>
<path d="M226.208 336.38L214.35 332.657" stroke="#737373" stroke-miterlimit="1.415" stroke-linecap="round" stroke-linejoin="round"/>
<path d="M247.374 338.302L244.178 340.07L244.378 346.311L248.329 350.39L251.606 348.585L251.143 342.276L247.374 338.302Z" stroke="#737373" stroke-width="0.5" stroke-miterlimit="1.415" stroke-linecap="round" stroke-linejoin="round"/>
<path d="M247.231 338.876L244.596 340.332L247.955 344.043L250.719 342.407L247.231 338.876Z" stroke="#737373" stroke-width="0.5" stroke-miterlimit="1.415" stroke-linecap="round" stroke-linejoin="round"/>
<path d="M244.409 346.264L244.767 346.081L248.673 350.171" stroke="#737373" stroke-width="0.5" stroke-miterlimit="1.415" stroke-linecap="round" stroke-linejoin="round"/>
<path d="M248.41 349.822L251.473 348.124" stroke="#737373" stroke-width="0.5" stroke-miterlimit="1.415" stroke-linecap="round" stroke-linejoin="round"/>
<path d="M251.159 348.293L250.749 342.935" stroke="#737373" stroke-width="0.5" stroke-miterlimit="1.415" stroke-linecap="round" stroke-linejoin="round"/>
<path d="M251.148 342.648L247.882 344.597L244.679 341.081" stroke="#737373" stroke-width="0.5" stroke-miterlimit="1.415" stroke-linecap="round" stroke-linejoin="round"/>
<path d="M244.583 340.389L244.797 346.081" stroke="#737373" stroke-width="0.5" stroke-miterlimit="1.415" stroke-linecap="round" stroke-linejoin="round"/>
<path d="M245.871 341.645C246.16 341.159 246.685 341.001 247.414 341.099C247.876 341.161 249.089 342.372 249.529 343.029" stroke="#737373" stroke-width="0.5" stroke-miterlimit="1.415" stroke-linecap="round" stroke-linejoin="round"/>
<path d="M249.773 343.518C250.106 344.05 250.305 345.787 250.283 346.426C250.254 347.246 249.68 348.413 248.892 348.395C248.182 348.379 247.701 348.251 247.054 347.582C246.407 346.912 245.663 345.837 245.453 344.676C245.238 343.499 245.36 342.44 245.445 342.062" stroke="#737373" stroke-width="0.5" stroke-miterlimit="1.415" stroke-linecap="round" stroke-linejoin="round"/>
<path d="M246.235 342.062C246.443 341.678 247.038 341.612 247.623 341.871C247.992 342.035 248.873 342.96 249.058 343.287" stroke="#737373" stroke-width="0.5" stroke-miterlimit="1.415" stroke-linecap="round" stroke-linejoin="round"/>
<path d="M249.293 343.817C249.534 344.195 249.752 345.322 249.718 346.191C249.687 347.061 249.42 347.883 248.793 347.953C247.936 348.048 246.411 346.211 246.186 345.415C245.982 344.701 245.628 343.495 245.9 342.475" stroke="#737373" stroke-width="0.5" stroke-miterlimit="1.415" stroke-linecap="round" stroke-linejoin="round"/>
<path d="M245.18 327.948L242.073 328.914L242.051 330.19L226.312 324.888" stroke="#737373" stroke-width="0.5" stroke-miterlimit="1.415" stroke-linecap="round" stroke-linejoin="round"/>
<path d="M226.119 324.167C226.119 324.167 243.334 329.765 244.14 330.095C244.946 330.426 247.055 330.987 247.055 330.987C247.055 330.987 251.235 332.951 252.977 336.164C254.723 339.377 257.093 343.9 257.079 348.472C257.064 353.045 255.699 355.872 255.429 356.041" stroke="#737373" stroke-width="0.5" stroke-miterlimit="1.415" stroke-linecap="round" stroke-linejoin="round"/>
<path d="M226.214 323.61C226.214 323.61 244.671 329.616 247.197 330.594C249.724 331.568 253.104 334.72 254.443 337.533C255.778 340.349 257.564 344.463 257.672 348.475C257.78 352.488 256.773 354.453 255.981 356.154" stroke="#737373" stroke-miterlimit="1.415" stroke-linecap="round" stroke-linejoin="round"/>
<path d="M256.929 354.409C256.929 354.409 257.336 355.796 257.014 356.675" stroke="#737373" stroke-width="0.5" stroke-miterlimit="1.415" stroke-linecap="round" stroke-linejoin="round"/>
<path d="M212.483 319.041L226.369 323.606" stroke="#737373" stroke-miterlimit="1.415" stroke-linecap="round" stroke-linejoin="round"/>
<path d="M226.887 324.403L212.003 319.56L212.166 320.266L226.314 324.882" stroke="#737373" stroke-width="0.5" stroke-miterlimit="1.415" stroke-linecap="round" stroke-linejoin="round"/>
<path d="M266.758 342.768C267.442 342.394 272.983 340.678 273.626 340.536C274.27 340.394 275.35 340.725 275.613 341.568C275.879 342.41 275.764 344.875 275.764 344.875C275.764 344.875 276.127 345.752 273.734 346.66C271.34 347.568 267.612 348.645 267.612 348.645C267.612 348.645 266.251 348.948 265.911 348.248C265.567 347.548 265.626 345.018 265.626 344.467C265.626 343.916 266.229 343.056 266.758 342.768Z" stroke="#737373" stroke-width="0.5" stroke-miterlimit="1.415" stroke-linecap="round" stroke-linejoin="round"/>
<path d="M274.719 344.216L275.788 344.244" stroke="#737373" stroke-width="0.5" stroke-miterlimit="1.415" stroke-linecap="round" stroke-linejoin="round"/>
<path d="M266.083 343.642C267.049 343.056 272.009 341.639 272.312 341.639C272.612 341.639 272.471 343.162 272.471 343.162L265.699 345.533" stroke="#737373" stroke-width="0.5" stroke-miterlimit="1.415" stroke-linecap="round" stroke-linejoin="round"/>
<path d="M265.815 347.053C265.815 347.053 273.944 344.191 274.514 344.286" stroke="#737373" stroke-width="0.5" stroke-miterlimit="1.415" stroke-linecap="round" stroke-linejoin="round"/>
<path d="M265.909 347.693C265.909 347.693 274.297 344.832 274.546 344.736" stroke="#737373" stroke-width="0.5" stroke-miterlimit="1.415" stroke-linecap="round" stroke-linejoin="round"/>
<path d="M265.926 347.652C265.926 347.652 265.523 348.389 268.8 347.302C272.081 346.216 273.971 345.829 274.149 345.649C274.33 345.469 274.659 345.068 274.689 344.244C274.718 343.419 274.763 341.956 274.763 341.956C274.763 341.956 274.767 341.426 274.016 341.284C273.265 341.143 273.239 341.266 272.499 341.559" stroke="#737373" stroke-width="0.5" stroke-miterlimit="1.415" stroke-linecap="round" stroke-linejoin="round"/>
<path d="M272.622 342.071C272.622 342.071 274.076 341.343 274.53 341.533" stroke="#737373" stroke-width="0.5" stroke-miterlimit="1.415" stroke-linecap="round" stroke-linejoin="round"/>
<path d="M274.719 342.36H275.77" stroke="#737373" stroke-width="0.5" stroke-miterlimit="1.415" stroke-linejoin="round"/>
<path d="M274.565 335.004L275.416 337.537L276.844 335.692L274.565 335.004Z" stroke="#737373" stroke-width="0.5" stroke-miterlimit="1.415" stroke-linecap="round" stroke-linejoin="round"/>
<path d="M263.238 350.833L264.014 352.25L265.535 350.245L263.238 350.833Z" stroke="#737373" stroke-width="0.5" stroke-miterlimit="1.415" stroke-linecap="round" stroke-linejoin="round"/>
<path d="M261.526 339.051L262.469 341.574L263.586 341.337L263.32 340.723L262.717 340.808L262.092 338.87L261.526 339.051Z" stroke="#737373" stroke-width="0.5" stroke-miterlimit="1.415" stroke-linecap="round" stroke-linejoin="round"/>
<path d="M265.217 340.677C264.516 340.677 263.947 340.066 263.947 339.312C263.947 338.557 264.516 337.946 265.217 337.946C265.919 337.946 266.488 338.557 266.488 339.312C266.488 340.066 265.919 340.677 265.217 340.677Z" stroke="#737373" stroke-width="0.5" stroke-miterlimit="1.415" stroke-linecap="round" stroke-linejoin="round"/>
<path d="M265.152 340.163C264.712 340.163 264.355 339.766 264.355 339.276C264.355 338.786 264.712 338.388 265.152 338.388C265.592 338.388 265.949 338.786 265.949 339.276C265.949 339.766 265.592 340.163 265.152 340.163Z" stroke="#737373" stroke-width="0.5" stroke-miterlimit="1.415" stroke-linecap="round" stroke-linejoin="round"/>
<path d="M267.7 339.958L267.725 337.115L268.18 336.85L269.908 339.175L269.597 339.44L269.009 338.947L268.214 339.212L268.188 339.78L267.7 339.958Z" stroke="#737373" stroke-width="0.5" stroke-miterlimit="1.415" stroke-linecap="round" stroke-linejoin="round"/>
<path d="M268.123 337.793V338.786L268.803 338.606L268.123 337.793Z" stroke="#737373" stroke-width="0.5" stroke-miterlimit="1.415" stroke-linecap="round" stroke-linejoin="round"/>
<path d="M270.084 336.526L270.99 339.04C270.99 339.04 272.218 338.681 272.333 338.311C272.447 337.941 272.447 337.377 272.163 336.834C271.878 336.291 271.208 336.065 270.746 336.093C270.28 336.121 270.084 336.526 270.084 336.526Z" stroke="#737373" stroke-width="0.5" stroke-miterlimit="1.415" stroke-linecap="round" stroke-linejoin="round"/>
<path d="M270.587 336.826L271.261 338.377C271.261 338.377 272.018 337.894 271.959 337.561C271.904 337.23 271.719 336.701 271.413 336.625C271.109 336.547 270.616 336.685 270.587 336.826Z" stroke="#737373" stroke-width="0.5" stroke-miterlimit="1.415" stroke-linecap="round" stroke-linejoin="round"/>
<path d="M268.353 350.967L268.438 349.179C268.438 349.179 269.13 348.715 269.47 349.048C269.811 349.381 269.692 349.709 269.474 349.919C269.256 350.129 268.771 350.126 268.771 350.126L268.753 350.874L268.353 350.967Z" stroke="#737373" stroke-width="0.5" stroke-miterlimit="1.415" stroke-linecap="round" stroke-linejoin="round"/>
<path d="M268.776 349.401V349.75C268.776 349.75 269.335 349.618 269.309 349.399C269.28 349.181 268.776 349.401 268.776 349.401Z" stroke="#737373" stroke-width="0.5" stroke-miterlimit="1.415" stroke-linecap="round" stroke-linejoin="round"/>
<path d="M271.284 348.431L271.258 349.834C271.258 349.834 271.35 350.357 272.212 349.993C272.737 349.772 272.674 349.156 272.663 349.111L272.722 347.966H272.345L272.279 349.021C272.279 349.021 272.245 349.511 272.031 349.561C271.62 349.656 271.69 349.216 271.69 349.216L271.661 348.251L271.284 348.431Z" stroke="#737373" stroke-width="0.5" stroke-miterlimit="1.415" stroke-linecap="round" stroke-linejoin="round"/>
<path d="M274.337 347.392L274.122 349.289L275.11 349.062L275.154 348.597L274.651 348.719L274.803 347.341L274.337 347.392Z" stroke="#737373" stroke-width="0.5" stroke-miterlimit="1.415" stroke-linecap="round" stroke-linejoin="round"/>
<path d="M276.911 346.63L276.796 348.436L277.665 348.228L277.732 347.725H277.251L277.399 346.485L276.911 346.63Z" stroke="#737373" stroke-width="0.5" stroke-miterlimit="1.415" stroke-linecap="round" stroke-linejoin="round"/>
<path d="M304.337 308.961C304.337 308.961 306.8 308.076 307.166 307.932C307.566 307.775 309.156 309.084 309.323 310.471C309.579 312.593 308.89 313.409 308.89 313.409L306.671 314.12" stroke="#737373" stroke-width="0.5" stroke-miterlimit="1.415" stroke-linecap="round" stroke-linejoin="round"/>
<path d="M306.856 306.934C306.856 306.934 309.608 307.885 309.959 310.027C310.307 312.169 309.889 314.142 308.764 314.83" stroke="#737373" stroke-miterlimit="1.415" stroke-linecap="round" stroke-linejoin="round"/>
<path d="M309.909 305.724L312.95 305.07C312.95 305.07 315.202 305.67 315.8 307.535C316.402 309.4 316.402 311.389 316.166 311.874C315.934 312.358 315.116 313.043 315.116 313.043" stroke="#737373" stroke-miterlimit="1.415" stroke-linecap="round" stroke-linejoin="round"/>
<path d="M312.164 305.242L316.09 300.531" stroke="#737373" stroke-miterlimit="1.415" stroke-linecap="round" stroke-linejoin="round"/>
<path d="M317.506 299.779L321.261 301.175C321.261 301.175 322.934 302.279 323.022 303.826C323.106 305.372 323.604 312.748 323.604 312.748C323.604 312.748 323.339 314.405 322.745 314.611" stroke="#737373" stroke-miterlimit="1.415" stroke-linecap="round" stroke-linejoin="round"/>
<path d="M323.626 312.396L338.829 307.597" stroke="#737373" stroke-width="0.5" stroke-miterlimit="1.415" stroke-linecap="round" stroke-linejoin="round"/>
<path d="M338.589 298.78L322.849 303.768" stroke="#737373" stroke-width="0.5" stroke-miterlimit="1.415" stroke-linecap="round" stroke-linejoin="round"/>
<path d="M314.975 301.876C314.975 301.876 310.958 302.557 310.958 303.072C310.958 303.586 310.914 305.393 310.914 305.393" stroke="#737373" stroke-width="0.5" stroke-miterlimit="1.415" stroke-linecap="round" stroke-linejoin="round"/>
<path d="M258.014 357.191C258.014 357.191 276.86 351.388 278.646 350.773C280.433 350.158 283.211 347.578 283.248 343.584C283.285 339.59 282.693 335.215 281.557 332.854C280.422 330.495 279.789 329.473 279.501 328.956C279.212 328.439 278.11 328.195 277.951 328.13C277.796 328.066 275.084 324.885 274.566 324.503C274.049 324.121 306.902 314.129 306.902 314.129C306.902 314.129 307.49 315.218 309.587 314.664C311.681 314.11 315.065 312.979 315.065 312.979L322.685 314.456C322.685 314.456 325.844 313.54 326.887 313.191C327.93 312.843 338.035 309.57 338.035 309.57C338.035 309.57 339.112 309.275 339.127 306.158C339.145 303.041 339.082 298.498 337.754 296.827C336.815 295.646 332.861 295.087 332.861 295.087L317.325 299.734L316.796 299.897L316.16 300.41L311.603 301.89C311.603 301.89 310.035 302.383 309.854 302.901C309.672 303.418 309.809 305.73 309.809 305.73L307.168 306.755C307.168 306.755 306.488 306.841 305.807 307.402C305.126 307.963 305.127 308.614 305.127 308.614L266.318 320.882L237.212 311.321L226.244 314.714L219.905 316.547L212.137 319.155C212.137 319.155 212.466 326.019 212.74 327.575C213.01 329.131 213.731 331.573 214.578 332.042C215.425 332.51 213.439 331.961 213.335 333.657C213.236 335.353 214.245 347 214.245 347L214.73 347.591" stroke="#737373" stroke-width="2" stroke-miterlimit="1.415" stroke-linecap="round" stroke-linejoin="round"/>
<path d="M214.733 347.591L248.226 358.741" stroke="#737373" stroke-width="2" stroke-miterlimit="1.5" stroke-linecap="round" stroke-linejoin="round"/>
<path d="M240.688 349.821C240.274 349.15 239.08 345.906 238.849 344.141C238.614 342.377 238.541 340.257 238.484 339.643C238.419 339.03 237.806 337.211 235.256 336.885C233.318 336.638 232.575 335.515 231.201 335.447" stroke="#737373" stroke-miterlimit="1.415" stroke-linejoin="round"/>
<path d="M250.61 355.783C254.247 354.873 255.954 349.178 254.425 343.062C252.895 336.947 248.707 332.726 245.07 333.636C241.434 334.545 239.726 340.241 241.256 346.356C242.786 352.472 246.974 356.693 250.61 355.783Z" stroke="#737373" stroke-width="0.5" stroke-miterlimit="1.5" stroke-linecap="round" stroke-linejoin="round"/>
<path d="M248.332 358.634C251.298 359.503 254.676 358.132 258.16 357.265" stroke="#737373" stroke-width="2" stroke-miterlimit="1.5" stroke-linecap="round" stroke-linejoin="round"/>
<path d="M240.294 349.274C241.496 352.601 244.97 357.007 247.82 357.739C250.672 358.471 253.812 358.151 255.56 355.761" stroke="#737373" stroke-width="0.5" stroke-miterlimit="1.5" stroke-linecap="round" stroke-linejoin="round"/>
<path d="M74.9854 368.453V67.9258L78.644 61.9804L87.3334 60.1511C121.024 60.1511 192.92 57.7346 198.009 58.3218C209.899 59.6938 214.93 64.7245 217.217 70.6698V211.529V367.938L206.698 371.597C179.715 371.139 117.609 372.786 110.658 373.883C103.706 374.981 82.3027 373.426 74.9854 368.453Z" fill="white" stroke="#737373" stroke-width="2.5"/>
<path d="M79.2943 210.822C79.2943 210.822 79.3004 212.874 79.2943 212.934C80.7183 213.592 82.2224 214.266 83.8342 214.554C87.6952 215.243 94.5762 216.228 100.395 216.082C106.372 215.931 202.319 214.067 202.319 214.067C202.319 214.067 215.157 213.667 217.007 211.228" stroke="#737373" stroke-miterlimit="1.5" stroke-linecap="round" stroke-linejoin="round"/>
<path d="M81.4395 283.903C82.4954 284.943 87.6443 285.202 92.1535 285" stroke="#737373" stroke-miterlimit="1.5" stroke-linecap="round" stroke-linejoin="round"/>
<path d="M211.966 283.886C214.102 283.955 216.287 283.996 217.123 282.499" stroke="#737373" stroke-miterlimit="1.5" stroke-linecap="round" stroke-linejoin="round"/>
<path d="M211.966 289.229C214.102 289.297 216.287 289.339 217.123 287.842" stroke="#737373" stroke-miterlimit="1.5" stroke-linecap="round" stroke-linejoin="round"/>
<path d="M211.966 294.999C214.102 295.067 216.287 295.109 217.123 293.612" stroke="#737373" stroke-miterlimit="1.5" stroke-linecap="round" stroke-linejoin="round"/>
<path d="M211.966 300.811C214.102 300.879 216.287 300.921 217.123 299.424" stroke="#737373" stroke-miterlimit="1.5" stroke-linecap="round" stroke-linejoin="round"/>
<path d="M81.4395 289.752C82.4954 290.793 87.6443 291.052 92.1535 290.85" stroke="#737373" stroke-miterlimit="1.5" stroke-linecap="round" stroke-linejoin="round"/>
<path d="M81.4395 295.563C82.4954 296.604 87.6443 296.862 92.1535 296.661" stroke="#737373" stroke-miterlimit="1.5" stroke-linecap="round" stroke-linejoin="round"/>
<path d="M81.4395 302.153C82.4954 303.194 87.6443 303.453 92.1535 303.251" stroke="#737373" stroke-miterlimit="1.5" stroke-linecap="round" stroke-linejoin="round"/>
<path d="M80.5033 212.466C81.3922 212.795 82.9459 213.249 83.8294 213.407C87.6904 214.096 94.5714 215.081 100.391 214.935C106.367 214.784 202.315 212.92 202.315 212.92C202.315 212.92 215.152 212.52 217.002 210.081" stroke="#737373" stroke-miterlimit="1.5" stroke-linecap="round" stroke-linejoin="round"/>
<path d="M74.9854 70.468C74.9854 70.468 76.3333 72.1724 77.0931 72.5675C77.8389 72.9543 78.0175 73.0712 79.2516 73.5874" stroke="#737373" stroke-miterlimit="1.5" stroke-linecap="round" stroke-linejoin="round"/>
<path d="M216.338 67.7145C216.393 66.807 212.698 62.4895 205.533 60.2003C200.329 58.5382 195.653 58.3218 195.653 58.3218C195.653 58.3218 108.49 60.0636 89.8962 60.4807C87.6689 60.5307 84.6756 60.7016 82.5669 61.3011C80.6433 61.848 77.0145 63.1732 76.8147 64.4333" stroke="#737373" stroke-width="2.5" stroke-miterlimit="1.5" stroke-linecap="round" stroke-linejoin="round"/>
<path d="M216.356 68.6292C216.207 71.1082 205.895 71.38 201.686 71.6561C201.686 71.6561 103.232 74.2783 100.784 74.2934C99.2128 74.303 95.6682 73.9975 91.6124 73.3863C88.533 72.9221 83.5855 71.1711 81.1936 69.7186C79.4452 68.6566 76.5615 67.0578 76.8325 65.3479" stroke="#737373" stroke-miterlimit="1.5" stroke-linecap="round" stroke-linejoin="round"/>
<path d="M75.2979 68.0887C75.9852 69.4216 77.7058 70.727 79.0298 71.5312C79.9264 72.0757 81.1748 72.7056 82.5513 73.3081C84.9236 74.3466 87.6763 75.3039 89.6655 75.6038C93.8058 76.2277 97.4243 76.5396 99.0285 76.5298C101.527 76.5144 202.032 73.8376 202.032 73.8376C205.933 73.5817 214.967 73.0586 216.714 71.0711" stroke="#737373" stroke-miterlimit="1.5" stroke-linecap="round" stroke-linejoin="round"/>
<path d="M216.996 367.98C216.996 367.98 217.202 120.942 217.007 71.0316C216.997 70.7999 216.302 68.3831 216.302 68.3831" stroke="#737373" stroke-width="2.5" stroke-miterlimit="1.5" stroke-linecap="round" stroke-linejoin="round"/>
<path d="M76.2758 65.6324L74.9854 68.6912V367.925C74.9854 367.925 76.7531 370.227 80.2304 371.484C83.7078 372.742 87.5415 373.311 92.1996 373.66C96.8577 374.01 105.465 373.98 105.465 373.98L202.382 371.454C202.382 371.454 214.024 371.138 216.985 367.925" stroke="#737373" stroke-width="2.5" stroke-miterlimit="1.5" stroke-linecap="round" stroke-linejoin="round"/>
<path d="M79.3339 73.6667V211.521" stroke="#737373" stroke-miterlimit="1.5" stroke-linecap="round" stroke-linejoin="round"/>
<path d="M80.4841 72.7283V212.213" stroke="#737373" stroke-miterlimit="1.5" stroke-linecap="round" stroke-linejoin="round"/>
<path d="M79.4251 285.476C80.0676 285.476 80.5885 284.687 80.5885 283.714C80.5885 282.741 80.0676 281.952 79.4251 281.952C78.7825 281.952 78.2616 282.741 78.2616 283.714C78.2616 284.687 78.7825 285.476 79.4251 285.476Z" stroke="#737373" stroke-miterlimit="1.5" stroke-linecap="round" stroke-linejoin="round"/>
<path d="M79.4251 291.522C80.0676 291.522 80.5885 290.733 80.5885 289.76C80.5885 288.787 80.0676 287.998 79.4251 287.998C78.7825 287.998 78.2616 288.787 78.2616 289.76C78.2616 290.733 78.7825 291.522 79.4251 291.522Z" stroke="#737373" stroke-miterlimit="1.5" stroke-linecap="round" stroke-linejoin="round"/>
<path d="M79.4251 297.293C80.0676 297.293 80.5885 296.504 80.5885 295.531C80.5885 294.558 80.0676 293.769 79.4251 293.769C78.7825 293.769 78.2616 294.558 78.2616 295.531C78.2616 296.504 78.7825 297.293 79.4251 297.293Z" stroke="#737373" stroke-miterlimit="1.5" stroke-linecap="round" stroke-linejoin="round"/>
<path d="M79.4251 303.73C80.0676 303.73 80.5885 302.941 80.5885 301.968C80.5885 300.994 80.0676 300.205 79.4251 300.205C78.7825 300.205 78.2616 300.994 78.2616 301.968C78.2616 302.941 78.7825 303.73 79.4251 303.73Z" stroke="#737373" stroke-miterlimit="1.5" stroke-linecap="round" stroke-linejoin="round"/>
<path d="M79.2756 213.2V282.117" stroke="#737373" stroke-miterlimit="1.5" stroke-linecap="round" stroke-linejoin="round"/>
<path d="M79.2756 285.463V288.05" stroke="#737373" stroke-miterlimit="1.5" stroke-linecap="round" stroke-linejoin="round"/>
<path d="M79.2756 291.43V293.737" stroke="#737373" stroke-miterlimit="1.5" stroke-linecap="round" stroke-linejoin="round"/>
<path d="M79.2756 297.318V300.112" stroke="#737373" stroke-miterlimit="1.5" stroke-linecap="round" stroke-linejoin="round"/>
<path d="M79.2756 303.713V371.201" stroke="#737373" stroke-miterlimit="1.5" stroke-linecap="round" stroke-linejoin="round"/>
<path d="M102.362 76.6152V374.082" stroke="#737373" stroke-miterlimit="1.5" stroke-linecap="round" stroke-linejoin="round"/>
<path d="M203.757 73.8219V371.625" stroke="#737373" stroke-miterlimit="1.5" stroke-linecap="round" stroke-linejoin="round"/>
<path fill-rule="evenodd" clip-rule="evenodd" d="M95.3254 283.452C95.4188 283.371 95.429 283.228 95.3478 283.133C95.2663 283.039 95.1247 283.029 95.0313 283.111C94.369 283.691 94.1344 284.624 94.4425 285.452C94.7511 286.28 95.5372 286.827 96.4137 286.824C97.2903 286.82 98.0722 286.267 98.3735 285.436C98.6753 284.606 98.4331 283.674 97.7666 283.1C97.6723 283.019 97.5308 283.03 97.4505 283.125C97.3697 283.22 97.3812 283.363 97.475 283.444C97.8423 283.76 98.0531 284.222 98.0531 284.708C98.0531 285.625 97.314 286.371 96.4053 286.371C95.4962 286.371 94.7574 285.625 94.7574 284.708C94.7574 284.227 94.9645 283.768 95.3254 283.452Z" fill="#737373" stroke="#737373" stroke-width="0.2"/>
<path fill-rule="evenodd" clip-rule="evenodd" d="M96.6287 284.839V282.725C96.6287 282.6 96.5281 282.499 96.4043 282.499C96.2805 282.499 96.1803 282.6 96.1803 282.725V284.839C96.1803 284.964 96.2805 285.065 96.4043 285.065C96.5281 285.065 96.6287 284.964 96.6287 284.839Z" fill="#737373" stroke="#737373" stroke-width="0.2"/>
<path fill-rule="evenodd" clip-rule="evenodd" d="M94.1334 289.909C94.7577 289.284 95.5839 288.972 96.4098 288.972C97.236 288.972 98.0618 289.284 98.6861 289.909L98.4291 290.184C97.8784 289.615 97.1439 289.34 96.4098 289.34C95.6756 289.34 94.9411 289.615 94.3904 290.184L94.1334 289.909Z" fill="#737373" stroke="#737373" stroke-width="0.2"/>
<path fill-rule="evenodd" clip-rule="evenodd" d="M94.7966 290.569C95.237 290.128 95.8245 289.908 96.412 289.908C96.9994 289.908 97.5869 290.128 98.0273 290.569L97.7703 290.826C97.403 290.458 96.9077 290.275 96.412 290.275C95.9162 290.275 95.4209 290.458 95.0536 290.826L94.7966 290.569Z" fill="#737373" stroke="#737373" stroke-width="0.2"/>
<path fill-rule="evenodd" clip-rule="evenodd" d="M95.4396 291.21C95.697 290.953 96.0456 290.806 96.3943 290.806C96.743 290.806 97.0921 290.953 97.3491 291.21L97.0921 291.467C96.9082 291.283 96.6513 291.173 96.3943 291.173C96.1374 291.173 95.8804 291.283 95.697 291.467L95.4396 291.21Z" fill="#737373" stroke="#737373" stroke-width="0.2"/>
<path d="M96.4082 292.546C96.6414 292.546 96.8304 292.357 96.8304 292.124C96.8304 291.891 96.6414 291.702 96.4082 291.702C96.175 291.702 95.986 291.891 95.986 292.124C95.986 292.357 96.175 292.546 96.4082 292.546Z" fill="#737373" stroke="#737373" stroke-width="0.2"/>
<path fill-rule="evenodd" clip-rule="evenodd" d="M95.822 294.84C95.8389 294.787 95.898 294.744 95.9547 294.744H97.1672C97.2239 294.744 97.2517 294.786 97.2306 294.838L96.5996 296.371C96.5781 296.422 96.6072 296.464 96.6622 296.464H97.6735C97.7298 296.464 97.7471 296.499 97.7116 296.544L95.5997 299.183C95.4602 299.358 95.4019 299.327 95.4695 299.114L96.0244 297.369C96.0413 297.316 96.0088 297.274 95.9542 297.274H95.1436C95.0883 297.274 95.0574 297.23 95.0739 297.177L95.822 294.84Z" fill="#737373" stroke="#737373" stroke-width="0.2"/>
<path fill-rule="evenodd" clip-rule="evenodd" d="M96.898 304.108C96.8045 304.203 96.6771 304.258 96.5433 304.261L94.2051 304.31C94.0709 304.314 93.9415 304.262 93.8464 304.167C93.7517 304.072 93.6997 303.943 93.7036 303.808L93.7305 302.813C93.7385 302.535 93.9615 302.312 94.2391 302.304L96.5746 302.253C96.7088 302.25 96.8385 302.301 96.9332 302.396C97.0283 302.491 97.0797 302.62 97.0764 302.755C97.0803 302.819 97.048 302.88 96.9927 302.912C96.9371 302.945 96.8681 302.944 96.8137 302.91C96.7593 302.876 96.7285 302.814 96.7345 302.75C96.7363 302.709 96.7208 302.67 96.6921 302.641C96.6631 302.612 96.6236 302.597 96.583 302.598L94.2427 302.644C94.1488 302.648 94.0735 302.724 94.0694 302.817L94.0428 303.813C94.0413 303.854 94.0565 303.894 94.0852 303.922C94.1139 303.951 94.1536 303.966 94.194 303.965L96.5346 303.919C96.6284 303.914 96.7037 303.839 96.7079 303.745C96.7163 303.656 96.7925 303.588 96.8818 303.591C96.9718 303.593 97.0447 303.663 97.0495 303.753C97.0471 303.886 96.9927 304.013 96.898 304.108Z" fill="#737373" stroke="#737373" stroke-width="0.1" stroke-miterlimit="2"/>
<path fill-rule="evenodd" clip-rule="evenodd" d="M98.9058 303.25C98.812 303.346 98.685 303.401 98.5511 303.404L96.2153 303.455C96.0814 303.459 95.9517 303.407 95.8567 303.312C95.7619 303.217 95.7102 303.087 95.7138 302.954C95.7031 302.887 95.7326 302.819 95.79 302.782C95.8468 302.745 95.9206 302.746 95.9771 302.783C96.0342 302.82 96.0635 302.888 96.0521 302.955C96.0503 302.995 96.0659 303.035 96.0946 303.064C96.1232 303.092 96.1627 303.108 96.2033 303.106L98.5389 303.056C98.6327 303.051 98.708 302.976 98.7122 302.882L98.7391 301.886C98.7403 301.846 98.725 301.806 98.6963 301.777C98.6677 301.749 98.6279 301.733 98.5876 301.735L96.2518 301.786C96.1579 301.79 96.0826 301.865 96.0784 301.959C96.082 302.023 96.0491 302.084 95.9935 302.116C95.938 302.149 95.8692 302.147 95.8151 302.112C95.761 302.078 95.7309 302.016 95.7371 301.952C95.7452 301.674 95.9681 301.451 96.2458 301.443L98.5813 301.395C98.7155 301.391 98.8452 301.443 98.9399 301.537C99.0349 301.632 99.0866 301.762 99.0828 301.896L99.0562 302.892C99.055 303.027 99.0012 303.155 98.9058 303.25Z" fill="#737373" stroke="#737373" stroke-width="0.1" stroke-miterlimit="2"/>
<path d="M207.483 282.263L207.483 282.263C207.53 282.222 207.536 282.149 207.495 282.101C207.453 282.053 207.382 282.048 207.335 282.089L207.335 282.089C206.737 282.613 206.525 283.456 206.804 284.204L207.483 282.263ZM207.483 282.263C207.118 282.583 206.909 283.046 206.909 283.532C206.909 284.458 207.655 285.212 208.575 285.212C209.495 285.212 210.241 284.458 210.241 283.532C210.241 283.041 210.028 282.574 209.657 282.255C209.609 282.213 209.603 282.14 209.645 282.092L209.645 282.092M207.483 282.263L209.645 282.092M210.351 284.19L210.351 284.189C210.624 283.44 210.405 282.598 209.803 282.079L210.351 284.19ZM210.351 284.19C210.079 284.94 209.373 285.439 208.583 285.442M210.351 284.19L208.583 285.442M209.645 282.092C209.685 282.044 209.756 282.038 209.803 282.079L209.645 282.092ZM208.583 285.442C207.792 285.445 207.082 284.952 206.804 284.204L208.583 285.442Z" fill="#737373" stroke="#737373" stroke-width="0.2"/>
<path d="M208.665 281.661V283.669C208.665 283.733 208.613 283.784 208.551 283.784C208.49 283.784 208.439 283.734 208.439 283.669V281.661C208.439 281.597 208.49 281.546 208.551 281.546C208.613 281.546 208.665 281.597 208.665 281.661Z" fill="#737373" stroke="#737373" stroke-width="0.2"/>
<path d="M206.655 288.577L206.548 288.462C207.113 287.934 207.842 287.669 208.571 287.669C209.301 287.669 210.03 287.934 210.594 288.462L210.487 288.577C209.953 288.065 209.261 287.818 208.571 287.818C207.881 287.818 207.189 288.065 206.655 288.577Z" fill="#737373" stroke="#737373" stroke-width="0.2"/>
<path d="M207.175 289.096C207.564 288.744 208.065 288.567 208.567 288.567C209.069 288.567 209.569 288.744 209.959 289.096L209.856 289.199C209.495 288.876 209.03 288.716 208.567 288.716C208.103 288.716 207.638 288.876 207.278 289.199L207.175 289.096Z" fill="#737373" stroke="#737373" stroke-width="0.2"/>
<path d="M207.884 289.814L207.78 289.711C207.997 289.527 208.271 289.424 208.543 289.424C208.815 289.424 209.089 289.527 209.306 289.711L209.203 289.814C209.018 289.662 208.782 289.573 208.543 289.573C208.305 289.573 208.068 289.662 207.884 289.814Z" fill="#737373" stroke="#737373" stroke-width="0.2"/>
<path d="M208.845 290.621C208.845 290.788 208.711 290.922 208.544 290.922C208.378 290.922 208.243 290.788 208.243 290.621C208.243 290.455 208.378 290.32 208.544 290.32C208.711 290.32 208.845 290.455 208.845 290.621Z" fill="#737373" stroke="#737373" stroke-width="0.2"/>
<path d="M208.115 293.19L208.115 293.191L207.417 295.373H208.145C208.198 295.373 208.251 295.394 208.285 295.44C208.319 295.486 208.324 295.543 208.307 295.594L208.307 295.594L208.212 295.563L208.307 295.594L208.115 293.19ZM208.115 293.19C208.116 293.189 208.119 293.183 208.127 293.176C208.136 293.17 208.144 293.169 208.146 293.169H209.246L208.666 294.576L208.115 293.19ZM207.827 297.104L207.73 297.225L207.73 297.225C207.728 297.228 207.725 297.231 207.723 297.234C207.723 297.234 207.723 297.234 207.723 297.234C207.697 297.266 207.677 297.285 207.665 297.295C207.665 297.296 207.665 297.296 207.665 297.297C207.673 297.295 207.695 297.291 207.72 297.304C207.745 297.318 207.754 297.338 207.757 297.346C207.757 297.346 207.758 297.345 207.758 297.345C207.76 297.329 207.765 297.302 207.777 297.262C207.777 297.262 207.777 297.262 207.777 297.262C207.778 297.259 207.779 297.255 207.78 297.252L207.78 297.252L207.827 297.104ZM208.818 294.803H209.668L208.666 294.576L208.666 294.576C208.646 294.624 208.645 294.683 208.678 294.733C208.712 294.783 208.767 294.803 208.818 294.803Z" fill="#737373" stroke="#737373" stroke-width="0.2"/>
<path fill-rule="evenodd" clip-rule="evenodd" d="M209.017 302.003C208.928 302.094 208.807 302.146 208.68 302.149L206.458 302.195C206.331 302.199 206.208 302.149 206.118 302.059C206.028 301.969 205.978 301.846 205.982 301.718L206.007 300.772C206.015 300.508 206.227 300.296 206.491 300.289L208.71 300.24C208.837 300.237 208.961 300.286 209.051 300.376C209.141 300.466 209.19 300.59 209.187 300.717C209.19 300.778 209.16 300.836 209.107 300.867C209.054 300.898 208.989 300.897 208.937 300.864C208.885 300.832 208.856 300.773 208.862 300.712C208.864 300.674 208.849 300.636 208.822 300.609C208.794 300.582 208.757 300.567 208.718 300.568L206.494 300.612C206.405 300.616 206.333 300.688 206.329 300.777L206.304 301.723C206.303 301.762 206.317 301.799 206.344 301.827C206.372 301.854 206.409 301.868 206.448 301.867L208.672 301.823C208.761 301.819 208.833 301.748 208.837 301.658C208.845 301.574 208.917 301.509 209.002 301.511C209.087 301.513 209.157 301.58 209.161 301.666C209.159 301.792 209.107 301.913 209.017 302.003Z" fill="#737373" stroke="#737373" stroke-width="0.2" stroke-miterlimit="2"/>
<path fill-rule="evenodd" clip-rule="evenodd" d="M210.928 301.184C210.839 301.274 210.718 301.327 210.591 301.33L208.371 301.378C208.244 301.382 208.121 301.333 208.031 301.242C207.941 301.152 207.891 301.029 207.895 300.902C207.885 300.838 207.913 300.774 207.967 300.739C208.021 300.704 208.091 300.704 208.145 300.739C208.199 300.775 208.227 300.839 208.216 300.903C208.215 300.941 208.229 300.979 208.257 301.006C208.284 301.033 208.321 301.048 208.36 301.046L210.579 300.998C210.668 300.994 210.74 300.923 210.744 300.834L210.77 299.888C210.771 299.849 210.756 299.811 210.729 299.784C210.702 299.757 210.664 299.742 210.626 299.744L208.406 299.792C208.317 299.796 208.245 299.867 208.241 299.957C208.245 300.017 208.213 300.075 208.161 300.106C208.108 300.137 208.043 300.135 207.991 300.102C207.94 300.07 207.911 300.01 207.917 299.95C207.925 299.686 208.137 299.474 208.4 299.466L210.62 299.42C210.747 299.416 210.87 299.466 210.96 299.556C211.051 299.646 211.1 299.769 211.096 299.897L211.071 300.843C211.07 300.971 211.019 301.093 210.928 301.184Z" fill="#737373" stroke="#737373" stroke-width="0.2" stroke-miterlimit="2"/>
<path d="M146.542 68.2517C148.705 68.2535 150.458 67.8091 150.459 67.2591C150.459 66.7092 148.706 66.2619 146.543 66.2602C144.38 66.2584 142.627 66.7028 142.626 67.2527C142.626 67.8027 144.379 68.2499 146.542 68.2517Z" stroke="#737373" stroke-miterlimit="1.5" stroke-linecap="round" stroke-linejoin="round"/>
<path d="M146.566 67.5403C148.247 67.5417 149.61 67.1598 149.61 66.6874C149.611 66.215 148.248 65.8309 146.567 65.8295C144.886 65.8282 143.523 66.21 143.523 66.6825C143.522 67.1549 144.885 67.539 146.566 67.5403Z" fill="white" stroke="#737373" stroke-miterlimit="1.5" stroke-linecap="round" stroke-linejoin="round"/>
<path d="M137.311 155.523L139.444 150.279H138.818L137.013 154.826L135.216 150.279H134.574L136.692 155.523H137.311ZM143.823 150.856V150.279H140.28V155.523H143.919V154.953H140.876V153.156H143.509V152.579H140.876V150.856H143.823ZM148.551 155.523H149.23L148.007 153.74C148.76 153.493 149.178 152.908 149.178 152.04C149.178 150.924 148.424 150.279 147.119 150.279H145.135V155.523H145.732V153.867H147.119C147.238 153.867 147.358 153.86 147.47 153.852L148.551 155.523ZM145.732 153.29V150.856H147.119C148.066 150.856 148.603 151.261 148.603 152.055C148.603 152.871 148.066 153.29 147.119 153.29H145.732ZM150.528 150.279V155.523H152.616C154.152 155.523 155.323 154.391 155.323 152.901C155.323 151.41 154.16 150.279 152.638 150.279H150.528ZM151.124 150.856H152.623C153.794 150.856 154.719 151.732 154.719 152.908C154.719 154.077 153.809 154.953 152.646 154.953H151.124V150.856ZM157.009 155.523V150.279H156.412V155.523H157.009ZM162.23 152.961V154.541C161.827 154.818 161.327 154.983 160.857 154.983C159.664 154.983 158.702 154.062 158.702 152.901C158.702 151.747 159.657 150.826 160.85 150.826C161.432 150.826 162.006 151.051 162.431 151.433L162.774 150.983C162.275 150.542 161.573 150.264 160.85 150.264C159.314 150.264 158.098 151.425 158.098 152.901C158.098 154.377 159.306 155.552 160.82 155.552C161.521 155.552 162.245 155.275 162.759 154.863V152.961H162.23ZM167.622 155.523H168.301L167.078 153.74C167.831 153.493 168.249 152.908 168.249 152.04C168.249 150.924 167.495 150.279 166.19 150.279H164.206V155.523H164.803V153.867H166.19C166.31 153.867 166.429 153.86 166.541 153.852L167.622 155.523ZM164.803 153.29V150.856H166.19C167.137 150.856 167.674 151.261 167.674 152.055C167.674 152.871 167.137 153.29 166.19 153.29H164.803ZM170.195 155.523V150.279H169.599V155.523H170.195ZM173.328 150.257C172.246 150.257 171.523 150.789 171.523 151.613C171.523 153.493 174.462 152.759 174.454 154.137C174.454 154.639 173.984 154.946 173.231 154.946C172.642 154.946 171.978 154.676 171.493 154.204L171.225 154.743C171.717 155.215 172.463 155.545 173.223 155.545C174.342 155.545 175.11 154.983 175.11 154.107C175.118 152.204 172.179 152.908 172.179 151.56C172.179 151.118 172.619 150.864 173.291 150.864C173.708 150.864 174.26 150.991 174.73 151.306L174.984 150.744C174.551 150.452 173.932 150.257 173.328 150.257Z" fill="#737373" stroke="#737373" stroke-width="0.3"/>
<path d="M163.725 131.015L163.725 131.015C163.59 130.786 163.298 130.712 163.073 130.849L163.725 131.015ZM163.725 131.015C163.862 131.245 163.787 131.543 163.562 131.681L160.067 133.807C159.926 133.516 159.762 133.239 159.577 132.979L163.073 130.849L163.725 131.015ZM150.629 132.92C151.635 131.617 153.2 130.78 154.957 130.78C156.715 130.78 158.28 131.618 159.286 132.922L158.461 133.425C157.628 132.402 156.368 131.749 154.957 131.749C153.547 131.749 152.288 132.401 151.455 133.422L150.629 132.92ZM149.846 133.807L146.352 131.681C146.352 131.681 146.352 131.681 146.352 131.681C146.126 131.543 146.052 131.245 146.188 131.015L146.188 131.015C146.324 130.786 146.616 130.712 146.841 130.849C146.841 130.849 146.841 130.849 146.841 130.849L150.338 132.977C150.152 133.238 149.988 133.515 149.846 133.807ZM149.464 136.352C149.464 135.548 149.632 134.784 149.934 134.094L150.759 134.596C150.539 135.137 150.417 135.73 150.417 136.352C150.417 138.892 152.448 140.954 154.957 140.954C157.465 140.954 159.497 138.892 159.497 136.352C159.497 135.73 159.375 135.137 159.155 134.596L159.98 134.094C160.282 134.784 160.449 135.548 160.449 136.352C160.449 139.43 157.989 141.923 154.957 141.923C151.925 141.923 149.464 139.43 149.464 136.352ZM150.51 133.081L151.331 133.581C151.14 133.838 150.975 134.116 150.839 134.411L150.018 133.911C150.158 133.619 150.323 133.342 150.51 133.081ZM159.896 133.911L159.075 134.411C158.939 134.117 158.775 133.84 158.584 133.584L159.406 133.083C159.591 133.343 159.756 133.62 159.896 133.911ZM158.413 133.688C158.604 133.944 158.769 134.221 158.902 134.516L155.201 136.767C155.051 136.859 154.863 136.859 154.712 136.767L151.011 134.516C151.145 134.22 151.311 133.942 151.503 133.686L154.91 135.759L154.962 135.79L155.014 135.759L158.413 133.688Z" fill="#737373" stroke="#737373" stroke-width="0.2"/>
<path d="M163.562 130.867L163.614 130.782L163.562 130.867C163.705 130.955 163.794 131.112 163.794 131.283V141.457C163.794 141.628 163.705 141.785 163.562 141.873L155.201 146.96C155.051 147.051 154.863 147.051 154.712 146.96L146.352 141.873C146.208 141.785 146.12 141.628 146.12 141.457V131.283C146.12 131.112 146.208 130.955 146.352 130.867L146.352 130.867L154.712 125.78C154.863 125.689 155.051 125.689 155.201 125.78L163.562 130.867ZM147.073 141.127L147.073 141.183L147.121 141.212L154.907 145.949L154.959 145.98L155.011 145.949L162.795 141.21L162.843 141.181L162.843 141.125L162.841 131.616L162.841 131.56L162.793 131.531L155.014 126.796L154.963 126.764L154.911 126.796L147.12 131.529L147.072 131.558L147.072 131.615L147.073 141.127Z" fill="#737373" stroke="#737373" stroke-width="0.2"/>
<path d="M193.435 250.818V259.05L192.978 260.422C193.13 260.879 193.71 261.885 194.807 262.251L198.923 263.623L199.381 271.855L200.295 272.313L200.753 313.473L199.838 341.37H189.777C186.575 341.37 160.964 347.773 157.306 349.145C153.647 350.517 151.818 352.346 151.818 354.633C151.818 356.92 151.36 366.981 151.818 375.213C152.275 383.445 158.22 385.275 165.08 389.391C171.941 393.507 181.545 395.793 194.807 396.251C208.07 396.708 236.882 388.476 238.712 387.561C240.541 386.647 243.285 382.073 243.285 377.957V356.005C243.285 354.542 239.321 352.346 237.34 351.432L214.473 341.37L206.698 339.998V272.77L208.07 271.855V263.623L211.271 256.306V239.842L210.357 237.098C208.07 235.878 203.314 233.348 202.582 232.982C201.85 232.616 198.314 234.354 196.637 235.269L193.435 236.641V245.33L192.063 248.074L193.435 250.818Z" fill="white" stroke="#737373"/>
<path d="M154.544 350.299C154.014 351.944 153.539 353.003 158.902 355.868C164.267 358.73 178.71 365.6 188.889 365.805C199.068 366.014 227.717 361.033 233.724 359.087C239.732 357.138 242.672 353.603 241.857 353.88" stroke="#737373" stroke-width="0.5" stroke-miterlimit="1.415" stroke-linecap="round" stroke-linejoin="round"/>
<path d="M199.975 377.844L201.868 382.365H202.748L204.685 377.343L203.789 377.542L202.401 381.063L200.932 377.764L199.975 377.844Z" stroke="#737373" stroke-width="0.5" stroke-miterlimit="1.415" stroke-linecap="round" stroke-linejoin="round"/>
<path d="M205.776 377.059L205.637 381.911L208.808 381.474L208.826 380.779L206.356 381.006L206.419 379.663L208.53 379.57V378.906L207.727 378.948L206.338 379.02V377.666L208.728 377.44V376.763L205.776 377.059Z" stroke="#737373" stroke-width="0.5" stroke-miterlimit="1.415" stroke-linecap="round" stroke-linejoin="round"/>
<path d="M210.156 381.307L210.123 377.462L210.332 376.284C210.332 376.284 212.027 376.013 212.659 376.083C213.295 376.154 213.73 376.625 213.766 377.363C213.803 378.1 212.867 379.064 212.783 379.064C212.703 379.064 213.872 380.636 213.872 380.636L212.948 380.714L211.917 379.298L211 379.441L210.923 381.238L210.156 381.307Z" stroke="#737373" stroke-width="0.5" stroke-miterlimit="1.415" stroke-linecap="round" stroke-linejoin="round"/>
<path d="M210.891 376.972L210.931 378.691C210.931 378.691 211.885 378.756 212.25 378.626C212.612 378.496 213.08 377.753 213.054 377.526C213.028 377.299 212.458 376.762 211.998 376.789C211.538 376.815 210.891 376.972 210.891 376.972Z" stroke="#737373" stroke-width="0.5" stroke-miterlimit="1.415" stroke-linecap="round" stroke-linejoin="round"/>
<path d="M215.088 375.551V380.375C215.088 380.375 216.192 380.343 216.923 380.065C217.65 379.787 218.925 378.444 218.95 377.401C218.976 376.358 218.479 375.538 217.752 375.336C217.025 375.135 215.088 375.551 215.088 375.551Z" stroke="#737373" stroke-width="0.5" stroke-miterlimit="1.415" stroke-linecap="round" stroke-linejoin="round"/>
<path d="M215.785 376.186L215.865 379.471C215.865 379.471 217.005 379.498 217.718 378.708C218.43 377.918 218.142 377.698 218.178 377.31C218.218 376.922 217.659 375.966 216.856 375.985C216.048 376.004 215.785 376.186 215.785 376.186Z" stroke="#737373" stroke-width="0.5" stroke-miterlimit="1.415" stroke-linecap="round" stroke-linejoin="round"/>
<path d="M220.222 374.757L220.171 379.462L220.982 379.411L221 374.66L220.222 374.757Z" stroke="#737373" stroke-width="0.5" stroke-miterlimit="1.415" stroke-linecap="round" stroke-linejoin="round"/>
<path d="M225.711 374.03C225.291 373.764 224.399 373.662 223.5 374.087C222.605 374.511 222.265 375.591 222.188 375.837C222.115 376.083 222.152 377.694 222.152 377.694C222.152 377.694 222.324 378.327 223.149 378.651C223.975 378.975 224.805 378.735 224.805 378.735C224.805 378.735 225.524 378.336 225.776 377.726C226.029 377.117 225.915 375.979 225.915 375.979H225.342L225.301 377.43C225.301 377.43 224.98 378.012 224.425 378.012C223.873 378.012 223.263 378.058 223.076 377.347C222.886 376.635 222.696 376.197 223.018 375.684C223.339 375.171 223.628 374.861 224.012 374.699C224.395 374.537 225.371 374.654 225.371 374.654C225.371 374.654 226.135 374.295 225.711 374.03Z" stroke="#737373" stroke-width="0.5" stroke-miterlimit="1.415" stroke-linecap="round" stroke-linejoin="round"/>
<path d="M227.204 373.336L227.222 377.938L227.818 377.983V376.232L228.684 376.154L229.678 377.531L230.551 377.428L229.502 375.718C229.502 375.718 230.482 375.313 230.376 374.296C230.266 373.279 230.178 373.072 229.813 372.923C229.448 372.773 227.204 373.336 227.204 373.336Z" stroke="#737373" stroke-width="0.5" stroke-miterlimit="1.415" stroke-linecap="round" stroke-linejoin="round"/>
<path d="M227.78 373.77V375.478C227.78 375.478 228.796 375.62 229.19 375.251C229.589 374.883 229.72 374.347 229.702 374.094C229.684 373.841 229.176 373.596 228.704 373.68C228.229 373.765 227.78 373.77 227.78 373.77Z" stroke="#737373" stroke-width="0.5" stroke-miterlimit="1.415" stroke-linecap="round" stroke-linejoin="round"/>
<path d="M231.643 372.273L231.635 376.953L232.436 376.713L232.41 372.158L231.643 372.273Z" stroke="#737373" stroke-width="0.5" stroke-miterlimit="1.415" stroke-linecap="round" stroke-linejoin="round"/>
<path d="M236.071 371.471C235.516 371.135 234.975 371.18 234.61 371.342C234.248 371.504 233.517 372.397 233.517 372.397L233.612 373.781C233.612 373.781 234.416 374.363 235.191 374.382C235.965 374.4 235.574 375.513 234.935 375.526C234.292 375.538 233.795 375.272 233.795 375.272L233.298 375.758C233.298 375.758 233.419 376.366 234.179 376.385C234.939 376.405 235.699 375.979 235.987 375.552C236.276 375.124 236.276 373.812 236.276 373.812L235.026 373.25C235.026 373.25 234.164 373.387 234.164 372.901C234.164 372.414 234.895 372.155 234.895 372.155L235.812 372.117C235.812 372.117 236.623 371.807 236.071 371.471Z" stroke="#737373" stroke-width="0.5" stroke-miterlimit="1.415" stroke-linecap="round" stroke-linejoin="round"/>
<path d="M163.221 351.816L169.863 354.766C169.863 354.766 172.728 354.199 173.397 354.108C174.065 354.017 175.085 354.361 175.085 354.361C175.085 354.361 177.931 354.431 179.078 354.026C180.229 353.622 181.976 353.379 181.976 353.379L184.252 353.178C184.252 353.178 185.666 352.623 185.695 352.399C185.724 352.175 184.902 351.517 184.902 351.517C184.902 351.517 179.897 349.285 179.064 348.94C178.23 348.597 176.904 348.647 175.804 348.647C174.705 348.647 174.153 348.707 174.153 348.707L168.11 349.98C168.11 349.98 166.951 350.019 166.765 350.425C166.579 350.831 166.549 351.227 166.549 351.227L163.221 351.816Z" stroke="#737373" stroke-miterlimit="1.415" stroke-linecap="round" stroke-linejoin="round"/>
<path d="M166.027 352.965L168.435 352.571L168.417 354.018" stroke="#737373" stroke-width="0.5" stroke-miterlimit="1.415" stroke-linecap="round" stroke-linejoin="round"/>
<path d="M166.651 351.04L168.39 352.444" stroke="#737373" stroke-width="0.5" stroke-miterlimit="1.415" stroke-linecap="round" stroke-linejoin="round"/>
<path d="M167.947 351.97C167.947 351.97 168.546 351.434 169.057 351.404C169.569 351.373 175.035 350.323 175.035 350.323C175.035 350.323 177.614 350.354 178.02 350.516C178.425 350.678 183.749 353.176 183.749 353.176L185.137 351.649" stroke="#737373" stroke-width="0.5" stroke-miterlimit="1.415" stroke-linecap="round" stroke-linejoin="round"/>
<path d="M178.92 348.978L177.831 350.443L177.871 354.275" stroke="#737373" stroke-width="0.5" stroke-miterlimit="1.415" stroke-linecap="round" stroke-linejoin="round"/>
<path d="M174.353 348.767L175.069 350.332L175.029 354.244" stroke="#737373" stroke-width="0.5" stroke-miterlimit="1.415" stroke-linecap="round" stroke-linejoin="round"/>
<path d="M168.186 349.978L168.837 351.423L168.884 354.11" stroke="#737373" stroke-width="0.5" stroke-miterlimit="1.415" stroke-linecap="round" stroke-linejoin="round"/>
<path d="M188.532 359.086C188.532 359.086 188.393 359.495 187.893 359.497C187.396 359.499 186.464 359.408 186.464 359.408C186.464 359.408 185.737 359.324 185.868 359.098C186.003 358.872 187.699 358.611 187.769 358.767" stroke="#737373" stroke-width="0.5" stroke-miterlimit="1.415" stroke-linecap="round" stroke-linejoin="round"/>
<path d="M186.564 358.931L186.527 359.328" stroke="#737373" stroke-width="0.5" stroke-miterlimit="1.415" stroke-linecap="round" stroke-linejoin="round"/>
<path d="M187.931 358.578C188.278 358.371 188.673 358.263 189.195 358.488C189.718 358.712 190.251 358.999 190.478 358.963" stroke="#737373" stroke-width="0.5" stroke-miterlimit="1.415" stroke-linecap="round" stroke-linejoin="round"/>
<path d="M189.226 358.389C189.65 358.191 189.285 358.138 190.052 358.138C190.819 358.138 190.805 357.931 190.805 357.931L190.724 359.421" stroke="#737373" stroke-width="0.5" stroke-miterlimit="1.415" stroke-linecap="round" stroke-linejoin="round"/>
<path d="M190.883 357.961L191.599 357.907L192.6 359.326L192.714 360.72C192.714 360.72 190.854 360.19 190.803 359.345C190.752 358.5 188.768 360.384 188.059 360.133C187.35 359.883 193.642 362.762 193.642 362.762C193.642 362.762 196.656 364.241 196.875 364.241C197.094 364.241 206.766 362.314 206.766 362.314L199.904 358.865L199.703 357.52C199.703 357.52 199.616 357.243 198.91 357.35C198.202 357.458 197.566 357.512 197.566 357.512L196.667 358.454L198.176 358.239C198.176 358.239 199.553 357.953 199.711 357.772C199.868 357.592 199.729 358.721 199.729 358.721C199.729 358.721 200.24 359.411 198.863 359.519C197.485 359.626 196.561 359.924 196.561 359.924L196.598 358.503L195.724 358.256L195.743 360.123L193.057 360.703L192.944 359.139L195.673 358.592C195.673 358.592 195.275 357.442 194.76 357.442C194.245 357.442 193.649 357.577 193.649 357.577L193.956 357.854L193.046 358.762L192.557 359.139C192.557 359.139 191.822 358.314 192.418 357.918C193.01 357.523 193.686 357.901 193.686 357.901" stroke="#737373" stroke-width="0.5" stroke-miterlimit="1.415" stroke-linecap="round" stroke-linejoin="round"/>
<path d="M202.753 360.476C202.753 360.476 203.28 362.737 203.687 362.828C204.098 362.918 202.958 361.724 202.958 361.724L201.829 360.917C201.829 360.917 201.583 360.414 201.778 360.045" stroke="#737373" stroke-width="0.5" stroke-miterlimit="1.415" stroke-linecap="round" stroke-linejoin="round"/>
<path d="M188.867 359.919L193.102 362.232L195.532 361.666C195.532 361.666 195.974 362.122 195.747 362.519C195.521 362.915 195.469 363.499 195.469 363.499L196.602 363.319C196.602 363.319 196.975 362.816 197.263 363.014C197.552 363.211 198.294 363.759 198.294 363.759L199.156 363.651L197.833 362.404L197.267 362.8L197.037 361.928L197.764 361.946C197.764 361.946 198.747 361.873 199.112 362.412C199.478 362.952 199.635 363.518 199.635 363.518L200.15 363.445C200.15 363.445 199.437 364.154 199.532 362.169C199.631 360.183 199.92 361.431 199.92 361.431L199.876 362.102L200.687 362.156L200.625 362.532L199.682 362.595" stroke="#737373" stroke-width="0.5" stroke-miterlimit="1.415" stroke-linecap="round" stroke-linejoin="round"/>
<path d="M200.862 362.228C200.862 362.228 201.711 362.328 202.094 362.911" stroke="#737373" stroke-width="0.5" stroke-miterlimit="1.415" stroke-linecap="round" stroke-linejoin="round"/>
<path d="M201.126 362.032C201.459 361.663 201.799 361.439 202.332 361.932C202.862 362.426 203.07 362.885 203.07 362.885" stroke="#737373" stroke-width="0.5" stroke-miterlimit="1.415" stroke-linecap="round" stroke-linejoin="round"/>
<path d="M199.788 359.834C199.788 359.834 201.706 359.69 201.225 360.356C200.744 361.022 200.758 360.913 199.908 360.913C199.062 360.913 198.375 360.687 198.556 360.266C198.741 359.845 199.788 359.834 199.788 359.834Z" stroke="#737373" stroke-width="0.5" stroke-miterlimit="1.415" stroke-linecap="round" stroke-linejoin="round"/>
<path d="M195.971 360.539C195.971 360.539 197.889 360.395 197.412 361.061C196.927 361.726 196.941 361.617 196.091 361.617C195.249 361.617 194.558 361.392 194.739 360.971C194.924 360.549 195.971 360.539 195.971 360.539Z" stroke="#737373" stroke-width="0.5" stroke-miterlimit="1.415" stroke-linecap="round" stroke-linejoin="round"/>
<path d="M198.158 360.699C198.158 360.699 199.011 360.648 198.797 360.885C198.584 361.121 198.586 361.083 198.213 361.082C197.832 361.082 197.525 361.002 197.603 360.853C197.689 360.703 198.158 360.699 198.158 360.699Z" stroke="#737373" stroke-width="0.5" stroke-miterlimit="1.415" stroke-linecap="round" stroke-linejoin="round"/>
<path d="M197.863 361.166V361.76L197.527 361.896L197.615 362.489L199.325 363.674L199.665 363.522L199.482 362.517L200.71 362.419L201.05 362.078L200.911 360.956L201.755 361.09L201.51 361.503" stroke="#737373" stroke-width="0.5" stroke-miterlimit="1.415" stroke-linecap="round" stroke-linejoin="round"/>
<path d="M192.489 361.759L194.796 361.284" stroke="#737373" stroke-width="0.5" stroke-miterlimit="1.415" stroke-linecap="round" stroke-linejoin="round"/>
<path d="M191.769 357.91C191.769 357.91 191.864 357.524 192.537 357.658C193.205 357.793 193.757 357.433 193.757 357.433L195.229 357.288L195.35 357.962L193.669 358.268" stroke="#737373" stroke-width="0.5" stroke-miterlimit="1.415" stroke-linecap="round" stroke-linejoin="round"/>
<path d="M195.279 357.229C195.279 357.229 195.367 356.813 195.882 356.867C196.397 356.921 196.309 357.391 196.309 357.391L195.995 357.615L195.279 357.229Z" stroke="#737373" stroke-width="0.5" stroke-miterlimit="1.415" stroke-linecap="round" stroke-linejoin="round"/>
<path d="M196.472 358.363L195.994 357.656" stroke="#737373" stroke-width="0.5" stroke-miterlimit="1.415" stroke-linecap="round" stroke-linejoin="round"/>
<path d="M196.426 356.968C196.426 356.968 197.358 356.87 197.464 357.278C197.57 357.682 197.822 356.93 198.238 356.756C198.658 356.585 199.042 356.885 199.042 356.885L199.243 357.206" stroke="#737373" stroke-width="0.5" stroke-miterlimit="1.415" stroke-linecap="round" stroke-linejoin="round"/>
<path d="M201.68 356.628C201.68 356.628 201.541 357.038 201.04 357.04C200.544 357.042 199.612 356.951 199.612 356.951C199.612 356.951 198.885 356.867 199.016 356.641C199.151 356.415 200.847 356.153 200.916 356.31" stroke="#737373" stroke-width="0.5" stroke-miterlimit="1.415" stroke-linecap="round" stroke-linejoin="round"/>
<path d="M199.735 356.473L199.698 356.87" stroke="#737373" stroke-width="0.5" stroke-miterlimit="1.415" stroke-linecap="round" stroke-linejoin="round"/>
<path d="M201.103 356.12C201.453 355.913 201.848 355.806 202.37 356.03C202.893 356.255 203.426 356.541 203.653 356.505" stroke="#737373" stroke-width="0.5" stroke-miterlimit="1.415" stroke-linecap="round" stroke-linejoin="round"/>
<path d="M202.398 355.932C202.825 355.734 202.46 355.68 203.227 355.68C203.995 355.68 203.976 355.473 203.976 355.473L203.9 356.964" stroke="#737373" stroke-width="0.5" stroke-miterlimit="1.415" stroke-linecap="round" stroke-linejoin="round"/>
<path d="M204.055 355.504L204.771 355.45L205.772 356.869L205.885 358.262C205.885 358.262 204.025 357.732 203.974 356.888C203.923 356.043 201.939 357.926 201.23 357.676C200.521 357.426 206.813 360.304 206.813 360.304C206.813 360.304 209.827 361.784 210.047 361.784C210.266 361.784 219.937 359.856 219.937 359.856L213.072 356.408L212.875 355.062C212.875 355.062 212.787 354.785 212.082 354.893C211.373 355.001 210.737 355.054 210.737 355.054L209.838 355.997L211.347 355.782C211.347 355.782 212.725 355.495 212.882 355.315C213.039 355.135 212.9 356.263 212.9 356.263C212.9 356.263 213.412 356.954 212.034 357.061C210.657 357.169 209.733 357.466 209.733 357.466L209.769 356.046L208.896 355.799L208.914 357.665L206.229 358.245L206.115 356.682L208.845 356.135C208.845 356.135 208.446 354.985 207.931 354.985C207.416 354.985 206.82 355.119 206.82 355.119L207.127 355.396L206.218 356.304L205.728 356.682C205.728 356.682 204.994 355.856 205.589 355.461C206.181 355.065 206.857 355.443 206.857 355.443" stroke="#737373" stroke-width="0.5" stroke-miterlimit="1.415" stroke-linecap="round" stroke-linejoin="round"/>
<path d="M215.925 358.019C215.925 358.019 216.447 360.28 216.859 360.371C217.27 360.46 216.129 359.268 216.129 359.268L215 358.46C215 358.46 214.755 357.958 214.95 357.587" stroke="#737373" stroke-width="0.5" stroke-miterlimit="1.415" stroke-linecap="round" stroke-linejoin="round"/>
<path d="M202.038 357.461L206.269 359.775L208.702 359.209C208.702 359.209 209.145 359.664 208.918 360.061C208.691 360.458 208.64 361.042 208.64 361.042L209.773 360.862C209.773 360.862 210.146 360.358 210.434 360.556C210.723 360.754 211.465 361.301 211.465 361.301L212.327 361.194L211.004 359.947L210.438 360.342L210.208 359.471L210.931 359.488C210.931 359.488 211.918 359.415 212.283 359.955C212.648 360.495 212.806 361.061 212.806 361.061L213.321 360.988C213.321 360.988 212.608 361.697 212.703 359.711C212.798 357.726 213.087 358.973 213.087 358.973L213.047 359.644L213.858 359.698L213.796 360.075L212.853 360.138" stroke="#737373" stroke-width="0.5" stroke-miterlimit="1.415" stroke-linecap="round" stroke-linejoin="round"/>
<path d="M214.034 359.771C214.034 359.771 214.882 359.87 215.265 360.454" stroke="#737373" stroke-width="0.5" stroke-miterlimit="1.415" stroke-linecap="round" stroke-linejoin="round"/>
<path d="M214.297 359.574C214.63 359.206 214.969 358.981 215.499 359.475C216.033 359.968 216.241 360.427 216.241 360.427" stroke="#737373" stroke-width="0.5" stroke-miterlimit="1.415" stroke-linecap="round" stroke-linejoin="round"/>
<path d="M212.959 357.377C212.959 357.377 214.874 357.233 214.397 357.899C213.916 358.565 213.926 358.456 213.08 358.456C212.234 358.456 211.547 358.23 211.728 357.809C211.912 357.388 212.959 357.377 212.959 357.377Z" stroke="#737373" stroke-width="0.5" stroke-miterlimit="1.415" stroke-linecap="round" stroke-linejoin="round"/>
<path d="M209.142 358.081C209.142 358.081 211.061 357.937 210.583 358.603C210.102 359.269 210.112 359.16 209.263 359.16C208.417 359.16 207.73 358.934 207.911 358.513C208.095 358.092 209.142 358.081 209.142 358.081Z" stroke="#737373" stroke-width="0.5" stroke-miterlimit="1.415" stroke-linecap="round" stroke-linejoin="round"/>
<path d="M211.329 358.242C211.329 358.242 212.182 358.191 211.969 358.428C211.755 358.664 211.757 358.625 211.384 358.625C211.004 358.625 210.697 358.545 210.775 358.396C210.861 358.246 211.329 358.242 211.329 358.242Z" stroke="#737373" stroke-width="0.5" stroke-miterlimit="1.415" stroke-linecap="round" stroke-linejoin="round"/>
<path d="M211.035 358.709V359.303L210.699 359.439L210.787 360.032L212.497 361.217L212.836 361.065L212.654 360.06L213.881 359.962L214.221 359.621L214.082 358.499L214.926 358.633L214.681 359.046" stroke="#737373" stroke-width="0.5" stroke-miterlimit="1.415" stroke-linecap="round" stroke-linejoin="round"/>
<path d="M205.661 359.301L207.969 358.827" stroke="#737373" stroke-width="0.5" stroke-miterlimit="1.415" stroke-linecap="round" stroke-linejoin="round"/>
<path d="M204.941 355.452C204.941 355.452 205.036 355.066 205.708 355.201C206.377 355.335 206.928 354.975 206.928 354.975L208.401 354.831L208.521 355.505L206.841 355.81" stroke="#737373" stroke-width="0.5" stroke-miterlimit="1.415" stroke-linecap="round" stroke-linejoin="round"/>
<path d="M208.45 354.772C208.45 354.772 208.538 354.356 209.053 354.41C209.568 354.464 209.48 354.933 209.48 354.933L209.166 355.158L208.45 354.772Z" stroke="#737373" stroke-width="0.5" stroke-miterlimit="1.415" stroke-linecap="round" stroke-linejoin="round"/>
<path d="M209.643 355.918L209.165 355.21" stroke="#737373" stroke-width="0.5" stroke-miterlimit="1.415" stroke-linecap="round" stroke-linejoin="round"/>
<path d="M209.598 354.523C209.598 354.523 210.53 354.429 210.636 354.833C210.739 355.237 210.991 354.485 211.41 354.31C211.831 354.14 212.215 354.439 212.215 354.439L212.415 354.76" stroke="#737373" stroke-width="0.5" stroke-miterlimit="1.415" stroke-linecap="round" stroke-linejoin="round"/>
<path d="M214.659 354.195C214.659 354.195 214.52 354.608 214.023 354.606C213.522 354.608 212.591 354.517 212.591 354.517C212.591 354.517 211.867 354.436 211.999 354.21C212.13 353.984 213.826 353.724 213.899 353.876" stroke="#737373" stroke-width="0.5" stroke-miterlimit="1.415" stroke-linecap="round" stroke-linejoin="round"/>
<path d="M212.69 354.053L212.653 354.45" stroke="#737373" stroke-width="0.5" stroke-miterlimit="1.415" stroke-linecap="round" stroke-linejoin="round"/>
<path d="M214.058 353.688C214.408 353.481 214.799 353.373 215.322 353.598C215.848 353.822 216.378 354.109 216.604 354.073" stroke="#737373" stroke-width="0.5" stroke-miterlimit="1.415" stroke-linecap="round" stroke-linejoin="round"/>
<path d="M215.353 353.499C215.781 353.301 215.415 353.247 216.182 353.247C216.946 353.247 216.931 353.04 216.931 353.04L216.851 354.531" stroke="#737373" stroke-width="0.5" stroke-miterlimit="1.415" stroke-linecap="round" stroke-linejoin="round"/>
<path d="M217.009 353.071L217.725 353.017L218.726 354.436L218.84 355.83C218.84 355.83 216.983 355.3 216.929 354.455C216.877 353.61 214.893 355.493 214.185 355.243C213.479 354.993 219.771 357.871 219.771 357.871C219.771 357.871 222.786 359.351 223.001 359.351C223.22 359.351 232.895 357.423 232.895 357.423L226.03 353.975L225.829 352.629C225.829 352.629 225.745 352.352 225.036 352.46C224.331 352.568 223.692 352.621 223.692 352.621L222.793 353.564L224.302 353.349C224.302 353.349 225.679 353.062 225.836 352.882C225.997 352.702 225.855 353.831 225.855 353.831C225.855 353.831 226.37 354.521 224.992 354.629C223.615 354.736 222.687 355.033 222.687 355.033L222.727 353.613L221.85 353.365L221.868 355.233L219.183 355.812L219.07 354.249L221.799 353.702C221.799 353.702 221.401 352.552 220.886 352.552C220.37 352.552 219.779 352.686 219.779 352.686L220.082 352.963L219.176 353.871L218.682 354.249C218.682 354.249 217.948 353.423 218.544 353.028C219.139 352.632 219.811 353.01 219.811 353.01" stroke="#737373" stroke-width="0.5" stroke-miterlimit="1.415" stroke-linecap="round" stroke-linejoin="round"/>
<path d="M228.899 355.583C228.899 355.583 229.422 357.844 229.829 357.934C230.24 358.024 229.1 356.831 229.1 356.831L227.974 356.024C227.974 356.024 227.73 355.521 227.918 355.151" stroke="#737373" stroke-width="0.5" stroke-miterlimit="1.415" stroke-linecap="round" stroke-linejoin="round"/>
<path d="M214.993 355.028L219.224 357.342L221.654 356.776C221.654 356.776 222.1 357.231 221.87 357.629C221.643 358.025 221.592 358.609 221.592 358.609L222.724 358.429C222.724 358.429 223.101 357.926 223.389 358.124C223.678 358.321 224.42 358.869 224.42 358.869L225.282 358.761L223.956 357.514L223.389 357.91L223.163 357.038L223.886 357.055C223.886 357.055 224.869 356.983 225.238 357.522C225.604 358.062 225.761 358.628 225.761 358.628L226.276 358.555C226.276 358.555 225.56 359.264 225.655 357.279C225.753 355.294 226.042 356.54 226.042 356.54L225.998 357.212L226.809 357.265L226.747 357.642L225.805 357.705" stroke="#737373" stroke-width="0.5" stroke-miterlimit="1.415" stroke-linecap="round" stroke-linejoin="round"/>
<path d="M227.013 357.338C227.013 357.338 227.857 357.438 228.24 358.021" stroke="#737373" stroke-width="0.5" stroke-miterlimit="1.415" stroke-linecap="round" stroke-linejoin="round"/>
<path d="M227.277 357.142C227.605 356.773 227.945 356.548 228.479 357.042C229.008 357.536 229.22 357.994 229.22 357.994" stroke="#737373" stroke-width="0.5" stroke-miterlimit="1.415" stroke-linecap="round" stroke-linejoin="round"/>
<path d="M225.912 354.945C225.912 354.945 227.83 354.801 227.353 355.467C226.868 356.133 226.882 356.023 226.032 356.024C225.186 356.024 224.499 355.798 224.68 355.377C224.865 354.956 225.912 354.945 225.912 354.945Z" stroke="#737373" stroke-width="0.5" stroke-miterlimit="1.415" stroke-linecap="round" stroke-linejoin="round"/>
<path d="M222.101 355.655C222.101 355.655 224.019 355.511 223.54 356.177C223.062 356.842 223.067 356.734 222.225 356.733C221.375 356.734 220.687 356.508 220.87 356.087C221.053 355.666 222.101 355.655 222.101 355.655Z" stroke="#737373" stroke-width="0.5" stroke-miterlimit="1.415" stroke-linecap="round" stroke-linejoin="round"/>
<path d="M224.283 355.809C224.283 355.809 225.14 355.759 224.923 355.995C224.709 356.231 224.711 356.193 224.338 356.192C223.961 356.192 223.651 356.112 223.733 355.963C223.815 355.813 224.283 355.809 224.283 355.809Z" stroke="#737373" stroke-width="0.5" stroke-miterlimit="1.415" stroke-linecap="round" stroke-linejoin="round"/>
<path d="M224.01 356.276V356.87L223.678 357.006L223.766 357.599L225.472 358.784L225.812 358.632L225.629 357.627L226.857 357.529L227.2 357.187L227.058 356.066L227.905 356.2L227.661 356.613" stroke="#737373" stroke-width="0.5" stroke-miterlimit="1.415" stroke-linecap="round" stroke-linejoin="round"/>
<path d="M218.616 356.868L220.928 356.394" stroke="#737373" stroke-width="0.5" stroke-miterlimit="1.415" stroke-linecap="round" stroke-linejoin="round"/>
<path d="M217.92 353.02C217.92 353.02 218.015 352.634 218.687 352.768C219.36 352.903 219.908 352.542 219.908 352.542L221.38 352.398L221.504 353.072L219.82 353.378" stroke="#737373" stroke-width="0.5" stroke-miterlimit="1.415" stroke-linecap="round" stroke-linejoin="round"/>
<path d="M221.405 352.339C221.405 352.339 221.493 351.923 222.009 351.977C222.524 352.031 222.436 352.501 222.436 352.501L222.121 352.725L221.405 352.339Z" stroke="#737373" stroke-width="0.5" stroke-miterlimit="1.415" stroke-linecap="round" stroke-linejoin="round"/>
<path d="M222.622 353.485L222.144 352.778" stroke="#737373" stroke-width="0.5" stroke-miterlimit="1.415" stroke-linecap="round" stroke-linejoin="round"/>
<path d="M222.577 352.09C222.577 352.09 223.512 351.992 223.614 352.397C223.72 352.801 223.972 352.048 224.392 351.878C224.809 351.708 225.196 352.003 225.196 352.003L225.397 352.328" stroke="#737373" stroke-width="0.5" stroke-miterlimit="1.415" stroke-linecap="round" stroke-linejoin="round"/>
<path d="M200.386 346.842C200.386 346.842 203.115 348.796 206.572 346.867" stroke="#737373" stroke-width="0.5" stroke-miterlimit="1.415" stroke-linecap="round" stroke-linejoin="round"/>
<path d="M200.376 272.364C202.478 272.93 205.367 272.837 207.065 272.258" stroke="#737373" stroke-miterlimit="1.415" stroke-linecap="round" stroke-linejoin="round"/>
<path d="M199.177 263.973C200.783 265.106 205.727 265.308 207.747 264.162" stroke="#737373" stroke-miterlimit="1.415" stroke-linecap="round" stroke-linejoin="round"/>
<path d="M198.751 256.952L198.616 262.927" stroke="#737373" stroke-width="0.5" stroke-miterlimit="1.415" stroke-linecap="round" stroke-linejoin="round"/>
<path d="M198.703 259.459L199.69 264.234" stroke="#737373" stroke-width="0.5" stroke-miterlimit="1.415" stroke-linecap="round" stroke-linejoin="round"/>
<path d="M197.336 263.127L197.953 251.766L198.392 251.444L197.898 263.053" stroke="#737373" stroke-miterlimit="1.415" stroke-linecap="round" stroke-linejoin="round"/>
<path d="M197.833 254.865H198.271L198.202 257.44L197.723 257.392L197.573 259.801L198.114 259.718L197.942 261.799L197.551 261.847L198.571 261.68L198.582 262.957" stroke="#737373" stroke-width="0.5" stroke-miterlimit="1.415" stroke-linecap="round" stroke-linejoin="round"/>
<path d="M193.042 250.173C193.042 250.173 196.44 252.003 198.302 251.543" stroke="#737373" stroke-width="0.5" stroke-miterlimit="1.415" stroke-linecap="round" stroke-linejoin="round"/>
<path d="M201.282 237.724C201.282 237.724 201.308 238.719 201.231 239.924C201.063 242.489 201.323 257.901 201.323 257.901" stroke="#737373" stroke-width="0.5" stroke-miterlimit="1.415" stroke-linecap="round" stroke-linejoin="round"/>
<path d="M198.943 256.958L199.074 252.269L199.199 247.012L199.389 241.583C199.389 241.583 199.579 239.993 201.04 239.487C201.292 239.399 201.267 239.083 201.267 239.083C201.267 239.083 203.039 239.062 204.029 239.014C205.019 238.967 209.879 238.151 209.879 238.151C209.879 238.151 211.398 237.902 211.49 237.663" stroke="#737373" stroke-width="0.5" stroke-miterlimit="1.415" stroke-linecap="round" stroke-linejoin="round"/>
<path d="M209.379 236.786L209.887 238.072L209.964 257.258" stroke="#737373" stroke-width="0.5" stroke-miterlimit="1.415" stroke-linecap="square" stroke-linejoin="round"/>
<path d="M198.943 256.977C199.608 257.414 199.951 257.533 201.592 258.005C203.232 258.478 203.97 258.408 205.07 258.23C206.174 258.053 211.223 257.024 211.223 257.024" stroke="#737373" stroke-miterlimit="1.415" stroke-linecap="round" stroke-linejoin="round"/>
<path d="M200.238 340.728L195.226 341.011" stroke="#737373" stroke-width="0.5" stroke-miterlimit="1.415" stroke-linecap="round" stroke-linejoin="round"/>
<path d="M151.917 353.455C151.917 353.455 151.536 355.242 160.331 359.543C169.129 363.845 179.711 367.505 187.815 367.622C195.918 367.738 205.272 367.409 219.664 364.424C234.055 361.443 242.449 357.923 243.358 355.611" stroke="#737373" stroke-miterlimit="1.415" stroke-linecap="round" stroke-linejoin="round"/>
<path d="M187.621 341.949C187.621 341.949 178.326 343.47 168.059 345.529C157.789 347.589 154.942 349.842 153.66 350.734C152.374 351.625 151.753 352.274 151.753 353.317V375.999C151.753 375.999 152.516 382.373 158.779 385.812C165.038 389.251 179.021 396.324 187.621 396.42C196.226 396.516 206.391 395.361 215.931 393.569C225.47 391.778 236.691 389.472 239.917 386.395C243.147 383.319 243.1 379.463 243.286 378.84C243.469 378.218 243.286 355.966 243.286 355.966C245.171 352.69 210.015 338.203 206.522 340.709" stroke="#737373" stroke-width="2" stroke-miterlimit="1.415" stroke-linecap="round" stroke-linejoin="round"/>
<path d="M206.62 307.534L206.704 272.654L207.73 271.622L207.822 263.864L211.242 257.02L211.318 237.482C211.318 237.482 208.841 234.786 203.488 233.514C201.621 233.07 197.197 234.74 196.985 234.786C196.776 234.832 194.592 235.87 194.592 235.87C194.592 235.87 193.832 235.767 193.711 237.068C193.59 238.37 193.397 245.041 193.397 245.041L192.144 248.243L192.081 249.503L193.199 250.361L192.962 260.745C192.962 260.745 194 262.782 196.433 263.105C198.866 263.427 198.625 263.15 198.625 263.15L199.027 264.055L199.075 272.042L200.416 272.58L200.357 309.398" stroke="#737373" stroke-width="2" stroke-miterlimit="1.415" stroke-linecap="round" stroke-linejoin="round"/>
<path d="M200.196 340.701C195.387 340.519 191.372 341.088 187.619 341.908" stroke="#737373" stroke-width="2" stroke-miterlimit="1.415" stroke-linecap="round" stroke-linejoin="round"/>
<path d="M192.273 248.649L196.621 250.518L196.336 251.418C196.435 251.482 196.947 251.596 197.1 251.623L197.301 250.633L198.642 247.369" stroke="#737373" stroke-miterlimit="1.415" stroke-linecap="round" stroke-linejoin="round"/>
<path d="M200.262 346.965V309.621" stroke="#737373" stroke-width="2" stroke-miterlimit="1.415" stroke-linecap="round" stroke-linejoin="round"/>
<path d="M206.524 346.965V306.379" stroke="#737373" stroke-width="2" stroke-miterlimit="1.415" stroke-linecap="round" stroke-linejoin="round"/>
<path d="M200.253 344.754C200.253 344.754 196.953 344.853 196.657 345.82C196.361 346.786 199.847 348.04 200.709 348.167C201.572 348.295 206.219 348.116 206.219 348.116C206.219 348.116 208.488 347.559 208.561 346.836C208.634 346.112 206.753 345.924 206.504 345.618" stroke="#737373" stroke-miterlimit="1.415" stroke-linecap="round" stroke-linejoin="round"/>
<path d="M196.695 250.416L198.098 247.201L198.408 239.432L193.808 237.341" stroke="#737373" stroke-miterlimit="1.415" stroke-linecap="round" stroke-linejoin="round"/>
<path d="M198.643 247.369L198.917 239.536L198.405 239.415C198.405 239.415 198.559 238.363 199.238 237.997C199.918 237.631 201.971 237.729 201.971 237.729" stroke="#737373" stroke-width="0.5" stroke-miterlimit="1.415" stroke-linejoin="round"/>
<path d="M198.919 239.478C199.254 238.895 199.813 237.827 201.282 238.14" stroke="#737373" stroke-width="0.5" stroke-miterlimit="1.415" stroke-linecap="round" stroke-linejoin="round"/>
<path d="M194.937 235.835L199.846 238.283" stroke="#737373" stroke-width="0.5" stroke-miterlimit="1.415" stroke-linecap="round" stroke-linejoin="round"/>
<path d="M197.551 234.748L203.605 237.785" stroke="#737373" stroke-width="0.5" stroke-miterlimit="1.415" stroke-linecap="round" stroke-linejoin="round"/>
<path d="M202.926 233.538V237.367" stroke="#737373" stroke-width="0.5" stroke-miterlimit="1.415" stroke-linecap="round" stroke-linejoin="round"/>
<path d="M210.159 236.527L204.572 237.802C204.649 237.841 203.348 237.838 202.062 237.728" stroke="#737373" stroke-width="0.5" stroke-miterlimit="1.415" stroke-linecap="square" stroke-linejoin="round"/>
<path d="M198.199 235.005C199.489 234.686 202.211 233.81 203.048 233.964C203.888 234.118 209.259 236.665 209.391 236.761" stroke="#737373" stroke-width="0.5" stroke-miterlimit="1.415" stroke-linecap="round" stroke-linejoin="round"/>
<defs>
<filter id="filter0_dd" x="0.12207" y="0" width="345.12" height="461.464" filterUnits="userSpaceOnUse" color-interpolation-filters="sRGB">
<feFlood flood-opacity="0" result="BackgroundImageFix"/>
<feColorMatrix in="SourceAlpha" type="matrix" values="0 0 0 0 0 0 0 0 0 0 0 0 0 0 0 0 0 0 127 0" result="hardAlpha"/>
<feOffset dx="4" dy="2"/>
<feGaussianBlur stdDeviation="8"/>
<feComposite in2="hardAlpha" operator="out"/>
<feColorMatrix type="matrix" values="0 0 0 0 0.533333 0 0 0 0 0.647059 0 0 0 0 0.74902 0 0 0 0.48 0"/>
<feBlend mode="normal" in2="BackgroundImageFix" result="effect1_dropShadow"/>
<feColorMatrix in="SourceAlpha" type="matrix" values="0 0 0 0 0 0 0 0 0 0 0 0 0 0 0 0 0 0 127 0" result="hardAlpha"/>
<feOffset dx="-10" dy="-8"/>
<feGaussianBlur stdDeviation="8"/>
<feComposite in2="hardAlpha" operator="out"/>
<feColorMatrix type="matrix" values="0 0 0 0 0.945833 0 0 0 0 1 0 0 0 0 0.995667 0 0 0 1 0"/>
<feBlend mode="normal" in2="effect1_dropShadow" result="effect2_dropShadow"/>
<feBlend mode="normal" in="SourceGraphic" in2="effect2_dropShadow" result="shape"/>
</filter>
<filter id="filter1_d" x="62.7354" y="46.8944" width="296.912" height="370.539" filterUnits="userSpaceOnUse" color-interpolation-filters="sRGB">
<feFlood flood-opacity="0" result="BackgroundImageFix"/>
<feColorMatrix in="SourceAlpha" type="matrix" values="0 0 0 0 0 0 0 0 0 0 0 0 0 0 0 0 0 0 127 0" result="hardAlpha"/>
<feOffset dx="4" dy="4"/>
<feGaussianBlur stdDeviation="7.5"/>
<feComposite in2="hardAlpha" operator="out"/>
<feColorMatrix type="matrix" values="0 0 0 0 0.533333 0 0 0 0 0.647059 0 0 0 0 0.74902 0 0 0 0.5 0"/>
<feBlend mode="normal" in2="BackgroundImageFix" result="effect1_dropShadow"/>
<feBlend mode="normal" in="SourceGraphic" in2="effect1_dropShadow" result="shape"/>
</filter>
</defs>
</svg>
