<svg xmlns="http://www.w3.org/2000/svg" xmlns:xlink="http://www.w3.org/1999/xlink" width="145" height="423" viewBox="0 0 145 423"><defs><path id="a" d="M71 175h4v20h-4z"/><path id="b" d="M117 177.194h4V195h-4z"/><path id="c" d="M109 177.194h4V195h-4z"/><path id="d" d="M93 176.156h4V188h-4z"/><path id="e" d="M89 176.156h4V188h-4z"/></defs><g fill="none" fill-rule="evenodd"><g stroke="#747474"><g><g transform="translate(53) translate(3) translate(14.535 190.033)"><ellipse cx="12.222" cy="14.394" rx="12.222" ry="14.394"/><ellipse cx="12.927" cy="14.158" rx="10.106" ry="11.799"/></g><g transform="translate(53) translate(3) translate(14.535 251.41)"><ellipse cx="12.222" cy="14.394" rx="12.222" ry="14.394"/><ellipse cx="12.927" cy="14.158" rx="10.106" ry="11.799"/></g><g transform="translate(53) translate(3) translate(14.535 311.607)"><ellipse cx="12.222" cy="14.394" rx="12.222" ry="14.394"/><ellipse cx="12.927" cy="14.158" rx="10.106" ry="11.799"/></g><path d="M108.994.99v393.73m-50.098 28.135L58.424 23.99"/><g transform="translate(53) translate(3) translate(6 145)"><ellipse cx="52.9" cy="51.9" rx="2.5" ry="1"/><ellipse cx="26.4" cy="41.2" rx="2.4" ry="1"/><path fill="#F9F9F9" fill-rule="nonzero" stroke-linecap="round" d="M.2 52v152s-.3 1 6.2 2c6.6 1 37.8 3 39 3 1.4 0 12.4 0 16.7-.7 4.6-.8 16-5.8 17.8-8.7V47.4"/><g transform="translate(15 125)"><ellipse cx="22.5" cy="4.421" rx="1" ry="1"/><ellipse cx="22.969" cy="7.221" rx="1" ry="1"/><ellipse cx="22.5" cy="10.168" rx="1" ry="1"/><ellipse cx="22.5" cy="12.895" rx="1" ry="1"/><ellipse cx="20.625" cy="5.821" rx="1" ry="1"/><ellipse cx="20.625" cy="8.4" rx="1" ry="1"/><ellipse cx="20.625" cy="11.421" rx="1" ry="1"/><ellipse cx="19.219" cy="3.979" rx="1" ry="1"/><ellipse cx="19.453" cy="6.558" rx="1" ry="1"/><ellipse cx="19.922" cy="9.874" rx="1" ry="1"/><ellipse cx="19.219" cy="12.453" rx="1" ry="1"/><ellipse cx="17.578" cy="5.305" rx="1" ry="1"/><ellipse cx="17.578" cy="7.958" rx="1" ry="1"/><ellipse cx="17.109" cy="10.684" rx="1" ry="1"/><ellipse cx="15.703" cy="3.611" rx="1" ry="1"/><ellipse cx="15.703" cy="5.968" rx="1" ry="1"/><ellipse cx="16.406" cy="9.211" rx="1" ry="1"/><ellipse cx="15.234" cy="11.863" rx="1" ry="1"/><ellipse cx="14.063" cy="4.642" rx="1" ry="1"/><ellipse cx="14.766" cy="7.442" rx="1" ry="1"/><ellipse cx="14.063" cy="10.389" rx="1" ry="1"/><ellipse cx="12.656" cy="3.021" rx="1" ry="1"/><ellipse cx="12.656" cy="5.6" rx="1" ry="1"/><ellipse cx="12.891" cy="8.768" rx="1" ry="1"/><ellipse cx="12.656" cy="11.421" rx="1" ry="1"/><ellipse cx="11.016" cy="4.126" rx="1" ry="1"/><ellipse cx="12.188" cy="7.074" rx="1" ry="1"/><ellipse cx="10.547" cy="9.874" rx="1" ry="1"/><ellipse cx="9.609" cy="2.579" rx="1" ry="1"/><ellipse cx="9.609" cy="5.084" rx="1" ry="1"/><ellipse cx="10.078" cy="8.253" rx="1" ry="1"/><ellipse cx="9.375" cy="10.684" rx="1" ry="1"/><ellipse cx="8.438" cy="3.758" rx="1" ry="1"/><ellipse cx="9.609" cy="6.779" rx="1" ry="1"/><ellipse cx="7.734" cy="9.284" rx="1" ry="1"/><ellipse cx="6.094" cy="1.989" rx="1" ry="1"/><ellipse cx="6.563" cy="4.568" rx="1" ry="1"/><ellipse cx="7.266" cy="7.663" rx="1" ry="1"/><ellipse cx="5.859" cy="10.316" rx="1" ry="1"/><ellipse cx="5.859" cy="3.389" rx="1" ry="1"/><ellipse cx="7.031" cy="6.042" rx="1" ry="1"/><ellipse cx="4.688" cy="8.768" rx="1" ry="1"/><ellipse cx="3.281" cy="1.4" rx="1" ry="1"/><ellipse cx="1.406" cy="2.211" rx="1" ry="1"/><ellipse cx="3.984" cy="4.126" rx="1" ry="1"/><ellipse cx="4.688" cy="7.147" rx="1" ry="1"/><ellipse cx="3.516" cy="9.726" rx="1" ry="1"/><ellipse cx="3.047" cy="2.874" rx="1" ry="1"/><ellipse cx="4.219" cy="5.453" rx="1" ry="1"/><ellipse cx="1.641" cy="5.011" rx="1" ry="1"/><ellipse cx="1.875" cy="8.179" rx="1" ry="1"/><ellipse cx=".703" cy=".811" rx="1" ry="1"/><ellipse cx="1.172" cy="3.684" rx="1" ry="1"/><ellipse cx="1.641" cy="6.484" rx="1" ry="1"/><ellipse cx=".703" cy="9.284" rx="1" ry="1"/></g><g transform="translate(15 76)"><ellipse cx="22.5" cy="4.421" rx="1" ry="1"/><ellipse cx="22.969" cy="7.221" rx="1" ry="1"/><ellipse cx="22.5" cy="10.168" rx="1" ry="1"/><ellipse cx="22.5" cy="12.895" rx="1" ry="1"/><ellipse cx="20.625" cy="5.821" rx="1" ry="1"/><ellipse cx="20.625" cy="8.4" rx="1" ry="1"/><ellipse cx="20.625" cy="11.421" rx="1" ry="1"/><ellipse cx="19.219" cy="3.979" rx="1" ry="1"/><ellipse cx="19.453" cy="6.558" rx="1" ry="1"/><ellipse cx="19.922" cy="9.874" rx="1" ry="1"/><ellipse cx="19.219" cy="12.453" rx="1" ry="1"/><ellipse cx="17.578" cy="5.305" rx="1" ry="1"/><ellipse cx="17.578" cy="7.958" rx="1" ry="1"/><ellipse cx="17.109" cy="10.684" rx="1" ry="1"/><ellipse cx="15.703" cy="3.611" rx="1" ry="1"/><ellipse cx="15.703" cy="5.968" rx="1" ry="1"/><ellipse cx="16.406" cy="9.211" rx="1" ry="1"/><ellipse cx="15.234" cy="11.863" rx="1" ry="1"/><ellipse cx="14.063" cy="4.642" rx="1" ry="1"/><ellipse cx="14.766" cy="7.442" rx="1" ry="1"/><ellipse cx="14.063" cy="10.389" rx="1" ry="1"/><ellipse cx="12.656" cy="3.021" rx="1" ry="1"/><ellipse cx="12.656" cy="5.6" rx="1" ry="1"/><ellipse cx="12.891" cy="8.768" rx="1" ry="1"/><ellipse cx="12.656" cy="11.421" rx="1" ry="1"/><ellipse cx="11.016" cy="4.126" rx="1" ry="1"/><ellipse cx="12.188" cy="7.074" rx="1" ry="1"/><ellipse cx="10.547" cy="9.874" rx="1" ry="1"/><ellipse cx="9.609" cy="2.579" rx="1" ry="1"/><ellipse cx="9.609" cy="5.084" rx="1" ry="1"/><ellipse cx="10.078" cy="8.253" rx="1" ry="1"/><ellipse cx="9.375" cy="10.684" rx="1" ry="1"/><ellipse cx="8.438" cy="3.758" rx="1" ry="1"/><ellipse cx="9.609" cy="6.779" rx="1" ry="1"/><ellipse cx="7.734" cy="9.284" rx="1" ry="1"/><ellipse cx="6.094" cy="1.989" rx="1" ry="1"/><ellipse cx="6.563" cy="4.568" rx="1" ry="1"/><ellipse cx="7.266" cy="7.663" rx="1" ry="1"/><ellipse cx="5.859" cy="10.316" rx="1" ry="1"/><ellipse cx="5.859" cy="3.389" rx="1" ry="1"/><ellipse cx="7.031" cy="6.042" rx="1" ry="1"/><ellipse cx="4.688" cy="8.768" rx="1" ry="1"/><ellipse cx="3.281" cy="1.4" rx="1" ry="1"/><ellipse cx="1.406" cy="2.211" rx="1" ry="1"/><ellipse cx="3.984" cy="4.126" rx="1" ry="1"/><ellipse cx="4.688" cy="7.147" rx="1" ry="1"/><ellipse cx="3.516" cy="9.726" rx="1" ry="1"/><ellipse cx="3.047" cy="2.874" rx="1" ry="1"/><ellipse cx="4.219" cy="5.453" rx="1" ry="1"/><ellipse cx="1.641" cy="5.011" rx="1" ry="1"/><ellipse cx="1.875" cy="8.179" rx="1" ry="1"/><ellipse cx=".703" cy=".811" rx="1" ry="1"/><ellipse cx="1.172" cy="3.684" rx="1" ry="1"/><ellipse cx="1.641" cy="6.484" rx="1" ry="1"/><ellipse cx=".703" cy="9.284" rx="1" ry="1"/></g><g transform="translate(15 177)"><ellipse cx="22.5" cy="4.421" rx="1" ry="1"/><ellipse cx="22.969" cy="7.221" rx="1" ry="1"/><ellipse cx="22.5" cy="10.168" rx="1" ry="1"/><ellipse cx="22.5" cy="12.895" rx="1" ry="1"/><ellipse cx="20.625" cy="5.821" rx="1" ry="1"/><ellipse cx="20.625" cy="8.4" rx="1" ry="1"/><ellipse cx="20.625" cy="11.421" rx="1" ry="1"/><ellipse cx="19.219" cy="3.979" rx="1" ry="1"/><ellipse cx="19.453" cy="6.558" rx="1" ry="1"/><ellipse cx="19.922" cy="9.874" rx="1" ry="1"/><ellipse cx="19.219" cy="12.453" rx="1" ry="1"/><ellipse cx="17.578" cy="5.305" rx="1" ry="1"/><ellipse cx="17.578" cy="7.958" rx="1" ry="1"/><ellipse cx="17.109" cy="10.684" rx="1" ry="1"/><ellipse cx="15.703" cy="3.611" rx="1" ry="1"/><ellipse cx="15.703" cy="5.968" rx="1" ry="1"/><ellipse cx="16.406" cy="9.211" rx="1" ry="1"/><ellipse cx="15.234" cy="11.863" rx="1" ry="1"/><ellipse cx="14.063" cy="4.642" rx="1" ry="1"/><ellipse cx="14.766" cy="7.442" rx="1" ry="1"/><ellipse cx="14.063" cy="10.389" rx="1" ry="1"/><ellipse cx="12.656" cy="3.021" rx="1" ry="1"/><ellipse cx="12.656" cy="5.6" rx="1" ry="1"/><ellipse cx="12.891" cy="8.768" rx="1" ry="1"/><ellipse cx="12.656" cy="11.421" rx="1" ry="1"/><ellipse cx="11.016" cy="4.126" rx="1" ry="1"/><ellipse cx="12.188" cy="7.074" rx="1" ry="1"/><ellipse cx="10.547" cy="9.874" rx="1" ry="1"/><ellipse cx="9.609" cy="2.579" rx="1" ry="1"/><ellipse cx="9.609" cy="5.084" rx="1" ry="1"/><ellipse cx="10.078" cy="8.253" rx="1" ry="1"/><ellipse cx="9.375" cy="10.684" rx="1" ry="1"/><ellipse cx="8.438" cy="3.758" rx="1" ry="1"/><ellipse cx="9.609" cy="6.779" rx="1" ry="1"/><ellipse cx="7.734" cy="9.284" rx="1" ry="1"/><ellipse cx="6.094" cy="1.989" rx="1" ry="1"/><ellipse cx="6.563" cy="4.568" rx="1" ry="1"/><ellipse cx="7.266" cy="7.663" rx="1" ry="1"/><ellipse cx="5.859" cy="10.316" rx="1" ry="1"/><ellipse cx="5.859" cy="3.389" rx="1" ry="1"/><ellipse cx="7.031" cy="6.042" rx="1" ry="1"/><ellipse cx="4.688" cy="8.768" rx="1" ry="1"/><ellipse cx="3.281" cy="1.4" rx="1" ry="1"/><ellipse cx="1.406" cy="2.211" rx="1" ry="1"/><ellipse cx="3.984" cy="4.126" rx="1" ry="1"/><ellipse cx="4.688" cy="7.147" rx="1" ry="1"/><ellipse cx="3.516" cy="9.726" rx="1" ry="1"/><ellipse cx="3.047" cy="2.874" rx="1" ry="1"/><ellipse cx="4.219" cy="5.453" rx="1" ry="1"/><ellipse cx="1.641" cy="5.011" rx="1" ry="1"/><ellipse cx="1.875" cy="8.179" rx="1" ry="1"/><ellipse cx=".703" cy=".811" rx="1" ry="1"/><ellipse cx="1.172" cy="3.684" rx="1" ry="1"/><ellipse cx="1.641" cy="6.484" rx="1" ry="1"/><ellipse cx=".703" cy="9.284" rx="1" ry="1"/></g><path d="M.2 154c1.6 1.3 5.4 2.8 20.2 3.5 15 .8 38 4 50.5-2.2 5.4-2.5 8.5-5.7 8.5-5.7M.2 104.3c1.6 1.2 5.4 2.7 20.2 3.4 15 .8 38 4 50.5-2.2 5.4-2.6 8.5-5.7 8.5-5.7M.2 53.6c1.6 1.2 5.4 2.7 20.2 3.4 15 .8 38 4 50.5-2.2 5.4-2.6 8.5-5.7 8.5-5.7"/><path d="M.2 52.4c1.6 1 5.4 2.6 20.2 3.3 15 .8 38 4 50.5-2.2 5.4-2.5 8.5-5.6 8.5-5.6"/><path stroke-linecap="round" d="M0 51.6c.6-.7 2.5-2.3 3-3L6.7 46s2.6.4 3 .3c.2 0 4.4-2.3 5.3-3h-1v-1l2.5-.8"/><path d="M7.3 46v-3s-1.5-.8-1.5-1c0 0 0-.3.4-.6.3-.4 3.5-3 5.2-3 1.8-.2 2.2 0 2.2 0V44m-5 2v-5"/><path stroke-linecap="round" d="M7 40.8h1.8l4.6-2.4"/><ellipse cx="12.1" cy="49.1" rx="2.4" ry="1"/><path d="M4 48c0 .8-.3 2 4 2.6 4 .5 11.8 1.3 13 1.2"/><path stroke-linecap="round" d="M2.3 49.6c0 .7-.2 2.3 4.5 2.8L20 53.7"/><path d="M2.2 50.7c-.2.7-.7 1.8 1.2 2.3 2 .5 4.4 1.2 8.8 1.6 4.4.4 9 .4 10.6.4 1.8 0 13.6 1 13.6 1"/><path stroke-linecap="round" d="M20.2 54.8c0-1.5 0-2.6 1.7-3.5"/><path d="M22.3 55v-6l13.5 1v5.8m-13.6-5.3c-.6 0-2 .2-2.7 0l-2.6-1s.4-.5 2.4-.5h2.8m-3.5 1l3.5-.2"/><path d="M35.3 50c0-1 0-2.5 1.2-2.5v5.3M16 23.6v23"/><path stroke-linecap="round" d="M19 23.7v23"/><path d="M57.8 24v22.6"/><path stroke-linecap="round" d="M62 24v22.6"/><path d="M16.4 44c-.7.2-1 .8 0 .8m.2 1.8c-1 0-3 0-3 .4s2 .8 3.6.8c1.4 0 4.3.2 4.6-.2.3-.4.2-.7-1-.8"/><path stroke-linecap="round" d="M17.8 48.4h4m.2.6v-2l13.6 1-.4 1-13.2-.7m-5.4-1.8c.3.6 2 1.4 5 .5"/><path d="M21 40.3s1.4-.4 4-.5c2.3-.2 4 0 4 0"/><path stroke-linecap="round" d="M21 42.8h4.6l3 2.6 1.7-2.5h-4.5M29 41l1.3 1.3 2.3-2.4-3-1.3-1.3 2"/><path d="M21 45s1.8.5 3.7.6c1.6 0 8 .6 9.5.7.2 0 .2.2.2.2l-2 .8-9.4-1 2-.3"/><path d="M33 47s1.8.5 2.2 0c.3-.6-1.2-.4-1.2-.4"/><path stroke-linecap="round" d="M35.3 46.7s9-4.4 9.8-4.4c1 0 5-1.5 5-1.5l-5 2-5.5 2"/><path d="M32.7 40.3s7 3.7 7.2 4m-10.6-5.5s3.5-2 3.8-2c.3 0 4.2 1.7 6 2.6 1.6.8 4.5 1.8 5.6 2.8"/><path d="M30.5 39.2l3.8-2 1.3.6-4 2 1.4.5 3.5-2"/><path stroke-linecap="round" d="M31.6 37.8l6 2.6m-2.3 1.3l3.8-2.2"/><path d="M37.8 40.6l2.5 2s-1 .5-1.4.5"/><path stroke-linecap="round" d="M39.2 42c-.4 0-1.4-.3-1.8-.5-.4 0 1 .7-.4 1"/><path d="M41.7 41s.6.4.4.4c0 0-.2.6-1 .6 0 0-1.5-1-1.5-1.5 0-.3 1.6 0 1.6 0v.8L40 41"/><path stroke-linecap="round" d="M36.6 49L47 50l4-2s1.7 1.8 1.4 2l-2 1v-1l-2.3.5 2-.7h-2.3l2.4-1 .3.6M42.6 44c.5.2 2.3 2 3.5 5.7m-1-3.3l6.5-3.7"/><path d="M52.4 50s6.7 1 8.5.3c1.6-.7 2.2-1.6 2.2-1.6v-.3s-4.4-.7-5-.5c-.2 0-3.2 2-3.2 2"/><path stroke-linecap="round" d="M49 44.4l2 3.6.5-.5 6.5.4-3.3-1h3"/><path d="M46 42.6l.4 1.3.8 1z"/><path d="M50.3 41.4l-4 2 .7 1 3.7-2.3M48 42l1 2.2"/><path stroke-linecap="round" d="M50 40.7l1.3 2s5.6-.4 6-1c.2-.4-7-.3-7-.3"/><path d="M56 43.3l-4.6.3s-.6.5-.8.5c-.2 0 0 0 .7.7.6.5 5 0 5 0"/><path stroke-linecap="round" d="M36 53.6s.4-1.2 1.7-1.2c1.2 0-1.8 0-1.4 4"/><path stroke-linecap="round" d="M37.6 53s10.3.5 13.4.5c3 0 11.3-.3 15.4-3"/><path stroke-linecap="round" d="M36.4 54.8s9.3 1 15.7.6c6.8-.3 12-1 16.6-3.4"/><path d="M59.6 56.4c1-.3 9-2.2 9.2-3 .3-1-1-3-2-3-1.3 0-2.5-.6-2.5-.6l1-.5"/><path d="M68.8 52.2s3.5-1.4 3.5-2v-5.5l-5 2.4v3.6m6 2v1l.6-.4v-1m-15.3-6.4s-1.3.2-1 .6c0 .4 2.7.4 4.8.4 2 0 3.4-.5 3-1-.2-.7-3-.4-3-.4M63 42s6.5.4 7 .6m-2.3 1.2c-.6 0-2.6-.3-2.8.4-.3.6 1.4.4 1.4.4"/><path d="M66.3 44.4s4-2.4 4.7-2.4c.6 0 1.6.2 1.4.5-.2.3-1.6 1.2-2.8 1.8-1.2.5-2.2 1-3.4.5"/><path d="M72.3 42.6c.6-.2 1.4.5 1.4.8 0 .3-1.2 1-1.6 1.3-.2 0-2.6 1.5-3.2 1.3-.5-.3-.5-1.2-.5-1.2"/><path stroke-linecap="round" d="M74 43.3c.5 0 1.5 1 1.2 1.5-.2.5-2.3 2-2.8 2.4"/><path d="M75.3 44.4c.5 0 2 .8 1.7 1.8-.3 1-2.8 2.6-2.8 2.6l-1.7-1.6"/><path d="M72.3 50s2 .3 2.3.2c.2 0 2.4-1.8 2.4-2v-2s1-.2 1.3 0c.3.4 1.3.5.6 2.2m-5.8.2V50m-14.7-5.2s-1.3.4-2.6 0m.6-2.3V45m-.7-1.6s2 0 2.4.2"/><path d="M56 44.5V42s.2.8 2.5.4m-17-2.2l1.6.3s.6.4 1 .4h4.6"/><path d="M43 40.6v-5s.5-.5 3.5-.5 8 1 8 1l3 .3V42l1-.4"/><path d="M43.4 36.7l6.2.5c2.3.3 6.7.4 6.7.4v3.8h.5v-5s-4.3 0-6.7-.3l-6.4-.3m-28-17V23s.7.8 2.6.8c2 0 3.3-.5 3.3-.5V18"/><path d="M13.3 14l2.6 5 2.4.2c.8 0 3-.4 3-.4l.5-1"/><path stroke-linecap="round" d="M15.4 14l1.6 4.7"/><path d="M13.3 1v12.7h2s2 .6 3 .2"/><path d="M13.4 1s2.6.8 4 .8c1.2 0 1.6.3 1.6.3h5c.5-.3 0-.8 0-.8s1-1-4.8-1c-4 0-5.3.6-5.8 1-.2 0 0 .2 0 .2V1z"/><path d="M24 1v16s-.6.4-2.5.4c-1.8 0-2.6 0-3-.8V2L24 1zm-6 1v12.3V2zm.5 4.2s3 .3 5.2-.2l-5.2.2zm0 3s3 .3 5.2-.2l-5.2.2zm0 0s3 .3 5.2-.2l-5.2.2zm-3-9s3 .3 3 1C18.5 2 17 .7 23 0l-7.8.2h.3zm42 18.8v4.7s.4.6 1 .6h4l1-.3v-5s-1.4.4-3 .4c-1.4 0-3-.3-3-.3V19zm.5 0l-2.7-5V1s0-1 5.7-1c5.6 0 5.2 1.3 5.2 1.3V14l-2.4 5H58z"/><path d="M55.4 14s2.5.5 6 .5c3.7 0 4.8-.5 4.8-.5m-1.6-.7V3.5L65 3V1m-5 13.3V2m-3 12.3V2"/><path d="M55.4 1s1.2.8 1.6.8h2.5l3.6-.3 3-.2"/><path stroke-linecap="round" d="M56.4.2c.6.3 3.6.3 4.2.3.6 0 3-.3 3.5-.5"/><path d="M54.7 7c-.6.5-.4 1.4.2 1.7m-.4 3.3c-.3.3-.6 1.3 0 1.8"/><path stroke-linecap="round" d="M55.4 14v1.5c0 .5 1.2.7 1.2.7"/></g></g><g><g transform="translate(53) translate(0 113) translate(18 20)"><ellipse cx="11.882" cy="14.634" rx="11.882" ry="14.634"/><ellipse cx="10.286" cy="14.634" fill="#FFECB3" fill-rule="nonzero" rx="10.286" ry="14.634"/></g><g stroke-width=".5" transform="translate(53) translate(0 113) rotate(-34 47.862 13.15)"><ellipse cx="24.494" cy="24.864" stroke-dasharray="1" rx="8.171" ry="10.081" transform="rotate(37 24.494 24.864)"/><path stroke-dasharray="1" d="M15.92 29.337c3.355.693 7.385-.993 10.046-4.523 2.175-2.886 2.912-6.313 2.24-9.125"/><path stroke-dasharray="1" d="M18.315 29.427c1.154-.347 4.337-1.195 6.998-4.725 2.175-2.887 3.36-6.444 3.076-7.69"/><ellipse cx="24.262" cy="24.204" stroke-dasharray="1" rx="10.368" ry="12.891" transform="rotate(37 24.262 24.204)"/><path stroke-dasharray="1" d="M15.602 34.8c6.706 3.944 13.354 1.308 17.715-4.976 4.36-6.283 2.602-13.365-1.97-16.812-4.575-3.446-11.868-1.48-16.29 4.39-4.424 5.87-4.028 13.95.545 17.397z"/><path stroke-linecap="round" d="M30.55 12.385c-4.573-3.48-11.832-1.542-16.213 4.328-4.38 5.87-3.95 13.982.624 17.46"/><path stroke-linecap="round" d="M30.972 12.574c-5.552-4.92-12.92-2.413-17.343 3.457-4.425 5.87-3.77 13.15-.78 16.006"/><path stroke-linecap="round" d="M30.415 12.116c-5.09-5.227-13.38-2.43-17.804 3.44-4.423 5.87-3.433 12.915-.324 15.827"/><path stroke-linecap="round" d="M29.536 11.33C24.44 6.06 16.333 8.85 11.95 14.72c-4.38 5.87-3.6 13.31 0 16.314"/><path stroke-linecap="round" d="M28.9 10.702c-5.088-5.227-13.237-2.41-17.66 3.46-4.424 5.87-3.676 13.28-.076 16.258"/><path stroke-linecap="round" d="M28.53 10.403c-5.81-5.915-13.56-2.98-17.94 2.89-4.38 5.87-3.6 13.308 0 16.313"/><path stroke-linecap="round" d="M32.265 13.672C27.76.526 14.605 4.845 8.692 13.22c-5.914 8.376-2.917 19.202 5.35 20.273"/><path stroke-dasharray="1" d="M17.333 34.466c4.204 3.168 10.87 1.318 14.81-3.913 3.942-5.23 3.73-12.04-.476-15.208-4.205-3.17-10.927-1.615-14.87 3.615-3.94 5.23-3.67 12.337.536 15.506zM32.497 15.59c5.72 5.967 1.747 16.248-5.415 19.533M32.563 15.627c5.93 5.648 2.21 15.654-5.015 19.566"/><path stroke-dasharray="1" d="M32.56 14.04l.048-2.453s-.9-1.954-1.23-2.422c-.33-.467-.704-.957-.704-.957L21.55 4.115s-1.472.077-2.204.263c-.732.187-1.795.425-1.795.425l-4.96 4.034-4.56 3.038s-.912 1.317-1.263 1.958c-.352.642-1.035 2.117-1.035 2.117l-.074 5.61-.443 5.667s.438 1.23.78 1.71c.344.478 1.077 1.675 1.077 1.675l3.604 1.782 4.3 1.9"/><path stroke-dasharray="1" d="M30.476 8.106l-.763-.792-7.9-3.684-1.125-.494s-1.228.013-1.872.155c-.644.143-2.207.524-2.207.524s-3.126 1.94-4.856 3.225c-1.73 1.284-4.795 3.923-4.795 3.923s-.515.653-1.266 2.06c-.75 1.41-1.008 1.985-1.008 1.985s-.43 3.663-.43 5.907-.035 5.453-.035 5.453.645 1.576 1.06 2.188c.414.612.873 1.218.873 1.218l.736.635m-2.575-4.014l.812.786m-.462-12.177l1.034.938m1.316-4.945l.967.965m8.598-8.108l.918.928m3.135-1.594l.926.898"/></g><g><path stroke-dasharray="1" d="M88.157 165.27c6.623-.813 11.622-8.456 10.552-17.173-1.072-8.716-7.627-15.276-14.25-14.463-6.622.813-11.307 8.686-10.237 17.403 1.07 8.716 7.312 15.046 13.934 14.233z"/><path stroke-linecap="round" d="M85.496 163.226c5.95-.73 10.085-7.585 9.115-15.49-.97-7.907-6.522-13.852-12.472-13.12-2.328.284-4.296 1.616-5.884 3.525"/><path stroke-linecap="round" d="M85.5 164.04c2.88-.353 5.595-2.08 7.51-4.71 2.197-3.022 3.42-7.155 2.885-11.507-1-8.14-6.405-13.954-12.59-13.195-1.315.162-2.6.604-3.774 1.287-1.25.73-2.36 1.745-3.247 2.977"/><path stroke-linecap="round" d="M78.723 161.264c2.172 1.83 4.957 2.818 7.76 2.72 7.05-.246 12.187-7.504 11.88-16.28"/><path stroke-dasharray="1" d="M81.287 129.962s1.66-.847 4.495-.487c2.836.36 4.376 1.224 4.376 1.224l.564-2.122 5.86 4.787-.51 2.022s.788 1.057 1.138 1.59c.35.53 2.423 4.287 2.638 5.355.216 1.068.878 3.355.878 3.355l1.672.208.178 8.466-1.626-.154s-.31 2.57-1.184 4.48c-.875 1.91-2.555 4.632-2.955 4.918l.63 2.502-5.59 3.71-.77-2.364s-1.116.28-2.088.46c-.973.18-4.47.32-5.134.287-.663-.036-2.198-.392-2.198-.392l-.8 1.145-3.33.245-5.22-4.817 2.658-.226 1.362-2.253s-1.146-1.46-1.784-2.408c-.64-.95-1.98-4.097-2.26-5.236-.28-1.14-.642-2.514-.642-2.514l-2.49-.202-3.362.29.45-8.543 2.856-.286 2.32.2s.714-3.416 1.544-5.264c.83-1.848 2.613-4.276 2.613-4.276l-1.398-2.257 5.597-3.738 1.513 2.297z"/><path stroke-dasharray="1" d="M87.33 130.612l.124-.935 3.328-.234M91.81 170.247l-2.66.203-.948-2.115s-1.393.137-3.002-.277c-1.61-.415-2.844-.954-2.844-.954L81 169.25l-5.972-4.72-2.695.042 1.053-2.052 2.932-.195m-3.49.11s-2.192-2.992-3.03-4.87c-.836-1.88-1.627-5.278-1.627-5.278"/><path stroke-dasharray="1" d="M71.593 152.466l-2.935.262-2.905-.152M69.487 151.52l-.187-8.45-.65.06s.554-3.24 1.627-5.173c1.073-1.932 2.595-3.977 2.595-3.977l-1.796-2.268 6.32-3.826 2.636-.208"/></g><g><path fill="#FFF" fill-rule="nonzero" d="M63.218 124.034v47.94s-.58 1.746 6.083 2.688c6.664.942 33.052 2.973 41.88 2.973 8.83 0 13.257-.444 19.218-2.647 5.962-2.204 10.44-6.506 10.44-6.506v-48.88"/><path d="M63.215 123.77c0 1.507 1.91 3.04 27.01 4.526 25.1 1.485 30.277.79 30.277.79s8.14-1.43 12.923-3.964c4.785-2.532 7.405-4.96 7.405-5.607"/><path fill="#FFF" fill-rule="nonzero" d="M63.064 124.16c.622-1.686 6.074-5.41 6.074-5.41l1.366-.214s.463-.775 1.264-1.216c.8-.44 6.852-3.514 10.38-3.857 3.53-.343 4.21-.346 11.575-.346 7.364 0 31.78 1.402 38.188 2.482 6.408 1.08 6.925 2.034 6.925 2.034s2.01 1.542 2.01 2.064"/><path d="M65.004 122.157c.332 1.01.684 1.668 6.088 2.532 5.404.862 31.1 2.614 32.654 2.614 1.554 0 14.382.448 18.214-.473 3.83-.92 10.085-3.648 10.085-3.648s1.025.986 1.598.986c.572 0 2.105-.88 2.105-.88s-.402-1.67-.696-1.67c-.295 0 2.406-1.786 2.713-2.082.308-.296 1.183-1.374.847-2.128m-69.275 1.496s-.205.882.297.882c.5 0 1.23-.736 1.23-.736s1.06-.166 1.06-.543c0-.378.027-1.058.027-1.058"/><path stroke-linecap="round" d="M132.893 123.53l2.563-.985"/><path d="M66.794 123.545c.95-.795 8.725-5.996 14.808-6.98s28.01.105 31.317.538c3.307.432 20.093 1.08 23.97 2.782"/><path d="M68.05 123.943c.952-.795 8.533-5.743 14.616-6.727 6.082-.984 27.22-.1 30.53.332 3.307.433 19.817 1.114 23.695 2.817m-24.41-6.405v2.87m17 2.434v5.008m3-.736v-4.368m2 3.888v-4.368m-63 2.628v3.38m-1.16-5.62v1.86"/><path d="M83.11 125.854v-7.084s1.312-.545 1.764-.08v7.39m9.626-9.2v9.644"/><path stroke-linecap="round" d="M92.767 126.5v-8.845s.022-.485-1.55-.89"/><path d="M91.5 126.51v-8.48"/><path stroke-linecap="round" d="M84.62 117.1c0 .392-.68 1.46 3.335 1.285 4.015-.177 5.1-.268 4.222-1.16-.878-.893-5.776-.392-5.776.497 0 .89 8.177.313 4.597-.536"/></g></g></g><g stroke="#747474"><g transform="translate(64 60) translate(0 28)"><path d="M.3 9.7V17s1.6 1.3 3 1.3h2.3v-3.6"/><path fill="#F9F9F9" fill-rule="nonzero" d="M3.8 18v-3.4l5.7.6c3 .5 10.8.7 15.4 1.2 4.2.4 19.6 1.2 20.5 1.2H56c2 0 12-4 12-4s0-3.5 1.8-4C71.6 9.4 71 11 71 12l4-3V5.4l-.8-1L70.6 8l-10 5-6.4 1.2H42.8L18 13 6.4 12l-6-2v6.7L2 18h2-.2z"/><path fill="#F9F9F9" fill-rule="nonzero" d="M0 9.6C0 11 6.6 12.3 16.4 13l31 1.7c1.7 0 12.2.5 19.3-3.7 7-4.3 9.3-5 8.3-6s.8-1.7-17.3-3.4C39.7 0 22.2-.2 19.5.2c-2.7.5-7.8 1.5-12.7 4.3-5 3-6.7 3.8-6.7 5l-.1.1z"/><ellipse cx="24.2" cy="1.9" rx="6.6" ry="1.3"/><ellipse cx="50.8" cy="12.5" rx="6.6" ry="1.3"/><path d="M29 7.5s1.5 1 3 1.2c1.4.2 6 0 6 0h5L46.2 7 41 5.7h-9l-3 1.7v.1z"/><path d="M32.3 5.8l2.7 1 2.2.6L46 7"/><path d="M33 7.3c-.4-.3.6-.7 2.2-.7s4.7-.2 5.6 0c1 .3 1.4.6.6 1-.8.5-3.4.5-4.8.5S33 8 33 7.6V7.3zM29.6 11l-3 .6 4 .4-1-1z"/></g><path d="M85.3 111.6c-.2 0-.3 0-.3.2 0 .3 1 .5 2 .5s2-.2 2-.5c0 0 0-.2-.3-.2"/><path d="M85.3 111.4c-.2 0-.3.2-.3.3 0 .2 1 .4 2 .4h2s0-.3-.3-.4"/><path d="M85.3 111.3c-.2 0-.3 0-.3.2 0 .3 1 .5 2 .5s2-.2 2-.5c0 0 0-.2-.3-.2"/><path d="M85.3 111l-.3.3c0 .3 1 .5 2 .5s2-.2 2-.5l-.3-.2"/><path d="M85.3 111c-.2 0-.3 0-.3.2s1 .5 2 .5 2-.3 2-.5c0 0 0-.2-.3-.3"/><path d="M85.3 110.8c-.2 0-.3 0-.3.2 0 .3 1 .5 2 .5s2-.2 2-.5c0 0 0-.2-.3-.2"/><path d="M85.3 110.6c-.2 0-.3.2-.3.3h2c1 0 2 0 2-.3 0-.2 0-.3-.3-.4"/><path d="M85.3 110.5c-.2 0-.3 0-.3.2 0 .3 1 .5 2 .5s2-.2 2-.5c0 0 0-.2-.3-.2"/><path d="M85.3 110.3c-.2 0-.3.2-.3.2 0 .3 1 .5 2 .5s2-.2 2-.5l-.3-.2"/><path d="M85.3 110.2c-.2 0-.3 0-.3.2s1 .5 2 .5 2-.6 2-.8c0 0 0-.2-.3-.3"/><path d="M85.3 110c-.2 0-.3 0-.3.2 0 .3 1 .5 2 .5s2-.2 2-.5c0 0 0-.2-.3-.2"/><path d="M85.3 109.8c-.2 0-.3.2-.3.3 0 .5 1 .7 2 .7s2-.2 2-.4l-.3-.2"/><path d="M85.3 109.7c-.2 0-.3 0-.3.2l2 .2c1 0 2-.2 2-.5 0-.2 0-.3-.3-.3"/><path d="M85.3 109.5c-.2 0-.3.2-.3.2 0 .3 1 .5 2 .5s2-.2 2-.5l-.3-.2"/><path d="M85.3 109.4c-.2 0-.3 0-.3.2s1 .5 2 .5 2 0 2-.2c0 0 0-.2-.3-.3"/><path d="M85.3 109.2c-.2 0-.3 0-.3.2 0 .3 1 .5 2 .5s2-.5 2-.8c0 0 0-.2-.3-.2"/><path d="M85.3 109c-.2 0-.3.2-.3.3 0 .2 1 .4 2 .4s2-.2 2-.4c0 0 0-.2-.3-.3"/><path d="M85.3 109H85c0 .4 1 .6 2 .6s2-.2 2-.5h-.3"/><path d="M85.3 108.7c-.2 0-.3.2-.3.2l2 .2c1 0 2-.2 2-.5 0 0 0-.2-.3-.3"/><path d="M85.3 108.6c-.2 0-.3 0-.3.2s1 .5 2 .5 2-.3 2-.5c0 0 0-.2-.3-.3"/><path d="M85.3 108.4c-.2 0-.3 0-.3.2 0 .3 1 .5 2 .5s2 0 2-.2c0 0 0-.2-.3-.2"/><path d="M85.3 108.2c-.2 0-.3.2-.3.3 0 .2 1 .4 2 .4s2-.5 2-.7c0 0 0-.2-.3-.3"/><path d="M85.3 108c-.2 0-.3.2-.3.3 0 .3 1 .5 2 .5s2-.2 2-.5c0 0 0-.2-.3-.2"/><path d="M85.3 108H85c0 .4 1 .6 2 .6s2-.2 2-.5h-.3"/><path d="M85.3 107.8c-.2 0-.3 0-.3.2s1 .5 2 .5 2-.3 2-.5c0 0 0-.2-.3-.3"/><path d="M85.3 107.6c-.2 0-.3 0-.3.2 0 .3 1 .5 2 .5s2-.2 2-.5c0 0 0-.2-.3-.2"/><path d="M85.3 107.4c-.2 0-.3.2-.3.3 0 .2 1 .4 2 .4h2s0-.3-.3-.4"/><path d="M85.3 107.3c-.2 0-.3 0-.3.2 0 .3 1 .5 2 .5s2-.2 2-.5c0 0 0-.2-.3-.2"/><path d="M85.3 107l-.3.3c0 .3 1 .5 2 .5s2-.2 2-.5l-.3-.2"/><path d="M85.3 107c-.2 0-.3 0-.3.2s1 .5 2 .5 2-.3 2-.5c0 0 0-.2-.3-.3"/><path d="M85.3 106.8c-.2 0-.3 0-.3.2 0 .3 1 .5 2 .5s2-.2 2-.5c0 0 0-.2-.3-.2"/><path d="M85.3 106.6c-.2 0-.3.2-.3.3h2c1 0 2 0 2-.3 0-.2 0-.3-.3-.4"/><path d="M85.3 106.5c-.2 0-.3 0-.3.2 0 .3 1 .5 2 .5s2-.2 2-.5c0 0 0-.2-.3-.2"/><path d="M85.3 106.3c-.2 0-.3.2-.3.2 0 .3 1 .5 2 .5s2-.2 2-.5l-.3-.2"/><path d="M85.3 106.2c-.2 0-.3 0-.3.2s1 .5 2 .5 2-.6 2-.8c0 0 0-.2-.3-.3"/><path d="M85.3 106c-.2 0-.3 0-.3.2 0 .3 1 .5 2 .5s2-.2 2-.5c0 0 0-.2-.3-.2"/><path d="M85.3 105.8c-.2 0-.3.2-.3.3 0 .5 1 .7 2 .7s2-.2 2-.4l-.3-.2"/><path d="M85.3 105.7c-.2 0-.3 0-.3.2l2 .2c1 0 2-.2 2-.5 0-.2 0-.3-.3-.3"/><path d="M85.3 105.5c-.2 0-.3.2-.3.2 0 .3 1 .5 2 .5s2-.2 2-.5l-.3-.2"/><path d="M85.3 105.4c-.2 0-.3 0-.3.2s1 .5 2 .5 2 0 2-.2c0 0 0-.2-.3-.3"/><path d="M85.3 105.2c-.2 0-.3 0-.3.2 0 .3 1 .5 2 .5s2-.5 2-.8l-.3-.2"/><path d="M85.3 105c-.2 0-.3.2-.3.3 0 .2 1 .4 2 .4s2-.2 2-.4c0 0 0-.2-.3-.3"/><path d="M85.3 105H85c0 .4 1 .6 2 .6s2-.2 2-.5h-.3"/><path d="M85.3 104.7c-.2 0-.3.2-.3.2l2 .2c1 0 2-.2 2-.5 0 0 0-.2-.3-.3"/><path d="M85.3 104.6c-.2 0-.3 0-.3.2s1 .5 2 .5 2-.3 2-.5c0 0 0-.2-.3-.3"/><path d="M85.3 104.4c-.2 0-.3 0-.3.2 0 .3 1 .5 2 .5s2 0 2-.2l-.3-.2"/><path d="M85.3 104.2c-.2 0-.3.2-.3.3 0 .2 1 .4 2 .4s2-.5 2-.7c0 0 0-.2-.3-.3"/><path d="M85.3 104c-.2 0-.3.2-.3.3 0 .3 1 .5 2 .5s2-.2 2-.5c0 0 0-.2-.3-.2"/><path d="M85.3 104H85c0 .4 1 .6 2 .6s2-.2 2-.5"/><path d="M85 104c0 .2 1 .5 2 .5s2-.3 2-.5m-3.7-13.5c-.2 0-.3 0-.3.2 0 .3 1 .5 2 .5s2-.2 2-.5c0 0 0-.2-.3-.2"/><path d="M85.3 90.3c-.2 0-.3.2-.3.2 0 .3 1 .5 2 .5s2-.2 2-.5l-.3-.2"/><path d="M85.3 90.2c-.2 0-.3 0-.3.2 0 .3 1 .5 2 .5s2-.5 2-.8c0 0 0-.2-.3-.3"/><path d="M85.3 90c-.2 0-.3 0-.3.2 0 .3 1 .5 2 .5s2-.2 2-.5l-.3-.2"/><path d="M85.3 89.8c-.2 0-.3.2-.3.3 0 .5 1 .7 2 .7s2-.2 2-.4l-.3-.2"/><path d="M85.3 89.7c-.2 0-.3 0-.3.2l2 .2c1 0 2-.2 2-.5 0-.2 0-.3-.3-.3"/><path d="M85.3 89.5c-.2 0-.3.2-.3.2 0 .3 1 .5 2 .5s2-.2 2-.5l-.3-.2"/><path d="M85.3 89.4c-.2 0-.3 0-.3.2 0 .3 1 .5 2 .5s2 0 2-.2c0 0 0-.2-.3-.3"/><path d="M85.3 89.2c-.2 0-.3 0-.3.2 0 .3 1 .5 2 .5s2-.5 2-.8l-.3-.2"/><path d="M85.3 89c-.2 0-.3.2-.3.3 0 .2 1 .4 2 .4s2-.2 2-.4c0 0 0-.2-.3-.3"/><path d="M85.3 89H85c0 .4 1 .6 2 .6s2-.2 2-.5h-.3"/><path d="M85.3 88.7c-.2 0-.3.2-.3.2l2 .2c1 0 2-.2 2-.5 0 0 0-.2-.3-.3"/><path d="M85.3 88.6c-.2 0-.3 0-.3.2 0 .3 1 .5 2 .5s2-.2 2-.5c0 0 0-.2-.3-.3"/><path d="M85.3 88.4c-.2 0-.3 0-.3.2 0 .3 1 .5 2 .5s2 0 2-.2l-.3-.2"/><path d="M85.3 88.2c-.2 0-.3.2-.3.3 0 .2 1 .4 2 .4s2-.5 2-.7c0 0 0-.2-.3-.3"/><path d="M85.3 88c-.2 0-.3.2-.3.3 0 .3 1 .5 2 .5s2-.2 2-.5c0 0 0-.2-.3-.2"/><path d="M85.3 88H85c0 .4 1 .6 2 .6s2-.2 2-.5h-.3"/><path d="M85.3 87.8c-.2 0-.3 0-.3.2 0 .3 1 .5 2 .5s2-.2 2-.5c0 0 0-.2-.3-.3"/><path d="M85.3 87.6c-.2 0-.3 0-.3.2 0 .3 1 .5 2 .5s2-.2 2-.5l-.3-.2"/><path d="M85.3 87.4c-.2 0-.3.2-.3.3 0 .2 1 .4 2 .4h2s0-.3-.3-.4"/><path d="M85.3 87.3c-.2 0-.3 0-.3.2 0 .3 1 .5 2 .5s2-.2 2-.5c0 0 0-.2-.3-.2"/><path d="M85.3 87l-.3.3c0 .3 1 .5 2 .5s2-.2 2-.5l-.3-.2"/><path d="M85.3 87c-.2 0-.3 0-.3.2 0 .3 1 .5 2 .5s2-.2 2-.5c0 0 0-.2-.3-.3"/><path d="M85.3 86.8c-.2 0-.3 0-.3.2 0 .3 1 .5 2 .5s2-.2 2-.5l-.3-.2"/><path d="M85.3 86.6c-.2 0-.3.2-.3.3h2c1 0 2 0 2-.3 0-.2 0-.3-.3-.4"/><path d="M85.3 86.5c-.2 0-.3 0-.3.2 0 .3 1 .5 2 .5s2-.2 2-.5c0 0 0-.2-.3-.2"/><path d="M85.3 86.3c-.2 0-.3.2-.3.2 0 .3 1 .5 2 .5s2-.2 2-.5l-.3-.2"/><path d="M85.3 86.2c-.2 0-.3 0-.3.2 0 .3 1 .5 2 .5s2-.5 2-.8c0 0 0-.2-.3-.3"/><path d="M85.3 86c-.2 0-.3 0-.3.2 0 .3 1 .5 2 .5s2-.2 2-.5l-.3-.2"/><path d="M85.3 85.8c-.2 0-.3.2-.3.3 0 .5 1 .7 2 .7s2-.2 2-.4l-.3-.2"/><path d="M85.3 85.7c-.2 0-.3 0-.3.2l2 .2c1 0 2-.2 2-.5 0-.2 0-.3-.3-.3"/><path d="M85.3 85.5c-.2 0-.3.2-.3.2 0 .3 1 .5 2 .5s2-.2 2-.5l-.3-.2"/><path d="M85.3 85.4c-.2 0-.3 0-.3.2 0 .3 1 .5 2 .5s2 0 2-.2c0 0 0-.2-.3-.3"/><path d="M85.3 85.2c-.2 0-.3 0-.3.2 0 .3 1 .5 2 .5s2-.5 2-.8l-.3-.2"/><path d="M85.3 85c-.2 0-.3.2-.3.3 0 .2 1 .4 2 .4s2-.2 2-.4c0 0 0-.2-.3-.3"/><path d="M85.3 85H85c0 .4 1 .6 2 .6s2-.2 2-.5h-.3"/><path d="M85.3 84.7c-.2 0-.3.2-.3.3 0 .2 1 .4 2 .4s2-.2 2-.4c0 0 0-.2-.3-.3"/><path d="M85.3 84.6c-.2 0-.3 0-.3.2 0 .3 1 .5 2 .5s2-.2 2-.5c0 0 0-.2-.3-.3"/><path d="M85.3 84.4c-.2 0-.3 0-.3.2 0 .3 1 .5 2 .5s2 0 2-.2l-.3-.2"/><path d="M85.3 84.2c-.2 0-.3.2-.3.3 0 .2 1 .5 2 .5s2-.3 2-.5c0 0 0-.2-.3-.3"/><path d="M85.3 84c-.2 0-.3.2-.3.3 0 .3 1 .5 2 .5s2-.2 2-.5c0 0 0-.2-.3-.2"/><path d="M85.3 84c-.2 0-.3 0-.3.2s1 .4 2 .4 2-.2 2-.4c0 0 0-.2-.3-.3"/><path d="M85.3 83.8c-.2 0-.3 0-.3.2 0 .3 1 .5 2 .5s2-.2 2-.5c0 0 0-.2-.3-.3"/><path d="M85.3 83.6c-.2 0-.3 0-.3.2 0 .3 1 .5 2 .5s2-.2 2-.5l-.3-.2"/><path d="M85.3 83.4c-.2 0-.3.2-.3.3 0 .2 1 .5 2 .5s2-.3 2-.5c0 0 0-.2-.3-.3"/><path d="M85.3 83.3c-.2 0-.3 0-.3.2 0 .3 1 .5 2 .5s2-.2 2-.5c0 0 0-.2-.3-.2"/><path d="M85.3 83l-.3.4c0 .2 1 .4 2 .4s2-.2 2-.4c0 0 0-.2-.3-.3"/><path d="M85.3 83c-.2 0-.3 0-.3.2 0 .3 1 .5 2 .5s2-.2 2-.5c0 0 0-.2-.3-.3"/><path d="M85.3 82.8c-.2 0-.3 0-.3.2 0 .3 1 .5 2 .5s2-.2 2-.5"/><path d="M85 83s1 .4 2 .4 2-.3 2-.5"/><path d="M85.3 82.5c-.2 0-.3 0-.3.2 0 .3 1 .5 2 .5s2-.2 2-.5c0 0 0-.2-.3-.2"/><path d="M85.3 82.3c-.2 0-.3.2-.3.3 0 .2 1 .4 2 .4s2-.2 2-.4c0 0 0-.2-.3-.3"/><path d="M85.3 82.2c-.2 0-.3 0-.3.2 0 .3 1 .5 2 .5s2-.5 2-.8c0 0 0-.2-.3-.3"/><path d="M85.3 82c-.2 0-.3 0-.3.2 0 .3 1 .5 2 .5s2-.2 2-.5"/><path d="M85 82c0 .3 1 .6 2 .6s2-.3 2-.5"/><path d="M85.3 81.7c-.2 0-.3 0-.3.2l2 .2c1 0 2-.2 2-.5 0-.2 0-.3-.3-.3"/><path d="M85.3 81.5c-.2 0-.3.2-.3.3 0 .2 1 .4 2 .4s2-.2 2-.4c0 0 0-.2-.3-.3"/><path d="M85.3 81.4c-.2 0-.3 0-.3.2 0 .3 1 .5 2 .5s2 0 2-.2c0 0 0-.2-.3-.3"/><path d="M85.3 81.2c-.2 0-.3 0-.3.2 0 .3 1 .5 2 .5s2-.5 2-.8"/><path d="M85 81.3c0 .2 1 .5 2 .5s2-.3 2-.5"/><path d="M85.3 81H85c0 .4 1 .6 2 .6s2-.2 2-.5h-.3"/><path d="M85.3 80.7c-.2 0-.3.2-.3.3 0 .2 1 .4 2 .4s2-.2 2-.4c0 0 0-.2-.3-.3"/><path d="M85.3 80.6c-.2 0-.3 0-.3.2 0 .3 1 .5 2 .5s2-.2 2-.5c0 0 0-.2-.3-.3"/><path d="M85.3 80.4c-.2 0-.3 0-.3.2 0 .3 1 .5 2 .5s2 0 2-.2"/><path d="M85 80.5c0 .2 1 .5 2 .5s2-.3 2-.5"/><path d="M85.3 80l-.3.3c0 .3 1 .5 2 .5s2-.2 2-.5c0 0 0-.2-.3-.2"/><path d="M85.3 80c-.2 0-.3 0-.3.2s1 .4 2 .4 2-.2 2-.4c0 0 0-.2-.3-.3"/><path d="M85.3 79.8c-.2 0-.3 0-.3.2 0 .3 1 .5 2 .5s2-.2 2-.5c0 0 0-.2-.3-.3"/><path d="M85.3 79.6c-.2 0-.3 0-.3.2 0 .3 1 .5 2 .5s2-.2 2-.5"/><path d="M85 79.7c0 .2 1 .5 2 .5s2-.3 2-.5"/><path d="M85.3 79.3c-.2 0-.3 0-.3.2 0 .3 1 .5 2 .5s2-.2 2-.5c0 0 0-.2-.3-.2"/><path d="M85.3 79l-.3.4c0 .2 1 .4 2 .4s2-.2 2-.4c0 0 0-.2-.3-.3"/><path d="M85.3 79c-.2 0-.3 0-.3.2 0 .3 1 .5 2 .5s2-.2 2-.5c0 0 0-.2-.3-.3"/><path d="M85.3 78.8c-.2 0-.3 0-.3.2 0 .3 1 .5 2 .5s2-.2 2-.5"/><path d="M85 79s1 .4 2 .4 2-.3 2-.5"/><path d="M85.3 78.5c-.2 0-.3 0-.3.2 0 .3 1 .5 2 .5s2-.2 2-.5c0 0 0-.2-.3-.2"/><path d="M85.3 78.3c-.2 0-.3.2-.3.3 0 .2 1 .4 2 .4s2-.2 2-.4c0 0 0-.2-.3-.3"/><path d="M85.3 78.2c-.2 0-.3 0-.3.2 0 .3 1 .5 2 .5s2-.5 2-.8c0 0 0-.2-.3-.3"/><path d="M85.3 78c-.2 0-.3 0-.3.2 0 .3 1 .5 2 .5s2-.2 2-.5"/><path d="M85 78c0 .3 1 .6 2 .6s2-.3 2-.5"/><path d="M85.3 77.7c-.2 0-.3 0-.3.2l2 .2c1 0 2-.2 2-.5 0-.2 0-.3-.3-.3"/><path d="M85.3 77.5c-.2 0-.3.2-.3.3 0 .2 1 .4 2 .4s2-.2 2-.4c0 0 0-.2-.3-.3"/><path d="M85.3 77.4c-.2 0-.3 0-.3.2 0 .3 1 .5 2 .5s2 0 2-.2c0 0 0-.2-.3-.3"/><path d="M85.3 77.2c-.2 0-.3.2-.3.2 0 .3 1 .5 2 .5s2-.5 2-.8"/><path d="M85 77.3c0 .2 1 .5 2 .5s2-.3 2-.5"/><path d="M85 77c0 .4 1 .6 2 .6s2-.2 2-.5"/><path d="M85 77c0 .2 1 .4 2 .4s2-.2 2-.4m-3.7-2.4c-.2 0-.3.2-.3.3l2 .2c1 0 2-.3 2-.5s0-.3-.3-.4"/><path d="M85.3 74.5c-.2 0-.3 0-.3.2 0 .3 1 .5 2 .5s2-.2 2-.5c0 0 0-.2-.3-.2"/><path d="M85.3 74.3c-.2 0-.3.2-.3.3 0 .2 1 .4 2 .4s2-.2 2-.4c0 0 0-.2-.3-.3"/><path d="M85.3 74.2c-.2 0-.3 0-.3.2 0 .3 1 .5 2 .5s2-.5 2-.8c0 0 0-.2-.3-.2"/><path d="M85.3 74c-.2 0-.3.2-.3.2 0 .3 1 .5 2 .5s2-.2 2-.5l-.3-.2"/><path d="M85.3 73.8c-.2 0-.3.2-.3.3 0 .5 1 .8 2 .8s2-.3 2-.5l-.3-.2"/><path d="M85.3 73.7c-.2 0-.3 0-.3.2l2 .2c1 0 2-.2 2-.5 0-.2 0-.3-.3-.3"/><path d="M85.3 73.5c-.2 0-.3.2-.3.3 0 .2 1 .4 2 .4s2-.2 2-.4c0 0 0-.2-.3-.3"/><path d="M85.3 73.4c-.2 0-.3 0-.3.2 0 .3 1 .5 2 .5s2 0 2-.2c0 0 0-.2-.3-.2"/><path d="M85.3 73.2c-.2 0-.3.2-.3.2 0 .3 1 .5 2 .5s2-.5 2-.8l-.3-.2"/><path d="M85.3 73c-.2 0-.3.2-.3.3 0 .2 1 .5 2 .5s2-.3 2-.5c0 0 0-.2-.3-.3"/><path d="M85.3 73H85c0 .4 1 .6 2 .6s2-.2 2-.5h-.3"/><path d="M85.3 72.7c-.2 0-.3.2-.3.3 0 .2 1 .4 2 .4s2-.2 2-.4c0 0 0-.2-.3-.3"/><path d="M85.3 72.6c-.2 0-.3 0-.3.2 0 .3 1 .5 2 .5s2-.2 2-.5c0 0 0-.2-.3-.2"/><path d="M85.3 72.4c-.2 0-.3.2-.3.2 0 .3 1 .5 2 .5s2 0 2-.2l-.3-.2"/><path d="M85.3 72.2c-.2 0-.3.2-.3.3 0 .2 1 .5 2 .5s2-.3 2-.5c0 0 0-.2-.3-.3"/><path d="M85.3 72l-.3.3c0 .3 1 .5 2 .5s2-.2 2-.5c0 0 0-.2-.3-.2"/><path d="M85.3 72c-.2 0-.3 0-.3.2s1 .4 2 .4 2-.2 2-.4c0 0 0-.2-.3-.3"/><path d="M85.3 71.8c-.2 0-.3 0-.3.2 0 .3 1 .5 2 .5s2-.2 2-.5c0 0 0-.2-.3-.2"/><path d="M85.3 71.6c-.2 0-.3.2-.3.2 0 .3 1 .5 2 .5s2-.2 2-.5l-.3-.2"/><path d="M85.3 71.4c-.2 0-.3.2-.3.3 0 .2 1 .5 2 .5s2-.3 2-.5c0 0 0-.2-.3-.3"/><path d="M85.3 71.3c-.2 0-.3 0-.3.2 0 .3 1 .5 2 .5s2-.2 2-.5c0 0 0-.2-.3-.2"/><path d="M85.3 71l-.3.4c0 .2 1 .4 2 .4s2-.2 2-.4c0 0 0-.2-.3-.3"/><path d="M85.3 71c-.2 0-.3 0-.3.2 0 .3 1 .5 2 .5s2-.2 2-.5c0 0 0-.2-.3-.2"/><path d="M85.3 70.8c-.2 0-.3.2-.3.2 0 .3 1 .5 2 .5s2-.2 2-.5l-.3-.2"/><path d="M85.3 70.6c-.2 0-.3.2-.3.3l2 .2c1 0 2-.3 2-.5s0-.3-.3-.4"/><path d="M85.3 70.5c-.2 0-.3 0-.3.2 0 .3 1 .5 2 .5s2-.2 2-.5c0 0 0-.2-.3-.2"/><path d="M85.3 70.3c-.2 0-.3.2-.3.3 0 .2 1 .4 2 .4s2-.2 2-.4c0 0 0-.2-.3-.3"/><path d="M85.3 70.2c-.2 0-.3 0-.3.2 0 .3 1 .5 2 .5s2-.5 2-.8c0 0 0-.2-.3-.2"/><path d="M85.3 70c-.2 0-.3.2-.3.2 0 .3 1 .5 2 .5s2-.2 2-.5l-.3-.2"/><path d="M85.3 69.8c-.2 0-.3.2-.3.3 0 .5 1 .8 2 .8s2-.3 2-.5l-.3-.2"/><path d="M85.3 69.7c-.2 0-.3 0-.3.2l2 .2c1 0 2-.2 2-.5 0-.2 0-.3-.3-.3"/><path d="M85.3 69.5c-.2 0-.3.2-.3.3 0 .2 1 .4 2 .4s2-.2 2-.4c0 0 0-.2-.3-.3"/><path d="M85.3 69.4c-.2 0-.3 0-.3.2 0 .3 1 .5 2 .5s2 0 2-.2c0 0 0-.2-.3-.2"/><path d="M85.3 69.2c-.2 0-.3.2-.3.2 0 .3 1 .5 2 .5s2-.5 2-.8l-.3-.2"/><path d="M85.3 69c-.2 0-.3.2-.3.3 0 .2 1 .5 2 .5s2-.3 2-.5c0 0 0-.2-.3-.3"/><path d="M85.3 69H85c0 .4 1 .6 2 .6s2-.2 2-.5h-.3"/><path d="M85.3 68.7c-.2 0-.3.2-.3.3 0 .2 1 .4 2 .4s2-.2 2-.4c0 0 0-.2-.3-.3"/><path d="M85.3 68.6c-.2 0-.3 0-.3.2 0 .3 1 .5 2 .5s2-.2 2-.5c0 0 0-.2-.3-.2"/><path d="M85.3 68.4c-.2 0-.3.2-.3.2 0 .3 1 .5 2 .5s2 0 2-.2l-.3-.2"/><path d="M85.3 68.2c-.2 0-.3.2-.3.3 0 .2 1 .5 2 .5s2-.3 2-.5c0 0 0-.2-.3-.3"/><path d="M85.3 68l-.3.3c0 .3 1 .5 2 .5s2-.2 2-.5c0 0 0-.2-.3-.2"/><path d="M85.3 68c-.2 0-.3 0-.3.2s1 .4 2 .4 2-.2 2-.4c0 0 0-.2-.3-.3"/><path d="M85.3 67.8c-.2 0-.3 0-.3.2 0 .3 1 .5 2 .5s2-.2 2-.5c0 0 0-.2-.3-.2"/><path d="M85.3 67.6c-.2 0-.3.2-.3.2 0 .3 1 .5 2 .5s2-.2 2-.5l-.3-.2"/><path d="M85.3 67.4c-.2 0-.3.2-.3.3 0 .2 1 .5 2 .5s2-.3 2-.5c0 0 0-.2-.3-.3"/><path d="M85.3 67.3c-.2 0-.3 0-.3.2 0 .3 1 .5 2 .5s2-.2 2-.5c0 0 0-.2-.3-.2"/><path d="M85.3 67l-.3.4c0 .2 1 .4 2 .4s2-.2 2-.4c0 0 0-.2-.3-.3"/><path d="M85.3 67c-.2 0-.3 0-.3.2 0 .3 1 .5 2 .5s2-.2 2-.5"/><path d="M85 67c0 .3 1 .5 2 .5s2-.2 2-.5"/><path d="M85.3 66.6c-.2 0-.3.2-.3.3l2 .2c1 0 2-.3 2-.5s0-.3-.3-.4"/><path d="M85.3 66.5c-.2 0-.3 0-.3.2 0 .3 1 .5 2 .5s2-.2 2-.5c0 0 0-.2-.3-.2"/><path d="M85.3 66.3c-.2 0-.3.2-.3.3 0 .2 1 .4 2 .4s2-.2 2-.4c0 0 0-.2-.3-.3"/><path d="M85.3 66.2c-.2 0-.3 0-.3.2 0 .3 1 .5 2 .5s2-.5 2-.8"/><path d="M85 66.2c0 .3 1 .5 2 .5s2-.2 2-.5"/><path d="M85.3 65.8c-.2 0-.3.2-.3.3 0 .5 1 .8 2 .8s2-.3 2-.5l-.3-.2"/><path d="M85.3 65.7c-.2 0-.3 0-.3.2l2 .2c1 0 2-.2 2-.5 0-.2 0-.3-.3-.3"/><path d="M85.3 65.5c-.2 0-.3.2-.3.3 0 .2 1 .4 2 .4s2-.2 2-.4c0 0 0-.2-.3-.3"/><path d="M85.3 65.4c-.2 0-.3 0-.3.2 0 .3 1 .5 2 .5s2 0 2-.2"/><path d="M85 65.4c0 .3 1 .5 2 .5s2-.5 2-.8"/><path d="M85.3 65c-.2 0-.3.2-.3.3 0 .2 1 .5 2 .5s2-.3 2-.5c0 0 0-.2-.3-.3"/><path d="M85.3 65H85c0 .4 1 .6 2 .6s2-.2 2-.5h-.3"/><path d="M85.3 64.7c-.2 0-.3.2-.3.3 0 .2 1 .4 2 .4s2-.2 2-.4c0 0 0-.2-.3-.3"/><path d="M85 64.8c0 .3 1 .5 2 .5s2-.2 2-.5"/><path d="M85.2 64.8c.2.2 1 .3 1.8.3h2"/><path d="M81.7 62.8v1.3s1 1 2.3 1h5.6c2.4 0 2.7-1 2.7-1v-1m-7.5 9c-1 0-2 .8-2 2.3 0 1.6 2 2 4 2s4.4-.7 4.4-2.3c0-1.8-2-2-2.3-2"/><path d="M85 73c-.5.2-1 .6-1 1.3 0 1 1.4 1.2 3 1.2 1.3 0 2.8-.5 2.8-1.5 0-.4-.4-.8-.7-1"/><path d="M82.7 74c-.5 2.5 2 3 4 3 2.2 0 5.4-.6 4.5-3.4m-8-11.6c-.4 0-1.5.3-1.5 1 0 .5 2 .8 2.4.8.7 0 4.8.2 6.6-.2 1.7-.4 1.8-.7 1.8-1 0 0-.8-.5-1.3-.5"/><path d="M85.4 60.7c-.3 0-1.6.5-2 1.4-.6 1 .4 1 1.2 1 .8 0 4 .5 5 0 .6 0 2 0 1-1s-1.8-1.3-1.8-1.3"/><path d="M87 60s-1.6.5-1.6.7c0 .2 1 .3 1.5.3.3 0 1.6-.2 1.6-.4 0-.3-1.8-.5-1.8-.5h.2l.1-.1z"/><g><path d="M112 100.7c-.2 0-.3.2-.3.2l2 .2c1 0 2-.2 2-.5l-.4-.3"/><path d="M112 100.6c-.2 0-.3 0-.3.2s1 .5 2 .5 2-.3 2-.5l-.4-.3"/><path d="M112 100.4c-.2 0-.3 0-.3.2 0 .3 1 .5 2 .5s2 0 2-.2l-.4-.2"/><path d="M112 100.2c-.2 0-.3.2-.3.3 0 .2 1 .4 2 .4s2-.5 2-.7l-.4-.3"/><path d="M112 100c-.2 0-.3.2-.3.3 0 .3 1 .5 2 .5s2-.2 2-.5l-.4-.2"/><path d="M112 100h-.3c0 .4 1 .6 2 .6s2-.2 2-.5h-.4"/><path d="M112 99.8c-.2 0-.3 0-.3.2s1 .5 2 .5 2-.3 2-.5l-.4-.3"/><path d="M112 99.6c-.2 0-.3 0-.3.2 0 .3 1 .5 2 .5s2-.2 2-.5l-.4-.2"/><path d="M112 99.4c-.2 0-.3.2-.3.3 0 .2 1 .4 2 .4h2l-.4-.4"/><path d="M112 99.3c-.2 0-.3 0-.3.2 0 .3 1 .5 2 .5s2-.2 2-.5l-.4-.2"/><path d="M112 99l-.3.3c0 .3 1 .5 2 .5s2-.2 2-.5l-.4-.2"/><path d="M112 99c-.2 0-.3 0-.3.2s1 .5 2 .5 2-.3 2-.5l-.4-.3"/><path d="M112 98.8c-.2 0-.3 0-.3.2 0 .3 1 .5 2 .5s2-.2 2-.5l-.4-.2"/><path d="M112 98.6c-.2 0-.3.2-.3.3h2c1 0 2 0 2-.3 0-.2-.2-.3-.4-.4"/><path d="M112 98.5c-.2 0-.3 0-.3.2 0 .3 1 .5 2 .5s2-.2 2-.5l-.4-.2"/><path d="M112 98.3c-.2 0-.3.2-.3.2 0 .3 1 .5 2 .5s2-.2 2-.5l-.4-.2"/><path d="M112 98.2c-.2 0-.3 0-.3.2s1 .5 2 .5 2-.6 2-.8l-.4-.3"/><path d="M112 98c-.2 0-.3 0-.3.2 0 .3 1 .5 2 .5s2-.2 2-.5l-.4-.2"/><path d="M112 97.8c-.2 0-.3.2-.3.3 0 .5 1 .7 2 .7s2-.2 2-.4l-.4-.2"/><path d="M112 97.7c-.2 0-.3 0-.3.2l2 .2c1 0 2-.2 2-.5 0-.2-.2-.3-.4-.3"/><path d="M112 97.5c-.2 0-.3.2-.3.2 0 .3 1 .5 2 .5s2-.2 2-.5l-.4-.2"/><path d="M112 97.4c-.2 0-.3 0-.3.2s1 .5 2 .5 2 0 2-.2l-.4-.3"/><path d="M112 97.2c-.2 0-.3 0-.3.2 0 .3 1 .5 2 .5s2-.5 2-.8l-.4-.2"/><path d="M112 97c-.2 0-.3.2-.3.3 0 .2 1 .4 2 .4s2-.2 2-.4l-.4-.3"/><path d="M112 97h-.3c0 .4 1 .6 2 .6s2-.2 2-.5h-.4"/><path d="M112 96.7c-.2 0-.3.2-.3.2l2 .2c1 0 2-.2 2-.5l-.4-.3"/><path d="M112 96.6c-.2 0-.3 0-.3.2 0 .3 1 .5 2 .5s2-.2 2-.5l-.4-.3"/><path d="M112 96.4c-.2 0-.3 0-.3.2 0 .3 1 .5 2 .5s2 0 2-.2l-.4-.2"/><path d="M112 96.2c-.2 0-.3.2-.3.3 0 .2 1 .4 2 .4s2-.5 2-.7l-.4-.3"/><path d="M112 96c-.2 0-.3.2-.3.3 0 .3 1 .5 2 .5s2-.2 2-.5l-.4-.2"/><path d="M112 96h-.3c0 .4 1 .6 2 .6s2-.2 2-.5h-.4"/><path d="M112 95.8c-.2 0-.3 0-.3.2 0 .3 1 .5 2 .5s2-.2 2-.5l-.4-.3"/><path d="M112 95.6c-.2 0-.3 0-.3.2 0 .3 1 .5 2 .5s2-.2 2-.5l-.4-.2"/><path d="M112 95.4c-.2 0-.3.2-.3.3 0 .2 1 .4 2 .4h2l-.4-.4"/><path d="M112 95.3c-.2 0-.3 0-.3.2 0 .3 1 .5 2 .5s2-.2 2-.5l-.4-.2"/><path d="M112 95l-.3.3c0 .3 1 .5 2 .5s2-.2 2-.5l-.4-.2"/><path d="M112 95c-.2 0-.3 0-.3.2 0 .3 1 .5 2 .5s2-.2 2-.5l-.4-.3"/><path d="M112 94.8c-.2 0-.3 0-.3.2 0 .3 1 .5 2 .5s2-.2 2-.5l-.4-.2"/><path d="M112 94.6c-.2 0-.3.2-.3.3h2c1 0 2 0 2-.3 0-.2-.2-.3-.4-.4"/><path d="M112 94.5c-.2 0-.3 0-.3.2 0 .3 1 .5 2 .5s2-.2 2-.5l-.4-.2"/><path d="M112 94.3c-.2 0-.3.2-.3.2 0 .3 1 .5 2 .5s2-.2 2-.5l-.4-.2"/><path d="M112 94.2c-.2 0-.3 0-.3.2 0 .3 1 .5 2 .5s2-.5 2-.8l-.4-.3"/><path d="M112 94c-.2 0-.3 0-.3.2 0 .3 1 .5 2 .5s2-.2 2-.5l-.4-.2"/><path d="M112 93.8c-.2 0-.3.2-.3.3 0 .5 1 .7 2 .7s2-.2 2-.4l-.4-.2"/><path d="M112 93.7c-.2 0-.3 0-.3.2l2 .2c1 0 2-.2 2-.5 0-.2-.2-.3-.4-.3"/><path d="M112 93.5c-.2 0-.3.2-.3.2 0 .3 1 .5 2 .5s2-.2 2-.5l-.4-.2"/><path d="M112 93.4c-.2 0-.3 0-.3.2 0 .3 1 .5 2 .5s2 0 2-.2l-.4-.3"/><path d="M112 93.2c-.2 0-.3 0-.3.2 0 .3 1 .5 2 .5s2-.5 2-.8l-.4-.2"/><path d="M112 93c-.2 0-.3.2-.3.3 0 .2 1 .4 2 .4s2-.2 2-.4"/><path d="M111.7 93c0 .4 1 .6 2 .6s2-.2 2-.5"/><path d="M112 92.7c-.2 0-.3.2-.3.2l2 .2c1 0 2-.2 2-.5l-.4-.3"/><path d="M112 92.6c-.2 0-.3 0-.3.2 0 .3 1 .5 2 .5s2-.2 2-.5l-.4-.3"/><path d="M112 92.4c-.2 0-.3 0-.3.2 0 .3 1 .5 2 .5s2 0 2-.2l-.4-.2"/><path d="M112 92.2c-.2 0-.3.2-.3.3 0 .2 1 .4 2 .4s2-.5 2-.7"/><path d="M111.7 92.3c0 .3 1 .5 2 .5s2-.2 2-.5"/><path d="M112 92h-.3c0 .4 1 .6 2 .6s2-.2 2-.5h-.4"/><path d="M112 91.8c-.2 0-.3 0-.3.2 0 .3 1 .5 2 .5s2-.2 2-.5l-.4-.3"/><path d="M112 91.6c-.2 0-.3 0-.3.2 0 .3 1 .5 2 .5s2-.2 2-.5l-.4-.2"/><path d="M112 91.4c-.2 0-.3.2-.3.3 0 .2 1 .4 2 .4h2"/><path d="M111.7 91.5c0 .3 1 .5 2 .5s2-.2 2-.5"/><path d="M112 91l-.3.3c0 .3 1 .5 2 .5s2-.2 2-.5l-.4-.2"/><path d="M112 91c-.2 0-.3 0-.3.2 0 .3 1 .5 2 .5s2-.2 2-.5l-.4-.3"/><path d="M112 90.8c-.2 0-.3 0-.3.2 0 .3 1 .5 2 .5s2-.2 2-.5l-.4-.2"/><path d="M112 90.6c-.2 0-.3.2-.3.3h2c1 0 2 0 2-.3"/><path d="M111.7 90.7c0 .3 1 .5 2 .5s2-.2 2-.5"/><path d="M112 90.3c-.2 0-.3.2-.3.2 0 .3 1 .5 2 .5s2-.2 2-.5l-.4-.2"/><path d="M112 90.2c-.2 0-.3 0-.3.2 0 .3 1 .5 2 .5s2-.5 2-.8l-.4-.3"/><path d="M112 90c-.2 0-.3 0-.3.2 0 .3 1 .5 2 .5s2-.2 2-.5l-.4-.2"/><path d="M112 89.8c-.2 0-.3.2-.3.3 0 .5 1 .7 2 .7s2-.2 2-.4"/><path d="M111.7 90c0 .2 1 .4 2 .4s2-.2 2-.5"/><path d="M112 89.5c-.2 0-.3.2-.3.2 0 .3 1 .5 2 .5s2-.2 2-.5l-.4-.2"/><path d="M112 89.4c-.2 0-.3 0-.3.2 0 .3 1 .5 2 .5s2 0 2-.2l-.4-.3"/><path d="M112 89.2c-.2 0-.3 0-.3.2 0 .3 1 .5 2 .5s2-.5 2-.8l-.4-.2"/><path d="M112 89c-.2 0-.3.2-.3.3 0 .2 1 .4 2 .4s2-.2 2-.4"/><path d="M111.7 89c0 .4 1 .6 2 .6s2-.2 2-.5"/><path d="M112 88.7c-.2 0-.3.2-.3.2l2 .2c1 0 2-.2 2-.5l-.4-.3"/><path d="M112 88.6c-.2 0-.3 0-.3.2 0 .3 1 .5 2 .5s2-.2 2-.5l-.4-.3"/><path d="M112 88.4c-.2 0-.3 0-.3.2 0 .3 1 .5 2 .5s2 0 2-.2l-.4-.2"/><path d="M112 88.2c-.2 0-.3.2-.3.3 0 .2 1 .4 2 .4s2-.5 2-.7"/><path d="M111.7 88.3c0 .3 1 .5 2 .5s2-.2 2-.5"/><path d="M112 88h-.3c0 .4 1 .6 2 .6s2-.2 2-.5h-.4"/><path d="M112 87.8c-.2 0-.3 0-.3.2 0 .3 1 .5 2 .5s2-.2 2-.5l-.4-.3"/><path d="M112 87.6c-.2 0-.3 0-.3.2 0 .3 1 .5 2 .5s2-.2 2-.5l-.4-.2"/><path d="M112 87.4c-.2 0-.3.2-.3.3 0 .2 1 .4 2 .4h2"/><path d="M111.7 87.5c0 .3 1 .5 2 .5s2-.2 2-.5"/><path d="M111.7 87.3c0 .3 1 .5 2 .5s2-.2 2-.5"/><path d="M111.7 87.2c0 .3 1 .5 2 .5s2-.2 2-.5"/><path d="M112 86.8c-.2 0-.3 0-.3.2 0 .3 1 .5 2 .5s2-.2 2-.5l-.4-.2"/><path d="M112 86.6c-.2 0-.3.2-.3.3h2c1 0 2 0 2-.3"/><path d="M111.7 86.7c0 .3 1 .5 2 .5s2-.2 2-.5"/><path d="M111.7 86.5c0 .3 1 .5 2 .5s2-.2 2-.5"/><path d="M111.7 86.4c0 .3 1 .5 2 .5s2-.5 2-.8"/><path d="M111.7 86.2c0 .3 1 .5 2 .5s2-.2 2-.5M112 84c-.2 0-.3 0-.3.2s1 .4 2 .4 2-.2 2-.4l-.4-.3"/><path d="M112 83.8c-.2 0-.3 0-.3.2 0 .3 1 .5 2 .5s2-.2 2-.5l-.4-.3"/><path d="M112 83.6c-.2 0-.3 0-.3.2 0 .3 1 .5 2 .5s2-.2 2-.5l-.4-.2"/><path d="M112 83.4c-.2 0-.3.2-.3.3 0 .2 1 .5 2 .5s2-.3 2-.5l-.4-.3"/><path d="M112 83.3c-.2 0-.3 0-.3.2 0 .3 1 .5 2 .5s2-.2 2-.5l-.4-.2"/><path d="M112 83l-.3.4c0 .2 1 .4 2 .4s2-.2 2-.4l-.4-.3"/><path d="M112 83c-.2 0-.3 0-.3.2 0 .3 1 .5 2 .5s2-.2 2-.5l-.4-.3"/><path d="M112 82.8c-.2 0-.3 0-.3.2 0 .3 1 .5 2 .5s2-.2 2-.5l-.4-.2"/><path d="M112 82.6c-.2 0-.3.2-.3.3l2 .2c1 0 2-.3 2-.5s-.2-.3-.4-.4"/><path d="M112 82.5c-.2 0-.3 0-.3.2 0 .3 1 .5 2 .5s2-.2 2-.5l-.4-.2"/><path d="M112 82.3c-.2 0-.3.2-.3.3 0 .2 1 .4 2 .4s2-.2 2-.4l-.4-.3"/><path d="M112 82.2c-.2 0-.3 0-.3.2 0 .3 1 .5 2 .5s2-.5 2-.8l-.4-.3"/><path d="M112 82c-.2 0-.3 0-.3.2 0 .3 1 .5 2 .5s2-.2 2-.5l-.4-.2"/><path d="M112 81.8c-.2 0-.3.2-.3.3 0 .5 1 .8 2 .8s2-.3 2-.5l-.4-.2"/><path d="M112 81.7c-.2 0-.3 0-.3.2l2 .2c1 0 2-.2 2-.5 0-.2-.2-.3-.4-.3"/><path d="M112 81.5c-.2 0-.3.2-.3.3 0 .2 1 .4 2 .4s2-.2 2-.4l-.4-.3"/><path d="M112 81.4c-.2 0-.3 0-.3.2 0 .3 1 .5 2 .5s2 0 2-.2l-.4-.3"/><path d="M112 81.2c-.2 0-.3 0-.3.2 0 .3 1 .5 2 .5s2-.5 2-.8l-.4-.2"/><path d="M112 81c-.2 0-.3.2-.3.3 0 .2 1 .5 2 .5s2-.3 2-.5l-.4-.3"/><path d="M112 81h-.3c0 .4 1 .6 2 .6s2-.2 2-.5h-.4"/><path d="M112 80.7c-.2 0-.3.2-.3.3 0 .2 1 .4 2 .4s2-.2 2-.4l-.4-.3"/><path d="M112 80.6c-.2 0-.3 0-.3.2 0 .3 1 .5 2 .5s2-.2 2-.5l-.4-.3"/><path d="M112 80.4c-.2 0-.3 0-.3.2 0 .3 1 .5 2 .5s2 0 2-.2l-.4-.2"/><path d="M112 80.2c-.2 0-.3.2-.3.3 0 .2 1 .5 2 .5s2-.3 2-.5l-.4-.3"/><path d="M112 80l-.3.3c0 .3 1 .5 2 .5s2-.2 2-.5l-.4-.2"/><path d="M112 80c-.2 0-.3 0-.3.2s1 .4 2 .4 2-.2 2-.4l-.4-.3"/><path d="M112 79.8c-.2 0-.3 0-.3.2 0 .3 1 .5 2 .5s2-.2 2-.5l-.4-.3"/><path d="M112 79.6c-.2 0-.3 0-.3.2 0 .3 1 .5 2 .5s2-.2 2-.5l-.4-.2"/><path d="M112 79.4c-.2 0-.3.2-.3.3 0 .2 1 .5 2 .5s2-.3 2-.5l-.4-.3"/><path d="M112 79.3c-.2 0-.3 0-.3.2 0 .3 1 .5 2 .5s2-.2 2-.5l-.4-.2"/><path d="M112 79l-.3.4c0 .2 1 .4 2 .4s2-.2 2-.4l-.4-.3"/><path d="M112 79c-.2 0-.3 0-.3.2 0 .3 1 .5 2 .5s2-.2 2-.5l-.4-.3"/><path d="M112 78.8c-.2 0-.3 0-.3.2 0 .3 1 .5 2 .5s2-.2 2-.5l-.4-.2"/><path d="M112 78.6c-.2 0-.3.2-.3.3l2 .2c1 0 2-.3 2-.5s-.2-.3-.4-.4"/><path d="M112 78.5c-.2 0-.3 0-.3.2 0 .3 1 .5 2 .5s2-.2 2-.5l-.4-.2"/><path d="M112 78.3c-.2 0-.3.2-.3.3 0 .2 1 .4 2 .4s2-.2 2-.4l-.4-.3"/><path d="M112 78.2c-.2 0-.3 0-.3.2 0 .3 1 .5 2 .5s2-.5 2-.8l-.4-.3"/><path d="M112 78c-.2 0-.3 0-.3.2 0 .3 1 .5 2 .5s2-.2 2-.5l-.4-.2"/><path d="M112 77.8c-.2 0-.3.2-.3.3 0 .5 1 .8 2 .8s2-.3 2-.5l-.4-.2"/><path d="M112 77.7c-.2 0-.3 0-.3.2l2 .2c1 0 2-.2 2-.5 0-.2-.2-.3-.4-.3"/><path d="M112 77.5c-.2 0-.3.2-.3.3 0 .2 1 .4 2 .4s2-.2 2-.4l-.4-.3"/><path d="M112 77.4c-.2 0-.3 0-.3.2 0 .3 1 .5 2 .5s2 0 2-.2l-.4-.3"/><path d="M112 77.2c-.2 0-.3.2-.3.2 0 .3 1 .5 2 .5s2-.5 2-.8l-.4-.2"/><path d="M112 77c-.2 0-.3.2-.3.3 0 .2 1 .5 2 .5s2-.3 2-.5l-.4-.3"/><path d="M112 77h-.3c0 .4 1 .6 2 .6s2-.2 2-.5h-.4"/><path d="M112 76.7c-.2 0-.3.2-.3.3 0 .2 1 .4 2 .4s2-.2 2-.4l-.4-.3"/><path d="M112 76.6c-.2 0-.3 0-.3.2 0 .3 1 .5 2 .5s2-.2 2-.5l-.4-.2"/><path d="M112 76.4c-.2 0-.3.2-.3.2 0 .3 1 .5 2 .5s2 0 2-.2l-.4-.2"/><path d="M112 76.2c-.2 0-.3.2-.3.3 0 .2 1 .5 2 .5s2-.3 2-.5"/><path d="M111.7 76.3c0 .3 1 .5 2 .5s2-.2 2-.5"/><path d="M112 76c-.2 0-.3 0-.3.2s1 .4 2 .4 2-.2 2-.4l-.4-.3"/><path d="M112 75.8c-.2 0-.3 0-.3.2 0 .3 1 .5 2 .5s2-.2 2-.5l-.4-.2"/><path d="M112 75.6c-.2 0-.3.2-.3.2 0 .3 1 .5 2 .5s2-.2 2-.5l-.4-.2"/><path d="M112 75.4c-.2 0-.3.2-.3.3 0 .2 1 .5 2 .5s2-.3 2-.5"/><path d="M111.7 75.5c0 .3 1 .5 2 .5s2-.2 2-.5m-3.7 43.3c-.2 0-.3 0-.3.2 0 .3 1 .5 2 .5s2-.2 2-.5l-.4-.2"/><path d="M112 118.6c-.2 0-.3.2-.3.3h2c1 0 2 0 2-.3 0-.2-.2-.3-.4-.4"/><path d="M112 118.5c-.2 0-.3 0-.3.2 0 .3 1 .5 2 .5s2-.2 2-.5l-.4-.2"/><path d="M112 118.3c-.2 0-.3.2-.3.2 0 .3 1 .5 2 .5s2-.2 2-.5l-.4-.2"/><path d="M112 118l-.3.4c0 .2 1 .5 2 .5s2-.6 2-.8l-.4-.3"/><path d="M112 118c-.2 0-.3 0-.3.2 0 .3 1 .5 2 .5s2-.2 2-.5l-.4-.2"/><path d="M112 117.8c-.2 0-.3.2-.3.3 0 .5 1 .7 2 .7s2-.2 2-.4l-.4-.2"/><path d="M112 117.7c-.2 0-.3 0-.3.2l2 .2c1 0 2-.2 2-.5 0-.2-.2-.3-.4-.3"/><path d="M112 117.5c-.2 0-.3.2-.3.2 0 .3 1 .5 2 .5s2-.2 2-.5l-.4-.2"/><path d="M112 117.3c-.2 0-.3.2-.3.3 0 .2 1 .5 2 .5s2 0 2-.2l-.4-.3"/><path d="M112 117.2c-.2 0-.3 0-.3.2 0 .3 1 .5 2 .5s2-.5 2-.8l-.4-.2"/><path d="M112 117c-.2 0-.3.2-.3.3 0 .2 1 .4 2 .4s2-.2 2-.4l-.4-.3"/><path d="M112 117h-.3c0 .4 1 .6 2 .6s2-.2 2-.5h-.4"/><path d="M112 116.7c-.2 0-.3.2-.3.2l2 .2c1 0 2-.2 2-.5 0-.2-.2-.2-.4-.3"/><path d="M112 116.5c-.2 0-.3.2-.3.3 0 .2 1 .5 2 .5s2-.3 2-.5l-.4-.3"/><path d="M112 116.4c-.2 0-.3 0-.3.2 0 .3 1 .5 2 .5s2 0 2-.2l-.4-.2m-3.3 4.8c-.2 0-.3.2-.3.3 0 .2 1 .5 2 .5s2 0 2-.3l-.4-.4"/><path d="M112 121.2c-.2 0-.3 0-.3.2 0 .3 1 .5 2 .5s2-.5 2-.8l-.4-.2"/><path d="M112 121c-.2 0-.3.2-.3.3 0 .2 1 .4 2 .4s2-.2 2-.4l-.4-.3"/><path d="M112 121h-.3c0 .4 1 .6 2 .6s2-.2 2-.5h-.4"/><path d="M112 120.7c-.2 0-.3.2-.3.2l2 .2c1 0 2-.2 2-.5 0-.2-.2-.2-.4-.3"/><path d="M112 120.5c-.2 0-.3.2-.3.3 0 .2 1 .5 2 .5s2-.3 2-.5l-.4-.3"/><path d="M112 120.4c-.2 0-.3 0-.3.2 0 .3 1 .5 2 .5s2 0 2-.2l-.4-.2m-3.3 2c-.2 0-.3 0-.3.2 0 .3 1 .5 2 .5s2-.2 2-.5l-.4-.2"/><path d="M112 122.3c-.2 0-.3.2-.3.2 0 .3 1 .5 2 .5s2-.2 2-.5l-.4-.2"/><path d="M112 122l-.3.4c0 .2 1 .5 2 .5s2-.6 2-.8l-.4-.3"/><path d="M112 122c-.2 0-.3 0-.3.2 0 .3 1 .5 2 .5s2-.2 2-.5l-.4-.2"/><path d="M112 121.8c-.2 0-.3.2-.3.3 0 .5 1 .7 2 .7s2-.2 2-.4l-.4-.2"/><path d="M112 121.7c-.2 0-.3 0-.3.2l2 .2c1 0 2-.2 2-.5 0-.2-.2-.3-.4-.3"/><path d="M112 121.5c-.2 0-.3.2-.3.2 0 .3 1 .5 2 .5s2-.2 2-.5l-.4-.2m-3.3-1.3c-.2 0-.3.2-.3.3 0 .2 1 .4 2 .4s2-.5 2-.7l-.4-.3"/><path d="M112 120c-.2 0-.3.2-.3.3 0 .3 1 .5 2 .5s2-.2 2-.5l-.4-.2"/><path d="M112 120h-.3c0 .4 1 .6 2 .6s2-.2 2-.5h-.4"/><path d="M112 119.7c-.2 0-.3.2-.3.3 0 .2 1 .5 2 .5s2-.3 2-.5l-.4-.3"/><path d="M112 119.6c-.2 0-.3 0-.3.2 0 .3 1 .5 2 .5s2-.2 2-.5l-.4-.2"/><path d="M112 119.4c-.2 0-.3.2-.3.3 0 .2 1 .4 2 .4h2l-.4-.4"/><path d="M112 119.3c-.2 0-.3 0-.3.2 0 .3 1 .5 2 .5s2-.2 2-.5l-.4-.2"/><path d="M112 119l-.3.3c0 .3 1 .5 2 .5s2-.2 2-.5l-.4-.2"/><path d="M112 119c-.2 0-.3 0-.3.2s1 .5 2 .5 2-.3 2-.5l-.4-.3m-3.3-3c-.2 0-.3.2-.3.3 0 .2 1 .4 2 .4s2-.4 2-.6l-.4-.2"/><path d="M112 116c-.2 0-.3.2-.3.3 0 .3 1 .5 2 .5s2-.2 2-.5l-.4-.2"/><path d="M112 116h-.3c0 .4 1 .6 2 .6s2-.2 2-.5h-.4"/><path d="M112 115.7c-.2 0-.3.2-.3.3 0 .2 1 .5 2 .5s2-.3 2-.5l-.4-.3"/><path d="M112 115.6c-.2 0-.3 0-.3.2 0 .3 1 .5 2 .5s2-.2 2-.5l-.4-.2"/><path d="M112 115.4c-.2 0-.3.2-.3.3 0 .2 1 .4 2 .4h2l-.4-.4"/><path d="M112 115.3c-.2 0-.3 0-.3.2 0 .3 1 .5 2 .5s2-.2 2-.5l-.4-.2"/><path d="M112 115l-.3.3c0 .3 1 .5 2 .5s2-.2 2-.5l-.4-.2"/><path d="M112 115c-.2 0-.3 0-.3.2s1 .5 2 .5 2-.3 2-.5l-.4-.3"/><path d="M112 114.8c-.2 0-.3 0-.3.2 0 .3 1 .5 2 .5s2-.2 2-.5l-.4-.2"/><path d="M112 114.6c-.2 0-.3.2-.3.3h2c1 0 2 0 2-.3 0-.2-.2-.3-.4-.4"/><path d="M112 114.5c-.2 0-.3 0-.3.2 0 .3 1 .5 2 .5s2-.2 2-.5l-.4-.2"/><path d="M112 114.3c-.2 0-.3.2-.3.2 0 .3 1 .5 2 .5s2-.2 2-.5l-.4-.2"/><path d="M112 114l-.3.4c0 .2 1 .5 2 .5s2-.6 2-.8l-.4-.3"/><path d="M112 114c-.2 0-.3 0-.3.2 0 .3 1 .5 2 .5s2-.2 2-.5l-.4-.2"/><path d="M112 113.8c-.2 0-.3.2-.3.3 0 .5 1 .7 2 .7s2-.2 2-.4l-.4-.2"/><path d="M112 113.7c-.2 0-.3 0-.3.2l2 .2c1 0 2-.2 2-.5 0-.2-.2-.3-.4-.3"/><path d="M112 113.5c-.2 0-.3.2-.3.2 0 .3 1 .5 2 .5s2-.2 2-.5l-.4-.2"/><path d="M112 113.3c-.2 0-.3.2-.3.3 0 .2 1 .5 2 .5s2 0 2-.2l-.4-.3"/><path d="M112 113.2c-.2 0-.3 0-.3.2 0 .3 1 .5 2 .5s2-.5 2-.8l-.4-.2"/><path d="M112 113c-.2 0-.3.2-.3.3 0 .2 1 .4 2 .4s2-.2 2-.4l-.4-.3"/><path d="M112 113h-.3c0 .4 1 .6 2 .6s2-.2 2-.5h-.4"/><path d="M112 112.7c-.2 0-.3.2-.3.2l2 .2c1 0 2-.2 2-.5l-.4-.3"/><path d="M112 112.6c-.2 0-.3 0-.3.2s1 .5 2 .5 2-.3 2-.5l-.4-.3"/><path d="M112 112.4c-.2 0-.3 0-.3.2 0 .3 1 .5 2 .5s2 0 2-.2l-.4-.2"/><path d="M112 112.2c-.2 0-.3.2-.3.3 0 .2 1 .4 2 .4s2-.5 2-.7l-.4-.3"/><path d="M112 112c-.2 0-.3.2-.3.3 0 .3 1 .5 2 .5s2-.2 2-.5l-.4-.2"/><path d="M112 112h-.3c0 .4 1 .6 2 .6s2-.2 2-.5h-.4"/><path d="M112 111.8c-.2 0-.3 0-.3.2s1 .5 2 .5 2-.3 2-.5l-.4-.3"/><path d="M112 111.6c-.2 0-.3 0-.3.2 0 .3 1 .5 2 .5s2-.2 2-.5l-.4-.2"/><path d="M112 111.4c-.2 0-.3.2-.3.3 0 .2 1 .4 2 .4h2l-.4-.4"/><path d="M112 111.3c-.2 0-.3 0-.3.2 0 .3 1 .5 2 .5s2-.2 2-.5l-.4-.2"/><path d="M112 111l-.3.3c0 .3 1 .5 2 .5s2-.2 2-.5"/><path d="M111.7 111.2c0 .2 1 .5 2 .5s2-.3 2-.5"/><path d="M112 110.8c-.2 0-.3 0-.3.2 0 .3 1 .5 2 .5s2-.2 2-.5l-.4-.2"/><path d="M112 110.6c-.2 0-.3.2-.3.3h2c1 0 2 0 2-.3 0-.2-.2-.3-.4-.4"/><path d="M112 110.5c-.2 0-.3 0-.3.2 0 .3 1 .5 2 .5s2-.2 2-.5l-.4-.2"/><path d="M112 110.3c-.2 0-.3.2-.3.2 0 .3 1 .5 2 .5s2-.2 2-.5"/><path d="M111.7 110.4c0 .2 1 .5 2 .5s2-.6 2-.8"/><path d="M112 110c-.2 0-.3 0-.3.2 0 .3 1 .5 2 .5s2-.2 2-.5l-.4-.2"/><path d="M112 109.8c-.2 0-.3.2-.3.3 0 .5 1 .7 2 .7s2-.2 2-.4l-.4-.2"/><path d="M112 109.7c-.2 0-.3 0-.3.2l2 .2c1 0 2-.2 2-.5 0-.2-.2-.3-.4-.3"/><path d="M112 109.5c-.2 0-.3.2-.3.2 0 .3 1 .5 2 .5s2-.2 2-.5"/><path d="M111.7 109.6c0 .2 1 .5 2 .5s2 0 2-.2"/><path d="M112 109.2c-.2 0-.3 0-.3.2 0 .3 1 .5 2 .5s2-.5 2-.8l-.4-.2"/><path d="M112 109c-.2 0-.3.2-.3.3 0 .2 1 .4 2 .4s2-.2 2-.4l-.4-.3"/><path d="M112 109h-.3c0 .4 1 .6 2 .6s2-.2 2-.5h-.4"/><path d="M112 108.7c-.2 0-.3.2-.3.2l2 .2c1 0 2-.2 2-.5"/><path d="M111.7 108.8c0 .2 1 .5 2 .5s2-.3 2-.5"/><path d="M112 108.4c-.2 0-.3 0-.3.2 0 .3 1 .5 2 .5s2 0 2-.2l-.4-.2"/><path d="M112 108.2c-.2 0-.3.2-.3.3 0 .2 1 .4 2 .4s2-.5 2-.7l-.4-.3"/><path d="M112 108c-.2 0-.3.2-.3.3 0 .3 1 .5 2 .5s2-.2 2-.5l-.4-.2"/><path d="M112 108h-.3c0 .4 1 .6 2 .6s2-.2 2-.5"/><path d="M111.7 108c0 .2 1 .5 2 .5s2-.3 2-.5"/><path d="M112 107.6c-.2 0-.3 0-.3.2 0 .3 1 .5 2 .5s2-.2 2-.5l-.4-.2"/><path d="M112 107.4c-.2 0-.3.2-.3.3 0 .2 1 .4 2 .4h2l-.4-.4"/><path d="M112 107.3c-.2 0-.3 0-.3.2 0 .3 1 .5 2 .5s2-.2 2-.5l-.4-.2"/><path d="M112 107l-.3.3c0 .3 1 .5 2 .5s2-.2 2-.5"/><path d="M111.7 107.2c0 .2 1 .5 2 .5s2-.3 2-.5"/><path d="M112 106.8c-.2 0-.3 0-.3.2 0 .3 1 .5 2 .5s2-.2 2-.5l-.4-.2"/><path d="M112 106.6c-.2 0-.3.2-.3.3h2c1 0 2 0 2-.3 0-.2-.2-.3-.4-.4"/><path d="M112 106.5c-.2 0-.3 0-.3.2 0 .3 1 .5 2 .5s2-.2 2-.5l-.4-.2"/><path d="M112 106.3c-.2 0-.3.2-.3.2 0 .3 1 .5 2 .5s2-.2 2-.5"/><path d="M111.7 106.4c0 .2 1 .5 2 .5s2-.6 2-.8"/><path d="M112 106c-.2 0-.3 0-.3.2 0 .3 1 .5 2 .5s2-.2 2-.5l-.4-.2"/><path d="M112 105.8c-.2 0-.3.2-.3.3 0 .5 1 .7 2 .7s2-.2 2-.4l-.4-.2"/><path d="M112 105.7c-.2 0-.3 0-.3.2l2 .2c1 0 2-.2 2-.5 0-.2-.2-.3-.4-.3"/><path d="M112 105.5c-.2 0-.3.2-.3.2 0 .3 1 .5 2 .5s2-.2 2-.5"/><path d="M111.7 105.6c0 .2 1 .5 2 .5s2 0 2-.2"/><path d="M111.7 105.4c0 .3 1 .5 2 .5s2-.5 2-.8"/><path d="M111.7 105.3c0 .2 1 .4 2 .4s2-.2 2-.4m-4.4-24c-1 0-2 .7-2 2.2 0 1.5 2 2 4 2s4.3-.7 4.3-2.3c0-1.6-2-2-2.2-2"/><path d="M111.4 82.2c-.5.2-1 .6-1 1.3 0 1 1.5 1.2 3 1.2 1.4 0 3-.5 3-1.5 0-.4-.5-.8-.8-1"/><path d="M109 83.3c-.4 2.5 2 3 4.2 3 2 0 5.3-.6 4.3-3.4m-9.5-9.5v1.3s1 .8 2.3.8h5.7c2.3-.2 2.6-.8 2.6-.8v-1.2"/><path d="M109.5 73c-.4 0-1.4 0-1.4.6s2 1 2.6 1c.4 0 4.5 0 6.3-.3 1.7-.3 1.7-.7 1.7-.8 0-.2-.8-.6-1.3-.6"/><path d="M111.7 71.6c-.3 0-1.6.4-2 1.3-.5.5.4.6 1.2.6.5 0 4 .2 4.6 0 .8-.2 2.3-.2 1.2-1.2-1.3-1-2-1.2-2-1.2"/><path d="M113.2 71s-1.5.4-1.5.6c0 .2 1 .3 1.5.3.6 0 2-.5 2-.7 0-.2-2-.4-2-.4v.2z"/></g></g><use fill="#F9F9F9" xlink:href="#a"/><path stroke="#747474" d="M71.5 175.5h3v19h-3z"/><use fill="#F9F9F9" xlink:href="#b"/><path stroke="#747474" d="M117.5 177.694h3V194.5h-3z"/><use class="cable B fill" fill="#D0021B" xlink:href="#c"/><path stroke="#747474" d="M109.5 177.694h3V194.5h-3z"/><g><use class="cable A fill" fill="#4A4A4A" xlink:href="#d"/><path stroke="#747474" d="M93.5 176.656h3V187.5h-3z"/></g><g><use class="cable N fill" fill="#FFF" xlink:href="#e"/><path stroke="#747474" d="M89.5 176.656h3V187.5h-3z"/></g><g><path fill="#F9F9F9" d="M45.75 336.21c2.084-1.63 11.784-6.362 12.73-6.362.947 0 3.253-.988 3.253-.988v20.533s-5.455-.216 3.776 1.533c9.23 1.75 22.43 2.278 22.43 2.278s4.842-6.146 6.836-6.858c1.994-.713 8.068-3.443 9.995-5.654 1.928-2.21 9.616-7.753 11.172-8.47 1.556-.72 6.298.75 6.298 2.123 0 1.37-9.777 13.267-9.777 13.267l-6.994 6.668h9.439s2.553-.92 3.147-2.348c.593-1.43 2.742-.367 5.46-4.32 2.716-3.953 5.222-9.814 9.723-8.064 4.502 1.75 3.37 4.06 3.37 4.06l-6.967 11.244s8.13-4.725 9.566-4.363c1.434.362 5.608 4.985 4.487 5.88-1.12.898-10.646 8.664-10.646 8.664s-13.525 6.392-16.343 6.97c-2.818.575-9.237 1.285-16.72.642-7.482-.643-5.387-2.354-10.526-.577-5.137 1.777-7.828 1.467-7.828 1.467s-13.967-4.58-23.483-3.505c-9.517 1.076-11.426 1.432-11.426 1.432s-3.06-33.623-.975-35.253z"/><path stroke="#747474" d="M.362 363.896c8.96-3.25 56.203-37.71 61.656-34.893m-40.165 26.86c4.096-3.603 15.37-13.27 18.607-12.124m2.908-.796c1.42 4.592 8.308 16.906 6.288 19.52m-.682-22.237c1.987 0 12.23 1.083 12.877 2.24M59 337.04c.983 0 2.33-.253 2.33.51M76.747 355c0 .91-1.748 3.022-1.748 3.733m12.788-2.614c0-4.046 4.26-9.024 10.428-11.315 6.17-2.29 14.142-11.205 16.168-11.944 2.025-.738 6.14-2.294 7.997 1.176.91 1.867-6.08 8.947-6.783 9.858-.7.91-4.678 5.655-6.087 6.663-1.41 1.008-6.805 7.012-9.05 7.012-2.244 0-11.264 4.3-13.495 7.37-2.23 3.072-6.858 2.405-6.858 2.405"/><path stroke="#747474" d="M102.256 356.998c2.32 0 6.096-.61 8.45.194 2.355.806 7.19-5.523 7.87-5.523.68 0 4.583-2.176 5.48-5.213.896-3.037 4.858-7.67 8.554-7.025 3.696.647 4.057 3.91 4.057 3.91s-6.773 10.173-6.773 11.392"/><path stroke="#747474" d="M83.02 370.972c3.138-.54 11.49-1.624 14.44-2.135 2.95-.51 13.49 1.335 16.18-.242 2.69-1.577 15.607-12.694 16.663-13.79 1.056-1.1 7.834-5.005 9.4-4.138 1.565.867 4.49 4.408 3.664 5.737-.825 1.33-9.408 7.7-10.37 8.525-.96.825-15.545 7.57-20.595 8.283-5.05.713-18.164-1.863-19.395-1.863-1.23 0-10.055 2.145-11.01 2.145-.955 0-17.366-5.775-29.76-2.888-12.396 2.888-19.808 6.44-27.724 15.62S1.85 409.697.438 409.697m117.87-70.023c-1.408-1.878-1.756-6.313 4.166-5.234m10.184 14.93c-.646-2.582-.373-4.976 3.445-7.245m1.596 18.803c0-1.473 2.263-7.622 5.28-6.173"/></g></g></svg>
