<svg width="80" height="80" viewBox="0 0 80 80" xmlns="http://www.w3.org/2000/svg"><title>6-Done</title><defs><linearGradient x1="88.551%" y1="33.151%" x2="76.531%" y2="16.336%" id="a"><stop stop-color="#0FC8C3" offset="0%"/><stop stop-color="#358CF1" offset="100%"/></linearGradient><linearGradient x1="22.558%" y1="67.708%" y2="39.348%" id="b"><stop stop-color="#0FC8C3" offset="0%"/><stop stop-color="#358CF1" offset="100%"/></linearGradient><linearGradient x1="20.08%" y1="18.983%" x2="72.296%" y2="67.16%" id="c"><stop stop-color="#0FC8C3" offset="0%"/><stop stop-color="#358CF1" offset="100%"/></linearGradient></defs><g fill="none" fill-rule="evenodd"><g fill-rule="nonzero"><g><g><g><g><path d="M40 80C17.91 80 0 62.09 0 40S17.91 0 40 0s40 17.91 40 40-17.91 40-40 40zm0-13.333c14.728 0 26.667-11.94 26.667-26.667 0-14.728-11.94-26.667-26.667-26.667-14.728 0-26.667 11.94-26.667 26.667 0 14.728 11.94 26.667 26.667 26.667z" fill="url(#a)" transform="translate(-167.000000, -851.000000) translate(167.000000, 851.000000)"/><path d="M63.796 16.884l1.816-1.813-1.81 1.804 1.004-1.237c1.58-1.95 1.404-4.95-.393-6.704L62.185 6.76l.025-.022s1.89 1.24 3.607 2.706c1.478 1.233 2.81 2.62 2.81 2.62v.002c2.34 2.46 3.985 4.79 4.29 5.232 1.058 1.51 0 0 0 0 2.27 2.794 2 7.18-.602 9.794L48.63 50.894l-9.543-9.354 23.466-23.416c.148-.002.244-.008.244-.008l1-1.232z" fill="url(#b)" transform="translate(-167.000000, -851.000000) translate(167.000000, 851.000000)"/><path d="M49.467 50.123l4.807-4.807-1.198.936c-2.026 1.584-5.316 1.58-7.335 0l-.66-.518-12.84-12.84c-2.608-2.607-6.837-2.607-9.445 0-2.603 2.603-2.608 6.837 0 9.445l12.506 12.505c2.61 2.608 6.838 2.608 9.446 0l4.722-4.72v-.002z" fill="url(#c)" transform="translate(-167.000000, -851.000000) translate(167.000000, 851.000000)"/></g></g></g></g></g></g></svg>