<svg width="142" height="303" viewBox="0 0 142 303" xmlns="http://www.w3.org/2000/svg" xmlns:xlink="http://www.w3.org/1999/xlink"><title>Group 5</title><defs><path d="M64.013 5.494c3.246 0 6.447-.35 6.447-.785 0-.434-3.2-.786-6.447-.786s-7.904.33-7.904.763 4.656.807 7.903.807z" id="a"/><mask id="e" x="0" y="0" width="14.351" height="1.57" fill="#fff"><use xlink:href="#a"/></mask><path d="M16.722 1.717c3.246 0 6.447-.35 6.447-.785 0-.433-3.202-.785-6.448-.785-3.247 0-7.904.33-7.904.763s4.657.807 7.904.807z" id="b"/><mask id="f" x="0" y="0" width="14.351" height="1.57" fill="#fff"><use xlink:href="#b"/></mask><path id="c" d="M0 23h142v280H0z"/><mask id="g" x="0" y="0" width="142" height="280" fill="#fff"><use xlink:href="#c"/></mask><path id="d" d="M20 0h102v287H20z"/><mask id="h" x="0" y="0" width="102" height="287" fill="#fff"><use xlink:href="#d"/></mask></defs><g fill="none" fill-rule="evenodd"><g><g><g transform="translate(31 54)" stroke="#747474"><path d="M.13 4.84v208.002s.707 1.436 5.816 1.97c5.11.532 31.748.445 36.404.445 4.655 0 33.6-.13 35.49-1.273 1.892-1.142 1.28-2.244 1.28-2.244l-.086-206.9"/><path d="M39.518 5.625c20.382 0 36.905 1.067 36.905-2.668 0-3.735-16.523-2.67-36.905-2.67S2.108-.22 2.613 2.958C1.025 6.012 19.136 5.625 39.518 5.625zM.122 160.614c.988 1.548 2.172 1.932 10.39 2.457 8.217.526 54.258.58 60.347.022 6.087-.558 7.948-1.243 8.408-2.152M.163 108.783c.987 1.548 2.172 1.932 10.39 2.457 8.217.525 54.258.58 60.347.022 6.088-.56 7.95-1.244 8.41-2.153M.163 56.168c.987 1.548 2.172 1.93 10.39 2.456 8.217.525 54.258.58 60.347.022 6.088-.56 7.95-1.244 8.41-2.153"/><path d="M.163 55.07c.987 1.547 2.172 1.93 10.39 2.455 8.217.525 54.258.58 60.347.022 6.088-.56 7.95-1.244 8.41-2.152M3.174 2.01C2.224 2.305.456 3.62.156 4.842c1.218 2.028 3.8 2.05 10.396 2.473 8.218.524 54.26.58 60.348.02 4.573-.418 8.43-1.23 8.11-2.63-1.1-1.784-2.638-2.79-3.637-3.122M37.953.467l-.925.348 2.596.324 2.504-.415-.79-.412z"/><use mask="url(#e)" stroke-width="2" xlink:href="#a"/><use mask="url(#f)" stroke-width="2" xlink:href="#b"/><path d="M39.413 2.026l-7.17.443.027.56 7.312.412 7.98-.38.026-.607z"/><path d="M.388 70.027s.802.57.802 1.637c0 1.067-.528 1.462-.528 2.353 0 .89.73.56.73 1.523 0 .965-.85 1.278-.79 2.104.06.826.86.647.86 1.844 0 1.196-.81 1.024-.81 2.023 0 1 .77.55.77 1.697 0 1.148-.773 1.138-.773 1.138M.327 122.643s.8.57.8 1.637c0 1.066-.527 1.462-.527 2.352 0 .89.73.56.73 1.524 0 .965-.85 1.278-.79 2.104.06.826.86.647.86 1.843 0 1.197-.81 1.025-.81 2.024 0 1 .77.547.77 1.696 0 1.148-.773 1.137-.773 1.137M.327 174.474s.8.57.8 1.636c0 1.067-.527 1.463-.527 2.353 0 .89.73.56.73 1.524 0 .965-.85 1.278-.79 2.104.06.826.86.647.86 1.844s-.81 1.024-.81 2.024.77.547.77 1.695c0 1.148-.773 1.138-.773 1.138M78.965 188.716s-.8-.57-.8-1.636c0-1.067.527-1.463.527-2.353 0-.89-.73-.56-.73-1.524 0-.965.85-1.278.79-2.104-.06-.826-.86-.647-.86-1.844s.81-1.024.81-2.024-.77-.547-.77-1.695c0-1.148.773-1.138.773-1.138M78.965 136.914s-.8-.57-.8-1.636c0-1.067.527-1.463.527-2.353 0-.89-.73-.56-.73-1.524 0-.963.85-1.277.79-2.102-.06-.826-.86-.647-.86-1.844 0-1.196.81-1.024.81-2.023 0-1-.77-.547-.77-1.695 0-1.148.773-1.138.773-1.138M78.965 84.328s-.8-.57-.8-1.637c0-1.065.527-1.46.527-2.35 0-.892-.73-.56-.73-1.525 0-.965.85-1.278.79-2.104-.06-.825-.86-.646-.86-1.842 0-1.197.81-1.025.81-2.024 0-1-.77-.547-.77-1.696 0-1.148.773-1.137.773-1.137" stroke-linecap="round"/></g><g><path d="M70 12v48" stroke="#358CF1" stroke-linecap="square" stroke-dasharray="4"/><path d="M74 11h-8" stroke="#358CF1" stroke-linecap="square" stroke-dasharray="1"/><text font-family="AvenirNext-DemiBold, Avenir Next" font-size="16" font-weight="500" fill="#358CF1" transform="translate(66 10)"><tspan x="7" y="30">3“</tspan></text></g><g stroke="#358CF1" stroke-linecap="square"><path d="M70 269v25.5" stroke-dasharray="4"/><path d="M74 295h-8" stroke-dasharray="1"/></g><path d="M.5 301.758l20-15.516M.5 23.676L20.5.324M141.5 23.676L121.5.324M141.5 301.758l-20-15.516" stroke="#358CF1" stroke-linecap="square" stroke-dasharray="4"/><g stroke-linecap="square" stroke="#358CF1"><g><path d="M111 150h19.5" stroke-dasharray="4"/><path d="M131 146v8" stroke-dasharray="1"/></g><g><path d="M30.098 150H11.5" stroke-dasharray="4"/><path d="M11.098 154v-8" stroke-dasharray="1"/></g></g><text font-family="AvenirNext-DemiBold, Avenir Next" font-size="16" font-weight="500" fill="#358CF1"><tspan x="73" y="288">2“</tspan></text><text font-family="AvenirNext-DemiBold, Avenir Next" font-size="16" font-weight="500" fill="#358CF1"><tspan x="123" y="145">1“</tspan></text><text font-family="AvenirNext-DemiBold, Avenir Next" font-size="16" font-weight="500" fill="#358CF1"><tspan x="5" y="145">1“</tspan></text><use stroke="#358CF1" mask="url(#g)" stroke-width="2" stroke-dasharray="4" xlink:href="#c"/><use stroke="#358CF1" mask="url(#h)" stroke-width="2" stroke-dasharray="4" xlink:href="#d"/></g></g></g></svg>