<svg xmlns="http://www.w3.org/2000/svg" width="90" height="162" viewBox="0 0 90 162"><g fill="none" fill-rule="evenodd" stroke="#747474" transform="translate(1 1)"><path d="M46.507 109.517c-1.94 0-3.435.475-3.435.978 0 .502.427 1.277 3.822 2.168 3.395.89 6.708-.29 7.452-.668.745-.38-.878-1.523-1.58-1.523"/><path d="M52.736 38.65c-.118.18-.287 73.137 0 73.137-1.174.664-4.233 1.004-5.9-.268V38.35"/><path d="M45.313 29.986l-.065 7.51s1.338 1.233 4.43 1.233c3.094 0 4.12-1.402 4.12-1.402l.002-7.324"/><path d="M53.672 30.156s-1.85.93-3.982.93-3.783-.722-3.783-.722l-.744-5.167-.006-2.256s2.043 1.4 3.15 1.4c1.107 0 2.13.385 4.47-.256 2.338-.64 4.013-1.143 4.013-1.143v.457l-3.118 6.76z"/><path stroke-linecap="round" d="M57.06 22.768V3.698s-.614-1.002-.888-1.002S51.364.172 50.725.172c-.64 0-2.002-.21-3.18.102-1.177.313-4.46.795-4.46.795l-.962.914s-.414-.206-1.015.253c-.6.46-1.03.375-1.03 2.585s-.103 6.698-.103 6.698l-1.253 3.244-.13.978 1.105.705s-.13 8.69-.13 9.533-.37 1.644.806 2.15c1.177.504 2.72 1.243 3.074 1.243.352 0 1.007.41 1.007-1.744 0-1.84.224-7.853.29-9.57.01-.295-.212-.347-.212-.347s-.347.253-.897.253-2.99-1.196-3.53-1.358"/><path d="M43.196 29.416c.608-.515.66-9.216.875-11.39M38.676 14.8l4.406 2m-3.052-5.23l4.25 1.913m-4.054-9.768l4.576 2.13m-3.552-3.563l4.51 2.13"/><path stroke-linecap="round" d="M43.74 1.197l5.9 2.924"/><path d="M42.973 1.323l.395.636-1.162.126M43.07 17.767l.057-1.16 1.305-3.353s.216-6.697.216-7.33c0-.63.57-1.34 1.097-1.554.526-.213 2.06-.73 2.592-.24"/><path d="M43.676 17.853l.023-.92 1.324-3.442s.047-7.193.204-7.608c.157-.415.37-1.242 2.234-1.242"/><path d="M45.21 22.89c0-1.37.416-13.943.573-14.643.156-.7.474-2.102 1.573-2.415m.802-1.707s-.78-.255-.78 1.212c0 1.468.11 18.63.11 18.63M50.723 4.155l.45 1.376V24.33M55.133 3.265l.59 1.247v18.625"/><path d="M47.476 5.15c.462.337 1.454.483 1.97.483.518 0 1.65-.217 1.65-.217l4.772-.972s1.197-.373 1.197-.587m-8.817.236c.452.187 1.672.346 2.785.052 1.113-.294 4.138-.85 4.138-.85s.616-.297.797-.615M49.016 3.72l.06-2.538.603-1.037"/><path stroke-linecap="round" d="M44.93 1.636s3.71-.763 4.136-.763c.427 0 5.857 2.378 5.857 2.378M45.02 25.475s-.01 2.89-.25 3.25c-.243.362 1.08 1.66 1.08 1.66"/><path d="M65.607 138.864v4.65m11-6.896v4.65m-5.927-2.718c-1.722-.47-2.845.18-2.845 2.15 0 1.967 1.622 2.32 2.785 1.16.102 0 .102-1.4.102-1.4m9.867-4.355c-.967-.33-2.01.067-2.01.955 0 1.716 2.136.646 2.136 1.716 0 1.07-.242 1.762-2.307 1.255"/><path stroke-linecap="round" d="M.16 117.694v21.742c0 3.017.93 6.63 5.927 9.85 4.998 3.224 18.745 9.58 23.896 10.19 5.15.61 15.27.784 20.6-.257 5.332-1.04 25.497-3.706 31.563-7.404 6.066-3.7 5.173-8.4 5.55-13.255.38-4.853.15-18.198.15-18.198"/><path stroke-linecap="round" d="M1.627 115.394c-1.003.847-2.387 1.74-.762 3.924 1.624 2.184 20.58 12.023 31.646 12.592 11.067.568 36.11-2.578 50.235-7.284 13.582-4.732-6.35-12.403-6.35-12.403"/><path d="M46.632 105.525c-3.553 0-19.066 1.985-26.92 3.933-7.857 1.95-24.276 4.048-15.077 9.767 9.2 5.72 23.24 11.94 35.433 10.873 12.193-1.068 36.878-4.664 42.58-7.933 5.7-3.27 4.195-4.734-9.575-11.352-11.59-4.917-16.477-4.698-20.09-5.484"/><path d="M11.443 116.424l6.013 2.895s2.933-.703 3.215-.703c.283 0 1.993.45 2.738.33.746-.12 8.13-1.424 8.407-1.582.276-.158 1.79-.505-.245-1.305-2.036-.8-5.54-2.412-5.99-2.55-.45-.137-2.096-.432-3.95-.122-1.856.31-5.292.873-6.323 1.13-1.032.258-1.125 1.15-1.125 1.15l-2.74.617v.14zm2.605 1.184l1.764-.553"/><path d="M14.323 115.757l1.58 1.272.023 1.29M15.49 116.476s.77-.48 1.05-.48 5.796-1.093 5.796-1.093 1.642-.278 2.668.148c1.025.426 5.357 2.505 5.357 2.505m1.47-1.272l-.722 1.162"/><path d="M26.016 113.875l-.956 1.158-.018 3.517M21.625 113.536l.76 1.55-.143 1.062v2.456M15.962 114.582l.065.586.476.916v2.603M35.378 123.504c-.143.202-.653.42-.653.42l-1.324.008-.527-.443.386-.256 2.583-.518 1.54.91-2.03.625-.775.39 8.584 4.08s9.657-1.854 9.51-2.02c-.15-.166-4.042-1.92-4.042-1.92l-.38-.46-2.188-.956"/><path stroke-linecap="round" d="M35.403 124.403l4.258 2.27"/><path d="M36.09 122.808c.138 0 1.573-.315 1.573-.315l-.387.754.31.683.01.518 1.65.695 2.997-.62-.044-1.432-.162-.566-.676-.192-.39-.412-.772.05-.555.366-.58-.165-.884.014-.308.396"/><path d="M37.85 122.658l.86.326.452.888v1.11M42.16 123.078l-2.91.52 1.168-1.572"/><path d="M41.288 121.928l.363-.384.748.545.552 1.11v1.11"/><path d="M42.385 124.113l.727.32 2.71-.502.362-.48v-1.118l-.398-.553-1.288-.59-1.424 1.68 3.11-.538"/><path d="M45.328 121.826l-1.437.164-.796-.51-1.175.13M42.508 122.134l.5-.547m-3.944 4.715l2.073-.507s-.453-.302.063-.556c.516-.255 1.76-.226 1.76-.226l.76.2-.33.763.007 1.35 1.185.995"/><path d="M39.483 126.598l2.266-.526.59.633-.335.307v1.038M42.148 127.87l1.275-.496.65-.748s1.277 1.12 1.277 1.405"/><path d="M43.086 127.362l-.863-.047.025-1.258s1.418-.104 1.696.27c.28.376.434-.08.434-.08s1.324.864 1.597 1.716"/><path stroke-linecap="round" d="M45.75 127.33c0-.218.088-1.275.27-1.42.182-.145-.605-.72-.605-.72l-1.276.052.158.922"/><path d="M45.132 125.192l-.247-.53s.152-.41.802-.41 1.734.166 1.887.166c.154 0-.342.675-.342.923 0 .25-.104 1.428-.104 1.428"/><path d="M45.84 127.2s1.278-.47 1.517-.47c.24 0 1.068.904 1.068.904"/><path d="M45.964 126.4l1.404.227.52-.6.248-1.775.995 1.107s.845 1.845.612 1.876c-.258.035-1.29-1.877-1.855-1.877"/><path d="M49.175 127.384s-1.034-1.306-1.25-1.465c-.216-.16-.584-.523-.584-.523l-2.063-.124-.957.372M46.63 142.062l1.513 3.924.592.025 1.555-4.312M54.65 141.298l-2.52.297v4.03l2.364-.478M54.65 143.298l-2.52.297m4.125 1.636v-4.44s1.348-.232 1.967-.232c.62 0 .945 1.592.267 2.132-.68.54-2.078.54-2.078.54m2.663 1.578l-1.225-1.71m14.79-.972v-4.442s1.348-.23 1.967-.23c.618 0 .945 1.59.266 2.13-.68.54-2.076.54-2.076.54m2.527 1.546l-1.226-1.712m-13.082 4.09v-3.983s1.635-.418 2.076-.116c.44.3.972.775.848 1.942-.123 1.166-1.172 1.784-1.46 1.92-.29.133-1.464.236-1.464.236z"/><ellipse cx="45.053" cy="117.161" rx="3.89" ry="1.42"/><g><path d="M47.812 121.028c-.143.2-.653.42-.653.42l-1.325.008-.528-.444.386-.255 2.584-.518 1.54.908-2.03.626-.775.39 8.584 4.08s9.658-1.855 9.51-2.02c-.15-.167-4.04-1.92-4.04-1.92l-.382-.46-2.188-.957"/><path stroke-linecap="round" d="M47.9 121.91l4.258 2.27"/><path d="M48.548 120.292c.14 0 1.575-.315 1.575-.315l-.387.754.31.684.01.52 1.65.694 2.996-.62-.044-1.433-.16-.567-.677-.192-.39-.412-.77.05-.556.366-.58-.165-.884.013-.308.396"/><path d="M50.33 120.072l.86.326.453.888v1.11M54.547 120.675l-2.758.47 1.167-1.574M53.734 119.455l.363-.385.747.545.552 1.11v1.112"/><path d="M54.868 121.658l.727.322 2.71-.504.363-.482v-1.116l-.398-.553-1.288-.59-1.425 1.68 3.11-.537"/><path d="M57.79 119.25l-1.436.163-.797-.51-1.175.128M55.03 119.617l.5-.547m-4.065 4.796l2.073-.506s-.453-.302.063-.557c.517-.254 1.762-.225 1.762-.225l.76.2-.332.763.008 1.35 1.185.996"/><path d="M51.95 124.105l2.268-.526.592.632-.336.307v1.037M54.544 125.324l1.276-.496.65-.747s1.276 1.122 1.276 1.405"/><path d="M55.57 124.898l-.864-.047.025-1.257s1.42-.104 1.698.27c.28.376.434-.08.434-.08s1.323.864 1.597 1.716"/><path stroke-linecap="round" d="M58.262 124.883c0-.218.088-1.274.27-1.42.183-.145-.605-.72-.605-.72l-1.276.052.16.922"/><path d="M57.546 122.682l-.247-.53s.15-.41.8-.41 1.735.166 1.888.166c.154 0-.342.675-.342.923 0 .25-.104 1.428-.104 1.428m-1.27.46s1.278-.47 1.517-.47c.238 0 1.067.903 1.067.903"/><path d="M58.434 123.89l1.404.227.52-.6.248-1.775.994 1.107s.845 1.845.612 1.876c-.26.036-1.29-1.877-1.855-1.877"/><path d="M61.668 124.856s-1.034-1.306-1.25-1.466c-.216-.16-.584-.522-.584-.522l-2.064-.124-.957.372"/></g><g><path d="M60.29 118.69c-.142.2-.652.42-.652.42l-1.324.008-.528-.444.386-.255 2.584-.52 1.54.91-2.03.626-.775.39 8.585 4.08s9.658-1.855 9.51-2.02c-.15-.167-4.04-1.92-4.04-1.92l-.382-.46-2.188-.957"/><path stroke-linecap="round" d="M60.38 119.57l4.257 2.27"/><path d="M61.027 117.954c.14 0 1.575-.315 1.575-.315l-.387.753.31.683.01.52 1.65.694 2.996-.62-.043-1.433-.16-.567-.677-.192-.39-.412-.772.05-.555.366-.58-.165-.884.013-.31.396"/><path d="M62.81 117.734l.86.326.452.888v1.11M67.026 118.337l-2.758.47 1.168-1.574M66.213 117.117l.363-.385.747.545.552 1.11v1.112"/><path d="M67.347 119.32l.727.322 2.71-.504.363-.482v-1.116l-.398-.553-1.29-.59-1.424 1.68 3.11-.537"/><path d="M70.27 116.91l-1.437.165-.797-.51-1.175.128M67.51 117.28l.5-.548m-4.066 4.796l2.073-.506s-.453-.302.063-.557c.516-.254 1.76-.225 1.76-.225l.76.2-.33.763.007 1.35 1.185.995"/><path d="M64.43 121.767l2.267-.526.592.634-.337.307v1.04M67.023 122.986l1.276-.496.65-.747s1.275 1.12 1.275 1.404"/><path d="M68.048 122.56l-.863-.047.025-1.258s1.418-.104 1.697.27c.28.376.434-.08.434-.08s1.324.864 1.598 1.716"/><path stroke-linecap="round" d="M70.74 122.545c0-.218.09-1.274.27-1.42.184-.145-.604-.72-.604-.72l-1.276.052.16.922"/><path d="M70.025 120.344l-.247-.53s.152-.41.802-.41 1.734.166 1.887.166c.154 0-.342.675-.342.923s-.104 1.427-.104 1.427m-1.27.46s1.28-.47 1.518-.47c.24 0 1.068.903 1.068.903"/><path d="M70.913 121.552l1.404.227.52-.602.248-1.774.994 1.107s.844 1.847.61 1.878c-.258.036-1.29-1.877-1.854-1.877"/><path d="M74.147 122.518s-1.034-1.306-1.25-1.466c-.216-.16-.584-.522-.584-.522l-2.064-.124-.958.372"/></g></g></svg>