<svg xmlns="http://www.w3.org/2000/svg" width="283" height="124" viewBox="0 0 283 124">
  <g fill="none" fill-rule="evenodd" transform="translate(1 1)">
    <polyline stroke="#747474" points="8 56.615 10.174 55 13 56.385 11.696 58"/>
    <path stroke="#747474" d="M20,49 C19.9608321,49.693675 18.7479981,52.307275 18.041605,52.825 C17.9479937,52.893625 18.041605,58 18.041605,58"/>
    <path stroke="#747474" d="M26.6726623 60.6775184C26.6726623 60.6775184 25.3301126 12.0248926 25.3825761 8.59012564 25.4350396 5.15535864 26.9182088 6.13730245 29.0378204 5.80355731 31.1574321 5.46981216 71.2853493 2.11992832 72.4707235 1.94523192 73.6560978 1.77053552 75.3237492 2.52483813 75.2659104 4.08874602 75.2080715 5.65265391 72.0406948 45.0298654 72.0406948 45.0298654 72.0406948 45.0298654 78.0359405 46.2010815 78.7061403 46.5303253 79.3763401 46.8595691 80.0568606 47.4321017 79.9962265 48.6738394 79.9355925 49.9155771 74.7857833 91.3034048 74.4058529 93.901987 74.0259225 96.5005691 73.0676034 96.929272 72.9007523 97.1172582 72.7339011 97.3052443 40.7122408 120.266139 38.7134672 121.338968 36.7146936 122.411796 33.2235052 122.005815 31.8330073 121.338968 30.4425093 120.67212 7.38092788 105.36743 6.03128267 104.405206 4.68163745 103.442983 4.87601045 102.041339 4.74119644 100.546881 4.60638242 99.0524227 2.16102398 69.4659262 2.16102398 69.4659262 2.16102398 69.4659262 1.61295234 68.2171149 1.51598086 67.5367635 1.41900938 66.8564121.129783206 52.9364315.0108802584 51.4604077-.0740504184 50.4062275.343292477 50.3031245 1.08595212 49.9599479 1.58414042 49.7297344 6.46131141 48.459488 6.46131141 48.459488 6.46131141 48.459488 3.98026057 8.6370686 3.88113895 6.87531436 3.78201732 5.11356012 4.86912999 2.7561233 7.10635452 2.58828615 9.34357906 2.420449 50.9015568.140178692 52.0443582.0160692251 53.1871596-.108040241 60.7354541.523224662 62.3650481.659123456 63.994642.795022251 73.1705953.74786494 74.6264576 2.58828615M5 4L26 7"/>
    <path stroke="#747474" d="M72,45.1561079 L65.7578475,47.2851835 C65.7578475,47.2851835 65.7729148,39.7205779 65.7578475,38.343066 C65.7427803,36.9655541 64.8809327,27.2590984 62.3139013,24.7169822 C59.74687,22.1748659 57.6172197,20.5793366 53.4887892,21.0975536 C49.3603587,21.6157706 44.3987085,26.6697703 43.1569507,28.5493182 C41.9151928,30.4288662 39.5829955,34.3548816 38.6367713,37.7043433 C37.6905471,41.053805 37.1629776,46.7567469 37.1300448,48.7755364 C37.0971121,50.7943259 37.1300448,57.0789312 37.1300448,57.0789312 C37.1300448,57.0789312 28.348843,60.7635095 28.0896861,60.9112673 C27.8305291,61.0590252 25.0314619,60.9960045 24,60.9112673"/>
    <path stroke="#747474" d="M66,47 L48.71875,42.8865979 L48.71875,41.8041237 L46.53125,41.8041237 C46.53125,41.8041237 46.4931875,33.054268 46.53125,32.0618557 C46.5693125,31.0694433 45.7030625,26.9536598 45,26"/>
    <path stroke="#747474" d="M49,42 C49,42 49.2185385,35.0220399 49.4615385,33.0418656 C49.7045385,31.0616913 50.9668462,22.5412257 55,21"/>
    <path stroke="#747474" d="M46.9448004,39 C46.9448004,39 41.8363064,39.1786667 39.0000196,40.5555556 C38.9697436,40.5702222 74,51 74,51"/>
    <path stroke="#747474" d="M71.2506604,45 C71.2506604,45 76.8752992,46.39151 77.4773563,46.905888 C78.0794133,47.420266 78.4109312,47.7595141 77.047929,48.3882454 C75.6849267,49.0169766 73.1830832,50.2941334 73.1830832,50.2941334 C73.1830832,50.2941334 70.7389977,56.5009754 68.8888102,59.1882775 C67.0386227,61.8755796 64.1805693,65.6308143 60.7296915,67.6588909 C57.2788136,69.6869675 53.6443557,68.8483768 53,68.7177175"/>
    <path stroke="#747474" d="M80,49 L75.485,51.0986837 C75.485,51.0986837 73.724795,55.0475669 72.69,56.974998 C71.655205,58.902429 69.70623,62.642913 65.595,66.6289429 C61.48377,70.6149728 54.450475,70.9224299 52.48,68.3078898 C50.509525,65.6933497 48.505295,63.1982247 48.18,61.592102 C48.088625,61.1413048 37,56.974998 37,56.974998"/>
    <path stroke="#747474" d="M49 61.7544124C49 61.7544124 44.6520727 63.3843203 40.9272727 63.8290464 37.2024727 64.2737725 33.7248727 63.7436092 31.7636364 63.4518402 29.8024 63.1600712 25 61 25 61M63.2142857 68L68.3571429 69.9511432 64.9285714 71.9022865 59.3571429 69.7480075 59.3571429 74.2870171 57.8571429 75.5877793 57 79.9236531C57 79.9236531 61.5372857 81.7345308 62.1428571 81.8747964 62.7484286 82.0150619 63.33 82.066442 63.8571429 81.8747964 64.3842857 81.6831507 68.5714286 79.0564784 68.5714286 79.0564784L69 74.2870171C69 74.2870171 65.0770714 76.6537539 64.0714286 77.3221288 63.0657857 77.9905038 62.4381429 77.6156675 61.7142857 77.3221288 60.9904286 77.0285901 57.8571429 75.5877793 57.8571429 75.5877793"/>
    <polyline stroke="#747474" points="59 74.391 64 77 64 72"/>
    <path stroke="#747474" d="M69,74 L69,70"/>
    <polyline stroke="#747474" points="10 44 10 45.489 7.826 48.468 7.826 52.298 6.304 52.298 5 54"/>
    <path stroke="#747474" d="M13 46C13 46 12.5623936 49.25845 11.035878 50.05 10.9551525 50.09185 11.035878 55 11.035878 55M8 49L11 50M17 47C17 47 16.0517234 49.8672432 15.0391302 50.4594595 14.9510872 50.5109189 15.0391302 55 15.0391302 55M15 51L18 52M6 52L6 49C6 49 3.50384273 49.5254 2.48648492 50.2 1.4691271 50.8746 2.34008845 51.105 2.48648492 51.2M6 53.1792272C5.48395833 52.7175607 3.10770833 51.255225 2.45833333 52.474034 1.80895833 53.6928429 1.15291667 54.9640712 1 56"/>
    <path stroke="#747474" d="M8.32713822 62C8.32713822 62 4.44585713 60.299103 4.07306607 59.8949294 3.70027502 59.4907559 2.56622894 58.136143 3.17747194 56.1058024 3.78871494 54.0754618 4.05313911 53.9897854 4.29696461 54.0007318 4.54079011 54.0116782 7.65544262 55.2637741 7.65544262 55.2637741 7.65544262 55.2637741 9.04585252 57.7454419 8.99883382 58.8423941 8.95181513 59.9393464 8.32713822 61.5789859 8.32713822 61.5789859 8.32713822 61.5789859 6.50527585 60.0359691 6.31205142 58.42138 6.11882698 56.8067909 6.98441871 55.8875066 7.43154409 55.4742812M14.6592194 58.2977737C14.6592194 58.2977737 11.2239884 56.9685708 11.1108852 57.0005686 10.997782 57.0325663 10.0435019 57.6007421 10.0020308 59.3787779 9.96055961 61.1568137 10.559341 63.1363487 11.3326561 63.4865941 12.1059712 63.8368394 15.324532 65 15.324532 65 15.324532 65 16.0967383 62.4589914 15.9898447 61.1083847 15.8829511 59.757778 14.4374485 58.2977737 14.4374485 58.2977737 14.4374485 58.2977737 13.1653707 60.4701598 13.3285941 61.5407864 13.6011505 63.3289836 15.4094703 64.7048858 15.4094703 64.7048858M19 57C19 57 15.3570053 57.981 16.0999368 60"/>
    <path stroke="#747474" d="M18.8364888 57C20.1535814 57.1768713 23.8027936 58.8477822 23.8014034 62.2277228 23.8000132 65.6076634 24 79 24 79 24 79 23.1738382 78.304495 22.6098239 78.3465347 22.0458096 78.3885743 20.967033 78.8845545 20.2266649 78.7821782 19.4862968 78.679802 18.4426718 77.7022178 18.4392956 76.1683168 18.4359195 74.6344158 18 62.4455446 18 62.4455446 18 62.4455446 18.5616311 59.4936238 20.6238581 59.1782178 22.686085 58.8628119 23.2389779 60.274297 23.5344896 60.7029703M19 76L16 75M14.7931034 65L15 73.9736973C14.6118621 74.1592897 11.736 73.3361569 11.4827586 72.342116 11.4432414 72.1869118 9.7262069 72.2395303 9 71.5263253M7.39915021 62.98L8 72 5.84193952 72C5.84193952 72 4.21634591 70.27498 4.19995001 69.36 4.18355411 68.44502 4 61 4 61M2 69C2.53653966 69.3944 5.62856548 70.9528 6 71"/>
    <polygon fill="#000" points="7 82 17.06 87.49 17.06 85.294 25 95.176 17.06 96 17.06 93.255 7 86.667"/>
    <text fill="#4A4A4A" font-family="AvenirNext-Regular, Avenir Next" font-size="16">
      <tspan x="88.256" y="64">or/and</tspan>
    </text>
    <g transform="translate(146 22)">
      <g>
        <path stroke="#747474" d="M85.3497448,58.5048586 C94.2653949,58.2206703 108.058975,56.5493399 116.302807,50.9290933 C124.035622,45.6571376 126.601612,39.9323842 126.620495,36.9430649 C126.639378,33.9537456 122.142035,23.2456927 111.435974,17.9065264 C99.5095056,11.9585794 80.1872022,6.57590096 66.2717565,7.22275476 C66.2717565,7.22275476 56.0920924,7.64524937 46.9990949,10.3307611 C37.9060974,13.0162727 33.9310623,14.8740835 25.5850264,21.4030335 C17.2389906,27.9319834 16.6948786,36.8323422 18.7714592,39.8568208 C20.8480398,42.8812995 23.0879514,46.6452893 29.6731668,49.3750901 C36.2583822,52.1048909 47.799397,55.2288257 49.5298484,55.5911027 C49.5668364,55.5988727 48.2666131,58.6932815 48.167135,59.4761106 C48.0676569,60.2589396 46.9990949,63.9438696 46.9990949,63.9438696 C46.9990949,63.9438696 41.1209331,62.636953 36.0973873,61.8071153 C29.7329315,60.7558321 17.5864825,53.9830979 14.4886455,50.5405925 C13.6100847,49.56429 9.27431983,43.4562806 9.03779171,38.3028177 C8.80126359,33.1493548 9.61752895,29.3599181 13.1259321,23.5397878 C16.6343352,17.7196575 25.8131836,11.9313843 28.5051267,10.3307611 C31.1970698,8.73013782 43.0842138,4.05938711 49.9191951,2.75499572 C56.7541765,1.45060433 67.4113743,0.589103834 75.2267306,1.20099257 C84.1571759,1.90009974 99.3187257,4.61572024 109.683914,9.55375948 C120.049101,14.4917987 124.551312,18.1732322 128.761902,22.7627862 C132.972492,27.3523403 134.845055,33.5100777 134.991449,36.9430649 C135.137843,40.3760521 133.447105,48.9339475 126.620495,55.5911027 C119.793885,62.2482579 109.006256,65.9190076 105.4011,66.8576255 C101.795944,67.7962434 88.6264866,70.3230525 84.376378,69.9656318 C84.2868283,69.958056 84.773901,65.6060702 84.7657247,64.5266208 C84.7575485,63.4471713 84.376378,59.8646113 84.376378,59.8646113 L84.9603981,59.4761106 C84.9603981,59.4761106 85.0797329,58.5134056 85.3497448,58.5048586 Z"/>
        <path stroke="#747474" d="M85,59.1152902 C85,59.1152902 84.5376519,55.1518437 84.4198895,54.9758175 C84.3021271,54.7997914 83.4367956,53.7570385 81.9060773,53.793111 C80.3753591,53.8291836 66.4093923,53.6817395 65.6629834,53.793111 C64.9165746,53.9044826 61.7833978,52.9922216 59.6685083,53.0046401 C57.5536188,53.0170585 57.3124862,53.1540553 56.5745856,53.2017578 C55.8366851,53.2494603 54.3699724,53.068112 53.6740331,53.0046401 C52.9780939,52.9411681 52.3252762,53.5388291 52.1270718,54.1873465 C51.9288674,54.8358639 51.5469613,57.5383482 51.5469613,57.5383482 C51.5469613,57.5383482 51.4808287,59.2800806 51.5469613,60.4951144 C51.6130939,61.7101482 51.5469613,63.0576451 51.5469613,63.0576451 C51.5469613,63.0576451 58.8932873,62.2179235 60.8287293,62.2691741 C62.7641713,62.3204247 65.6629834,62.2691741 65.6629834,62.2691741 L65.2762431,67 L50,64.2403516"/>
        <path stroke="#747474" d="M84 60.3777355L83.0204726 60.7925785 83.0204726 58.5109422C83.0204726 58.5109422 83.166814 58.0363618 81.4532289 58.0960992 79.7396437 58.1558366 76.3596866 58.0960992 76.3596866 58.0960992 76.3596866 58.0960992 75.9659166 58.7378613 75.9678756 59.1332066 75.9698347 59.528552 75.9678756 60.1703141 75.9678756 60.1703141 75.9678756 60.1703141 75.3803551 60.6475909 75.3801592 59.7554711 75.3799633 58.8633513 75.1842537 58.3035207 75.1842537 58.3035207L71.8538607 58.3035207C71.8538607 58.3035207 69.5588281 58.3620135 69.1111841 58.3035207 68.8945126 58.2753114 68.6913586 57.9409479 68.7193731 57.6812562 68.7440572 57.4535074 68.5234676 57.2664133 68.5234676 57.2664133L64.6053582 57.2664133C64.6053582 57.2664133 63.1172602 57.6565731 59.9036268 57.4738347 56.6899935 57.2910964 55.397801 56.4367273 55.397801 56.4367273 55.397801 56.4367273 54.1880847 55.8847787 53.2428408 56.0218843 52.2975968 56.1589899 52.0793582 56.3226455 52.0674079 57.0589918 52.0554577 57.795338 51.6771642 58.908984 52.8510298 59.3406281 54.0248954 59.7722722 58.5322885 59.7554711 58.5322885 59.7554711L65.3889801 60.1703141 73.0292935 60.7925785 80.277796 61M51 56.0741564C51 56.0741564 49.5031111 55.610926 49 57M46.6078972 64.202896C46.6078972 64.202896 46.1247804 68.0218786 46.0258288 68.536226 45.9268771 69.0505734 46.1104227 69.5278049 46.6078972 69.6666599 47.1053717 69.8055148 49.9062851 70.2318768 49.9062851 70.2318768L62.711791 72.304339 64.6520191 73.0579616 64.6520191 73.6231785C64.6520191 73.6231785 69.6616883 73.6190336 71.4428177 73.6231785 73.2239472 73.6273234 77.7281868 74.0022507 78.2336163 73.9999898 78.7390457 73.9977289 79.1362104 74.0233521 79.2037304 73.6231785 79.2712503 73.2230049 79.9344203 67.7501976 79.9798216 66.8405751 80.025223 65.9309527 79.9798216 61 79.9798216 61"/>
        <path stroke="#747474" d="M52.0232869,70.7130533 C52.0232869,70.7130533 51.9708913,72.3507585 52.0232869,72.6739499 C52.0756825,72.9971413 52.1371317,73.5583142 53.1790717,73.7435298 C54.2210117,73.9287454 55.875903,73.9217931 55.875903,73.9217931 C55.875903,73.9217931 57.3537665,74.3979345 58.3801034,74.4565831 C59.4064403,74.5152318 62.0129277,74.4697746 62.8106118,74.2783198 C63.608296,74.086865 64.9295506,73.9217931 64.9295506,73.9217931 C64.9295506,73.9217931 68.6371157,74.1408788 69.9379515,74.2783198 C71.2387873,74.4157608 78.9759961,74.9380724 79.7621224,74.9913731 C80.5482487,75.0446738 81.6344938,74.849119 82.2663228,74.4565831 C82.8981518,74.0640473 82.9266612,73.5800624 83.036846,73.2087398 C83.1470308,72.8374173 83.036846,71.6043699 83.036846,71.6043699 C83.036846,71.6043699 83.4101645,71.4599766 83.6147384,71.0695799 C83.8193123,70.6791833 84,70 84,70"/>
        <path stroke="#747474" d="M80.877771 58C81.3620812 59.7935239 81.4990135 64.5777209 81.3166565 66.599635 81.1342996 68.6215492 80 73.599338 80 73.599338 80 73.599338 80.806891 74.0191202 81.3166565 73.999321 81.8264221 73.9795219 82.6333131 73.999321 82.6333131 73.999321 82.6333131 73.999321 83.7669544 68.2949631 83.9499696 66.599635 84.136496 64.8713084 83.7592739 60.3742992 83.5110841 60.3998982M50 56C50 56 49.3083944 62.8372973 49.285974 63.3783784 49.2635536 63.9194595 48.9886535 66.2025946 49.0003636 66.7837838 49.0120736 67.364973 49.0003636 70 49.0003636 70M53.2125305 71C53.2125305 71 52.9240274 72.6644685 53.0192933 72.883464 53.1145593 73.1024595 53.0438344 73.3870338 53.5990049 73.397136 54.1541754 73.4072382 56.0681899 73.5502102 56.3043258 73.56836 56.5404617 73.5865097 57.2028788 73.8311888 58.0434606 73.910808 58.8840425 73.9904271 60.8432745 74.0635398 61.9082047 73.910808 62.973135 73.7580762 65 73.397136 65 73.397136M46 69C46 69 39.4204039 68.2082416 33.5216573 66.4697987 27.6229108 64.7313557 21.2963911 61.4185436 18.3136772 59.6577181 15.3309634 57.8968926 8.34406635 52.2958054 4.86046403 47.2013423 1.37686172 42.1068792.702446291 39.2689664.181085536 35.1342282-.340275218 30.9994899.0830135619 22.8199329 3.88559351 17.4228188 5.26951971 15.4587987 9.53984253 11 9.53984253 11L14.9991174 11C14.9991174 11 7.19332919 18.4294497 4.86046403 23.4563758 2.52759888 28.483302 3.88403372 33.9596309 4.86046403 37.4697987 6.6587102 43.9346577 14.0242469 50.8993289 14.0242469 50.8993289"/>
        <path fill="#404040" d="M72,67.0769918 C72,67.0769918 75.3303,62.0331272 75.3,62.0001276 C75.2697,61.967128 78,68.3462078 78,68.3462078 L75.9,67.9231358 L75.6,73 L73.5,72.576928 L73.8,67.5000638 L72,67.0769918"/>
      </g>
    </g>
  </g>
</svg>
