<svg width="66" height="82" viewBox="0 0 66 82" xmlns="http://www.w3.org/2000/svg"><title>Group 53</title><g fill="none" fill-rule="evenodd"><g stroke="#747474"><g><g><path d="M41.788 70.406c11.306-1.994 18.985-16.845 16.08-33.32-2.905-16.477-14.995-28.486-26.3-26.492C20.26 12.587 13.15 27.854 16.054 44.33 18.96 60.804 30.48 72.4 41.788 70.405z"/><path d="M37.826 68.35c10.16-1.79 16.445-15.085 13.81-30.03C49 23.378 38.716 12.468 28.556 14.26c-3.974.7-7.202 3.362-9.704 7.093" stroke-linecap="round"/><path d="M37.853 68.327c4.916-.867 9.38-4.332 12.356-9.457 3.416-5.885 5.017-13.814 3.567-22.04-2.713-15.388-12.73-26.058-23.29-24.196-2.245.396-4.407 1.322-6.344 2.7-2.066 1.47-3.854 3.473-5.23 5.872" stroke-linecap="round"/><path d="M25.418 63.75c3.928 3.3 8.82 4.945 13.626 4.525 12.095-1.06 20.153-15.293 18.695-31.96" stroke-linecap="round"/><path d="M25.87 5.393s2.776-1.777 7.682-1.374c4.905.403 7.63 1.89 7.63 1.89l.777-4.09 10.5 8.522-.695 3.898s1.45 1.933 2.1 2.91c.648.977 4.55 7.916 5.016 9.927.467 2.01 1.81 6.295 1.81 6.295l2.892.23 1.07 16.087-2.81-.134s-.3 4.92-1.63 8.64c-1.33 3.72-3.974 9.068-4.635 9.652l1.304 4.697-9.268 7.618-1.537-4.422s-1.892.647-3.547 1.086c-1.655.44-7.652 1.055-8.795 1.055-1.143 0-3.812-.523-3.812-.523l-1.274 2.258-5.7.798-9.402-8.643 4.55-.698 2.135-4.422s-2.1-2.663-3.284-4.405c-1.183-1.743-3.773-7.596-4.356-9.735-.584-2.14-1.327-4.72-1.327-4.72l-4.295-.137-5.753.885.003-16.295 4.883-.828 4.002.146s.922-6.568 2.182-10.167c1.26-3.598 4.104-8.395 4.104-8.395l-2.604-4.155 9.28-7.67 2.807 4.22z"/><path d="M36.105 4.29l.132-1.79 5.696-.777M61.87 50.45l2.986-.683M47.38 80.286l-4.553.65-1.82-3.927s-2.383.4-5.185-.23c-2.802-.627-4.973-1.53-4.973-1.53l-2.136 4.217-10.688-8.384-4.628.35 1.624-4.01 5.02-.663M14.976 67.428s-4.035-5.475-5.642-8.965c-1.607-3.49-3.273-9.88-3.273-9.88"/><path d="M11.11 47.947l-5.02.787H1.087M7.077 47.482l-1.083-16.06-1.11.18s.66-6.218 2.33-10.002c1.67-3.783 4.1-7.824 4.1-7.824L8.024 9.64 18.54 1.73l4.51-.658M11.437 13.845l4.975-.775M8.07 9.447l5.627-.656"/></g></g></g></g></svg>