<svg width="16" height="16" viewBox="0 0 16 16" xmlns="http://www.w3.org/2000/svg"><title>Group</title><g fill="none" fill-rule="evenodd"><g stroke="#4A4A4A"><g><g><circle cx="8.096" cy="7.959" r="2.767"/><path d="M13.47 9.255l2.023-.264c.095-.686.1-1.35 0-2.064l-2.023-.264c-.137-.568-.36-1.1-.656-1.584l1.244-1.62c-.417-.55-.908-1.042-1.46-1.46L10.98 3.244c-.484-.297-1.017-.52-1.585-.658L9.13.562c-.703-.098-1.366-.097-2.063 0l-.265 2.022c-.57.136-1.102.36-1.587.657l-1.62-1.243c-.528.4-1.032.895-1.458 1.458l1.244 1.62c-.297.484-.52 1.018-.658 1.587L.7 6.927C.607 7.584.6 8.284.7 8.99l2.022.265c.137.57.36 1.103.66 1.588l-1.245 1.62c.404.533.9 1.035 1.46 1.457l1.618-1.244c.485.297 1.018.52 1.587.657l.265 2.023c.697.096 1.36.097 2.063 0l.265-2.024c.568-.137 1.1-.36 1.585-.658l1.62 1.244c.55-.417 1.04-.91 1.458-1.46l-1.245-1.62c.297-.483.52-1.015.657-1.583z"/></g></g></g></g></svg>