<svg width="16" height="17" viewBox="0 0 16 17" xmlns="http://www.w3.org/2000/svg"><title>0055_settings_tools_configuration_preferences</title><g fill="none" fill-rule="evenodd"><g stroke="#4A4A4A"><g><g><g><path d="M15.398 3.983c-.032-.162-.232-.222-.35-.106l-1.805 1.806-1.747.36L10.02 4.57l.363-1.747 1.806-1.806c.115-.117.055-.317-.107-.35-1.34-.264-2.772.12-3.806 1.156-1.21 1.21-.91 3.386-.745 4.197l-6.33 5.514c-.918.918-.918 2.412 0 3.33.907.906 2.393.937 3.34-.01l5.504-6.32c1.406.29 3.183.27 4.197-.745.998-.998 1.43-2.42 1.155-3.807z"/><path d="M3.283 13.46c-.188.188-.49.188-.678 0-.186-.187-.186-.49 0-.677.187-.187.49-.187.678 0 .187.187.187.49 0 .678z"/></g></g></g></g></g></svg>