<svg width="130" height="226" viewBox="0 0 130 226" xmlns="http://www.w3.org/2000/svg"><title>Group 2</title><g fill="none" fill-rule="evenodd"><g><g><g stroke="#747474" transform="translate(-142.000000, -584.000000) translate(143.000000, 585.000000)"><path d="M36.096 163.935l-2.987 2.612M39.083 164.495l-5.974 4.103M39.083 167.637l-3.824-.516M39.083 168H33.45M43.35 164.495l-2.73 2.052M46.08 165.24l-5.065 3.358M46.08 167h-3.26M46.08 168h-5.065M33.603 174.412s-.596-2.914 1.664-2.907c2.26.008 2.87 1.05 2.816 2.394-.055 1.342-.49 2.246-1.912 2.222-1.42-.023-2.64-.35-2.567-1.71zM43.45 171.505c-1.743-.143-2.305.905-2.466 2.394-.16 1.49.688 2.298 2.466 2.222 1.778-.074 2.865-1.4 2.654-2.223-.21-.823-.593-2.226-2.654-2.395zM38.086 173.81l2.88.164M38.086 175h2.898"/><path d="M34.26 175.096s-.04-2.382 1.91-2.052c1.446.245 1.097 1.38 1.06 2.052M41.777 175.096s.273-2.34 1.673-2.083c1.4.257 2.018 1.405 1.63 2.083M35.776 176.293s4.328-.25 3.75 2.565c-.58 2.814-2.595 3.568-3.75 3.42-1.155-.148-3.442-1.612-3.325-3.42.117-1.808 1.21-2.694 3.326-2.565zM43.547 176.122s2.947-.217 2.898 3.166c-.048 3.383-1.73 2.845-2.96 3.007-1.23.163-3.36-.962-3.47-3.697-.112-2.736 2.4-2.41 3.532-2.305M76.8 9.576l2.39-1.026 6.485.342M96.597 8.55h1.366l2.05 1.026"/><path d="M30.037 174.412l-.34 9.576h18.09l.682-19.493-18.433-.684v10.602h4.438"/><path d="M33.382 163.935l-.273 6.373h5.973v-5.813M40.62 164.495l.395 5.813h5.065v-5.813M60.33 163.935l-2.986 2.612M63.317 164.495l-5.973 4.103M63.317 167.637l-3.823-.516M63.317 168h-5.632M67.584 164.495l-2.73 2.052M70.315 165.24L65.25 168.6M70.315 167h-3.26M70.315 168H65.25M57.837 174.412s-.595-2.914 1.664-2.907c2.26.008 2.872 1.05 2.817 2.394-.055 1.342-.49 2.246-1.91 2.222-1.423-.023-2.64-.35-2.57-1.71zM67.685 171.505c-1.743-.143-2.305.905-2.466 2.394-.163 1.49.687 2.298 2.465 2.222 1.778-.074 2.864-1.4 2.654-2.223-.212-.823-.595-2.226-2.655-2.395zM62.32 173.81l2.88.164M62.32 175h2.9"/><path d="M58.494 175.096s-.04-2.382 1.912-2.052c1.445.245 1.096 1.38 1.058 2.052M66.012 175.096s.273-2.34 1.673-2.083c1.4.257 2.018 1.405 1.63 2.083M60.01 176.293s4.33-.25 3.75 2.565c-.58 2.814-2.594 3.568-3.75 3.42-1.154-.148-3.44-1.612-3.325-3.42.117-1.808 1.21-2.694 3.326-2.565zM67.782 176.122s2.947-.217 2.898 3.166c-.05 3.383-1.73 2.845-2.96 3.007-1.23.163-3.36-.962-3.47-3.697-.112-2.736 2.4-2.41 3.532-2.305"/><path d="M54.272 174.412l-.34 9.576h18.09l.27-19.526-18.02-.65v10.6h4.437"/><path d="M57.617 163.935l-.273 6.373h5.973v-5.813M64.853 164.495l.396 5.813h5.065v-5.813M84.907 163.935l-2.987 2.612M87.893 164.495l-5.973 4.103M87.893 167.637l-3.823-.516M87.893 168H82.26M92.16 164.495l-2.73 2.052M94.89 165.24l-5.065 3.358M94.89 167h-3.26M94.89 168h-5.065M82.413 174.412s-.595-2.914 1.664-2.907c2.26.008 2.87 1.05 2.816 2.394-.055 1.342-.49 2.246-1.91 2.222-1.423-.023-2.64-.35-2.57-1.71zM92.26 171.505c-1.742-.143-2.304.905-2.465 2.394-.162 1.49.688 2.298 2.466 2.222 1.78-.074 2.865-1.4 2.655-2.223-.21-.823-.594-2.226-2.654-2.395zM86.897 173.81l2.878.164M86.897 175h2.898"/><path d="M83.07 175.096s-.04-2.382 1.912-2.052c1.445.245 1.096 1.38 1.058 2.052M90.588 175.096s.273-2.34 1.673-2.083c1.4.257 2.02 1.405 1.63 2.083M84.587 176.293s4.328-.25 3.75 2.565c-.58 2.814-2.595 3.568-3.75 3.42-1.155-.148-3.442-1.612-3.326-3.42.118-1.808 1.212-2.694 3.327-2.565zM92.358 176.122s2.947-.217 2.898 3.166c-.05 3.383-1.73 2.845-2.96 3.007-1.23.163-3.36-.962-3.47-3.697-.112-2.736 2.4-2.41 3.532-2.305"/><path d="M78.848 174.412l-.34 9.576h18.09l.682-19.493-18.432-.684v10.602h4.437"/><path d="M82.193 163.935l-.273 6.373h5.973v-5.813M89.43 164.495l.395 5.813h5.066v-5.813M79.53 3.42l-.682 10.943M86.357 120.38c-1.56.496-3.87 2.697-3.87 7.49 0 4.79 5.17 7.214 8.65 7.214 3.478 0 8.19-2.993 8.19-7.215 0-4.224-3.412-7.833-3.412-7.833"/><path d="M86.016 110.46v19.494c0 1.12 3.043 3.078 4.892 3.078 1.85 0 5.007-1.457 5.007-2.736V51.64s-2.133 1.026-5.007 1.026c-2.873 0-5.233-1.71-5.233-1.71l.34 59.505z"/><path d="M83.968 40.012v8.892s1.648 3.762 6.94 3.762c5.292 0 7.055-2.853 7.055-4.104v-9.234s-1.138 5.13-7.055 5.13-6.94-4.446-6.94-4.446z"/><path d="M81.58 16.415v20.52s1.096 1.777 2.388 2.393c1.292.617 6.997.684 6.997.684s6.37.005 6.998-.684c.627-.69 2.128-2.377 2.048-2.394-.08-.016 0-33.514 0-33.514S99.925.59 91.82.342c-8.107-.25-9.106 2.598-9.332 2.736-.225.138-3.64 0-3.64 0s-1.707.426-1.707 1.71c0 1.283-.34 2.394-.34 2.394l-.34 6.497-2.732 3.077V27.7l1.707 1.027v11.627s2.048.74 2.048 0 .682-11.97.682-11.97l.683-10.6s2.25-1.763 2.73-1.37z"/><path d="M85.675 16.073V2.053h10.922v14.02"/><path d="M97.963 2.736v12.31s-.538 1.725-2.048 1.71c-1.51-.012-10.24 0-10.24 0s-2.717-.95-2.73-2.05c-.015-1.1-5.462 0-5.462 0l-.683 9.233-3.072 3.42"/><path d="M87.723 16.755V13.68l3.072-1.71 2.73.683v4.104M85 16.757v22.57M94 16.757v23.255M73.728 21.545l3.072-3.42M76 14.02v10.26M28.33 204.85l3.298 5.47h.908l3.304-4.445-1.365-.342-2.39 3.078-2.39-3.76zM37.888 206.217v4.788l1.365.342 4.096.342v-.685l-4.097-.342v-1.026l3.755-.342v-.684l-4.096-.34.34-1.37 4.097.343v-.684zM46.08 211.69h1.365v-1.71h2.048l1.366 2.05h1.364l-1.365-2.05s1.353-.247 1.364-1.37c.01-1.122-1.083-1.635-2.048-1.71-.965-.074-4.096 0-4.096 0v4.79z"/><path d="M47.445 207.585v1.71s2.293.154 2.73.154c.44 0 .986-1.865-.34-1.865h-2.39zM54.613 207.243v5.13h4.78c.915 0 2.715-1.373 2.73-2.736.015-1.364-1.65-2.375-2.73-2.394-1.082-.02-4.78 0-4.78 0z"/><path d="M55.98 207.927v3.762h3.412c.67 0 1.855-3.763 0-3.763H55.98zM64 207.585l.174 4.788h1.703v-4.788zM72.02 207.234c-.932 0-4.265.313-4.265 2.215s1.934 2.923 4.266 2.923c2.334 0 3.073-1.026 3.073-1.026l.342-1.368h-1.707v1.367H70.12s-.488-.21-.488-1.544c0-1.332 1.413-1.527 2.39-1.534.976-.008 2.39 0 2.39 0v-.685s-1.457-.35-2.39-.35zM77.483 207.234v4.797l.682.343 1.024-.342v-1.71h1.365l1.706 1.71h2.05l-1.707-1.71s1.365-.596 1.365-1.367c0-.77-.287-1.72-3.413-1.72h-3.072z"/><path d="M78.848 207.927v1.522h3.072c.44 0 1.02-1.523 0-1.523h-3.072M86.357 207.234h1.365v4.797h-1.365zM93.867 205.875c-.694 0-3.755.253-3.755 1.71 0 1.457 1.47 1.368 2.73 1.368s2.45 1.368 0 1.368-4.37 1.37 0 1.37c2.018 0 3.073-1.13 3.073-2.058 0-.927-1.17-1.363-3.072-1.363-1.902 0-1.08-1.402 1.024-1.402s2.37-.993 0-.993zM25.6 133.374l.34-11.627h6.145s-.165-3.138 2.39-3.078c2.555.06 12.61-.302 13.994 0 1.382.3 2.42 1.543 2.39 3.42-.033 1.874-.684 11.968-.684 11.968s-.074 3.614-1.707 3.078"/><path d="M38.23 137.136c.482-3.71 0-9.267 0-9.267s5.215-2.798 5.46 0c.246 2.795 0 9.266 0 9.266M35 115.364v21.772M47.445 115.364l-.34 3.183.682 18.59M30.72 118.547l1.365 3.2.45 15.39"/><ellipse cx="64" cy="146.567" rx="11.093" ry="7.668"/><path d="M58.762 153.327c1.928-1.745 8.657-2.364 11.36-.365M1.024 164.495s-.37 14.047 1.024 24.965c1.394 10.917 2.987 17.208 10.923 23.938s11.993 7.952 25.26 9.234c13.266 1.283 46.74 1.574 55.978-.342 9.238-1.915 15.942-3.138 20.48-8.208s9.7-13.692 11.264-22.364 1.864-37.483 1.864-37.483M30.72 119.01h-6.827l-.34 14.364 7.167.342s-.54 2.78 6.144 3.078c6.684.296 11.264.342 11.264.342s4.183-1.105 4.437-3.762c.254-2.656.342-14.02.342-14.02s-.838-3.246-4.78-3.763c-3.94-.516-11.74.015-13.652 0-1.913-.014-3.5 2.487-3.755 3.42z"/><path d="M85.675 102.253c-.31.494-26.1-1.615-42.684-.557-19.67 1.255-30.32 6.763-33.474 14.94-1.815 4.706-4.02 8.317-5.08 28.024-1.27 23.664 2.18 37.38 17.41 42.406 15.23 5.025 63.412 5.86 74.41 3.078 10.998-2.783 22.55-4.672 26.283-24.965 3.73-20.294.656-45.75-5.804-53.01-6.46-7.258-20.48-8.89-20.48-8.89"/><path d="M86.46 100.94c-.33.526-27.198-1.718-44.915-.592-21.014 1.335-32.016 9.757-34.737 15.9-2.176 4.91-5.32 8.854-6.45 29.828C-1 171.264 4.78 185.744 18.955 191.212c15.98 6.164 67.743 5.554 79.492 2.592 11.75-2.962 23.408-4.288 27.395-25.888 3.986-21.6 1.94-48.002-6.2-55.393-7.667-6.963-23.584-10.148-23.584-10.148"/><g stroke-width=".6"><path d="M34.078 160.748l.86.273c-.13.482-.35.84-.657 1.073-.306.233-.696.35-1.168.35-.584 0-1.064-.2-1.44-.6-.376-.4-.564-.946-.564-1.64 0-.733.19-1.303.567-1.708.378-.406.875-.61 1.49-.61.54 0 .976.16 1.312.48.2.187.35.458.45.81l-.88.21c-.05-.227-.16-.408-.324-.54-.165-.132-.366-.2-.602-.2-.325 0-.59.12-.792.353-.203.235-.305.614-.305 1.14 0 .557.1.953.3 1.19.2.236.46.354.78.354.236 0 .44-.075.61-.225.17-.15.29-.387.365-.71zM36.69 162.368v-3.66h-1.304v-.747h3.495v.747h-1.3v3.66zM41.425 162.368h-.843v-3.183c-.308.288-.67.5-1.09.64v-.767c.22-.072.46-.208.718-.41.258-.2.435-.436.53-.705h.685v4.425z"/></g><g stroke-width=".6"><path d="M58.162 160.598l.86.274c-.13.48-.35.838-.657 1.07-.307.235-.697.35-1.17.35-.583 0-1.063-.2-1.44-.6-.375-.398-.563-.945-.563-1.638 0-.734.19-1.303.567-1.71.377-.405.874-.607 1.49-.607.538 0 .975.16 1.31.477.2.19.35.46.45.812l-.878.21c-.052-.228-.16-.408-.325-.54-.165-.133-.366-.2-.602-.2-.326 0-.59.118-.793.353-.203.233-.305.613-.305 1.138 0 .557.1.954.3 1.19.2.237.46.355.78.355.236 0 .44-.076.61-.226.17-.15.29-.386.365-.71zM60.776 162.218v-3.66H59.47v-.746h3.496v.745h-1.302v3.66zM66.2 161.434v.784h-2.956c.032-.296.128-.578.288-.843.16-.266.476-.618.948-1.057.38-.354.613-.595.7-.72.115-.175.173-.348.173-.518 0-.188-.05-.333-.15-.434-.102-.102-.242-.152-.42-.152-.176 0-.316.053-.42.16-.104.106-.164.282-.18.528l-.84-.084c.05-.465.207-.798.47-1 .265-.203.595-.304.99-.304.435 0 .776.117 1.024.35.248.236.372.527.372.876 0 .2-.036.387-.107.566-.07.18-.184.368-.338.564-.102.13-.286.318-.552.562-.266.245-.434.407-.505.487-.07.08-.13.158-.173.234H66.2z"/></g><g stroke-width=".6"><path d="M83.03 160.748l.862.273c-.132.482-.352.84-.66 1.073-.306.233-.695.35-1.167.35-.584 0-1.064-.2-1.44-.6-.376-.4-.564-.946-.564-1.64 0-.733.19-1.303.568-1.708.378-.406.875-.61 1.49-.61.54 0 .976.16 1.312.48.2.187.35.458.45.81l-.88.21c-.05-.227-.16-.408-.325-.54-.165-.132-.365-.2-.6-.2-.327 0-.592.12-.795.353-.203.235-.304.614-.304 1.14 0 .557.1.953.3 1.19.2.236.46.354.78.354.236 0 .44-.075.61-.225.17-.15.29-.387.365-.71zM85.644 162.368v-3.66H84.34v-.747h3.494v.747h-1.302v3.66h-.888zM88.19 161.198l.817-.1c.026.21.096.37.21.48.114.11.252.164.414.164.175 0 .32-.066.44-.198s.18-.31.18-.535c0-.213-.058-.382-.172-.506-.114-.124-.253-.186-.417-.186-.107 0-.236.02-.386.063l.093-.687c.228.006.402-.044.522-.15.12-.105.18-.244.18-.42 0-.147-.045-.265-.133-.353-.088-.088-.205-.133-.35-.133s-.268.05-.37.15c-.102.1-.164.247-.186.44l-.776-.133c.054-.266.135-.48.244-.638.11-.16.26-.285.456-.376.195-.09.414-.137.656-.137.414 0 .746.132.996.397.206.216.31.46.31.733 0 .387-.212.696-.634.926.252.053.453.174.604.363.15.188.227.416.227.682 0 .387-.14.717-.423.99-.282.272-.633.408-1.053.408-.398 0-.728-.115-.99-.344-.262-.23-.414-.53-.456-.902z"/></g><ellipse cx="45.532" cy="160.329" rx="1.304" ry="1.306"/><ellipse cx="69.766" cy="160.329" rx="1.304" ry="1.306"/><ellipse cx="94.342" cy="160.671" rx="1.304" ry="1.306"/></g><path fill-opacity=".8" fill="#4A4A4A" d="M41 165h8v20h-8zM65 165h8v20h-8zM90 165h8v20h-8z"/></g></g></g></svg>