<svg xmlns="http://www.w3.org/2000/svg" xmlns:xlink="http://www.w3.org/1999/xlink" width="365" height="942" viewBox="0 0 365 942"><defs><path id="a" d="M.502 48h15.445v8H.502"/><path id="b" d="M.458 96h15.445v8H.458"/><path id="c" d="M.41 0H16v8H.41z"/><path id="d" d="M1.903.063l-.166 3.26S.363 3.254.363 5.12c0 1.87-.23 6.14-.23 6.14s.787 1.753 1.336 1.753c.548 0 18.845.413 18.845.413L20.62.422 1.903.062z"/><path id="f" d="M91 39h41.606v8H91"/><path id="g" d="M91 87h41.55v8H91"/><path id="h" d="M49 135h83.488v8H49"/><path id="i" d="M1.903.063l-.166 3.26S.363 3.254.363 5.12c0 1.87-.23 6.14-.23 6.14s.787 1.753 1.336 1.753c.548 0 18.845.413 18.845.413L20.62.422 1.903.062z"/><path id="k" d="M0 22h17.43v8H0"/><path id="l" d="M0 70h17.474v8H0"/><path id="m" d="M0 118h17.457v8H0"/><path id="n" d="M275.683 39h44.12v8h-44.12"/><path id="o" d="M275.485 87h44.32v8h-44.32"/><path id="p" d="M1.903.063l-.166 3.26S.363 3.254.363 5.12c0 1.87-.23 6.14-.23 6.14s.787 1.753 1.336 1.753c.548 0 18.845.413 18.845.413L20.62.422 1.903.062z"/><path id="r" d="M.41 0H16v8H.41z"/><path id="s" d="M1.903.063l-.166 3.26S.363 3.254.363 5.12c0 1.87-.23 6.14-.23 6.14s.787 1.753 1.336 1.753c.548 0 18.845.413 18.845.413L20.62.422 1.903.062z"/><path id="t" d="M0 22h17.43v8H0"/><path id="u" d="M275 183h54v8h-54"/><path id="v" d="M1.903.063l-.166 3.26S.363 3.254.363 5.12c0 1.87-.23 6.14-.23 6.14s.787 1.753 1.336 1.753c.548 0 18.845.413 18.845.413L20.62.422 1.903.062z"/><path id="x" d="M88.485 183h44.12v8h-44.12"/><path id="y" d="M12.342 160.855c8.938-5.574 25.607-11.335 41.608-13.207l-.56-4.77c-16.7 1.953-34.046 7.948-43.593 13.9l2.545 4.077zM79.21 148.07c16.272 2.772 29.72 10.67 39.508 24.477 11.495 16.21 17.41 103.166 17.41 135.784h4.807c0-33.538-6.162-121.45-18.294-138.56-10.557-14.89-25.14-23.458-42.622-26.436l-.808 4.735z"/><path id="z" d="M275.542 135H354v8h-78.458"/></defs><g fill="none" fill-rule="evenodd" transform="translate(-25)"><g stroke="#747474" transform="rotate(90 -28.19 122.01)"><path stroke-width=".9" d="M19.393 35.14l-1.605 1.41m3.21-1.106l-3.21 2.215m3.21-.324h-3.026m5.318-1.892l-1.467 1.107m2.934-.704l-2.72 1.813m2.72-.864h-1.75m1.75.54h-2.72m-3.446 3.46s-.32-1.572.895-1.568c1.214.004 1.542.567 1.513 1.292-.03.725-.264 1.213-1.027 1.2-.763-.013-1.418-.188-1.38-.923zm5.29-1.568c-.935-.077-1.237.488-1.324 1.292-.086.804.37 1.24 1.325 1.2.957-.04 1.54-.756 1.427-1.2-.113-.443-.32-1.2-1.426-1.292zM21 41.114h1.556"/><path stroke-width=".9" d="M18.943 41.166s-.02-1.286 1.028-1.107c.777.13.59.744.57 1.106m2.442 0s.147-1.263.9-1.124c.752.14 1.084.758.875 1.124m-5 .646s2.327-.134 2.016 1.385c-.31 1.52-1.394 1.926-2.015 1.846-.62-.08-1.85-.87-1.786-1.846.063-.976.65-1.454 1.786-1.385zm4.177-.092s1.583-.117 1.557 1.71c-.026 1.825-.928 1.535-1.59 1.622-.66.088-1.804-.52-1.864-1.996-.06-1.476 1.29-1.3 1.898-1.244"/><path stroke-width=".9" d="M16.138 40.797l-.183 5.17h9.72l.366-10.523-9.902-.37v5.723h2.384"/><path stroke-width=".9" d="M17.935 35.14l-.147 3.442h3.21v-3.138M21.823 35.444l.213 3.138h2.72v-3.138M32.413 35.14l-1.604 1.41m3.208-1.106l-3.21 2.215m3.21-.324h-3.026m5.318-1.892l-1.467 1.107m2.934-.704l-2.72 1.813m2.72-.864h-1.75m1.75.54h-2.72m-3.446 3.46s-.32-1.572.895-1.568c1.214.004 1.543.567 1.513 1.292-.03.725-.263 1.213-1.027 1.2-.763-.013-1.417-.188-1.38-.923zm5.292-1.568c-.937-.077-1.238.488-1.325 1.292-.087.804.37 1.24 1.325 1.2.955-.04 1.54-.756 1.426-1.2-.114-.443-.32-1.2-1.426-1.292zm-2.882 1.886h1.557"/><path stroke-width=".9" d="M31.964 41.166s-.022-1.286 1.027-1.107c.778.13.59.744.57 1.106m2.443 0s.147-1.263.9-1.124c.75.14 1.083.758.874 1.124m-4.998.646s2.324-.134 2.013 1.385c-.31 1.52-1.394 1.926-2.014 1.846-.622-.08-1.85-.87-1.788-1.846.063-.976.65-1.454 1.787-1.385zm4.174-.092s1.583-.117 1.557 1.71c-.025 1.825-.928 1.535-1.59 1.622-.66.088-1.804-.52-1.864-1.996-.06-1.476 1.29-1.3 1.898-1.244M30.955 35.14l-.146 3.442h3.208v-3.138M34.843 35.444l.213 3.138h2.72v-3.138M45.617 35.14l-1.604 1.41m3.21-1.106l-3.21 2.215m3.21-.324h-3.027m5.318-1.892l-1.467 1.107m2.934-.704l-2.72 1.813m2.72-.864h-1.75m1.75.54h-2.72m-3.445 3.46s-.32-1.572.894-1.568c1.213.004 1.54.567 1.512 1.292-.03.725-.263 1.213-1.027 1.2-.764-.013-1.42-.188-1.38-.923zm5.29-1.568c-.936-.077-1.238.488-1.324 1.292-.086.804.37 1.24 1.326 1.2.955-.04 1.538-.756 1.425-1.2-.112-.443-.317-1.2-1.424-1.292zm-2.88 1.886h1.556"/><path stroke-width=".9" d="M45.167 41.166s-.02-1.286 1.028-1.107c.776.13.588.744.568 1.106m2.444 0s.146-1.263.9-1.124c.75.14 1.083.758.874 1.124m-4.998.646s2.326-.134 2.015 1.385c-.31 1.52-1.394 1.926-2.015 1.846-.62-.08-1.85-.87-1.786-1.846.063-.976.65-1.454 1.786-1.385zm4.176-.092s1.583-.117 1.557 1.71c-.026 1.825-.93 1.535-1.59 1.622-.662.088-1.805-.52-1.865-1.996-.06-1.476 1.29-1.3 1.898-1.244"/><path stroke-width=".9" d="M42.362 40.797l-.183 5.17h9.718l.367-10.523-9.903-.37v5.723h2.384"/><path stroke-width=".9" d="M44.16 35.14l-.147 3.442h3.21v-3.138M48.047 35.444l.213 3.138h2.72v-3.138M46.397 11.63c-.84.268-2.08 1.456-2.08 4.043 0 2.586 2.778 3.895 4.647 3.895 1.87 0 4.4-1.616 4.4-3.895 0-2.28-1.833-4.228-1.833-4.228M15.22 57.227l1.773 2.954h.487l1.775-2.4-.733-.184-1.284 1.662-1.283-2.03zM20.356 57.965v2.585l.733.184 2.2.185v-.37l-2.2-.185v-.554l2.017-.183v-.37l-2.2-.184.182-.738 2.2.184v-.37zM24.757 60.92h.734v-.924h1.1l.735 1.108h.733l-.733-1.108s.727-.133.733-.738c.006-.606-.582-.883-1.1-.923-.52-.04-2.2 0-2.2 0v2.584z"/><path stroke-width=".9" d="M25.49 58.704v.923s1.232.083 1.468.083c.235 0 .53-1.006-.184-1.006H25.49zm3.852-.185v2.768h2.567c.49 0 1.458-.74 1.466-1.477.008-.735-.886-1.28-1.467-1.29-.582-.01-2.568 0-2.568 0z"/><path stroke-width=".9" d="M30.075 58.888v2.03h1.834c.36 0 .996-2.03 0-2.03h-1.835zM34.385 58.704l.093 2.584h.915v-2.584zM38.694 58.514c-.5 0-2.292.17-2.292 1.196 0 1.027 1.04 1.578 2.292 1.578 1.254 0 1.65-.554 1.65-.554l.184-.738h-.917v.738h-1.937s-.262-.114-.262-.833c0-.718.76-.823 1.284-.827.525-.004 1.284 0 1.284 0v-.37s-.782-.19-1.284-.19zm2.935 0v2.59l.365.184.55-.184v-.923h.734l.916.924h1.1l-.917-.923s.733-.322.733-.738-.154-.928-1.834-.928h-1.65z"/><path stroke-width=".9" d="M42.362 58.888v.822h1.65c.237 0 .55-.822 0-.822h-1.65M46.397 58.514h1v2.59h-1zM50.43 57.78c-.37 0-2.016.137-2.016.924 0 .786.79.738 1.467.738.678 0 1.317.74 0 .74-1.315 0-2.347.737 0 .737 1.084 0 1.65-.61 1.65-1.11 0-.5-.628-.737-1.65-.737-1.02 0-.58-.756.55-.756s1.274-.536 0-.536zM13.755 18.646l.183-6.277h3.3s-.088-1.694 1.285-1.66c1.373.03 6.776-.164 7.52 0 .742.16 1.3.832 1.282 1.845-.016 1.012-.366 6.46-.366 6.46s-.04 1.952-.917 1.662"/><path stroke-width=".9" d="M20.54 20.675c.26-2.002 0-5.002 0-5.002s2.8-1.51 2.933 0c.132 1.51 0 5.002 0 5.002m-4.67-11.752v11.752M25.49 8.923l-.183 1.718.367 10.035M16.505 10.64l.733 1.728.242 8.307"/><ellipse cx="34.385" cy="25.766" stroke-width=".9" rx="5.96" ry="4.139"/><path stroke-width=".9" d="M31.57 29.415c1.037-.942 4.652-1.276 6.103-.197M.55 35.444s-.198 7.582.55 13.476c.75 5.893 1.605 9.29 5.87 12.922 4.262 3.633 6.442 4.292 13.57 4.984 7.127.693 25.11.85 30.074-.184 4.964-1.034 8.565-1.694 11.004-4.43 2.438-2.738 5.21-7.392 6.05-12.073.842-4.683 1.003-20.235 1.003-20.235M16.506 10.89h-3.668l-.183 7.755 3.85.184s-.29 1.5 3.302 1.66c3.59.16 6.05.185 6.05.185s2.25-.596 2.385-2.03c.138-1.434.185-7.57.185-7.57s-.45-1.75-2.568-2.03c-2.117-.28-6.308.008-7.335 0-1.028-.008-1.88 1.342-2.017 1.846z"/><path stroke-width=".9" d="M46.03 1.846c-.167.266-14.022-.872-22.932-.3-10.57.676-16.29 3.65-17.985 8.063-.976 2.54-2.16 4.49-2.73 15.127-.682 12.774 1.17 20.178 9.354 22.89 8.183 2.713 34.07 3.164 39.978 1.662 5.91-1.503 12.116-2.523 14.12-13.477C67.84 24.86 66.19 11.118 62.718 7.2c-3.47-3.92-11.003-4.8-11.003-4.8"/><path stroke-width=".9" d="M22.32.817C11.03 1.537 5.12 6.084 3.657 9.4 2.487 12.05.8 14.18.192 25.5c-.73 13.598 2.376 21.414 9.992 24.366 8.586 3.327 36.396 2.998 42.708 1.4 6.312-1.6 12.576-2.316 14.718-13.975 2.142-11.66 1.043-25.91-3.33-29.9-4.12-3.76-12.672-5.48-12.672-5.48S31.838.21 22.32.818z"/><g stroke-width=".54"><path d="M18.31 33.42l.46.148c-.07.26-.187.452-.352.578-.165.127-.375.19-.628.19-.314 0-.572-.108-.774-.324-.202-.216-.303-.51-.303-.885 0-.396.102-.704.305-.923.203-.22.47-.328.8-.328.29 0 .525.086.705.258.108.1.188.247.242.438l-.472.113c-.028-.123-.087-.22-.175-.292-.09-.07-.197-.107-.323-.107-.175 0-.318.063-.427.19-.11.127-.163.332-.163.615 0 .302.054.516.16.643.108.128.248.192.42.192.127 0 .236-.04.327-.122.09-.08.157-.21.197-.383zM19.713 34.295V32.32h-.702v-.404h1.88v.403h-.7v1.975zM22.256 34.295h-.453v-1.718c-.165.155-.36.27-.585.345v-.413c.118-.04.247-.114.385-.223.14-.11.234-.235.286-.38h.366v2.388z"/></g><g stroke-width=".54"><path d="M31.248 33.34l.463.147c-.07.26-.188.453-.353.58-.165.125-.374.188-.628.188-.314 0-.572-.108-.774-.324-.202-.215-.303-.51-.303-.884 0-.396.1-.703.304-.922.203-.22.47-.33.8-.33.29 0 .525.087.706.26.107.1.188.247.242.437l-.473.115c-.028-.124-.086-.22-.175-.292-.088-.072-.196-.108-.323-.108-.175 0-.317.064-.426.19-.11.127-.164.332-.164.615 0 .3.054.515.16.643.11.128.25.19.42.19.127 0 .236-.04.328-.12.09-.08.156-.21.196-.383zM32.652 34.214v-1.976h-.7v-.402h1.877v.402h-.7v1.976zM35.566 33.79v.424H33.98c.016-.16.067-.312.153-.455.086-.144.256-.334.51-.57.204-.193.33-.323.375-.39.063-.095.094-.188.094-.28 0-.1-.027-.18-.082-.234-.054-.055-.13-.082-.224-.082-.095 0-.17.03-.226.086-.056.057-.088.152-.097.285l-.45-.045c.026-.25.11-.43.252-.54.142-.11.32-.164.532-.164.233 0 .416.063.55.19.133.126.2.284.2.472 0 .107-.02.21-.058.306-.04.097-.1.198-.182.304-.055.07-.154.17-.297.303-.142.133-.232.22-.27.264-.04.043-.07.086-.093.127h.9z"/></g><g stroke-width=".54"><path d="M44.61 33.42l.462.148c-.07.26-.19.452-.354.578-.165.127-.374.19-.628.19-.314 0-.572-.108-.774-.324-.202-.216-.303-.51-.303-.885 0-.396.102-.704.305-.923.203-.22.47-.328.8-.328.29 0 .525.086.705.258.108.1.188.247.242.438l-.472.113c-.028-.123-.086-.22-.175-.292-.09-.07-.196-.107-.323-.107-.175 0-.317.063-.426.19-.11.127-.165.332-.165.615 0 .302.054.516.16.643.11.128.248.192.42.192.127 0 .236-.04.327-.122.092-.08.157-.21.197-.383zM46.013 34.295V32.32h-.7v-.404h1.876v.403h-.7v1.975h-.477zM47.38 33.664l.44-.054c.014.113.05.2.113.258.06.06.135.09.222.09.094 0 .172-.036.236-.108.065-.07.097-.167.097-.288 0-.115-.03-.206-.092-.273-.06-.068-.136-.102-.224-.102-.057 0-.126.012-.207.034l.05-.37c.123.002.216-.025.28-.08.065-.058.097-.134.097-.228 0-.08-.023-.144-.07-.19-.048-.05-.11-.073-.19-.073-.077 0-.143.03-.197.082-.055.054-.088.134-.1.237l-.418-.072c.03-.144.073-.26.132-.345.058-.086.14-.153.245-.203.104-.05.222-.073.352-.073.222 0 .4.07.535.214.11.118.165.25.165.397 0 .208-.113.375-.34.5.135.03.243.094.324.196.08.1.12.224.12.368 0 .21-.074.388-.226.535-.152.147-.34.22-.566.22-.214 0-.39-.06-.532-.185-.14-.124-.222-.286-.245-.486z"/></g><ellipse cx="24.463" cy="33.195" stroke-width=".9" rx="1" ry="1"/><ellipse cx="37.483" cy="33.195" stroke-width=".9" rx="1" ry="1"/><ellipse cx="50.687" cy="33.38" stroke-width=".9" rx="1" ry="1"/></g><g><g transform="translate(101 17) rotate(90 20 20)"><path stroke="#747474" stroke-width=".5" d="M.03 1.5h40.05v6.595h-6.83l-.225.405H6.908l-.13-.505H0z"/><path fill="#F9F9F9" d="M.012 0H6.59v20H.012zM33.41 0h6.578v20H33.41z"/><path stroke="#747474" stroke-width=".5" d="M6.994.027L.012.033v36.01c0 1.12.685 1.84 1.718 1.84h37.078c.837 0 1.61-1.225 1.61-1.84L40.37 0l-7.145.006"/><path stroke="#747474" stroke-width=".5" d="M.518.033v35.48c0 1.12.685 1.84 1.718 1.84h36.212c.837 0 1.61-1.225 1.61-1.84L40.01 0"/><path stroke="#747474" stroke-width=".5" d="M6.59.03v30.796c0 .97.474 1.598 1.188 1.598h25.03c.578 0 1.113-1.064 1.113-1.6L33.886 0"/><ellipse cx="3.698" cy="3.136" stroke="#747474" stroke-width=".5" rx="1" ry="1"/><ellipse cx="37.095" cy="3.136" stroke="#747474" stroke-width=".5" rx="1" ry="1"/><path stroke="#747474" stroke-width=".5" d="M7.096.028v30.294c0 .956.453 1.572 1.134 1.572h23.9c.553 0 1.064-1.047 1.064-1.573L33.16 0M17.723 38l.718.865v1.12M22.912 38l-.635.803v1.143M18.735 38l.815.915v1.05M21.957 38l-.692.926v.97"/></g><g transform="translate(101 17) rotate(90 -4.5 44.5)"><path stroke="#747474" stroke-width=".5" d="M.03 1.5h40.05v6.595h-6.83l-.225.405H6.908l-.13-.505H0z"/><path fill="#F9F9F9" d="M.012 0H6.59v20H.012zM33.41 0h6.578v20H33.41z"/><path stroke="#747474" stroke-width=".5" d="M6.994.027L.012.033v36.01c0 1.12.685 1.84 1.718 1.84h37.078c.837 0 1.61-1.225 1.61-1.84L40.37 0l-7.145.006"/><path stroke="#747474" stroke-width=".5" d="M.518.033v35.48c0 1.12.685 1.84 1.718 1.84h36.212c.837 0 1.61-1.225 1.61-1.84L40.01 0"/><path stroke="#747474" stroke-width=".5" d="M6.59.03v30.796c0 .97.474 1.598 1.188 1.598h25.03c.578 0 1.113-1.064 1.113-1.6L33.886 0"/><ellipse cx="3.698" cy="3.136" stroke="#747474" stroke-width=".5" rx="1" ry="1"/><ellipse cx="37.095" cy="3.136" stroke="#747474" stroke-width=".5" rx="1" ry="1"/><path stroke="#747474" stroke-width=".5" d="M7.096.028v30.294c0 .956.453 1.572 1.134 1.572h23.9c.553 0 1.064-1.047 1.064-1.573L33.16 0M17.723 38l.718.865v1.12M22.912 38l-.635.803v1.143M18.735 38l.815.915v1.05M21.957 38l-.692.926v.97"/></g><g transform="translate(101 17) rotate(90 -28.5 68.5)"><path stroke="#747474" stroke-width=".5" d="M.03 1.5h40.05v6.595h-6.83l-.225.405H6.908l-.13-.505H0z"/><path fill="#F9F9F9" d="M.012 0H6.59v20H.012zM33.41 0h6.578v20H33.41z"/><path stroke="#747474" stroke-width=".5" d="M6.994.027L.012.033v36.01c0 1.12.685 1.84 1.718 1.84h37.078c.837 0 1.61-1.225 1.61-1.84L40.37 0l-7.145.006"/><path stroke="#747474" stroke-width=".5" d="M.518.033v35.48c0 1.12.685 1.84 1.718 1.84h36.212c.837 0 1.61-1.225 1.61-1.84L40.01 0"/><path stroke="#747474" stroke-width=".5" d="M6.59.03v30.796c0 .97.474 1.598 1.188 1.598h25.03c.578 0 1.113-1.064 1.113-1.6L33.886 0"/><ellipse cx="3.698" cy="3.136" stroke="#747474" stroke-width=".5" rx="1" ry="1"/><ellipse cx="37.095" cy="3.136" stroke="#747474" stroke-width=".5" rx="1" ry="1"/><path stroke="#747474" stroke-width=".5" d="M7.096.028v30.294c0 .956.453 1.572 1.134 1.572h23.9c.553 0 1.064-1.047 1.064-1.573L33.16 0M22.912 38l-.635.803v1.143M21.957 38l-.692.926v.97"/></g><g transform="translate(101 17) translate(38 22)"><use class="cable B fill" fill="#D0021B" xlink:href="#a"/><path stroke="#747474" d="M1.002 48.5v7h14.445v-7H1.002z"/><use class="cable A fill" fill="#4A4A4A" xlink:href="#b"/><path stroke="#747474" d="M.958 96.5v7h14.445v-7H.958z"/><g><use class="cable A fill" fill="#4A4A4A" xlink:href="#c"/><path stroke="#747474" d="M.91.5v7H15.5v-7H.91z"/></g></g></g><path stroke="#747474" d="M155.5.5h95v238h-95z"/><text fill="#4A4A4A" font-family="AvenirNext-Regular, Avenir Next" font-size="16"><tspan x="179.08" y="115">Circuit</tspan> <tspan x="171" y="131">Breakers</tspan></text><g stroke="#747474" transform="rotate(90 18.81 75.01)"><path stroke-width=".9" d="M19.393 35.14l-1.605 1.41m3.21-1.106l-3.21 2.215m3.21-.324h-3.026m5.318-1.892l-1.467 1.107m2.934-.704l-2.72 1.813m2.72-.864h-1.75m1.75.54h-2.72m-3.446 3.46s-.32-1.572.895-1.568c1.214.004 1.542.567 1.513 1.292-.03.725-.264 1.213-1.027 1.2-.763-.013-1.418-.188-1.38-.923zm5.29-1.568c-.935-.077-1.237.488-1.324 1.292-.086.804.37 1.24 1.325 1.2.957-.04 1.54-.756 1.427-1.2-.113-.443-.32-1.2-1.426-1.292zM21 41.114h1.556"/><path stroke-width=".9" d="M18.943 41.166s-.02-1.286 1.028-1.107c.777.13.59.744.57 1.106m2.442 0s.147-1.263.9-1.124c.752.14 1.084.758.875 1.124m-5 .646s2.327-.134 2.016 1.385c-.31 1.52-1.394 1.926-2.015 1.846-.62-.08-1.85-.87-1.786-1.846.063-.976.65-1.454 1.786-1.385zm4.177-.092s1.583-.117 1.557 1.71c-.026 1.825-.928 1.535-1.59 1.622-.66.088-1.804-.52-1.864-1.996-.06-1.476 1.29-1.3 1.898-1.244"/><path stroke-width=".9" d="M16.138 40.797l-.183 5.17h9.72l.366-10.523-9.902-.37v5.723h2.384"/><path stroke-width=".9" d="M17.935 35.14l-.147 3.442h3.21v-3.138M21.823 35.444l.213 3.138h2.72v-3.138M32.413 35.14l-1.604 1.41m3.208-1.106l-3.21 2.215m3.21-.324h-3.026m5.318-1.892l-1.467 1.107m2.934-.704l-2.72 1.813m2.72-.864h-1.75m1.75.54h-2.72m-3.446 3.46s-.32-1.572.895-1.568c1.214.004 1.543.567 1.513 1.292-.03.725-.263 1.213-1.027 1.2-.763-.013-1.417-.188-1.38-.923zm5.292-1.568c-.937-.077-1.238.488-1.325 1.292-.087.804.37 1.24 1.325 1.2.955-.04 1.54-.756 1.426-1.2-.114-.443-.32-1.2-1.426-1.292zm-2.882 1.886h1.557"/><path stroke-width=".9" d="M31.964 41.166s-.022-1.286 1.027-1.107c.778.13.59.744.57 1.106m2.443 0s.147-1.263.9-1.124c.75.14 1.083.758.874 1.124m-4.998.646s2.324-.134 2.013 1.385c-.31 1.52-1.394 1.926-2.014 1.846-.622-.08-1.85-.87-1.788-1.846.063-.976.65-1.454 1.787-1.385zm4.174-.092s1.583-.117 1.557 1.71c-.025 1.825-.928 1.535-1.59 1.622-.66.088-1.804-.52-1.864-1.996-.06-1.476 1.29-1.3 1.898-1.244"/><path stroke-width=".9" d="M29.158 40.797l-.183 5.17h9.72l.366-10.523-9.902-.37v5.723h2.384"/><path stroke-width=".9" d="M30.955 35.14l-.146 3.442h3.208v-3.138M34.843 35.444l.213 3.138h2.72v-3.138M45.617 35.14l-1.604 1.41m3.21-1.106l-3.21 2.215m3.21-.324h-3.027m5.318-1.892l-1.467 1.107m2.934-.704l-2.72 1.813m2.72-.864h-1.75m1.75.54h-2.72m-3.445 3.46s-.32-1.572.894-1.568c1.213.004 1.54.567 1.512 1.292-.03.725-.263 1.213-1.027 1.2-.764-.013-1.42-.188-1.38-.923zm5.29-1.568c-.936-.077-1.238.488-1.324 1.292-.086.804.37 1.24 1.326 1.2.955-.04 1.538-.756 1.425-1.2-.112-.443-.317-1.2-1.424-1.292zm-2.88 1.886h1.556"/><path stroke-width=".9" d="M45.167 41.166s-.02-1.286 1.028-1.107c.776.13.588.744.568 1.106m2.444 0s.146-1.263.9-1.124c.75.14 1.083.758.874 1.124m-4.998.646s2.326-.134 2.015 1.385c-.31 1.52-1.394 1.926-2.015 1.846-.62-.08-1.85-.87-1.786-1.846.063-.976.65-1.454 1.786-1.385zm4.176-.092s1.583-.117 1.557 1.71c-.026 1.825-.93 1.535-1.59 1.622-.662.088-1.805-.52-1.865-1.996-.06-1.476 1.29-1.3 1.898-1.244"/><path stroke-width=".9" d="M42.362 40.797l-.183 5.17h9.718l.367-10.523-9.903-.37v5.723h2.384"/><path stroke-width=".9" d="M44.16 35.14l-.147 3.442h3.21v-3.138M48.047 35.444l.213 3.138h2.72v-3.138M46.397 11.63c-.84.268-2.08 1.456-2.08 4.043 0 2.586 2.778 3.895 4.647 3.895 1.87 0 4.4-1.616 4.4-3.895 0-2.28-1.833-4.228-1.833-4.228M15.22 57.227l1.773 2.954h.487l1.775-2.4-.733-.184-1.284 1.662-1.283-2.03zM20.356 57.965v2.585l.733.184 2.2.185v-.37l-2.2-.185v-.554l2.017-.183v-.37l-2.2-.184.182-.738 2.2.184v-.37zM24.757 60.92h.734v-.924h1.1l.735 1.108h.733l-.733-1.108s.727-.133.733-.738c.006-.606-.582-.883-1.1-.923-.52-.04-2.2 0-2.2 0v2.584z"/><path stroke-width=".9" d="M25.49 58.704v.923s1.232.083 1.468.083c.235 0 .53-1.006-.184-1.006H25.49zm3.852-.185v2.768h2.567c.49 0 1.458-.74 1.466-1.477.008-.735-.886-1.28-1.467-1.29-.582-.01-2.568 0-2.568 0z"/><path stroke-width=".9" d="M30.075 58.888v2.03h1.834c.36 0 .996-2.03 0-2.03h-1.835zM34.385 58.704l.093 2.584h.915v-2.584zM38.694 58.514c-.5 0-2.292.17-2.292 1.196 0 1.027 1.04 1.578 2.292 1.578 1.254 0 1.65-.554 1.65-.554l.184-.738h-.917v.738h-1.937s-.262-.114-.262-.833c0-.718.76-.823 1.284-.827.525-.004 1.284 0 1.284 0v-.37s-.782-.19-1.284-.19zm2.935 0v2.59l.365.184.55-.184v-.923h.734l.916.924h1.1l-.917-.923s.733-.322.733-.738-.154-.928-1.834-.928h-1.65z"/><path stroke-width=".9" d="M42.362 58.888v.822h1.65c.237 0 .55-.822 0-.822h-1.65M46.397 58.514h1v2.59h-1zM50.43 57.78c-.37 0-2.016.137-2.016.924 0 .786.79.738 1.467.738.678 0 1.317.74 0 .74-1.315 0-2.347.737 0 .737 1.084 0 1.65-.61 1.65-1.11 0-.5-.628-.737-1.65-.737-1.02 0-.58-.756.55-.756s1.274-.536 0-.536zM13.755 18.646l.183-6.277h3.3s-.088-1.694 1.285-1.66c1.373.03 6.776-.164 7.52 0 .742.16 1.3.832 1.282 1.845-.016 1.012-.366 6.46-.366 6.46s-.04 1.952-.917 1.662"/><path stroke-width=".9" d="M20.54 20.675c.26-2.002 0-5.002 0-5.002s2.8-1.51 2.933 0c.132 1.51 0 5.002 0 5.002m-4.67-11.752v11.752M25.49 8.923l-.183 1.718.367 10.035M16.505 10.64l.733 1.728.242 8.307"/><ellipse cx="34.385" cy="25.766" stroke-width=".9" rx="5.96" ry="4.139"/><path stroke-width=".9" d="M31.57 29.415c1.037-.942 4.652-1.276 6.103-.197M.55 35.444s-.198 7.582.55 13.476c.75 5.893 1.605 9.29 5.87 12.922 4.262 3.633 6.442 4.292 13.57 4.984 7.127.693 25.11.85 30.074-.184 4.964-1.034 8.565-1.694 11.004-4.43 2.438-2.738 5.21-7.392 6.05-12.073.842-4.683 1.003-20.235 1.003-20.235M16.506 10.89h-3.668l-.183 7.755 3.85.184s-.29 1.5 3.302 1.66c3.59.16 6.05.185 6.05.185s2.25-.596 2.385-2.03c.138-1.434.185-7.57.185-7.57s-.45-1.75-2.568-2.03c-2.117-.28-6.308.008-7.335 0-1.028-.008-1.88 1.342-2.017 1.846z"/><path stroke-width=".9" d="M44.207 1.058c-.166.266-12.2-.084-21.11.487-10.568.677-16.29 3.65-17.984 8.064-.976 2.54-2.16 4.49-2.73 15.127-.682 12.774 1.17 20.178 9.354 22.89 8.183 2.713 34.07 3.164 39.978 1.662 5.91-1.503 12.116-2.523 14.12-13.477C67.84 24.86 66.19 11.118 62.718 7.2c-3.47-3.92-10.39-5.26-10.39-5.26l-8.12-.882z"/><path stroke-width=".9" d="M46.452 1.137C46.274 1.42 31.84.21 22.32.817 11.03 1.537 5.12 6.084 3.657 9.4 2.487 12.05.8 14.18.192 25.5c-.73 13.598 2.376 21.414 9.992 24.366 8.586 3.327 36.396 2.998 42.708 1.4 6.312-1.6 12.576-2.316 14.718-13.975 2.142-11.66 1.043-25.91-3.33-29.9-4.12-3.76-12.672-5.48-12.672-5.48"/><g stroke-width=".54"><path d="M18.31 33.42l.46.148c-.07.26-.187.452-.352.578-.165.127-.375.19-.628.19-.314 0-.572-.108-.774-.324-.202-.216-.303-.51-.303-.885 0-.396.102-.704.305-.923.203-.22.47-.328.8-.328.29 0 .525.086.705.258.108.1.188.247.242.438l-.472.113c-.028-.123-.087-.22-.175-.292-.09-.07-.197-.107-.323-.107-.175 0-.318.063-.427.19-.11.127-.163.332-.163.615 0 .302.054.516.16.643.108.128.248.192.42.192.127 0 .236-.04.327-.122.09-.08.157-.21.197-.383zM19.713 34.295V32.32h-.702v-.404h1.88v.403h-.7v1.975zM22.256 34.295h-.453v-1.718c-.165.155-.36.27-.585.345v-.413c.118-.04.247-.114.385-.223.14-.11.234-.235.286-.38h.366v2.388z"/></g><g stroke-width=".54"><path d="M31.248 33.34l.463.147c-.07.26-.188.453-.353.58-.165.125-.374.188-.628.188-.314 0-.572-.108-.774-.324-.202-.215-.303-.51-.303-.884 0-.396.1-.703.304-.922.203-.22.47-.33.8-.33.29 0 .525.087.706.26.107.1.188.247.242.437l-.473.115c-.028-.124-.086-.22-.175-.292-.088-.072-.196-.108-.323-.108-.175 0-.317.064-.426.19-.11.127-.164.332-.164.615 0 .3.054.515.16.643.11.128.25.19.42.19.127 0 .236-.04.328-.12.09-.08.156-.21.196-.383zM32.652 34.214v-1.976h-.7v-.402h1.877v.402h-.7v1.976zM35.566 33.79v.424H33.98c.016-.16.067-.312.153-.455.086-.144.256-.334.51-.57.204-.193.33-.323.375-.39.063-.095.094-.188.094-.28 0-.1-.027-.18-.082-.234-.054-.055-.13-.082-.224-.082-.095 0-.17.03-.226.086-.056.057-.088.152-.097.285l-.45-.045c.026-.25.11-.43.252-.54.142-.11.32-.164.532-.164.233 0 .416.063.55.19.133.126.2.284.2.472 0 .107-.02.21-.058.306-.04.097-.1.198-.182.304-.055.07-.154.17-.297.303-.142.133-.232.22-.27.264-.04.043-.07.086-.093.127h.9z"/></g><g stroke-width=".54"><path d="M44.61 33.42l.462.148c-.07.26-.19.452-.354.578-.165.127-.374.19-.628.19-.314 0-.572-.108-.774-.324-.202-.216-.303-.51-.303-.885 0-.396.102-.704.305-.923.203-.22.47-.328.8-.328.29 0 .525.086.705.258.108.1.188.247.242.438l-.472.113c-.028-.123-.086-.22-.175-.292-.09-.07-.196-.107-.323-.107-.175 0-.317.063-.426.19-.11.127-.165.332-.165.615 0 .302.054.516.16.643.11.128.248.192.42.192.127 0 .236-.04.327-.122.092-.08.157-.21.197-.383zM46.013 34.295V32.32h-.7v-.404h1.876v.403h-.7v1.975h-.477zM47.38 33.664l.44-.054c.014.113.05.2.113.258.06.06.135.09.222.09.094 0 .172-.036.236-.108.065-.07.097-.167.097-.288 0-.115-.03-.206-.092-.273-.06-.068-.136-.102-.224-.102-.057 0-.126.012-.207.034l.05-.37c.123.002.216-.025.28-.08.065-.058.097-.134.097-.228 0-.08-.023-.144-.07-.19-.048-.05-.11-.073-.19-.073-.077 0-.143.03-.197.082-.055.054-.088.134-.1.237l-.418-.072c.03-.144.073-.26.132-.345.058-.086.14-.153.245-.203.104-.05.222-.073.352-.073.222 0 .4.07.535.214.11.118.165.25.165.397 0 .208-.113.375-.34.5.135.03.243.094.324.196.08.1.12.224.12.368 0 .21-.074.388-.226.535-.152.147-.34.22-.566.22-.214 0-.39-.06-.532-.185-.14-.124-.222-.286-.245-.486z"/></g><ellipse cx="24.463" cy="33.195" stroke-width=".9" rx="1" ry="1"/><ellipse cx="37.483" cy="33.195" stroke-width=".9" rx="1" ry="1"/><ellipse cx="50.687" cy="33.38" stroke-width=".9" rx="1" ry="1"/></g><g transform="rotate(90 164.31 220.51)"><path stroke="#747474" stroke-width=".9" d="M19.393 35.14l-1.605 1.41m3.21-1.106l-3.21 2.215m3.21-.324h-3.026m5.318-1.892l-1.467 1.107m2.934-.704l-2.72 1.813m2.72-.864h-1.75m1.75.54h-2.72m-3.446 3.46s-.32-1.572.895-1.568c1.214.004 1.542.567 1.513 1.292-.03.725-.264 1.213-1.027 1.2-.763-.013-1.418-.188-1.38-.923zm5.29-1.568c-.935-.077-1.237.488-1.324 1.292-.086.804.37 1.24 1.325 1.2.957-.04 1.54-.756 1.427-1.2-.113-.443-.32-1.2-1.426-1.292zM21 41.114h1.556"/><path stroke="#747474" stroke-width=".9" d="M18.943 41.166s-.02-1.286 1.028-1.107c.777.13.59.744.57 1.106m2.442 0s.147-1.263.9-1.124c.752.14 1.084.758.875 1.124m-5 .646s2.327-.134 2.016 1.385c-.31 1.52-1.394 1.926-2.015 1.846-.62-.08-1.85-.87-1.786-1.846.063-.976.65-1.454 1.786-1.385zm4.177-.092s1.583-.117 1.557 1.71c-.026 1.825-.928 1.535-1.59 1.622-.66.088-1.804-.52-1.864-1.996-.06-1.476 1.29-1.3 1.898-1.244"/><path stroke="#747474" stroke-width=".9" d="M16.138 40.797l-.183 5.17h9.72l.366-10.523-9.902-.37v5.723h2.384"/><path stroke="#747474" stroke-width=".9" d="M17.935 35.14l-.147 3.442h3.21v-3.138M21.823 35.444l.213 3.138h2.72v-3.138M32.413 35.14l-1.604 1.41m3.208-1.106l-3.21 2.215m3.21-.324h-3.026m5.318-1.892l-1.467 1.107m2.934-.704l-2.72 1.813m2.72-.864h-1.75m1.75.54h-2.72m-3.446 3.46s-.32-1.572.895-1.568c1.214.004 1.543.567 1.513 1.292-.03.725-.263 1.213-1.027 1.2-.763-.013-1.417-.188-1.38-.923zm5.292-1.568c-.937-.077-1.238.488-1.325 1.292-.087.804.37 1.24 1.325 1.2.955-.04 1.54-.756 1.426-1.2-.114-.443-.32-1.2-1.426-1.292zm-2.882 1.886h1.557"/><path stroke="#747474" stroke-width=".9" d="M31.964 41.166s-.022-1.286 1.027-1.107c.778.13.59.744.57 1.106m2.443 0s.147-1.263.9-1.124c.75.14 1.083.758.874 1.124m-4.998.646s2.324-.134 2.013 1.385c-.31 1.52-1.394 1.926-2.014 1.846-.622-.08-1.85-.87-1.788-1.846.063-.976.65-1.454 1.787-1.385zm4.174-.092s1.583-.117 1.557 1.71c-.025 1.825-.928 1.535-1.59 1.622-.66.088-1.804-.52-1.864-1.996-.06-1.476 1.29-1.3 1.898-1.244"/><path stroke="#747474" stroke-width=".9" d="M29.158 40.797l-.183 5.17h9.72l.366-10.523-9.902-.37v5.723h2.384"/><path stroke="#747474" stroke-width=".9" d="M30.955 35.14l-.146 3.442h3.208v-3.138M34.843 35.444l.213 3.138h2.72v-3.138M45.617 35.14l-1.604 1.41m3.21-1.106l-3.21 2.215m3.21-.324h-3.027m5.318-1.892l-1.467 1.107m2.934-.704l-2.72 1.813m2.72-.864h-1.75m1.75.54h-2.72m-3.445 3.46s-.32-1.572.894-1.568c1.213.004 1.54.567 1.512 1.292-.03.725-.263 1.213-1.027 1.2-.764-.013-1.42-.188-1.38-.923zm5.29-1.568c-.936-.077-1.238.488-1.324 1.292-.086.804.37 1.24 1.326 1.2.955-.04 1.538-.756 1.425-1.2-.112-.443-.317-1.2-1.424-1.292zm-2.88 1.886h1.556"/><path stroke="#747474" stroke-width=".9" d="M45.167 41.166s-.02-1.286 1.028-1.107c.776.13.588.744.568 1.106m2.444 0s.146-1.263.9-1.124c.75.14 1.083.758.874 1.124m-4.998.646s2.326-.134 2.015 1.385c-.31 1.52-1.394 1.926-2.015 1.846-.62-.08-1.85-.87-1.786-1.846.063-.976.65-1.454 1.786-1.385zm4.176-.092s1.583-.117 1.557 1.71c-.026 1.825-.93 1.535-1.59 1.622-.662.088-1.805-.52-1.865-1.996-.06-1.476 1.29-1.3 1.898-1.244"/><path stroke="#747474" stroke-width=".9" d="M42.362 40.797l-.183 5.17h9.718l.367-10.523-9.903-.37v5.723h2.384"/><path stroke="#747474" stroke-width=".9" d="M44.16 35.14l-.147 3.442h3.21v-3.138M48.047 35.444l.213 3.138h2.72v-3.138M46.397 11.63c-.84.268-2.08 1.456-2.08 4.043 0 2.586 2.778 3.895 4.647 3.895 1.87 0 4.4-1.616 4.4-3.895 0-2.28-1.833-4.228-1.833-4.228M15.22 57.227l1.773 2.954h.487l1.775-2.4-.733-.184-1.284 1.662-1.283-2.03zM20.356 57.965v2.585l.733.184 2.2.185v-.37l-2.2-.185v-.554l2.017-.183v-.37l-2.2-.184.182-.738 2.2.184v-.37zM24.757 60.92h.734v-.924h1.1l.735 1.108h.733l-.733-1.108s.727-.133.733-.738c.006-.606-.582-.883-1.1-.923-.52-.04-2.2 0-2.2 0v2.584z"/><path stroke="#747474" stroke-width=".9" d="M25.49 58.704v.923s1.232.083 1.468.083c.235 0 .53-1.006-.184-1.006H25.49zm3.852-.185v2.768h2.567c.49 0 1.458-.74 1.466-1.477.008-.735-.886-1.28-1.467-1.29-.582-.01-2.568 0-2.568 0z"/><path stroke="#747474" stroke-width=".9" d="M30.075 58.888v2.03h1.834c.36 0 .996-2.03 0-2.03h-1.835zM34.385 58.704l.093 2.584h.915v-2.584zM38.694 58.514c-.5 0-2.292.17-2.292 1.196 0 1.027 1.04 1.578 2.292 1.578 1.254 0 1.65-.554 1.65-.554l.184-.738h-.917v.738h-1.937s-.262-.114-.262-.833c0-.718.76-.823 1.284-.827.525-.004 1.284 0 1.284 0v-.37s-.782-.19-1.284-.19zm2.935 0v2.59l.365.184.55-.184v-.923h.734l.916.924h1.1l-.917-.923s.733-.322.733-.738-.154-.928-1.834-.928h-1.65z"/><path stroke="#747474" stroke-width=".9" d="M42.362 58.888v.822h1.65c.237 0 .55-.822 0-.822h-1.65M46.397 58.514h1v2.59h-1zM50.43 57.78c-.37 0-2.016.137-2.016.924 0 .786.79.738 1.467.738.678 0 1.317.74 0 .74-1.315 0-2.347.737 0 .737 1.084 0 1.65-.61 1.65-1.11 0-.5-.628-.737-1.65-.737-1.02 0-.58-.756.55-.756s1.274-.536 0-.536zM13.755 18.646l.183-6.277h3.3s-.088-1.694 1.285-1.66c1.373.03 6.776-.164 7.52 0 .742.16 1.3.832 1.282 1.845-.016 1.012-.366 6.46-.366 6.46s-.04 1.952-.917 1.662"/><path stroke="#747474" stroke-width=".9" d="M20.54 20.675c.26-2.002 0-5.002 0-5.002s2.8-1.51 2.933 0c.132 1.51 0 5.002 0 5.002m-4.67-11.752v11.752M25.49 8.923l-.183 1.718.367 10.035M16.505 10.64l.733 1.728.242 8.307"/><ellipse cx="34.385" cy="25.766" stroke="#747474" stroke-width=".9" rx="5.96" ry="4.139"/><path stroke="#747474" stroke-width=".9" d="M31.57 29.415c1.037-.942 4.652-1.276 6.103-.197M.55 35.444s-.198 7.582.55 13.476c.75 5.893 1.605 9.29 5.87 12.922 4.262 3.633 6.442 4.292 13.57 4.984 7.127.693 25.11.85 30.074-.184 4.964-1.034 8.565-1.694 11.004-4.43 2.438-2.738 5.21-7.392 6.05-12.073.842-4.683 1.003-20.235 1.003-20.235M16.506 10.89h-3.668l-.183 7.755 3.85.184s-.29 1.5 3.302 1.66c3.59.16 6.05.185 6.05.185s2.25-.596 2.385-2.03c.138-1.434.185-7.57.185-7.57s-.45-1.75-2.568-2.03c-2.117-.28-6.308.008-7.335 0-1.028-.008-1.88 1.342-2.017 1.846z"/><g transform="translate(13.8 297.82)"><mask id="e" fill="#fff"><use xlink:href="#d"/></mask><g mask="url(#e)"><g stroke="#747474" stroke-width=".512"><path fill="#DDD" d="M13.565 4.95s-.52-.716-1.224-.816c-.704-.1-13.075-.118-13.075-.118s-1.663.023-1.88 2.102c-.22 2.08-.142 4.843-.142 4.843s.194 1.77 2.022 1.89c1.828.12 13.03.095 13.03.095s1.248-.37 1.41-1.155"/><path fill="#F9F9F9" d="M10.647 11.84l-2.21 1.107m-4.022-8.93s-1.33.5-1.34 2.03c-.012 1.53-.11 4.057-.118 4.914-.007.858.287 1.7 3.55 1.987"/><path fill="#F9F9F9" d="M-2.77 10.964l5.727-.405 4.93-.335M-.71 4.016s-.16-2.116.257-2.34c.417-.22 2.54-.448 2.54-.448L2.957 0 9.84.142l.15.45s2.734.147 2.915.188c.18.04.276 1.064-.023 1.18-.3.117-5.95.875-5.95.875s-.535.52-.424 1.18"/><path fill="#F9F9F9" d="M-.335 4.016c-.035-.346.097-1.662.8-1.748.702-.087 5.702-.733 5.702-.733l6.908.142M3.215 0l-.023 1.3S4.482.742 6.367.66c1.886-.08 3.74.005 3.74.005M7.825 7.07L3.05 6.047l-5.666.095M12.388 4.96c-.47-.03-1.693-.074-1.693-.074S8.597 5.034 7.85 7.07c-.75 2.035.194 3.913 1.99 4.734.173.08 3.37 0 3.37 0"/></g></g></g><path stroke="#747474" stroke-width=".9" d="M46.03 1.846c-.167.266-14.022-.872-22.932-.3-10.57.676-16.29 3.65-17.985 8.063-.976 2.54-2.16 4.49-2.73 15.127-.682 12.774 1.17 20.178 9.354 22.89 8.183 2.713 34.07 3.164 39.978 1.662 5.91-1.503 12.116-2.523 14.12-13.477C67.84 24.86 66.19 11.118 62.718 7.2c-3.47-3.92-11.003-4.8-11.003-4.8"/><path stroke="#747474" stroke-width=".9" d="M46.264.817C46.086 1.1 31.84.21 22.32.817 11.03 1.537 5.12 6.084 3.657 9.4 2.487 12.05.8 14.18.192 25.5c-.73 13.598 2.376 21.414 9.992 24.366 8.586 3.327 36.396 2.998 42.708 1.4 6.312-1.6 12.576-2.316 14.718-13.975 2.142-11.66 1.043-25.91-3.33-29.9-4.12-3.76-12.672-5.48-12.672-5.48L46.264.818z"/><g stroke="#747474" stroke-width=".54"><path d="M18.31 33.42l.46.148c-.07.26-.187.452-.352.578-.165.127-.375.19-.628.19-.314 0-.572-.108-.774-.324-.202-.216-.303-.51-.303-.885 0-.396.102-.704.305-.923.203-.22.47-.328.8-.328.29 0 .525.086.705.258.108.1.188.247.242.438l-.472.113c-.028-.123-.087-.22-.175-.292-.09-.07-.197-.107-.323-.107-.175 0-.318.063-.427.19-.11.127-.163.332-.163.615 0 .302.054.516.16.643.108.128.248.192.42.192.127 0 .236-.04.327-.122.09-.08.157-.21.197-.383zM19.713 34.295V32.32h-.702v-.404h1.88v.403h-.7v1.975zM22.256 34.295h-.453v-1.718c-.165.155-.36.27-.585.345v-.413c.118-.04.247-.114.385-.223.14-.11.234-.235.286-.38h.366v2.388z"/></g><g stroke="#747474" stroke-width=".54"><path d="M31.248 33.34l.463.147c-.07.26-.188.453-.353.58-.165.125-.374.188-.628.188-.314 0-.572-.108-.774-.324-.202-.215-.303-.51-.303-.884 0-.396.1-.703.304-.922.203-.22.47-.33.8-.33.29 0 .525.087.706.26.107.1.188.247.242.437l-.473.115c-.028-.124-.086-.22-.175-.292-.088-.072-.196-.108-.323-.108-.175 0-.317.064-.426.19-.11.127-.164.332-.164.615 0 .3.054.515.16.643.11.128.25.19.42.19.127 0 .236-.04.328-.12.09-.08.156-.21.196-.383zM32.652 34.214v-1.976h-.7v-.402h1.877v.402h-.7v1.976zM35.566 33.79v.424H33.98c.016-.16.067-.312.153-.455.086-.144.256-.334.51-.57.204-.193.33-.323.375-.39.063-.095.094-.188.094-.28 0-.1-.027-.18-.082-.234-.054-.055-.13-.082-.224-.082-.095 0-.17.03-.226.086-.056.057-.088.152-.097.285l-.45-.045c.026-.25.11-.43.252-.54.142-.11.32-.164.532-.164.233 0 .416.063.55.19.133.126.2.284.2.472 0 .107-.02.21-.058.306-.04.097-.1.198-.182.304-.055.07-.154.17-.297.303-.142.133-.232.22-.27.264-.04.043-.07.086-.093.127h.9z"/></g><g stroke="#747474" stroke-width=".54"><path d="M44.61 33.42l.462.148c-.07.26-.19.452-.354.578-.165.127-.374.19-.628.19-.314 0-.572-.108-.774-.324-.202-.216-.303-.51-.303-.885 0-.396.102-.704.305-.923.203-.22.47-.328.8-.328.29 0 .525.086.705.258.108.1.188.247.242.438l-.472.113c-.028-.123-.086-.22-.175-.292-.09-.07-.196-.107-.323-.107-.175 0-.317.063-.426.19-.11.127-.165.332-.165.615 0 .302.054.516.16.643.11.128.248.192.42.192.127 0 .236-.04.327-.122.092-.08.157-.21.197-.383zM46.013 34.295V32.32h-.7v-.404h1.876v.403h-.7v1.975h-.477zM47.38 33.664l.44-.054c.014.113.05.2.113.258.06.06.135.09.222.09.094 0 .172-.036.236-.108.065-.07.097-.167.097-.288 0-.115-.03-.206-.092-.273-.06-.068-.136-.102-.224-.102-.057 0-.126.012-.207.034l.05-.37c.123.002.216-.025.28-.08.065-.058.097-.134.097-.228 0-.08-.023-.144-.07-.19-.048-.05-.11-.073-.19-.073-.077 0-.143.03-.197.082-.055.054-.088.134-.1.237l-.418-.072c.03-.144.073-.26.132-.345.058-.086.14-.153.245-.203.104-.05.222-.073.352-.073.222 0 .4.07.535.214.11.118.165.25.165.397 0 .208-.113.375-.34.5.135.03.243.094.324.196.08.1.12.224.12.368 0 .21-.074.388-.226.535-.152.147-.34.22-.566.22-.214 0-.39-.06-.532-.185-.14-.124-.222-.286-.245-.486z"/></g><ellipse cx="24.463" cy="33.195" stroke="#747474" stroke-width=".9" rx="1" ry="1"/><ellipse cx="37.483" cy="33.195" stroke="#747474" stroke-width=".9" rx="1" ry="1"/><ellipse cx="50.687" cy="33.38" stroke="#747474" stroke-width=".9" rx="1" ry="1"/></g><g><g><path stroke="#4A4A4A" stroke-width="2.88" d="M50.22 75.98c4.96 0 5.25-3.755 9.805-7.314 4.554-3.558 6.76-.32 12.946-5.154 6.188-4.834 4.023-8.103 9.594-12.455 5.57-4.352 8.71-3.163 12.716-6.293 4.006-3.13 2.13-10.106 7.58-10.106"/><path fill="#FFF" fill-rule="nonzero" stroke="#747474" stroke-width=".72" d="M75.872 58.624c-1.77.487-3.022 1.14-4.765 2.502-2.276 1.778-3.162 3.062-4.027 5.29l-.296.772c-.886 2.288-1.794 3.677-3.81 5.253l-12.26 8.73v-2.563l10.95-7.844c1.302-1.018 1.837-1.835 2.504-3.56l.297-.774c1.087-2.8 2.383-4.678 5.33-6.982 2.67-2.085 4.58-2.923 7.503-3.57m3.06-.998c1.38-.415 2.614-1.1 3.94-2.138 2.117-1.653 5.243-6.235 5.417-6.51 1.166-1.846 2.185-3.07 3.766-4.306 1.718-1.34 1.725-2.615 3.82-3.436.307-.12-1.32 3.214-1.668 3.436-.418.266-.63 1.452-1.008 1.747-1.11.87-1.664 1.665-2.597 3.14-.162.256-3.828 5.583-6.418 7.607-2.323 1.814-4.03 2.552-6.725 3.147"/></g><g><path stroke="#4A4A4A" stroke-width="2.88" d="M49.63 169.655c4.66.763 5.234-2.825 9.8-5.568 4.564-2.743 6.374.73 12.575-2.996 6.202-3.725 4.43-7.22 10.013-10.576 5.583-3.354 8.437-1.72 12.452-4.133 4.015-2.412 2.814-9.45 7.932-8.613"/><path fill="#FFF" fill-rule="nonzero" stroke="#747474" stroke-width=".72" d="M75.124 156.807c-1.702.2-2.93.638-4.678 1.688-2.28 1.37-3.217 2.477-4.208 4.5l-.34.7c-1.017 2.08-1.98 3.283-4.002 4.498l-12.22 6.56.207-2.48L60.8 166.37c1.306-.785 1.873-1.493 2.64-3.06l.34-.703c1.246-2.54 2.614-4.16 5.57-5.935 2.674-1.607 4.535-2.124 7.334-2.3m2.955-.496c1.33-.19 2.543-.664 3.872-1.462 2.122-1.275 5.426-5.228 5.612-5.468 1.244-1.606 2.3-2.634 3.884-3.586 1.72-1.034 1.83-2.265 3.863-2.738.3-.07-1.497 2.908-1.84 3.07-.416.192-.71 1.307-1.09 1.534-1.112.67-1.696 1.355-2.69 2.64-.173.222-4.045 4.813-6.642 6.373-2.326 1.398-3.99 1.85-6.57 2.01"/></g><path fill="#FFF" fill-rule="nonzero" stroke="#747474" stroke-width=".72" d="M100.944 37.282c.543-.148 1.39-.825 1.742-.892v2.803c-.127.024-1.232.355-1.606.45-.634.163-1.33.37-2.058.63"/></g><g><path stroke="#4A4A4A" stroke-width="2.88" d="M50.6 89.27c4.99 0 6.403-.143 10.933-.62 4.53-.475 4.737 3.433 10.89 2.786 6.153-.646 5.985-4.56 11.524-5.14 5.54-.583 7.206 2.127 11.19 1.71 3.984-.42 4.195-4.58 8.052-4.58"/><path fill="#FFF" fill-rule="nonzero" stroke="#747474" stroke-width=".72" d="M76.357 88.946c-1.402-.563-2.517-.703-4.25-.52-2.263.237-3.382.823-4.863 2.21-.09.084-.43.407-.51.48-1.52 1.425-2.695 2.087-4.7 2.298l-10.828.755v-2.32l10.605-.553c1.297-.136 1.99-.526 3.134-1.6.074-.068.415-.392.512-.482 1.86-1.742 3.496-2.6 6.428-2.907 2.654-.28 4.29.066 6.544 1.127m2.486.842c1.107.41 2.223.512 3.542.374 2.105-.22 6.07-2.333 6.3-2.468 1.532-.9 2.717-1.365 4.29-1.53 1.706-.18 2.22-1.238 3.978-.777.257.067-2.186 1.96-2.512 1.954-.392-.008-1.01.866-1.387.905-1.105.116-1.8.478-3.027 1.2-.212.124-4.844 2.562-7.42 2.833-2.308.242-3.767-.076-5.844-1.055m23.158-4.85c.43.173 1.278.07 1.545.208l-1.122 2.34c-.096-.05-.982-.378-1.275-.503-.497-.212-1.055-.418-1.655-.602"/></g><g><path stroke="#4A4A4A" stroke-width="2.88" d="M50.6 182.27c4.99 0 6.403-.143 10.932-.62 4.53-.475 4.738 3.434 10.89 2.787 6.154-.647 5.985-4.56 11.525-5.142 5.54-.582 7.205 2.13 11.19 1.71 3.983-.42 4.195-4.58 8.052-4.58"/><path fill="#FFF" fill-rule="nonzero" stroke="#747474" stroke-width=".72" d="M76.357 181.946c-1.402-.562-2.517-.703-4.25-.52-2.264.237-3.382.824-4.864 2.21l-.51.482c-1.52 1.424-2.695 2.086-4.7 2.297l-10.827.755v-2.32l10.605-.553c1.297-.136 1.988-.525 3.134-1.6l.512-.482c1.86-1.74 3.495-2.598 6.428-2.907 2.654-.28 4.29.067 6.544 1.127m2.486.843c1.107.41 2.223.512 3.54.373 2.107-.22 6.07-2.333 6.3-2.467 1.534-.902 2.718-1.366 4.29-1.53 1.708-.18 2.223-1.24 3.98-.778.257.068-2.187 1.96-2.513 1.955-.39-.007-1.01.866-1.385.906-1.105.116-1.8.478-3.027 1.2-.213.123-4.844 2.56-7.42 2.832-2.31.243-3.768-.076-5.844-1.055m23.158-4.85c.43.173 1.277.07 1.544.21l-1.12 2.338c-.098-.05-.983-.378-1.276-.502-.498-.212-1.055-.42-1.656-.603"/></g><use class="cable A fill" fill="#4A4A4A" xlink:href="#f"/><path stroke="#747474" d="M91.5 39.5v7h40.606v-7H91.5z"/><use class="cable B fill" fill="#D0021B" xlink:href="#g"/><path stroke="#747474" d="M91.5 87.5v7h40.55v-7H91.5z"/><use class="cable A fill" fill="#4A4A4A" xlink:href="#h"/><path stroke="#747474" d="M49.5 135.5v7h82.488v-7H49.5z"/><g transform="translate(73 70)"><mask id="j" fill="#fff"><use xlink:href="#i"/></mask><g mask="url(#j)"><g stroke="#747474" stroke-width=".512"><path fill="#DDD" d="M13.565 4.95s-.52-.716-1.224-.816c-.704-.1-13.075-.118-13.075-.118s-1.663.023-1.88 2.102c-.22 2.08-.142 4.843-.142 4.843s.194 1.77 2.022 1.89c1.828.12 13.03.095 13.03.095s1.248-.37 1.41-1.155"/><path fill="#F9F9F9" d="M10.647 11.84l-2.21 1.107"/><path fill="#DDD" d="M4.415 4.016s-1.33.502-1.34 2.03c-.012 1.53-.11 4.058-.118 4.915-.007.858.287 1.7 3.55 1.987"/><path fill="#F9F9F9" d="M-2.77 10.964l5.727-.405 4.93-.335"/><path fill="#DDD" d="M-.71 4.016s-.16-2.116.257-2.34c.417-.22 2.54-.448 2.54-.448L2.957 0 9.84.142l.15.45s2.734.147 2.915.188c.18.04.276 1.064-.023 1.18-.3.117-5.95.875-5.95.875s-.535.52-.424 1.18"/><path fill="#DDD" d="M-.335 4.016c-.035-.346.097-1.662.8-1.748.702-.087 5.702-.733 5.702-.733l6.908.142"/><path fill="#F9F9F9" d="M3.216 0l-.024 1.3S4.482.742 6.367.66c1.886-.08 3.74.005 3.74.005"/><path fill="#DDD" d="M7.825 7.07L3.05 6.047l-5.666.095M12.388 4.96c-.47-.03-1.693-.074-1.693-.074S8.597 5.034 7.85 7.07c-.75 2.035.194 3.913 1.99 4.734.173.08 3.37 0 3.37 0"/></g></g></g><path fill="#DDD" stroke="#747474" stroke-width=".512" d="M88.327 75.93c-.66-.77-2-1.234-2.94-.97-.94.266-2.68 1.517-2.54 3.71.14 2.192 2.143 3.18 3.34 3.118 1.5-.077 2.14-1.04 2.14-1.04"/><g transform="translate(251 17)"><g transform="rotate(-90 77 61)"><path stroke="#747474" stroke-width=".5" d="M.03 1.5h40.05v6.595h-6.83l-.225.405H6.908l-.13-.505H0z"/><path fill="#F9F9F9" d="M1.012 0H7.59v20H1.012zM34.41 0h6.578v20H34.41z"/><path stroke="#747474" stroke-width=".5" d="M7.994.027L1.012.033v36.01c0 1.12.685 1.84 1.718 1.84h37.078c.837 0 1.61-1.225 1.61-1.84L41.37 0l-7.145.006"/><path stroke="#747474" stroke-width=".5" d="M1.518.033v35.48c0 1.12.685 1.84 1.718 1.84h36.212c.837 0 1.61-1.225 1.61-1.84L41.01 0"/><path stroke="#747474" stroke-width=".5" d="M7.59.03v30.796c0 .97.474 1.598 1.188 1.598h25.03c.578 0 1.113-1.064 1.113-1.6L34.886 0"/><ellipse cx="4.698" cy="3.136" stroke="#747474" stroke-width=".5" rx="1" ry="1"/><ellipse cx="38.095" cy="3.136" stroke="#747474" stroke-width=".5" rx="1" ry="1"/><path stroke="#747474" stroke-width=".5" d="M8.096.028v30.294c0 .956.453 1.572 1.134 1.572h23.9c.553 0 1.064-1.047 1.064-1.573L34.16 0M18.723 38l.718.865v1.12"/></g><g transform="rotate(-90 53 37)"><path stroke="#747474" stroke-width=".5" d="M.03 1.5h40.05v6.595h-6.83l-.225.405H6.908l-.13-.505H0z"/><path fill="#F9F9F9" d="M1.012 0H7.59v20H1.012zM34.41 0h6.578v20H34.41z"/><path stroke="#747474" stroke-width=".5" d="M7.994.027L1.012.033v36.01c0 1.12.685 1.84 1.718 1.84h37.078c.837 0 1.61-1.225 1.61-1.84L41.37 0l-7.145.006"/><path stroke="#747474" stroke-width=".5" d="M1.518.033v35.48c0 1.12.685 1.84 1.718 1.84h36.212c.837 0 1.61-1.225 1.61-1.84L41.01 0"/><path stroke="#747474" stroke-width=".5" d="M7.59.03v30.796c0 .97.474 1.598 1.188 1.598h25.03c.578 0 1.113-1.064 1.113-1.6L34.886 0"/><ellipse cx="4.698" cy="3.136" stroke="#747474" stroke-width=".5" rx="1" ry="1"/><ellipse cx="38.095" cy="3.136" stroke="#747474" stroke-width=".5" rx="1" ry="1"/><path stroke="#747474" stroke-width=".5" d="M8.096.028v30.294c0 .956.453 1.572 1.134 1.572h23.9c.553 0 1.064-1.047 1.064-1.573L34.16 0M18.723 38l.718.865v1.12M23.912 38l-.635.803v1.143M19.735 38l.815.915v1.05M22.957 38l-.692.926v.97"/></g><g transform="rotate(-90 29 13)"><path stroke="#747474" stroke-width=".5" d="M.03 1.5h40.05v6.595h-6.83l-.225.405H6.908l-.13-.505H0z"/><path fill="#F9F9F9" d="M1.012 0H7.59v20H1.012zM34.41 0h6.578v20H34.41z"/><path stroke="#747474" stroke-width=".5" d="M7.994.027L1.012.033v36.01c0 1.12.685 1.84 1.718 1.84h37.078c.837 0 1.61-1.225 1.61-1.84L41.37 0l-7.145.006"/><path stroke="#747474" stroke-width=".5" d="M1.518.033v35.48c0 1.12.685 1.84 1.718 1.84h36.212c.837 0 1.61-1.225 1.61-1.84L41.01 0"/><path stroke="#747474" stroke-width=".5" d="M7.59.03v30.796c0 .97.474 1.598 1.188 1.598h25.03c.578 0 1.113-1.064 1.113-1.6L34.886 0"/><ellipse cx="4.698" cy="3.136" stroke="#747474" stroke-width=".5" rx="1" ry="1"/><ellipse cx="38.095" cy="3.136" stroke="#747474" stroke-width=".5" rx="1" ry="1"/><path stroke="#747474" stroke-width=".5" d="M8.096.028v30.294c0 .956.453 1.572 1.134 1.572h23.9c.553 0 1.064-1.047 1.064-1.573L34.16 0M18.723 38l.718.865v1.12M23.912 38l-.635.803v1.143M19.735 38l.815.915v1.05M22.957 38l-.692.926v.97"/></g><use class="cable A fill" fill="#4A4A4A" xlink:href="#k"/><path stroke="#747474" d="M.5 22.5v7h16.43v-7H.5z"/><use class="cable B fill" fill="#D0021B" xlink:href="#l"/><path stroke="#747474" d="M.5 70.5v7h16.474v-7H.5z"/><g><use class="cable A fill" fill="#4A4A4A" xlink:href="#m"/><path stroke="#747474" d="M.5 118.5v7h16.457v-7H.5z"/></g></g><g><path stroke="#4A4A4A" stroke-width="3.2" d="M342.038 89.888l-7.034-1.24c-3.18-.56-3.61 2.702-7.93 1.94-4.318-.76-3.915-4.03-7.804-4.715-3.888-.686-5.266 1.523-8.062 1.03-2.797-.493-5.018-2.952-5.018-2.952"/><path fill="#FFF" fill-rule="nonzero" stroke="#747474" stroke-width=".8" d="M324.464 88.364c1.035-.42 1.837-.5 3.054-.284 1.588.28 2.34.81 3.29 2.024l.328.42c.975 1.247 1.76 1.843 3.168 2.092l7.035 1.24.31-1.764-7.035-1.24c-.91-.16-1.372-.51-2.107-1.45-.047-.06-.267-.344-.33-.423-1.193-1.525-2.29-2.3-4.35-2.664-1.862-.328-3.05-.098-4.724.71m-1.825.615c-.816.304-1.615.35-2.54.186-1.478-.26-4.14-2.17-4.29-2.29-1.024-.81-1.83-1.24-2.935-1.435-1.198-.21-2.465-.11-3.745.212-.187.048 1.912 1.487 1.912 1.487s.476-.024.708-.017c.278.008.55.035.814.08.776.138 1.347.443 2.165 1.09.14.112 3.25 2.318 5.058 2.637 1.62.286 2.68.072 4.223-.673m-16.33-3.82c-.32.13-.582.254-.78.36l.796 1.588c.072-.04.223-.112.44-.205.368-.16.778-.313 1.217-.445"/></g><g><path stroke="#4A4A4A" stroke-width="3.2" d="M341.388 76.073c-2.925 0-5.146-4.37-8.05-7.955-2.902-3.585-5.33-1.356-9.273-6.226-3.944-4.87-1.542-7.13-5.093-11.515-3.55-4.384-6.302-3.945-8.855-7.1-2.554-3.152-3.323-7.337-3.323-7.337"/><path fill="#FFF" fill-rule="nonzero" stroke="#747474" stroke-width=".8" d="M322.756 57.514c1.313.677 2.178 1.402 3.29 2.774 1.45 1.792 1.892 2.962 2.124 4.884l.077.665c.236 1.972.675 3.23 1.96 4.817 0 0 7.8 9.154 10.958 10.607v-2.036l-9.566-9.697c-.832-1.026-1.09-1.766-1.268-3.253-.01-.095-.062-.54-.078-.666-.29-2.414-.938-4.126-2.818-6.447-1.7-2.1-3.052-3.08-5.253-4.073m-2.237-1.296c-1.017-.555-1.86-1.304-2.706-2.348-1.35-1.666-2.9-5.837-2.983-6.086-.55-1.664-1.112-2.808-2.12-4.053-1.094-1.35-2.447-2.517-3.95-3.514-.22-.147 1.045 3.09 1.045 3.09s.5.45.733.683c.28.28.54.57.78.867.71.875 1.106 1.684 1.547 3.016.076.23 1.906 5.084 3.557 7.123 1.478 1.826 2.69 2.694 4.718 3.608m-14.34-19.18c-.404-.206-.748-.365-1.016-.475l-.153 2.075c.095.04.293.128.572.265.473.234.985.513 1.514.838"/></g><use class="cable A fill" fill="#4A4A4A" xlink:href="#n"/><path stroke="#747474" d="M276.183 39.5v7h43.12v-7h-43.12z"/><use class="cable B fill" fill="#D0021B" xlink:href="#o"/><path stroke="#747474" d="M275.985 87.5v7h43.32v-7h-43.32z"/><g transform="translate(365 70)"><mask id="q" fill="#fff"><use xlink:href="#p"/></mask><g mask="url(#q)"><g stroke="#747474" stroke-width=".512"><path fill="#F9F9F9" d="M15.327 5.93c-.66-.77-2-1.234-2.94-.97-.94.266-2.68 1.517-2.54 3.71.14 2.192 2.143 3.18 3.34 3.118 1.5-.077 2.14-1.04 2.14-1.04"/><path fill="#DDD" d="M13.565 4.95s-.52-.716-1.224-.816c-.704-.1-13.075-.118-13.075-.118s-1.663.023-1.88 2.102c-.22 2.08-.142 4.843-.142 4.843s.194 1.77 2.022 1.89c1.828.12 13.03.095 13.03.095s1.248-.37 1.41-1.155"/><path fill="#F9F9F9" d="M10.647 11.84l-2.21 1.107"/><path fill="#DDD" d="M4.415 4.016s-1.33.502-1.34 2.03c-.012 1.53-.11 4.058-.118 4.915-.007.858.287 1.7 3.55 1.987"/><path fill="#F9F9F9" d="M-2.77 10.964l5.727-.405 4.93-.335"/><path fill="#DDD" d="M-.71 4.016s-.16-2.116.257-2.34c.417-.22 2.54-.448 2.54-.448L2.957 0 9.84.142l.15.45s2.734.147 2.915.188c.18.04.276 1.064-.023 1.18-.3.117-5.95.875-5.95.875s-.535.52-.424 1.18"/><path fill="#DDD" d="M-.335 4.016c-.035-.346.097-1.662.8-1.748.702-.087 5.702-.733 5.702-.733l6.908.142"/><path fill="#F9F9F9" d="M3.216 0l-.024 1.3S4.482.742 6.367.66c1.886-.08 3.74.005 3.74.005M7.825 7.07L3.05 6.047l-5.666.095"/><path fill="#DDD" d="M12.388 4.96c-.47-.03-1.693-.074-1.693-.074S8.597 5.034 7.85 7.07c-.75 2.035.194 3.913 1.99 4.734.173.08 3.37 0 3.37 0"/></g></g></g><g><g transform="translate(101 161) rotate(90 20 20)"><path stroke="#747474" stroke-width=".5" d="M.03 1.5h40.05v6.595h-6.83l-.225.405H6.908l-.13-.505H0z"/><path fill="#F9F9F9" d="M.012 0H6.59v20H.012zM33.41 0h6.578v20H33.41z"/><path stroke="#747474" stroke-width=".5" d="M6.994.027L.012.033v36.01c0 1.12.685 1.84 1.718 1.84h37.078c.837 0 1.61-1.225 1.61-1.84L40.37 0l-7.145.006"/><path stroke="#747474" stroke-width=".5" d="M.518.033v35.48c0 1.12.685 1.84 1.718 1.84h36.212c.837 0 1.61-1.225 1.61-1.84L40.01 0"/><path stroke="#747474" stroke-width=".5" d="M6.59.03v30.796c0 .97.474 1.598 1.188 1.598h25.03c.578 0 1.113-1.064 1.113-1.6L33.886 0"/><ellipse cx="3.698" cy="3.136" stroke="#747474" stroke-width=".5" rx="1" ry="1"/><ellipse cx="37.095" cy="3.136" stroke="#747474" stroke-width=".5" rx="1" ry="1"/><path stroke="#747474" stroke-width=".5" d="M7.096.028v30.294c0 .956.453 1.572 1.134 1.572h23.9c.553 0 1.064-1.047 1.064-1.573L33.16 0M17.723 38l.718.865v1.12M22.912 38l-.635.803v1.143M18.735 38l.815.915v1.05M21.957 38l-.692.926v.97"/></g><g transform="translate(101 161) translate(38 22)"><use class="cable B fill" fill="#D0021B" xlink:href="#r"/><path stroke="#747474" d="M.91.5v7H15.5v-7H.91z"/></g></g><path fill="#DDD" stroke="#747474" stroke-width=".512" d="M380.293 71.88s-.89 4.075-2.317 4.096c-2.956.044-2.632 4.796.047 4.796h2.686"/><g stroke="#747474" transform="rotate(90 116.31 268.51)"><path stroke-width=".9" d="M19.393 35.14l-1.605 1.41m3.21-1.106l-3.21 2.215m3.21-.324h-3.026m5.318-1.892l-1.467 1.107m2.934-.704l-2.72 1.813m2.72-.864h-1.75m1.75.54h-2.72m-3.446 3.46s-.32-1.572.895-1.568c1.214.004 1.542.567 1.513 1.292-.03.725-.264 1.213-1.027 1.2-.763-.013-1.418-.188-1.38-.923zm5.29-1.568c-.935-.077-1.237.488-1.324 1.292-.086.804.37 1.24 1.325 1.2.957-.04 1.54-.756 1.427-1.2-.113-.443-.32-1.2-1.426-1.292zM21 41.114h1.556"/><path stroke-width=".9" d="M18.943 41.166s-.02-1.286 1.028-1.107c.777.13.59.744.57 1.106m2.442 0s.147-1.263.9-1.124c.752.14 1.084.758.875 1.124m-5 .646s2.327-.134 2.016 1.385c-.31 1.52-1.394 1.926-2.015 1.846-.62-.08-1.85-.87-1.786-1.846.063-.976.65-1.454 1.786-1.385zm4.177-.092s1.583-.117 1.557 1.71c-.026 1.825-.928 1.535-1.59 1.622-.66.088-1.804-.52-1.864-1.996-.06-1.476 1.29-1.3 1.898-1.244"/><path stroke-width=".9" d="M16.138 40.797l-.183 5.17h9.72l.366-10.523-9.902-.37v5.723h2.384"/><path stroke-width=".9" d="M17.935 35.14l-.147 3.442h3.21v-3.138M21.823 35.444l.213 3.138h2.72v-3.138M32.413 35.14l-1.604 1.41m3.208-1.106l-3.21 2.215m3.21-.324h-3.026m5.318-1.892l-1.467 1.107m2.934-.704l-2.72 1.813m2.72-.864h-1.75m1.75.54h-2.72m-3.446 3.46s-.32-1.572.895-1.568c1.214.004 1.543.567 1.513 1.292-.03.725-.263 1.213-1.027 1.2-.763-.013-1.417-.188-1.38-.923zm5.292-1.568c-.937-.077-1.238.488-1.325 1.292-.087.804.37 1.24 1.325 1.2.955-.04 1.54-.756 1.426-1.2-.114-.443-.32-1.2-1.426-1.292zm-2.882 1.886h1.557"/><path stroke-width=".9" d="M31.964 41.166s-.022-1.286 1.027-1.107c.778.13.59.744.57 1.106m2.443 0s.147-1.263.9-1.124c.75.14 1.083.758.874 1.124m-4.998.646s2.324-.134 2.013 1.385c-.31 1.52-1.394 1.926-2.014 1.846-.622-.08-1.85-.87-1.788-1.846.063-.976.65-1.454 1.787-1.385zm4.174-.092s1.583-.117 1.557 1.71c-.025 1.825-.928 1.535-1.59 1.622-.66.088-1.804-.52-1.864-1.996-.06-1.476 1.29-1.3 1.898-1.244"/><path stroke-width=".9" d="M29.158 40.797l-.183 5.17h9.72l.366-10.523-9.902-.37v5.723h2.384"/><path stroke-width=".9" d="M30.955 35.14l-.146 3.442h3.208v-3.138M34.843 35.444l.213 3.138h2.72v-3.138M45.617 35.14l-1.604 1.41m3.21-1.106l-3.21 2.215m3.21-.324h-3.027m5.318-1.892l-1.467 1.107m2.934-.704l-2.72 1.813m2.72-.864h-1.75m1.75.54h-2.72m-3.445 3.46s-.32-1.572.894-1.568c1.213.004 1.54.567 1.512 1.292-.03.725-.263 1.213-1.027 1.2-.764-.013-1.42-.188-1.38-.923zm5.29-1.568c-.936-.077-1.238.488-1.324 1.292-.086.804.37 1.24 1.326 1.2.955-.04 1.538-.756 1.425-1.2-.112-.443-.317-1.2-1.424-1.292zm-2.88 1.886h1.556"/><path stroke-width=".9" d="M45.167 41.166s-.02-1.286 1.028-1.107c.776.13.588.744.568 1.106m2.444 0s.146-1.263.9-1.124c.75.14 1.083.758.874 1.124m-4.998.646s2.326-.134 2.015 1.385c-.31 1.52-1.394 1.926-2.015 1.846-.62-.08-1.85-.87-1.786-1.846.063-.976.65-1.454 1.786-1.385zm4.176-.092s1.583-.117 1.557 1.71c-.026 1.825-.93 1.535-1.59 1.622-.662.088-1.805-.52-1.865-1.996-.06-1.476 1.29-1.3 1.898-1.244"/><path stroke-width=".9" d="M42.362 40.797l-.183 5.17h9.718l.367-10.523-9.903-.37v5.723h2.384"/><path stroke-width=".9" d="M44.16 35.14l-.147 3.442h3.21v-3.138M48.047 35.444l.213 3.138h2.72v-3.138M46.397 11.63c-.84.268-2.08 1.456-2.08 4.043 0 2.586 2.778 3.895 4.647 3.895 1.87 0 4.4-1.616 4.4-3.895 0-2.28-1.833-4.228-1.833-4.228M15.22 57.227l1.773 2.954h.487l1.775-2.4-.733-.184-1.284 1.662-1.283-2.03zM20.356 57.965v2.585l.733.184 2.2.185v-.37l-2.2-.185v-.554l2.017-.183v-.37l-2.2-.184.182-.738 2.2.184v-.37zM24.757 60.92h.734v-.924h1.1l.735 1.108h.733l-.733-1.108s.727-.133.733-.738c.006-.606-.582-.883-1.1-.923-.52-.04-2.2 0-2.2 0v2.584z"/><path stroke-width=".9" d="M25.49 58.704v.923s1.232.083 1.468.083c.235 0 .53-1.006-.184-1.006H25.49zm3.852-.185v2.768h2.567c.49 0 1.458-.74 1.466-1.477.008-.735-.886-1.28-1.467-1.29-.582-.01-2.568 0-2.568 0z"/><path stroke-width=".9" d="M30.075 58.888v2.03h1.834c.36 0 .996-2.03 0-2.03h-1.835zM34.385 58.704l.093 2.584h.915v-2.584zM38.694 58.514c-.5 0-2.292.17-2.292 1.196 0 1.027 1.04 1.578 2.292 1.578 1.254 0 1.65-.554 1.65-.554l.184-.738h-.917v.738h-1.937s-.262-.114-.262-.833c0-.718.76-.823 1.284-.827.525-.004 1.284 0 1.284 0v-.37s-.782-.19-1.284-.19zm2.935 0v2.59l.365.184.55-.184v-.923h.734l.916.924h1.1l-.917-.923s.733-.322.733-.738-.154-.928-1.834-.928h-1.65z"/><path stroke-width=".9" d="M42.362 58.888v.822h1.65c.237 0 .55-.822 0-.822h-1.65M46.397 58.514h1v2.59h-1zM50.43 57.78c-.37 0-2.016.137-2.016.924 0 .786.79.738 1.467.738.678 0 1.317.74 0 .74-1.315 0-2.347.737 0 .737 1.084 0 1.65-.61 1.65-1.11 0-.5-.628-.737-1.65-.737-1.02 0-.58-.756.55-.756s1.274-.536 0-.536zM13.755 18.646l.183-6.277h3.3s-.088-1.694 1.285-1.66c1.373.03 6.776-.164 7.52 0 .742.16 1.3.832 1.282 1.845-.016 1.012-.366 6.46-.366 6.46s-.04 1.952-.917 1.662"/><path stroke-width=".9" d="M20.54 20.675c.26-2.002 0-5.002 0-5.002s2.8-1.51 2.933 0c.132 1.51 0 5.002 0 5.002m-4.67-11.752v11.752M25.49 8.923l-.183 1.718.367 10.035M16.505 10.64l.733 1.728.242 8.307"/><ellipse cx="34.385" cy="25.766" stroke-width=".9" rx="5.96" ry="4.139"/><path stroke-width=".9" d="M31.57 29.415c1.037-.942 4.652-1.276 6.103-.197M.55 35.444s-.198 7.582.55 13.476c.75 5.893 1.605 9.29 5.87 12.922 4.262 3.633 6.442 4.292 13.57 4.984 7.127.693 25.11.85 30.074-.184 4.964-1.034 8.565-1.694 11.004-4.43 2.438-2.738 5.21-7.392 6.05-12.073.842-4.683 1.003-20.235 1.003-20.235M16.506 10.89h-3.668l-.183 7.755 3.85.184s-.29 1.5 3.302 1.66c3.59.16 6.05.185 6.05.185s2.25-.596 2.385-2.03c.138-1.434.185-7.57.185-7.57s-.45-1.75-2.568-2.03c-2.117-.28-6.308.008-7.335 0-1.028-.008-1.88 1.342-2.017 1.846z"/><path stroke-width=".9" d="M46.03 1.846c-.167.266-14.022-.872-22.932-.3-10.57.676-16.29 3.65-17.985 8.063-.976 2.54-2.16 4.49-2.73 15.127-.682 12.774 1.17 20.178 9.354 22.89 8.183 2.713 34.07 3.164 39.978 1.662 5.91-1.503 12.116-2.523 14.12-13.477C67.84 24.86 66.19 11.118 62.718 7.2c-3.47-3.92-11.003-4.8-11.003-4.8"/><path stroke-width=".9" d="M22.32.817C11.03 1.537 5.12 6.084 3.657 9.4 2.487 12.05.8 14.18.192 25.5c-.73 13.598 2.376 21.414 9.992 24.366 8.586 3.327 36.396 2.998 42.708 1.4 6.312-1.6 12.576-2.316 14.718-13.975 2.142-11.66 1.043-25.91-3.33-29.9-4.12-3.76-12.672-5.48-12.672-5.48-.178.285-19.77-1.7-29.288-1.093z"/><g stroke-width=".54"><path d="M18.31 33.42l.46.148c-.07.26-.187.452-.352.578-.165.127-.375.19-.628.19-.314 0-.572-.108-.774-.324-.202-.216-.303-.51-.303-.885 0-.396.102-.704.305-.923.203-.22.47-.328.8-.328.29 0 .525.086.705.258.108.1.188.247.242.438l-.472.113c-.028-.123-.087-.22-.175-.292-.09-.07-.197-.107-.323-.107-.175 0-.318.063-.427.19-.11.127-.163.332-.163.615 0 .302.054.516.16.643.108.128.248.192.42.192.127 0 .236-.04.327-.122.09-.08.157-.21.197-.383zM19.713 34.295V32.32h-.702v-.404h1.88v.403h-.7v1.975zM22.256 34.295h-.453v-1.718c-.165.155-.36.27-.585.345v-.413c.118-.04.247-.114.385-.223.14-.11.234-.235.286-.38h.366v2.388z"/></g><g stroke-width=".54"><path d="M31.248 33.34l.463.147c-.07.26-.188.453-.353.58-.165.125-.374.188-.628.188-.314 0-.572-.108-.774-.324-.202-.215-.303-.51-.303-.884 0-.396.1-.703.304-.922.203-.22.47-.33.8-.33.29 0 .525.087.706.26.107.1.188.247.242.437l-.473.115c-.028-.124-.086-.22-.175-.292-.088-.072-.196-.108-.323-.108-.175 0-.317.064-.426.19-.11.127-.164.332-.164.615 0 .3.054.515.16.643.11.128.25.19.42.19.127 0 .236-.04.328-.12.09-.08.156-.21.196-.383zM32.652 34.214v-1.976h-.7v-.402h1.877v.402h-.7v1.976zM35.566 33.79v.424H33.98c.016-.16.067-.312.153-.455.086-.144.256-.334.51-.57.204-.193.33-.323.375-.39.063-.095.094-.188.094-.28 0-.1-.027-.18-.082-.234-.054-.055-.13-.082-.224-.082-.095 0-.17.03-.226.086-.056.057-.088.152-.097.285l-.45-.045c.026-.25.11-.43.252-.54.142-.11.32-.164.532-.164.233 0 .416.063.55.19.133.126.2.284.2.472 0 .107-.02.21-.058.306-.04.097-.1.198-.182.304-.055.07-.154.17-.297.303-.142.133-.232.22-.27.264-.04.043-.07.086-.093.127h.9z"/></g><g stroke-width=".54"><path d="M44.61 33.42l.462.148c-.07.26-.19.452-.354.578-.165.127-.374.19-.628.19-.314 0-.572-.108-.774-.324-.202-.216-.303-.51-.303-.885 0-.396.102-.704.305-.923.203-.22.47-.328.8-.328.29 0 .525.086.705.258.108.1.188.247.242.438l-.472.113c-.028-.123-.086-.22-.175-.292-.09-.07-.196-.107-.323-.107-.175 0-.317.063-.426.19-.11.127-.165.332-.165.615 0 .302.054.516.16.643.11.128.248.192.42.192.127 0 .236-.04.327-.122.092-.08.157-.21.197-.383zM46.013 34.295V32.32h-.7v-.404h1.876v.403h-.7v1.975h-.477zM47.38 33.664l.44-.054c.014.113.05.2.113.258.06.06.135.09.222.09.094 0 .172-.036.236-.108.065-.07.097-.167.097-.288 0-.115-.03-.206-.092-.273-.06-.068-.136-.102-.224-.102-.057 0-.126.012-.207.034l.05-.37c.123.002.216-.025.28-.08.065-.058.097-.134.097-.228 0-.08-.023-.144-.07-.19-.048-.05-.11-.073-.19-.073-.077 0-.143.03-.197.082-.055.054-.088.134-.1.237l-.418-.072c.03-.144.073-.26.132-.345.058-.086.14-.153.245-.203.104-.05.222-.073.352-.073.222 0 .4.07.535.214.11.118.165.25.165.397 0 .208-.113.375-.34.5.135.03.243.094.324.196.08.1.12.224.12.368 0 .21-.074.388-.226.535-.152.147-.34.22-.566.22-.214 0-.39-.06-.532-.185-.14-.124-.222-.286-.245-.486z"/></g><ellipse cx="24.463" cy="33.195" stroke-width=".9" rx="1" ry="1"/><ellipse cx="37.483" cy="33.195" stroke-width=".9" rx="1" ry="1"/><ellipse cx="50.687" cy="33.38" stroke-width=".9" rx="1" ry="1"/></g><g><path stroke="#4A4A4A" stroke-width="3.2" d="M342.04 183.887l-7.036-1.24c-3.18-.56-3.61 2.702-7.928 1.94-4.32-.76-3.917-4.03-7.805-4.715-3.887-.685-5.265 1.524-8.062 1.03-2.796-.492-5.018-2.952-5.018-2.952"/><path fill="#FFF" fill-rule="nonzero" stroke="#747474" stroke-width=".8" d="M324.465 182.363c1.035-.42 1.836-.498 3.053-.284 1.59.28 2.34.81 3.29 2.023.06.074.277.356.328.42.975 1.247 1.76 1.844 3.17 2.092l7.033 1.24.31-1.763-7.034-1.24c-.91-.16-1.373-.512-2.108-1.45l-.328-.424c-1.194-1.524-2.292-2.3-4.35-2.663-1.864-.328-3.05-.098-4.725.71m-1.825.615c-.815.304-1.614.35-2.54.186-1.478-.26-4.138-2.17-4.29-2.292-1.024-.81-1.83-1.24-2.934-1.434-1.2-.21-2.465-.112-3.745.212-.187.047 1.913 1.487 1.913 1.487s.476-.025.708-.018c.28.008.55.035.815.082.775.136 1.346.44 2.164 1.088.14.113 3.25 2.318 5.06 2.637 1.62.285 2.678.07 4.222-.674"/></g><g><path stroke="#4A4A4A" stroke-width="3.2" d="M341.302 170.966c-2.926 0-5.147-4.37-8.05-7.955-2.903-3.584-5.33-1.355-9.274-6.226-3.944-4.87-1.542-7.13-5.092-11.514-3.55-4.384-6.303-3.946-8.856-7.1-2.554-3.152-3.323-7.338-3.323-7.338"/><path fill="#FFF" fill-rule="nonzero" stroke="#747474" stroke-width=".8" d="M322.67 152.406c1.312.677 2.177 1.403 3.288 2.775 1.45 1.792 1.894 2.963 2.125 4.885l.078.665c.236 1.972.675 3.23 1.96 4.817 0 0 7.8 9.154 10.958 10.607v-2.038l-9.566-9.696c-.83-1.026-1.09-1.766-1.267-3.253l-.077-.667c-.29-2.413-.94-4.125-2.818-6.446-1.7-2.1-3.053-3.08-5.254-4.074m-2.237-1.296c-1.018-.556-1.86-1.306-2.706-2.35-1.35-1.666-2.9-5.836-2.983-6.085-.55-1.665-1.11-2.81-2.12-4.054-1.093-1.35-2.447-2.517-3.95-3.514-.22-.146 1.046 3.09 1.046 3.09s.5.45.732.683c.28.28.54.57.78.868.71.875 1.106 1.684 1.547 3.016.076.23 1.906 5.083 3.557 7.12 1.48 1.83 2.69 2.696 4.72 3.61m-14.342-19.178c-.403-.207-.747-.366-1.015-.476l-.153 2.074c.097.04.295.13.573.266.473.233.985.513 1.514.838"/></g><g transform="translate(251 161)"><g transform="rotate(-90 29 13)"><path stroke="#747474" stroke-width=".5" d="M.03 1.5h40.05v6.595h-6.83l-.225.405H6.908l-.13-.505H0z"/><path fill="#F9F9F9" d="M1.012 0H7.59v20H1.012zM34.41 0h6.578v20H34.41z"/><path stroke="#747474" stroke-width=".5" d="M7.994.027L1.012.033v36.01c0 1.12.685 1.84 1.718 1.84h37.078c.837 0 1.61-1.225 1.61-1.84L41.37 0l-7.145.006"/><path stroke="#747474" stroke-width=".5" d="M1.518.033v35.48c0 1.12.685 1.84 1.718 1.84h36.212c.837 0 1.61-1.225 1.61-1.84L41.01 0"/><path stroke="#747474" stroke-width=".5" d="M7.59.03v30.796c0 .97.474 1.598 1.188 1.598h25.03c.578 0 1.113-1.064 1.113-1.6L34.886 0"/><ellipse cx="4.698" cy="3.136" stroke="#747474" stroke-width=".5" rx="1" ry="1"/><ellipse cx="38.095" cy="3.136" stroke="#747474" stroke-width=".5" rx="1" ry="1"/><path stroke="#747474" stroke-width=".5" d="M8.096.028v30.294c0 .956.453 1.572 1.134 1.572h23.9c.553 0 1.064-1.047 1.064-1.573L34.16 0M18.723 38l.718.865v1.12M23.912 38l-.635.803v1.143M19.735 38l.815.915v1.05M22.957 38l-.692.926v.97"/></g><use class="cable B fill" fill="#D0021B" xlink:href="#t"/><path stroke="#747474" d="M.5 22.5v7h16.43v-7H.5z"/></g><use class="cable B fill" fill="#D0021B" xlink:href="#u"/><path stroke="#747474" d="M275.5 183.5v7h53v-7h-53z"/><g><path fill="#F9F9F9" fill-rule="nonzero" stroke="#747474" stroke-width=".5" d="M370.605 108.77c7.37 4.474 10.85 47.92 7.354 62.103 0 0-.2 6.954.44 7.264.64.31 6.07-1.025 6.522-5.88.183-1.968 1.022-15.518 0-28.875-1.02-13.356-5.836-40.75-12.57-40.75"/><g transform="translate(365 102) translate(0 64.5)"><mask id="w" fill="#fff"><use xlink:href="#v"/></mask><g mask="url(#w)"><g fill="#F9F9F9" stroke="#747474" stroke-width=".512"><path d="M13.565 4.95s-.52-.716-1.224-.816c-.704-.1-13.075-.118-13.075-.118s-1.663.023-1.88 2.102c-.22 2.08-.142 4.843-.142 4.843s.194 1.77 2.022 1.89c1.828.12 13.03.095 13.03.095s1.248-.37 1.41-1.155m-3.058.05l-2.21 1.107"/><path d="M4.415 4.016s-1.33.502-1.34 2.03c-.012 1.53-.11 4.058-.118 4.915-.007.858.287 1.7 3.55 1.987"/><path d="M-2.77 10.964l5.727-.405 4.93-.335M-.71 4.016s-.16-2.116.257-2.34c.417-.22 2.54-.448 2.54-.448L2.957 0 9.84.142l.15.45s2.734.147 2.915.188c.18.04.276 1.064-.023 1.18-.3.117-5.95.875-5.95.875s-.535.52-.424 1.18"/><path d="M-.335 4.016c-.035-.346.097-1.662.8-1.748.702-.087 5.702-.733 5.702-.733l6.908.142M3.215 0l-.023 1.3S4.482.742 6.367.66c1.886-.08 3.74.005 3.74.005M7.825 7.07L3.05 6.047l-5.666.095M12.388 4.96c-.47-.03-1.693-.074-1.693-.074S8.597 5.034 7.85 7.07c-.75 2.035.194 3.913 1.99 4.734.173.08 3.37 0 3.37 0"/></g></g></g></g><g fill="#F9F9F9" stroke="#747474" stroke-width=".64"><path d="M374.493 252.252c-1.2-.454-2.96-.154-3.83.714-.87.868-2.01 3.32-.505 5.675s4.315 2.233 5.594 1.435c1.603-1 1.713-2.46 1.713-2.46"/><path d="M371.95 252.237s-1.013-.48-1.85-.162c-.835.318-14.45 7.838-14.45 7.838s-1.812 1.04-.77 3.486c1.04 2.445 2.83 5.473 2.83 5.473s1.307 1.85 3.39.87c2.084-.98 14.384-7.836 14.384-7.836s1.144-1.174.84-2.145"/><path d="M377 250.862s-3.507 1.983-5.064 2.876c-3.223 1.85.064 6.94 3.01 5.307 2.945-1.633 5.762-3.263 5.762-3.263m-7.716 5.898l-1.748 2.58m-9.93-7.486s-1.15 1.37-.22 3.077c.93 1.71 2.38 4.582 2.9 5.54.52.958 1.364 1.715 5.13.046"/><path d="M357.698 268.885l7.914-4.976 6.82-4.268M355.677 259.9s-1.48-2.26-1.158-2.76c.32-.503 2.515-2.048 2.515-2.048l.2-1.897 7.655-4.037.44.408s3.1-1.502 3.323-1.567c.224-.066.96 1.015.703 1.328-.258.312-6.003 4.598-6.003 4.598s-.268.906.263 1.572"/><path d="M356.09 259.67c-.25-.363-.916-1.91-.198-2.433.72-.524 5.818-4.29 5.818-4.29l7.683-4.052m-11.874 4.142l.774 1.46s1.074-1.405 3.098-2.645c2.023-1.24 4.114-2.274 4.114-2.274m-9.683 9.62l7.78-3.722m-7.765 2.213l7.49-3.564M370.71 256.132l-7.63 2.618-8.182 4.684"/></g><path fill="#F9F9F9" stroke="#747474" stroke-width=".64" d="M376.378 257.5c.575 0 13.122-2.85 13.122-33.51 0-30.66-20.984-25.343-21.255-25.343-.27 0-.745 1.686-.745 2.71 0 1.026.353 2.776.662 2.776.143 0 16.002-4.392 16.002 19.856 0 24.247-7.56 27.742-8.216 27.742"/><g fill="#FFF" fill-rule="nonzero" stroke="#747474" stroke-width=".72"><path d="M100.945 181.283c.542-.15 1.39-.826 1.742-.893v2.803c-.128.024-1.233.355-1.606.45-.633.163-1.328.372-2.058.63"/></g><g><use class="cable B fill" fill="#D0021B" xlink:href="#x"/><path stroke="#747474" d="M88.985 183.5v7h43.12v-7h-43.12z"/></g><text fill="#FFF" fill-opacity=".32" font-family="AvenirNext-Regular, Avenir Next" font-size="18"><tspan x="154" y="277">D0021B</tspan></text><path fill="#F9F9F9" fill-rule="nonzero" stroke="#747474" stroke-width=".5" d="M91.003 174.905c4.7-2.07 7.272-4.41 7.718-7.02.67-3.91 1.183-7.267.457-11.453-4.505-25.974-10.94-52.384-19.35-54.06 0 0-1.806-.436-1.806 2.23 0 2.668.83 2.673.83 2.673 2.045.407 5.36 5.9 8.32 14.895 3.128 9.506 4.23 21.424 6.71 32.176 3.153 13.68-2.877 15.44-2.877 15.44l.576-.565"/><path fill="#F9F9F9" fill-rule="nonzero" stroke="#747474" stroke-width=".5" d="M91.003 174.905c4.7-2.07 7.272-4.41 7.718-7.02.67-3.91 1.183-7.267.457-11.453-4.505-25.974-10.94-52.384-19.35-54.06 0 0-1.806-.436-1.806 2.23 0 2.668.83 2.673.83 2.673 2.045.407 5.36 5.9 8.32 14.895 3.128 9.506 4.23 21.424 6.71 32.176 3.153 13.68-2.877 15.44-2.877 15.44l.576-.565"/><g><g><g stroke="#747474" stroke-width=".75"><path fill="#DDD" d="M280.56 634.257s-6.364 25.41-6.52 25.96c-.158.548-3.347 1.975-4.71 1.584-1.364-.39-14.68-4.23-14.68-4.23s-.663-.116-.343-1.23c.32-1.114 6.346-25.118 6.346-25.118"/><path fill="#DDD" d="M274.504 631.98c1.528.49 3.88 1.02 5.123 1.493 1.243.473.885.69.885.69s-2.9 1.504-3.293 1.69c-.392.186-2.13-.172-3.304-.51-1.174-.335-12.14-3.568-12.76-3.746-.618-.177-.93.122.228-.96 1.16-1.08 3.405-1.418 4.126-1.212.72.207 1.33.358 1.33.358"/><path fill="#DDD" d="M273.892 633.7l4.81 1.48-6.614 26.303"/><path fill="#F9F9F9" d="M266.38 631.55l-4.208-1.293m11.692 5.087l-6.528 25.914m-4.427-29.206l-6.628 25.96"/><path fill="#DDD" d="M268.633 623.206s-2.027 7.6-2.21 8.232c-.18.632 7.39 2.85 7.63 2.008.243-.843 2.172-8.33 2.172-8.33"/><path fill="#DDD" d="M275.313 624.14c.297.086.93.654.86.898-.07.244-2.422.39-4.122-.268-1.698-.657-3.574-1.118-3.42-1.657.155-.54 1.12-.22 1.12-.22"/><path d="M278.625 635.19l-4.738.188"/></g><path fill="#DDD" fill-rule="nonzero" stroke="#747474" stroke-width=".75" d="M214.43 513.846c2.694 1.797 5.478 3.65 8.353 5.562 62.32 41.442 84.406 57.06 89.404 64.808l3.788-2.44c-5.55-8.602-26.74-23.587-90.513-65.997-3.647-2.426-7.146-4.756-10.506-6.997m-22.728-15.242c-32.28-21.808-26.26-19.105-33.368-26.565l-2.337 4.725c7.58 7.958 1.16 3.987 35.42 27.086"/><g transform="translate(39 274) translate(98.73 83) translate(.202 .9)"><ellipse cx="87.736" cy="87.362" stroke="#747474" stroke-width="1.2" rx="14.69" ry="17.287"/><ellipse cx="88.8" cy="87.847" stroke="#747474" stroke-width="1.2" rx="12.147" ry="14.17"/><ellipse cx="87.736" cy="155.818" stroke="#747474" stroke-width="1.2" rx="14.69" ry="17.287"/><ellipse cx="88.8" cy="155.103" stroke="#747474" stroke-width="1.2" rx="12.147" ry="14.17"/><ellipse cx="87.736" cy="224.275" stroke="#747474" stroke-width="1.2" rx="14.69" ry="17.287"/><ellipse cx="88.8" cy="223.56" stroke="#747474" stroke-width="1.2" rx="12.147" ry="14.17"/><ellipse cx="87.736" cy="297.536" stroke="#747474" stroke-width="1.2" rx="14.69" ry="17.287"/><ellipse cx="88.8" cy="296.82" stroke="#747474" stroke-width="1.2" rx="12.147" ry="14.17"/><path stroke="#747474" stroke-width="1.2" d="M119.404.675v283.41m0 17.667v36.05M59.19 582.737h-.566m0-242.186V27.623"/><path fill="#DDD" fill-rule="nonzero" stroke="#747474" stroke-width=".75" d="M54.697 141.536c-12.392-7.334-26.33-14.488-41.912-21.483l-1.847 4.108c16.294 7.317 30.75 14.794 43.48 22.454m24.32 16.43c13.21 10.113 23.74 20.548 31.82 31.354 16.102 21.532 22.438 44.183 21.593 70.595l4.57 1.464c.877-27.387-5.804-52.36-22.552-74.755-9.317-12.46-21.74-24.394-37.59-35.88"/><path fill="#DDD" fill-rule="nonzero" stroke="#747474" stroke-width=".75" d="M54.65 153.708c-13.214-.008-27.846 2.58-44.022 7.803l1.386 4.287c15.668-5.058 29.746-7.57 42.398-7.592m24.63 3.634c9.8 3.158 18.504 8.367 26.24 15.585 20.437 19.072 34.53 52.31 44.636 102.175l4.417-.894c-10.274-50.703-24.696-84.713-45.978-104.573-9.004-8.403-19.24-14.233-30.833-17.453"/><path stroke="#747474" stroke-width="1.2" d="M54.373 31.226v307.85"/><path class="cable A fill" fill="#4A4A4A" fill-rule="nonzero" stroke="#747474" d="M24.72 159.755c4.002-2.012 16.232-4.27 29.474-5.002l-.265-4.793c-13.85.767-26.63 3.125-31.367 5.507l2.156 4.288zm51.86-4.82c30.006 2.227 53.73 12.153 66.31 31.017 15.905 23.847 13.56 61.06-11.263 113.5l4.338 2.053c25.472-53.81 27.924-92.72 10.92-118.216-13.56-20.333-38.615-30.817-69.95-33.14l-.355 4.786z"/><path class="cable B fill" fill="#D0021B" fill-rule="nonzero" stroke="#747474" d="M4.43 151.426c7.046-1.113 28.047.85 49.273 5.29l.982-4.7c-21.75-4.548-43.242-6.557-51.005-5.33l.75 4.74zm72.068 9.795c27.796 6.275 49.855 16.182 66.598 33.19 22.348 22.702 31.927 55.858 25.487 102.042l4.754.663c6.637-47.6-3.374-82.255-26.82-106.073-17.51-17.788-40.35-28.045-68.963-34.503l-1.056 4.68z"/><g fill-rule="nonzero"><use class="cable N fill" fill="#FFF" fill-rule="evenodd" xlink:href="#y"/><path stroke="#979797" stroke-width=".75" d="M10.315 156.9l-.2-.32-.12.517.32-.197zm42.747-13.607l.372-.044-.416-.33.044.373zm.472 4.027l.044.372.33-.417-.374.045zm-41.07 13.02c-.11.065-.215.13-.32.196l.516.12-.197-.317zm0 0l-2.15-3.44c10.024-6.143 27.157-11.726 42.748-13.607l.472 4.027c-14.983 1.81-31.545 7.188-41.07 13.02zm67.18-12.576c16.56 2.908 29.806 11.062 39.38 24.566 5.27 7.433 9.73 29.913 13.082 61.917 2.67 25.498 4.373 55.486 4.396 73.71h4.058c-.023-18.694-1.797-49.115-4.595-75.027-3.493-32.348-8.175-55.25-13.63-62.944-10.205-14.393-24.393-23.13-42.01-26.22l-.682 3.998z"/></g><path fill="#DDD" fill-rule="nonzero" stroke="#747474" stroke-width=".75" d="M54.66 146.728c-16.196-5.317-33.684-9.242-53.88-12.68l-.758 4.438c20.335 3.463 37.864 7.417 54.067 12.8m23.592 9.31c5.833 2.7 11.58 5.678 17.326 8.987 39.477 22.738 67.85 57.07 82.202 106.156l4.326-1.264c-14.69-50.24-43.826-85.495-84.277-108.794-6.91-3.98-13.814-7.487-20.854-10.612"/><g stroke="#747474" stroke-width="1.2"><path fill="#F9F9F9" fill-opacity=".9" fill-rule="nonzero" d="M69.704 128.964v57.574s-.697 2.098 7.31 3.23c8.01 1.13 39.725 3.57 50.336 3.57 10.61 0 15.932-.533 23.098-3.18 7.165-2.646 12.546-7.813 12.546-7.813V123.64"/><path d="M69.7 128.646c0 1.81 2.293 3.652 32.462 5.436 30.17 1.784 36.39.95 36.39.95s9.784-1.72 15.534-4.76c5.75-3.043 8.9-5.958 8.9-6.735"/><path fill="#F9F9F9" fill-rule="nonzero" d="M69.518 129.114c.747-2.024 7.3-6.496 7.3-6.496l1.642-.257s.557-.93 1.52-1.46c.96-.53 8.234-4.22 12.476-4.632 4.242-.412 5.06-.415 13.91-.415 8.853 0 38.2 1.683 45.9 2.98 7.7 1.297 8.322 2.445 8.322 2.445s2.417 1.85 2.417 2.48"/><path d="M71.85 126.71c.4 1.213.822 2.002 7.317 3.04 6.495 1.037 37.38 3.14 39.247 3.14 1.868 0 17.286.54 21.89-.567 4.607-1.106 12.124-4.382 12.124-4.382s1.232 1.185 1.92 1.185c.687 0 2.53-1.058 2.53-1.058s-.484-2.006-.837-2.006 2.893-2.143 3.263-2.498c.37-.356 1.42-1.65 1.017-2.556m-83.263 1.797s-.245 1.06.357 1.06c.603 0 1.478-.885 1.478-.885s1.275-.2 1.275-.653.032-1.27.032-1.27"/><path stroke-linecap="round" d="M153.446 128.357l3.08-1.18"/><path d="M74 128.377c1.143-.955 10.488-7.202 17.8-8.384 7.31-1.18 33.664.127 37.64.646 3.976.52 24.15 1.296 28.81 3.34"/><path d="M75.512 128.854c1.142-.954 10.254-6.897 17.565-8.08 7.31-1.18 32.718-.12 36.694.4 3.977.52 23.82 1.338 28.48 3.383m-29.337-7.693v3.45m20.432 2.92v6.016m3.606-.884v-5.246m2.405 4.67v-5.247m-75.72 3.156v4.06m-1.395-6.75v2.233"/><path d="M93.61 131.15v-8.508s1.58-.655 2.122-.098v8.878m11.57-11.052v11.584"/><path stroke-linecap="round" d="M105.22 131.926v-10.623s.025-.583-1.865-1.07"/><path d="M103.696 131.937v-10.183"/><path stroke-linecap="round" d="M95.427 120.634c0 .473-.818 1.757 4.008 1.545 4.825-.213 6.13-.323 5.074-1.395-1.057-1.07-6.943-.47-6.943.598s9.826.376 5.524-.643"/></g></g><g stroke="#747474" stroke-width=".75"><path fill="#DDD" d="M294.19 635.103c-2.193-1.1-9.204 4.485-8.22 5.047.052.03 4.204 7.306 4.204 7.306l.974 8.29 11.2 18.693s3.143 1.112 4.13.595c.988-.518 1.407-.95 1.407-.95l1.384.16 7.436-5.016s.165-.686-.024-1.078c-.188-.392 1.402-1.06.85-2.164-.552-1.104-11-18.132-11-18.132l-7.986-5.55s-4.242-7.145-4.356-7.203z"/><path d="M306.3 647.515c-1.417-.26-2.66-.6-5.01.794-2.348 1.393-9.038 6.394-9.038 6.394s-1.068.69-1.126 1.157m22.162 11.5s-9.77 6.633-9.764 6.883c.006.25 2.37.688 2.37.688l10.742-7.443s-1.06-1.28-1.773-.99c-.715.288-1.575.863-1.575.863z"/><path d="M313.16 667.745s-8.833 5.984-8.866 6.152c-.033.17 1.796.108 1.796.108l9.734-6.68s-.655-.71-1.27-.405c-.618.305-1.394.825-1.394.825zm-12.028-19.373l11.922 19.147m-20.424-13.016l11.654 18.93M304.48 647.43l10.773 17.71-.206 1.332"/></g><g stroke="#747474" stroke-width=".75"><path fill="#DDD" d="M322.893 633.794c-1.49-1.95-10.24-.003-9.6.933.033.05.575 8.41.575 8.41l-2.76 7.878 1.874 21.71s2.336 2.378 3.45 2.346c1.115-.03 1.68-.235 1.68-.235l1.175.75 8.883-1.248s.448-.544.45-.98c.004-.433 1.726-.336 1.713-1.57-.012-1.235-1.94-21.12-1.94-21.12l-4.742-8.49s-.68-8.28-.757-8.383z"/><path d="M328.337 650.26c-1.16-.857-2.13-1.707-4.85-1.483-2.723.223-10.93 1.785-10.93 1.785s-1.26.15-1.518.547m14.877 20.048s-11.688 1.68-11.792 1.907c-.105.227 1.83 1.657 1.83 1.657l12.915-1.98s-.39-1.616-1.16-1.67c-.767-.053-1.793.086-1.793.086z"/><path d="M325.633 671.45s-10.56 1.505-10.665 1.642c-.104.137 1.567.884 1.567.884l11.677-1.737s-.278-.925-.965-.922c-.688.003-1.614.13-1.614.13zm-2.318-22.686l2.322 22.435m-12.65-20.652l2.174 22.123M326.736 649.383l1.92 20.64-.77 1.11"/></g><g stroke="#747474" stroke-width=".75"><path fill="#DDD" d="M325.87 582.56s16.105 20.66 16.44 21.123c.336.462-.503 3.853-1.65 4.687-1.148.834-12.374 8.962-12.374 8.962s-.497.45-1.178-.486c-.682-.938-15.887-20.465-15.887-20.465"/><path fill="#DDD" d="M320.346 585.933c1.326-.903 3.193-2.43 4.33-3.118 1.14-.688 1.09-.27 1.09-.27s-.602 3.21-.696 3.632c-.095.423-1.447 1.573-2.435 2.29-.988.718-10.286 7.37-10.808 7.748-.52.378-.478.81-.616-.77-.137-1.578.98-3.557 1.585-3.998.607-.44 1.102-.828 1.102-.828"/><path fill="#DDD" d="M321.324 587.473l4.13-2.88L342.108 606"/><path fill="#F9F9F9" d="M315.004 592.07l-3.608 2.52m11.206-6.082l16.402 21.1m-25.74-14.494l16.377 21.205"/><path fill="#DDD" d="M309.817 585.157s4.74 6.276 5.127 6.81c.387.53 6.796-4.068 6.28-4.777-.515-.71-5.227-6.84-5.227-6.84"/><path fill="#DDD" d="M314.667 580.47c.25-.183 1.087-.332 1.236-.127.15.206-1.185 2.15-2.75 3.084-1.562.935-3.08 2.13-3.41 1.675-.33-.455.517-1.018.517-1.018"/><path d="M325.412 584.66l-2.768 3.85"/></g></g><path fill="#DDD" fill-rule="nonzero" stroke="#747474" stroke-width=".8" d="M139.35 492.092c-45.01-13.484-73.908-49.608-87.26-97.465-5.148-18.452-7.814-38.075-8.286-57.323C43.43 322 52.09 287.56 58.138 279.69c0 0 .585-2.918 0-3.86-.507-.816-3.276-1.414-3.276-1.414-7.904 9.46-15.44 47.39-15.057 62.986.48 19.562 3.19 39.51 8.432 58.3 13.683 49.043 41.303 87.236 89.978 100.618"/><path fill="#DDD" fill-rule="nonzero" stroke="#747474" stroke-width=".8" d="M148.943 519.672c-48.052 1.565-65.08-19.997-51.88-53.93 12.29-31.607 52.312-65.36 83.082-84.846 30.77-19.484 136.073-89.74 152.826-101.703l-3.557-4.556C314.5 286.647 181.24 374.92 167.606 382.36c-13.635 7.44-61.59 49.32-74.272 81.932-6.622 17.025-6.223 31.805 1.997 42.29 8.575 10.935 26.947 17.987 51.53 17.798 1.15-.01 2.478-.12 4.126-.655"/></g><g stroke="#747474" stroke-width=".6"><g><path d="M343.847 266.428l1.203.08m-2.364-4.85l-.49 1.142s3.65 8.032 4.033 8.267c.382.235 1.19.296 1.19.296"/><path d="M342.31 261.843l.394.99-.7-.184M343.374 259.99s2.328-.16 2.77.848c.44 1.01 5.72 11.548 5.72 11.548s.503 1.276.266 1.444"/><path d="M342.822 261.593l2.198.745 5.107 10.94-1.658-.42-5.648-11.265zM348.337 272.9l.946-1.122"/></g><g><path fill="#DDD" d="M334.02 263.886s23.002-13.202 23.512-13.474c.51-.27 3.738.946 4.384 2.16.646 1.215 6.934 13.09 6.934 13.09s.37.537-.667 1.088c-1.036.55-22.774 13.013-22.774 13.013"/><path fill="#DDD" d="M336.492 269.655c-.685-1.397-1.905-3.392-2.408-4.58-.503-1.187-.098-1.09-.098-1.09s3.087.966 3.49 1.108c.405.142 1.33 1.592 1.887 2.638.556 1.046 5.684 10.872 5.977 11.424.293.55.726.56-.86.508-1.584-.054-3.37-1.373-3.71-2.014-.343-.642-.65-1.17-.65-1.17"/><path fill="#DDD" d="M338.172 268.887l-2.204-4.356 23.827-13.646"/><path fill="#F9F9F9" d="M341.73 275.577l1.93 3.805m-4.262-11.615l23.483-13.44m-18.404 23.3l23.583-13.402"/><path fill="#DDD" d="M334.07 279.796s6.962-3.863 7.55-4.176c.59-.312-2.96-7.087-3.744-6.67-.784.417-7.6 4.27-7.6 4.27"/><path fill="#DDD" d="M330.186 274.527c-.14-.266-.157-1.096.07-1.217.227-.12 1.942 1.406 2.623 3.037.68 1.63 1.624 3.248 1.122 3.515-.503.267-.928-.623-.928-.623"/><path d="M336.028 264.58l3.38 3.147"/></g></g><path fill="#DDD" fill-rule="nonzero" stroke="#747474" stroke-width=".8" d="M152.51 478.564c-20.613-8.137-28.75-32.648-26.47-71.788.978-16.802 3.8-36.403 8.5-60.58 3.47-17.847 5.666-27.833 14.946-68.885 1.977-8.745 3.387-15.028 4.765-21.262 7.72-34.9 12.566-60.165 15.69-83.76 3.848-29.077-31.272-96.813-82.575-96.813v5c48.703 0 81.412 62.485 77.617 91.158-3.1 23.42-7.923 48.564-15.613 83.335-1.377 6.225-2.786 12.5-4.76 21.24-9.295 41.11-11.496 51.116-14.98 69.034-4.737 24.377-7.59 44.182-8.582 61.244-2.39 41.056 5.245 66.734 28.438 75.888"/><path fill="#DDD" fill-rule="nonzero" stroke="#747474" stroke-width=".8" d="M159.943 468.1c-9.604-10.31-16.94-41.197 7.33-82.992 19.374-33.365 60.9-55.594 109.9-123.575 1.195-1.66 2.442-3.39 3.793-5.263 59.678-82.742 106.164-129.975 106.164-148.43 0-5.3.196-10.43.08-15-.218-8.635-1.55-15.28-7.423-17.318l-1.64 4.723c5.7 1.98 3.64 12.946 4.195 26.155.555 13.21-45.854 64.343-105.43 146.945-1.353 1.874-2.6 3.604-3.797 5.264-49.1 68.12-90.68 90.43-110.166 123.987-25.84 44.498-17.587 78.408-5.978 89.587"/><text fill="#358CF1" font-family="AvenirNext-DemiBold, Avenir Next" font-size="16" font-weight="500"><tspan x="90" y="336">1</tspan></text><text fill="#358CF1" font-family="AvenirNext-DemiBold, Avenir Next" font-size="16" font-weight="500"><tspan x="121" y="336">-1</tspan></text><g stroke="#358CF1" transform="translate(102 327)"><ellipse cx="5.818" cy="2.909" rx="5.818" ry="2.909"/><ellipse cx="10.182" cy="5.091" rx="5.818" ry="2.909"/></g><text fill="#358CF1" font-family="AvenirNext-DemiBold, Avenir Next" font-size="16" font-weight="500"><tspan x="176" y="314">2</tspan></text><text fill="#358CF1" font-family="AvenirNext-DemiBold, Avenir Next" font-size="16" font-weight="500"><tspan x="206" y="314">-3</tspan></text><g stroke="#358CF1" transform="translate(188 305)"><ellipse cx="5.818" cy="2.909" rx="5.818" ry="2.909"/><ellipse cx="10.182" cy="5.091" rx="5.818" ry="2.909"/></g><text fill="#358CF1" font-family="AvenirNext-DemiBold, Avenir Next" font-size="16" font-weight="500"><tspan x="235" y="347">2</tspan></text><text fill="#358CF1" font-family="AvenirNext-DemiBold, Avenir Next" font-size="16" font-weight="500"><tspan x="268" y="347">-4</tspan></text><g stroke="#358CF1" transform="translate(247 338)"><ellipse cx="5.818" cy="2.909" rx="5.818" ry="2.909"/><ellipse cx="10.182" cy="5.091" rx="5.818" ry="2.909"/></g><text fill="#358CF1" font-family="AvenirNext-DemiBold, Avenir Next" font-size="16" font-weight="500"><tspan x="45" y="416">1</tspan></text><text fill="#358CF1" font-family="AvenirNext-DemiBold, Avenir Next" font-size="16" font-weight="500"><tspan x="79" y="416">-2</tspan></text><g stroke="#358CF1" transform="translate(57 407)"><ellipse cx="5.818" cy="2.909" rx="5.818" ry="2.909"/><ellipse cx="10.182" cy="5.091" rx="5.818" ry="2.909"/></g><g fill="#F9F9F9" stroke="#747474" stroke-width=".512"><path d="M91.327 169.93c-.66-.77-2-1.234-2.94-.97-.94.266-2.68 1.517-2.54 3.71.14 2.192 2.143 3.18 3.34 3.118 1.5-.077 2.14-1.04 2.14-1.04"/><path d="M89.565 168.95s-.52-.716-1.224-.816c-.704-.1-13.075-.118-13.075-.118s-1.663.023-1.88 2.102c-.22 2.08-.142 4.843-.142 4.843s.194 1.77 2.022 1.89c1.828.12 13.03.095 13.03.095s1.248-.37 1.41-1.155m-3.058.05l-2.21 1.107"/><path d="M80.415 168.016s-1.33.502-1.34 2.03c-.012 1.53-.11 4.058-.118 4.915-.007.858.287 1.7 3.55 1.987"/><path d="M73.23 174.964l5.727-.405 4.93-.335M75.29 168.016s-.16-2.116.257-2.34c.417-.22 2.54-.448 2.54-.448l.87-1.228 6.883.142.15.45s2.734.147 2.915.188c.18.04.276 1.064-.023 1.18-.3.117-5.95.875-5.95.875s-.535.52-.424 1.18"/><path d="M75.665 168.016c-.035-.346.097-1.662.8-1.748.702-.087 5.702-.733 5.702-.733l6.908.142M79.215 164l-.023 1.3s1.29-.557 3.175-.64c1.886-.08 3.74.005 3.74.005M83.825 171.07l-4.774-1.023-5.666.095M88.388 168.96c-.47-.03-1.693-.074-1.693-.074s-2.098.148-2.846 2.184c-.75 2.035.194 3.913 1.99 4.734.173.08 3.37 0 3.37 0"/></g><g fill="#F9F9F9" stroke="#747474" stroke-width=".64"><g><path d="M97.492 252.252c-1.2-.453-2.96-.153-3.83.715-.87.867-2.01 3.32-.505 5.674 1.506 2.355 4.316 2.233 5.595 1.435 1.603-1 1.712-2.46 1.712-2.46"/><path d="M94.95 252.237s-1.013-.48-1.85-.162c-.835.318-14.45 7.838-14.45 7.838s-1.813 1.04-.77 3.486c1.04 2.445 2.83 5.473 2.83 5.473s1.306 1.85 3.39.87c2.083-.98 14.383-7.836 14.383-7.836s1.145-1.174.84-2.144"/><path d="M100 250.862s-3.508 1.983-5.064 2.876c-3.223 1.85.063 6.94 3.01 5.307 2.944-1.633 5.762-3.263 5.762-3.263m-7.717 5.898l-1.746 2.58m-9.93-7.486s-1.152 1.37-.22 3.078c.93 1.708 2.38 4.58 2.9 5.538.52.958 1.363 1.716 5.13.046"/><path d="M80.698 268.885l6.048-3.942 5.216-3.377M78.677 259.9s-1.48-2.26-1.158-2.76c.32-.502 2.515-2.048 2.515-2.048l.2-1.897 7.654-4.037.44.408s3.1-1.502 3.323-1.567c.224-.065.96 1.015.702 1.328-.257.312-6.003 4.598-6.003 4.598s-.267.906.263 1.573"/><path d="M79.09 259.67c-.25-.363-.917-1.91-.198-2.433.718-.524 5.818-4.29 5.818-4.29l7.683-4.052m-11.874 4.142l.774 1.46s1.074-1.405 3.097-2.644c2.025-1.24 4.115-2.275 4.115-2.275m-9.682 9.622l7.78-3.724m-7.765 2.213l7.49-3.563M89.947 258.093l-5.88 1.773-6.173 3.56M94.212 252.662c-.222.08-.78.323-.78.323s-.814.668.117 3.112c.93 2.444 2.497 4.307 3.78 4.79.124.046 1.458-.808 1.458-.808"/></g></g><path fill="#F9F9F9" stroke="#747474" stroke-width=".64" d="M98.886 257.5c1.387 0 31.614-2.986 31.614-35.093 0-32.106-50.553-26.538-51.206-26.538-.653 0-1.794 1.766-1.794 2.84 0 1.072.85 2.905 1.595 2.905.343 0 45.93-4.6 45.93 20.792 0 25.392-25.597 29.053-27.174 29.053"/><g stroke="#747474" stroke-width=".6"><g><path d="M68.847 266.428l1.203.08m-2.364-4.848l-.49 1.14s3.65 8.032 4.032 8.268c.384.235 1.19.296 1.19.296"/><path d="M67.308 261.845l.395.987-.7-.182M68.374 259.99s2.328-.16 2.77.85c.44 1.008 5.718 11.547 5.718 11.547s.505 1.276.268 1.443"/><path d="M67.822 261.594l2.198.745 5.106 10.938-1.657-.42-5.648-11.264zM73.337 272.902l.945-1.123"/></g><g><path fill="#DDD" d="M59.02 263.887s23.002-13.203 23.512-13.475c.51-.27 3.74.947 4.384 2.16.646 1.215 6.935 13.09 6.935 13.09s.37.537-.667 1.088c-1.036.55-22.774 13.013-22.774 13.013"/><path fill="#DDD" d="M61.492 269.655c-.685-1.396-1.905-3.392-2.408-4.58-.502-1.187-.097-1.09-.097-1.09s3.086.966 3.49 1.108c.404.142 1.33 1.593 1.886 2.638.556 1.046 5.684 10.873 5.977 11.424.293.552.727.56-.86.508-1.584-.054-3.37-1.372-3.71-2.014-.342-.642-.65-1.17-.65-1.17"/><path fill="#DDD" d="M63.172 268.888l-2.204-4.356 23.828-13.648"/><path fill="#F9F9F9" d="M66.73 275.577l1.93 3.805m-4.26-11.615l23.482-13.44m-18.406 23.3l23.583-13.402"/><path fill="#DDD" d="M59.07 279.796s6.962-3.862 7.55-4.175c.59-.312-2.96-7.086-3.744-6.67-.784.417-7.598 4.27-7.598 4.27"/><path fill="#DDD" d="M55.186 274.527c-.14-.265-.157-1.096.07-1.217.227-.12 1.942 1.406 2.623 3.037.68 1.63 1.624 3.248 1.122 3.515-.502.267-.927-.623-.927-.623"/><path d="M61.028 264.58l3.38 3.147"/></g></g><g><use class="cable A fill" fill="#4A4A4A" xlink:href="#z"/><path stroke="#747474" d="M276.042 135.5v7H353.5v-7h-77.458z"/></g></g></svg>
