<svg xmlns="http://www.w3.org/2000/svg" xmlns:xlink="http://www.w3.org/1999/xlink" width="271" height="201" viewBox="0 0 271 201">
  <defs>
    <rect id="5.connectcts-2-a" width="24" height="12" x="166.5" y="21"/>
    <rect id="5.connectcts-2-b" width="30" height="12" x="160.5" y="93"/>
    <rect id="5.connectcts-2-c" width="30" height="12" x="160.5" y="165"/>
    <polyline id="5.connectcts-2-d" points="30 165 117 165 117 177 30 177"/>
    <polyline id="5.connectcts-2-e" points="30 21 117 21 117 33 30 33"/>
    <path id="5.connectcts-2-f" d="M1.47001276,7.19923615 L1.36710035,20.1718315 L2.89030638,20.4718647 L3.28198793,23.3068199 L7.26024368,20.9429065 C7.26024368,20.9429065 14.2675391,21.7609419 17.3661397,20.9429065 C20.4647402,20.1248712 25.8822694,16.0266631 25.8822694,16.0266631 L26.3538232,3.06737979 L7.11585911,0.448489429 L3.26765188,1.80939082 L2.9696667,5.79635059 L1.47001276,7.19923615 Z"/>
    <polyline id="5.connectcts-2-h" points="30 91.5 117 91.5 117 103.5 30 103.5"/>
    <path id="5.connectcts-2-i" d="M1.47001276,7.19923615 L1.36710035,20.1718315 L2.89030638,20.4718647 L3.28198793,23.3068199 L7.26024368,20.9429065 C7.26024368,20.9429065 14.2675391,21.7609419 17.3661397,20.9429065 C20.4647402,20.1248712 25.8822694,16.0266631 25.8822694,16.0266631 L26.3538232,3.06737979 L7.11585911,0.448489429 L3.26765188,1.80939082 L2.9696667,5.79635059 L1.47001276,7.19923615 Z"/>
  </defs>
  <g fill="none" fill-rule="evenodd" transform="translate(.5 1)">
    <g transform="rotate(-180 135.08 90)">
      <path stroke="#747474" d="M0.5,0.5 L0.5,159.5 L79.5,159.5 L79.5,0.5 L0.5,0.5 Z"/>
      <text fill="#4A4A4A" font-family="AvenirNext-Regular, Avenir Next" font-size="16" transform="rotate(-180 40 80)">
        <tspan x="16.08" y="80">Circuit</tspan> <tspan x="8" y="96">Breakers</tspan>
      </text>
    </g>
    <g transform="translate(.661 .25)">
      <use fill="#B47239" class="cable A fill" xlink:href="#5.connectcts-2-a"/>
      <rect width="22.5" height="10.5" x="167.25" y="21.75" stroke="#747474" stroke-width="1.5"/>
      <use fill="#F5A623" class="cable B fill" xlink:href="#5.connectcts-2-b"/>
      <rect width="28.5" height="10.5" x="161.25" y="93.75" stroke="#747474" stroke-width="1.5"/>
      <use fill="#F8E71C" class="cable C fill" xlink:href="#5.connectcts-2-c"/>
      <rect width="28.5" height="10.5" x="161.25" y="165.75" stroke="#747474" stroke-width="1.5"/>
      <g transform="translate(102)">
        <path stroke="#747474" stroke-width=".75" d="M10.5 28.5L15.4103561 28.5M19.5 1.5L34.026447 10.2518378M22.5 1.5L35.3446818 9.46508108M27 1.5L38.8298712 9.03956757M30 1.5L40.9931364 8.67832432M33 1.5L43.7968106 8.38356757M1.5 12.7864071C1.50165909 11.8550422 1.63549242 8.21823141 1.89265152 7.57497465 2.14925758 6.93116384 2.65306818 5.95713682 3.07005303 6.00146114 3.48703788 6.04523141 4.59199242 8.36948817 4.64065909 9.93469087 4.68877273 11.5004476 4.83698485 16.916326 4.83698485 16.916326 4.83698485 16.916326 4.77504545 22.7532855 3.56114394 23.1112044 2.34668939 23.4691233 2.11109848 21.1653665 2.08842424 20.9481774"/>
        <path stroke="#747474" stroke-width=".75" d="M0.536992424,24.8229606 C0.299742424,25.7947714 0.143234848,25.6601363 0.0442424242,28.7639471 C-0.0553030303,31.8677579 0.0442424242,40.9492579 0.0442424242,40.9492579 C0.0442424242,40.9492579 19.8665076,52.860312 20.3144621,53.1428795 C20.7629697,53.424893 23.2587955,52.4752444 24.2608864,47.3413795 C25.2629773,42.2069606 25.5334091,35.8297984 25.074947,30.9197714 C24.6164848,26.0102984 22.9872576,13.9657174 19.2841667,13.5147174 C15.5805227,13.0637174 14.9119091,23.1181363 14.8671136,24.4295822 C14.8223182,25.7410282 14.3765758,35.1643795 14.3765758,35.1643795 L10.6469394,33.2274066 L9.1742197,29.1495687 C9.1742197,29.1495687 1.89855303,24.939312 1.51862121,24.6262714 C1.13868939,24.3132309 0.633772727,24.4279201 0.536992424,24.8229606 L0.536992424,24.8229606 Z"/>
        <polyline stroke="#747474" stroke-width=".75" points="18 24 18.681 24.243 21.926 24"/>
        <path stroke="#747474" stroke-width=".75" d="M21 54.4473243L62.4230758 52.9663378C62.4230758 52.9663378 63.9411439 51.4232973 64.0915682 51M.0022602623 21.2432838C.0022602623 21.2432838-.11166398 23.141473 1.27810117 24.095 2.66786632 25.048527 8.93369966 28.7130405 8.93369966 28.7130405L11.3874951 18.6868784 14.2339421 20.2598378C14.2339421 20.2598378 15.4218512 12.3878378 16.9825027 12"/>
        <path fill="#F9F9F9" stroke="#747474" stroke-width=".75" d="M26.7211664,51.9498914 C26.7211664,51.9498914 62.06478,50.3481211 63.1354467,50.2783103 C64.2066664,50.2079454 65.8663103,50.142013 66.1782194,48.3114184 C66.4901285,46.4808238 68.7785679,33.9071211 67.2577345,27.4645806 C65.7369012,21.0225941 65.0046891,19.5094725 61.66328,19.5000536 C58.3218709,19.4900806 28.9786361,20.8763238 28.9786361,20.8763238 C28.9786361,20.8763238 25.4818255,22.4276752 25.9358633,25.8423103 C26.3904542,29.2569454 27.0402649,35.0252022 27.0159315,37.6913103 C26.9915982,40.3574184 26.3008633,46.9079995 25.837977,48.6061752 C25.3745376,50.3049049 25.1643861,51.9698373 26.7211664,51.9498914 L26.7211664,51.9498914 Z"/>
        <path stroke="#747474" stroke-width=".75" d="M18.4967441 22.5C18.2163577 23.3150135 18.0056532 22.5387838 18.0056532 28.9575 18.0056532 35.3767703 17.9929335 41.8797027 18.0056532 41.9328919 18.2926759 43.132973 19.2920017 43.748527 21.2447517 44.4892973M22.9131212 39L18 39.14025"/>
        <path stroke="#747474" stroke-width=".75" d="M19.0795152,22.5608496 C19.6773409,22.8905118 21.7147045,24.2302145 21.9259621,25.0191874 C22.1372197,25.8081604 22.2290227,28.8050388 22.2290227,28.8050388 L23.5944545,29.3308361 L23.4965682,42.5223091 L22.3186136,41.8341739 C22.3186136,41.8341739 22.2638636,44.7640118 21.7296364,45.1285793 C21.1959621,45.4925928 18.8262273,44.1805928 18.4905379,43.3090658 C18.1554015,42.4375388 18.0663636,41.0740118 18.0984394,38.0976334 C18.1299621,35.121255 18,23.9376739 18,23.9376739 C18,23.9376739 18.2355909,22.1519577 19.0795152,22.5608496"/>
        <path stroke="#747474" stroke-width=".75" d="M20.1961031 18.0006225C22.4989212 17.9247171 24.5960121 24.8005279 24.8763985 33.3451495 25.1562318 41.8897711 23.5137318 48.8885819 21.2109137 48.9644873 18.9080955 49.0403927 16.8110046 42.1645819 16.5311712 33.6199603 16.2507849 25.0747846 17.8932849 18.0765279 20.1961031 18.0006225L20.1961031 18.0006225zM57.3478561 10.5L57 12.4668919C57 12.4668919 59.1805985 12.0341757 59.6501212 12.0735135 60.1196439 12.1128514 61.4872879 12.5837973 62.6928939 15.0232973 63.8985 17.4633514 65.048803 22.9883784 65.048803 22.9883784M58.5 12C59.1669545 12.6005946 61.1628409 14.8400811 62.0532197 19.9301757"/>
        <polyline stroke="#747474" stroke-width=".75" points="57.04 42 58.66 42 58.267 45.245 57.874 45.245 57.874 42.746 57 42.746 57.04 42"/>
        <polygon stroke="#747474" stroke-width=".75" points="36.267 30.147 36.071 27 34.5 27 34.5 27.59 35.58 27.689 35.776 30.147"/>
        <polygon stroke="#747474" stroke-width=".75" points="40.766 30.147 40.57 27 39 27 39 27.59 40.08 27.689 40.276 30.147"/>
        <path stroke="#747474" stroke-width=".75" d="M43.7953261 30.2446717C43.7953261 30.2446717 43.4850761 27.233942 43.5005609 27.3929555 43.5165988 27.5525231 43.6045306 26.9901582 44.3843034 27.0001312 45.1635231 27.0095501 45.4461215 27.326469 45.4638185 27.6882663 45.4815155 28.0500636 45.5617049 30.1466042 45.5617049 30.1466042L45.071167 30.1466042C45.071167 30.1466042 44.9035988 28.176942 44.7764019 27.7863339 44.6497579 27.3962799 44.0762655 27.7032258 44.0895382 27.9830231 44.1028109 28.2628204 44.285864 30.1466042 44.285864 30.1466042L43.7953261 30.2446717zM49.2785859 27.0986216L49.2785859 28.5735135C49.2785859 28.5735135 48.0497526 28.2244595 48.002745 29.2616486 47.9557375 30.2988378 48.5231465 30.3215541 48.8859344 30.3431622 49.2487223 30.3653243 50.063889 30.3431622 50.063889 30.3431622L50.063889 28.9175811 49.9654496 27 49.2785859 27.0986216 49.2785859 27.0986216z"/>
        <path stroke="#747474" stroke-width=".75" d="M48.7902144,28.5169259 C48.7902144,28.5169259 48.0452825,28.4094297 48.0054644,28.7362428 C47.9650931,29.0636737 48.1536765,29.1390446 48.3975628,29.1748767 C48.6414492,29.2107087 48.8217371,29.1575784 48.7902144,28.5169259 Z"/>
        <polygon stroke="#747474" stroke-width=".75" points="56.58 27 55.5 30.048 58.739 29.663 56.58 27"/>
        <polygon stroke="#747474" stroke-width=".75" points="34.5 44.975 37.81 43.5 37.346 46.352"/>
        <polygon fill="#000" points="38.788 45.494 31 50.5 31 40.487" transform="rotate(-180 34.894 45.494)"/>
        <path stroke="#747474" stroke-width=".75" d="M44.752161,46.4378408 L45.0463731,43.5201922 C45.0463731,43.5201922 43.7887822,43.4747598 43.3773277,43.5201922 C42.9664262,43.5650706 42.0544792,44.3861787 42.0041534,45.1917733 C41.9532747,45.9973679 42.3768959,46.633976 42.8873428,46.7652868 C43.3977898,46.8965976 44.752161,46.7331517 44.752161,46.7331517"/>
        <path stroke="#747474" stroke-width=".75" d="M43.5870776,45.5649595 L43.4886382,43.5 C43.4886382,43.5 42.0944488,43.8025135 42.0164715,44.3848243 C41.9379412,44.9676892 42.135926,45.3909865 42.7027821,45.4668919 C43.2701912,45.5422432 43.5870776,45.5649595 43.5870776,45.5649595 Z"/>
        <polygon stroke="#747474" stroke-width=".75" points="46.5 43.5 47.58 46.666 47.973 46.666 49.838 43.5 49.15 43.5 48.806 44.11 47.482 44.11 46.991 43.5"/>
        <polygon stroke="#747474" stroke-width=".75" points="48 45 48.416 45.836 48.976 45"/>
        <path stroke="#747474" stroke-width=".75" d="M53.1590303,43.5 C53.774553,43.5 54.723,44.0573784 54.6345152,45.0735135 C54.5460303,46.0896486 53.4421818,46.7450946 52.6684924,46.7450946 C51.8953561,46.7450946 51,46.0298108 51,45.0735135 C51,44.1172162 52.2421061,43.5 53.1590303,43.5 Z"/>
        <path stroke="#747474" stroke-width=".75" d="M53.8427576 43.5C54.2254545 43.5 54.8155379 43.8462838 54.7607879 44.4784595 54.7054848 45.1106351 54.0186212 45.5184189 53.5374848 45.5184189 53.0563485 45.5184189 52.5 45.0735135 52.5 44.4784595 52.5 43.8839595 53.2725833 43.5 53.8427576 43.5L53.8427576 43.5zM0 1.5L0 12.6121081M1.5 1.76964865L41.8402424 0 58.6241591 10.3247973 55.3850606 10.6201081C55.3850606 10.6201081 58.4433182 11.7897162 59.7036742 14.0613378 60.9640303 16.3335135 61.8632576 20.0600811 61.8632576 20.0600811L29.0807273 21.4363514C29.0807273 21.4363514 27.7844242 15.5295811 25.645303 13.6679595 23.5061818 11.8068919 22.6025303 12.1930676 22.6025303 12.1930676L18.1860303 12.5864459 1.5 1.76964865 1.5 1.76964865zM37.9394457 33.5646839C37.7127033 34.498819 37.0756124 37.8580487 37.9394457 38.9728055 38.8032791 40.0875622 39.0737109 40.6111433 44.2213169 40.3496298 49.368923 40.0881163 52.8867488 40.1307785 53.7417336 38.6780487 54.5972715 37.2247649 54.2383548 33.1701974 53.4475215 32.1878595 52.6561351 31.2055217 49.8135594 31.5484812 45.8898094 31.597792 41.9660594 31.6476568 38.4709078 31.3745082 37.9394457 33.5646839z"/>
        <path stroke="#747474" stroke-width=".75" d="M39.4204523,32.6471165 C39.1428311,33.4189138 38.9188538,36.0163192 39.0283538,36.9737246 C39.1373008,37.930576 39.6062705,38.5594273 42.2668993,38.5466841 C44.9275281,38.5344949 52.1805205,37.9571706 52.1805205,37.9571706 C52.1805205,37.9571706 53.6040205,36.8961571 53.6526872,35.3021436 C53.7013538,33.707576 52.8530054,31.8176976 52.2784069,31.565049 C51.7043614,31.3129544 41.3035205,31.8686706 40.893172,31.9584273 C40.4822705,32.0487382 39.5941038,32.1661976 39.4204523,32.6471165 L39.4204523,32.6471165 Z"/>
        <path stroke="#747474" stroke-width=".75" d="M37.7942121 35.3978301L38.7841364 34.9645599C38.7841364 34.9645599 49.1490303 34.4088436 50.6007348 34.5130058 52.0524394 34.617168 51.9235833 37.364722 50.5022955 37.364722 49.0815606 37.364722 38.5977652 37.9547896 38.5977652 37.9547896L37.5 37.6594788M19.5 42.26625L22.1501212 42M23.6779545 40.5L22.5 41.16525M28.0800682 52.5L27 53.9748919M30 53.9748919L31.0302955 52.5"/>
        <polyline stroke="#747474" stroke-width=".75" points="31.5 53.016 56.93 51.688 57.412 51"/>
      </g>
      <g transform="translate(102 72)">
        <path stroke="#747474" stroke-width=".75" d="M10.5 28.5L15.4103561 28.5M19.5 1.5L34.026447 10.2518378M22.5 1.5L35.3446818 9.46508108M27 1.5L38.8298712 9.03956757M30 1.5L40.9931364 8.67832432M33 1.5L43.7968106 8.38356757M1.5 12.7864071C1.50165909 11.8550422 1.63549242 8.21823141 1.89265152 7.57497465 2.14925758 6.93116384 2.65306818 5.95713682 3.07005303 6.00146114 3.48703788 6.04523141 4.59199242 8.36948817 4.64065909 9.93469087 4.68877273 11.5004476 4.83698485 16.916326 4.83698485 16.916326 4.83698485 16.916326 4.77504545 22.7532855 3.56114394 23.1112044 2.34668939 23.4691233 2.11109848 21.1653665 2.08842424 20.9481774"/>
        <path stroke="#747474" stroke-width=".75" d="M0.536992424,24.8229606 C0.299742424,25.7947714 0.143234848,25.6601363 0.0442424242,28.7639471 C-0.0553030303,31.8677579 0.0442424242,40.9492579 0.0442424242,40.9492579 C0.0442424242,40.9492579 19.8665076,52.860312 20.3144621,53.1428795 C20.7629697,53.424893 23.2587955,52.4752444 24.2608864,47.3413795 C25.2629773,42.2069606 25.5334091,35.8297984 25.074947,30.9197714 C24.6164848,26.0102984 22.9872576,13.9657174 19.2841667,13.5147174 C15.5805227,13.0637174 14.9119091,23.1181363 14.8671136,24.4295822 C14.8223182,25.7410282 14.3765758,35.1643795 14.3765758,35.1643795 L10.6469394,33.2274066 L9.1742197,29.1495687 C9.1742197,29.1495687 1.89855303,24.939312 1.51862121,24.6262714 C1.13868939,24.3132309 0.633772727,24.4279201 0.536992424,24.8229606 L0.536992424,24.8229606 Z"/>
        <polyline stroke="#747474" stroke-width=".75" points="18 24 18.681 24.243 21.926 24"/>
        <path stroke="#747474" stroke-width=".75" d="M21 54.4473243L62.4230758 52.9663378C62.4230758 52.9663378 63.9411439 51.4232973 64.0915682 51M.0022602623 21.2432838C.0022602623 21.2432838-.11166398 23.141473 1.27810117 24.095 2.66786632 25.048527 8.93369966 28.7130405 8.93369966 28.7130405L11.3874951 18.6868784 14.2339421 20.2598378C14.2339421 20.2598378 15.4218512 12.3878378 16.9825027 12"/>
        <path fill="#F9F9F9" stroke="#747474" stroke-width=".75" d="M26.7211664,51.9498914 C26.7211664,51.9498914 62.06478,50.3481211 63.1354467,50.2783103 C64.2066664,50.2079454 65.8663103,50.142013 66.1782194,48.3114184 C66.4901285,46.4808238 68.7785679,33.9071211 67.2577345,27.4645806 C65.7369012,21.0225941 65.0046891,19.5094725 61.66328,19.5000536 C58.3218709,19.4900806 28.9786361,20.8763238 28.9786361,20.8763238 C28.9786361,20.8763238 25.4818255,22.4276752 25.9358633,25.8423103 C26.3904542,29.2569454 27.0402649,35.0252022 27.0159315,37.6913103 C26.9915982,40.3574184 26.3008633,46.9079995 25.837977,48.6061752 C25.3745376,50.3049049 25.1643861,51.9698373 26.7211664,51.9498914 L26.7211664,51.9498914 Z"/>
        <path stroke="#747474" stroke-width=".75" d="M18.4967441 22.5C18.2163577 23.3150135 18.0056532 22.5387838 18.0056532 28.9575 18.0056532 35.3767703 17.9929335 41.8797027 18.0056532 41.9328919 18.2926759 43.132973 19.2920017 43.748527 21.2447517 44.4892973M22.9131212 39L18 39.14025"/>
        <path stroke="#747474" stroke-width=".75" d="M19.0795152,22.5608496 C19.6773409,22.8905118 21.7147045,24.2302145 21.9259621,25.0191874 C22.1372197,25.8081604 22.2290227,28.8050388 22.2290227,28.8050388 L23.5944545,29.3308361 L23.4965682,42.5223091 L22.3186136,41.8341739 C22.3186136,41.8341739 22.2638636,44.7640118 21.7296364,45.1285793 C21.1959621,45.4925928 18.8262273,44.1805928 18.4905379,43.3090658 C18.1554015,42.4375388 18.0663636,41.0740118 18.0984394,38.0976334 C18.1299621,35.121255 18,23.9376739 18,23.9376739 C18,23.9376739 18.2355909,22.1519577 19.0795152,22.5608496"/>
        <path stroke="#747474" stroke-width=".75" d="M20.1961031 18.0006225C22.4989212 17.9247171 24.5960121 24.8005279 24.8763985 33.3451495 25.1562318 41.8897711 23.5137318 48.8885819 21.2109137 48.9644873 18.9080955 49.0403927 16.8110046 42.1645819 16.5311712 33.6199603 16.2507849 25.0747846 17.8932849 18.0765279 20.1961031 18.0006225L20.1961031 18.0006225zM57.3478561 10.5L57 12.4668919C57 12.4668919 59.1805985 12.0341757 59.6501212 12.0735135 60.1196439 12.1128514 61.4872879 12.5837973 62.6928939 15.0232973 63.8985 17.4633514 65.048803 22.9883784 65.048803 22.9883784M58.5 12C59.1669545 12.6005946 61.1628409 14.8400811 62.0532197 19.9301757"/>
        <polyline stroke="#747474" stroke-width=".75" points="57.04 42 58.66 42 58.267 45.245 57.874 45.245 57.874 42.746 57 42.746 57.04 42"/>
        <polygon stroke="#747474" stroke-width=".75" points="36.267 30.147 36.071 27 34.5 27 34.5 27.59 35.58 27.689 35.776 30.147"/>
        <polygon stroke="#747474" stroke-width=".75" points="40.766 30.147 40.57 27 39 27 39 27.59 40.08 27.689 40.276 30.147"/>
        <path stroke="#747474" stroke-width=".75" d="M43.7953261 30.2446717C43.7953261 30.2446717 43.4850761 27.233942 43.5005609 27.3929555 43.5165988 27.5525231 43.6045306 26.9901582 44.3843034 27.0001312 45.1635231 27.0095501 45.4461215 27.326469 45.4638185 27.6882663 45.4815155 28.0500636 45.5617049 30.1466042 45.5617049 30.1466042L45.071167 30.1466042C45.071167 30.1466042 44.9035988 28.176942 44.7764019 27.7863339 44.6497579 27.3962799 44.0762655 27.7032258 44.0895382 27.9830231 44.1028109 28.2628204 44.285864 30.1466042 44.285864 30.1466042L43.7953261 30.2446717zM49.2785859 27.0986216L49.2785859 28.5735135C49.2785859 28.5735135 48.0497526 28.2244595 48.002745 29.2616486 47.9557375 30.2988378 48.5231465 30.3215541 48.8859344 30.3431622 49.2487223 30.3653243 50.063889 30.3431622 50.063889 30.3431622L50.063889 28.9175811 49.9654496 27 49.2785859 27.0986216 49.2785859 27.0986216z"/>
        <path stroke="#747474" stroke-width=".75" d="M48.7902144,28.5169259 C48.7902144,28.5169259 48.0452825,28.4094297 48.0054644,28.7362428 C47.9650931,29.0636737 48.1536765,29.1390446 48.3975628,29.1748767 C48.6414492,29.2107087 48.8217371,29.1575784 48.7902144,28.5169259 Z"/>
        <polygon stroke="#747474" stroke-width=".75" points="56.58 27 55.5 30.048 58.739 29.663 56.58 27"/>
        <polygon stroke="#747474" stroke-width=".75" points="34.5 44.975 37.81 43.5 37.346 46.352"/>
        <polygon fill="#000" points="38.788 46.006 31 51.013 31 41" transform="rotate(-180 34.894 46.006)"/>
        <path stroke="#747474" stroke-width=".75" d="M44.752161,46.4378408 L45.0463731,43.5201922 C45.0463731,43.5201922 43.7887822,43.4747598 43.3773277,43.5201922 C42.9664262,43.5650706 42.0544792,44.3861787 42.0041534,45.1917733 C41.9532747,45.9973679 42.3768959,46.633976 42.8873428,46.7652868 C43.3977898,46.8965976 44.752161,46.7331517 44.752161,46.7331517"/>
        <path stroke="#747474" stroke-width=".75" d="M43.5870776,45.5649595 L43.4886382,43.5 C43.4886382,43.5 42.0944488,43.8025135 42.0164715,44.3848243 C41.9379412,44.9676892 42.135926,45.3909865 42.7027821,45.4668919 C43.2701912,45.5422432 43.5870776,45.5649595 43.5870776,45.5649595 Z"/>
        <polygon stroke="#747474" stroke-width=".75" points="46.5 43.5 47.58 46.666 47.973 46.666 49.838 43.5 49.15 43.5 48.806 44.11 47.482 44.11 46.991 43.5"/>
        <polygon stroke="#747474" stroke-width=".75" points="48 45 48.416 45.836 48.976 45"/>
        <path stroke="#747474" stroke-width=".75" d="M53.1590303,43.5 C53.774553,43.5 54.723,44.0573784 54.6345152,45.0735135 C54.5460303,46.0896486 53.4421818,46.7450946 52.6684924,46.7450946 C51.8953561,46.7450946 51,46.0298108 51,45.0735135 C51,44.1172162 52.2421061,43.5 53.1590303,43.5 Z"/>
        <path stroke="#747474" stroke-width=".75" d="M53.8427576 43.5C54.2254545 43.5 54.8155379 43.8462838 54.7607879 44.4784595 54.7054848 45.1106351 54.0186212 45.5184189 53.5374848 45.5184189 53.0563485 45.5184189 52.5 45.0735135 52.5 44.4784595 52.5 43.8839595 53.2725833 43.5 53.8427576 43.5L53.8427576 43.5zM0 1.5L0 12.6121081M1.5 1.76964865L41.8402424 0 58.6241591 10.3247973 55.3850606 10.6201081C55.3850606 10.6201081 58.4433182 11.7897162 59.7036742 14.0613378 60.9640303 16.3335135 61.8632576 20.0600811 61.8632576 20.0600811L29.0807273 21.4363514C29.0807273 21.4363514 27.7844242 15.5295811 25.645303 13.6679595 23.5061818 11.8068919 22.6025303 12.1930676 22.6025303 12.1930676L18.1860303 12.5864459 1.5 1.76964865 1.5 1.76964865zM37.9394457 33.5646839C37.7127033 34.498819 37.0756124 37.8580487 37.9394457 38.9728055 38.8032791 40.0875622 39.0737109 40.6111433 44.2213169 40.3496298 49.368923 40.0881163 52.8867488 40.1307785 53.7417336 38.6780487 54.5972715 37.2247649 54.2383548 33.1701974 53.4475215 32.1878595 52.6561351 31.2055217 49.8135594 31.5484812 45.8898094 31.597792 41.9660594 31.6476568 38.4709078 31.3745082 37.9394457 33.5646839z"/>
        <path stroke="#747474" stroke-width=".75" d="M39.4204523,32.6471165 C39.1428311,33.4189138 38.9188538,36.0163192 39.0283538,36.9737246 C39.1373008,37.930576 39.6062705,38.5594273 42.2668993,38.5466841 C44.9275281,38.5344949 52.1805205,37.9571706 52.1805205,37.9571706 C52.1805205,37.9571706 53.6040205,36.8961571 53.6526872,35.3021436 C53.7013538,33.707576 52.8530054,31.8176976 52.2784069,31.565049 C51.7043614,31.3129544 41.3035205,31.8686706 40.893172,31.9584273 C40.4822705,32.0487382 39.5941038,32.1661976 39.4204523,32.6471165 L39.4204523,32.6471165 Z"/>
        <path stroke="#747474" stroke-width=".75" d="M37.7942121 35.3978301L38.7841364 34.9645599C38.7841364 34.9645599 49.1490303 34.4088436 50.6007348 34.5130058 52.0524394 34.617168 51.9235833 37.364722 50.5022955 37.364722 49.0815606 37.364722 38.5977652 37.9547896 38.5977652 37.9547896L37.5 37.6594788M19.5 42.26625L22.1501212 42M23.6779545 40.5L22.5 41.16525M28.0800682 52.5L27 53.9748919M30 53.9748919L31.0302955 52.5"/>
        <polyline stroke="#747474" stroke-width=".75" points="31.5 53.016 56.93 51.688 57.412 51"/>
      </g>
      <g transform="translate(0 144)">
        <path stroke="#747474" stroke-width=".75" d="M112.5 28.5L117.410356 28.5M121.5 1.5L136.026447 10.2518378M124.5 1.5L137.344682 9.46508108M129 1.5L140.829871 9.03956757M132 1.5L142.993136 8.67832432M135 1.5L145.796811 8.38356757M28.5 12C29.7692045 13.097027 30.3283182 13.8006757 30.3648182 15.7603649 30.4013182 17.7195 30.4627045 31.0112568 30.4627045 31.0112568 30.4627045 31.0112568 30.6330379 31.6096351 30.0706061 32.0357027"/>
        <path stroke="#747474" stroke-width=".75" d="M3 16.3905C3.01493182 15.5355946 3.66640152 14.5499324 4.3742803 14.5161351 5.08215909 14.4828919 29.1201742 13.5 29.1201742 13.5M4.5 30.9834459L31.0249924 30"/>
        <polyline stroke="#747474" stroke-width=".75" points="4.5 18.588 6.168 18.883 31.025 18"/>
        <path stroke="#747474" stroke-width=".75" d="M0 21L1.31012879 21.75M30 24.9713017C30 24.9713017 104.593051 21.5629767 104.693423 21.5637027 104.847165 21.5642568 105.505824 19.5114865 105.576612 17.5318514 105.647953 15.5522162 104.399211 13.5 104.399211 13.5L30 16.8793389C30 16.8793389 30.8191584 19.1561324 30.8191584 20.8172157 30.8191584 22.4782991 30 24.9713017 30 24.9713017z"/>
        <path stroke="#747474" stroke-width=".75" d="M48.8151818,15.0013907 C49.6978182,15.9466069 50.6401818,18.2359583 50.5815606,20.5945664 C50.5229394,22.9537285 49.9947955,26.3633772 49.4041591,26.5556339 C48.8135227,26.7478907 39.3926515,27.0520664 39.3926515,27.0520664 C39.3926515,27.0520664 40.9328409,24.9449988 40.4721667,20.9508231 C40.0114924,16.9560934 39,15.6407691 39,15.6407691 C39,15.6407691 48.781447,14.9653772 48.8151818,15.0013907 L48.8151818,15.0013907 Z"/>
        <path stroke="#747474" stroke-width=".75" d="M3.46483101 12.9834459L28.1006719 12 39.1916946 16.1299189C39.1916946 16.1299189 40.7506871 20.3257703 40.4675356 22.4234189 40.1849371 24.5210676 40.092028 26.5721757 39.290134 27.4431486 38.4876871 28.3146757 30.7507931 32.3310135 30.7507931 32.3310135L5.91862647 33.534973C5.91862647 33.534973 3.46538404 32.7703784 2.58108859 31.9802973 1.69734616 31.1902162 1.52369465 30.3563649 1.50157344 28.4293649 1.47945222 26.5023649 1.69789919 14.4583378 1.69789919 14.4583378 1.69789919 14.4583378 1.9882401 13.107 3.46483101 12.9834459M1.31025168 15L.133956229 16.015027C.133956229 16.015027-.167445286 27.0501216.133956229 27.5249459.435910774 27.9997703 1.31025168 28.5111622 1.31025168 28.5111622"/>
        <polyline stroke="#747474" stroke-width=".75" points=".785 15 .687 16.329 0 15.739"/>
        <path stroke="#747474" stroke-width=".75" d="M3,13.5 C3,13.5 5.70708333,14.597027 5.65012121,15.9732973 C5.59315909,17.3495676 5.74800758,32.0995946 5.74800758,32.0995946 C5.74800758,32.0995946 5.6152803,33.8116216 5.2574697,33.8697973"/>
        <polygon stroke="#747474" stroke-width=".75" points="1.5 15 3.564 17.044 3.306 32.149 1.672 30.768 1.5 15"/>
        <path stroke="#747474" stroke-width=".75" d="M1.5 30.74475L3.17955303 30M103.5 12.7864071C103.501659 11.8550422 103.635492 8.21823141 103.892652 7.57497465 104.149258 6.93116384 104.653068 5.95713682 105.070053 6.00146114 105.487038 6.04523141 106.591992 8.36948817 106.640659 9.93469087 106.688773 11.5004476 106.836985 16.916326 106.836985 16.916326 106.836985 16.916326 106.775045 22.7532855 105.561144 23.1112044 104.346689 23.4691233 104.111098 21.1653665 104.088424 20.9481774"/>
        <path stroke="#747474" stroke-width=".75" d="M102.536992,24.8229606 C102.299742,25.7947714 102.143235,25.6601363 102.044242,28.7639471 C101.944697,31.8677579 102.044242,40.9492579 102.044242,40.9492579 C102.044242,40.9492579 121.866508,52.860312 122.314462,53.1428795 C122.76297,53.424893 125.258795,52.4752444 126.260886,47.3413795 C127.262977,42.2069606 127.533409,35.8297984 127.074947,30.9197714 C126.616485,26.0102984 124.987258,13.9657174 121.284167,13.5147174 C117.580523,13.0637174 116.911909,23.1181363 116.867114,24.4295822 C116.822318,25.7410282 116.376576,35.1643795 116.376576,35.1643795 L112.646939,33.2274066 L111.17422,29.1495687 C111.17422,29.1495687 103.898553,24.939312 103.518621,24.6262714 C103.138689,24.3132309 102.633773,24.4279201 102.536992,24.8229606 L102.536992,24.8229606 Z"/>
        <polyline stroke="#747474" stroke-width=".75" points="120 24 120.681 24.243 123.926 24"/>
        <path stroke="#747474" stroke-width=".75" d="M123 54.4473243L164.423076 52.9663378C164.423076 52.9663378 165.941144 51.4232973 166.091568 51M102.00226 21.2432838C102.00226 21.2432838 101.888336 23.141473 103.278101 24.095 104.667866 25.048527 110.9337 28.7130405 110.9337 28.7130405L113.387495 18.6868784 116.233942 20.2598378C116.233942 20.2598378 117.421851 12.3878378 118.982503 12"/>
        <path fill="#F9F9F9" stroke="#747474" stroke-width=".75" d="M128.721166,51.9498914 C128.721166,51.9498914 164.06478,50.3481211 165.135447,50.2783103 C166.206666,50.2079454 167.86631,50.142013 168.178219,48.3114184 C168.490128,46.4808238 170.778568,33.9071211 169.257735,27.4645806 C167.736901,21.0225941 167.004689,19.5094725 163.66328,19.5000536 C160.321871,19.4900806 130.978636,20.8763238 130.978636,20.8763238 C130.978636,20.8763238 127.481825,22.4276752 127.935863,25.8423103 C128.390454,29.2569454 129.040265,35.0252022 129.015932,37.6913103 C128.991598,40.3574184 128.300863,46.9079995 127.837977,48.6061752 C127.374538,50.3049049 127.164386,51.9698373 128.721166,51.9498914 L128.721166,51.9498914 Z"/>
        <path stroke="#747474" stroke-width=".75" d="M120.496744 22.5C120.216358 23.3150135 120.005653 22.5387838 120.005653 28.9575 120.005653 35.3767703 119.992934 41.8797027 120.005653 41.9328919 120.292676 43.132973 121.292002 43.748527 123.244752 44.4892973M124.913121 39L120 39.14025"/>
        <path stroke="#747474" stroke-width=".75" d="M121.079515,22.5608496 C121.677341,22.8905118 123.714705,24.2302145 123.925962,25.0191874 C124.13722,25.8081604 124.229023,28.8050388 124.229023,28.8050388 L125.594455,29.3308361 L125.496568,42.5223091 L124.318614,41.8341739 C124.318614,41.8341739 124.263864,44.7640118 123.729636,45.1285793 C123.195962,45.4925928 120.826227,44.1805928 120.490538,43.3090658 C120.155402,42.4375388 120.066364,41.0740118 120.098439,38.0976334 C120.129962,35.121255 120,23.9376739 120,23.9376739 C120,23.9376739 120.235591,22.1519577 121.079515,22.5608496"/>
        <path stroke="#747474" stroke-width=".75" d="M122.196103 18.0006225C124.498921 17.9247171 126.596012 24.8005279 126.876399 33.3451495 127.156232 41.8897711 125.513732 48.8885819 123.210914 48.9644873 120.908095 49.0403927 118.811005 42.1645819 118.531171 33.6199603 118.250785 25.0747846 119.893285 18.0765279 122.196103 18.0006225L122.196103 18.0006225zM159.347856 10.5L159 12.4668919C159 12.4668919 161.180598 12.0341757 161.650121 12.0735135 162.119644 12.1128514 163.487288 12.5837973 164.692894 15.0232973 165.8985 17.4633514 167.048803 22.9883784 167.048803 22.9883784M160.5 12C161.166955 12.6005946 163.162841 14.8400811 164.05322 19.9301757"/>
        <polyline stroke="#747474" stroke-width=".75" points="159.04 42 160.66 42 160.267 45.245 159.874 45.245 159.874 42.746 159 42.746 159.04 42"/>
        <polygon stroke="#747474" stroke-width=".75" points="138.267 30.147 138.071 27 136.5 27 136.5 27.59 137.58 27.689 137.776 30.147"/>
        <polygon stroke="#747474" stroke-width=".75" points="142.766 30.147 142.57 27 141 27 141 27.59 142.08 27.689 142.276 30.147"/>
        <path stroke="#747474" stroke-width=".75" d="M145.795326 30.2446717C145.795326 30.2446717 145.485076 27.233942 145.500561 27.3929555 145.516599 27.5525231 145.604531 26.9901582 146.384303 27.0001312 147.163523 27.0095501 147.446122 27.326469 147.463819 27.6882663 147.481515 28.0500636 147.561705 30.1466042 147.561705 30.1466042L147.071167 30.1466042C147.071167 30.1466042 146.903599 28.176942 146.776402 27.7863339 146.649758 27.3962799 146.076265 27.7032258 146.089538 27.9830231 146.102811 28.2628204 146.285864 30.1466042 146.285864 30.1466042L145.795326 30.2446717zM151.278586 27.0986216L151.278586 28.5735135C151.278586 28.5735135 150.049753 28.2244595 150.002745 29.2616486 149.955737 30.2988378 150.523147 30.3215541 150.885934 30.3431622 151.248722 30.3653243 152.063889 30.3431622 152.063889 30.3431622L152.063889 28.9175811 151.96545 27 151.278586 27.0986216 151.278586 27.0986216z"/>
        <path stroke="#747474" stroke-width=".75" d="M150.790214,28.5169259 C150.790214,28.5169259 150.045283,28.4094297 150.005464,28.7362428 C149.965093,29.0636737 150.153676,29.1390446 150.397563,29.1748767 C150.641449,29.2107087 150.821737,29.1575784 150.790214,28.5169259 Z"/>
        <polygon stroke="#747474" stroke-width=".75" points="158.58 27 157.5 30.048 160.739 29.663 158.58 27"/>
        <polygon stroke="#747474" stroke-width=".75" points="136.5 44.975 139.81 43.5 139.346 46.352"/>
        <polygon fill="#000" points="140.788 45.006 133 50.013 133 40" transform="rotate(-180 136.894 45.006)"/>
        <path stroke="#747474" stroke-width=".75" d="M146.752161,46.4378408 L147.046373,43.5201922 C147.046373,43.5201922 145.788782,43.4747598 145.377328,43.5201922 C144.966426,43.5650706 144.054479,44.3861787 144.004153,45.1917733 C143.953275,45.9973679 144.376896,46.633976 144.887343,46.7652868 C145.39779,46.8965976 146.752161,46.7331517 146.752161,46.7331517"/>
        <path stroke="#747474" stroke-width=".75" d="M145.587078,45.5649595 L145.488638,43.5 C145.488638,43.5 144.094449,43.8025135 144.016471,44.3848243 C143.937941,44.9676892 144.135926,45.3909865 144.702782,45.4668919 C145.270191,45.5422432 145.587078,45.5649595 145.587078,45.5649595 Z"/>
        <polygon stroke="#747474" stroke-width=".75" points="148.5 43.5 149.58 46.666 149.973 46.666 151.838 43.5 151.15 43.5 150.806 44.11 149.482 44.11 148.991 43.5"/>
        <polygon stroke="#747474" stroke-width=".75" points="150 45 150.416 45.836 150.976 45"/>
        <path stroke="#747474" stroke-width=".75" d="M155.15903,43.5 C155.774553,43.5 156.723,44.0573784 156.634515,45.0735135 C156.54603,46.0896486 155.442182,46.7450946 154.668492,46.7450946 C153.895356,46.7450946 153,46.0298108 153,45.0735135 C153,44.1172162 154.242106,43.5 155.15903,43.5 Z"/>
        <path stroke="#747474" stroke-width=".75" d="M155.842758 43.5C156.225455 43.5 156.815538 43.8462838 156.760788 44.4784595 156.705485 45.1106351 156.018621 45.5184189 155.537485 45.5184189 155.056348 45.5184189 154.5 45.0735135 154.5 44.4784595 154.5 43.8839595 155.272583 43.5 155.842758 43.5L155.842758 43.5zM102 1.5L102 12.6121081M103.5 1.76964865L143.840242 0 160.624159 10.3247973 157.385061 10.6201081C157.385061 10.6201081 160.443318 11.7897162 161.703674 14.0613378 162.96403 16.3335135 163.863258 20.0600811 163.863258 20.0600811L131.080727 21.4363514C131.080727 21.4363514 129.784424 15.5295811 127.645303 13.6679595 125.506182 11.8068919 124.60253 12.1930676 124.60253 12.1930676L120.18603 12.5864459 103.5 1.76964865 103.5 1.76964865zM139.939446 33.5646839C139.712703 34.498819 139.075612 37.8580487 139.939446 38.9728055 140.803279 40.0875622 141.073711 40.6111433 146.221317 40.3496298 151.368923 40.0881163 154.886749 40.1307785 155.741734 38.6780487 156.597271 37.2247649 156.238355 33.1701974 155.447521 32.1878595 154.656135 31.2055217 151.813559 31.5484812 147.889809 31.597792 143.966059 31.6476568 140.470908 31.3745082 139.939446 33.5646839z"/>
        <path stroke="#747474" stroke-width=".75" d="M141.420452,32.6471165 C141.142831,33.4189138 140.918854,36.0163192 141.028354,36.9737246 C141.137301,37.930576 141.606271,38.5594273 144.266899,38.5466841 C146.927528,38.5344949 154.180521,37.9571706 154.180521,37.9571706 C154.180521,37.9571706 155.604021,36.8961571 155.652687,35.3021436 C155.701354,33.707576 154.853005,31.8176976 154.278407,31.565049 C153.704361,31.3129544 143.303521,31.8686706 142.893172,31.9584273 C142.482271,32.0487382 141.594104,32.1661976 141.420452,32.6471165 L141.420452,32.6471165 Z"/>
        <path stroke="#747474" stroke-width=".75" d="M139.794212 35.3978301L140.784136 34.9645599C140.784136 34.9645599 151.14903 34.4088436 152.600735 34.5130058 154.052439 34.617168 153.923583 37.364722 152.502295 37.364722 151.081561 37.364722 140.597765 37.9547896 140.597765 37.9547896L139.5 37.6594788M121.5 42.26625L124.150121 42M125.677955 40.5L124.5 41.16525M130.080068 52.5L129 53.9748919M132 53.9748919L133.030295 52.5"/>
        <polyline stroke="#747474" stroke-width=".75" points="133.5 53.016 158.93 51.688 159.412 51"/>
      </g>
      <use fill="#F8E71C" class="cable C fill" xlink:href="#5.connectcts-2-d"/>
      <path stroke="#747474" stroke-width="1.5" d="M30.75,165.75 L30.75,176.25 L116.25,176.25 L116.25,165.75 L30.75,165.75 Z"/>
      <g>
        <use fill="#B47239" class="cable A fill" xlink:href="#5.connectcts-2-e"/>
        <path stroke="#747474" stroke-width="1.5" d="M30.75,21.75 L30.75,32.25 L116.25,32.25 L116.25,21.75 L30.75,21.75 Z"/>
      </g>
      <g transform="matrix(-1 0 0 1 127.5 81)">
        <path fill="#F9F9F9" stroke="#747474" stroke-width=".75" d="M22.4987386,10.4855774 C22.5810343,12.4626696 39.6701804,14.353343 48.8284126,17.8785938 C57.9866447,21.4038445 63.8600848,39.4767008 63.8600848,56.4653922 C63.8600848,65.7305532 57.8244906,74.9796696 50.4218348,82.735209 C43.019179,90.4907484 29.5870809,94.8062887 23.6647252,93.653541 C17.4847643,92.2113879 22.3780558,100.842204 23.2811525,100.433765 C23.2811525,100.433765 45.4969902,101.979383 56.3434558,90.0104563 C67.1899213,78.04153 72,68.0707829 72,54.8606114 C72,30.7139309 63.3322357,12.7998117 50.4218348,7.80855624 C37.5114339,2.81730079 23.4378338,0.560283903 23.2811525,0.744547154 C21.2400991,3.14202261 22.3686241,7.35967277 22.4987386,10.4855774 Z"/>
        <g transform="rotate(-2 2476.689 12.015)">
          <mask id="5.connectcts-2-g" fill="#fff">
            <use xlink:href="#5.connectcts-2-f"/>
          </mask>
          <g mask="url(#5.connectcts-2-g)">
            <g transform="translate(-16.5 3)">
              <path fill="#F9F9F9" stroke="#747474" stroke-width=".75" d="M46.5,12.2054795 C46.5,12.2054795 37.9275428,11.9735753 37.9264382,12.0547945 C37.9165713,12.7700959 37.1532791,13.2979452 37.1532791,13.2979452 L29.3480534,13.0719178 L21.2851081,16.5 C21.2851081,16.5 3.00515914,16.1078048 1.99294656,15.9349315 C0.98069715,15.7620582 1.18713064,14.5128425 0.962067696,14.5410959 C0.736967933,14.5693493 0.262542755,13.9383562 0.262542755,13.9383562 L0.00482304038,5.1609589 C0.00482304038,5.1609589 0.613225653,5.0385274 0.667530879,4.44520548 C0.721799287,3.85188356 0.681852732,2.33463699 1.47750713,1.39383562 C2.2731247,0.453034247 3.28154513,1.44240175e-12 3.28154513,1.44240175e-12 L22.4101283,0.414383562 L29.6569121,4.25684932 L37.3819501,4.44520548 C37.3819501,4.44520548 38.0671532,5.03822603 38.0808492,5.80136986 C38.0833159,5.93811644 46.5,6.02739726 46.5,6.02739726 L37.3005475,5.80136986 C37.3005475,5.80136986 36.58162,7.5152226 36.6010226,9.07876712 C36.6364406,11.935226 37.9264382,12.0547945 37.9264382,12.0547945"/>
              <path fill="#F9F9F9" stroke="#747474" stroke-width=".75" d="M37.210677 4.44102397C37.210677 4.44102397 36.1593278 6.93241096 36.1593278 9.00342466 36.1593278 11.0744384 36.6596722 13.3053288 37.1165724 13.3356164M29.7162245 4.44102397C29.7162245 4.44102397 28.5306033 5.93849315 28.5748943 8.88833904 28.6191485 11.8381473 29.4216876 13.3356164 29.4216876 13.3356164M22.3896211.52739726C22.3896211.52739726 21.1489216 1.48571575 20.8433029 2.33561644 20.5376473 3.18551712 20.5855831 5.95205479 20.5855831 5.95205479M1.62477553 1.28082192L21.0335736 2.03082192M.630713777 4.44102397L20.5828219 5.19102397M.00482304038 5.3869863C.439228029 5.87607192 1.78169002 5.91766096 3.28154513 5.95205479 4.78136342 5.98644863 8.73047625 5.95205479 8.73047625 5.95205479L11.3291746 6.45263014 13.0748943 6.45263014M.630713777 5.01027397C.630713777 5.01027397.714583135 5.34257192 1.1093361 5.3869863 1.50405226 5.43140068 8.69365914 5.65068493 8.69365914 5.65068493L11.528576 5.95205479 12.5226378 5.95205479"/>
              <path fill="#F9F9F9" stroke="#747474" stroke-width=".75" d="M2.17703207 4.72566781C2.56556295 5.34249658 7.23437648 5.31006164 10.6067494 5.48116438 13.9791591 5.65226712 20.5828219 5.95205479 20.5828219 5.95205479 20.5828219 5.95205479 22.4525048 6.00189384 23.2523931 6.17808219 24.0522815 6.35427055 25.0540012 6.54752397 25.0404525 7.83561644 25.026867 9.1237089 25.4625238 13.6983904 24.7827328 14.390411 24.102905 15.0824315 23.2646164 15.2519521 22.3896211 15.2191781 21.5145891 15.1864041 13.0748943 14.9931507 13.0748943 14.9931507L12.5226378 15.2191781 8.91456176 14.6917808.998884798 14.5787671M11.3291746 6.45263014L12.0958413 15.0930548M8.50957363 5.95205479L9.2762403 14.6164384M.998884798 5.95205479L1.76555146 14.6164384"/>
              <polyline fill="#F9F9F9" stroke="#747474" stroke-width=".75" points=".005 9.974 1.153 9.974 8.675 10.51 11.66 10.773 12.523 10.773 13.082 10.548 24.967 10.773"/>
              <path fill="#F9F9F9" stroke="#747474" stroke-width=".75" d="M12.7067233,15.0930548 L12.4858207,6.45263014 L12.8539917,5.95205479 L13.3694311,6.45263014 L13.5166995,14.6164384 C13.5166995,14.6164384 22.63162,14.9746164 23.2523931,14.8424658 C23.8732031,14.7103151 24.757329,14.5374418 24.6354644,11.640411 C24.5135629,8.74338014 24.563671,6.86381164 23.5309513,6.81849315 C22.4981948,6.77317466 16.4252506,6.45263014 16.4252506,6.45263014 L13.3694311,6.45263014"/>
            </g>
          </g>
        </g>
      </g>
      <g>
        <use fill="#F5A623" class="cable B fill" xlink:href="#5.connectcts-2-h" />
        <path stroke="#747474" stroke-width="1.5" d="M30.75,92.25 L30.75,102.75 L116.25,102.75 L116.25,92.25 L30.75,92.25 Z"/>
      </g>
      <g transform="matrix(-1 0 0 1 127.5 9)">
        <path fill="#F9F9F9" stroke="#747474" stroke-width=".75" d="M22.4987386,10.4855774 C22.5810343,12.4626696 39.6701804,14.353343 48.8284126,17.8785938 C57.9866447,21.4038445 63.8600848,39.4767008 63.8600848,56.4653922 C63.8600848,65.7305532 57.8244906,74.9796696 50.4218348,82.735209 C43.019179,90.4907484 29.5870809,94.8062887 23.6647252,93.653541 C17.4847643,92.2113879 22.3780558,100.842204 23.2811525,100.433765 C23.2811525,100.433765 45.4969902,101.979383 56.3434558,90.0104563 C67.1899213,78.04153 72,68.0707829 72,54.8606114 C72,30.7139309 63.3322357,12.7998117 50.4218348,7.80855624 C37.5114339,2.81730079 23.4378338,0.560283903 23.2811525,0.744547154 C21.2400991,3.14202261 22.3686241,7.35967277 22.4987386,10.4855774 Z"/>
        <g transform="rotate(-2 2476.689 12.015)">
          <mask id="5.connectcts-2-j" fill="#fff">
            <use xlink:href="#5.connectcts-2-i"/>
          </mask>
          <g mask="url(#5.connectcts-2-j)">
            <g transform="translate(-16.5 3)">
              <path fill="#F9F9F9" stroke="#747474" stroke-width=".75" d="M46.5,12.2054795 C46.5,12.2054795 37.9275428,11.9735753 37.9264382,12.0547945 C37.9165713,12.7700959 37.1532791,13.2979452 37.1532791,13.2979452 L29.3480534,13.0719178 L21.2851081,16.5 C21.2851081,16.5 3.00515914,16.1078048 1.99294656,15.9349315 C0.98069715,15.7620582 1.18713064,14.5128425 0.962067696,14.5410959 C0.736967933,14.5693493 0.262542755,13.9383562 0.262542755,13.9383562 L0.00482304038,5.1609589 C0.00482304038,5.1609589 0.613225653,5.0385274 0.667530879,4.44520548 C0.721799287,3.85188356 0.681852732,2.33463699 1.47750713,1.39383562 C2.2731247,0.453034247 3.28154513,1.44240175e-12 3.28154513,1.44240175e-12 L22.4101283,0.414383562 L29.6569121,4.25684932 L37.3819501,4.44520548 C37.3819501,4.44520548 38.0671532,5.03822603 38.0808492,5.80136986 C38.0833159,5.93811644 46.5,6.02739726 46.5,6.02739726 L37.3005475,5.80136986 C37.3005475,5.80136986 36.58162,7.5152226 36.6010226,9.07876712 C36.6364406,11.935226 37.9264382,12.0547945 37.9264382,12.0547945"/>
              <path fill="#F9F9F9" stroke="#747474" stroke-width=".75" d="M37.210677 4.44102397C37.210677 4.44102397 36.1593278 6.93241096 36.1593278 9.00342466 36.1593278 11.0744384 36.6596722 13.3053288 37.1165724 13.3356164M29.7162245 4.44102397C29.7162245 4.44102397 28.5306033 5.93849315 28.5748943 8.88833904 28.6191485 11.8381473 29.4216876 13.3356164 29.4216876 13.3356164M22.3896211.52739726C22.3896211.52739726 21.1489216 1.48571575 20.8433029 2.33561644 20.5376473 3.18551712 20.5855831 5.95205479 20.5855831 5.95205479M1.62477553 1.28082192L21.0335736 2.03082192M.630713777 4.44102397L20.5828219 5.19102397M.00482304038 5.3869863C.439228029 5.87607192 1.78169002 5.91766096 3.28154513 5.95205479 4.78136342 5.98644863 8.73047625 5.95205479 8.73047625 5.95205479L11.3291746 6.45263014 13.0748943 6.45263014M.630713777 5.01027397C.630713777 5.01027397.714583135 5.34257192 1.1093361 5.3869863 1.50405226 5.43140068 8.69365914 5.65068493 8.69365914 5.65068493L11.528576 5.95205479 12.5226378 5.95205479"/>
              <path fill="#F9F9F9" stroke="#747474" stroke-width=".75" d="M2.17703207 4.72566781C2.56556295 5.34249658 7.23437648 5.31006164 10.6067494 5.48116438 13.9791591 5.65226712 20.5828219 5.95205479 20.5828219 5.95205479 20.5828219 5.95205479 22.4525048 6.00189384 23.2523931 6.17808219 24.0522815 6.35427055 25.0540012 6.54752397 25.0404525 7.83561644 25.026867 9.1237089 25.4625238 13.6983904 24.7827328 14.390411 24.102905 15.0824315 23.2646164 15.2519521 22.3896211 15.2191781 21.5145891 15.1864041 13.0748943 14.9931507 13.0748943 14.9931507L12.5226378 15.2191781 8.91456176 14.6917808.998884798 14.5787671M11.3291746 6.45263014L12.0958413 15.0930548M8.50957363 5.95205479L9.2762403 14.6164384M.998884798 5.95205479L1.76555146 14.6164384"/>
              <polyline fill="#F9F9F9" stroke="#747474" stroke-width=".75" points=".005 9.974 1.153 9.974 8.675 10.51 11.66 10.773 12.523 10.773 13.082 10.548 24.967 10.773"/>
              <path fill="#F9F9F9" stroke="#747474" stroke-width=".75" d="M12.7067233,15.0930548 L12.4858207,6.45263014 L12.8539917,5.95205479 L13.3694311,6.45263014 L13.5166995,14.6164384 C13.5166995,14.6164384 22.63162,14.9746164 23.2523931,14.8424658 C23.8732031,14.7103151 24.757329,14.5374418 24.6354644,11.640411 C24.5135629,8.74338014 24.563671,6.86381164 23.5309513,6.81849315 C22.4981948,6.77317466 16.4252506,6.45263014 16.4252506,6.45263014 L13.3694311,6.45263014"/>
            </g>
          </g>
        </g>
      </g>
    </g>
  </g>
</svg>
