<svg xmlns="http://www.w3.org/2000/svg" width="242" height="414" viewBox="0 0 242 414"><g fill="none" fill-rule="evenodd"><g><g stroke="#747474"><g transform="translate(0 63) translate(0 35)"><path d="M53.142 144.495v-7.64l5.397 7.293v-7.814M139.676 118.095c2.917-3.026 6.394-6.587 8.172-7.897 2.194-1.617 5.937-.856 6.964 0 .18.15 4.5-4.514 4.5-4.514l14.825 14.585s-3.874 3.545-4.353 4.34c-.478.796 2.153 5.316-.522 7.987-2.675 2.67-9.04 8.365-9.95 9.203-.91.837-4.445 2.164-7.285.173-2.338-1.64-10.51-10.354-13.32-13.377"/><path d="M141.514 120.125c2.59-2.478 7.023-7.067 7.967-7.658 1.236-.773 4.22.028 5.224 1.04.152.155 4.5-3.992 4.5-3.992l11.517 11.633-4.7 4.515s3.994 2.534 1.045 5.73c-2.95 3.196-8.096 8.047-9.053 8.855-.957.81-3.378 1.298-4.732 0-1.354-1.297-12.043-12.316-13.295-13.445"/><path d="M164.25 115.9l.32 5.645 5.077-.506M151.01 119.732l-5.916 6.002 12.085 12.245 6.194-6.404z"/><path d="M152.28 123.563h-2.813l-1.82 2.69 8.767 9.117 2.482-2.604-.168-3.126-6.448-6.077zM161.896 123.563l-1.477 1.736 2.343 2.69 1.433-1.822-2.3-2.605zM155.567 117.177l-1.534.927 2.416 2.952 1.813-1.94z"/><path d="M96.464.96s54.39.96 62.85 5.384 22.792 6.528 30.466 26.392c7.673 19.865 8.816 62.765 9.4 73.62.953 17.703-.435 57.637-16.088 74.665-15.653 17.028-56.91 15.227-72.526 15.8-15.615.576-67.9 1.648-85.307-10.764-17.407-12.41-22.377-27.37-24.026-61.293-1.648-33.923 1.628-67.9 2.96-76.747 5.027-33.398 25.6-41.75 48.92-44.277C76.435 1.21 96.465.96 96.465.96z"/><path d="M199.88 117.177s-1.21 42.314-4.89 56.117c-3.678 13.803-12.28 27.912-28.713 34.255-12.114 4.674-35.93 7.215-67.166 7.137-31.236-.077-61.73-1.525-76.038-12.56C8.765 191.09.802 168.08.782 124.47"/><path d="M199.41 127.394s3.854 54.066-10.325 78.39c-14.49 24.856-55.325 25.334-89.974 25.338-34.648.004-71.724-.5-86.734-24.99-15.01-24.49-10.293-69.65-11.595-78.738"/><path d="M199.88 117.177c-2.165 25.502 6.62 103.327-24.51 119.55-26 13.55-63.44 11.13-75.202 11.36-11.764.23-53.666 1.725-75.43-11.36C2.97 223.64 1.08 186.234.78 133.76"/><path d="M85.65 19.295l36.325-.043.268-11.558s20.328-.13 35.342 3.993 28.678 16.622 31.163 38.026c2.485 21.405 2.437 26.22 2.437 26.22l-11.838-.174v45.317l11.838 1.042s-.507 32.652-11.664 50.006-43.256 17.365-47.527 17.71c-4.27.347-9.4.87-9.4.87v-12.85H76.107v12.328s-34.003-1.005-45.265-7.987S11.297 164.77 8.56 139.483c-1.04-9.6-1.045-17.885-1.045-17.885h12.633V76.106L7.166 75.76S8.922 41 15.87 30.092c6.95-10.908 20.868-19.938 38.302-21.01C71.606 8.01 76.456 7.346 76.456 7.346l.51 3.155"/><path d="M80.484 13.322V6.02S95.15 3.414 100.4 3.518c5.252.104 18.77 1.915 18.77 1.915l1.223 6.014s9.42-.47 17.115.8c7.694 1.268 29.713 2.72 38.475 15.8 8.762 13.082 9.923 49.834 9.923 49.834l7.104.348s1.402 11.975 1.472 19.947c.07 7.972-3.04 18.687-3.04 18.687h-3.48v4.254s-1.19 27.91-6.234 40.207c-5.69 13.873-16.424 17.292-32.556 20.39-16.132 3.1-26.984 3.127-26.984 3.127l-3.482-.347s-11.898 1.008-19.412 1.155c-7.514.147-19.76-1.39-19.76-1.39l-3.656.235s-27.182-1.15-38.3-5.617c-11.12-4.468-22.492-13.863-23.852-39.53-.65-12.276-1.044-22.484-1.044-22.484H8.33S5.963 104.388 5.89 98.175c-.072-6.212 1.393-19.947 1.393-19.947l4.874-.174.237-2.982s1.906-28.85 6.552-39.732c6.4-14.992 15.433-18.62 33.077-21.878C69.67 10.204 68.71 11.62 68.71 11.62"/><path d="M78.684 8.258s13.67-2.5 22.46-2.156c8.787.343 18.05 2.01 18.05 2.01l-1.687 5.26-38.823-.136V11.6m102.17 67.264h8.333s1.304 13.73 1.24 19.404c-.062 5.676-2.78 19.404-2.78 19.404H181.2l-.347-38.808zm-63.347 102.17v7.298s-6.963 2.065-19.237 2.424c-12.274.36-19.586-2.424-19.586-2.424v-7.3h38.823zM16.104 78.863l-.348 38.808h-5.05s-2.302-10.574-2.262-18.686c.04-8.113 2.785-20.122 2.785-20.122h4.874z"/><ellipse cx="39.933" cy="39.834" rx="7.225" ry="6.945"/><ellipse cx="39.569" cy="39.533" rx="5.583" ry="5.367"/><path d="M43.28 35.443c-.915 2.96-2.147 7.73-6.74 8.544"/><ellipse cx="158.704" cy="38.557" rx="7.225" ry="6.945"/><ellipse cx="159.465" cy="39.387" rx="5.431" ry="5.221"/><path d="M156.588 35.443c.42 3.387 2.96 7.376 7.01 7.876"/><ellipse cx="159.72" cy="157.328" rx="6.964" ry="6.945"/><ellipse cx="159.11" cy="156.856" rx="5.076" ry="5.197"/><path d="M162.237 155.49c-3.08.39-6.816 3.74-6.926 5.96m6.73-8.514c-2.588.245-7.19 4.37-8.007 6.25"/><ellipse cx="39.933" cy="157.588" rx="7.225" ry="7.206"/><ellipse cx="39.138" cy="156.969" rx="5.153" ry="5.31"/><path d="M33.986 155.497c3.533-.195 7.788 3.864 7.657 5.96m-5.103-8.52c2.702.292 8.267 5.01 7.09 6.77m14.62 43.037c27.402 2.26 54.62 2.268 81.65 0m-79.095 1.277c25.163 2.262 50.157 2.27 74.98 0m-74.98 15.326c25.163 2.26 50.157 2.27 74.98 0m-74.98 19.157c25.163 2.26 50.157 2.268 74.98 0M58.25 218.07c27.402 2.26 54.62 2.268 81.65 0m-81.65 19.155c27.402 2.262 54.62 2.27 81.65 0M25.047 76.205l14.85 14.758 3.88-3.3s3.932 1.557 6.514-.346c2.582-1.903 10.135-9.69 11.49-11.113 1.355-1.424 1.88-5.35-.174-7.293C59.55 66.97 48.87 56.56 47.156 54.848c-1.715-1.71-6.414-2.398-8.357.174-1.944 2.572-8.873 9.35-10.098 10.592-1.226 1.242-1.017 5.555 0 6.425.137.117-3.656 4.167-3.656 4.167z"/><path d="M27.6 75.674L39.15 87.48l3.698-2.777s4.028 2.43 6.166 0c2.137-2.43 9.55-9.652 10.097-10.418.55-.766.572-2.963-.695-3.994-1.267-1.03-12.878-13.02-13.68-13.542-.804-.52-3.274-1.67-4.774 0s-9.165 8.148-9.75 9.203c-.582 1.055-1.415 4.478.524 6.01.058.046-2.807 3.83-3.134 3.714"/><path d="M43.156 63.54l13.027 12.056-6.8 6.79-12.843-12.25 6.616-6.597z"/><path d="M43.563 64.816l9.227 8.682-1.567 3.125-3.133-.173-6.442-6.598v-3.126zM33.986 82.696h2.605v2.952M36.54 76.248l2.274 2.78 1.915-1.564-2.612-2.43zM42.925 83.91l4.19 1.216-2.61-2.43-1.58 1.215zM50.878 66.093l-1.567 1.563 2.612 2.43 1.045-1.562-2.09-2.43zM55.638 69.43l-1.22-.783V72.9h2.09l-.336-2.777M102.95 143.8l3.655-7.466 3.134 7.466M104.226 139h3.886M92.82 49.49v7.815s3.928.663 3.83-2.258c-.075-2.203-4.594-1.927-3.83-1.85 2.925.293 5.61-3.69 0-3.706zm54.563-.12c-1.545-1.77-6.12-2.058-6.12 3.16s5.545 3.9 6.12 2.63M32.708 69.382l1.248 1.925 2.57-2.597-1.518-1.34zM145.094 121.277l1.24.874 2.484-2.25-1.547-1.445-2.176 2.822zM62.1 83.217v60.296c0 7.278-.69 25.726 6.666 25.726H91.79c7.33 0 7.978-18.416 7.978-26.905 0-8.488-.676-59.64-.676-59.64l-36.993.522z"/><path d="M64.636 135.872v4.967s1.21 3.694 7.138 3.694 7.137-2.544 7.137-3.25v-6.19s-1.707-3.868-6.98-3.868c-5.276 0-7.294 3.198-7.294 4.646zm2.554-3.37c1.092 1.093 8.142 1.33 10.09.153m5.236 3.217v4.967s1.21 3.694 7.137 3.694c5.928 0 7.138-2.544 7.138-3.25v-6.19s-1.707-3.868-6.982-3.868-7.292 3.198-7.292 4.646zm1.277-3.37c1.092 1.093 8.142 1.33 10.088.153M62.083 134h2.804m15.075 0h2.806m13.798 0h2.206"/><path d="M62.082 142.725c.61.496 6.995 2.827 9.942 3.072 3.25.27 8.678-2.9 8.5-3.072-.027-.028 3.07 2.762 8.475 2.762 5.404 0 7.582-2.907 7.695-2.762.113.144 1.727 0 1.727 0"/><path d="M62.082 144.444c.827 1.083 4.905 3.25 8.373 3.25h7.138l3.315-1.857 3.03 2.01 8.24-.153s7.074-2.113 7.567-3.697M70 146.55v23.816m19-23.815v23.816M64.636 106.3v23.678H78.91v-23.522l-2.792-5.88h-8.534zM82.516 106.3v23.678H96.79v-23.522L94 100.576h-8.534zM62.082 102H65.8m12.884 0h4.655m11.947 0h3.793m-36.998 14h2.787m-2.788 5h2.787m15.09-5h2.33m-2.33 5h2.33m14.274-5H98.6m-2.036 2h1.863m-1.863 3H98.6m-32.687-18h3.26m5.68 0h3.414m4.25 0h3.257m6.958 0h3.508"/><ellipse cx="72.615" cy="105.695" rx="2.871" ry="2.565"/><ellipse cx="89.217" cy="105.695" rx="2.871" ry="2.565"/><path d="M67.19 109.515h9.578v7.877H67.19zM83.793 109.515h9.578v7.877h-9.577zM64.636 118H78.91m-14.274 2H78.91m-14.274 1H78.91m-14.274 2H78.91m-12.997 1h14.275m-15.552 3H78.91m-14.274 1H78.91m3.606-10H96.79m-14.274 2H96.79m-14.274 1H96.79m-14.274 2H96.79m-14.274 1H96.79m-14.274 3H96.79m-14.274 1H96.79M77 151.66v16.403m11-36.837v16.403m-10 5.306v13.31m4-14.587v16.403m1-15.127v13.31m51.847-53.688l2.223-.032V52.23c0-7.278.672-25.727-6.49-25.727h-22.42c-7.133 0-7.765 18.416-7.765 26.904s.658 59.64.658 59.64l26.702-.386M137.682 62h-2.805m1.528-2H133.6m-13.798 0h-2.805M103.2 60h-2.805m19.407 4h-2.805M102.6 64h-2.205"/><path d="M136.735 52.272c-.61-.242-6.995-1.377-9.942-1.496-3.25-.132-8.678 1.412-8.5 1.496.027.013-3.07-1.345-8.475-1.345-5.405 0-7.583 1.415-7.696 1.345-.113-.07-1.727 0-1.727 0m37.664 4.476c-.83-.683-4.906-2.05-8.375-2.05h-7.137l-3.315 1.17-3.03-1.27-8.24.1s-7.075 1.332-7.568 2.332M128 54.505V26.503m-20 28.002V26.503M133.827 87.365v-22.55h-14.275V87.22l2.793 5.6h8.533zM117.224 87.365v-22.55H102.95V87.22l2.792 5.6h8.534zM137.318 87H133.6m-13.225 0h-4.655m-11.532 0h-3.793m37.27-15h-2.788m2.787-2h-2.787m-14.275 2h-2.327m2.327-2h-2.327m-15.843 2h-2.037m1.863-1h-1.863m2.037-2h-2.037m32.632 18h-3.26m-5.525 0h-3.413m-4.405 0h-3.26m-5.432 0h-3.507"/><ellipse cx="127.531" cy="87.815" rx="2.871" ry="2.565"/><ellipse cx="109.651" cy="87.815" rx="2.871" ry="2.565"/><path d="M122.106 75.033h9.578v7.877h-9.578zM105.503 75.033h9.578v7.877h-9.577zM133.827 71h-14.275m14.275-1h-14.275m14.275-3h-14.275m14.275-1h-14.275m14.275-4h-14.275m14.275-1h-14.275m-2.328 11H102.95m14.274-1H102.95m14.274-2H102.95m14.274-2H102.95m14.274-1H102.95m14.274-4H102.95m14.274-1H102.95M121 49.482V27.78m-2 20.162V30.334m-4 19.148V27.78m-1 20.16V30.335m-11.05 31.493v-3.953c0-2.97 14.704-2.413 14.704.258v3.935m3.175-.24v-3.953c0-2.97 14.704-2.413 14.704.258v3.935M58.408 50.768l.62.753-3.332 3.62M60.55 54.703s-1.04.5-1.022 1.33c.016.832 2.688 3.46 3.504 3.096.817-.365 1.783-1.34.47-2.725-1.316-1.385-2.296-2.084-2.952-1.702z"/><path d="M62.372 57.163c-.81.168-3.07 1.58-.018 4.172 3.052 2.592 4.206-.113 2.914-1.703-1.29-1.59-2.315-2.59-2.896-2.47zm81.19 84.384s-1.04.5-1.022 1.337c.016.837 2.688 3.48 3.504 3.113.816-.366 1.783-1.347.468-2.74-1.314-1.392-2.294-2.095-2.95-1.71z"/><path d="M145.384 144.007c-.81.168-3.07 1.587-.018 4.193 3.052 2.607 4.206-.113 2.914-1.71-1.29-1.6-2.315-2.604-2.896-2.483zm-5.59-5.96c.697-1.392 3.12.9 1.877 2.054-1.93 1.793-3.734.695-3.734.695l-.505.52 2.884 2.688m-19.88-31.066l-8.07 8.123s-1.223.51-1.59 3.778c-.365 3.268 0 4.378 0 4.378l13.965 14.22s3.11 1.22 4.848-.438c1.74-1.657 8.703-6.978 8.703-6.978v-8.585l3.112-2.214-.325-2.15 1.597-1.136-11.084-10.946-.955 1.05-1.706-1.246-3.52 3.944s-1.53-3.263-4.976-1.8z"/><path d="M121.836 115.9l-8.67 7.308 15.206 14.86 7.658-8.716z"/><path d="M120.566 122.286l-2.29 2.536 9.642 9.823 3.217-2.667v-2.93l-7.137-6.5-3.432-.262z"/><path d="M120.83 127.304l2.256-1.187 6.024 5.713v1.853M128.49 121.926l6.67-6.026m-6.67-3.83l10.256 10.382M142.39 121.01l-1.5 1.395-.91-.522-3.826 4.014.045 3.268M112.86 123.563v2.886l-.466 1.476-.505 3.01M120.64 129.95l-.678.927-1.687 1.853v2.808M134.877 129.95l1.677 1.646.67 4.622M129.768 136.334l.66 2.138v3.847M127.358 136.334l-2.004 1.588-.694 1.314v2.747"/><path d="M119.552 138.888v12.68c0 2.87 10.18 5.48 10.18-.18 0-5.657.737-8.255.737-8.255"/><path d="M120.123 143.997c-2.155 1.658-4.267 4.71-2.415 9.187 1.852 4.478 8.082 9.812 11.3 9.978 3.217.167 9.39-2.882 9.315-7.395-.076-4.513-1.654-5.69-3.67-7.822-2.014-2.132-3.357-3.564-3.357-3.564M69.59 34.9c-5.21-1.476-7.137 4.376-7.137 4.376-.46 2.068-.727 4.504.656 6.872 1.383 2.368 6.485 8.11 10.044 8.726 3.56.616 7.943-1.568 9.086-4.993 1.143-3.426 1.26-4.415.042-6.447-1.217-2.032-1.676-3.08-1.676-3.08"/><path d="M79.513 34.166l1.102 1.687-.31 12.567s-.725 3.395-4.81 3.464c-4.086.07-5.893-3.848-5.742-3.92.152-.074 0-6.5 0-6.5"/></g><path fill="#DDD" fill-rule="nonzero" d="M180.606 67.28c-9.97 20.467-48.664 127.606-48.664 134.873l-7.282 1.235c0-9.102 40.29-118 50.808-139.593"/><path fill="#F9F9F9" fill-rule="nonzero" d="M80.46 134.232c0-11.526-9.608-62.967-18.71-62.08-11.714 1.144-17.548 27.554-17.548 84.414h6.386c0-28.97 1.594-49.785 4.508-62.976 2.27-10.278 4.67-8.832 6.85-9.044 4.002-.39 7.918 48.688 7.918 56.954"/><g fill="#DDD"><path d="M110.842 220.286l-.23 8.43s10.464 13.12 11.768 14.04c1.305.923 2.942 2.415 5.845 0 2.903-2.413 12.806-10.95 13.19-11.31.383-.36.47-1.345.47-1.823 0-.48.316-7.838.316-7.838"/><path d="M123.318 208.792c-1.58 1.283-11.083 9.297-11.86 10.14-.778.844-1.348 2.306-.18 3.67 1.167 1.365 10.726 12.258 11.383 12.673.658.415 2.738 2.428 4.98.567 2.24-1.862 12.42-10.754 13.525-11.74 1.105-.99.392-2.52-.012-3.195-.403-.674-10.3-11.677-10.3-11.677"/><path d="M123.97 202.562s-.586 13.462-.586 15.94c-.09 3.27 8.1 3.676 8.1 0V201.13"/><path d="M122.106 218.625l.02 3.377s1.498 4.15 5.063 3.903c3.563-.246 5.504-4.255 5.504-4.255l-.138-3.918"/><path d="M123.538 215.177c-1.28 1.253-1.738 3.42-1.227 4.736.512 1.316 2.183 3.59 4.633 3.59s4.863-.892 5.373-3.866c.51-2.973-1.1-4.263-1.1-4.263"/></g><g fill="#F9F9F9"><path stroke-width=".5" d="M30.834 165.394c-.457 1.085-1.256 3.12-.936 4.487.32 1.367.235 1.425 1.16 2.353.925.93 13.022 11.713 13.21 11.89.19.176 2.147 1.2 3.778.524 1.63-.676 9.014-8.25 9.276-8.545.26-.294 1.393-3.697 1.474-4.462"/><path stroke-width=".5" d="M43.716 152.647c-1.046-.188-3.256.713-3.256.713s-7.038 6.977-8.13 8.293c-1.09 1.316-1.428 3.358.547 5.4 1.975 2.04 11.73 10.78 12.667 11.54.938.76 4.133 1.57 6.18-.15 2.047-1.723 7.597-8.066 7.597-8.066s1.068-3.225-.014-4.614c-1.082-1.388-5.22-5.062-5.22-5.062"/><path stroke-width=".5" d="M38.746 162.353c-.467 1.4-1.137 3.286.1 5.994 1.24 2.708 4.19 4.33 6.433 4.33 2.242 0 4.86-.925 6.215-2.467 1.356-1.542 1.97-3.39 2.032-3.99m-22.998 5.595c-.36-.038-.584-.25-1.076.13-.492.38-.892.947-1.074 1.08-.182.13-.07.647-.083.766-.012.12-.166.97-.166.97s-1.43 1.195-1.453 1.41c-.023.212-.397.208.238 1.056.635.85 10.587 9.664 10.587 9.664l.88.15.46-.42s.5.562.657.557c.155-.004.52.163.724-.113.205-.276 3.436-3.326 3.436-3.326"/><path stroke-width=".5" d="M29.437 174.218L40.512 184.4l-1.544 1.702.836.165 1.4-1.66"/><path stroke-width=".5" d="M29.67 171.678c.207.14 11.613 10.542 11.613 10.542l-.02 3.05 1.95-1.51-1.754-1.42m1.617-24.66c-1.068.487-3.267 2.886-3.425 4.395-.16 1.51-.65 5.058 2.243 7.18 2.894 2.12 6.47 2.425 8.236 1.283 1.768-1.142 3.948-2.315 4.2-4.72.254-2.405-.13-4.838-.822-5.397"/><path stroke-width=".5" d="M29.77 172.97l7.09 6.365 4.24 4.103.162 1.758-.89-.146-.06-1.705L29.5 173.6"/><path stroke-width=".8" d="M45.05 151.473s-2.7 8.72-2.846 10.12c-.147 1.4-.113 4.695 2.94 5.717 3.056 1.02 5.945.23 6.967-2.17 1.023-2.398-1.152-8.43-1.152-8.43"/></g><g stroke-width=".5" transform="translate(0 63) translate(141 141)"><path fill="#DDD" d="M4.418 9.19c.717-.777 3.315-3.313 7.06-.67 3.747 2.645 12.57 11.327 13.09 12.04.52.714 1.867 3.484-.107 6.187-1.973 2.703-6.407 7.228-7.233 8.01-.827.782-3.29 1.932-5.48.478-.872-.58-7.33-6.173-10.106-9.703C3.126 16.8-.117 14.155.3 13.696c1.756-1.93 3.695-4.048 4.118-4.507z"/><path fill="#DDD" d="M5.37 7.27S9.153 4.9 9.664 4.9c.512 0 2.474-.502 4.12.678 1.647 1.18 13.346 12.12 13.346 12.12s2.333 2.58.695 5.53c-1.638 2.948-8.085 9.118-8.085 9.118l-3.476 2M14.334 5.52s-.108-.473.14-.766c.246-.292 1.494-1.425 1.494-1.425l.896-.554S18.318.96 18.637.96c.32 0 11.972 10.343 11.972 10.343s.16.717-.184 1.172c-.344.454.623.364-.186 1.484-.81 1.12-2.95 3.345-2.95 3.345"/><path fill="#DDD" d="M16.997 2.495c.39-.36.298-.486 1.705.597 1.406 1.084 10.444 9.415 10.444 9.415l.207.578-.4.537-1.577.53s-5.123-4.256-6.2-5.378C20.103 7.652 15.59 4.08 15.59 3.586"/><path fill="#DDD" d="M17.82 3.515l11.243 10.03-1.233.42L16.865 4.16z"/><path fill="#F9F9F9" d="M18.142 2.238l11.69 10.664.618.185"/><path fill="#F9F9F9" d="M30.382 12.455l-.746 1.11.99-.153M25.805 15.903l3.695-.894-1.947 2.337"/><circle cx="11.228" cy="20.866" r="7.134" fill="#DDD"/></g><path fill="#DDD" fill-rule="nonzero" d="M236.345 125.3c-29.097 24.288-49.233 39.077-62.312 54.856-15.2 18.337-21.62 35.923-18.294 46.508 0 0 0 1.34-3.273 1.34-3.272 0-3.177-1.34-3.177-1.34-5.462-17.377 3.005-32.39 20.907-53.99 13.59-16.396 32.042-33.477 61.57-58.124"/></g><g><text fill="#358CF1" font-family="AvenirNext-DemiBold, Avenir Next" font-size="16" font-weight="500" transform="translate(0 63) rotate(-45 219.493 -188.097)"><tspan x="0" y="17">2</tspan></text><text fill="#358CF1" font-family="AvenirNext-DemiBold, Avenir Next" font-size="16" font-weight="500" transform="translate(0 63) rotate(-45 219.493 -188.097)"><tspan x="32.678" y="16.849">-4</tspan></text><g stroke="#358CF1" transform="translate(0 63) rotate(-45 219.493 -188.097) translate(12 8)"><ellipse cx="5.818" cy="2.909" rx="5.818" ry="2.909"/><ellipse cx="10.182" cy="5.091" rx="5.818" ry="2.909"/></g></g><g><text fill="#358CF1" font-family="AvenirNext-DemiBold, Avenir Next" font-size="16" font-weight="500" transform="translate(0 63) rotate(-60 120.214 -122.275)"><tspan x="0" y="16">2</tspan></text><text fill="#358CF1" font-family="AvenirNext-DemiBold, Avenir Next" font-size="16" font-weight="500" transform="translate(0 63) rotate(-60 120.214 -122.275)"><tspan x="32.732" y="16.732">-3</tspan></text><g stroke="#358CF1" transform="translate(0 63) rotate(-60 120.214 -122.275) translate(12 7)"><ellipse cx="5.818" cy="2.909" rx="5.818" ry="2.909"/><ellipse cx="10.182" cy="5.091" rx="5.818" ry="2.909"/></g></g></g><path class="cable B fill" fill="#D0021B" fill-rule="nonzero" stroke="#747474" d="M114.502 178.162c0-17.582-.054-43.926-.15-76.697-.03-10.204-.064-20.86-.1-31.85-.056-16.467-.115-32.864-.174-48.43l-.056-14.77-.016-4.026L114 .983l-8 .032c0 .242 0 .242.006 1.405l.016 4.026.056 14.77c.06 15.564.118 31.96.173 48.427.038 10.987.07 21.643.1 31.845.098 32.765.152 59.102.152 76.674h8z"/><path class="cable N fill" fill="#FFF" fill-rule="nonzero" stroke="#747474" d="M76.858 413.195c0-17.587-.042-43.934-.118-76.71-.024-10.203-.05-20.86-.08-31.85-.042-16.468-.088-32.866-.134-48.433-.016-5.448-.03-10.404-.045-14.77l-.01-4.026-.005-1.406-10.465.066.004 1.405.013 4.025.044 14.77c.048 15.563.094 31.96.137 48.425.028 10.986.055 21.642.078 31.843.076 32.76.118 59.095.118 76.662h10.465z"/><path class="cable A fill" fill="#4A4A4A" fill-rule="nonzero" stroke="#747474" d="M94.502 413.162c0-17.582-.054-43.926-.15-76.697-.03-10.204-.064-20.86-.1-31.85-.056-16.467-.115-32.864-.174-48.43l-.056-14.77-.016-4.026-.006-1.406-8 .032c0 .242 0 .242.006 1.405l.016 4.026.056 14.77c.06 15.564.118 31.96.173 48.427.038 10.987.07 21.643.1 31.845.098 32.765.152 59.102.152 76.674h8z"/></g></svg>
