<svg xmlns="http://www.w3.org/2000/svg" width="245" height="418" viewBox="0 0 245 418"><g fill="none" fill-rule="evenodd"><g stroke="#747474" transform="translate(1)"><g transform="translate(.326 97.25)"><path d="M54.065 148.163v-7.886l5.572 7.528v-8.066M143.414 120.912c3.012-3.124 6.602-6.8 8.438-8.152 2.265-1.668 6.13-.883 7.19 0 .185.155 4.647-4.66 4.647-4.66l15.305 15.056s-4 3.66-4.494 4.482c-.493.82 2.224 5.486-.538 8.244-2.762 2.757-9.333 8.635-10.273 9.5-.94.864-4.59 2.234-7.523.18-2.415-1.694-10.852-10.69-13.752-13.81"/><path d="M145.312 123.008c2.672-2.558 7.25-7.296 8.226-7.906 1.275-.798 4.355.03 5.393 1.075.158.16 4.648-4.122 4.648-4.122l11.89 12.01-4.853 4.66s4.123 2.615 1.08 5.914c-3.046 3.298-8.36 8.305-9.35 9.14-.987.835-3.487 1.34-4.885 0-1.398-1.34-12.434-12.714-13.727-13.88"/><path d="M168.788 118.647l.33 5.826 5.242-.522M155.117 122.602l-6.11 6.195 12.48 12.64 6.396-6.61z"/><path d="M156.428 126.556h-2.904l-1.88 2.778 9.052 9.41 2.563-2.688-.174-3.226-6.658-6.274zM166.356 126.556l-1.524 1.793 2.42 2.777 1.48-1.882-2.376-2.69zM159.822 119.965l-1.584.957 2.494 3.047 1.873-2.003z"/><path d="M98.796 0s56.158.99 64.893 5.556c8.735 4.567 23.534 6.74 31.457 27.244 7.923 20.505 9.104 64.79 9.707 75.996.984 18.272-.45 59.495-16.612 77.07-16.162 17.578-58.762 15.718-74.885 16.312-16.123.593-70.11 1.7-88.082-11.113C7.302 178.253 2.17 162.812.468 127.795c-1.702-35.017 1.68-70.09 3.056-79.222C8.714 14.097 29.958 5.476 54.036 2.868 78.116.26 98.796 0 98.796 0z"/><path d="M205.575 119.965s-1.248 43.678-5.047 57.926c-3.8 14.25-12.68 28.814-29.648 35.36-12.508 4.827-37.098 7.45-69.35 7.37-32.254-.08-63.742-1.575-78.514-12.966C8.244 196.262.023 172.51 0 127.494"/><path d="M205.092 130.51s3.98 55.81-10.662 80.92c-14.96 25.657-57.125 26.15-92.9 26.154-35.778.005-74.06-.515-89.557-25.796C-3.525 186.508 1.345 139.893 0 130.51"/><path d="M205.575 119.965c-2.234 26.323 6.836 106.66-25.305 123.404-26.846 13.986-65.503 11.49-77.65 11.728-12.146.237-55.41 1.78-77.884-11.73C2.262 229.863.31 191.25 0 137.083"/><path d="M87.63 18.925l37.507-.044.277-11.93s20.99-.133 36.49 4.122c15.504 4.256 29.612 17.158 32.178 39.253C196.648 72.42 196.6 77.39 196.6 77.39l-12.225-.18v46.78l12.224 1.076s-.525 33.706-12.045 51.62c-11.52 17.914-44.664 17.925-49.074 18.282-4.41.357-9.706.896-9.706.896V182.6H77.778v12.726s-35.11-1.037-46.737-8.244c-11.628-7.208-20.182-17.99-23.01-44.092-1.07-9.91-1.077-18.462-1.077-18.462h13.044v-46.96L6.593 77.21s1.813-35.88 8.988-47.14C22.758 18.813 37.128 9.49 55.13 8.385 73.13 7.277 78.138 6.59 78.138 6.59l.527 3.258"/><path d="M82.296 12.76V5.222S97.44 2.532 102.86 2.64c5.423.107 19.382 1.977 19.382 1.977l1.262 6.207s9.727-.484 17.67.825c7.945 1.31 30.68 2.807 39.728 16.31 9.047 13.503 10.246 51.44 10.246 51.44l7.335.36s1.448 12.36 1.52 20.59c.072 8.23-3.138 19.29-3.138 19.29h-3.595v4.39s-1.23 28.81-6.436 41.505c-5.874 14.32-16.958 17.85-33.615 21.048-16.658 3.2-27.864 3.227-27.864 3.227l-3.595-.36s-12.284 1.043-20.042 1.194c-7.758.152-20.403-1.434-20.403-1.434l-3.775.24s-28.066-1.186-39.547-5.797c-11.48-4.61-23.222-14.31-24.627-40.803-.67-12.673-1.078-23.21-1.078-23.21H7.794s-2.442-12.877-2.517-19.29c-.074-6.413 1.438-20.59 1.438-20.59l5.034-.18.244-3.078s1.968-29.78 6.765-41.014c6.607-15.475 15.936-19.22 34.154-22.584 18.217-3.363 17.226-1.9 17.226-1.9"/><path d="M80.438 7.533s14.114-2.58 23.19-2.226c9.073.354 18.64 2.076 18.64 2.076l-1.744 5.428-40.086-.14v-1.686M185.93 80.416h8.605s1.347 14.17 1.282 20.03c-.066 5.858-2.872 20.03-2.872 20.03h-6.655l-.36-40.06zM120.524 185.88v7.534s-7.19 2.13-19.863 2.503c-12.673.37-20.222-2.503-20.222-2.503v-7.534h40.086zM15.822 80.416l-.36 40.06H10.25s-2.38-10.916-2.338-19.29c.042-8.374 2.877-20.77 2.877-20.77h5.032z"/><ellipse cx="40.426" cy="40.127" rx="7.46" ry="7.169"/><ellipse cx="40.05" cy="39.816" rx="5.765" ry="5.54"/><path d="M43.883 35.594c-.945 3.057-2.218 7.978-6.96 8.82"/><ellipse cx="163.061" cy="38.809" rx="7.46" ry="7.169"/><ellipse cx="163.846" cy="39.665" rx="5.608" ry="5.39"/><path d="M160.876 35.594c.433 3.497 3.057 7.614 7.238 8.13"/><ellipse cx="164.11" cy="161.41" rx="7.19" ry="7.169"/><ellipse cx="163.48" cy="160.923" rx="5.241" ry="5.364"/><path d="M166.71 159.514c-3.18.4-7.04 3.86-7.153 6.15m6.948-8.787c-2.67.253-7.423 4.51-8.267 6.453"/><ellipse cx="40.426" cy="161.679" rx="7.46" ry="7.438"/><ellipse cx="39.605" cy="161.04" rx="5.32" ry="5.481"/><path d="M34.285 159.52c3.65-.2 8.042 3.99 7.907 6.152m-5.27-8.795c2.79.302 8.536 5.173 7.32 6.99M59.34 208.29c28.292 2.335 56.395 2.343 84.306 0m-81.67 1.32c25.982 2.334 51.79 2.34 77.42 0m-77.42 15.82c25.982 2.333 51.79 2.34 77.42 0m-77.42 19.773c25.982 2.334 51.79 2.342 77.42 0M59.34 224.11c28.292 2.335 56.395 2.342 84.306 0M59.34 243.885c28.292 2.334 56.395 2.342 84.306 0M25.054 77.67l15.333 15.235 4.007-3.405s4.06 1.606 6.725-.36c2.666-1.963 10.465-10 11.864-11.47 1.398-1.47 1.94-5.52-.18-7.528-2.122-2.006-13.15-12.752-14.92-14.518-1.77-1.766-6.622-2.475-8.63.18-2.005 2.654-9.16 9.65-10.425 10.933-1.266 1.282-1.05 5.733 0 6.63.14.122-3.776 4.303-3.776 4.303z"/><path d="M27.692 77.123L39.62 89.31l3.816-2.867s4.16 2.51 6.366 0c2.207-2.508 9.86-9.963 10.426-10.754.566-.79.59-3.06-.72-4.123-1.307-1.065-13.296-13.442-14.125-13.98-.83-.54-3.38-1.723-4.928 0-1.55 1.722-9.464 8.41-10.067 9.5-.603 1.088-1.462 4.62.54 6.202.06.047-2.898 3.952-3.236 3.833"/><path d="M43.753 64.596l13.452 12.446-7.023 7.01-13.26-12.644 6.83-6.812z"/><path d="M44.174 65.915l9.528 8.962-1.618 3.226-3.236-.18-6.65-6.81v-3.227zM34.285 84.37h2.69v3.048M36.922 77.716l2.35 2.867 1.976-1.613-2.696-2.51zM43.516 85.626l4.326 1.254-2.697-2.51-1.63 1.256zM51.727 67.233l-1.618 1.613 2.695 2.51 1.08-1.614-2.158-2.51zM56.642 70.676l-1.26-.806v4.39h2.158l-.347-2.867M105.492 147.446l3.775-7.707 3.236 7.706M106.81 143.694h4.013m-15.79-93.6v8.067s4.056.686 3.954-2.33c-.077-2.273-4.742-1.99-3.954-1.91 3.02.304 5.793-3.81 0-3.825zm56.34-.122c-1.596-1.83-6.32-2.126-6.32 3.26 0 5.387 5.725 4.027 6.32 2.715M32.966 70.628l1.29 1.987 2.653-2.68-1.57-1.384zM149.008 124.196l1.28.903 2.565-2.324-1.597-1.493-2.248 2.913zM63.313 84.91v62.24c0 7.512-.712 26.556 6.883 26.556H93.97c7.567 0 8.237-19.01 8.237-27.772 0-8.762-.698-61.563-.698-61.563l-38.197.54z"/><path d="M65.933 139.262v5.128s1.248 3.814 7.37 3.814c6.12 0 7.37-2.626 7.37-3.355v-6.39s-1.764-3.994-7.21-3.994c-5.447 0-7.53 3.302-7.53 4.796zm2.637-3.478c1.128 1.128 8.406 1.37 10.417.157m5.407 3.322v5.128s1.248 3.814 7.37 3.814c6.12 0 7.37-2.626 7.37-3.355v-6.39s-1.764-3.994-7.21-3.994c-5.447 0-7.53 3.302-7.53 4.796zm1.318-3.478c1.128 1.128 8.407 1.37 10.417.157m-32.835 2.48h2.896m15.566 0h2.896m14.247 0h2.277"/><path d="M63.295 146.336c.63.513 7.223 2.918 10.266 3.17 3.357.28 8.96-2.992 8.78-3.17-.03-.028 3.167 2.852 8.748 2.852 5.58 0 7.83-3 7.946-2.852.117.15 1.783 0 1.783 0"/><path d="M63.295 148.11c.854 1.118 5.065 3.355 8.646 3.355h7.37l3.423-1.917 3.128 2.077 8.51-.16s7.305-2.18 7.814-3.816m-29.658 2.636v24.583m19.78-24.584v24.583M65.933 108.738v24.44h14.74v-24.28l-2.885-6.07h-8.81zM84.394 108.738v24.44h14.74v-24.28l-2.885-6.07h-8.812zM63.295 105.464h3.84m13.303 0h4.806m12.336 0h3.917m-38.202 14.5h2.878m-2.878 5.274h2.878m15.583-5.273h2.404m-2.404 5.273h2.404m14.74-5.273h2.103m-2.104 2.637h1.923m-1.924 2.636h2.103M67.25 106.782h3.366m5.866 0h3.524m4.388 0h3.364m7.185 0h3.62"/><ellipse cx="74.171" cy="108.112" rx="2.964" ry="2.648"/><ellipse cx="91.314" cy="108.112" rx="2.964" ry="2.648"/><path d="M68.57 112.055h9.89v8.13h-9.89zM85.712 112.055h9.89v8.13h-9.89zM65.933 122.602h14.74m-14.74 1.318h14.74m-14.74 1.318h14.74m-14.74 1.318h14.74m-13.422 1.32h14.74m-16.057 2.635h14.74m-14.74 1.32h14.74m3.72-9.228h14.74m-14.74 1.318h14.74m-14.74 1.318h14.74m-14.74 1.318h14.74m-14.74 1.32h14.74m-14.74 2.635h14.74m-14.74 1.32h14.74M79.12 155.56v16.932m11.867-38.026V151.4m-10.55 5.477v13.738m3.957-15.056v16.932m1.318-15.615v13.738m52.715-55.418l2.296-.034v-62.24c0-7.513.693-26.557-6.702-26.557h-23.146c-7.367 0-8.02 19.01-8.02 27.772 0 8.762.68 61.563.68 61.563l27.57-.398m10.25-50.706h-2.895m1.576-2.636h-2.896m-14.247 0h-2.896m-14.246 0h-2.895m20.038 3.955h-2.896m-14.864 0h-2.278"/><path d="M140.377 52.966c-.63-.25-7.223-1.42-10.266-1.544-3.355-.136-8.96 1.457-8.776 1.544.03.014-3.168-1.39-8.75-1.39-5.58 0-7.83 1.462-7.946 1.39-.117-.073-1.783 0-1.783 0m38.89 4.62c-.855-.705-5.066-2.117-8.647-2.117h-7.37l-3.422 1.21-3.128-1.312-8.51.1s-7.304 1.378-7.813 2.41m29.01-2.607V26.367M110.767 55.27V26.367M137.374 89.19V65.916h-14.74V89.04l2.884 5.78h8.812zM120.232 89.19V65.916h-14.74V89.04l2.884 5.78h8.812zM140.98 89.644h-3.84m-13.655 0h-4.806m-11.908 0h-3.917m38.482-14.5h-2.878m2.877-2.638h-2.878m-14.74 2.637h-2.404m2.403-2.637h-2.404m-16.358 2.637h-2.103m1.924-1.318h-1.925m2.103-2.637h-2.103m33.693 18.456h-3.364m-5.706 0h-3.525m-4.547 0h-3.365m-5.608 0h-3.62"/><ellipse cx="130.873" cy="89.656" rx="2.964" ry="2.648"/><ellipse cx="112.412" cy="89.656" rx="2.964" ry="2.648"/><path d="M125.272 76.46h9.89v8.132h-9.89zM108.13 76.46h9.89v8.132h-9.89zM137.374 73.825h-14.74m14.74-1.32h-14.74m14.74-2.635h-14.74m14.74-1.32h-14.74m14.74-3.954h-14.74m14.74-1.318h-14.74m-2.402 11.865h-14.74m14.74-1.318h-14.74m14.74-2.637h-14.74m14.74-1.318h-14.74m14.74-1.32h-14.74m14.74-3.954h-14.74m14.74-1.318h-14.74m19.78-13.192V27.684m-2.637 20.812V30.32m-3.956 19.766V27.684m-1.32 20.812V30.32m-11.868 32.51v-4.08c0-3.068 15.184-2.492 15.184.265v4.062m3.277-.247v-4.08c0-3.068 15.184-2.492 15.184.265v4.062"/><path stroke-width="1.5" d="M59.5 51.414l.642.777-3.44 3.736M61.713 55.476s-1.072.514-1.055 1.373c.017.858 2.776 3.57 3.62 3.194.84-.376 1.84-1.382.482-2.812-1.357-1.43-2.37-2.15-3.047-1.756z"/><path stroke-width="1.5" d="M63.595 58.015c-.835.173-3.17 1.63-.02 4.306 3.153 2.677 4.344-.116 3.01-1.756-1.333-1.64-2.39-2.673-2.99-2.55zm83.83 87.105s-1.07.518-1.054 1.38c.018.864 2.777 3.59 3.62 3.213.842-.377 1.84-1.39.483-2.827-1.357-1.437-2.37-2.163-3.047-1.766z"/><path stroke-width="1.5" d="M149.307 147.66c-.835.173-3.17 1.637-.02 4.328 3.153 2.69 4.344-.117 3.01-1.766-1.333-1.65-2.39-2.688-2.99-2.563zm-5.77-6.154c.718-1.435 3.22.93 1.937 2.122-1.993 1.85-3.857.716-3.857.716l-.52.538 2.976 2.774"/><path d="M123.546 115.588l-8.33 8.384s-1.266.527-1.644 3.9c-.378 3.374 0 4.52 0 4.52l14.42 14.678s3.21 1.258 5.006-.452c1.795-1.71 8.986-7.202 8.986-7.202v-8.863l3.212-2.285-.336-2.22 1.65-1.173-11.446-11.3-.985 1.085-1.763-1.287-3.635 4.07s-1.578-3.366-5.136-1.855z"/><path d="M124.994 118.647l-8.953 7.543 15.702 15.338 7.907-8.996z"/><path d="M123.682 125.238l-2.366 2.618 9.958 10.14 3.32-2.753v-3.026l-7.368-6.71-3.544-.27z"/><path d="M123.953 130.418l2.33-1.225 6.22 5.897v1.913M131.865 124.867l6.886-6.22m-6.885-3.955l10.588 10.718M146.217 123.92l-1.55 1.44-.94-.537-3.95 4.143.046 3.373M115.724 126.556v2.98l-.48 1.525-.52 3.108M123.757 133.148l-.698.958-1.744 1.913v2.898M138.46 133.148l1.73 1.7.693 4.772M133.184 139.74l.68 2.206v3.97M130.695 139.74l-2.07 1.638-.716 1.357v2.835"/><path d="M122.635 142.376v13.088c0 2.963 10.51 5.657 10.51-.184 0-5.84.762-8.523.762-8.523"/><path d="M123.225 147.65c-2.225 1.71-4.406 4.86-2.494 9.483 1.913 4.622 8.346 10.128 11.668 10.3 3.323.172 9.697-2.975 9.62-7.634-.08-4.66-1.71-5.875-3.79-8.075-2.08-2.2-3.467-3.68-3.467-3.68M63.68 39.55c-.477 2.133-.752 4.648.676 7.092 1.43 2.445 6.697 8.373 10.372 9.008 3.675.636 8.2-1.62 9.38-5.154 1.182-3.536 1.3-4.557.044-6.654-1.256-2.098-1.73-3.18-1.73-3.18M62.036 25.15s-.133-4.977 0-5.75c.133-.774 8.36-8.727 9.132-9.466.77-.738 4.498-1.125 5.447 0 .95 1.126 13.137 13.374 13.137 13.374s.858 4.362.64 5.836c-.216 1.473-8.165 10.393-8.165 10.393"/><path fill="#DDD" d="M58.02 32.554l10.87 11.06 7.58-9.602s2.942 1.034 3.94-.074c.996-1.108 7.85-8.44 7.85-8.44s1.784-.495-4.487-5.97c-6.27-5.475-8.49-8.727-8.49-8.727s-1.8-1.325-4.327 2.077c-2.527 3.403-6.526 6.07-6.526 6.07v4.154l-4.048 5.02-.64 2.6-1.72 1.834z"/><path d="M64.614 18.456l15.037 15.59m-7.124-22.18l14.36 14.54m-13.378-9.25c.243.27 9.934 10.01 9.934 10.01l-2.782 3.397h-2.724l-6.73-7.216v-3.515s2.06-2.947 2.302-2.677z"/><path d="M73.225 21.093l-.7 1.437 6.75 6.495 1.13-.753-7.18-7.18zM71.487 26.366l-4.654 5.03-2.4 1.638-.464 2.283-1.993 1.99M81.294 34.276l1.137 1.74-.32 12.974s-.748 3.504-4.966 3.576c-4.218.07-6.084-3.972-5.928-4.048.157-.075 0-6.708 0-6.708M68.57 43.43l.615 1.104h1.112l1.61-4.985"/><path d="M61.977 26.366l11.588 11.112s2.408 2.97 4.945 2.903c2.536-.064 3.392-1.17 3.392-1.17M60.658 29.003l9.8 9.798m-11.12-8.48l10.99 10.497"/></g><path fill="#DDD" fill-rule="nonzero" d="M185.56 65.546c-10.292 21.13-50.246 131.724-50.246 139.225l-7.52 1.276c0-9.396 41.603-121.805 52.462-144.096"/><g fill="#DDD"><path d="M61.347 116.015l-.238 8.702s10.803 13.543 12.15 14.494c1.347.953 3.038 2.493 6.036 0 2.997-2.49 13.22-11.304 13.617-11.675.397-.37.486-1.388.486-1.88 0-.495.326-8.092.326-8.092"/><path d="M74.583 103.122c-1.63 1.324-11.443 9.597-12.246 10.468-.803.87-1.39 2.38-.185 3.788 1.205 1.41 11.075 12.653 11.753 13.08.678.43 2.827 2.508 5.14.586 2.313-1.92 12.825-11.1 13.966-12.12 1.143-1.02.406-2.6-.01-3.296-.417-.696-10.637-12.054-10.637-12.054"/><path d="M74.758 38.93s-.605 56.38-.605 66.756c-.092 13.69 8.364 15.395 8.364 0V32.932"/><path d="M72.69 114.274l.022 3.486s1.545 4.283 5.226 4.03c3.68-.255 5.684-4.394 5.684-4.394l-.142-4.044"/><path d="M74.227 110.155c-1.323 1.293-1.794 3.53-1.267 4.888.528 1.36 2.254 3.705 4.783 3.705 2.53 0 5.02-.92 5.548-3.99.527-3.068-1.135-4.4-1.135-4.4"/></g><g fill="#DDD"><path d="M114.093 222.797l-.238 8.702s10.804 13.542 12.15 14.493c1.348.952 3.04 2.492 6.037 0s13.22-11.305 13.617-11.676c.396-.37.485-1.388.485-1.88 0-.495.327-8.092.327-8.092"/><path d="M127.33 209.904c-1.632 1.324-11.444 9.597-12.247 10.468-.803.87-1.39 2.38-.185 3.788 1.205 1.41 11.075 12.653 11.753 13.08.68.43 2.828 2.508 5.14.586 2.314-1.92 12.826-11.1 13.967-12.12 1.142-1.02.405-2.6-.012-3.296-.416-.696-10.636-12.054-10.636-12.054"/><path d="M127.504 204.24s-.605 13.896-.605 16.454c-.093 3.374 8.363 3.794 8.363 0V202.76"/><path d="M125.436 221.056l.022 3.486s1.545 4.283 5.226 4.03c3.68-.255 5.684-4.394 5.684-4.394l-.142-4.044"/><path d="M126.973 216.937c-1.323 1.293-1.794 3.53-1.267 4.888.528 1.36 2.254 3.705 4.783 3.705 2.53 0 5.02-.92 5.547-3.99.526-3.068-1.136-4.4-1.136-4.4"/></g><g><path fill="#DDD" stroke-width=".5" d="M32.396 165.017c-.477 1.165-1.31 3.35-.986 4.813.326 1.464.237 1.526 1.188 2.518.952.99 13.403 12.502 13.597 12.69.194.188 2.213 1.278 3.9.546 1.688-.73 9.346-8.88 9.617-9.198.27-.316 1.455-3.97 1.54-4.79"/><path fill="#DDD" stroke-width=".5" d="M45.137 152.833c-1.08-.196-3.365.766-3.365.766s-7.29 7.417-8.42 8.815c-1.132 1.4-1.486 3.564.548 5.723 2.033 2.16 12.083 11.396 13.05 12.2.966.804 4.264 1.653 6.383-.18 2.12-1.83 7.87-8.572 7.87-8.572s1.11-3.422-.002-4.89c-1.113-1.47-5.375-5.354-5.375-5.354"/><path fill="#DDD" stroke-width=".5" d="M40.345 162.127c-.488 1.5-1.187 3.526.08 6.42 1.27 2.897 4.31 4.623 6.627 4.614 2.317-.008 5.025-1.01 6.43-2.668 1.408-1.657 2.048-3.64 2.116-4.283m-23.61 5.595c-.37-.04-.6-.263-1.11.143-.51.407-.926 1.01-1.114 1.15-.188.142-.074.69-.087.817-.014.127-.176 1.03-.176 1.03s-1.48 1.276-1.505 1.503c-.024.227-.41.223.242 1.124.653.9 10.904 10.242 10.904 10.242l.91.156.477-.446s.515.595.676.59c.16-.006.537.17.75-.124.212-.294 3.558-3.547 3.558-3.547"/><path fill="#F9F9F9" stroke-width=".5" d="M29.503 175.024l11.41 10.78-1.603 1.812.864.17 1.453-1.764M31.04 171.916c.213.148 11.96 11.164 11.96 11.164l-.03 3.243 2.02-1.613-1.806-1.5"/><path fill="#DDD" stroke-width=".5" d="M44.094 156.91c-1.105.522-3.383 3.075-3.55 4.678-.17 1.602-.69 5.37 2.294 7.613 2.982 2.244 6.674 2.557 8.502 1.34 1.828-1.218 4.084-2.47 4.352-5.024.27-2.554-.12-5.136-.833-5.727"/><path fill="#F9F9F9" stroke-width=".5" d="M30.077 172.92l7.303 6.74 4.365 4.346.163 1.867-.918-.153-.057-1.81-11.138-10.317"/><path fill="#DDD" d="M57.432 40.19s-9.384 71.778-10.572 83.084c-1.19 11.306-3.32 34.182-3.32 40.422 0 1.963 2.08 3.017 3.32 3.31 1.238.292 3.163 1.235 4.184-1.347 1.712-4.333 2.826-11.71 4.208-21.246C58.144 124.46 65.04 42.6 65.04 42.6"/></g><path fill="#DDD" stroke-width=".5" d="M149.544 214.636c.74-.802 3.422-3.42 7.29-.69s12.98 11.692 13.516 12.428c.536.736 1.927 3.596-.112 6.386-2.038 2.79-6.616 7.46-7.47 8.268-.852.807-3.396 1.995-5.657.494-.9-.598-7.566-6.373-10.434-10.016 1.533-9.015-1.816-11.744-1.385-12.218 1.814-1.993 3.817-4.18 4.254-4.652z"/><path fill="#DDD" stroke-width=".5" d="M151.288 213.2s3.904-2.448 4.432-2.448c.528 0 2.554-.518 4.254.7 1.7 1.218 13.78 12.512 13.78 12.512s2.41 2.663.718 5.707c-1.69 3.044-8.348 9.413-8.348 9.413l-3.59 2.066M160.118 211.408s-.112-.487.144-.79c.255-.302 1.543-1.47 1.543-1.47l.926-.572s1.502-1.87 1.83-1.87c.33 0 12.362 10.674 12.362 10.674s.166.74-.19 1.21c-.354.47.645.376-.19 1.532-.836 1.156-3.046 3.454-3.046 3.454"/><path fill="#DDD" stroke-width=".5" d="M162.786 208.59c.402-.37.308-.502 1.76.616 1.452 1.12 10.785 9.72 10.785 9.72l.214.595-.414.556-1.627.546s-5.29-4.393-6.4-5.55c-1.11-1.16-5.772-4.846-5.772-5.356"/><path fill="#DDD" stroke-width=".5" d="M163.2 208.9l11.608 10.354-1.273.434-11.322-10.12z"/><path fill="#F9F9F9" stroke-width=".5" d="M164.137 207.095l12.07 11.008.638.19M176.512 218.778l-.77 1.145 1.02-.157"/><path fill="#DDD" stroke-width=".5" d="M171.656 221.92l3.816-.923-2.01 2.414"/><ellipse cx="156.769" cy="227.535" stroke-width=".5" rx="7.366" ry="7.364"/><path fill="#DDD" fill-rule="nonzero" stroke-width=".5" d="M243.554 124.44c-30.044 25.07-48.77 42.4-62.274 58.69-15.694 18.928-24.39 35.016-20.954 45.942 0 0 0 1.383-3.378 1.383-3.38 0-3.28-1.383-3.28-1.383-5.64-17.937 3.1-33.436 21.587-55.73 14.033-16.925 33.084-34.558 63.573-60"/><path class="cable B fill" fill="#F5A623" fill-rule="nonzero" d="M118.502 179.162c0-17.582-.054-43.926-.15-76.697-.03-10.204-.064-20.86-.1-31.85-.056-16.467-.115-32.864-.174-48.43l-.056-14.77-.016-4.026L118 1.983l-8 .032c0 .242 0 .242.006 1.405l.016 4.026.056 14.77c.06 15.564.118 31.96.173 48.427.038 10.987.07 21.643.1 31.845.098 32.765.152 59.102.152 76.674h8z"/><path class="cable C fill" fill="#F8E71C" fill-rule="nonzero" d="M135.502 178.162c0-17.582-.054-43.926-.15-76.697-.03-10.204-.064-20.86-.1-31.85-.056-16.467-.115-32.864-.174-48.43l-.056-14.77-.016-4.026L135 .983l-8 .032c0 .242 0 .242.006 1.405l.016 4.026.056 14.77c.06 15.564.118 31.96.173 48.427.038 10.987.07 21.643.1 31.845.098 32.765.152 59.102.152 76.674h8z"/><path class="cable N fill" fill="#FFF" fill-rule="nonzero" d="M77.858 417.195c0-17.587-.042-43.934-.118-76.71-.024-10.203-.05-20.86-.08-31.85-.042-16.468-.088-32.866-.134-48.433-.016-5.448-.03-10.404-.045-14.77l-.01-4.026-.005-1.406-10.465.066.004 1.405.013 4.025.044 14.77c.048 15.563.094 31.96.137 48.425.028 10.986.055 21.642.078 31.843.076 32.76.118 59.095.118 76.662h10.465z"/><path class="cable A fill" fill="#B47239" fill-rule="nonzero" d="M95.502 417.162c0-17.582-.054-43.926-.15-76.697-.03-10.204-.064-20.86-.1-31.85-.056-16.467-.115-32.864-.174-48.43l-.056-14.77-.016-4.026-.006-1.406-8 .032c0 .242 0 .242.006 1.405l.016 4.026.056 14.77c.06 15.564.118 31.96.173 48.427.038 10.987.07 21.643.1 31.845.098 32.765.152 59.102.152 76.674h8z"/></g><g><text fill="#358CF1" font-family="AvenirNext-DemiBold, Avenir Next" font-size="16" font-weight="500" transform="translate(1) rotate(90 25 77)"><tspan x="0" y="16">1</tspan></text><text fill="#358CF1" font-family="AvenirNext-DemiBold, Avenir Next" font-size="16" font-weight="500" transform="translate(1) rotate(90 25 77)"><tspan x="31" y="16">-1</tspan></text><g stroke="#358CF1" transform="translate(1) rotate(90 25 77) translate(12 7)"><ellipse cx="5.818" cy="2.909" rx="5.818" ry="2.909"/><ellipse cx="10.182" cy="5.091" rx="5.818" ry="2.909"/></g></g><g><text fill="#358CF1" font-family="AvenirNext-DemiBold, Avenir Next" font-size="16" font-weight="500" transform="translate(1) rotate(-60 169.384 -96.32)"><tspan x="0" y="17">2</tspan></text><text fill="#358CF1" font-family="AvenirNext-DemiBold, Avenir Next" font-size="16" font-weight="500" transform="translate(1) rotate(-60 169.384 -96.32)"><tspan x="32.297" y="16.859">-3</tspan></text><g stroke="#358CF1" transform="translate(1) rotate(-60 169.384 -96.32) translate(12 8)"><ellipse cx="5.818" cy="2.909" rx="5.818" ry="2.909"/><ellipse cx="10.182" cy="5.091" rx="5.818" ry="2.909"/></g></g><g><text fill="#358CF1" font-family="AvenirNext-DemiBold, Avenir Next" font-size="16" font-weight="500" transform="translate(1) rotate(-45 293.47 -157.426)"><tspan x=".222" y="16.808">2</tspan></text><text fill="#358CF1" font-family="AvenirNext-DemiBold, Avenir Next" font-size="16" font-weight="500" transform="translate(1) rotate(-45 293.47 -157.426)"><tspan x="31.485" y="18.071">-4</tspan></text><g stroke="#358CF1" transform="translate(1) rotate(-45 293.47 -157.426) translate(12.222 7.808)"><ellipse cx="5.818" cy="2.909" rx="5.818" ry="2.909"/><ellipse cx="10.182" cy="5.091" rx="5.818" ry="2.909"/></g></g><g><text fill="#358CF1" font-family="AvenirNext-DemiBold, Avenir Next" font-size="16" font-weight="500" transform="translate(1) rotate(99 4.636 52.036)"><tspan x="0" y="17">1</tspan></text><text fill="#358CF1" font-family="AvenirNext-DemiBold, Avenir Next" font-size="16" font-weight="500" transform="translate(1) rotate(99 4.636 52.036)"><tspan x="31.352" y="16.786">-2</tspan></text><g stroke="#358CF1" transform="translate(1) rotate(99 4.636 52.036) translate(12 8)"><ellipse cx="5.818" cy="2.909" rx="5.818" ry="2.909"/><ellipse cx="10.182" cy="5.091" rx="5.818" ry="2.909"/></g></g></g></svg>
