<svg width="96" height="92" viewBox="0 0 96 92" fill="none" xmlns="http://www.w3.org/2000/svg">
<g filter="url(#filter0_dd)">
<rect x="20" y="18" width="56" height="56" rx="16" fill="#F1F7FA"/>
</g>
<path d="M44.346 49.398C43.266 50.136 41.502 50.82 39.936 51.27C40.242 51.468 40.692 51.936 40.926 52.17C42.438 51.63 44.292 50.748 45.534 49.848L44.346 49.398ZM50.394 50.064C51.942 50.586 53.868 51.468 54.822 52.134L55.83 51.324C54.786 50.658 52.842 49.812 51.33 49.344L50.394 50.064ZM44.616 42.594C44.688 42.252 44.742 41.874 44.796 41.478H46.578C46.542 41.91 46.488 42.288 46.434 42.594H44.616ZM43.842 41.478C43.788 41.874 43.716 42.252 43.662 42.594H41.934C42.006 42.234 42.078 41.856 42.15 41.478H43.842ZM42.492 39.606H44.076C44.04 39.948 44.004 40.29 43.95 40.65H42.294L42.492 39.606ZM44.904 40.65L45.03 39.606H46.74C46.704 39.984 46.686 40.326 46.668 40.65H44.904ZM53.544 38.796C53.238 39.822 52.752 40.686 52.104 41.424C51.438 40.65 50.898 39.768 50.538 38.796H53.544ZM50.664 47.04C51.222 47.31 51.834 47.634 52.41 47.976C50.556 48.012 48.684 48.048 46.92 48.066C48.396 47.274 49.962 46.302 51.222 45.42L50.124 44.79C49.188 45.546 47.82 46.446 46.47 47.238C46.11 47.004 45.696 46.77 45.264 46.518C46.074 45.996 47.028 45.33 47.82 44.646L47.046 44.268C47.154 44.088 47.244 43.818 47.334 43.422H48.702V42.594H47.478C47.514 42.27 47.568 41.91 47.604 41.478H48.72V40.668L48.828 40.776C49.152 40.488 49.476 40.146 49.764 39.768C50.178 40.668 50.682 41.496 51.276 42.216C50.376 42.972 49.242 43.548 47.928 43.962C48.18 44.196 48.594 44.682 48.738 44.934C50.016 44.448 51.15 43.836 52.086 43.062C53.076 43.962 54.264 44.664 55.668 45.096C55.848 44.754 56.208 44.268 56.46 44.016C55.092 43.674 53.922 43.062 52.95 42.234C53.778 41.316 54.426 40.182 54.84 38.796H56.046V37.734H51.06C51.312 37.248 51.546 36.744 51.726 36.222L50.538 35.934C50.016 37.482 49.044 38.958 47.91 39.93C48.126 40.092 48.486 40.434 48.702 40.65H47.676C47.712 40.236 47.748 39.786 47.784 39.282C47.802 39.12 47.82 38.814 47.82 38.814H41.592C41.826 38.544 42.06 38.274 42.294 37.968H48.432V37.05H42.906C43.086 36.762 43.23 36.456 43.374 36.168L42.24 35.88C41.718 37.032 40.836 38.112 39.864 38.886C40.152 39.03 40.638 39.354 40.854 39.552C41.07 39.354 41.304 39.138 41.52 38.886C41.448 39.426 41.34 40.038 41.232 40.65H39.882V41.478H41.088C40.89 42.432 40.692 43.332 40.512 44.034L41.592 44.16C41.646 43.944 41.7 43.692 41.772 43.422H46.254C46.2 43.656 46.11 43.8 46.038 43.89C45.912 44.034 45.786 44.052 45.552 44.052C45.318 44.052 44.76 44.052 44.13 43.998C44.274 44.232 44.382 44.61 44.4 44.862C44.922 44.916 45.48 44.916 45.822 44.898C45.336 45.294 44.814 45.708 44.328 46.032C43.86 45.798 43.374 45.582 42.942 45.402L42.024 46.122C43.104 46.608 44.4 47.31 45.282 47.886C45.138 47.958 45.012 48.03 44.886 48.102C43.104 48.12 41.502 48.138 40.224 48.138L40.278 49.254C42.15 49.218 44.616 49.164 47.298 49.092V52.404H48.612V49.056L53.886 48.912C54.336 49.218 54.714 49.524 55.002 49.776L55.938 49.038C54.966 48.21 53.076 47.094 51.564 46.392L50.664 47.04Z" fill="#0FC8C3"/>
<defs>
<filter id="filter0_dd" x="0" y="0" width="96" height="92" filterUnits="userSpaceOnUse" color-interpolation-filters="sRGB">
<feFlood flood-opacity="0" result="BackgroundImageFix"/>
<feColorMatrix in="SourceAlpha" type="matrix" values="0 0 0 0 0 0 0 0 0 0 0 0 0 0 0 0 0 0 127 0" result="hardAlpha"/>
<feOffset dx="4" dy="2"/>
<feGaussianBlur stdDeviation="8"/>
<feColorMatrix type="matrix" values="0 0 0 0 0.534167 0 0 0 0 0.645967 0 0 0 0 0.749167 0 0 0 0.48 0"/>
<feBlend mode="normal" in2="BackgroundImageFix" result="effect1_dropShadow"/>
<feColorMatrix in="SourceAlpha" type="matrix" values="0 0 0 0 0 0 0 0 0 0 0 0 0 0 0 0 0 0 127 0" result="hardAlpha"/>
<feOffset dx="-4" dy="-2"/>
<feGaussianBlur stdDeviation="8"/>
<feColorMatrix type="matrix" values="0 0 0 0 1 0 0 0 0 1 0 0 0 0 1 0 0 0 1 0"/>
<feBlend mode="normal" in2="effect1_dropShadow" result="effect2_dropShadow"/>
<feBlend mode="normal" in="SourceGraphic" in2="effect2_dropShadow" result="shape"/>
</filter>
</defs>
</svg>
