<svg xmlns="http://www.w3.org/2000/svg" width="66" height="40" viewBox="0 0 66 40"><g fill="#FFF" fill-rule="evenodd"><g fill-rule="nonzero"><path d="M33.67 7.944c-3.357 0-6.077 2.712-6.077 6.056s2.72 6.056 6.076 6.056c3.354 0 6.075-2.712 6.075-6.056s-2.72-6.056-6.076-6.056zm0-1.222c4.032 0 7.3 3.26 7.3 7.278 0 4.02-3.268 7.278-7.3 7.278-4.034 0-7.304-3.26-7.304-7.278 0-4.02 3.27-7.278 7.303-7.278z"/><path d="M44.204 20.32V7.68L33.67 1.38l-10.537 6.3v12.64l10.536 6.3 10.534-6.3zm-10.85 7.537l-11.15-6.666c-.184-.11-.297-.31-.297-.523V7.333c0-.214.113-.413.297-.524L33.354.142c.193-.116.436-.116.63 0l11.15 6.666c.183.11.296.31.296.523v13.334c0 .214-.113.413-.297.524l-11.15 6.667c-.193.116-.436.116-.63 0z"/><path d="M22.204 7.857c-.396-.237-.396-.81 0-1.048L33.354.142c.193-.116.436-.116.63 0l11.15 6.666c.396.237.396.81 0 1.047l-11.15 6.667c-.194.116-.437.116-.63 0l-11.15-6.667zm11.465 5.43l9.955-5.954L33.67 1.38 23.71 7.332l9.957 5.954z"/></g><path d="M4.64 39.72H3.205l-3.06-7.587H1.58l2.342 5.665 2.34-5.665h1.44L4.64 39.72zm10.15-7.587v1.205h-4.062v2.008h3.648v1.14h-3.648v2.03h4.192v1.203H9.443v-7.587h5.347zm8.504 2.464c0 1.252-.548 2.04-1.644 2.366l1.992 2.756H22.01l-1.82-2.55h-1.687v2.55h-1.285v-7.587h2.83c1.162 0 1.994.196 2.495.586.5.39.75 1.016.75 1.877zm-1.71 1.074c.262-.223.392-.583.392-1.078 0-.496-.134-.836-.403-1.02-.268-.185-.747-.277-1.437-.277h-1.633v2.713h1.6c.726 0 1.22-.112 1.48-.337zm9.975-2.544c.732.662 1.1 1.583 1.1 2.762 0 1.18-.357 2.113-1.07 2.8-.71.688-1.8 1.03-3.265 1.03h-2.527v-7.585h2.614c1.365 0 2.414.33 3.147.993zm-.197 2.795c0-1.735-.998-2.604-2.995-2.604h-1.285v5.2h1.427c.922 0 1.628-.22 2.118-.658.49-.438.735-1.083.735-1.937zm3.604-3.787h1.285v7.586h-1.285v-7.587zm9.32 3.896h1.286v2.593c-.72.79-1.746 1.183-3.082 1.183-1.124 0-2.066-.37-2.824-1.107-.76-.74-1.138-1.672-1.138-2.8 0-1.13.386-2.07 1.16-2.822.773-.753 1.707-1.13 2.803-1.13 1.098 0 2.01.32 2.735.956l-.686.977c-.3-.253-.598-.428-.9-.526-.3-.097-.65-.146-1.05-.146-.77 0-1.416.248-1.94.743-.52.497-.783 1.148-.783 1.955 0 .806.254 1.454.762 1.942.508.49 1.123.733 1.845.733s1.327-.156 1.813-.467V36.03zm9.703-1.433c0 1.252-.548 2.04-1.644 2.366l1.993 2.756h-1.635l-1.818-2.55H49.2v2.55h-1.286v-7.587h2.83c1.163 0 1.994.196 2.495.586.5.39.75 1.016.75 1.877zm-1.71 1.074c.262-.223.393-.583.393-1.078 0-.496-.134-.836-.403-1.02-.27-.185-.748-.277-1.437-.277H49.2v2.713h1.6c.726 0 1.22-.112 1.48-.337zm4.215-3.537h1.285v7.586h-1.285v-7.587zm5.434 1.227c-.24.152-.36.38-.36.69 0 .306.12.542.36.704.238.163.748.34 1.528.527.78.19 1.37.453 1.765.793.395.34.593.84.593 1.503 0 .662-.25 1.2-.75 1.612-.502.412-1.16.618-1.972.618-1.19 0-2.247-.41-3.17-1.226l.807-.966c.77.666 1.57.998 2.396.998.414 0 .743-.088.986-.266.243-.177.365-.412.365-.705 0-.292-.115-.52-.343-.683-.23-.162-.623-.31-1.182-.445-.56-.133-.984-.256-1.274-.37-.29-.11-.548-.257-.773-.438-.45-.34-.675-.86-.675-1.563 0-.7.256-1.24.768-1.62.51-.38 1.145-.57 1.9-.57.486 0 .97.08 1.448.238.48.16.893.383 1.24.673l-.685.966c-.224-.202-.53-.37-.913-.5-.385-.13-.764-.194-1.138-.194-.375 0-.682.076-.92.228z"/></g></svg>