<svg width="180" height="48" viewBox="0 0 180 48" fill="none" xmlns="http://www.w3.org/2000/svg">
<path d="M18.6502 24.8564C19.0442 25.1016 19.5364 25.1016 19.9304 24.8564L37.9764 13.6266C38.5656 13.2599 38.7566 12.4673 38.4031 11.8562C38.0496 11.2451 37.2854 11.047 36.6962 11.4136L19.3017 22.2522L1.88444 11.4136C1.29524 11.047 0.53101 11.2451 0.177488 11.8562C-0.176034 12.4673 0.0150232 13.2599 0.604227 13.6266L18.6502 24.8564ZM19.2903 13.8105C24.5831 13.8105 28.8737 18.2605 28.8737 23.7499C28.8737 29.2393 24.5831 33.6894 19.2903 33.6894C13.9975 33.6894 9.70687 29.2393 9.70687 23.7499C9.70687 18.2605 13.9975 13.8105 19.2903 13.8105ZM7.21857 23.7499C7.21857 30.6646 12.6233 36.2701 19.2903 36.2701C25.9573 36.2701 31.362 30.6646 31.362 23.7499C31.362 16.8352 25.9573 11.2297 19.2903 11.2297C12.6233 11.2297 7.21857 16.8352 7.21857 23.7499Z" fill="#0FC8C3"/>
<path d="M19.9302 47.3161L37.9762 36.0863C38.3509 35.8531 38.5802 35.4331 38.5802 34.9798V12.5202C38.5802 12.0669 38.3509 11.6469 37.9762 11.4137L19.9302 0.183886C19.5362 -0.0612954 19.044 -0.0612954 18.65 0.183886L0.604039 11.4137C0.229295 11.6469 0 12.0669 0 12.5202V34.9798C0 35.4331 0.229295 35.8531 0.604039 36.0863L18.65 47.3161C19.044 47.5613 19.5362 47.5613 19.9302 47.3161ZM2.48823 34.2513L2.48644 13.2519L19.3022 2.8029L36.0921 13.2552L36.0958 34.247L19.2954 44.7076L2.48823 34.2513Z" fill="#0FC8C3"/>
<path d="M58.6979 32.2335H55.4796L48.6285 15.1403H51.8468L57.0887 27.9052L62.3306 15.1403H65.5489L58.6979 32.2335Z" fill="#0FC8C3"/>
<path d="M80.3273 17.8547H71.5328V22.3786H79.4314V24.9463H71.5328V29.5191H80.6103V32.2335H68.7506V15.1403H74.5267H80.3273V17.8547Z" fill="#0FC8C3"/>
<path d="M96.9986 20.6913C96.9986 23.5117 95.8118 25.2886 93.4384 26.0222L97.7531 32.2335H94.2164L90.2789 26.4869H86.6244V32.2335H83.8422V15.1403H89.9724C92.4874 15.1403 94.2872 15.5805 95.3717 16.4608C96.4563 17.3412 96.9986 18.7513 96.9986 20.6913ZM93.1516 23.1122C93.7175 22.6069 94.0004 21.7958 94.0004 20.6791C94.0004 19.5624 93.7096 18.7962 93.128 18.3804C92.5464 17.9647 91.509 17.7569 90.0158 17.7569H86.4791V23.8703H89.945C91.5169 23.8703 92.5857 23.6176 93.1516 23.1122Z" fill="#0FC8C3"/>
<path d="M113.084 17.3778C114.671 18.8695 115.465 20.944 115.465 23.6013C115.465 26.2586 114.695 28.3616 113.154 29.9104C111.614 31.4591 109.256 32.2335 106.081 32.2335H100.611V15.1403H106.27C109.225 15.1403 111.496 15.8862 113.084 17.3778ZM112.659 23.6747C112.659 19.7621 110.498 17.8058 106.175 17.8058H103.393V29.5191H106.482C108.478 29.5191 110.007 29.026 111.068 28.0397C112.129 27.0534 112.659 25.5984 112.659 23.6747Z" fill="#0FC8C3"/>
<path d="M119.056 15.1403H121.839V32.2335H119.056V15.1403Z" fill="#0FC8C3"/>
<path d="M137.806 24.0174H140.492V29.6601C138.989 31.3757 136.842 32.2335 134.05 32.2335C131.697 32.2335 129.728 31.4308 128.142 29.8253C126.556 28.2199 125.764 26.1895 125.764 23.7341C125.764 21.2787 126.572 19.2326 128.188 17.5957C129.804 15.9588 131.758 15.1403 134.05 15.1403C136.341 15.1403 138.246 15.8329 139.763 17.2179L138.329 19.3428C137.707 18.7919 137.081 18.4102 136.451 18.1977C135.821 17.9852 135.089 17.879 134.254 17.879C132.646 17.879 131.295 18.4181 130.202 19.4962C129.11 20.5744 128.563 21.991 128.563 23.7459C128.563 25.5009 129.095 26.9096 130.157 27.972C131.219 29.0344 132.505 29.5656 134.015 29.5656C135.525 29.5656 136.789 29.2272 137.806 28.5504V24.0174Z" fill="#0FC8C3"/>
<path d="M157.365 20.6913C157.365 23.5117 156.179 25.2886 153.805 26.0222L158.12 32.2335H154.583L150.646 26.4869H146.991V32.2335H144.209V15.1403H150.339C152.854 15.1403 154.654 15.5805 155.739 16.4608C156.823 17.3412 157.365 18.7513 157.365 20.6913ZM153.664 23.1122C154.23 22.6069 154.512 21.7958 154.512 20.6791C154.512 19.5624 154.222 18.7962 153.64 18.3804C153.059 17.9647 152.021 17.7569 150.528 17.7569H146.991V23.8703H150.457C152.029 23.8703 153.098 23.6176 153.664 23.1122Z" fill="#0FC8C3"/>
<path d="M160.977 15.1403H163.759V32.2335H160.977V15.1403Z" fill="#0FC8C3"/>
<path d="M171.873 18.2095C171.373 18.5401 171.122 19.0398 171.122 19.7087C171.122 20.3777 171.373 20.8892 171.873 21.2433C172.374 21.5975 173.44 21.9792 175.072 22.3884C176.703 22.7976 177.932 23.3721 178.759 24.1119C179.587 24.8516 180 25.9416 180 27.3818C180 28.8219 179.476 29.9906 178.429 30.8878C177.382 31.7849 176.009 32.2335 174.309 32.2335C171.82 32.2335 169.612 31.3442 167.685 29.5656L169.369 27.4644C170.978 28.9124 172.647 29.6365 174.377 29.6365C175.242 29.6365 175.929 29.4436 176.438 29.058C176.946 28.6724 177.2 28.1609 177.2 27.5234C177.2 26.886 176.961 26.3902 176.483 26.036C176.005 25.6819 175.182 25.3592 174.013 25.068C172.845 24.7769 171.957 24.5093 171.35 24.2653C170.743 24.0214 170.204 23.7026 169.734 23.3092C168.793 22.5694 168.322 21.4361 168.322 19.9094C168.322 18.3827 168.857 17.2061 169.927 16.3798C170.997 15.5535 172.321 15.1403 173.899 15.1403C174.916 15.1403 175.925 15.3135 176.927 15.6597C177.929 16.006 178.794 16.4939 179.522 17.1235L178.088 19.2247C177.617 18.784 176.98 18.422 176.176 18.1387C175.371 17.8554 174.578 17.7137 173.797 17.7137C173.015 17.7137 172.374 17.879 171.873 18.2095Z" fill="#0FC8C3"/>
</svg>
