<svg width="18" height="17" viewBox="0 0 18 17" xmlns="http://www.w3.org/2000/svg"><title>book</title><g fill="none" fill-rule="evenodd"><g stroke="#9B9B9B"><g><g><path d="M8.978 14.543v2.025c-.322-2.24-7.66-1.583-7.66-1.583V2.08s.52.037 1.357.14M8.978 16.568c.323-2.24 7.662-1.583 7.662-1.583V2.08s-.545.036-1.36.133"/><path d="M8.978 14.543c-.265-1.792-6.303-1.267-6.303-1.267V1.492s6.038.368 6.303 2.16v10.89zM8.978 14.543c.265-1.792 6.303-1.267 6.303-1.267V1.492s-6.037.368-6.302 2.16v10.89zM4.333 6.333h3.31M4.333 8.333h3.31M4.333 10.333h3.31M10.333 6.333h3.29M10.333 8.333h3.29M10.333 10.333h3.29"/></g></g></g></g></svg>