<svg width="44" height="108" viewBox="0 0 44 108" xmlns="http://www.w3.org/2000/svg"><title>Group 3</title><g fill="none" fill-rule="evenodd"><g fill-rule="nonzero" fill="#FFF"><g><g><path d="M38.028 28H5.884C2.634 28 0 30.664 0 33.95v68.1c0 3.286 2.635 5.95 5.884 5.95h32.232c3.25 0 5.884-2.664 5.884-5.95v-68.1c-.088-3.286-2.723-5.95-5.972-5.95zm-21.956 5.15h11.68c.44 0 .703.355.703.71 0 .444-.35.71-.703.71h-11.68c-.44 0-.703-.355-.703-.71s.35-.71.702-.71zm5.884 71.83c-1.58 0-2.898-1.33-2.898-2.93 0-1.597 1.317-2.93 2.898-2.93 1.58 0 2.898 1.333 2.898 2.93 0 1.6-1.317 2.93-2.898 2.93zm19.058-8.878H2.898V39.81h38.028V96.1h.088z"/><g><path d="M22 .39c-4.39 0-8.455 1.413-11.764 3.807l1.95 2.432C14.952 4.67 18.337 3.513 22 3.513s7.047 1.155 9.815 3.115l1.95-2.433C30.454 1.803 26.39.39 22 .39zm0 5.206c-3.156 0-6.084.993-8.495 2.676l1.94 2.424C17.316 9.443 19.57 8.72 22 8.72c2.43 0 4.685.723 6.554 1.976l1.94-2.424C28.085 6.59 25.157 5.596 22 5.596zm0 5.205c-1.923 0-3.717.572-5.226 1.547L22 18.87l5.226-6.523C25.716 11.372 23.923 10.8 22 10.8z"/></g></g></g></g></g></svg>