<svg width="81" height="226" viewBox="0 0 81 226" xmlns="http://www.w3.org/2000/svg"><title>Group 43</title><g fill="none" fill-rule="evenodd"><g stroke="#747474"><g><g><g transform="translate(5 129)"><ellipse cx="15.668" cy="9.118" rx=".667" ry="1.032"/><ellipse cx="15.668" cy="12.731" rx=".667" ry="1.032"/><ellipse cx="15.668" cy="16.344" rx=".667" ry="1.032"/><ellipse cx="15.668" cy="19.957" rx=".667" ry="1.032"/><ellipse cx="14.502" cy="10.323" rx=".667" ry="1.032"/><ellipse cx="14.502" cy="13.935" rx=".667" ry="1.032"/><ellipse cx="14.502" cy="17.548" rx=".667" ry="1.032"/><ellipse cx="13.335" cy="8.086" rx=".667" ry="1.032"/><ellipse cx="13.335" cy="11.699" rx=".667" ry="1.032"/><ellipse cx="13.335" cy="15.312" rx=".667" ry="1.032"/><ellipse cx="13.335" cy="18.925" rx=".667" ry="1.032"/><ellipse cx="12.168" cy="9.29" rx=".667" ry="1.032"/><ellipse cx="12.168" cy="12.903" rx=".667" ry="1.032"/><ellipse cx="12.168" cy="16.516" rx=".667" ry="1.032"/><ellipse cx="11.168" cy="6.882" rx=".667" ry="1.032"/><ellipse cx="11.168" cy="10.495" rx=".667" ry="1.032"/><ellipse cx="11.168" cy="14.108" rx=".667" ry="1.032"/><ellipse cx="11.168" cy="17.72" rx=".667" ry="1.032"/><ellipse cx="10.001" cy="8.086" rx=".667" ry="1.032"/><ellipse cx="10.001" cy="11.699" rx=".667" ry="1.032"/><ellipse cx="10.001" cy="15.312" rx=".667" ry="1.032"/><ellipse cx="9.001" cy="5.849" rx=".667" ry="1.032"/><ellipse cx="9.001" cy="9.462" rx=".667" ry="1.032"/><ellipse cx="9.001" cy="13.075" rx=".667" ry="1.032"/><ellipse cx="9.001" cy="16.688" rx=".667" ry="1.032"/><ellipse cx="7.834" cy="7.054" rx=".667" ry="1.032"/><ellipse cx="7.834" cy="10.667" rx=".667" ry="1.032"/><ellipse cx="7.834" cy="14.28" rx=".667" ry="1.032"/><ellipse cx="6.801" cy="4.645" rx=".533" ry="1.032"/><ellipse cx="6.801" cy="8.258" rx=".533" ry="1.032"/><ellipse cx="6.801" cy="11.871" rx=".533" ry="1.032"/><ellipse cx="6.801" cy="15.484" rx=".533" ry="1.032"/><ellipse cx="5.867" cy="5.849" rx=".533" ry="1.032"/><ellipse cx="5.867" cy="9.462" rx=".533" ry="1.032"/><ellipse cx="5.867" cy="13.075" rx=".533" ry="1.032"/><ellipse cx="4.634" cy="3.269" rx=".533" ry="1.032"/><ellipse cx="4.634" cy="6.882" rx=".533" ry="1.032"/><ellipse cx="4.634" cy="10.495" rx=".533" ry="1.032"/><ellipse cx="4.634" cy="14.108" rx=".533" ry="1.032"/><ellipse cx="3.7" cy="4.473" rx=".533" ry="1.032"/><ellipse cx="3.7" cy="8.086" rx=".533" ry="1.032"/><ellipse cx="3.7" cy="11.699" rx=".533" ry="1.032"/><ellipse cx="2.634" cy="2.237" rx=".533" ry="1.032"/><ellipse cx="2.634" cy="5.849" rx=".533" ry="1.032"/><ellipse cx="2.634" cy="9.462" rx=".533" ry="1.032"/><ellipse cx="2.634" cy="13.075" rx=".533" ry="1.032"/><ellipse cx="1.7" cy="3.441" rx=".533" ry="1.032"/><ellipse cx="1.7" cy="7.054" rx=".533" ry="1.032"/><ellipse cx="1.7" cy="10.667" rx=".533" ry="1.032"/><ellipse cx=".633" cy="1.032" rx=".533" ry="1.032"/><ellipse cx=".633" cy="4.645" rx=".533" ry="1.032"/><ellipse cx=".633" cy="8.258" rx=".533" ry="1.032"/><ellipse cx=".633" cy="11.871" rx=".533" ry="1.032"/></g><g transform="translate(5 177.172)"><ellipse cx="15.668" cy="9.118" rx=".667" ry="1.032"/><ellipse cx="15.668" cy="12.731" rx=".667" ry="1.032"/><ellipse cx="15.668" cy="16.344" rx=".667" ry="1.032"/><ellipse cx="15.668" cy="19.957" rx=".667" ry="1.032"/><ellipse cx="14.502" cy="10.323" rx=".667" ry="1.032"/><ellipse cx="14.502" cy="13.935" rx=".667" ry="1.032"/><ellipse cx="14.502" cy="17.548" rx=".667" ry="1.032"/><ellipse cx="13.335" cy="8.086" rx=".667" ry="1.032"/><ellipse cx="13.335" cy="11.699" rx=".667" ry="1.032"/><ellipse cx="13.335" cy="15.312" rx=".667" ry="1.032"/><ellipse cx="13.335" cy="18.925" rx=".667" ry="1.032"/><ellipse cx="12.168" cy="9.29" rx=".667" ry="1.032"/><ellipse cx="12.168" cy="12.903" rx=".667" ry="1.032"/><ellipse cx="12.168" cy="16.516" rx=".667" ry="1.032"/><ellipse cx="11.168" cy="6.882" rx=".667" ry="1.032"/><ellipse cx="11.168" cy="10.495" rx=".667" ry="1.032"/><ellipse cx="11.168" cy="14.108" rx=".667" ry="1.032"/><ellipse cx="11.168" cy="17.72" rx=".667" ry="1.032"/><ellipse cx="10.001" cy="8.086" rx=".667" ry="1.032"/><ellipse cx="10.001" cy="11.699" rx=".667" ry="1.032"/><ellipse cx="10.001" cy="15.312" rx=".667" ry="1.032"/><ellipse cx="9.001" cy="5.849" rx=".667" ry="1.032"/><ellipse cx="9.001" cy="9.462" rx=".667" ry="1.032"/><ellipse cx="9.001" cy="13.075" rx=".667" ry="1.032"/><ellipse cx="9.001" cy="16.688" rx=".667" ry="1.032"/><ellipse cx="7.834" cy="7.054" rx=".667" ry="1.032"/><ellipse cx="7.834" cy="10.667" rx=".667" ry="1.032"/><ellipse cx="7.834" cy="14.28" rx=".667" ry="1.032"/><ellipse cx="6.801" cy="4.645" rx=".533" ry="1.032"/><ellipse cx="6.801" cy="8.258" rx=".533" ry="1.032"/><ellipse cx="6.801" cy="11.871" rx=".533" ry="1.032"/><ellipse cx="6.801" cy="15.484" rx=".533" ry="1.032"/><ellipse cx="5.867" cy="5.849" rx=".533" ry="1.032"/><ellipse cx="5.867" cy="9.462" rx=".533" ry="1.032"/><ellipse cx="5.867" cy="13.075" rx=".533" ry="1.032"/><ellipse cx="4.634" cy="3.269" rx=".533" ry="1.032"/><ellipse cx="4.634" cy="6.882" rx=".533" ry="1.032"/><ellipse cx="4.634" cy="10.495" rx=".533" ry="1.032"/><ellipse cx="4.634" cy="14.108" rx=".533" ry="1.032"/><ellipse cx="3.7" cy="4.473" rx=".533" ry="1.032"/><ellipse cx="3.7" cy="8.086" rx=".533" ry="1.032"/><ellipse cx="3.7" cy="11.699" rx=".533" ry="1.032"/><ellipse cx="2.634" cy="2.237" rx=".533" ry="1.032"/><ellipse cx="2.634" cy="5.849" rx=".533" ry="1.032"/><ellipse cx="2.634" cy="9.462" rx=".533" ry="1.032"/><ellipse cx="2.634" cy="13.075" rx=".533" ry="1.032"/><ellipse cx="1.7" cy="3.441" rx=".533" ry="1.032"/><ellipse cx="1.7" cy="7.054" rx=".533" ry="1.032"/><ellipse cx="1.7" cy="10.667" rx=".533" ry="1.032"/><ellipse cx=".633" cy="1.032" rx=".533" ry="1.032"/><ellipse cx=".633" cy="4.645" rx=".533" ry="1.032"/><ellipse cx=".633" cy="8.258" rx=".533" ry="1.032"/><ellipse cx=".633" cy="11.871" rx=".533" ry="1.032"/></g><g transform="translate(5 80.14)"><ellipse cx="15.668" cy="9.118" rx=".667" ry="1.032"/><ellipse cx="15.668" cy="12.731" rx=".667" ry="1.032"/><ellipse cx="15.668" cy="16.344" rx=".667" ry="1.032"/><ellipse cx="15.668" cy="19.957" rx=".667" ry="1.032"/><ellipse cx="14.502" cy="10.323" rx=".667" ry="1.032"/><ellipse cx="14.502" cy="13.935" rx=".667" ry="1.032"/><ellipse cx="14.502" cy="17.548" rx=".667" ry="1.032"/><ellipse cx="13.335" cy="8.086" rx=".667" ry="1.032"/><ellipse cx="13.335" cy="11.699" rx=".667" ry="1.032"/><ellipse cx="13.335" cy="15.312" rx=".667" ry="1.032"/><ellipse cx="13.335" cy="18.925" rx=".667" ry="1.032"/><ellipse cx="12.168" cy="9.29" rx=".667" ry="1.032"/><ellipse cx="12.168" cy="12.903" rx=".667" ry="1.032"/><ellipse cx="12.168" cy="16.516" rx=".667" ry="1.032"/><ellipse cx="11.168" cy="6.882" rx=".667" ry="1.032"/><ellipse cx="11.168" cy="10.495" rx=".667" ry="1.032"/><ellipse cx="11.168" cy="14.108" rx=".667" ry="1.032"/><ellipse cx="11.168" cy="17.72" rx=".667" ry="1.032"/><ellipse cx="10.001" cy="8.086" rx=".667" ry="1.032"/><ellipse cx="10.001" cy="11.699" rx=".667" ry="1.032"/><ellipse cx="10.001" cy="15.312" rx=".667" ry="1.032"/><ellipse cx="9.001" cy="5.849" rx=".667" ry="1.032"/><ellipse cx="9.001" cy="9.462" rx=".667" ry="1.032"/><ellipse cx="9.001" cy="13.075" rx=".667" ry="1.032"/><ellipse cx="9.001" cy="16.688" rx=".667" ry="1.032"/><ellipse cx="7.834" cy="7.054" rx=".667" ry="1.032"/><ellipse cx="7.834" cy="10.667" rx=".667" ry="1.032"/><ellipse cx="7.834" cy="14.28" rx=".667" ry="1.032"/><ellipse cx="6.801" cy="4.645" rx=".533" ry="1.032"/><ellipse cx="6.801" cy="8.258" rx=".533" ry="1.032"/><ellipse cx="6.801" cy="11.871" rx=".533" ry="1.032"/><ellipse cx="6.801" cy="15.484" rx=".533" ry="1.032"/><ellipse cx="5.867" cy="5.849" rx=".533" ry="1.032"/><ellipse cx="5.867" cy="9.462" rx=".533" ry="1.032"/><ellipse cx="5.867" cy="13.075" rx=".533" ry="1.032"/><ellipse cx="4.634" cy="3.269" rx=".533" ry="1.032"/><ellipse cx="4.634" cy="6.882" rx=".533" ry="1.032"/><ellipse cx="4.634" cy="10.495" rx=".533" ry="1.032"/><ellipse cx="4.634" cy="14.108" rx=".533" ry="1.032"/><ellipse cx="3.7" cy="4.473" rx=".533" ry="1.032"/><ellipse cx="3.7" cy="8.086" rx=".533" ry="1.032"/><ellipse cx="3.7" cy="11.699" rx=".533" ry="1.032"/><ellipse cx="2.634" cy="2.237" rx=".533" ry="1.032"/><ellipse cx="2.634" cy="5.849" rx=".533" ry="1.032"/><ellipse cx="2.634" cy="9.462" rx=".533" ry="1.032"/><ellipse cx="2.634" cy="13.075" rx=".533" ry="1.032"/><ellipse cx="1.7" cy="3.441" rx=".533" ry="1.032"/><ellipse cx="1.7" cy="7.054" rx=".533" ry="1.032"/><ellipse cx="1.7" cy="10.667" rx=".533" ry="1.032"/><ellipse cx=".633" cy="1.032" rx=".533" ry="1.032"/><ellipse cx=".633" cy="4.645" rx=".533" ry="1.032"/><ellipse cx=".633" cy="8.258" rx=".533" ry="1.032"/><ellipse cx=".633" cy="11.871" rx=".533" ry="1.032"/></g><g transform="translate(1 1)"><g><path d="M19.504 4.625C35.447.203 47.298-3.5 63.94 6.237c16.64 9.735 21.95 11.386-7.613 18.445-29.563 7.06-29.178 3.63-42.86-3.39C-7.122 11.32 3.56 9.048 19.505 4.626z"/><path d="M3.442 10.277C1.335 11.61-.915 14.53 1.335 16.38c2.25 1.85 15.243 10.373 21.036 12.043 5.794 1.67 9.188 3.215 20.198 1.608 11.01-1.607 28.752-6.96 31.03-7.935 2.278-.975 9.358-3.355 2.478-8.346" stroke-linecap="round"/></g><g transform="translate(4.667 9.29)"><ellipse cx="6.4" cy="2.834" rx="6.4" ry="2.686"/><path d="M9.96 4.527c.028-.12.04-.243.04-.368 0-1.348-1.566-2.44-3.5-2.44C4.568 1.72 3 2.812 3 4.16c0 .145.02.288.054.427" stroke-linecap="round"/><ellipse cx="6.417" cy="2.62" rx="1.833" ry=".821"/><ellipse cx="6.417" cy="2.526" rx="1.449" ry=".555"/><ellipse cx="6.417" cy="2.521" rx=".536" ry=".2"/><ellipse cx="6.4" cy="3.082" rx="6.4" ry="2.439"/><path d="M3.86 2.494c-1.334.297-2.22.82-2.22 1.416 0 .924 2.13 1.674 4.76 1.674s4.76-.75 4.76-1.674c0-.565-.795-1.064-2.014-1.367"/><path d="M3.63 2.855c-1.205.267-1.99.703-1.99 1.195 0 .812 2.13 1.47 4.76 1.47s4.76-.658 4.76-1.47c0-.456-.674-.864-1.732-1.134"/><path d="M3.36 3.128c-1.05.194-1.72.488-1.72.816 0 .585 2.13 1.06 4.76 1.06s4.76-.475 4.76-1.06c0-.288-.517-.55-1.356-.74"/></g><ellipse cx="68.073" cy="16.081" rx="6.4" ry="2.686"/><path d="M71.635 17.775c.026-.12.04-.243.04-.37 0-1.345-1.568-2.437-3.5-2.437-1.934 0-3.5 1.092-3.5 2.438 0 .146.017.29.052.428" stroke-linecap="round"/><ellipse cx="68.091" cy="15.867" rx="1.833" ry=".821"/><ellipse cx="68.091" cy="15.774" rx="1.449" ry=".555"/><ellipse cx="68.091" cy="15.768" rx=".536" ry=".2"/><ellipse cx="68.073" cy="16.329" rx="6.4" ry="2.439"/><path d="M65.533 15.742c-1.334.296-2.22.82-2.22 1.415 0 .925 2.13 1.674 4.76 1.674s4.76-.748 4.76-1.673c0-.564-.795-1.064-2.013-1.367"/><path d="M65.304 16.102c-1.206.267-1.99.703-1.99 1.196 0 .812 2.13 1.47 4.76 1.47 2.628 0 4.76-.658 4.76-1.47 0-.457-.674-.865-1.732-1.134"/><path d="M65.035 16.375c-1.052.195-1.722.488-1.722.816 0 .587 2.13 1.06 4.76 1.06s4.76-.473 4.76-1.06c0-.287-.516-.55-1.355-.74M36.6 11.382l-2.892 2.712 4.18 2.576 8.522-.302 2.938-2.79-4.76-2.413z"/><path d="M34.016 14.14l7.472-.267 2.844-2.63M10.778 20.53c-.345.51-.575.538-.387 1.18.19.642 3.59 2.258 3.59 2.258s.96-.57.96-1.18c0-.613-3.817-2.767-4.162-2.257z"/><path d="M11.235 20.682c0 .59.76 1 .76 1l2.672 1.472M10.49 21.917c.362-.256 1.038-.63 1.776-.144M12.417 21.16c0 .366.76 1.308 2.154 1.934"/><ellipse cx="41.338" cy="13.763" rx="4" ry="1.376"/><path d="M.155 15.208s-.01 187.34 0 190.246c.01 2.906-.133 2.755.747 3.584 4.76 4.78 16.47 10.895 25.725 13.838 8.74 2.417 17.712.244 23.936-1.118 6.224-1.36 20.65-5.453 24.216-7.297 4.323-2.104 4.363-2.06 4.323-8.48-.04-6.42.04-188.102.04-188.102" stroke-linecap="round"/><path d="M.167 62.384c-.176.555 3.048 3.913 9.96 7.796 6.51 3.93 15.143 7.872 21.22 8.436 11.663 1.084 26.528-3.848 36.162-6.784 9.633-2.937 11.055-5.007 11.556-5.587M.173 111.312c-.175.554 3.048 3.913 9.96 7.795 6.51 3.93 15.144 7.873 21.22 8.437 11.664 1.083 26.53-3.848 36.163-6.785 9.633-2.938 11.056-5.007 11.557-5.587M.173 159.484c-.175.554 3.048 3.913 9.96 7.795 6.51 3.93 15.144 7.872 21.22 8.436 11.664 1.083 26.53-3.848 36.163-6.785 9.633-2.936 11.056-5.005 11.557-5.585"/><path d="M.167 61.008c-.176.554 3.048 3.913 9.96 7.795 6.51 3.93 15.143 7.873 21.22 8.437 11.663 1.083 26.528-3.848 36.162-6.785 9.633-2.937 11.055-5.006 11.556-5.586"/></g></g></g></g></g></svg>