<svg width="98" height="183" viewBox="0 0 98 183" xmlns="http://www.w3.org/2000/svg"><title>Group</title><g fill="none" fill-rule="evenodd"><g><g><g><g stroke="#747474" transform="translate(1 1)"><path d="M.08.117V87.62c0 2.717 1.624 4.472 4.073 4.472H92.08c1.986 0 3.822-2.98 3.822-4.477 0-1.497-.123-87.578-.123-87.578L.08.117z"/><path d="M1.027.08v86.215c0 2.718 1.625 4.473 4.074 4.473h85.875c1.985 0 3.82-2.98 3.82-4.477 0-1.496-.122-86.29-.122-86.29"/><path d="M15.658.198v74.836c0 2.36 1.123 3.882 2.816 3.882H77.83c1.372 0 2.64-2.586 2.64-3.885 0-1.3-.084-74.9-.084-74.9"/><path d="M16.94.197V73.81c0 2.32 1.074 3.82 2.69 3.82h56.68c1.31 0 2.52-2.545 2.52-3.823 0-1.28-.08-73.678-.08-73.678M3.5 90.626v1.314M92.5 90.63v1.315M.086 73.5h16.92M20.5 77.768V92.02M74.5 77.575v14.47M78.83 73.5H95.88M16.956 16.5h61.85M17.005 14.5H78.78M17.093.5H78.69M20.5.178v16.096M74.5.13v16.095"/><ellipse cx="9.369" cy="4.248" rx="1.54" ry="1.545"/><ellipse cx="86.503" cy="4.248" rx="1.54" ry="1.545"/><path d="M41.992 92.324l1.704 2.102v2.784M53.944 92.266l-1.505 1.95v3.006M43.765 93.5h8.754M43.3 96.5h9.354M43.5 92.216l1.934 2.223v2.77M52.25 92.193l-1.64 2.25v2.766"/></g><g><path d="M53.11 182v-16.318c0-7.375-7.346-7.047-7.346-17.066 0-10.018 7.345-10.41 7.345-19.428 0-9.02-5.394-11.243-5.394-17.73s4.548-12.46 4.548-12.46V97.01" stroke="#4A4A4A" stroke-width="4"/><path d="M49.646 141.86c1.327 2.162 1.808 3.933 1.808 6.756 0 3.685-.876 5.585-3.176 8.205-.14.16-.676.764-.8.905-2.362 2.688-3.37 4.692-3.37 7.957V182h4v-16.318c0-2.11.593-3.29 2.375-5.316l.802-.906c2.888-3.29 4.17-6.07 4.17-10.844 0-4.32-.968-6.9-3.392-10.347M50 134.408c-.983-1.714-1.393-3.493-1.393-5.64 0-3.428 3.17-10.17 3.375-10.562 1.384-2.622 2.018-4.608 2.018-7.168 0-2.78-.455-5.343-1.662-8.094-.177-.404-2.55 5.706-2.474 6.23.09.63.136 1.252.136 1.864 0 1.8-.45 3.204-1.555 5.3-.192.364-3.838 8.235-3.838 12.43 0 3.758.88 6.054 3.12 9.232M49.79 99.743c-.407-.662-.782-1.822-1.092-2.23h-3.676c0 1.154.494 3.04.494 3.04.112.148.33.458.62.908.494.767.99 1.63 1.45 2.565" stroke="#747474" fill="#FFF" fill-rule="nonzero"/></g></g></g></g></g></svg>