<svg width="103" height="199" viewBox="0 0 103 199" fill="none" xmlns="http://www.w3.org/2000/svg">
<g filter="url(#filter0_d_205:490)">
<g filter="url(#filter1_d_205:490)">
<path fill-rule="evenodd" clip-rule="evenodd" d="M74.6077 129.022L74.6077 177.955L20.9588 178C20.9588 178 20.8901 129.861 20.8901 129.024C20.8901 128.187 21.9192 126.521 23.032 126.521L72.3238 126.521C73.6968 126.521 74.6077 127.502 74.6077 129.022ZM28.1642 152.206C28.1642 141.39 36.9324 132.622 47.7487 132.622C58.5649 132.622 67.3332 141.39 67.3332 152.206C67.3332 163.023 58.5649 171.791 47.7487 171.791C36.9324 171.791 28.1642 163.023 28.1642 152.206Z" fill="white"/>
<path fill-rule="evenodd" clip-rule="evenodd" d="M74.6077 177.727L74.6077 128.794C74.6077 127.273 73.6968 126.292 72.3238 126.292L23.032 126.292C21.9192 126.292 20.8901 127.958 20.8901 128.796C20.8901 129.633 20.9588 177.772 20.9588 177.772L74.6077 177.727Z" stroke="#747474" stroke-width="1.5"/>
<path d="M47.7487 132.727C36.9325 132.727 28.1642 141.495 28.1642 152.311C28.1642 163.128 36.9325 171.896 47.7487 171.896C58.565 171.896 67.3333 163.128 67.3333 152.311C67.3333 141.495 58.565 132.727 47.7487 132.727Z" stroke="#747474" stroke-width="1.5"/>
<rect x="48.9556" y="44.7644" width="3.66073" height="79.3158" fill="#747474"/>
<rect x="43.2045" y="45.1144" width="2.96073" height="78.6158" fill="white" stroke="#747474" stroke-width="0.7"/>
</g>
<rect x="40.9143" y="123.36" width="13.6429" height="2.66073" fill="white" stroke="#747474"/>
</g>
<circle cx="47.7489" cy="47.7489" r="47.2489" fill="white" stroke="#737373"/>
<mask id="path-8-inside-1_205:490" fill="white">
<path fill-rule="evenodd" clip-rule="evenodd" d="M90.3956 69.2479C93.6593 62.7864 95.4978 55.4824 95.4978 47.7489C95.4978 21.3779 74.1199 0 47.7489 0C21.3779 0 0 21.3779 0 47.7489C0 74.1199 21.3779 95.4978 47.7489 95.4978C53.5066 95.4978 59.0262 94.4787 64.1373 92.6111L63.1678 115.393L87.7111 73.8927C88.5156 72.6656 89.265 71.3991 89.956 70.0969L90.524 69.1364L90.3956 69.2479Z"/>
</mask>
<path fill-rule="evenodd" clip-rule="evenodd" d="M90.3956 69.2479C93.6593 62.7864 95.4978 55.4824 95.4978 47.7489C95.4978 21.3779 74.1199 0 47.7489 0C21.3779 0 0 21.3779 0 47.7489C0 74.1199 21.3779 95.4978 47.7489 95.4978C53.5066 95.4978 59.0262 94.4787 64.1373 92.6111L63.1678 115.393L87.7111 73.8927C88.5156 72.6656 89.265 71.3991 89.956 70.0969L90.524 69.1364L90.3956 69.2479Z" fill="white"/>
<path d="M90.3956 69.2479L89.503 68.797L91.051 70.0031L90.3956 69.2479ZM64.1373 92.6111L65.1364 92.6536L65.2 91.1581L63.7941 91.6719L64.1373 92.6111ZM63.1678 115.393L62.1687 115.351L64.0286 115.902L63.1678 115.393ZM87.7111 73.8927L86.8748 73.3445L86.8621 73.3638L86.8504 73.3837L87.7111 73.8927ZM89.956 70.0969L89.0952 69.5878L89.0835 69.6077L89.0726 69.6282L89.956 70.0969ZM90.524 69.1364L91.3847 69.6455L89.8685 68.3812L90.524 69.1364ZM94.4978 47.7489C94.4978 55.3222 92.6977 62.4722 89.503 68.797L91.2882 69.6987C94.6209 63.1007 96.4978 55.6425 96.4978 47.7489H94.4978ZM47.7489 1C73.5676 1 94.4978 21.9302 94.4978 47.7489H96.4978C96.4978 20.8256 74.6722 -1 47.7489 -1V1ZM1 47.7489C1 21.9302 21.9302 1 47.7489 1V-1C20.8256 -1 -1 20.8256 -1 47.7489H1ZM47.7489 94.4978C21.9302 94.4978 1 73.5676 1 47.7489H-1C-1 74.6722 20.8256 96.4978 47.7489 96.4978V94.4978ZM63.7941 91.6719C58.7913 93.4999 53.3878 94.4978 47.7489 94.4978V96.4978C53.6253 96.4978 59.261 95.4576 64.4805 93.5504L63.7941 91.6719ZM64.1669 115.436L65.1364 92.6536L63.1382 92.5686L62.1687 115.351L64.1669 115.436ZM86.8504 73.3837L62.3071 114.884L64.0286 115.902L88.5719 74.4017L86.8504 73.3837ZM89.0726 69.6282C88.3962 70.9031 87.6624 72.143 86.8748 73.3445L88.5474 74.4409C89.3687 73.1881 90.1339 71.8951 90.8393 70.5656L89.0726 69.6282ZM89.6632 68.6274L89.0952 69.5878L90.8167 70.6059L91.3847 69.6455L89.6632 68.6274ZM91.051 70.0031L91.1794 69.8917L89.8685 68.3812L89.7401 68.4927L91.051 70.0031Z" fill="#747474" mask="url(#path-8-inside-1_205:490)"/>
<g filter="url(#filter2_d_205:490)">
<path fill-rule="evenodd" clip-rule="evenodd" d="M41.6187 61.6726H40.2786C39.8319 62.0063 38.6035 63.2079 37.2633 65.3441C35.7244 67.7972 37.2958 72.222 37.8213 73.7019C37.8678 73.8329 37.9061 73.9408 37.9334 74.0222C38.2014 74.8233 40.9487 77.2487 42.2888 78.3613L52.3397 82.0329H54.6849V83.368H64.7357C64.8474 82.8117 65.2048 81.6991 65.7408 81.6991C72.368 81.412 76.2692 79.1499 78.084 78.0977C78.3793 77.9264 78.6194 77.7872 78.807 77.6938C80.1471 77.0262 84.1674 73.3547 81.4872 67.3467C78.807 61.3387 72.8115 59.6732 61.7205 58.6686C50.6644 57.6671 44.2989 63.0077 41.6187 65.3441C39.3806 67.2951 39.9459 70.4098 40.1932 71.773C40.2421 72.0423 40.2786 72.2433 40.2786 72.3534C40.2786 72.7102 40.478 73.5837 40.677 74.3565C40.4226 74.0906 40.0747 73.7611 39.6085 73.3547C37.3037 71.3455 37.7241 69.3363 38.1002 67.5394C38.1614 67.2467 38.2215 66.9597 38.2684 66.6792C38.5364 65.0771 40.6136 62.6739 41.6187 61.6726ZM51.334 62.34C54.3492 61.3386 62.725 60.3373 66.7453 61.6724C67.5494 61.9395 68.3804 62.1931 69.2113 62.4468C72.5347 63.4615 75.8581 64.4761 77.4663 66.3452C79.4764 68.6816 79.8115 71.3518 79.4764 72.0194C79.2084 72.5534 75.7911 75.3572 74.116 76.6923L65.4052 78.0274V76.6923H58.3696L57.0295 76.0247H54.6843L53.6792 76.6923C51.669 76.3585 47.3806 75.4907 46.3085 74.6896C46.2225 74.6254 46.1297 74.557 46.0313 74.4846C44.5967 73.4286 41.9961 71.5143 42.6232 69.0154C43.2933 66.3452 44.9684 64.0089 51.334 62.34Z" fill="white"/>
</g>
<path d="M65.2374 78.7263L64.9024 78.0587H62.5572V78.7263M62.2222 78.0587H60.212V77.3911C59.5419 77.5024 58.1348 77.7249 57.8668 77.7249C57.5988 77.7249 56.6383 77.7249 56.1916 77.7249C56.08 77.5024 55.7226 77.0574 55.1866 77.0574C54.6505 77.0574 54.0698 77.0574 53.8464 77.0574L54.8515 78.3925L63.8973 78.7263C63.8973 80.1726 63.8303 83.1321 63.5623 83.3991" stroke="#737373"/>
<path d="M53.8459 77.0577C51.1657 76.0563 43.46 75.055 42.7899 70.3822C42.1199 65.7093 48.4854 62.7053 50.1606 62.3715C51.8357 62.0378 58.2013 59.7013 65.572 61.3702C72.9426 63.0391 75.6228 64.3742 77.633 66.3768C79.6432 68.3795 79.9782 70.7159 79.6432 72.051C79.3082 73.3861 75.2878 76.7239 72.9426 77.0577C71.0664 77.3247 67.2471 77.8364 65.572 78.059" stroke="#737373"/>
<path d="M54.8512 76.0559H57.5315L58.8716 76.3897C60.5467 76.3897 64.031 76.3897 64.5671 76.3897C65.2371 76.3897 65.5722 76.7235 65.5722 77.0572C65.5722 77.3243 65.5722 78.2811 65.5722 78.7261C65.5722 79.2824 65.5722 80.5285 65.5722 81.0625C65.5722 81.5966 64.9021 82.8427 64.5671 83.399H58.8716H56.5264H54.5162V82.0639H52.8411" stroke="#737373"/>
<path d="M52.5061 79.7274L53.8462 77.0572C53.7345 78.3923 53.5112 81.1961 53.5112 81.7301M55.1863 76.0559C54.8513 76.0559 54.1813 76.2562 54.1813 77.0572C54.1813 77.8583 54.1813 79.1711 54.1813 79.7274L59.2067 79.3937L58.8717 80.7288L54.1813 80.0612M58.8717 83.399C57.9782 83.0652 55.9234 82.3976 54.8513 82.3976" stroke="#737373"/>
<path d="M41.45 75.0548C40.2216 74.1648 37.7647 71.7171 37.7647 69.0469C37.7647 66.3767 40.445 63.0389 41.7851 61.7038H40.1099C39.1048 62.5939 37.0277 64.9081 36.7596 67.0442C36.4246 69.7144 36.5678 71.2873 37.4297 72.7184C38.4348 74.3873 40.78 77.725 45.4704 79.7277C49.2227 81.3298 51.7243 81.7303 52.506 81.7303V79.7277C49.1557 79.2827 42.0531 77.458 40.445 73.7197C38.4348 69.0469 41.4501 64.374 44.8004 62.3714C48.1506 60.3687 54.1812 58.0323 60.2117 58.3661C66.2422 58.6998 75.623 60.7025 79.3084 64.3741C82.9937 68.0456 82.9937 69.3806 82.3236 72.7184C81.6536 76.0562 77.9682 79.0602 74.2829 80.3953C71.3347 81.4633 67.2473 81.7303 65.5722 81.7303" stroke="#737373"/>
<g filter="url(#filter3_d_205:490)">
<path d="M35.8375 18.446C35.0822 18.446 21.1097 19.1985 19.5992 19.1985C17.711 19.2633 17.711 20.3272 17.711 21.0796C17.711 21.6816 18.2145 31.8647 18.4663 36.881C18.0886 37.0064 17.2578 37.2572 16.9557 37.2572C16.6536 37.2572 16.3263 37.7588 16.2004 38.0096L16.5781 44.4054L16.9557 44.7817C17.3333 48.6693 18.0886 56.5198 18.0886 56.8208C18.0886 57.197 18.0886 57.9495 18.4663 58.3257C18.8439 58.7019 27.5295 64.3453 28.2848 64.7215C29.0401 65.0977 30.5506 65.0977 31.3059 64.7215C32.0612 64.3453 43.0126 56.4446 43.7679 56.0683C44.5231 55.6921 44.9008 54.9397 44.9008 54.1872C44.9008 53.4348 46.789 38.7621 46.789 37.6334C46.789 36.5047 46.789 36.5047 46.4113 36.1285C46.1092 35.8275 44.5231 35.5015 43.7679 35.3761C44.2714 30.736 45.2784 21.2301 45.2784 20.3272C45.2784 19.1985 44.1455 18.8223 43.7679 18.8223C43.3902 18.8223 38.481 18.446 37.7257 18.446H35.8375Z" fill="white" stroke="#737373"/>
<path d="M19.5994 36.8804L20.3546 37.2566M25.6415 48.9195V48.5433M22.2428 41.0188C22.2428 40.768 22.4694 40.2664 23.3757 40.2664C24.2821 40.2664 25.2639 41.2696 25.6415 41.7713V48.5433M24.5086 41.0188C24.2569 40.8934 23.6778 40.9436 23.3757 42.1475C23.0736 43.3514 23.2498 46.1605 23.3757 47.4146C23.5016 47.7908 23.8289 48.5433 24.131 48.5433C24.5086 48.5433 24.8863 47.7908 25.6415 48.5433" stroke="#737373" stroke-width="0.8"/>
<path d="M16.5781 39.5148L17.3334 38.3862C17.4593 38.2607 17.7866 38.0852 18.0887 38.3862C18.3908 38.6871 18.2145 39.0131 18.0887 39.1385M18.8439 39.5147C18.7181 39.7655 18.4663 40.3424 18.4663 40.6434C18.4663 41.0196 18.8439 41.772 19.2216 41.772M19.5992 39.5147H20.3545L21.4874 39.8909L20.7321 40.2672M21.4874 41.0196C21.1098 41.0196 21.1098 42.1483 21.865 42.9007M17.711 41.772V45.1581M19.2216 42.5245V45.9105H18.4663L17.3334 44.7818M20.3545 42.9007V45.9105M17.711 39.1385C17.5852 39.3893 17.3334 39.9662 17.3334 40.2672C17.3334 40.5681 17.5852 41.145 17.711 41.3958L19.2216 42.1483C19.4733 41.3959 19.8258 39.8159 19.2216 39.5148C18.6174 39.2138 17.9628 39.1385 17.711 39.1385ZM20.3545 40.2672C20.2286 40.518 19.9768 41.0948 19.9768 41.3958C19.9768 41.6968 20.2286 42.2737 20.3545 42.5245L22.2427 43.2769C22.4944 42.3991 22.7714 40.6434 21.865 40.6434C20.9587 40.6434 20.4804 40.3926 20.3545 40.2672Z" stroke="#737373" stroke-width="0.8"/>
<path d="M19.5994 45.9104L21.8652 46.6629V43.2769" stroke="#737373" stroke-width="0.8"/>
<path d="M26.0193 41.772C26.8427 42.1821 28.4517 42.5923 30.1733 42.6978M34.3273 42.1482C33.1248 42.6616 31.6099 42.7858 30.1733 42.6978M30.1733 65.0978V42.6978M40.7471 44.4055L42.6353 45.158M42.6353 45.158V47.0391M42.6353 45.158L41.1247 45.9104M42.6353 47.0391L41.1247 47.6411M42.6353 47.0391V48.544L41.1247 49.2964C40.873 49.4218 40.2939 49.6727 39.9918 49.6727C39.6897 49.6727 38.3554 49.171 37.726 48.9202L38.1036 47.4153L39.2365 47.0391M39.2365 47.0391L40.7471 47.7915L41.1247 47.6411M39.2365 47.0391V45.158M39.6142 45.158L41.1247 45.9104M41.1247 45.9104V47.6411" stroke="#737373" stroke-width="0.8"/>
<path d="M36.5929 26.7231C35.8376 27.4756 35.0824 30.8616 35.0824 31.614C35.0824 32.216 35.0824 33.8714 35.0824 34.6238L41.5022 36.5049L44.1456 35.3763M33.5718 28.6043C34.3271 29.7329 33.9495 34.2476 33.9495 34.6238M33.5718 33.4952L30.9284 33.8714L43.768 37.6336L46.4114 36.5049M46.7891 37.2574L45.2785 38.0098C44.5233 39.6401 42.7861 43.0512 41.8798 43.6532C40.7469 44.4056 38.8587 45.5343 37.3482 45.1581C36.9475 45.0583 36.5635 44.7903 36.2153 44.4446M26.3967 41.7721L30.5507 40.2672L34.7047 42.1483C34.9572 42.7351 35.5133 43.7477 36.2153 44.4446M44.1456 37.6336C43.3904 39.2639 41.5777 42.7502 40.3693 43.6532C38.8587 44.7818 36.5929 44.4836 36.2153 44.4446" stroke="#737373" stroke-width="0.8"/>
<path d="M17.7112 19.5998L25.8748 20.7661M44.1457 18.8223C38.4441 19.3406 26.6412 20.7034 26.0192 20.7034C25.6304 20.7034 25.6415 21.3581 25.6415 21.832C25.6415 22.4541 26.1339 35.6687 26.2635 42.1481" stroke="#737373" stroke-width="0.8"/>
<path d="M30.5505 40.2671C30.5505 38.0098 30.1729 30.8616 33.194 28.6042C36.215 26.3469 37.348 26.7231 39.2361 27.0993C40.7467 27.4003 41.3761 30.4853 41.502 31.9902V36.5049" stroke="#737373" stroke-width="0.8"/>
<path d="M18.844 51.5535V49.6724L22.6204 51.9297V50.801L26.0191 54.9395L22.6204 55.3157V54.187L18.844 51.5535Z" fill="#737373"/>
<path d="M19.9769 35.3757V35.752L19.2216 36.8806V38.3855H18.4663V37.2568" stroke="#737373" stroke-width="0.8"/>
<path d="M21.4876 36.1289L20.3547 37.6338V39.5149M22.6206 36.5051L21.8653 37.6338V39.5149M23.7535 37.2576L23.2485 38.2638M22.9982 40.2674V38.7625L23.2485 38.2638M23.2485 38.2638L22.2429 37.6338" stroke="#737373" stroke-width="0.8"/>
</g>
<defs>
<filter id="filter0_d_205:490" x="8.14014" y="32.7644" width="87.2175" height="165.758" filterUnits="userSpaceOnUse" color-interpolation-filters="sRGB">
<feFlood flood-opacity="0" result="BackgroundImageFix"/>
<feColorMatrix in="SourceAlpha" type="matrix" values="0 0 0 0 0 0 0 0 0 0 0 0 0 0 0 0 0 0 127 0" result="hardAlpha"/>
<feOffset dx="4" dy="4"/>
<feGaussianBlur stdDeviation="8"/>
<feComposite in2="hardAlpha" operator="out"/>
<feColorMatrix type="matrix" values="0 0 0 0 0.533333 0 0 0 0 0.647059 0 0 0 0 0.74902 0 0 0 0.25 0"/>
<feBlend mode="normal" in2="BackgroundImageFix" result="effect1_dropShadow_205:490"/>
<feBlend mode="normal" in="SourceGraphic" in2="effect1_dropShadow_205:490" result="shape"/>
</filter>
<filter id="filter1_d_205:490" x="8.14014" y="32.7644" width="87.2175" height="165.758" filterUnits="userSpaceOnUse" color-interpolation-filters="sRGB">
<feFlood flood-opacity="0" result="BackgroundImageFix"/>
<feColorMatrix in="SourceAlpha" type="matrix" values="0 0 0 0 0 0 0 0 0 0 0 0 0 0 0 0 0 0 127 0" result="hardAlpha"/>
<feOffset dx="4" dy="4"/>
<feGaussianBlur stdDeviation="8"/>
<feComposite in2="hardAlpha" operator="out"/>
<feColorMatrix type="matrix" values="0 0 0 0 0.533333 0 0 0 0 0.647059 0 0 0 0 0.74902 0 0 0 0.25 0"/>
<feBlend mode="normal" in2="BackgroundImageFix" result="effect1_dropShadow_205:490"/>
<feBlend mode="normal" in="SourceGraphic" in2="effect1_dropShadow_205:490" result="shape"/>
</filter>
<filter id="filter2_d_205:490" x="24.605" y="46.5449" width="77.7837" height="56.823" filterUnits="userSpaceOnUse" color-interpolation-filters="sRGB">
<feFlood flood-opacity="0" result="BackgroundImageFix"/>
<feColorMatrix in="SourceAlpha" type="matrix" values="0 0 0 0 0 0 0 0 0 0 0 0 0 0 0 0 0 0 127 0" result="hardAlpha"/>
<feOffset dx="4" dy="4"/>
<feGaussianBlur stdDeviation="8"/>
<feComposite in2="hardAlpha" operator="out"/>
<feColorMatrix type="matrix" values="0 0 0 0 0.533333 0 0 0 0 0.647059 0 0 0 0 0.74902 0 0 0 0.25 0"/>
<feBlend mode="normal" in2="BackgroundImageFix" result="effect1_dropShadow_205:490"/>
<feBlend mode="normal" in="SourceGraphic" in2="effect1_dropShadow_205:490" result="shape"/>
</filter>
<filter id="filter3_d_205:490" x="3.69336" y="5.94604" width="63.5957" height="79.5576" filterUnits="userSpaceOnUse" color-interpolation-filters="sRGB">
<feFlood flood-opacity="0" result="BackgroundImageFix"/>
<feColorMatrix in="SourceAlpha" type="matrix" values="0 0 0 0 0 0 0 0 0 0 0 0 0 0 0 0 0 0 127 0" result="hardAlpha"/>
<feOffset dx="4" dy="4"/>
<feGaussianBlur stdDeviation="8"/>
<feComposite in2="hardAlpha" operator="out"/>
<feColorMatrix type="matrix" values="0 0 0 0 0.533333 0 0 0 0 0.647059 0 0 0 0 0.74902 0 0 0 0.25 0"/>
<feBlend mode="normal" in2="BackgroundImageFix" result="effect1_dropShadow_205:490"/>
<feBlend mode="normal" in="SourceGraphic" in2="effect1_dropShadow_205:490" result="shape"/>
</filter>
</defs>
</svg>
