<svg width="101" height="77" viewBox="0 0 101 77" fill="none" xmlns="http://www.w3.org/2000/svg">
<g filter="url(#filter0_d_133:21)">
<path d="M47.3816 13.2926C46.6763 13.7586 26.1257 20.2832 15.9386 23.4872L14.7632 23.7784C14.0579 23.7784 13.2939 25.2348 13 26.1086C13 29.8952 13.0588 38.0508 13.2939 40.381C13.5289 42.7112 13.9795 43.2938 14.1754 43.2938C21.5219 46.692 36.6851 53.7214 38.5658 54.6535C40.4465 55.5856 43.7573 55.9157 45.0307 55.8186C57.9605 52.3233 75.8272 46.1483 76.7675 45.9153C77.943 45.624 79.7061 43.5851 79.7061 43.0025C79.7061 42.42 80.2939 35.7207 79.7061 31.6428C79.1184 27.565 75.2982 22.9046 74.4167 22.6133C73.5351 22.322 54.7281 13.2926 54.4342 13.2926C54.1403 13.2926 48.2632 12.7101 47.3816 13.2926Z" fill="white"/>
<path d="M46.299 46.1777C46.299 46.1777 46.2153 47.8006 45.3501 48.1664" stroke="#737373" stroke-miterlimit="1.5" stroke-linecap="round" stroke-linejoin="round"/>
<path d="M43.1907 47.2202L52.3352 51.6298" stroke="#737373" stroke-miterlimit="1.5" stroke-linecap="round" stroke-linejoin="round"/>
<path d="M43.1907 44.6287L53.8844 49.4705" stroke="#737373" stroke-miterlimit="1.5" stroke-linecap="round" stroke-linejoin="round"/>
<path d="M46.5579 41.6714V46.1674" stroke="#737373" stroke-miterlimit="1.5" stroke-linecap="round" stroke-linejoin="round"/>
<path fill-rule="evenodd" clip-rule="evenodd" d="M45.0034 42.0307L52.8532 39.8691C52.8532 39.8691 53.8736 39.8859 54.0608 41.1661C54.248 42.4462 54.0608 49.4664 54.0608 49.4664C54.0608 49.4664 54.0781 50.9207 52.8532 51.4551C51.6283 51.9894 45.521 53.876 45.521 53.876C45.521 53.876 43.1342 54.5444 43.192 52.752C43.2497 50.9596 43.192 46.1586 43.192 44.3652C43.192 43.3793 43.9045 42.4392 45.0034 42.0307Z" stroke="#737373" stroke-miterlimit="1.5" stroke-linecap="round" stroke-linejoin="round"/>
<path d="M58.4737 42.4597C58.4737 42.4597 58.4763 44.0826 57.6111 44.4483" stroke="#737373" stroke-miterlimit="1.5" stroke-linecap="round" stroke-linejoin="round"/>
<path d="M55.3662 43.5024L64.5107 47.912" stroke="#737373" stroke-miterlimit="1.5" stroke-linecap="round" stroke-linejoin="round"/>
<path d="M55.3662 40.9109L66.06 45.6663" stroke="#737373" stroke-miterlimit="1.5" stroke-linecap="round" stroke-linejoin="round"/>
<path d="M58.7334 37.9536V42.4496" stroke="#737373" stroke-miterlimit="1.5" stroke-linecap="round" stroke-linejoin="round"/>
<path fill-rule="evenodd" clip-rule="evenodd" d="M57.1787 38.3127L65.0285 36.1511C65.0285 36.1511 66.0489 36.1679 66.2361 37.4481C66.4233 38.7282 66.2361 45.7484 66.2361 45.7484C66.2361 45.7484 66.2534 47.2027 65.0285 47.7371C63.8036 48.2714 57.6963 50.158 57.6963 50.158C57.6963 50.158 55.3094 50.8263 55.3672 49.034C55.425 47.2416 55.3672 42.4406 55.3672 40.6472C55.3672 39.6613 56.0798 38.7212 57.1787 38.3127Z" stroke="#737373" stroke-miterlimit="1.5" stroke-linecap="round" stroke-linejoin="round"/>
<path d="M70.4401 38.7991C70.4401 38.7991 70.0976 40.422 69.2324 40.7877" stroke="#737373" stroke-miterlimit="1.5" stroke-linecap="round" stroke-linejoin="round"/>
<path d="M67.6841 40.2915L75.966 44.0958" stroke="#737373" stroke-miterlimit="1.5" stroke-linecap="round" stroke-linejoin="round"/>
<path d="M67.7693 37.7002L78.2905 42.6285" stroke="#737373" stroke-miterlimit="1.5" stroke-linecap="round" stroke-linejoin="round"/>
<path d="M70.6248 34.1516V38.6476" stroke="#737373" stroke-miterlimit="1.5" stroke-linecap="round" stroke-linejoin="round"/>
<path fill-rule="evenodd" clip-rule="evenodd" d="M69.4111 34.2292L77.2609 32.0676C77.2609 32.0676 78.2814 32.0844 78.4685 33.3646C78.6557 34.6447 78.4685 41.6649 78.4685 41.6649C78.4685 41.6649 78.4858 43.1192 77.2609 43.6536C76.036 44.1879 69.9287 46.0745 69.9287 46.0745C69.9287 46.0745 67.5419 46.7428 67.5997 44.9505C67.6575 43.1581 67.5997 38.3571 67.5997 36.5637C67.5997 35.5778 68.3122 34.6377 69.4111 34.2292Z" stroke="#737373" stroke-miterlimit="1.5" stroke-linecap="round" stroke-linejoin="round"/>
<path fill-rule="evenodd" clip-rule="evenodd" d="M13.0007 42.1076C13.0029 42.0609 13.0007 26.1121 13.0007 26.1121C13.0007 26.1121 12.9898 24.1572 15.6748 23.3453C19.31 22.2464 47.5051 13.3157 47.5051 13.3157C47.5051 13.3157 52.9689 12.6053 54.751 13.3157C56.5332 14.0264 73.0056 21.6688 73.9872 22.2213C75.458 23.0488 78.2459 25.41 79.5079 30.3488C80.3153 34.5128 79.8961 40.5513 79.853 43.1452C79.8211 45.0715 77.1013 45.5782 75.1086 46.4307C70.5877 48.3658 47.7234 55.3026 44.486 55.9416C43.0773 56.1534 40.1384 55.6251 36.9813 54.1259C33.0892 52.2773 16.3936 44.7594 14.8985 43.9233C14.2646 43.5688 12.9646 42.8987 13.0007 42.1076Z" stroke="#737373" stroke-miterlimit="1.5" stroke-linecap="round" stroke-linejoin="round"/>
<path d="M15.7563 23.6182C15.7563 23.6182 37.068 33.6889 37.8392 34.253C38.6103 34.8171 42.2342 40.5259 42.6698 42.8992C43.1054 45.2725 42.6698 56 42.6698 56" stroke="#737373" stroke-miterlimit="1.5" stroke-linecap="round" stroke-linejoin="round"/>
<path fill-rule="evenodd" clip-rule="evenodd" d="M24.7354 26.4555L40.0035 33.9777C40.0035 33.9777 43.0874 35.6718 45.0929 35.4476C47.0985 35.2234 50.1892 34.405 50.7862 33.9777C51.3831 33.5504 53.7406 33.2395 52.5976 32.0756C51.4547 30.9116 34.3103 23.0835 34.3103 23.0835L24.7354 26.4555Z" stroke="#737373" stroke-miterlimit="1.5" stroke-linecap="round" stroke-linejoin="round"/>
<path d="M38.9709 35.4725C38.9709 35.4725 41.9711 36.8917 44.1544 37.0084C46.3359 37.125 46.9026 36.7763 49.581 36.1438C52.2594 35.5112 53.7078 34.3484 53.3731 33.8093C53.0392 33.2702 52.909 32.7717 52.909 32.7717" stroke="#737373" stroke-miterlimit="1.5" stroke-linecap="round" stroke-linejoin="round"/>
<path d="M40.0081 37.0272C40.0081 37.0272 42.7486 38.2875 45.0975 37.9559C47.4463 37.6244 50.3576 37.0941 51.8258 36.1402C53.294 35.1864 53.3776 34.4907 53.4225 34.1516" stroke="#737373" stroke-miterlimit="1.5" stroke-linecap="round" stroke-linejoin="round"/>
<path d="M31.8958 29.9214L41.3845 26.4629" stroke="#737373" stroke-miterlimit="1.5" stroke-linecap="round" stroke-linejoin="round"/>
<path d="M25.5168 26.3609L30.6925 28.7818C30.6925 28.7818 32.5704 29.0061 33.3666 28.7818C37.2388 27.6917 39.2729 26.2787 37.9384 25.4962C37.0594 24.9808 33.3666 23.4211 33.3666 23.4211" stroke="#737373" stroke-miterlimit="1.5" stroke-linecap="round" stroke-linejoin="round"/>
<path d="M36.9534 22.7256L42.129 25.1465C42.129 25.1465 44.0069 25.3708 44.8031 25.1465C48.6754 24.0564 50.7094 22.6434 49.3749 21.8609C48.4959 21.3455 45.2344 19.8723 45.2344 19.8723" stroke="#737373" stroke-miterlimit="1.5" stroke-linecap="round" stroke-linejoin="round"/>
<path d="M49.1292 18.9275L54.3048 21.3485C54.3048 21.3485 56.1827 21.5728 56.9789 21.3485C60.8512 20.2584 62.8852 18.8454 61.5507 18.0629C60.6717 17.5475 56.9789 15.9014 56.9789 15.9014" stroke="#737373" stroke-miterlimit="1.5" stroke-linecap="round" stroke-linejoin="round"/>
<path fill-rule="evenodd" clip-rule="evenodd" d="M36.03 22.9062L51.2982 30.4284C51.2982 30.4284 54.382 32.1225 56.3876 31.8983C58.3932 31.6741 61.4839 30.8557 62.0808 30.4284C62.6778 30.0011 65.0353 29.6902 63.8923 28.5262C62.7494 27.3623 45.605 19.5342 45.605 19.5342L36.03 22.9062Z" stroke="#737373" stroke-miterlimit="1.5" stroke-linecap="round" stroke-linejoin="round"/>
<path d="M52.9224 32.9472C53.7479 33.2028 54.6484 33.4172 55.442 33.4595C57.6236 33.5762 58.1903 33.2275 60.8687 32.5949C63.5471 31.9624 64.9954 30.7995 64.6608 30.2604C64.3269 29.7214 64.1967 29.2229 64.1967 29.2229" stroke="#737373" stroke-miterlimit="1.5" stroke-linecap="round" stroke-linejoin="round"/>
<path d="M53.4482 33.9976C53.4482 33.9976 54.0322 34.7392 56.3811 34.4076C58.73 34.076 61.6413 33.5458 63.1095 32.5919C64.5776 31.6381 64.6613 30.9424 64.7062 30.6033" stroke="#737373" stroke-miterlimit="1.5" stroke-linecap="round" stroke-linejoin="round"/>
<path d="M43.1907 26.3725L52.6794 22.9141" stroke="#737373" stroke-miterlimit="1.5" stroke-linecap="round" stroke-linejoin="round"/>
<path fill-rule="evenodd" clip-rule="evenodd" d="M48.0493 19.1042L63.3175 26.6264C63.3175 26.6264 66.4013 28.3205 68.4069 28.0963C70.4125 27.8721 73.5032 27.0537 74.1001 26.6264C74.6971 26.1991 77.0546 25.8882 75.9116 24.7242C74.7686 23.5603 57.6243 15.7322 57.6243 15.7322L48.0493 19.1042Z" stroke="#737373" stroke-miterlimit="1.5" stroke-linecap="round" stroke-linejoin="round"/>
<path d="M64.2603 29.1447C65.0858 29.4003 66.6764 29.6147 67.47 29.6571C69.6516 29.7737 70.2183 29.425 72.8967 28.7924C75.5751 28.1599 77.0234 26.997 76.6887 26.458C76.3549 25.9189 76.2246 25.4204 76.2246 25.4204" stroke="#737373" stroke-miterlimit="1.5" stroke-linecap="round" stroke-linejoin="round"/>
<path d="M64.6155 29.5037C64.6155 29.5037 66.0621 30.9369 68.411 30.6054C70.7598 30.2738 73.6712 29.7435 75.1393 28.7897C76.6075 27.8358 76.6912 27.1401 76.736 26.801" stroke="#737373" stroke-miterlimit="1.5" stroke-linecap="round" stroke-linejoin="round"/>
<path d="M55.21 22.5705L64.6987 19.1121" stroke="#737373" stroke-miterlimit="1.5" stroke-linecap="round" stroke-linejoin="round"/>
<path d="M48.021 19.1963V20.7526" stroke="#737373" stroke-miterlimit="1.5" stroke-linecap="round" stroke-linejoin="round"/>
<path d="M36.1152 22.9141V23.7787" stroke="#737373" stroke-miterlimit="1.5" stroke-linecap="round" stroke-linejoin="round"/>
<path d="M19.8196 25.4307L55.4454 13.8447" stroke="#737373" stroke-miterlimit="1.5" stroke-linecap="round" stroke-linejoin="round"/>
<path d="M21.5244 26.1628L57.1502 14.5769" stroke="#737373" stroke-miterlimit="1.5" stroke-linecap="round" stroke-linejoin="round"/>
</g>
<defs>
<filter id="filter0_d_133:21" x="0.5" y="0.5" width="100" height="76" filterUnits="userSpaceOnUse" color-interpolation-filters="sRGB">
<feFlood flood-opacity="0" result="BackgroundImageFix"/>
<feColorMatrix in="SourceAlpha" type="matrix" values="0 0 0 0 0 0 0 0 0 0 0 0 0 0 0 0 0 0 127 0" result="hardAlpha"/>
<feOffset dx="4" dy="4"/>
<feGaussianBlur stdDeviation="8"/>
<feComposite in2="hardAlpha" operator="out"/>
<feColorMatrix type="matrix" values="0 0 0 0 0.533333 0 0 0 0 0.647059 0 0 0 0 0.74902 0 0 0 0.25 0"/>
<feBlend mode="normal" in2="BackgroundImageFix" result="effect1_dropShadow_133:21"/>
<feBlend mode="normal" in="SourceGraphic" in2="effect1_dropShadow_133:21" result="shape"/>
</filter>
</defs>
</svg>
