<svg width="138" height="66" viewBox="0 0 138 66" xmlns="http://www.w3.org/2000/svg"><title>Group 49</title><g fill="none" fill-rule="evenodd"><g stroke="#747474"><g><g transform="translate(1 1)"><ellipse cx="67.64" cy="31.745" rx="62.963" ry="22.408"/><ellipse cx="67.91" cy="27.077" rx="66.471" ry="27.077"/><path d="M131.406 30.472c.727-7.844-3.098-13.145-13.363-17.963-11.51-5.403-32.022-9.115-50.403-9.115-20.112 0-40.84 4.377-52.368 10.69C6.87 18.687 4.677 24.167 4.677 30.472c0 3.15 1.382 5.94 3.682 8.753"/><path d="M128.002 38.14c4.243-3.49 3.6-7.413 3.332-8.676-1.146-5.415-4.966-10.162-13.29-14.07-11.512-5.4-32.023-9.113-50.404-9.113-20.112 0-40.84 4.378-52.368 10.69C6.87 21.574 4.795 26.444 4.795 32.75"/><path d="M1.508 28.478c0 .39-.046 3.875 0 4.26C3.096 46.17 32.058 56.87 67.55 56.87c36.512 0 66.11-11.325 66.11-25.294"/><path d="M1.44 33.782c0 13.97 29.598 25.295 66.11 25.295s66.11-11.325 66.11-25.295"/><path d="M1.483 34.685c0 .312-.03 2.606 0 2.916 1.282 13.54 30.37 24.363 66.067 24.363 35.21 0 64.47-11.083 66.478-24.362.075-.49 0-4.565 0-5.063"/><path d="M1.764 33.443c-2.515 4.146-4.73 19.172 11.268 30.54l3.275-1.257s-7.114-7.09-9.29-10.55c-2.176-3.464-5.01-8.61-4.46-10.874M133.843 31.84c3.584 4.69 4.138 20.775-11.393 32.142l-3.18-1.256s6.906-7.09 9.02-10.55c2.11-3.464 5.385-9.647 4.853-11.91"/></g></g></g></g></svg>