<svg xmlns="http://www.w3.org/2000/svg" width="40" height="186" viewBox="0 0 40 186"><g fill="none" fill-rule="evenodd" stroke="#747474" transform="translate(-1 1)"><path d="M14.165 31.165c-.398 1.748-.054 4.122 1.078 6.443 1.344 2.755 3.433 4.682 5.32 5.14"/><path d="M13.994 31.138c-.037.12-.07.244-.098.37-.398 1.75-.055 4.123 1.077 6.444 1.344 2.756 3.433 4.682 5.32 5.14.084.02.168.038.252.053"/><path d="M13.398 30.942c-.06.17-.11.348-.15.534-.4 1.748-.056 4.122 1.076 6.443 1.344 2.755 3.433 4.68 5.32 5.14.306.073.606.11.897.103"/><path d="M13.254 30.856c-.132.285-.236.598-.312.935-.398 1.75-.055 4.124 1.077 6.444 1.343 2.756 3.432 4.683 5.32 5.14.382.094.758.126 1.117.092"/><path d="M12.86 30.752c-.157.323-.277.686-.36 1.08-.378 1.79 0 4.233 1.168 6.63 1.388 2.846 3.515 4.85 5.42 5.346.42.11.83.145 1.22.1"/><path d="M12.602 30.702c-.257.407-.444.895-.56 1.445-.378 1.79-.002 4.232 1.167 6.63 1.388 2.846 3.515 4.85 5.42 5.345.568.148 1.116.16 1.62.022"/><path d="M12.228 30.68c-.217.39-.374.85-.473 1.36-.353 1.84.062 4.363 1.276 6.85 1.442 2.955 3.615 5.053 5.54 5.592.492.137.967.173 1.41.095"/><path d="M12.035 30.657c-.272.426-.465.947-.58 1.54-.352 1.838.063 4.36 1.277 6.848 1.44 2.955 3.614 5.053 5.54 5.592.603.168 1.183.184 1.708.024"/><path d="M11.75 30.69c-.384.47-.648 1.095-.79 1.83-.353 1.838.063 4.36 1.276 6.85 1.44 2.954 3.614 5.052 5.54 5.59.745.208 1.453.183 2.068-.117"/><path d="M11.498 30.654c-.397.474-.668 1.11-.812 1.858-.354 1.84.062 4.36 1.275 6.85 1.442 2.954 3.615 5.052 5.54 5.59.746.21 1.455.183 2.07-.116"/><path d="M11.194 30.64c-.398.475-.67 1.11-.814 1.86-.354 1.84.062 4.363 1.275 6.85 1.44 2.955 3.614 5.054 5.54 5.592.745.208 1.453.183 2.068-.117.422-.206.77-.526 1.04-.937"/><path d="M14.643 1.568c11.063 3.368 9.318 2.875 14.065 4.358 4.746 1.482 10.615 7.736 10.615 15.47V172.54c0 4.234.765 12.934-10.615 11.072-6.686-1.59-14.006-4.128-17.87-5.33-4.747-2.716-8.86-6.746-8.42-14.31V13.737C1.42 9.553 3.58-1.8 14.642 1.568z"/><path d="M19.55 173.592c1.287 0 3.17.372 3.85-2.408V157.98c0-2.767-1.587-5.488-4.672-6.208-1.246-.29-2.604.736-3.256 1.968v14.805c0 1.535 2.287 5.047 4.077 5.047z"/><path d="M19.55 173.593c1.287 0 3.17.363 3.85-2.36v-12.928c0-2.71-1.587-5.375-4.672-6.08-1.246-.285-2.604.72-3.256 1.927V168.65c0 1.503 2.287 4.943 4.077 4.943z"/><path d="M20.28 172.237c1.096 0 2.696.333 3.272-2.157v-11.823c0-2.48-1.347-4.915-3.968-5.56-1.058-.26-2.212.66-2.765 1.763v13.258c0 1.374 1.94 4.52 3.46 4.52z"/><path d="M20.644 171.69c.87 0 2.143.322 2.602-2.097V158.1c0-2.41-1.072-4.777-3.156-5.404-.842-.253-1.76.64-2.2 1.713v12.886c0 1.336 1.545 4.393 2.754 4.393z"/><path d="M20.426 171.69c.995 0 2.45.322 2.973-2.097V158.1c0-2.41-1.226-4.777-3.608-5.404-.962-.253-2.01.64-2.514 1.713v12.886c0 1.336 1.766 4.393 3.148 4.393z"/><ellipse cx="13.829" cy="38.88" rx="6.121" ry="8.89" transform="rotate(-31 13.829 38.88)"/><path d="M18.83 47.167c3.477-2.09 4.16-7.457 1.27-12.267s-8.05-7.015-11.528-4.926c-3.478 2.09-3.954 7.683-1.064 12.493 2.89 4.81 7.844 6.79 11.322 4.7z"/><path d="M19.027 47.5c3.61-2.17 4.322-7.745 1.32-12.74-3-4.996-8.363-7.287-11.974-5.117-3.612 2.17-4.107 7.98-1.105 12.975 3.002 4.996 8.147 7.05 11.76 4.88z"/><path d="M19.29 47.946c3.793-2.278 4.54-8.13 1.388-13.376-3.152-5.246-8.78-7.65-12.573-5.372-3.792 2.28-4.31 8.378-1.16 13.623 3.152 5.246 8.554 7.405 12.346 5.126z"/><path d="M19.52 48.047c3.93-2.363 4.747-8.36 1.536-13.704-3.21-5.344-9.002-7.76-12.933-5.398-3.932 2.362-4.516 8.61-1.305 13.953 3.21 5.344 8.77 7.51 12.7 5.15z"/><path d="M19.83 48.577c3.933-2.363 4.682-8.472 1.382-13.965-3.3-5.492-9.163-8.03-13.095-5.667-3.932 2.362-4.444 8.73-1.143 14.222 3.3 5.493 8.925 7.772 12.857 5.41z"/><path d="M20.177 48.92c3.93-2.362 4.846-7.958 1.362-13.755-3.484-5.798-9.495-8.583-13.427-6.22C4.18 31.307 3.818 37.922 7.3 43.72c3.485 5.798 8.945 7.563 12.877 5.2z"/><path d="M20.49 48.12c4.21-2.53 5.143-8.85 1.784-14.44-3.358-5.59-9.493-8.072-13.702-5.543-4.21 2.53-4.898 9.11-1.54 14.7 3.36 5.59 9.25 7.81 13.46 5.282z"/><path d="M20.338 47.484c4.21-2.53 5.142-8.85 1.783-14.44-3.358-5.59-9.492-8.072-13.7-5.543-4.21 2.53-4.9 9.112-1.54 14.702 3.36 5.59 9.25 7.81 13.458 5.282z"/><path d="M26.5 45.77c.127-.15.728-.317.846-.475 2.783-3.72 3.004-9.414-.032-14.467-2.963-4.93-7.996-7.642-12.535-7.205l-.645.193"/><path d="M26.154 46.032c.09-.106.54-.332.626-.442 2.882-3.716 3.147-9.488.073-14.604-2.963-4.932-7.996-7.642-12.535-7.205l-.38.19"/><path d="M25.832 46.246c.062-.073.502-.32.562-.395 2.956-3.712 3.254-9.542.152-14.705-2.963-4.93-7.995-7.64-12.534-7.204l-.562.323"/><path d="M23.98 47.065c.065-.078 1.19-.4 1.252-.48 2.946-3.712 3.34-9.64.243-14.797-2.963-4.93-7.996-7.642-12.535-7.205l-.75.524"/><path d="M25.233 46.6c.07-.083.638-.35.705-.433 2.947-3.7 3.558-9.234.464-14.384-2.963-4.932-8.36-7.942-12.898-7.505-.312.133-.513.29-.513.29"/><path d="M25.358 46.37c.33-.39.632-.803.904-1.234 2.31-3.65 2.508-8.648-.323-13.36-2.964-4.93-8.347-7.69-12.886-7.253"/><path d="M23.975 47.052c.154-.18.865-.622 1.006-.812 2.737-3.692 3.048-9.132.04-14.14-2.964-4.932-7.997-7.642-12.536-7.205l-.742.53"/><path d="M23.023 47.52c.093-.11.902-.397.99-.512 2.887-3.697 3.312-9.163.242-14.273-2.963-4.93-7.778-7.838-12.317-7.4l-.627.373"/><path d="M22.89 47.595c.05-.062.57-.323.622-.386 2.99-3.7 3.547-9.297.435-14.476-2.963-4.93-7.923-7.542-12.462-7.105l-.773.422"/><path d="M22.35 47.86l.564-.268c3.126-3.7 3.587-9.116.422-14.383-2.962-4.932-7.995-7.642-12.534-7.205l-.826.556"/><path d="M20.513 48.724l1.546-.694.487-.275c3.126-3.7 3.648-9.104.483-14.37-2.963-4.932-7.83-7.587-12.368-7.15l-1.097.603"/><ellipse cx="13.971" cy="38.675" rx="5.767" ry="8.573" transform="rotate(-31 13.97 38.675)"/><ellipse cx="14.126" cy="38.578" rx="5.586" ry="8.573" transform="rotate(-31 14.126 38.578)"/><path d="M9.96 31.074C7.453 32.58 7.398 37.09 9.837 41.15c2.438 4.058 6.447 6.127 8.954 4.62 2.507-1.505 2.562-6.016.124-10.075"/><path d="M10.107 30.983c-2.426 1.458-2.416 5.93.023 9.988 2.438 4.06 6.382 6.167 8.807 4.71 2.426-1.458 2.416-5.93-.023-9.988"/><path d="M10.3 30.862c-2.317 1.393-2.22 5.812.22 9.87 2.437 4.06 6.293 6.22 8.612 4.826 2.318-1.393 2.22-5.812-.218-9.87"/><path d="M10.433 30.78c-2.246 1.35-2.09 5.733.35 9.79 2.437 4.06 6.235 6.256 8.48 4.907 2.246-1.35 2.09-5.734-.35-9.792"/><path d="M10.35 30.752c-2.115 1.27-1.853 5.59.586 9.65 2.438 4.058 6.13 6.317 8.245 5.047"/><path d="M10.443 30.983c-1.606 1.502-1.166 5.485 1.112 9.277 2.44 4.058 6.06 6.36 8.088 5.14"/><path d="M10.62 30.877c-1.47 1.418-.922 5.337 1.356 9.13 2.44 4.057 5.937 6.433 7.813 5.306"/><path d="M11.927 30.684c-.158.003-.314.013-.468.03-.637.07-1.242.267-1.793.598C6.77 33.052 6.47 37.877 9 42.085c1.804 3.005 4.563 4.884 7.048 5.08"/><path d="M11.878 4.162c4.22 1.212 14.698 4.106 17.215 5.374 2.517 1.268 6.656 5.492 6.656 11.513v154.184c0 1.626-.812 8.59-8.403 6.705-5.85-1.546-13.813-4.13-17.195-5.297-4.153-2.64-7.75-6.556-7.368-13.905V10.66c0-2.82 1.885-9.29 9.094-6.498z"/><path d="M14.337.777C25.4 4.16 23.655 3.665 28.4 5.153c4.748 1.49 11.535 7.77 11.535 15.537v151.8c0 4.253-.153 12.99-11.534 11.12-6.685-1.596-14.004-4.145-17.87-5.35-4.745-2.73-8.858-6.778-8.42-14.375V13C1.5 5.952 3.275-2.606 14.338.776z"/><g transform="translate(2.047 14.13)"><ellipse cx="4.132" cy="4.445" rx="2.449" ry="3.493" transform="rotate(-39 4.132 4.445)"/><ellipse cx="4.132" cy="4.604" rx="2.449" ry="3.016" transform="rotate(-39 4.132 4.604)"/><ellipse cx="4.827" cy="4.154" rx="1.577" ry="2.331" transform="rotate(-39 4.827 4.154)"/><ellipse cx="4.932" cy="4.289" rx="1.577" ry="2.158" transform="rotate(-39 4.932 4.29)"/><ellipse cx="5.303" cy="4.099" rx="1.174" ry="1.746" transform="rotate(-39 5.303 4.099)"/></g><g transform="translate(28.522 22.067)"><ellipse cx="4.132" cy="4.445" rx="2.449" ry="3.493" transform="rotate(-39 4.132 4.445)"/><ellipse cx="4.132" cy="4.604" rx="2.449" ry="3.016" transform="rotate(-39 4.132 4.604)"/><ellipse cx="4.827" cy="4.154" rx="1.577" ry="2.331" transform="rotate(-39 4.827 4.154)"/><ellipse cx="4.932" cy="4.289" rx="1.577" ry="2.158" transform="rotate(-39 4.932 4.29)"/><ellipse cx="5.303" cy="4.099" rx="1.174" ry="1.746" transform="rotate(-39 5.303 4.099)"/></g><g transform="translate(28.522 77.632)"><ellipse cx="4.132" cy="4.445" rx="2.449" ry="3.493" transform="rotate(-39 4.132 4.445)"/><ellipse cx="4.132" cy="4.604" rx="2.449" ry="3.016" transform="rotate(-39 4.132 4.604)"/><ellipse cx="4.827" cy="4.154" rx="1.577" ry="2.331" transform="rotate(-39 4.827 4.154)"/><ellipse cx="4.932" cy="4.289" rx="1.577" ry="2.158" transform="rotate(-39 4.932 4.29)"/><ellipse cx="5.303" cy="4.099" rx="1.174" ry="1.746" transform="rotate(-39 5.303 4.099)"/></g><g transform="translate(2.2 69.536)"><ellipse cx="4.132" cy="4.445" rx="2.449" ry="3.493" transform="rotate(-39 4.132 4.445)"/><ellipse cx="4.132" cy="4.604" rx="2.449" ry="3.016" transform="rotate(-39 4.132 4.604)"/><ellipse cx="4.827" cy="4.154" rx="1.577" ry="2.331" transform="rotate(-39 4.827 4.154)"/><ellipse cx="4.932" cy="4.289" rx="1.577" ry="2.158" transform="rotate(-39 4.932 4.29)"/><ellipse cx="5.303" cy="4.099" rx="1.174" ry="1.746" transform="rotate(-39 5.303 4.099)"/></g></g></svg>