<svg width="101" height="183" viewBox="0 0 101 183" fill="none" xmlns="http://www.w3.org/2000/svg">
<g filter="url(#filter0_d)">
<path d="M13 159.282V17.572L14.7252 14.7686L18.8226 13.906C34.7089 13.906 68.6107 12.7665 71.0101 13.0434C76.617 13.6903 78.9892 16.0625 80.0674 18.8659V85.2864V159.039L75.1075 160.764C62.384 160.549 33.0987 161.325 29.8208 161.842C26.5429 162.36 16.4504 161.627 13 159.282Z" fill="white"/>
<path d="M15.0319 84.9531C15.0319 84.9531 15.0347 85.9206 15.0319 85.9493C15.7033 86.2594 16.4126 86.5773 17.1726 86.7128C18.9932 87.0379 22.2379 87.5025 24.9819 87.4334C27.7999 87.3624 73.0428 86.4835 73.0428 86.4835C73.0428 86.4835 79.0961 86.2946 79.9687 85.1447" stroke="#737373" stroke-miterlimit="1.5" stroke-linecap="round" stroke-linejoin="round"/>
<path d="M16.0433 119.413C16.5412 119.904 18.9691 120.026 21.0954 119.931" stroke="#737373" stroke-miterlimit="1.5" stroke-linecap="round" stroke-linejoin="round"/>
<path d="M77.5913 119.406C78.5986 119.438 79.6291 119.457 80.0231 118.751" stroke="#737373" stroke-miterlimit="1.5" stroke-linecap="round" stroke-linejoin="round"/>
<path d="M77.5913 121.925C78.5986 121.957 79.6291 121.977 80.0231 121.271" stroke="#737373" stroke-miterlimit="1.5" stroke-linecap="round" stroke-linejoin="round"/>
<path d="M77.5913 124.646C78.5986 124.678 79.6291 124.698 80.0231 123.992" stroke="#737373" stroke-miterlimit="1.5" stroke-linecap="round" stroke-linejoin="round"/>
<path d="M77.5913 127.386C78.5986 127.418 79.6291 127.438 80.0231 126.732" stroke="#737373" stroke-miterlimit="1.5" stroke-linecap="round" stroke-linejoin="round"/>
<path d="M16.0433 122.172C16.5412 122.662 18.9691 122.784 21.0954 122.689" stroke="#737373" stroke-miterlimit="1.5" stroke-linecap="round" stroke-linejoin="round"/>
<path d="M16.0433 124.911C16.5412 125.402 18.9691 125.524 21.0954 125.429" stroke="#737373" stroke-miterlimit="1.5" stroke-linecap="round" stroke-linejoin="round"/>
<path d="M16.0433 128.019C16.5412 128.51 18.9691 128.632 21.0954 128.537" stroke="#737373" stroke-miterlimit="1.5" stroke-linecap="round" stroke-linejoin="round"/>
<path d="M15.6019 85.728C16.0211 85.8831 16.7537 86.0974 17.1703 86.1717C18.9909 86.4968 22.2356 86.9613 24.9796 86.8923C27.7976 86.8212 73.0405 85.9424 73.0405 85.9424C73.0405 85.9424 79.0938 85.7534 79.9664 84.6035" stroke="#737373" stroke-miterlimit="1.5" stroke-linecap="round" stroke-linejoin="round"/>
<path d="M13 18.7708C13 18.7708 13.6356 19.5744 13.9939 19.7608C14.3456 19.9431 14.4298 19.9983 15.0117 20.2417" stroke="#737373" stroke-miterlimit="1.5" stroke-linecap="round" stroke-linejoin="round"/>
<path d="M79.6529 17.4725C79.6789 17.0446 77.9366 15.0087 74.558 13.9292C72.1041 13.1455 69.8991 13.0435 69.8991 13.0435C69.8991 13.0435 28.7989 13.8648 20.031 14.0615C18.9807 14.085 17.5693 14.1656 16.5749 14.4483C15.6679 14.7062 13.9567 15.3311 13.8625 15.9253" stroke="#737373" stroke-width="1.5" stroke-miterlimit="1.5" stroke-linecap="round" stroke-linejoin="round"/>
<path d="M79.6613 17.9039C79.5915 19.0729 74.7288 19.201 72.7441 19.3312C72.7441 19.3312 26.3192 20.5677 25.1652 20.5748C24.4241 20.5793 22.7527 20.4353 20.8402 20.1471C19.3882 19.9282 17.0552 19.1026 15.9274 18.4176C15.1029 17.9169 13.7432 17.1629 13.8709 16.3567" stroke="#737373" stroke-miterlimit="1.5" stroke-linecap="round" stroke-linejoin="round"/>
<path d="M13.1473 17.6489C13.4714 18.2774 14.2828 18.893 14.9071 19.2722C15.3299 19.5289 15.9185 19.8259 16.5676 20.1101C17.6862 20.5997 18.9843 21.0512 19.9222 21.1925C21.8745 21.4868 23.5808 21.6338 24.3372 21.6292C25.5153 21.6219 72.9071 20.3597 72.9071 20.3597C74.7466 20.2391 79.0068 19.9924 79.8303 19.0552" stroke="#737373" stroke-miterlimit="1.5" stroke-linecap="round" stroke-linejoin="round"/>
<path d="M79.9632 159.059C79.9632 159.059 80.0603 42.5713 79.9684 19.0367C79.9639 18.9274 79.6361 17.7878 79.6361 17.7878" stroke="#737373" stroke-width="1.5" stroke-miterlimit="1.5" stroke-linecap="round" stroke-linejoin="round"/>
<path d="M13.6085 16.4907L13 17.933V159.033C13 159.033 13.8336 160.118 15.4733 160.711C17.1129 161.304 18.9207 161.573 21.1172 161.737C23.3136 161.902 27.3725 161.888 27.3725 161.888L73.0725 160.697C73.0725 160.697 78.5619 160.548 79.9582 159.033" stroke="#737373" stroke-width="1.5" stroke-miterlimit="1.5" stroke-linecap="round" stroke-linejoin="round"/>
<path d="M15.0504 20.2793V85.2827" stroke="#737373" stroke-miterlimit="1.5" stroke-linecap="round" stroke-linejoin="round"/>
<path d="M15.5929 19.8367V85.6088" stroke="#737373" stroke-miterlimit="1.5" stroke-linecap="round" stroke-linejoin="round"/>
<path d="M15.0935 120.155C15.3965 120.155 15.6422 119.783 15.6422 119.324C15.6422 118.865 15.3965 118.493 15.0935 118.493C14.7905 118.493 14.5449 118.865 14.5449 119.324C14.5449 119.783 14.7905 120.155 15.0935 120.155Z" stroke="#737373" stroke-miterlimit="1.5" stroke-linecap="round" stroke-linejoin="round"/>
<path d="M15.0935 123.006C15.3965 123.006 15.6422 122.634 15.6422 122.175C15.6422 121.716 15.3965 121.344 15.0935 121.344C14.7905 121.344 14.5449 121.716 14.5449 122.175C14.5449 122.634 14.7905 123.006 15.0935 123.006Z" stroke="#737373" stroke-miterlimit="1.5" stroke-linecap="round" stroke-linejoin="round"/>
<path d="M15.0935 125.727C15.3965 125.727 15.6422 125.355 15.6422 124.896C15.6422 124.437 15.3965 124.065 15.0935 124.065C14.7905 124.065 14.5449 124.437 14.5449 124.896C14.5449 125.355 14.7905 125.727 15.0935 125.727Z" stroke="#737373" stroke-miterlimit="1.5" stroke-linecap="round" stroke-linejoin="round"/>
<path d="M15.0935 128.762C15.3965 128.762 15.6422 128.39 15.6422 127.931C15.6422 127.473 15.3965 127.101 15.0935 127.101C14.7905 127.101 14.5449 127.473 14.5449 127.931C14.5449 128.39 14.7905 128.762 15.0935 128.762Z" stroke="#737373" stroke-miterlimit="1.5" stroke-linecap="round" stroke-linejoin="round"/>
<path d="M15.0229 86.0742V118.571" stroke="#737373" stroke-miterlimit="1.5" stroke-linecap="round" stroke-linejoin="round"/>
<path d="M15.0229 120.149V121.369" stroke="#737373" stroke-miterlimit="1.5" stroke-linecap="round" stroke-linejoin="round"/>
<path d="M15.0229 122.963V124.051" stroke="#737373" stroke-miterlimit="1.5" stroke-linecap="round" stroke-linejoin="round"/>
<path d="M15.0229 125.739V127.056" stroke="#737373" stroke-miterlimit="1.5" stroke-linecap="round" stroke-linejoin="round"/>
<path d="M15.0229 128.755V160.578" stroke="#737373" stroke-miterlimit="1.5" stroke-linecap="round" stroke-linejoin="round"/>
<path d="M25.9092 21.6694V161.936" stroke="#737373" stroke-miterlimit="1.5" stroke-linecap="round" stroke-linejoin="round"/>
<path d="M73.7206 20.3525V160.778" stroke="#737373" stroke-miterlimit="1.5" stroke-linecap="round" stroke-linejoin="round"/>
<path fill-rule="evenodd" clip-rule="evenodd" d="M22.5911 119.201C22.6351 119.162 22.6399 119.095 22.6016 119.05C22.5632 119.006 22.4964 119.001 22.4523 119.04C22.1401 119.313 22.0295 119.753 22.1747 120.144C22.3202 120.534 22.6909 120.792 23.1042 120.791C23.5176 120.789 23.8862 120.528 24.0283 120.136C24.1706 119.745 24.0564 119.305 23.7422 119.035C23.6977 118.996 23.6309 119.002 23.5931 119.046C23.555 119.091 23.5604 119.159 23.6046 119.197C23.7778 119.346 23.8773 119.564 23.8773 119.793C23.8773 120.225 23.5287 120.577 23.1002 120.577C22.6716 120.577 22.3232 120.225 22.3232 119.793C22.3232 119.566 22.4209 119.35 22.5911 119.201Z" fill="#737373" stroke="#737373" stroke-width="0.2"/>
<path fill-rule="evenodd" clip-rule="evenodd" d="M23.2056 119.855V118.858C23.2056 118.799 23.1582 118.751 23.0998 118.751C23.0414 118.751 22.9941 118.799 22.9941 118.858V119.855C22.9941 119.914 23.0414 119.961 23.0998 119.961C23.1582 119.961 23.2056 119.914 23.2056 119.855Z" fill="#737373" stroke="#737373" stroke-width="0.2"/>
<path fill-rule="evenodd" clip-rule="evenodd" d="M22.0291 122.245C22.3234 121.951 22.713 121.804 23.1024 121.804C23.492 121.804 23.8815 121.951 24.1758 122.245L24.0546 122.375C23.795 122.107 23.4486 121.977 23.1024 121.977C22.7563 121.977 22.4099 122.107 22.1502 122.375L22.0291 122.245Z" fill="#737373" stroke="#737373" stroke-width="0.2"/>
<path fill-rule="evenodd" clip-rule="evenodd" d="M22.3418 122.557C22.5495 122.349 22.8265 122.245 23.1035 122.245C23.3805 122.245 23.6575 122.349 23.8652 122.557L23.744 122.678C23.5708 122.505 23.3373 122.418 23.1035 122.418C22.8697 122.418 22.6361 122.505 22.463 122.678L22.3418 122.557Z" fill="#737373" stroke="#737373" stroke-width="0.2"/>
<path fill-rule="evenodd" clip-rule="evenodd" d="M22.6449 122.859C22.7663 122.738 22.9307 122.668 23.0951 122.668C23.2595 122.668 23.4241 122.738 23.5453 122.859L23.4241 122.98C23.3374 122.893 23.2163 122.841 23.0951 122.841C22.9739 122.841 22.8528 122.893 22.7663 122.98L22.6449 122.859Z" fill="#737373" stroke="#737373" stroke-width="0.2"/>
<path d="M23.1017 123.489C23.2116 123.489 23.3008 123.4 23.3008 123.29C23.3008 123.18 23.2116 123.091 23.1017 123.091C22.9917 123.091 22.9026 123.18 22.9026 123.29C22.9026 123.4 22.9917 123.489 23.1017 123.489Z" fill="#737373" stroke="#737373" stroke-width="0.2"/>
<path fill-rule="evenodd" clip-rule="evenodd" d="M22.8253 124.571C22.8333 124.545 22.8612 124.525 22.8879 124.525H23.4596C23.4863 124.525 23.4995 124.545 23.4895 124.569L23.192 125.292C23.1818 125.317 23.1956 125.336 23.2215 125.336H23.6984C23.7249 125.336 23.7331 125.353 23.7163 125.374L22.7205 126.618C22.6547 126.701 22.6272 126.686 22.6591 126.586L22.9208 125.763C22.9287 125.738 22.9134 125.718 22.8877 125.718H22.5054C22.4793 125.718 22.4648 125.697 22.4725 125.673L22.8253 124.571Z" fill="#737373"/>
<path fill-rule="evenodd" clip-rule="evenodd" d="M23.3324 128.941C23.2883 128.986 23.2283 129.012 23.1652 129.013L22.0629 129.036C21.9996 129.038 21.9386 129.014 21.8938 128.969C21.8491 128.924 21.8246 128.863 21.8265 128.8L21.8391 128.33C21.8429 128.199 21.948 128.094 22.0789 128.09L23.18 128.066C23.2432 128.065 23.3044 128.089 23.349 128.134C23.3938 128.179 23.4181 128.24 23.4165 128.303C23.4184 128.333 23.4031 128.362 23.3771 128.377C23.3509 128.393 23.3183 128.392 23.2927 128.376C23.267 128.36 23.2525 128.331 23.2553 128.301C23.2562 128.282 23.2489 128.263 23.2353 128.249C23.2217 128.236 23.2031 128.228 23.1839 128.229L22.0806 128.251C22.0364 128.253 22.0009 128.288 21.9989 128.333L21.9864 128.802C21.9857 128.821 21.9928 128.84 22.0064 128.853C22.0199 128.867 22.0386 128.874 22.0577 128.873L23.1611 128.852C23.2053 128.85 23.2408 128.814 23.2428 128.77C23.2468 128.728 23.2827 128.696 23.3248 128.697C23.3672 128.698 23.4016 128.731 23.4038 128.773C23.4027 128.836 23.3771 128.896 23.3324 128.941Z" fill="#737373" stroke="#737373" stroke-width="0.1" stroke-miterlimit="2"/>
<path fill-rule="evenodd" clip-rule="evenodd" d="M24.2793 128.537C24.2351 128.582 24.1752 128.608 24.1121 128.609L23.0109 128.633C22.9478 128.635 22.8867 128.611 22.8419 128.566C22.7972 128.521 22.7728 128.46 22.7745 128.397C22.7694 128.365 22.7834 128.334 22.8104 128.316C22.8372 128.299 22.872 128.299 22.8986 128.316C22.9255 128.334 22.9393 128.366 22.934 128.397C22.9332 128.417 22.9405 128.435 22.954 128.449C22.9675 128.462 22.9861 128.469 23.0053 128.469L24.1063 128.445C24.1506 128.443 24.1861 128.407 24.188 128.363L24.2007 127.894C24.2013 127.875 24.1941 127.856 24.1806 127.842C24.167 127.829 24.1483 127.822 24.1293 127.822L23.0281 127.846C22.9839 127.848 22.9484 127.884 22.9464 127.928C22.9481 127.958 22.9326 127.987 22.9064 128.002C22.8802 128.017 22.8478 128.017 22.8223 128C22.7968 127.984 22.7825 127.955 22.7855 127.925C22.7893 127.794 22.8944 127.689 23.0253 127.685L24.1263 127.662C24.1896 127.66 24.2507 127.684 24.2954 127.729C24.3402 127.774 24.3646 127.835 24.3627 127.898L24.3502 128.368C24.3496 128.431 24.3243 128.492 24.2793 128.537Z" fill="#737373" stroke="#737373" stroke-width="0.1" stroke-miterlimit="2"/>
<path fill-rule="evenodd" clip-rule="evenodd" d="M75.5088 118.676C75.5507 118.639 75.5552 118.575 75.5189 118.533C75.4823 118.49 75.4189 118.486 75.377 118.523C75.0803 118.782 74.9752 119.201 75.1132 119.572C75.2515 119.943 75.6037 120.188 75.9965 120.186C76.3892 120.185 76.7396 119.937 76.8746 119.565C77.0098 119.193 76.9013 118.775 76.6027 118.518C76.5604 118.481 76.497 118.486 76.461 118.529C76.4248 118.572 76.43 118.636 76.472 118.672C76.6366 118.813 76.7311 119.021 76.7311 119.239C76.7311 119.649 76.3998 119.983 75.9927 119.983C75.5854 119.983 75.2543 119.649 75.2543 119.239C75.2543 119.023 75.3471 118.817 75.5088 118.676Z" fill="#737373"/>
<path fill-rule="evenodd" clip-rule="evenodd" d="M76.082 119.303V118.356C76.082 118.3 76.037 118.255 75.9815 118.255C75.926 118.255 75.8811 118.3 75.8811 118.356V119.303C75.8811 119.359 75.926 119.405 75.9815 119.405C76.037 119.405 76.082 119.359 76.082 119.303Z" fill="#737373"/>
<path fill-rule="evenodd" clip-rule="evenodd" d="M74.9708 121.562C75.2505 121.282 75.6208 121.142 75.9908 121.142C76.361 121.142 76.7311 121.282 77.0108 121.562L76.8956 121.685C76.6489 121.43 76.3197 121.307 75.9908 121.307C75.6618 121.307 75.3327 121.43 75.086 121.685L74.9708 121.562Z" fill="#737373"/>
<path fill-rule="evenodd" clip-rule="evenodd" d="M75.2649 121.862C75.4622 121.664 75.7254 121.565 75.9887 121.565C76.2519 121.565 76.5151 121.664 76.7125 121.862L76.5973 121.977C76.4328 121.812 76.2108 121.73 75.9887 121.73C75.7665 121.73 75.5446 121.812 75.38 121.977L75.2649 121.862Z" fill="#737373"/>
<path fill-rule="evenodd" clip-rule="evenodd" d="M75.5498 122.151C75.6651 122.036 75.8214 121.97 75.9776 121.97C76.1338 121.97 76.2903 122.036 76.4054 122.151L76.2903 122.266C76.2079 122.184 76.0927 122.134 75.9776 122.134C75.8625 122.134 75.7473 122.184 75.6651 122.266L75.5498 122.151Z" fill="#737373"/>
<path d="M75.978 122.77C76.0825 122.77 76.1672 122.686 76.1672 122.581C76.1672 122.477 76.0825 122.392 75.978 122.392C75.8735 122.392 75.7888 122.477 75.7888 122.581C75.7888 122.686 75.8735 122.77 75.978 122.77Z" fill="#737373"/>
<path fill-rule="evenodd" clip-rule="evenodd" d="M75.7307 123.779C75.7383 123.755 75.7648 123.735 75.7902 123.735H76.3335C76.3589 123.735 76.3714 123.754 76.3619 123.777L76.0792 124.464C76.0695 124.487 76.0826 124.506 76.1072 124.506H76.5604C76.5856 124.506 76.5933 124.522 76.5774 124.542L75.6311 125.725C75.5686 125.803 75.5425 125.789 75.5728 125.694L75.8214 124.912C75.829 124.888 75.8144 124.869 75.79 124.869H75.4268C75.402 124.869 75.3882 124.849 75.3955 124.826L75.7307 123.779Z" fill="#737373"/>
<path fill-rule="evenodd" clip-rule="evenodd" d="M76.201 127.948C76.1591 127.991 76.102 128.016 76.042 128.017L74.9946 128.039C74.9345 128.041 74.8765 128.017 74.8339 127.975C74.7915 127.932 74.7682 127.874 74.7699 127.814L74.782 127.368C74.7856 127.244 74.8855 127.144 75.0098 127.14L76.0561 127.117C76.1162 127.116 76.1743 127.139 76.2167 127.181C76.2593 127.224 76.2823 127.282 76.2809 127.342C76.2826 127.371 76.2682 127.398 76.2434 127.413C76.2185 127.427 76.1876 127.427 76.1632 127.412C76.1388 127.396 76.125 127.369 76.1277 127.34C76.1285 127.322 76.1216 127.304 76.1087 127.291C76.0957 127.278 76.078 127.271 76.0598 127.272L75.0114 127.293C74.9694 127.294 74.9357 127.328 74.9338 127.37L74.9219 127.816C74.9212 127.835 74.928 127.852 74.9409 127.865C74.9537 127.878 74.9716 127.885 74.9896 127.884L76.0382 127.864C76.0802 127.862 76.1139 127.828 76.1158 127.786C76.1196 127.746 76.1537 127.716 76.1937 127.717C76.234 127.717 76.2667 127.749 76.2688 127.789C76.2678 127.849 76.2434 127.906 76.201 127.948Z" fill="#737373"/>
<path fill-rule="evenodd" clip-rule="evenodd" d="M77.102 127.562C77.0599 127.605 77.003 127.63 76.9431 127.631L75.8967 127.654C75.8367 127.655 75.7786 127.632 75.736 127.59C75.6936 127.547 75.6704 127.489 75.672 127.429C75.6672 127.399 75.6805 127.369 75.7062 127.353C75.7316 127.336 75.7647 127.336 75.79 127.353C75.8155 127.37 75.8287 127.4 75.8236 127.43C75.8228 127.448 75.8297 127.466 75.8426 127.479C75.8554 127.491 75.8731 127.498 75.8913 127.498L76.9376 127.475C76.9796 127.473 77.0134 127.439 77.0152 127.397L77.0273 126.951C77.0278 126.933 77.021 126.915 77.0081 126.902C76.9953 126.889 76.9775 126.883 76.9594 126.883L75.913 126.906C75.871 126.908 75.8372 126.942 75.8354 126.984C75.837 127.012 75.8222 127.04 75.7973 127.054C75.7724 127.069 75.7416 127.068 75.7174 127.052C75.6932 127.037 75.6797 127.009 75.6825 126.98C75.6861 126.856 75.786 126.756 75.9103 126.753L76.9566 126.731C77.0167 126.729 77.0748 126.752 77.1172 126.795C77.1598 126.837 77.183 126.895 77.1812 126.955L77.1693 127.402C77.1688 127.462 77.1447 127.519 77.102 127.562Z" fill="#737373"/>
<path d="M46.7414 17.7264C47.7613 17.7273 48.5883 17.5178 48.5885 17.2585C48.5886 16.9991 47.762 16.7881 46.7421 16.7871C45.7222 16.7862 44.8952 16.9957 44.8951 17.255C44.8949 17.5144 45.7215 17.7254 46.7414 17.7264Z" stroke="#737373" stroke-miterlimit="1.5" stroke-linecap="round" stroke-linejoin="round"/>
<path d="M46.7528 17.3907C47.5455 17.3914 48.1882 17.2114 48.1883 16.9886C48.1885 16.7658 47.546 16.5846 46.7534 16.5839C45.9607 16.5831 45.318 16.7631 45.3178 16.9859C45.3177 17.2087 45.9601 17.3899 46.7528 17.3907Z" fill="white" stroke="#737373" stroke-miterlimit="1.5" stroke-linecap="round" stroke-linejoin="round"/>
<path d="M42.389 58.8774L43.3948 56.4051H43.0994L42.2483 58.549L41.4007 56.4051H41.0983L42.0971 58.8774H42.389ZM45.4593 56.6771V56.4051H43.7887V58.8774H45.5049V58.609H44.0701V57.7614H45.3115V57.4894H44.0701V56.6771H45.4593ZM47.6889 58.8774H48.009L47.4322 58.0368C47.7874 57.9203 47.9844 57.6448 47.9844 57.2351C47.9844 56.7088 47.6291 56.4051 47.0137 56.4051H46.0782V58.8774H46.3596V58.0969H47.0137C47.07 58.0969 47.1263 58.0933 47.179 58.0898L47.6889 58.8774ZM46.3596 57.8249V56.6771H47.0137C47.4604 56.6771 47.7136 56.8678 47.7136 57.2421C47.7136 57.6271 47.4604 57.8249 47.0137 57.8249H46.3596ZM48.6209 56.4051V58.8774H49.6057C50.3302 58.8774 50.8823 58.3441 50.8823 57.6412C50.8823 56.9384 50.3336 56.4051 49.6162 56.4051H48.6209ZM48.9023 56.6771H49.6092C50.1614 56.6771 50.5974 57.0903 50.5974 57.6448C50.5974 58.1958 50.1684 58.609 49.6197 58.609H48.9023V56.6771ZM51.6771 58.8774V56.4051H51.3958V58.8774H51.6771ZM54.139 57.6695V58.4147C53.949 58.5454 53.7134 58.6231 53.4919 58.6231C52.9291 58.6231 52.4755 58.1887 52.4755 57.6412C52.4755 57.0973 52.9257 56.6629 53.4883 56.6629C53.7626 56.6629 54.0335 56.7689 54.2339 56.949L54.3957 56.7371C54.1601 56.5287 53.8295 56.3981 53.4883 56.3981C52.7638 56.3981 52.1906 56.9455 52.1906 57.6412C52.1906 58.3371 52.7603 58.8915 53.4743 58.8915C53.8049 58.8915 54.146 58.7608 54.3887 58.5666V57.6695H54.139ZM56.6817 58.8774H57.0017L56.425 58.0368C56.7801 57.9203 56.9771 57.6448 56.9771 57.2351C56.9771 56.7088 56.6219 56.4051 56.0064 56.4051H55.071V58.8774H55.3523V58.0969H56.0064C56.0627 58.0969 56.119 58.0933 56.1717 58.0898L56.6817 58.8774ZM55.3523 57.8249V56.6771H56.0064C56.4531 56.6771 56.7063 56.8678 56.7063 57.2421C56.7063 57.6271 56.4531 57.8249 56.0064 57.8249H55.3523ZM57.895 58.8774V56.4051H57.6137V58.8774H57.895ZM59.3722 56.3945C58.8622 56.3945 58.521 56.6453 58.521 57.0338C58.521 57.9203 59.9067 57.5741 59.9032 58.224C59.9032 58.4606 59.6816 58.6055 59.3264 58.6055C59.0486 58.6055 58.7356 58.4783 58.507 58.2558L58.3804 58.5101C58.6125 58.7326 58.9642 58.888 59.3229 58.888C59.8504 58.888 60.2127 58.6231 60.2127 58.2099C60.2162 57.3128 58.8305 57.6448 58.8305 57.0091C58.8305 56.8007 59.038 56.6806 59.3545 56.6806C59.5515 56.6806 59.8118 56.7406 60.0333 56.889L60.1529 56.6241C59.9489 56.4863 59.657 56.3945 59.3722 56.3945Z" fill="#737373" stroke="#737373" stroke-width="0.3"/>
<path d="M50.5696 50.0738C50.6557 50.1261 50.7632 50.1261 50.8493 50.0738L54.7915 47.6751C54.9202 47.5968 54.9619 47.4274 54.8847 47.297C54.8075 47.1664 54.6405 47.1241 54.5118 47.2024L50.7119 49.5175L46.907 47.2024C46.7783 47.1241 46.6114 47.1664 46.5341 47.297C46.4569 47.4274 46.4987 47.5968 46.6273 47.6751L50.5696 50.0738ZM50.7094 47.7144C51.8657 47.7144 52.803 48.6649 52.803 49.8374C52.803 51.0099 51.8657 51.9605 50.7094 51.9605C49.5532 51.9605 48.6158 51.0099 48.6158 49.8374C48.6158 48.6649 49.5532 47.7144 50.7094 47.7144ZM48.0723 49.8374C48.0723 51.3144 49.2529 52.5117 50.7094 52.5117C52.1658 52.5117 53.3465 51.3144 53.3465 49.8374C53.3465 48.3604 52.1658 47.1631 50.7094 47.1631C49.2529 47.1631 48.0723 48.3604 48.0723 49.8374Z" fill="#737373"/>
<path d="M50.8492 54.8796L54.7915 52.4809C54.8733 52.4311 54.9234 52.3414 54.9234 52.2446V47.4472C54.9234 47.3504 54.8733 47.2607 54.7915 47.2109L50.8492 44.8122C50.7632 44.7599 50.6556 44.7599 50.5695 44.8122L46.6273 47.2109C46.5455 47.2607 46.4954 47.3504 46.4954 47.4472V52.2446C46.4954 52.3414 46.5455 52.4311 46.6273 52.4809L50.5695 54.8796C50.6556 54.932 50.7632 54.932 50.8492 54.8796ZM47.0389 52.089L47.0385 47.6036L50.7121 45.3716L54.3799 47.6042L54.3807 52.0881L50.7106 54.3224L47.0389 52.089Z" fill="#737373"/>
</g>
<defs>
<filter id="filter0_d" x="0.25" y="0.293457" width="100.508" height="182.345" filterUnits="userSpaceOnUse" color-interpolation-filters="sRGB">
<feFlood flood-opacity="0" result="BackgroundImageFix"/>
<feColorMatrix in="SourceAlpha" type="matrix" values="0 0 0 0 0 0 0 0 0 0 0 0 0 0 0 0 0 0 127 0" result="hardAlpha"/>
<feOffset dx="4" dy="4"/>
<feGaussianBlur stdDeviation="8"/>
<feComposite in2="hardAlpha" operator="out"/>
<feColorMatrix type="matrix" values="0 0 0 0 0.533333 0 0 0 0 0.647059 0 0 0 0 0.74902 0 0 0 0.24 0"/>
<feBlend mode="normal" in2="BackgroundImageFix" result="effect1_dropShadow"/>
<feBlend mode="normal" in="SourceGraphic" in2="effect1_dropShadow" result="shape"/>
</filter>
</defs>
</svg>
