<svg width="138" height="84" viewBox="0 0 138 84" xmlns="http://www.w3.org/2000/svg"><title>Group</title><g fill="none" fill-rule="evenodd"><g stroke="#747474"><g><g><g><path d="M67.918 30.784s32.564-12.583 33.13-12.724c.564-.283 2.68.235 3.528 2.215.942 1.885.612 4.335-.94 4.948l-22.448 8.624"/><path d="M97.94 19.144c.33-.943.942-2.357 2.636-2.687 1.695-.377 3.953.33 5.412 3.77 1.506 3.77-.66 6.88-2.823 6.834-1.977-.093-2.353-.753-2.353-.706"/><path d="M104.53 26.637s5.976-2.262 6.682-2.64c.706-.33 2.07-2.356 1.412-5.325-.66-2.97-3.106-4.43-3.67-4.618-.566-.14-1.6-.377-2.495 0l-6.354 2.498"/><path d="M105.66 14.337l4.234-6.598c.282-.284 1.74-.943 2.918-1.415L126.46 1.14c.658-.28 2.446 0 4.234.473 1.647.47 3.435.66 4.094 1.225.66.47 1.74 1.696 1.647 3.582 0 1.885.377 11.17-.282 12.63-.66 1.413-5.46 2.827-6.588 3.298L118.74 26.4c-.28.143-.14.237-4.328-.706-3.294-.754-4.518-.942-4.706-.942"/><path d="M111.024 7.126c.282-.094 1.13.142 3.01.472 1.884.47 3.437.8 4.237 1.13.8.33 1.883 1.886 2.024 3.158.14 1.225.14 12.065.094 12.536 0 .47-.612 1.885-1.694 2.168m-.988-18.05l15.812-6.268M120.294 12.31l16.235-6.315m-16 17.86l15.858-6.125"/><path d="M113.94 5.9c-.658 0-2.634.378-2.916.472-1.224.19-.942 1.226-.942 1.226s-6.306 2.215-7.058 2.545c-.706.33-1.883.47-1.883 2.167-.187 1.697-.187 3.912-.187 3.912m.094-2.97s1.412.237 1.6.142m.282-3.204c.33.094 1.082.282 1.035.66"/><path d="M109.094 9.01l-5.176 1.887c-.47.235-1.27.47-1.27 1.885v2.733"/></g><g><path d="M75.824 71.03l-.283.236m20.613-8.06l-20.33 7.777.19.47m-.19-1.978l17.412-6.598-.235-.66m1.506-.188l-1.318.564M50.976 78.1l-1.788.847s-.47-.707-1.553-1.885c-1.882-2.168-3.53-5.796-3.906-6.692-.47-.942-.942-1.744-1.742-1.885-.753-.14-3.294-.942-5.647-1.414-2.446-.47-2.21-.94-2.352-1.083l-6.212-11.64s-23.576-5.75-24.14-5.75c-.565 0-.8.378-1.27.708-.472.33-.942 1.696-.942 1.885 0 .235-.095 15.08 0 16.588 0 1.414 0 1.508.376 1.602l47.765 11.31s.47 0 .753-.093c.235-.142 1.882-.707 1.882-.707l.612.14m-7.906-10.697l-1.412.566m-1.365-1.51l2.07-.47m-9.788-1.414l8.94-3.535m32.66 2.122l4.47-1.744s-.14.613 0 .85c.142.28.47.658.942.47l7.2-2.828c.282-.094.47-.754.47-.942 0-.19 0-1.414-.188-1.603-.235-.188-.377-.565-2.212.19l-5.553 2.12c-.47.188-.658.47-.705 1.036v.755m16 .19l-20.423 7.87s-.283 2.45-2.07 4.994c-1.79 2.59-3.907 4.1-5.318 4.712"/><path d="M68.624 81.115l21.27-8.153s3.294-1.885 5.035-5.42c1.6-3.487 1.41-4.052 1.41-4.052l-1.88-1.32s.328-1.79.47-3.77c0-1.885-.377-4.1-.377-4.1M60.576 61.463l-2.21 1.084-2.26-2.026s.47-.565 1.035-.753c.566-.142 1.413 0 2.166.47.8.566 1.223.943 1.223 1.226h.046z"/><path d="M61.376 61.04l1.553-.66-4.565-4.242-4.565 2.12 1.553 1.414s.847-1.13 2.353-.942c2.118.188 3.623 2.356 3.623 2.356l.046-.047zm-5.694.046l2.683 2.686 2.823-1.225s.612 1.414.188 2.828c-.33 1.272-1.6 2.168-2.117 2.215-.942.094-1.79-.236-2.354-.85-1.035-.94-1.74-2.355-1.74-3.91 0-1.084.47-1.744.47-1.744h.046z"/><path d="M53.376 58.966v6.597l4.99 4.57 4.987-2.355v-6.362l-1.412.754s.472 1.13.472 2.12c0 .943-.094 2.12-.94 3.3-.943 1.178-2.213 1.413-3.954.612-1.694-.8-3.012-3.3-3.06-4.995-.093-1.885.47-2.828.47-2.828-.093 0-1.6-1.414-1.6-1.414h.048z"/><path d="M58.412 54.913l-5.93 2.686.19 8.293 5.646 5.656 5.976-2.83v-8.34l-5.882-5.514z"/><path d="M52.765 49.446C58.6 47.09 65.94 51.614 69.047 59.484c3.106 7.917.847 16.21-5.035 18.52-5.93 2.357-13.177-2.167-16.33-10.037-3.106-7.87-.847-16.165 4.99-18.474l.093-.047z"/></g><g><path d="M1.376 31.02c-.188.094-.376.188-.376.565l.188 11.782c0 .094.847 4.24 2.26 4.9 1.41.66 1.88.613 5.646 1.556 3.765.943 18.26 4.336 18.26 4.336s.47 0 1.6-.473c1.74-.848 2.352-1.32 2.822-1.32.47 0 1.412.33 2.212.472.8.188 7.247 1.507 7.718 1.884.47.33 1.506 1.084 1.412 3.3 0 2.214-.33 9.52 5.176 16.965 7.06 9.424 14.824 8.2 18.26 6.926M69.705 46.1l15.718-5.985M72.06 48.362l14.587-5.655 2.824.47m-5.552-2.45c.376.19 1.506 1.084 2.54 2.12m-1.13-1.036l.096-2.685m-18.353 6.74l19.624-7.54"/><path d="M27.353 21.264c1.318.283 56.282 13.196 57.27 13.526.942.282 7.153 2.356 11.295 9.048 4.14 6.692 5.035 15.646 2.353 21.537-2.635 5.938-8.282 7.54-8.282 7.54s3.53-1.885 5.083-4.948c3.906-7.54 1.883-14.61 1.883-14.61l-21.365 8.248s1.883 8.954-2.353 15.22c-3.294 4.714-6.87 5.185-6.87 5.185s4-1.413 6.588-7.163c.94-2.12 2.212-7.68.8-12.865-1.412-5.184-3.53-9.426-6.918-12.725-3.388-3.298-6.87-4.477-8.188-4.854C57.282 43.98 1.94 31.16 1.94 31.16l-.564-.14c-.14 0 25.13-9.66 25.13-9.66s0-.237.94-.096h-.093z"/><path d="M50.882 42.566L53.8 41.53s2.682.564 4 .94c1.412.237 5.74 1.227 7.153 2.075 1.412.848 2.353 1.555 2.353 1.555l1.6-.66 4.14 4.006 16.472-6.362-4.142-3.96 1.412-.706s-1.882-1.225-4-2.12c-2.07-.943-9.506-2.45-9.506-2.45l3.012-1.18"/></g><path d="M72.53 79.7l4.94-10.46s-1.27-7.353-1.646-7.824c-.377-.47-3.106-8.954-3.106-8.954s-1.883-1.885-2.26-1.555c-.376.236-.8.613-.61 1.225.14.613 1.08 2.074 1.646 2.97.565.847 2.26 5.183 2.494 6.503.283 1.225.94 4.948.753 6.032-.14 1.037.284 4.147-2.07 9.095-.376.66-.846 1.508-.705 1.98.14.47.564.8.564.8v.19zm.094-30.725c.282 0 .847.094 1.13.47.28.472 2.022-.47 2.022-.47l-3.764-2.828H69.66s2.822 2.828 2.916 2.828h.048z" fill="#DDD" fill-rule="nonzero"/><path d="M84.012 40.586L70.93 45.63l-1.224.47 1.506 1.32s2.023.33 2.54.754c.472.47 1.13.942.472 1.178-.47.188-2.636.8-3.483 1.414-.94.66-.14 1.32 0 1.65 1.6 2.26 4.142 7.54 4.566 11.78.376 4.336-.14 9.143-1.224 11.452l-1.27 2.64c-.377.753-.8 1.743.188 1.602 1.035-.095 7.06-2.545 7.06-2.545l14.493-5.655c2.07-.943 4.706-3.535 5.647-6.692.94-2.687 1.224-4.147 1.318-5.56.14-3.064-.33-9.285-3.765-15.27v-.142c-1.977-3.534-3.53-2.45-4.235-2.167-.706.33-2.07.8-2.353.847-.283 0-.47.283-.94-.283-.472-.66-1.413-1.084-2.354-1.13-.846 0-3.858-.755-3.858-.755v.046zm-.8 26.39v-3.015c0-1.79.47-2.355.47-2.355s5.177-2.168 5.836-2.357c.61-.188 2.023-.8 2.353-.47.47.33.8 1.554.612 2.544-.235 1.037-.14 2.545-.94 3.3-.848.61-7.436 3.015-7.436 3.015s-.706.14-.8 0v-.66h-.094z" fill="#DDD" fill-rule="nonzero"/><path d="M85.894 53.97v1.178l.66-.235-.66-.943zm-3.812.283c-.61.094-1.082 1.178-.47 2.356.564 1.224 1.412 1.413 1.882 1.083.47-.283.8-1.272.47-2.356-.47-1.084-1.41-1.273-1.882-1.13v.046z"/><path d="M82.318 54.866c-.236 0-.565.33-.236 1.413.33.942 1.083.942 1.412.66.282-.33.14-.943 0-1.415-.188-.47-.753-.848-1.176-.66zm3.058 1.932l.47-.095v-.754l.942-.378.377.66.61-.235-2.07-3.11-.564.235.236 3.77v-.094zm2.212-4.62l1.224 3.442.94-.472c.33-.188.8-.848.33-2.168-.47-1.413-1.41-1.272-1.694-1.13l-.847.282.048.047z"/><path d="M88.388 52.51l.753 2.356s.566-.283.613-.566c0-.19.14-1.225-.47-1.602-.236-.19-.754-.19-.942-.142l.048-.047zm3.765-2.17l1.27 3.394 1.506-2.544-2.824-.943.047.094zm-6.447 18.993l-.94 2.545.234.094.282-.094.47-1.084s.472-.14.8-.612c.377-.472.283-.943 0-.943-.234-.095-.846.14-.846.14v-.047z"/><path d="M85.988 69.71l-.094.613s.377 0 .47-.377c0-.33-.235-.236-.376-.19v-.046zm2.73-1.602s-.706 2.026-.66 2.356c0 .283.377.33.848 0 .47-.377.706-1.178.94-1.696l.236-.943h-.47s-.47 1.744-.706 2.027c-.188.33-.377.47-.235 0l.47-1.697h-.47l.048-.047zm3.106-1.13l-.848 2.497.142.188.94-.47.095-.472-.377.236.47-2.12-.47.094.048.047zm2.682-1.038l-.847 2.545.093.19.94-.473.095-.47-.47.235.658-2.12-.47.14v-.047zM78.74 55.572l1.272 3.44.94-.47v-.52l-.752.19-.94-2.734-.566.19.047-.096zm1.32 15.882l.47 2.262 2.023-3.11-2.447.848h-.047zm4.328-10.792c-.33.33-.94.848-1.13 2.64-.14 1.79-.093 4.523.142 4.806.235.33.14.943 1.788.33 1.694-.47 6.588-2.498 6.918-2.686.33-.236 1.13-.66 1.647-3.016.47-2.357 0-4.713-1.13-4.902-1.082-.282-1.788.19-2.494.472-.706.377-5.365 2.073-5.648 2.356h-.094z"/><path d="M83.73 61.652s5.176-2.215 5.788-2.357c.61-.235 2.023-.848 2.353-.47.47.282.8 1.507.612 2.497-.235 1.037-.14 2.545-.94 3.3-.848.61-7.624 3.062-7.624 3.062s-.565 0-.66-.094"/></g></g></g></g></svg>