<svg width="58" height="61" viewBox="0 0 58 61" xmlns="http://www.w3.org/2000/svg"><title>Group 52</title><g fill="none" fill-rule="evenodd"><g stroke="#747474"><g><g transform="translate(-6 -5)"><ellipse transform="rotate(37 43.238 43.994)" cx="43.238" cy="43.994" rx="14.557" ry="17.433"/><path d="M28.25 51.646c5.933 1.295 12.994-1.55 17.594-7.654 3.76-4.992 4.974-10.963 3.718-15.896"/><path d="M32.48 51.843c2.026-.578 7.617-1.98 12.217-8.085 3.76-4.99 5.76-11.18 5.23-13.365"/><ellipse transform="rotate(37 42.824 42.853)" cx="42.824" cy="42.853" rx="18.472" ry="22.291"/><path d="M27.82 61.17c11.92 7.066 23.572 2.625 31.1-8.25 7.53-10.874 4.25-23.3-3.898-29.44-8.148-6.14-20.954-2.888-28.602 7.262-7.65 10.15-6.748 24.29 1.4 30.428z"/><path d="M54.03 22.416C45.88 16.4 32.95 19.75 25.142 29.9c-7.805 10.15-7.036 24.177 1.112 30.194" stroke-linecap="round"/><path d="M54.363 22.93c-9.91-8.742-22.834-4.544-30.483 5.606-7.65 10.15-6.314 22.89-.968 27.96" stroke-linecap="round"/><path d="M53.374 22.142c-9.1-9.266-23.647-4.582-31.296 5.568-7.648 10.15-5.726 22.488-.174 27.657" stroke-linecap="round"/><path d="M52.22 20.592c-9.076-9.11-23.522-4.287-31.327 5.863-7.806 10.15-6.416 23.013 0 28.21" stroke-linecap="round"/><path d="M50.674 19.696C41.574 10.43 27.28 15.15 19.63 25.3c-7.65 10.15-6.143 23.122.278 28.42" stroke-linecap="round"/><path d="M50.427 18.99c-10.348-10.23-24.154-5.154-31.96 4.996-7.805 10.15-6.416 23.013 0 28.21" stroke-linecap="round"/><path d="M56.683 24.942C48.413 1.848 25.333 9.066 15.12 23.56 4.907 38.05 10.462 57.053 25.06 59.133" stroke-linecap="round"/><path d="M30.856 60.603c7.49 5.645 19.19 2.578 26.007-6.467 6.816-9.045 6.268-20.954-1.223-26.6-7.49-5.644-19.3-3.098-26.116 5.947-6.816 9.045-6.16 21.475 1.332 27.12zM57.496 27.957c10.193 10.32 3.113 28.098-9.648 33.778M57.622 28.02c10.563 9.762 3.925 27.068-8.95 33.84"/><path d="M57.608 25.28l.087-4.243s-1.604-3.38-2.192-4.188c-.588-.81-1.254-1.657-1.254-1.657L37.99 8.115s-2.62.133-3.923.456c-1.305.324-3.198.735-3.198.735l-8.842 6.977-8.12 5.252s-1.626 2.277-2.253 3.387c-.626 1.11-1.843 3.66-1.843 3.66l-.132 9.7-.79 9.8s.78 2.13 1.392 2.957c.612.827 1.917 2.898 1.917 2.898l6.42 3.08 7.662 3.287"/><path d="M53.895 15.017l-1.358-1.37-14.073-6.37-2.006-.854s-2.188.02-3.336.268c-1.148.247-3.93.905-3.93.905s-5.57 3.354-8.652 5.576c-3.083 2.224-8.543 6.787-8.543 6.787s-.914 1.13-2.252 3.563c-1.338 2.435-1.796 3.432-1.796 3.432s-.768 6.334-.768 10.214c0 3.88-.062 9.43-.062 9.43s1.148 2.725 1.886 3.783c.74 1.057 1.556 2.105 1.556 2.105l1.31 1.098M7.287 46.645l1.446 1.357M7.912 26.947l1.84 1.62M12.1 20.017l1.723 1.67M29.14 7.665l1.635 1.605M36.36 6.514l1.65 1.556"/></g></g></g></g></svg>