<svg xmlns="http://www.w3.org/2000/svg" width="225" height="369" viewBox="0 0 225 369"><g fill="none" fill-rule="evenodd"><g stroke="#747474"><g><path d="M1.066 90.16c.637-1.686 6.23-5.41 6.23-5.41l1.4-.214s.475-.775 1.296-1.216c.82-.44 7.028-3.514 10.648-3.857 3.62-.343 4.318-.346 11.87-.346 7.554 0 32.596 1.402 39.168 2.482 6.57 1.08 7.1 2.034 7.1 2.034s2.064 1.542 2.064 2.064"/><path d="M3.056 88.157c.34 1.01.7 1.668 6.244 2.532 5.542.862 31.897 2.614 33.49 2.614 1.595 0 14.75.448 18.68-.473 3.93-.92 10.346-3.648 10.346-3.648s1.05.986 1.638.986c.587 0 2.16-.88 2.16-.88s-.413-1.67-.715-1.67c-.303 0 2.467-1.786 2.782-2.082.316-.296 1.214-1.374.87-2.128M7.498 84.904s-.21.882.304.882 1.26-.736 1.26-.736 1.09-.166 1.09-.543c0-.378.026-1.058.026-1.058"/><path stroke-linecap="round" d="M72.685 89.53l2.63-.985"/><path d="M4.89 89.545c.976-.795 8.95-5.996 15.19-6.98 6.238-.984 28.727.105 32.12.538 3.392.432 20.61 1.08 24.586 2.782"/><path d="M6.18 89.943c.976-.795 8.75-5.743 14.99-6.727s27.92-.1 31.312.332c3.393.433 20.327 1.114 24.304 2.817M51.75 79.96v2.87m17.436 2.434v5.008m3.077-.736v-4.368m2.05 3.888v-4.368M9.7 87.316v3.38m-1.19-5.62v1.86"/><path d="M21.626 91.854V84.77s1.346-.545 1.81-.08v7.39m9.872-9.2v9.644"/><path stroke-linecap="round" d="M31.53 92.5v-8.845s.023-.485-1.59-.89"/><path d="M30.23 92.51v-8.48"/><path stroke-linecap="round" d="M23.175 83.1c0 .392-.698 1.46 3.42 1.285 4.118-.177 5.232-.268 4.33-1.16-.9-.893-5.924-.392-5.924.497 0 .89 8.386.313 4.715-.536"/></g><g transform="translate(1 159)"><ellipse cx="52.932" cy="51.855" rx="2.466" ry="1"/><ellipse cx="26.384" cy="41.219" rx="2.384" ry="1"/><path fill="#F9F9F9" stroke-linecap="round" d="M.17 51.92v151.973s-.293 1.065 6.266 2.04c6.56.973 37.733 3.198 39.03 3.198 1.295 0 12.38-.05 16.637-.855 4.257-.805 16.016-5.798 17.514-8.655V47.45"/><g transform="matrix(-1 0 0 1 78.247 163.81)"><ellipse cx="9.635" cy="6.028" rx="1" ry="1.07"/><ellipse cx="9.799" cy="9.806" rx="1" ry="1"/><ellipse cx="9.635" cy="13.803" rx="1" ry="1"/><ellipse cx="9.635" cy="17.543" rx="1" ry="1.07"/><ellipse cx="8.813" cy="7.875" rx="1" ry="1"/><ellipse cx="8.813" cy="11.405" rx="1" ry="1.07"/><ellipse cx="8.813" cy="15.463" rx="1" ry="1"/><ellipse cx="8.155" cy="5.388" rx="1" ry="1.07"/><ellipse cx="8.32" cy="8.936" rx="1" ry="1"/><ellipse cx="8.484" cy="13.381" rx="1" ry="1"/><ellipse cx="8.155" cy="16.903" rx="1" ry="1.07"/><ellipse cx="7.498" cy="7.175" rx="1" ry="1"/><ellipse cx="7.498" cy="10.766" rx="1" ry="1.07"/><ellipse cx="7.334" cy="14.504" rx="1" ry="1"/><ellipse cx="6.676" cy="4.908" rx="1" ry="1.07"/><ellipse cx="6.676" cy="8.095" rx="1" ry="1"/><ellipse cx="7.005" cy="12.546" rx="1" ry="1"/><ellipse cx="6.512" cy="16.104" rx="1" ry="1.07"/><ellipse cx="6.018" cy="6.314" rx="1" ry="1"/><ellipse cx="6.347" cy="10.126" rx="1" ry="1.07"/><ellipse cx="6.018" cy="14.093" rx="1" ry="1"/><ellipse cx="5.361" cy="4.109" rx="1" ry="1.07"/><ellipse cx="5.361" cy="7.559" rx="1" ry="1"/><ellipse cx="5.525" cy="11.933" rx="1" ry="1"/><ellipse cx="5.361" cy="15.464" rx="1" ry="1.07"/><ellipse cx="4.703" cy="5.614" rx="1" ry="1"/><ellipse cx="5.197" cy="9.646" rx="1" ry="1.07"/><ellipse cx="4.539" cy="13.408" rx="1" ry="1"/><ellipse cx="4.124" cy="3.469" rx="1" ry="1.07"/><ellipse cx="4.124" cy="6.879" rx="1" ry="1"/><ellipse cx="4.289" cy="11.16" rx="1" ry="1"/><ellipse cx="3.96" cy="14.504" rx="1" ry="1.07"/><ellipse cx="3.631" cy="5.111" rx="1" ry="1"/><ellipse cx="4.124" cy="9.166" rx="1" ry="1.07"/><ellipse cx="3.302" cy="12.586" rx="1" ry="1"/><ellipse cx="2.645" cy="2.669" rx="1" ry="1.07"/><ellipse cx="2.809" cy="6.154" rx="1" ry="1"/><ellipse cx="3.138" cy="10.423" rx="1" ry="1"/><ellipse cx="2.481" cy="14.025" rx="1" ry="1.07"/><ellipse cx="2.481" cy="4.644" rx="1" ry="1"/><ellipse cx="2.974" cy="8.207" rx="1" ry="1.07"/><ellipse cx="1.987" cy="11.901" rx="1" ry="1"/><ellipse cx="1.412" cy="1.869" rx="1" ry="1.07"/><ellipse cx=".59" cy="3.037" rx="1" ry="1"/><ellipse cx="1.659" cy="5.603" rx="1" ry="1"/><ellipse cx="1.987" cy="9.712" rx="1" ry="1"/><ellipse cx="1.494" cy="13.225" rx="1" ry="1.07"/><ellipse cx="1.33" cy="3.944" rx="1" ry="1"/><ellipse cx="1.823" cy="7.407" rx="1" ry="1.07"/><ellipse cx=".672" cy="6.767" rx="1" ry="1.07"/><ellipse cx=".837" cy="11.147" rx="1" ry="1"/><ellipse cx=".261" cy="1.07" rx="1" ry="1.07"/><ellipse cx=".508" cy="5.008" rx="1" ry="1"/><ellipse cx=".672" cy="8.815" rx="1" ry="1"/><ellipse cx=".344" cy="12.585" rx="1" ry="1.07"/></g><g transform="matrix(-1 0 0 1 78.247 113.91)"><ellipse cx="9.635" cy="6.028" rx="1" ry="1.07"/><ellipse cx="9.799" cy="9.806" rx="1" ry="1"/><ellipse cx="9.635" cy="13.803" rx="1" ry="1"/><ellipse cx="9.635" cy="17.543" rx="1" ry="1.07"/><ellipse cx="8.813" cy="7.875" rx="1" ry="1"/><ellipse cx="8.813" cy="11.405" rx="1" ry="1.07"/><ellipse cx="8.813" cy="15.463" rx="1" ry="1"/><ellipse cx="8.155" cy="5.388" rx="1" ry="1.07"/><ellipse cx="8.32" cy="8.936" rx="1" ry="1"/><ellipse cx="8.484" cy="13.381" rx="1" ry="1"/><ellipse cx="8.155" cy="16.903" rx="1" ry="1.07"/><ellipse cx="7.498" cy="7.175" rx="1" ry="1"/><ellipse cx="7.498" cy="10.766" rx="1" ry="1.07"/><ellipse cx="7.334" cy="14.504" rx="1" ry="1"/><ellipse cx="6.676" cy="4.908" rx="1" ry="1.07"/><ellipse cx="6.676" cy="8.095" rx="1" ry="1"/><ellipse cx="7.005" cy="12.546" rx="1" ry="1"/><ellipse cx="6.512" cy="16.104" rx="1" ry="1.07"/><ellipse cx="6.018" cy="6.314" rx="1" ry="1"/><ellipse cx="6.347" cy="10.126" rx="1" ry="1.07"/><ellipse cx="6.018" cy="14.093" rx="1" ry="1"/><ellipse cx="5.361" cy="4.109" rx="1" ry="1.07"/><ellipse cx="5.361" cy="7.559" rx="1" ry="1"/><ellipse cx="5.525" cy="11.933" rx="1" ry="1"/><ellipse cx="5.361" cy="15.464" rx="1" ry="1.07"/><ellipse cx="4.703" cy="5.614" rx="1" ry="1"/><ellipse cx="5.197" cy="9.646" rx="1" ry="1.07"/><ellipse cx="4.539" cy="13.408" rx="1" ry="1"/><ellipse cx="4.124" cy="3.469" rx="1" ry="1.07"/><ellipse cx="4.124" cy="6.879" rx="1" ry="1"/><ellipse cx="4.289" cy="11.16" rx="1" ry="1"/><ellipse cx="3.96" cy="14.504" rx="1" ry="1.07"/><ellipse cx="3.631" cy="5.111" rx="1" ry="1"/><ellipse cx="4.124" cy="9.166" rx="1" ry="1.07"/><ellipse cx="3.302" cy="12.586" rx="1" ry="1"/><ellipse cx="2.645" cy="2.669" rx="1" ry="1.07"/><ellipse cx="2.809" cy="6.154" rx="1" ry="1"/><ellipse cx="3.138" cy="10.423" rx="1" ry="1"/><ellipse cx="2.481" cy="14.025" rx="1" ry="1.07"/><ellipse cx="2.481" cy="4.644" rx="1" ry="1"/><ellipse cx="2.974" cy="8.207" rx="1" ry="1.07"/><ellipse cx="1.987" cy="11.901" rx="1" ry="1"/><ellipse cx="1.412" cy="1.869" rx="1" ry="1.07"/><ellipse cx=".59" cy="3.037" rx="1" ry="1"/><ellipse cx="1.659" cy="5.603" rx="1" ry="1"/><ellipse cx="1.987" cy="9.712" rx="1" ry="1"/><ellipse cx="1.494" cy="13.225" rx="1" ry="1.07"/><ellipse cx="1.33" cy="3.944" rx="1" ry="1"/><ellipse cx="1.823" cy="7.407" rx="1" ry="1.07"/><ellipse cx=".672" cy="6.767" rx="1" ry="1.07"/><ellipse cx=".837" cy="11.147" rx="1" ry="1"/><ellipse cx=".261" cy="1.07" rx="1" ry="1.07"/><ellipse cx=".508" cy="5.008" rx="1" ry="1"/><ellipse cx=".672" cy="8.815" rx="1" ry="1"/><ellipse cx=".344" cy="12.585" rx="1" ry="1.07"/></g><g transform="matrix(-1 0 0 1 78.247 63.21)"><ellipse cx="9.635" cy="6.028" rx="1" ry="1.07"/><ellipse cx="9.799" cy="9.806" rx="1" ry="1"/><ellipse cx="9.635" cy="13.803" rx="1" ry="1"/><ellipse cx="9.635" cy="17.543" rx="1" ry="1.07"/><ellipse cx="8.813" cy="7.875" rx="1" ry="1"/><ellipse cx="8.813" cy="11.405" rx="1" ry="1.07"/><ellipse cx="8.813" cy="15.463" rx="1" ry="1"/><ellipse cx="8.155" cy="5.388" rx="1" ry="1.07"/><ellipse cx="8.32" cy="8.936" rx="1" ry="1"/><ellipse cx="8.484" cy="13.381" rx="1" ry="1"/><ellipse cx="8.155" cy="16.903" rx="1" ry="1.07"/><ellipse cx="7.498" cy="7.175" rx="1" ry="1"/><ellipse cx="7.498" cy="10.766" rx="1" ry="1.07"/><ellipse cx="7.334" cy="14.504" rx="1" ry="1"/><ellipse cx="6.676" cy="4.908" rx="1" ry="1.07"/><ellipse cx="6.676" cy="8.095" rx="1" ry="1"/><ellipse cx="7.005" cy="12.546" rx="1" ry="1"/><ellipse cx="6.512" cy="16.104" rx="1" ry="1.07"/><ellipse cx="6.018" cy="6.314" rx="1" ry="1"/><ellipse cx="6.347" cy="10.126" rx="1" ry="1.07"/><ellipse cx="6.018" cy="14.093" rx="1" ry="1"/><ellipse cx="5.361" cy="4.109" rx="1" ry="1.07"/><ellipse cx="5.361" cy="7.559" rx="1" ry="1"/><ellipse cx="5.525" cy="11.933" rx="1" ry="1"/><ellipse cx="5.361" cy="15.464" rx="1" ry="1.07"/><ellipse cx="4.703" cy="5.614" rx="1" ry="1"/><ellipse cx="5.197" cy="9.646" rx="1" ry="1.07"/><ellipse cx="4.539" cy="13.408" rx="1" ry="1"/><ellipse cx="4.124" cy="3.469" rx="1" ry="1.07"/><ellipse cx="4.124" cy="6.879" rx="1" ry="1"/><ellipse cx="4.289" cy="11.16" rx="1" ry="1"/><ellipse cx="3.96" cy="14.504" rx="1" ry="1.07"/><ellipse cx="3.631" cy="5.111" rx="1" ry="1"/><ellipse cx="4.124" cy="9.166" rx="1" ry="1.07"/><ellipse cx="3.302" cy="12.586" rx="1" ry="1"/><ellipse cx="2.645" cy="2.669" rx="1" ry="1.07"/><ellipse cx="2.809" cy="6.154" rx="1" ry="1"/><ellipse cx="3.138" cy="10.423" rx="1" ry="1"/><ellipse cx="2.481" cy="14.025" rx="1" ry="1.07"/><ellipse cx="2.481" cy="4.644" rx="1" ry="1"/><ellipse cx="2.974" cy="8.207" rx="1" ry="1.07"/><ellipse cx="1.987" cy="11.901" rx="1" ry="1"/><ellipse cx="1.412" cy="1.869" rx="1" ry="1.07"/><ellipse cx=".59" cy="3.037" rx="1" ry="1"/><ellipse cx="1.659" cy="5.603" rx="1" ry="1"/><ellipse cx="1.987" cy="9.712" rx="1" ry="1"/><ellipse cx="1.494" cy="13.225" rx="1" ry="1.07"/><ellipse cx="1.33" cy="3.944" rx="1" ry="1"/><ellipse cx="1.823" cy="7.407" rx="1" ry="1.07"/><ellipse cx=".672" cy="6.767" rx="1" ry="1.07"/><ellipse cx=".837" cy="11.147" rx="1" ry="1"/><ellipse cx=".261" cy="1.07" rx="1" ry="1.07"/><ellipse cx=".508" cy="5.008" rx="1" ry="1"/><ellipse cx=".672" cy="8.815" rx="1" ry="1"/><ellipse cx=".344" cy="12.585" rx="1" ry="1.07"/></g><path d="M.168 154.146c1.654 1.164 5.426 2.628 20.268 3.393 14.842.763 37.855 3.864 50.478-2.22 5.725-2.563 8.828-5.674 8.828-5.674M.164 104.336c1.655 1.163 5.427 2.627 20.27 3.392 14.84.765 37.854 3.865 50.477-2.217 5.726-2.564 8.83-5.674 8.83-5.674M.163 53.636c1.655 1.164 5.427 2.627 20.27 3.392 14.84.765 37.854 3.865 50.477-2.217 5.726-2.564 8.83-5.674 8.83-5.674"/><path d="M.164 52.356c1.655 1.164 5.427 2.628 20.27 3.393 14.84.763 37.854 3.864 50.477-2.22 5.726-2.563 8.83-5.673 8.83-5.673"/><path stroke-linecap="round" d="M.078 51.646c.515-.728 2.448-2.37 3.045-2.917.598-.55 3.585-2.648 3.585-2.648s2.556.177 2.87.09c.28-.08 4.492-2.32 5.464-2.838.128-.068.102-.12.102-.12h-1.177l.12-.947 2.425-.915"/><path d="M7.26 46.085v-3.15s-1.42-.703-1.42-.846c0-.144-.053-.345.328-.716.382-.37 3.497-2.97 5.257-3.082 1.76-.112 2.135.25 2.135.25v5.48m-4.842 2.112V40.82"/><path stroke-linecap="round" d="M6.865 40.8H8.82l4.545-2.375"/><ellipse cx="12.082" cy="49.056" rx="2.384" ry="1"/><path d="M4.07 48.11c0 .678-.358 1.877 3.79 2.45 4.146.576 11.99 1.367 13.123 1.26"/><path stroke-linecap="round" d="M2.3 49.563c-.112.75-.21 2.354 4.53 2.86 4.738.504 12.247 1.275 13.225 1.275"/><path d="M2.17 50.667c-.136.775-.673 1.87 1.205 2.342 1.877.47 4.38 1.23 8.827 1.59 4.448.36 8.855.422 10.61.422 1.755 0 13.554.88 13.554.88"/><path stroke-linecap="round" d="M20.2 54.822c0-1.51.042-2.578 1.66-3.55"/><path d="M22.284 54.922V49.13l13.493.855v5.826"/><path d="M22.167 50.51c-.55 0-1.9.175-2.663-.09-.764-.263-2.58-1.045-2.58-1.045s.672-.355 2.634-.355c1.96 0 2.85.048 2.85.048m-3.62 1.022s2.172-.328 3.53-.328m12.943.195c0-.858.13-2.457 1.27-2.457v5.293M15.897 23.57V46.64"/><path stroke-linecap="round" d="M18.913 23.685v23.117"/><path d="M57.778 24v22.587"/><path stroke-linecap="round" d="M62.05 24v22.587"/><path d="M16.375 43.92c-.636.298-1.014.885.093.885m.163 1.812c-1.104 0-2.893-.012-2.893.376s2.004.815 3.442.815c1.437 0 4.337.19 4.62-.19.28-.382.184-.682-.883-.84"/><path stroke-linecap="round" d="M17.81 48.435c1.052 0 2.758-.183 3.98-.126M22.013 48.9l.126-1.894 13.444.863-.386 1.278-13.178-.866M16.563 46.538c.334.557 1.906 1.407 4.928.485"/><path d="M20.946 40.332s1.428-.402 3.915-.56c2.49-.156 4.142-.023 4.142-.023"/><path stroke-linecap="round" d="M20.965 42.772l4.59.065 3.076 2.608 1.682-2.56-4.517.064M28.923 41.282l1.387 1.338 2.302-2.434-3.138-1.39-1.206 1.912"/><path d="M20.87 44.93s1.942.587 3.792.708c1.63.107 8.067.584 9.577.696.203.015.123.192.123.192l-2.097.748-9.308-.86s.033-.053.13-.08c.1-.027 1.744-.433 1.744-.433"/><path d="M32.89 47.145s1.922.366 2.26-.186c.34-.554-1.11-.354-1.11-.354"/><path stroke-linecap="round" d="M35.333 46.745s9.115-4.407 9.745-4.407c.63 0 4.938-1.52 4.938-1.52l-4.938 2.045-5.8 2.04"/><path d="M32.688 40.268s6.89 3.724 7.173 4.152m-10.317-5.658s3.424-1.814 3.75-1.814c.327 0 4.21 1.543 5.926 2.405 1.714.862 4.547 1.798 5.64 2.893"/><path d="M30.514 39.213l3.758-1.92 1.333.504-3.908 1.857 1.33.62 3.487-2.087"/><path stroke-linecap="round" d="M31.598 37.848l5.9 2.557m-2.165 1.272l3.77-2.137"/><path d="M37.75 40.643l2.513 1.91s-1 .53-1.378.53"/><path stroke-linecap="round" d="M39.194 42.082c-.364 0-1.353-.427-1.79-.577-.436-.15.983.744-.4 1"/><path d="M41.74 40.86s.55.516.377.516c-.172 0-.51.64-.984.64-.475 0-1.86-1.132-1.86-1.49 0-.356 1.67.02 1.67.02l-.17.788-.68-.252"/><path stroke-linecap="round" d="M36.584 49.13l10.53.79 4.016-1.78s1.578 1.634 1.316 1.813c-.263.18-2.16.98-2.16.98l.202-.728-2.38.51 1.773-.758-.07-.05-2.32.05 2.39-.984.272.647m-7.508-5.58c.414.194 2.28 2 3.498 5.665m-1.293-3.268l6.48-3.706"/><path d="M52.35 50.137s6.74.87 8.58.155c1.842-.716 2.476-1.637 2.476-1.637s.13-.234 0-.257c-.13-.023-4.41-.664-4.875-.513-.53.173-3.433 2.39-3.433 2.39"/><path stroke-linecap="round" d="M49.15 44.39l1.935 3.64.386-.496 6.56.416-3.344-.635s-.097-.158 0-.163c.098-.005 3.113 0 3.113 0"/><path d="M45.914 42.636l.445 1.262.798.962z"/><path d="M50.34 41.433l-4.005 2.002.64.937L50.7 42.15M47.985 41.834l.985 2.134"/><path stroke-linecap="round" d="M49.867 40.676l1.384 2.01s5.602-.426 5.935-.904c.332-.478-6.794-.334-6.794-.334"/><path d="M56.14 43.31l-4.777.242s-.608.506-.8.506c-.194 0 .182-.135.736.414.552.55 4.976.176 4.976.176"/><path stroke-linecap="round" d="M36.003 53.637s.41-1.21 1.666-1.21c1.257 0-1.807-.064-1.36 4.006"/><path stroke-linecap="round" d="M37.597 52.99s10.283.538 13.385.538c3.1 0 11.343-.283 15.428-3.125"/><path stroke-linecap="round" d="M36.445 54.79s9.224.92 15.683.633c6.46-.29 11.845-.914 16.265-3.464"/><path d="M59.58 56.355c.924-.274 8.982-2.146 9.242-3.006.26-.862-.92-2.966-2.11-2.966-1.192 0-2.44-.6-2.44-.6l1.148-.492"/><path d="M68.787 52.245s3.478-1.48 3.478-1.948c0-.467-.04-5.558-.04-5.558l-5.072 2.363v3.265M73.345 52.382l.038.966.548-.26v-1.08M58.802 45.608s-1.29.148-1.098.55c.192.404 2.774.46 4.87.46 2.095 0 3.386-.54 3.115-1.106-.273-.567-3.143-.273-3.143-.273m.34-3.533s6.732.538 7.088.74m-2.142 1.142c-.654 0-2.648-.25-2.844.372-.197.622 1.504.48 1.504.48"/><path d="M66.3 44.43s4.07-2.396 4.687-2.396c.618 0 1.577.187 1.38.462-.197.274-1.536 1.205-2.752 1.77-1.217.563-2.25.956-3.46.56"/><path d="M72.278 42.627c.61-.25 1.44.47 1.44.75s-1.203 1.12-1.637 1.285c-.433.165-2.853 1.57-3.432 1.308-.58-.263-.515-1.14-.515-1.14"/><path stroke-linecap="round" d="M73.9 43.306c.59 0 1.6.968 1.33 1.49-.27.524-2.35 2.05-2.878 2.355"/><path d="M75.34 44.362c.47 0 1.905.797 1.63 1.815-.277 1.02-2.74 2.632-2.74 2.632l-1.7-1.61"/><path d="M72.27 50.132s2 .216 2.29.108c.288-.108 2.48-1.79 2.48-2.07 0-.276.11-1.903.11-1.903s.8-.314 1.124-.015c.322.3 1.3.49.65 2.185m-5.59.207v1.395m-14.73-5.233s-1.313.36-2.572-.128m.707-2.14v2.438m-.76-1.624s1.894.024 2.504.255"/><path d="M56.047 44.5l.09-2.374s.046.643 2.346.237M41.38 40.238l1.728.246s.248.425.66.425c.41 0 4.648.304 4.648.304"/><path d="M43.13 40.637v-5.17s.38-.34 3.407-.34 7.855.58 7.855.58l3.11.36.036 5.657.916-.317"/><path d="M43.364 36.66s3.858.293 6.21.547c2.353.255 6.694.345 6.694.345v3.873h.568V36.41s-4.34-.06-6.708-.27c-2.37-.21-6.744-.65-6.744-.65m-28-16.896v4.54s.857.644 2.7.644c1.845 0 3.123-.44 3.123-.44V18"/><path d="M13.333 14l2.533 4.864s1.965.294 2.744.294c.78 0 3.072-.386 3.072-.386l.394-.99"/><path stroke-linecap="round" d="M15.385 14l1.66 4.654"/><path d="M13.333 1v12.688l1.837.14s2.105.497 3.143.098m-4.88-12.873s2.552.698 3.846.698 1.686.357 1.686.357 4.656-.16 5.1-.393c.442-.234-.028-.703-.028-.703s1.05-1.163-4.842-.993c-3.954.114-5.303.523-5.763.78-.225.125 0 .256 0 .256z"/><path d="M23.962 1v15.993s-.603.426-2.44.426c-1.835 0-2.603-.054-3.06-.87V1.97M17.93 2v12.314m.532-8.116s3.066.328 5.267-.198M18.46 9.198s3.066.328 5.267-.198m-5.268.198s3.066.328 5.267-.198M15.384.24s3.08.26 3.08 1.02c0 .757-1.372-.555 4.77-1.26m34.2 19.058v4.673s.493.57.82.57h4.214l.89-.33V19s-1.3.433-2.768.433c-1.468 0-3.156-.375-3.156-.375zm.465-.13l-2.515-4.753V.873S55.5 0 61.058 0c5.556 0 5.13 1.304 5.13 1.304V14.12l-2.435 4.725"/><path d="M55.385 14.108s2.538.415 6.126.415c3.59 0 4.686-.523 4.686-.523M64.615 13.317l.05-9.773.39-.528V1"/><path d="M60 14.35V2m-3.077 12.31V2m-1.538-1s1.2.81 1.567.81c.366 0 1.565-.054 2.51-.054.947 0 3.24-.28 3.684-.28.445 0 2.925-.19 2.925-.19"/><path stroke-linecap="round" d="M56.41.183c.61.35 3.58.32 4.184.32.603 0 3.127-.317 3.482-.503"/><path d="M54.75 7c-.607.526-.48 1.39.196 1.667M54.712 12c-.32.252-.58 1.333-.043 1.765"/><path stroke-linecap="round" d="M55.385 14v1.45c0 .575 1.237.767 1.237.767"/></g><g><g transform="translate(3.05 29)"><path d="M.287 9.68l.064 7.234s1.532 1.374 2.966 1.374c1.433 0 2.264-.11 2.264-.11V14.71"/><path fill="#F9F9F9" d="M3.797 18.126v-3.522s2.707.172 5.704.622 10.836.69 15.355 1.128c4.52.437 19.934 1.287 20.844 1.287.91 0 8.358-.177 10.362-.177 2.005 0 12.073-3.984 12.073-3.984s-.117-3.342 1.673-3.768c1.79-.427 1.254 1.11 1.254 2.106l3.972-2.775v-3.6l-.86-1.16-3.572 3.924-10.012 5.125-6.4 1.068-11.393-.017-24.658-1.315L6.257 11.92.253 10.012l.06 6.666 1.762 1.238 1.722.21z"/><path fill="#F9F9F9" d="M.057 9.625c0 1.277 6.402 2.646 16.29 3.287 9.89.64 29.252 1.74 30.962 1.74 1.71 0 12.19.56 19.33-3.682 7.14-4.24 9.287-4.986 8.282-5.975-1.004-.99.832-1.68-17.174-3.352C39.74-.027 22.165-.225 19.495.246c-2.67.47-7.77 1.433-12.68 4.27C1.9 7.35.056 8.347.056 9.625z"/><ellipse cx="24.165" cy="1.908" rx="6.575" ry="1.279"/><ellipse cx="50.795" cy="12.464" rx="6.575" ry="1.279"/><path d="M29.136 7.505s1.408.99 2.818 1.196c1.41.21 6.133.12 6.133.12l4.705-.12 3.36-1.85-5.134-1.04-9.064.086-2.818 1.61z"/><path d="M32.282 5.84l2.756.93 2.182.62 8.805-.53"/><path d="M32.886 7.293c-.315-.343.717-.736 2.325-.736 1.61 0 4.695-.113 5.583.133.888.245 1.427.53.598.948-.827.418-3.426.417-4.802.417-1.377 0-3.53 0-3.702-.762zM29.597 11.137l-2.925.436 4.07.43z"/></g><g><g><g><g><g><path d="M24.33 52.59c-.152.07-.238.147-.238.23 0 .265.883.48 1.973.48s1.972-.215 1.972-.48c0-.09-.1-.172-.27-.243"/><path d="M24.33 52.43c-.152.07-.238.147-.238.23 0 .265.883.48 1.973.48s1.972-.215 1.972-.48c0-.09-.1-.172-.27-.243"/><path d="M24.33 52.27c-.152.07-.238.147-.238.23 0 .265.883.48 1.973.48s1.972-.215 1.972-.48c0-.09-.1-.172-.27-.243"/><path d="M24.33 52.11c-.152.07-.238.147-.238.23 0 .265.883.48 1.973.48s1.972-.215 1.972-.48c0-.09-.1-.172-.27-.243"/><path d="M24.33 51.95c-.152.07-.238.147-.238.23 0 .265.883.48 1.973.48s1.972-.215 1.972-.48c0-.09-.1-.172-.27-.243"/><path d="M24.33 51.79c-.152.07-.238.147-.238.23 0 .265.883.48 1.973.48s1.972-.215 1.972-.48c0-.09-.1-.172-.27-.243"/><path d="M24.33 51.63c-.152.07-.238.147-.238.23 0 .265.883.48 1.973.48s1.972-.215 1.972-.48c0-.09-.1-.172-.27-.243"/><path d="M24.33 51.472c-.152.068-.238.145-.238.228 0 .265.883.48 1.973.48s1.972-.215 1.972-.48c0-.088-.1-.172-.27-.243"/><path d="M24.33 51.312c-.152.068-.238.146-.238.228 0 .265.883.48 1.973.48s1.972-.215 1.972-.48c0-.088-.1-.17-.27-.243"/><path d="M24.33 51.152c-.152.068-.238.146-.238.228 0 .265.883.48 1.973.48s1.972-.215 1.972-.48c0-.088-.1-.17-.27-.243"/><path d="M24.33 50.992c-.152.068-.238.146-.238.228 0 .265.883.48 1.973.48s1.972-.215 1.972-.48c0-.088-.1-.17-.27-.243"/><path d="M24.33 50.832c-.152.068-.238.146-.238.23 0 .264.883.478 1.973.478s1.972-.214 1.972-.48c0-.088-.1-.17-.27-.243"/><path d="M24.33 50.672c-.152.068-.238.146-.238.23 0 .264.883.478 1.973.478s1.972-.214 1.972-.48c0-.088-.1-.17-.27-.243"/><path d="M24.33 50.512c-.152.068-.238.146-.238.23 0 .264.883.478 1.973.478s1.972-.214 1.972-.48c0-.088-.1-.17-.27-.242"/><path d="M24.33 50.352c-.152.068-.238.146-.238.23 0 .264.883.48 1.973.48s1.972-.216 1.972-.48c0-.09-.1-.173-.27-.244"/><path d="M24.33 50.192c-.152.068-.238.146-.238.23 0 .264.883.48 1.973.48s1.972-.216 1.972-.48c0-.09-.1-.173-.27-.244"/><path d="M24.33 50.032c-.152.068-.238.146-.238.23 0 .264.883.48 1.973.48s1.972-.216 1.972-.48c0-.09-.1-.173-.27-.244"/><path d="M24.33 49.872c-.152.068-.238.146-.238.23 0 .264.883.48 1.973.48s1.972-.216 1.972-.48c0-.09-.1-.173-.27-.244"/><path d="M24.33 49.712c-.152.068-.238.146-.238.23 0 .264.883.48 1.973.48s1.972-.216 1.972-.48c0-.09-.1-.173-.27-.244"/><path d="M24.33 49.552c-.152.068-.238.146-.238.23 0 .264.883.48 1.973.48s1.972-.216 1.972-.48c0-.09-.1-.173-.27-.244"/><path d="M24.33 49.392c-.152.068-.238.146-.238.23 0 .264.883.48 1.973.48s1.972-.216 1.972-.48c0-.09-.1-.173-.27-.244"/><path d="M24.33 49.232c-.152.068-.238.146-.238.23 0 .264.883.48 1.973.48s1.972-.216 1.972-.48c0-.09-.1-.173-.27-.244"/><path d="M24.33 49.073c-.152.067-.238.145-.238.228 0 .266.883.48 1.973.48s1.972-.214 1.972-.48c0-.087-.1-.17-.27-.242"/><path d="M24.33 48.913c-.152.068-.238.145-.238.228 0 .266.883.48 1.973.48s1.972-.214 1.972-.48c0-.087-.1-.17-.27-.242"/><path d="M24.33 48.753c-.152.068-.238.146-.238.228 0 .266.883.48 1.973.48s1.972-.214 1.972-.48c0-.087-.1-.17-.27-.242"/><path d="M24.33 48.593c-.152.068-.238.146-.238.228 0 .266.883.48 1.973.48s1.972-.214 1.972-.48c0-.087-.1-.17-.27-.242"/><path d="M24.33 48.433c-.152.068-.238.146-.238.228 0 .266.883.48 1.973.48s1.972-.214 1.972-.48c0-.087-.1-.17-.27-.242"/><path d="M24.33 48.273c-.152.068-.238.146-.238.23 0 .264.883.478 1.973.478s1.972-.213 1.972-.478c0-.09-.1-.172-.27-.244"/><path d="M24.33 48.113c-.152.068-.238.146-.238.23 0 .264.883.478 1.973.478s1.972-.213 1.972-.478c0-.09-.1-.172-.27-.243"/><path d="M24.33 47.953c-.152.068-.238.146-.238.23 0 .264.883.478 1.973.478s1.972-.213 1.972-.478c0-.09-.1-.172-.27-.243"/><path d="M24.33 47.793c-.152.068-.238.146-.238.23 0 .264.883.48 1.973.48s1.972-.216 1.972-.48c0-.09-.1-.173-.27-.244"/><path d="M24.33 47.633c-.152.068-.238.146-.238.23 0 .264.883.48 1.973.48s1.972-.216 1.972-.48c0-.09-.1-.173-.27-.244"/><path d="M24.33 47.473c-.152.068-.238.146-.238.23 0 .264.883.48 1.973.48s1.972-.216 1.972-.48c0-.09-.1-.173-.27-.244"/><path d="M24.33 47.313c-.152.068-.238.146-.238.23 0 .264.883.48 1.973.48s1.972-.216 1.972-.48c0-.09-.1-.173-.27-.244"/><path d="M24.33 47.153c-.152.068-.238.146-.238.23 0 .264.883.48 1.973.48s1.972-.216 1.972-.48c0-.09-.1-.173-.27-.244"/><path d="M24.33 46.993c-.152.068-.238.146-.238.23 0 .264.883.48 1.973.48s1.972-.216 1.972-.48c0-.09-.1-.173-.27-.244"/><path d="M24.33 46.833c-.152.068-.238.146-.238.23 0 .264.883.48 1.973.48s1.972-.216 1.972-.48c0-.09-.1-.173-.27-.244"/><path d="M24.33 46.673c-.152.068-.238.146-.238.23 0 .264.883.48 1.973.48s1.972-.216 1.972-.48c0-.09-.1-.173-.27-.244"/><path d="M24.33 46.514c-.152.068-.238.145-.238.228 0 .265.883.48 1.973.48s1.972-.215 1.972-.48c0-.088-.1-.172-.27-.243"/><path d="M24.33 46.354c-.152.068-.238.145-.238.228 0 .265.883.48 1.973.48s1.972-.215 1.972-.48c0-.088-.1-.17-.27-.243"/><path d="M24.33 46.194c-.152.068-.238.146-.238.228 0 .265.883.48 1.973.48s1.972-.215 1.972-.48c0-.088-.1-.17-.27-.243"/><path d="M24.33 46.034c-.152.068-.238.146-.238.228 0 .265.883.48 1.973.48s1.972-.215 1.972-.48c0-.088-.1-.17-.27-.243"/><path d="M24.33 45.874c-.152.068-.238.146-.238.228 0 .265.883.48 1.973.48s1.972-.215 1.972-.48c0-.088-.1-.17-.27-.243"/><path d="M24.33 45.714c-.152.068-.238.146-.238.23 0 .264.883.478 1.973.478s1.972-.214 1.972-.48c0-.088-.1-.17-.27-.243"/><path d="M24.33 45.554c-.152.068-.238.146-.238.23 0 .264.883.478 1.973.478s1.972-.214 1.972-.48c0-.088-.1-.17-.27-.242"/><path d="M24.33 45.394c-.152.068-.238.146-.238.23 0 .264.883.478 1.973.478s1.972-.214 1.972-.48c0-.088-.1-.17-.27-.242"/><path d="M24.33 45.234c-.152.068-.238.146-.238.23 0 .264.883.48 1.973.48s1.972-.216 1.972-.48c0-.09-.1-.173-.27-.244"/><path d="M24.33 45.074c-.152.068-.238.146-.238.23 0 .264.883.48 1.973.48s1.972-.216 1.972-.48c0-.09-.1-.173-.27-.244"/><path d="M24.33 44.914c-.152.068-.238.146-.238.23 0 .264.883.48 1.973.48s1.972-.216 1.972-.48"/><path d="M24.092 44.983c0 .265.883.48 1.973.48s1.972-.215 1.972-.48"/></g><g><path d="M24.33 31.48c-.152.067-.238.145-.238.228 0 .265.883.48 1.973.48s1.972-.215 1.972-.48c0-.09-.1-.172-.27-.244"/><path d="M24.33 31.32c-.152.067-.238.145-.238.228 0 .265.883.48 1.973.48s1.972-.215 1.972-.48c0-.09-.1-.172-.27-.244"/><path d="M24.33 31.16c-.152.067-.238.145-.238.228 0 .265.883.48 1.973.48s1.972-.215 1.972-.48c0-.09-.1-.172-.27-.243"/><path d="M24.33 31c-.152.067-.238.145-.238.228 0 .265.883.48 1.973.48s1.972-.215 1.972-.48c0-.09-.1-.172-.27-.243"/><path d="M24.33 30.84c-.152.067-.238.145-.238.228 0 .265.883.48 1.973.48s1.972-.215 1.972-.48c0-.09-.1-.172-.27-.243"/><path d="M24.33 30.68c-.152.067-.238.145-.238.228 0 .265.883.48 1.973.48s1.972-.215 1.972-.48c0-.09-.1-.172-.27-.243"/><path d="M24.33 30.52c-.152.067-.238.145-.238.228 0 .265.883.48 1.973.48s1.972-.215 1.972-.48c0-.09-.1-.172-.27-.243"/><path d="M24.33 30.36c-.152.067-.238.145-.238.228 0 .265.883.48 1.973.48s1.972-.215 1.972-.48c0-.09-.1-.172-.27-.243"/><path d="M24.33 30.2c-.152.067-.238.145-.238.228 0 .265.883.48 1.973.48s1.972-.215 1.972-.48c0-.09-.1-.172-.27-.243"/><path d="M24.33 30.04c-.152.067-.238.145-.238.228 0 .265.883.48 1.973.48s1.972-.215 1.972-.48c0-.09-.1-.172-.27-.243"/><path d="M24.33 29.88c-.152.067-.238.145-.238.228 0 .265.883.48 1.973.48s1.972-.215 1.972-.48c0-.09-.1-.172-.27-.243"/><path d="M24.33 29.72c-.152.067-.238.145-.238.228 0 .265.883.48 1.973.48s1.972-.215 1.972-.48c0-.088-.1-.172-.27-.243"/><path d="M24.33 29.56c-.152.068-.238.145-.238.228 0 .265.883.48 1.973.48s1.972-.215 1.972-.48c0-.088-.1-.172-.27-.243"/><path d="M24.33 29.4c-.152.068-.238.146-.238.228 0 .265.883.48 1.973.48s1.972-.215 1.972-.48c0-.088-.1-.17-.27-.243"/><path d="M24.33 29.24c-.152.068-.238.146-.238.228 0 .265.883.48 1.973.48s1.972-.215 1.972-.48c0-.088-.1-.17-.27-.243"/><path d="M24.33 29.08c-.152.068-.238.146-.238.228 0 .265.883.48 1.973.48s1.972-.215 1.972-.48c0-.088-.1-.17-.27-.243"/><path d="M24.33 28.92c-.152.068-.238.146-.238.23 0 .264.883.478 1.973.478s1.972-.214 1.972-.48c0-.088-.1-.17-.27-.243"/><path d="M24.33 28.76c-.152.068-.238.146-.238.23 0 .264.883.478 1.973.478s1.972-.214 1.972-.48c0-.088-.1-.17-.27-.242"/><path d="M24.33 28.6c-.152.068-.238.146-.238.23 0 .264.883.478 1.973.478s1.972-.214 1.972-.48c0-.088-.1-.17-.27-.242"/><path d="M24.33 28.44c-.152.068-.238.146-.238.23 0 .264.883.48 1.973.48s1.972-.216 1.972-.48c0-.09-.1-.173-.27-.244"/><path d="M24.33 28.28c-.152.068-.238.146-.238.23 0 .264.883.48 1.973.48s1.972-.216 1.972-.48c0-.09-.1-.173-.27-.244"/><path d="M24.33 28.12c-.152.068-.238.146-.238.23 0 .264.883.48 1.973.48s1.972-.216 1.972-.48c0-.09-.1-.173-.27-.244"/><path d="M24.33 27.96c-.152.068-.238.146-.238.23 0 .264.883.48 1.973.48s1.972-.216 1.972-.48c0-.09-.1-.173-.27-.244"/><path d="M24.33 27.8c-.152.068-.238.146-.238.23 0 .264.883.48 1.973.48s1.972-.216 1.972-.48c0-.09-.1-.173-.27-.244"/><path d="M24.33 27.64c-.152.068-.238.146-.238.23 0 .264.883.48 1.973.48s1.972-.216 1.972-.48c0-.09-.1-.173-.27-.244"/><path d="M24.33 27.48c-.152.068-.238.146-.238.23 0 .264.883.48 1.973.48s1.972-.216 1.972-.48c0-.09-.1-.173-.27-.244"/><path d="M24.33 27.32c-.152.068-.238.146-.238.23 0 .264.883.48 1.973.48s1.972-.216 1.972-.48c0-.09-.1-.173-.27-.244"/><path d="M24.33 27.16c-.152.07-.238.146-.238.23 0 .264.883.48 1.973.48s1.972-.216 1.972-.48c0-.09-.1-.173-.27-.244"/><path d="M24.33 27c-.152.07-.238.146-.238.23 0 .264.883.48 1.973.48s1.972-.216 1.972-.48c0-.09-.1-.172-.27-.244"/><path d="M24.33 26.84c-.152.07-.238.147-.238.23 0 .264.883.48 1.973.48s1.972-.216 1.972-.48c0-.09-.1-.172-.27-.244"/><path d="M24.33 26.68c-.152.07-.238.147-.238.23 0 .264.883.48 1.973.48s1.972-.216 1.972-.48c0-.09-.1-.172-.27-.244"/><path d="M24.33 26.52c-.152.07-.238.147-.238.23 0 .264.883.48 1.973.48s1.972-.216 1.972-.48c0-.09-.1-.172-.27-.244"/><path d="M24.33 26.36c-.152.07-.238.147-.238.23 0 .265.883.48 1.973.48s1.972-.215 1.972-.48c0-.09-.1-.172-.27-.244"/><path d="M24.33 26.2c-.152.07-.238.147-.238.23 0 .265.883.48 1.973.48s1.972-.215 1.972-.48c0-.09-.1-.172-.27-.243"/><path d="M24.33 26.04c-.152.07-.238.147-.238.23 0 .265.883.48 1.973.48s1.972-.215 1.972-.48c0-.09-.1-.172-.27-.243"/><path d="M24.33 25.88c-.152.07-.238.147-.238.23 0 .265.883.48 1.973.48s1.972-.215 1.972-.48c0-.09-.1-.172-.27-.243"/><path d="M24.33 25.72c-.152.07-.238.147-.238.23 0 .265.883.48 1.973.48s1.972-.215 1.972-.48c0-.09-.1-.172-.27-.243"/><path d="M24.33 25.56c-.152.07-.238.147-.238.23 0 .265.883.48 1.973.48s1.972-.215 1.972-.48c0-.09-.1-.172-.27-.243"/><path d="M24.33 25.4c-.152.07-.238.147-.238.23 0 .265.883.48 1.973.48s1.972-.215 1.972-.48c0-.09-.1-.172-.27-.243"/><path d="M24.33 25.24c-.152.07-.238.147-.238.23 0 .265.883.48 1.973.48s1.972-.215 1.972-.48c0-.09-.1-.172-.27-.243"/><path d="M24.33 25.08c-.152.07-.238.147-.238.23 0 .265.883.48 1.973.48s1.972-.215 1.972-.48c0-.09-.1-.172-.27-.243"/><path d="M24.33 24.92c-.152.07-.238.147-.238.23 0 .265.883.48 1.973.48s1.972-.215 1.972-.48c0-.09-.1-.172-.27-.243"/><path d="M24.33 24.76c-.152.07-.238.147-.238.23 0 .265.883.48 1.973.48s1.972-.215 1.972-.48c0-.09-.1-.172-.27-.243"/><path d="M24.33 24.602c-.152.068-.238.145-.238.228 0 .265.883.48 1.973.48s1.972-.215 1.972-.48c0-.088-.1-.172-.27-.243"/><path d="M24.33 24.442c-.152.068-.238.146-.238.228 0 .265.883.48 1.973.48s1.972-.215 1.972-.48c0-.088-.1-.17-.27-.243"/><path d="M24.33 24.282c-.152.068-.238.146-.238.228 0 .265.883.48 1.973.48s1.972-.215 1.972-.48c0-.088-.1-.17-.27-.243"/><path d="M24.33 24.122c-.152.068-.238.146-.238.228 0 .265.883.48 1.973.48s1.972-.215 1.972-.48c0-.088-.1-.17-.27-.243"/><path d="M24.33 23.962c-.152.068-.238.146-.238.23 0 .264.883.478 1.973.478s1.972-.214 1.972-.48c0-.088-.1-.17-.27-.243"/><path d="M24.33 23.802c-.152.068-.238.146-.238.23 0 .264.883.478 1.973.478s1.972-.214 1.972-.48"/><path d="M24.092 23.87c0 .266.883.48 1.973.48s1.972-.214 1.972-.48"/><path d="M24.33 23.482c-.152.068-.238.146-.238.23 0 .264.883.48 1.973.48s1.972-.216 1.972-.48c0-.09-.1-.173-.27-.244"/><path d="M24.33 23.322c-.152.068-.238.146-.238.23 0 .264.883.48 1.973.48s1.972-.216 1.972-.48c0-.09-.1-.173-.27-.244"/><path d="M24.33 23.162c-.152.068-.238.146-.238.23 0 .264.883.48 1.973.48s1.972-.216 1.972-.48c0-.09-.1-.173-.27-.244"/><path d="M24.33 23.002c-.152.068-.238.146-.238.23 0 .264.883.48 1.973.48s1.972-.216 1.972-.48"/><path d="M24.092 23.07c0 .266.883.48 1.973.48s1.972-.214 1.972-.48"/><path d="M24.33 22.682c-.152.068-.238.146-.238.23 0 .264.883.48 1.973.48s1.972-.216 1.972-.48c0-.09-.1-.173-.27-.244"/><path d="M24.33 22.522c-.152.068-.238.146-.238.23 0 .264.883.48 1.973.48s1.972-.216 1.972-.48c0-.09-.1-.173-.27-.244"/><path d="M24.33 22.362c-.152.068-.238.146-.238.23 0 .264.883.48 1.973.48s1.972-.216 1.972-.48c0-.09-.1-.173-.27-.244"/><path d="M24.33 22.203c-.152.067-.238.145-.238.228 0 .266.883.48 1.973.48s1.972-.214 1.972-.48"/><path d="M24.092 22.27c0 .266.883.48 1.973.48s1.972-.214 1.972-.48"/><path d="M24.33 21.883c-.152.068-.238.146-.238.228 0 .266.883.48 1.973.48s1.972-.214 1.972-.48c0-.087-.1-.17-.27-.242"/><path d="M24.33 21.723c-.152.068-.238.146-.238.228 0 .266.883.48 1.973.48s1.972-.214 1.972-.48c0-.087-.1-.17-.27-.242"/><path d="M24.33 21.563c-.152.068-.238.146-.238.228 0 .266.883.48 1.973.48s1.972-.214 1.972-.48c0-.087-.1-.17-.27-.242"/><path d="M24.33 21.403c-.152.068-.238.146-.238.23 0 .264.883.478 1.973.478s1.972-.213 1.972-.478"/><path d="M24.092 21.472c0 .265.883.48 1.973.48s1.972-.215 1.972-.48"/><path d="M24.33 21.083c-.152.068-.238.146-.238.23 0 .264.883.478 1.973.478s1.972-.213 1.972-.478c0-.09-.1-.172-.27-.243"/><path d="M24.33 20.923c-.152.068-.238.146-.238.23 0 .264.883.48 1.973.48s1.972-.216 1.972-.48c0-.09-.1-.173-.27-.244"/><path d="M24.33 20.763c-.152.068-.238.146-.238.23 0 .264.883.48 1.973.48s1.972-.216 1.972-.48c0-.09-.1-.173-.27-.244"/><path d="M24.33 20.603c-.152.068-.238.146-.238.23 0 .264.883.48 1.973.48s1.972-.216 1.972-.48"/><path d="M24.092 20.672c0 .265.883.48 1.973.48s1.972-.215 1.972-.48"/><path d="M24.33 20.283c-.152.068-.238.146-.238.23 0 .264.883.48 1.973.48s1.972-.216 1.972-.48c0-.09-.1-.173-.27-.244"/><path d="M24.33 20.123c-.152.068-.238.146-.238.23 0 .264.883.48 1.973.48s1.972-.216 1.972-.48c0-.09-.1-.173-.27-.244"/><path d="M24.33 19.963c-.152.068-.238.146-.238.23 0 .264.883.48 1.973.48s1.972-.216 1.972-.48c0-.09-.1-.173-.27-.244"/><path d="M24.33 19.803c-.152.068-.238.146-.238.23 0 .264.883.48 1.973.48s1.972-.216 1.972-.48"/><path d="M24.092 19.872c0 .265.883.48 1.973.48s1.972-.215 1.972-.48"/><path d="M24.33 19.484c-.152.068-.238.145-.238.228 0 .265.883.48 1.973.48s1.972-.215 1.972-.48c0-.088-.1-.17-.27-.243"/><path d="M24.33 19.324c-.152.068-.238.146-.238.228 0 .265.883.48 1.973.48s1.972-.215 1.972-.48c0-.088-.1-.17-.27-.243"/><path d="M24.33 19.164c-.152.068-.238.146-.238.228 0 .265.883.48 1.973.48s1.972-.215 1.972-.48c0-.088-.1-.17-.27-.243"/><path d="M24.33 19.004c-.152.068-.238.146-.238.228 0 .265.883.48 1.973.48s1.972-.215 1.972-.48"/><path d="M24.092 19.073c0 .265.883.48 1.973.48s1.972-.215 1.972-.48"/><path d="M24.33 18.684c-.152.068-.238.146-.238.23 0 .264.883.478 1.973.478s1.972-.214 1.972-.48c0-.088-.1-.17-.27-.242"/><path d="M24.33 18.524c-.152.068-.238.146-.238.23 0 .264.883.478 1.973.478s1.972-.214 1.972-.48c0-.088-.1-.17-.27-.242"/><path d="M24.33 18.364c-.152.068-.238.146-.238.23 0 .264.883.48 1.973.48s1.972-.216 1.972-.48c0-.09-.1-.173-.27-.244"/><path d="M24.33 18.204c-.152.068-.238.146-.238.23 0 .264.883.48 1.973.48s1.972-.216 1.972-.48"/><path d="M24.092 18.273c0 .265.883.48 1.973.48s1.972-.215 1.972-.48"/><path d="M24.092 18.113c0 .265.883.48 1.973.48s1.972-.215 1.972-.48"/><path d="M24.092 17.953c0 .265.883.48 1.973.48s1.972-.215 1.972-.48"/></g></g><g><path d="M24.33 15.645c-.152.068-.238.146-.238.23 0 .264.883.48 1.973.48s1.972-.216 1.972-.48c0-.09-.1-.173-.27-.244"/><path d="M24.33 15.485c-.152.068-.238.146-.238.23 0 .264.883.48 1.973.48s1.972-.216 1.972-.48c0-.09-.1-.173-.27-.244"/><path d="M24.33 15.325c-.152.068-.238.146-.238.23 0 .264.883.48 1.973.48s1.972-.216 1.972-.48c0-.09-.1-.173-.27-.244"/><path d="M24.33 15.165c-.152.068-.238.146-.238.23 0 .264.883.48 1.973.48s1.972-.216 1.972-.48c0-.09-.1-.173-.27-.244"/><path d="M24.33 15.005c-.152.068-.238.146-.238.23 0 .264.883.48 1.973.48s1.972-.216 1.972-.48c0-.09-.1-.173-.27-.244"/><path d="M24.33 14.846c-.152.068-.238.145-.238.228 0 .265.883.48 1.973.48s1.972-.215 1.972-.48c0-.088-.1-.172-.27-.243"/><path d="M24.33 14.686c-.152.068-.238.145-.238.228 0 .265.883.48 1.973.48s1.972-.215 1.972-.48c0-.088-.1-.17-.27-.243"/><path d="M24.33 14.526c-.152.068-.238.146-.238.228 0 .265.883.48 1.973.48s1.972-.215 1.972-.48c0-.088-.1-.17-.27-.243"/><path d="M24.33 14.366c-.152.068-.238.146-.238.228 0 .265.883.48 1.973.48s1.972-.215 1.972-.48c0-.088-.1-.17-.27-.243"/><path d="M24.33 14.206c-.152.068-.238.146-.238.228 0 .265.883.48 1.973.48s1.972-.215 1.972-.48c0-.088-.1-.17-.27-.243"/><path d="M24.33 14.046c-.152.068-.238.146-.238.23 0 .264.883.478 1.973.478s1.972-.214 1.972-.48c0-.088-.1-.17-.27-.243"/><path d="M24.33 13.886c-.152.068-.238.146-.238.23 0 .264.883.478 1.973.478s1.972-.214 1.972-.48c0-.088-.1-.17-.27-.242"/><path d="M24.33 13.726c-.152.068-.238.146-.238.23 0 .264.883.478 1.973.478s1.972-.214 1.972-.48c0-.088-.1-.17-.27-.242"/><path d="M24.33 13.566c-.152.068-.238.146-.238.23 0 .264.883.48 1.973.48s1.972-.216 1.972-.48c0-.09-.1-.173-.27-.244"/><path d="M24.33 13.406c-.152.068-.238.146-.238.23 0 .264.883.48 1.973.48s1.972-.216 1.972-.48c0-.09-.1-.173-.27-.244"/><path d="M24.33 13.246c-.152.068-.238.146-.238.23 0 .264.883.48 1.973.48s1.972-.216 1.972-.48c0-.09-.1-.173-.27-.244"/><path d="M24.33 13.086c-.152.068-.238.146-.238.23 0 .264.883.48 1.973.48s1.972-.216 1.972-.48c0-.09-.1-.173-.27-.244"/><path d="M24.33 12.926c-.152.068-.238.146-.238.23 0 .264.883.48 1.973.48s1.972-.216 1.972-.48c0-.09-.1-.173-.27-.244"/><path d="M24.33 12.766c-.152.068-.238.146-.238.23 0 .264.883.48 1.973.48s1.972-.216 1.972-.48c0-.09-.1-.173-.27-.244"/><path d="M24.33 12.606c-.152.068-.238.146-.238.23 0 .264.883.48 1.973.48s1.972-.216 1.972-.48c0-.09-.1-.173-.27-.244"/><path d="M24.33 12.446c-.152.068-.238.146-.238.23 0 .264.883.48 1.973.48s1.972-.216 1.972-.48c0-.09-.1-.173-.27-.244"/><path d="M24.33 12.287c-.152.068-.238.145-.238.228 0 .265.883.48 1.973.48s1.972-.215 1.972-.48c0-.088-.1-.172-.27-.243"/><path d="M24.33 12.127c-.152.068-.238.146-.238.228 0 .265.883.48 1.973.48s1.972-.215 1.972-.48c0-.088-.1-.17-.27-.243"/><path d="M24.33 11.967c-.152.068-.238.146-.238.228 0 .265.883.48 1.973.48s1.972-.215 1.972-.48c0-.088-.1-.17-.27-.243"/><path d="M24.33 11.807c-.152.068-.238.146-.238.228 0 .265.883.48 1.973.48s1.972-.215 1.972-.48c0-.088-.1-.17-.27-.243"/><path d="M24.33 11.647c-.152.068-.238.146-.238.23 0 .264.883.478 1.973.478s1.972-.214 1.972-.48c0-.088-.1-.17-.27-.243"/><path d="M24.33 11.487c-.152.068-.238.146-.238.23 0 .264.883.478 1.973.478s1.972-.214 1.972-.48c0-.088-.1-.17-.27-.243"/><path d="M24.33 11.327c-.152.068-.238.146-.238.23 0 .264.883.478 1.973.478s1.972-.214 1.972-.48c0-.088-.1-.17-.27-.242"/><path d="M24.33 11.167c-.152.068-.238.146-.238.23 0 .264.883.48 1.973.48s1.972-.216 1.972-.48c0-.09-.1-.173-.27-.244"/><path d="M24.33 11.007c-.152.068-.238.146-.238.23 0 .264.883.48 1.973.48s1.972-.216 1.972-.48c0-.09-.1-.173-.27-.244"/><path d="M24.33 10.847c-.152.068-.238.146-.238.23 0 .264.883.48 1.973.48s1.972-.216 1.972-.48c0-.09-.1-.173-.27-.244"/><path d="M24.33 10.687c-.152.068-.238.146-.238.23 0 .264.883.48 1.973.48s1.972-.216 1.972-.48c0-.09-.1-.173-.27-.244"/><path d="M24.33 10.527c-.152.068-.238.146-.238.23 0 .264.883.48 1.973.48s1.972-.216 1.972-.48c0-.09-.1-.173-.27-.244"/><path d="M24.33 10.367c-.152.068-.238.146-.238.23 0 .264.883.48 1.973.48s1.972-.216 1.972-.48c0-.09-.1-.173-.27-.244"/><path d="M24.33 10.207c-.152.068-.238.146-.238.23 0 .264.883.48 1.973.48s1.972-.216 1.972-.48c0-.09-.1-.173-.27-.244"/><path d="M24.33 10.047c-.152.068-.238.146-.238.23 0 .264.883.48 1.973.48s1.972-.216 1.972-.48c0-.09-.1-.173-.27-.244"/><path d="M24.33 9.888c-.152.067-.238.145-.238.228 0 .265.883.48 1.973.48s1.972-.215 1.972-.48c0-.088-.1-.172-.27-.243"/><path d="M24.33 9.728c-.152.068-.238.145-.238.228 0 .265.883.48 1.973.48s1.972-.215 1.972-.48c0-.088-.1-.172-.27-.243"/><path d="M24.33 9.568c-.152.068-.238.146-.238.228 0 .265.883.48 1.973.48s1.972-.215 1.972-.48c0-.088-.1-.17-.27-.243"/><path d="M24.33 9.408c-.152.068-.238.146-.238.228 0 .265.883.48 1.973.48s1.972-.215 1.972-.48c0-.088-.1-.17-.27-.243"/><path d="M24.33 9.248c-.152.068-.238.146-.238.228 0 .265.883.48 1.973.48s1.972-.215 1.972-.48c0-.088-.1-.17-.27-.243"/><path d="M24.33 9.088c-.152.068-.238.146-.238.23 0 .264.883.478 1.973.478s1.972-.214 1.972-.48c0-.088-.1-.17-.27-.243"/><path d="M24.33 8.928c-.152.068-.238.146-.238.23 0 .264.883.478 1.973.478s1.972-.214 1.972-.48c0-.088-.1-.17-.27-.242"/><path d="M24.33 8.768c-.152.068-.238.146-.238.23 0 .264.883.478 1.973.478s1.972-.214 1.972-.48c0-.088-.1-.17-.27-.242"/><path d="M24.33 8.608c-.152.068-.238.146-.238.23 0 .264.883.48 1.973.48s1.972-.216 1.972-.48c0-.09-.1-.173-.27-.244"/><path d="M24.33 8.448c-.152.068-.238.146-.238.23 0 .264.883.48 1.973.48s1.972-.216 1.972-.48c0-.09-.1-.173-.27-.244"/><path d="M24.33 8.288c-.152.068-.238.146-.238.23 0 .264.883.48 1.973.48s1.972-.216 1.972-.48c0-.09-.1-.173-.27-.244"/><path d="M24.33 8.128c-.152.068-.238.146-.238.23 0 .264.883.48 1.973.48s1.972-.216 1.972-.48c0-.09-.1-.173-.27-.244"/><path d="M24.33 7.968c-.152.068-.238.146-.238.23 0 .264.883.48 1.973.48s1.972-.216 1.972-.48"/><path d="M24.092 8.037c0 .265.883.48 1.973.48s1.972-.215 1.972-.48"/><path d="M24.33 7.648c-.152.068-.238.146-.238.23 0 .264.883.48 1.973.48s1.972-.216 1.972-.48c0-.09-.1-.173-.27-.244"/><path d="M24.33 7.488c-.152.068-.238.146-.238.23 0 .264.883.48 1.973.48s1.972-.216 1.972-.48c0-.09-.1-.173-.27-.244"/><path d="M24.33 7.33c-.152.067-.238.144-.238.227 0 .265.883.48 1.973.48s1.972-.215 1.972-.48c0-.088-.1-.172-.27-.243"/><path d="M24.33 7.17c-.152.067-.238.144-.238.227 0 .265.883.48 1.973.48s1.972-.215 1.972-.48"/><path d="M24.092 7.237c0 .265.883.48 1.973.48s1.972-.215 1.972-.48"/><path d="M24.33 6.85c-.152.067-.238.145-.238.227 0 .265.883.48 1.973.48s1.972-.215 1.972-.48c0-.088-.1-.17-.27-.243"/><path d="M24.33 6.69c-.152.067-.238.145-.238.227 0 .265.883.48 1.973.48s1.972-.215 1.972-.48c0-.088-.1-.17-.27-.243"/><path d="M24.33 6.53c-.152.067-.238.145-.238.228 0 .265.883.48 1.973.48s1.972-.215 1.972-.48c0-.09-.1-.172-.27-.244"/><path d="M24.33 6.37c-.152.067-.238.145-.238.228 0 .265.883.48 1.973.48s1.972-.215 1.972-.48"/><path d="M24.092 6.438c0 .265.883.48 1.973.48s1.972-.215 1.972-.48"/><path d="M24.33 6.05c-.152.067-.238.145-.238.228 0 .265.883.48 1.973.48s1.972-.215 1.972-.48c0-.09-.1-.172-.27-.243"/><path d="M24.33 5.89c-.152.067-.238.145-.238.228 0 .265.883.48 1.973.48s1.972-.215 1.972-.48c0-.09-.1-.172-.27-.243"/><path d="M24.33 5.73c-.152.067-.238.145-.238.228 0 .265.883.48 1.973.48s1.972-.215 1.972-.48c0-.09-.1-.172-.27-.243"/><path d="M24.092 5.798c0 .265.883.48 1.973.48s1.972-.215 1.972-.48"/><path d="M24.207 5.8c.272.185 1 .318 1.858.318.85 0 1.573-.13 1.85-.314"/></g></g><path d="M20.747 3.765V5.08s.955.883 2.29.883 3.298.144 5.65 0c2.353-.145 2.617-.826 2.617-.826l.008-1.35m-7.442 9.208c-.913 0-2.08.727-2.08 2.245 0 1.518 1.976 1.95 4.094 1.95 2.117 0 4.325-.663 4.325-2.254 0-1.59-1.95-1.935-2.225-1.935"/><path d="M23.993 14.02c-.468.18-.887.596-.887 1.268 0 .926 1.35 1.19 2.797 1.19s2.997-.503 2.997-1.474c0-.38-.443-.805-.702-.984"/><path d="M21.79 15.106c-.527 2.425 1.976 3.044 4.094 3.044 2.117 0 5.27-.735 4.325-3.52"/></g><path d="M22.28 3.04c-.445 0-1.48.27-1.48.85 0 .577 1.897.888 2.32.888.424 0 4.544.256 6.31-.14 1.767-.395 1.82-.765 1.82-.948 0-.184-.772-.627-1.296-.64"/><path d="M24.41 1.67c-.307 0-1.558.506-2.04 1.4-.485.892.483 1.018 1.26 1.018.78 0 4.138.18 4.895-.023.757-.203 2.27-.19 1.135-1.292s-1.85-1.307-1.85-1.307"/><path d="M26.022 1.133s-1.578.36-1.578.55c0 .187.902.314 1.508.314.607 0 1.916-.148 1.916-.4 0-.254-1.846-.464-1.846-.464z"/></g><g><g><g><g><path d="M50.96 41.715c-.15.068-.237.146-.237.23 0 .264.883.48 1.973.48s1.972-.216 1.972-.48c0-.09-.1-.173-.27-.244"/><path d="M50.96 41.555c-.15.068-.237.146-.237.23 0 .264.883.48 1.973.48s1.972-.216 1.972-.48c0-.09-.1-.173-.27-.244"/><path d="M50.96 41.396c-.15.068-.237.145-.237.228 0 .265.883.48 1.973.48s1.972-.215 1.972-.48c0-.088-.1-.172-.27-.243"/><path d="M50.96 41.236c-.15.068-.237.146-.237.228 0 .265.883.48 1.973.48s1.972-.215 1.972-.48c0-.088-.1-.17-.27-.243"/><path d="M50.96 41.076c-.15.068-.237.146-.237.228 0 .265.883.48 1.973.48s1.972-.215 1.972-.48c0-.088-.1-.17-.27-.243"/><path d="M50.96 40.916c-.15.068-.237.146-.237.228 0 .265.883.48 1.973.48s1.972-.215 1.972-.48c0-.088-.1-.17-.27-.243"/><path d="M50.96 40.756c-.15.068-.237.146-.237.23 0 .264.883.478 1.973.478s1.972-.214 1.972-.48c0-.088-.1-.17-.27-.243"/><path d="M50.96 40.596c-.15.068-.237.146-.237.23 0 .264.883.478 1.973.478s1.972-.214 1.972-.48c0-.088-.1-.17-.27-.243"/><path d="M50.96 40.436c-.15.068-.237.146-.237.23 0 .264.883.478 1.973.478s1.972-.214 1.972-.48c0-.088-.1-.17-.27-.242"/><path d="M50.96 40.276c-.15.068-.237.146-.237.23 0 .264.883.48 1.973.48s1.972-.216 1.972-.48c0-.09-.1-.173-.27-.244"/><path d="M50.96 40.116c-.15.068-.237.146-.237.23 0 .264.883.48 1.973.48s1.972-.216 1.972-.48c0-.09-.1-.173-.27-.244"/><path d="M50.96 39.956c-.15.068-.237.146-.237.23 0 .264.883.48 1.973.48s1.972-.216 1.972-.48c0-.09-.1-.173-.27-.244"/><path d="M50.96 39.796c-.15.068-.237.146-.237.23 0 .264.883.48 1.973.48s1.972-.216 1.972-.48c0-.09-.1-.173-.27-.244"/><path d="M50.96 39.636c-.15.068-.237.146-.237.23 0 .264.883.48 1.973.48s1.972-.216 1.972-.48c0-.09-.1-.173-.27-.244"/><path d="M50.96 39.476c-.15.068-.237.146-.237.23 0 .264.883.48 1.973.48s1.972-.216 1.972-.48c0-.09-.1-.173-.27-.244"/><path d="M50.96 39.316c-.15.068-.237.146-.237.23 0 .264.883.48 1.973.48s1.972-.216 1.972-.48c0-.09-.1-.173-.27-.244"/><path d="M50.96 39.156c-.15.068-.237.146-.237.23 0 .264.883.48 1.973.48s1.972-.216 1.972-.48c0-.09-.1-.173-.27-.244"/><path d="M50.96 38.997c-.15.067-.237.145-.237.228 0 .265.883.48 1.973.48s1.972-.215 1.972-.48c0-.088-.1-.172-.27-.243"/><path d="M50.96 38.837c-.15.068-.237.145-.237.228 0 .265.883.48 1.973.48s1.972-.215 1.972-.48c0-.088-.1-.172-.27-.243"/><path d="M50.96 38.677c-.15.068-.237.146-.237.228 0 .265.883.48 1.973.48s1.972-.215 1.972-.48c0-.088-.1-.17-.27-.243"/><path d="M50.96 38.517c-.15.068-.237.146-.237.228 0 .265.883.48 1.973.48s1.972-.215 1.972-.48c0-.088-.1-.17-.27-.243"/><path d="M50.96 38.357c-.15.068-.237.146-.237.228 0 .265.883.48 1.973.48s1.972-.215 1.972-.48c0-.088-.1-.17-.27-.243"/><path d="M50.96 38.197c-.15.068-.237.146-.237.23 0 .264.883.478 1.973.478s1.972-.214 1.972-.48c0-.088-.1-.17-.27-.243"/><path d="M50.96 38.037c-.15.068-.237.146-.237.23 0 .264.883.478 1.973.478s1.972-.214 1.972-.48c0-.088-.1-.17-.27-.242"/><path d="M50.96 37.877c-.15.068-.237.146-.237.23 0 .264.883.478 1.973.478s1.972-.214 1.972-.48c0-.088-.1-.17-.27-.242"/><path d="M50.96 37.717c-.15.068-.237.146-.237.23 0 .264.883.48 1.973.48s1.972-.216 1.972-.48c0-.09-.1-.173-.27-.244"/><path d="M50.96 37.557c-.15.068-.237.146-.237.23 0 .264.883.48 1.973.48s1.972-.216 1.972-.48c0-.09-.1-.173-.27-.244"/><path d="M50.96 37.397c-.15.068-.237.146-.237.23 0 .264.883.48 1.973.48s1.972-.216 1.972-.48c0-.09-.1-.173-.27-.244"/><path d="M50.96 37.237c-.15.068-.237.146-.237.23 0 .264.883.48 1.973.48s1.972-.216 1.972-.48c0-.09-.1-.173-.27-.244"/><path d="M50.96 37.077c-.15.068-.237.146-.237.23 0 .264.883.48 1.973.48s1.972-.216 1.972-.48c0-.09-.1-.173-.27-.244"/><path d="M50.96 36.917c-.15.068-.237.146-.237.23 0 .264.883.48 1.973.48s1.972-.216 1.972-.48c0-.09-.1-.173-.27-.244"/><path d="M50.96 36.757c-.15.068-.237.146-.237.23 0 .264.883.48 1.973.48s1.972-.216 1.972-.48c0-.09-.1-.173-.27-.244"/><path d="M50.96 36.597c-.15.068-.237.146-.237.23 0 .264.883.48 1.973.48s1.972-.216 1.972-.48c0-.09-.1-.173-.27-.244"/><path d="M50.96 36.438c-.15.068-.237.145-.237.228 0 .265.883.48 1.973.48s1.972-.215 1.972-.48c0-.088-.1-.172-.27-.243"/><path d="M50.96 36.278c-.15.068-.237.145-.237.228 0 .265.883.48 1.973.48s1.972-.215 1.972-.48c0-.088-.1-.17-.27-.243"/><path d="M50.96 36.118c-.15.068-.237.146-.237.228 0 .265.883.48 1.973.48s1.972-.215 1.972-.48c0-.088-.1-.17-.27-.243"/><path d="M50.96 35.958c-.15.068-.237.146-.237.228 0 .265.883.48 1.973.48s1.972-.215 1.972-.48c0-.088-.1-.17-.27-.243"/><path d="M50.96 35.798c-.15.068-.237.146-.237.228 0 .265.883.48 1.973.48s1.972-.215 1.972-.48c0-.088-.1-.17-.27-.243"/><path d="M50.96 35.638c-.15.068-.237.146-.237.23 0 .264.883.478 1.973.478s1.972-.214 1.972-.48c0-.088-.1-.17-.27-.243"/><path d="M50.96 35.478c-.15.068-.237.146-.237.23 0 .264.883.478 1.973.478s1.972-.214 1.972-.48c0-.088-.1-.17-.27-.242"/><path d="M50.96 35.318c-.15.068-.237.146-.237.23 0 .264.883.478 1.973.478s1.972-.214 1.972-.48c0-.088-.1-.17-.27-.242"/><path d="M50.96 35.158c-.15.068-.237.146-.237.23 0 .264.883.48 1.973.48s1.972-.216 1.972-.48c0-.09-.1-.173-.27-.244"/><path d="M50.96 34.998c-.15.068-.237.146-.237.23 0 .264.883.48 1.973.48s1.972-.216 1.972-.48c0-.09-.1-.173-.27-.244"/><path d="M50.96 34.838c-.15.068-.237.146-.237.23 0 .264.883.48 1.973.48s1.972-.216 1.972-.48c0-.09-.1-.173-.27-.244"/><path d="M50.96 34.678c-.15.068-.237.146-.237.23 0 .264.883.48 1.973.48s1.972-.216 1.972-.48c0-.09-.1-.173-.27-.244"/><path d="M50.96 34.518c-.15.068-.237.146-.237.23 0 .264.883.48 1.973.48s1.972-.216 1.972-.48c0-.09-.1-.173-.27-.244"/><path d="M50.96 34.358c-.15.068-.237.146-.237.23 0 .264.883.48 1.973.48s1.972-.216 1.972-.48c0-.09-.1-.173-.27-.244"/><path d="M50.96 34.198c-.15.068-.237.146-.237.23 0 .264.883.48 1.973.48s1.972-.216 1.972-.48c0-.09-.1-.173-.27-.244"/><path d="M50.96 34.038c-.15.068-.237.146-.237.23 0 .264.883.48 1.973.48s1.972-.216 1.972-.48"/><path d="M50.723 34.107c0 .265.883.48 1.973.48s1.972-.215 1.972-.48"/><path d="M50.96 33.72c-.15.067-.237.145-.237.227 0 .265.883.48 1.973.48s1.972-.215 1.972-.48c0-.088-.1-.17-.27-.243"/><path d="M50.96 33.56c-.15.067-.237.145-.237.227 0 .265.883.48 1.973.48s1.972-.215 1.972-.48c0-.088-.1-.17-.27-.243"/><path d="M50.96 33.4c-.15.067-.237.145-.237.227 0 .265.883.48 1.973.48s1.972-.215 1.972-.48c0-.088-.1-.17-.27-.243"/><path d="M50.96 33.24c-.15.067-.237.145-.237.228 0 .265.883.48 1.973.48s1.972-.215 1.972-.48"/><path d="M50.723 33.308c0 .265.883.48 1.973.48s1.972-.215 1.972-.48"/><path d="M50.96 32.92c-.15.067-.237.145-.237.228 0 .265.883.48 1.973.48s1.972-.215 1.972-.48c0-.09-.1-.172-.27-.243"/><path d="M50.96 32.76c-.15.067-.237.145-.237.228 0 .265.883.48 1.973.48s1.972-.215 1.972-.48c0-.09-.1-.172-.27-.243"/><path d="M50.96 32.6c-.15.067-.237.145-.237.228 0 .265.883.48 1.973.48s1.972-.215 1.972-.48c0-.09-.1-.172-.27-.243"/><path d="M50.96 32.44c-.15.067-.237.145-.237.228 0 .265.883.48 1.973.48s1.972-.215 1.972-.48"/><path d="M50.723 32.508c0 .265.883.48 1.973.48s1.972-.215 1.972-.48"/><path d="M50.96 32.12c-.15.067-.237.145-.237.228 0 .265.883.48 1.973.48s1.972-.215 1.972-.48c0-.09-.1-.172-.27-.243"/><path d="M50.96 31.96c-.15.067-.237.145-.237.228 0 .265.883.48 1.973.48s1.972-.215 1.972-.48c0-.09-.1-.172-.27-.243"/><path d="M50.96 31.8c-.15.067-.237.145-.237.228 0 .265.883.48 1.973.48s1.972-.215 1.972-.48c0-.09-.1-.172-.27-.243"/><path d="M50.96 31.64c-.15.067-.237.145-.237.228 0 .265.883.48 1.973.48s1.972-.215 1.972-.48"/><path d="M50.723 31.708c0 .265.883.48 1.973.48s1.972-.215 1.972-.48"/><path d="M50.96 31.32c-.15.068-.237.145-.237.228 0 .265.883.48 1.973.48s1.972-.215 1.972-.48c0-.088-.1-.172-.27-.243"/><path d="M50.96 31.16c-.15.068-.237.146-.237.228 0 .265.883.48 1.973.48s1.972-.215 1.972-.48c0-.088-.1-.17-.27-.243"/><path d="M50.96 31c-.15.068-.237.146-.237.228 0 .265.883.48 1.973.48s1.972-.215 1.972-.48c0-.088-.1-.17-.27-.243"/><path d="M50.96 30.84c-.15.068-.237.146-.237.228 0 .265.883.48 1.973.48s1.972-.215 1.972-.48"/><path d="M50.723 30.91c0 .264.883.48 1.973.48s1.972-.216 1.972-.48"/><path d="M50.96 30.52c-.15.068-.237.146-.237.23 0 .264.883.478 1.973.478s1.972-.214 1.972-.48c0-.088-.1-.17-.27-.242"/><path d="M50.96 30.36c-.15.068-.237.146-.237.23 0 .264.883.478 1.973.478s1.972-.214 1.972-.48c0-.088-.1-.17-.27-.242"/><path d="M50.96 30.2c-.15.068-.237.146-.237.23 0 .264.883.48 1.973.48s1.972-.216 1.972-.48c0-.09-.1-.173-.27-.244"/><path d="M50.96 30.04c-.15.068-.237.146-.237.23 0 .264.883.48 1.973.48s1.972-.216 1.972-.48"/><path d="M50.723 30.11c0 .264.883.48 1.973.48s1.972-.216 1.972-.48"/><path d="M50.96 29.72c-.15.068-.237.146-.237.23 0 .264.883.48 1.973.48s1.972-.216 1.972-.48c0-.09-.1-.173-.27-.244"/><path d="M50.96 29.56c-.15.068-.237.146-.237.23 0 .264.883.48 1.973.48s1.972-.216 1.972-.48c0-.09-.1-.173-.27-.244"/><path d="M50.96 29.4c-.15.068-.237.146-.237.23 0 .264.883.48 1.973.48s1.972-.216 1.972-.48c0-.09-.1-.173-.27-.244"/><path d="M50.96 29.24c-.15.068-.237.146-.237.23 0 .264.883.48 1.973.48s1.972-.216 1.972-.48"/><path d="M50.723 29.31c0 .264.883.48 1.973.48s1.972-.216 1.972-.48"/><path d="M50.96 28.92c-.15.07-.237.146-.237.23 0 .264.883.48 1.973.48s1.972-.216 1.972-.48c0-.09-.1-.173-.27-.244"/><path d="M50.96 28.76c-.15.07-.237.146-.237.23 0 .264.883.48 1.973.48s1.972-.216 1.972-.48c0-.09-.1-.172-.27-.244"/><path d="M50.96 28.6c-.15.07-.237.147-.237.23 0 .264.883.48 1.973.48s1.972-.216 1.972-.48c0-.09-.1-.172-.27-.244"/><path d="M50.96 28.44c-.15.07-.237.147-.237.23 0 .264.883.48 1.973.48s1.972-.216 1.972-.48"/><path d="M50.723 28.51c0 .265.883.48 1.973.48s1.972-.215 1.972-.48"/><path d="M50.723 28.35c0 .265.883.48 1.973.48s1.972-.215 1.972-.48"/><path d="M50.723 28.19c0 .265.883.48 1.973.48s1.972-.215 1.972-.48"/><path d="M50.96 27.8c-.15.07-.237.147-.237.23 0 .265.883.48 1.973.48s1.972-.215 1.972-.48c0-.09-.1-.172-.27-.243"/><path d="M50.96 27.64c-.15.07-.237.147-.237.23 0 .265.883.48 1.973.48s1.972-.215 1.972-.48"/><path d="M50.723 27.71c0 .265.883.48 1.973.48s1.972-.215 1.972-.48"/><path d="M50.723 27.55c0 .265.883.48 1.973.48s1.972-.215 1.972-.48"/><path d="M50.723 27.39c0 .265.883.48 1.973.48s1.972-.215 1.972-.48"/><path d="M50.723 27.23c0 .265.883.48 1.973.48s1.972-.215 1.972-.48"/></g><g><path d="M50.96 24.922c-.15.068-.237.146-.237.228 0 .265.883.48 1.973.48s1.972-.215 1.972-.48c0-.088-.1-.17-.27-.243"/><path d="M50.96 24.762c-.15.068-.237.146-.237.23 0 .264.883.478 1.973.478s1.972-.214 1.972-.48c0-.088-.1-.17-.27-.243"/><path d="M50.96 24.602c-.15.068-.237.146-.237.23 0 .264.883.478 1.973.478s1.972-.214 1.972-.48c0-.088-.1-.17-.27-.242"/><path d="M50.96 24.442c-.15.068-.237.146-.237.23 0 .264.883.478 1.973.478s1.972-.214 1.972-.48c0-.088-.1-.17-.27-.242"/><path d="M50.96 24.282c-.15.068-.237.146-.237.23 0 .264.883.48 1.973.48s1.972-.216 1.972-.48c0-.09-.1-.173-.27-.244"/><path d="M50.96 24.122c-.15.068-.237.146-.237.23 0 .264.883.48 1.973.48s1.972-.216 1.972-.48c0-.09-.1-.173-.27-.244"/><path d="M50.96 23.962c-.15.068-.237.146-.237.23 0 .264.883.48 1.973.48s1.972-.216 1.972-.48c0-.09-.1-.173-.27-.244"/><path d="M50.96 23.802c-.15.068-.237.146-.237.23 0 .264.883.48 1.973.48s1.972-.216 1.972-.48c0-.09-.1-.173-.27-.244"/><path d="M50.96 23.642c-.15.068-.237.146-.237.23 0 .264.883.48 1.973.48s1.972-.216 1.972-.48c0-.09-.1-.173-.27-.244"/><path d="M50.96 23.482c-.15.068-.237.146-.237.23 0 .264.883.48 1.973.48s1.972-.216 1.972-.48c0-.09-.1-.173-.27-.244"/><path d="M50.96 23.322c-.15.068-.237.146-.237.23 0 .264.883.48 1.973.48s1.972-.216 1.972-.48c0-.09-.1-.173-.27-.244"/><path d="M50.96 23.162c-.15.068-.237.146-.237.23 0 .264.883.48 1.973.48s1.972-.216 1.972-.48c0-.09-.1-.173-.27-.244"/><path d="M50.96 23.003c-.15.068-.237.145-.237.228 0 .266.883.48 1.973.48s1.972-.214 1.972-.48c0-.087-.1-.17-.27-.242"/><path d="M50.96 22.843c-.15.068-.237.146-.237.228 0 .266.883.48 1.973.48s1.972-.214 1.972-.48c0-.087-.1-.17-.27-.242"/><path d="M50.96 22.683c-.15.068-.237.146-.237.228 0 .266.883.48 1.973.48s1.972-.214 1.972-.48c0-.087-.1-.17-.27-.242"/><path d="M50.96 22.523c-.15.068-.237.146-.237.228 0 .266.883.48 1.973.48s1.972-.214 1.972-.48c0-.087-.1-.17-.27-.242"/><path d="M50.96 22.363c-.15.068-.237.146-.237.23 0 .264.883.478 1.973.478s1.972-.213 1.972-.478c0-.09-.1-.172-.27-.244"/><path d="M50.96 22.203c-.15.068-.237.146-.237.23 0 .264.883.478 1.973.478s1.972-.213 1.972-.478c0-.09-.1-.172-.27-.244"/><path d="M50.96 22.043c-.15.068-.237.146-.237.23 0 .264.883.478 1.973.478s1.972-.213 1.972-.478c0-.09-.1-.172-.27-.243"/><path d="M50.96 21.883c-.15.068-.237.146-.237.23 0 .264.883.48 1.973.48s1.972-.216 1.972-.48c0-.09-.1-.173-.27-.244"/><path d="M50.96 21.723c-.15.068-.237.146-.237.23 0 .264.883.48 1.973.48s1.972-.216 1.972-.48c0-.09-.1-.173-.27-.244"/><path d="M50.96 21.563c-.15.068-.237.146-.237.23 0 .264.883.48 1.973.48s1.972-.216 1.972-.48c0-.09-.1-.173-.27-.244"/><path d="M50.96 21.403c-.15.068-.237.146-.237.23 0 .264.883.48 1.973.48s1.972-.216 1.972-.48c0-.09-.1-.173-.27-.244"/><path d="M50.96 21.243c-.15.068-.237.146-.237.23 0 .264.883.48 1.973.48s1.972-.216 1.972-.48c0-.09-.1-.173-.27-.244"/><path d="M50.96 21.083c-.15.068-.237.146-.237.23 0 .264.883.48 1.973.48s1.972-.216 1.972-.48c0-.09-.1-.173-.27-.244"/><path d="M50.96 20.923c-.15.068-.237.146-.237.23 0 .264.883.48 1.973.48s1.972-.216 1.972-.48c0-.09-.1-.173-.27-.244"/><path d="M50.96 20.763c-.15.068-.237.146-.237.23 0 .264.883.48 1.973.48s1.972-.216 1.972-.48c0-.09-.1-.173-.27-.244"/><path d="M50.96 20.604c-.15.067-.237.145-.237.228 0 .265.883.48 1.973.48s1.972-.215 1.972-.48c0-.088-.1-.172-.27-.243"/><path d="M50.96 20.444c-.15.068-.237.145-.237.228 0 .265.883.48 1.973.48s1.972-.215 1.972-.48c0-.088-.1-.172-.27-.243"/><path d="M50.96 20.284c-.15.068-.237.146-.237.228 0 .265.883.48 1.973.48s1.972-.215 1.972-.48c0-.088-.1-.17-.27-.243"/><path d="M50.96 20.124c-.15.068-.237.146-.237.228 0 .265.883.48 1.973.48s1.972-.215 1.972-.48c0-.088-.1-.17-.27-.243"/><path d="M50.96 19.964c-.15.068-.237.146-.237.228 0 .265.883.48 1.973.48s1.972-.215 1.972-.48c0-.088-.1-.17-.27-.243"/><path d="M50.96 19.804c-.15.068-.237.146-.237.23 0 .264.883.478 1.973.478s1.972-.214 1.972-.48c0-.088-.1-.17-.27-.243"/><path d="M50.96 19.644c-.15.068-.237.146-.237.23 0 .264.883.478 1.973.478s1.972-.214 1.972-.48c0-.088-.1-.17-.27-.242"/><path d="M50.96 19.484c-.15.068-.237.146-.237.23 0 .264.883.478 1.973.478s1.972-.214 1.972-.48c0-.088-.1-.17-.27-.242"/><path d="M50.96 19.324c-.15.068-.237.146-.237.23 0 .264.883.48 1.973.48s1.972-.216 1.972-.48c0-.09-.1-.173-.27-.244"/><path d="M50.96 19.164c-.15.068-.237.146-.237.23 0 .264.883.48 1.973.48s1.972-.216 1.972-.48c0-.09-.1-.173-.27-.244"/><path d="M50.96 19.004c-.15.068-.237.146-.237.23 0 .264.883.48 1.973.48s1.972-.216 1.972-.48c0-.09-.1-.173-.27-.244"/><path d="M50.96 18.844c-.15.068-.237.146-.237.23 0 .264.883.48 1.973.48s1.972-.216 1.972-.48c0-.09-.1-.173-.27-.244"/><path d="M50.96 18.684c-.15.068-.237.146-.237.23 0 .264.883.48 1.973.48s1.972-.216 1.972-.48c0-.09-.1-.173-.27-.244"/><path d="M50.96 18.524c-.15.068-.237.146-.237.23 0 .264.883.48 1.973.48s1.972-.216 1.972-.48c0-.09-.1-.173-.27-.244"/><path d="M50.96 18.364c-.15.068-.237.146-.237.23 0 .264.883.48 1.973.48s1.972-.216 1.972-.48c0-.09-.1-.173-.27-.244"/><path d="M50.96 18.204c-.15.068-.237.146-.237.23 0 .264.883.48 1.973.48s1.972-.216 1.972-.48c0-.09-.1-.173-.27-.244"/><path d="M50.96 18.045c-.15.068-.237.145-.237.228 0 .265.883.48 1.973.48s1.972-.215 1.972-.48c0-.088-.1-.172-.27-.243"/><path d="M50.96 17.885c-.15.068-.237.145-.237.228 0 .265.883.48 1.973.48s1.972-.215 1.972-.48c0-.088-.1-.17-.27-.243"/><path d="M50.96 17.725c-.15.068-.237.146-.237.228 0 .265.883.48 1.973.48s1.972-.215 1.972-.48c0-.088-.1-.17-.27-.243"/><path d="M50.96 17.565c-.15.068-.237.146-.237.228 0 .265.883.48 1.973.48s1.972-.215 1.972-.48c0-.088-.1-.17-.27-.243"/><path d="M50.96 17.405c-.15.068-.237.146-.237.228 0 .265.883.48 1.973.48s1.972-.215 1.972-.48c0-.088-.1-.17-.27-.243"/><path d="M50.96 17.245c-.15.068-.237.146-.237.23 0 .264.883.478 1.973.478s1.972-.214 1.972-.48"/><path d="M50.723 17.314c0 .265.883.48 1.973.48s1.972-.215 1.972-.48"/><path d="M50.96 16.925c-.15.068-.237.146-.237.23 0 .264.883.478 1.973.478s1.972-.214 1.972-.48c0-.088-.1-.17-.27-.242"/><path d="M50.96 16.765c-.15.068-.237.146-.237.23 0 .264.883.48 1.973.48s1.972-.216 1.972-.48c0-.09-.1-.173-.27-.244"/><path d="M50.96 16.605c-.15.068-.237.146-.237.23 0 .264.883.48 1.973.48s1.972-.216 1.972-.48c0-.09-.1-.173-.27-.244"/><path d="M50.96 16.445c-.15.068-.237.146-.237.23 0 .264.883.48 1.973.48s1.972-.216 1.972-.48"/><path d="M50.723 16.514c0 .265.883.48 1.973.48s1.972-.215 1.972-.48"/></g><g><path d="M50.96 59.788c-.15.068-.237.146-.237.23 0 .264.883.478 1.973.478s1.972-.214 1.972-.48c0-.088-.1-.17-.27-.243"/><path d="M50.96 59.628c-.15.068-.237.146-.237.23 0 .264.883.478 1.973.478s1.972-.214 1.972-.48c0-.088-.1-.17-.27-.243"/><path d="M50.96 59.468c-.15.068-.237.146-.237.23 0 .264.883.478 1.973.478s1.972-.214 1.972-.48c0-.088-.1-.17-.27-.242"/><path d="M50.96 59.308c-.15.068-.237.146-.237.23 0 .264.883.48 1.973.48s1.972-.216 1.972-.48c0-.09-.1-.173-.27-.244"/><path d="M50.96 59.148c-.15.068-.237.146-.237.23 0 .264.883.48 1.973.48s1.972-.216 1.972-.48c0-.09-.1-.173-.27-.244"/><path d="M50.96 58.988c-.15.068-.237.146-.237.23 0 .264.883.48 1.973.48s1.972-.216 1.972-.48c0-.09-.1-.173-.27-.244"/><path d="M50.96 58.828c-.15.068-.237.146-.237.23 0 .264.883.48 1.973.48s1.972-.216 1.972-.48c0-.09-.1-.173-.27-.244"/><path d="M50.96 58.668c-.15.068-.237.146-.237.23 0 .264.883.48 1.973.48s1.972-.216 1.972-.48c0-.09-.1-.173-.27-.244"/><path d="M50.96 58.508c-.15.068-.237.146-.237.23 0 .264.883.48 1.973.48s1.972-.216 1.972-.48c0-.09-.1-.173-.27-.244"/><path d="M50.96 58.348c-.15.068-.237.146-.237.23 0 .264.883.48 1.973.48s1.972-.216 1.972-.48c0-.09-.1-.173-.27-.244"/><path d="M50.96 58.188c-.15.068-.237.146-.237.23 0 .264.883.48 1.973.48s1.972-.216 1.972-.48c0-.09-.1-.173-.27-.244"/><path d="M50.96 58.03c-.15.066-.237.144-.237.227 0 .265.883.48 1.973.48s1.972-.215 1.972-.48c0-.088-.1-.172-.27-.243"/><path d="M50.96 57.87c-.15.067-.237.144-.237.227 0 .265.883.48 1.973.48s1.972-.215 1.972-.48c0-.088-.1-.172-.27-.243"/><path d="M50.96 57.71c-.15.067-.237.145-.237.227 0 .265.883.48 1.973.48s1.972-.215 1.972-.48c0-.088-.1-.17-.27-.243"/><path d="M50.96 57.55c-.15.067-.237.145-.237.227 0 .265.883.48 1.973.48s1.972-.215 1.972-.48c0-.088-.1-.17-.27-.243"/><path d="M50.96 57.39c-.15.067-.237.145-.237.227 0 .265.883.48 1.973.48s1.972-.215 1.972-.48c0-.088-.1-.17-.27-.243m-3.437 4.973c-.15.068-.237.146-.237.228 0 .265.883.48 1.973.48s1.972-.215 1.972-.48c0-.088-.1-.17-.27-.243"/><path d="M50.96 62.187c-.15.068-.237.146-.237.23 0 .264.883.478 1.973.478s1.972-.214 1.972-.48c0-.088-.1-.17-.27-.243"/><path d="M50.96 62.027c-.15.068-.237.146-.237.23 0 .264.883.478 1.973.478s1.972-.214 1.972-.48c0-.088-.1-.17-.27-.242"/><path d="M50.96 61.867c-.15.068-.237.146-.237.23 0 .264.883.478 1.973.478s1.972-.214 1.972-.48c0-.088-.1-.17-.27-.242"/><path d="M50.96 61.707c-.15.068-.237.146-.237.23 0 .264.883.48 1.973.48s1.972-.216 1.972-.48c0-.09-.1-.173-.27-.244"/><path d="M50.96 61.547c-.15.068-.237.146-.237.23 0 .264.883.48 1.973.48s1.972-.216 1.972-.48c0-.09-.1-.173-.27-.244"/><path d="M50.96 61.387c-.15.068-.237.146-.237.23 0 .264.883.48 1.973.48s1.972-.216 1.972-.48c0-.09-.1-.173-.27-.244m-3.437 2.093c-.15.068-.237.146-.237.23 0 .264.883.48 1.973.48s1.972-.216 1.972-.48c0-.09-.1-.173-.27-.244"/><path d="M50.96 63.306c-.15.068-.237.146-.237.23 0 .264.883.48 1.973.48s1.972-.216 1.972-.48c0-.09-.1-.173-.27-.244"/><path d="M50.96 63.146c-.15.068-.237.146-.237.23 0 .264.883.48 1.973.48s1.972-.216 1.972-.48c0-.09-.1-.173-.27-.244"/><path d="M50.96 62.987c-.15.068-.237.145-.237.228 0 .265.883.48 1.973.48s1.972-.215 1.972-.48c0-.088-.1-.172-.27-.243"/><path d="M50.96 62.827c-.15.068-.237.145-.237.228 0 .265.883.48 1.973.48s1.972-.215 1.972-.48c0-.088-.1-.17-.27-.243"/><path d="M50.96 62.667c-.15.068-.237.146-.237.228 0 .265.883.48 1.973.48s1.972-.215 1.972-.48c0-.088-.1-.17-.27-.243"/><path d="M50.96 62.507c-.15.068-.237.146-.237.228 0 .265.883.48 1.973.48s1.972-.215 1.972-.48c0-.088-.1-.17-.27-.243m-3.437-1.265c-.15.068-.237.146-.237.23 0 .264.883.48 1.973.48s1.972-.216 1.972-.48c0-.09-.1-.173-.27-.244"/><path d="M50.96 61.067c-.15.068-.237.146-.237.23 0 .264.883.48 1.973.48s1.972-.216 1.972-.48c0-.09-.1-.173-.27-.244"/><path d="M50.96 60.907c-.15.068-.237.146-.237.23 0 .264.883.48 1.973.48s1.972-.216 1.972-.48c0-.09-.1-.173-.27-.244"/><path d="M50.96 60.747c-.15.068-.237.146-.237.23 0 .264.883.48 1.973.48s1.972-.216 1.972-.48c0-.09-.1-.173-.27-.244"/><path d="M50.96 60.587c-.15.068-.237.146-.237.23 0 .264.883.48 1.973.48s1.972-.216 1.972-.48c0-.09-.1-.173-.27-.244"/><path d="M50.96 60.428c-.15.068-.237.145-.237.228 0 .265.883.48 1.973.48s1.972-.215 1.972-.48c0-.088-.1-.172-.27-.243"/><path d="M50.96 60.268c-.15.068-.237.146-.237.228 0 .265.883.48 1.973.48s1.972-.215 1.972-.48c0-.088-.1-.17-.27-.243"/><path d="M50.96 60.108c-.15.068-.237.146-.237.228 0 .265.883.48 1.973.48s1.972-.215 1.972-.48c0-.088-.1-.17-.27-.243"/><path d="M50.96 59.948c-.15.068-.237.146-.237.228 0 .265.883.48 1.973.48s1.972-.215 1.972-.48c0-.088-.1-.17-.27-.243M50.96 57.23c-.15.067-.237.145-.237.228 0 .265.883.48 1.973.48s1.972-.215 1.972-.48c0-.09-.1-.172-.27-.244"/><path d="M50.96 57.07c-.15.067-.237.145-.237.228 0 .265.883.48 1.973.48s1.972-.215 1.972-.48c0-.09-.1-.172-.27-.243"/><path d="M50.96 56.91c-.15.067-.237.145-.237.228 0 .265.883.48 1.973.48s1.972-.215 1.972-.48c0-.09-.1-.172-.27-.243"/><path d="M50.96 56.75c-.15.067-.237.145-.237.228 0 .265.883.48 1.973.48s1.972-.215 1.972-.48c0-.09-.1-.172-.27-.243"/><path d="M50.96 56.59c-.15.067-.237.145-.237.228 0 .265.883.48 1.973.48s1.972-.215 1.972-.48c0-.09-.1-.172-.27-.243"/><path d="M50.96 56.43c-.15.067-.237.145-.237.228 0 .265.883.48 1.973.48s1.972-.215 1.972-.48c0-.09-.1-.172-.27-.243"/><path d="M50.96 56.27c-.15.067-.237.145-.237.228 0 .265.883.48 1.973.48s1.972-.215 1.972-.48c0-.09-.1-.172-.27-.243"/><path d="M50.96 56.11c-.15.067-.237.145-.237.228 0 .265.883.48 1.973.48s1.972-.215 1.972-.48c0-.09-.1-.172-.27-.243"/><path d="M50.96 55.95c-.15.067-.237.145-.237.228 0 .265.883.48 1.973.48s1.972-.215 1.972-.48c0-.09-.1-.172-.27-.243"/><path d="M50.96 55.79c-.15.067-.237.145-.237.228 0 .265.883.48 1.973.48s1.972-.215 1.972-.48c0-.09-.1-.172-.27-.243"/><path d="M50.96 55.63c-.15.067-.237.145-.237.228 0 .265.883.48 1.973.48s1.972-.215 1.972-.48c0-.09-.1-.172-.27-.243"/><path d="M50.96 55.47c-.15.068-.237.145-.237.228 0 .265.883.48 1.973.48s1.972-.215 1.972-.48c0-.088-.1-.172-.27-.243"/><path d="M50.96 55.31c-.15.068-.237.145-.237.228 0 .265.883.48 1.973.48s1.972-.215 1.972-.48c0-.088-.1-.17-.27-.243"/><path d="M50.96 55.15c-.15.068-.237.146-.237.228 0 .265.883.48 1.973.48s1.972-.215 1.972-.48c0-.088-.1-.17-.27-.243"/><path d="M50.96 54.99c-.15.068-.237.146-.237.228 0 .265.883.48 1.973.48s1.972-.215 1.972-.48c0-.088-.1-.17-.27-.243"/><path d="M50.96 54.83c-.15.068-.237.146-.237.228 0 .265.883.48 1.973.48s1.972-.215 1.972-.48c0-.088-.1-.17-.27-.243"/><path d="M50.96 54.67c-.15.068-.237.146-.237.23 0 .264.883.478 1.973.478s1.972-.214 1.972-.48c0-.088-.1-.17-.27-.243"/><path d="M50.96 54.51c-.15.068-.237.146-.237.23 0 .264.883.478 1.973.478s1.972-.214 1.972-.48c0-.088-.1-.17-.27-.242"/><path d="M50.96 54.35c-.15.068-.237.146-.237.23 0 .264.883.478 1.973.478s1.972-.214 1.972-.48c0-.088-.1-.17-.27-.242"/><path d="M50.96 54.19c-.15.068-.237.146-.237.23 0 .264.883.48 1.973.48s1.972-.216 1.972-.48c0-.09-.1-.173-.27-.244"/><path d="M50.96 54.03c-.15.068-.237.146-.237.23 0 .264.883.48 1.973.48s1.972-.216 1.972-.48c0-.09-.1-.173-.27-.244"/><path d="M50.96 53.87c-.15.068-.237.146-.237.23 0 .264.883.48 1.973.48s1.972-.216 1.972-.48c0-.09-.1-.173-.27-.244"/><path d="M50.96 53.71c-.15.068-.237.146-.237.23 0 .264.883.48 1.973.48s1.972-.216 1.972-.48c0-.09-.1-.173-.27-.244"/><path d="M50.96 53.55c-.15.068-.237.146-.237.23 0 .264.883.48 1.973.48s1.972-.216 1.972-.48c0-.09-.1-.173-.27-.244"/><path d="M50.96 53.39c-.15.068-.237.146-.237.23 0 .264.883.48 1.973.48s1.972-.216 1.972-.48c0-.09-.1-.173-.27-.244"/><path d="M50.96 53.23c-.15.068-.237.146-.237.23 0 .264.883.48 1.973.48s1.972-.216 1.972-.48c0-.09-.1-.173-.27-.244"/><path d="M50.96 53.07c-.15.068-.237.146-.237.23 0 .264.883.48 1.973.48s1.972-.216 1.972-.48c0-.09-.1-.173-.27-.244"/><path d="M50.96 52.91c-.15.07-.237.146-.237.23 0 .264.883.48 1.973.48s1.972-.216 1.972-.48c0-.09-.1-.173-.27-.244"/><path d="M50.96 52.75c-.15.07-.237.147-.237.23 0 .264.883.48 1.973.48s1.972-.216 1.972-.48c0-.09-.1-.172-.27-.244"/><path d="M50.96 52.59c-.15.07-.237.147-.237.23 0 .264.883.48 1.973.48s1.972-.216 1.972-.48c0-.09-.1-.172-.27-.244"/><path d="M50.96 52.43c-.15.07-.237.147-.237.23 0 .264.883.48 1.973.48s1.972-.216 1.972-.48c0-.09-.1-.172-.27-.244"/><path d="M50.96 52.27c-.15.07-.237.147-.237.23 0 .265.883.48 1.973.48s1.972-.215 1.972-.48c0-.09-.1-.172-.27-.244"/><path d="M50.96 52.11c-.15.07-.237.147-.237.23 0 .265.883.48 1.973.48s1.972-.215 1.972-.48"/><path d="M50.723 52.18c0 .265.883.48 1.973.48s1.972-.215 1.972-.48"/><path d="M50.96 51.79c-.15.07-.237.147-.237.23 0 .265.883.48 1.973.48s1.972-.215 1.972-.48c0-.09-.1-.172-.27-.243"/><path d="M50.96 51.63c-.15.07-.237.147-.237.23 0 .265.883.48 1.973.48s1.972-.215 1.972-.48c0-.09-.1-.172-.27-.243"/><path d="M50.96 51.47c-.15.07-.237.147-.237.23 0 .265.883.48 1.973.48s1.972-.215 1.972-.48c0-.09-.1-.172-.27-.243"/><path d="M50.96 51.31c-.15.07-.237.147-.237.23 0 .265.883.48 1.973.48s1.972-.215 1.972-.48"/><path d="M50.723 51.38c0 .265.883.48 1.973.48s1.972-.215 1.972-.48"/><path d="M50.96 50.99c-.15.07-.237.147-.237.23 0 .265.883.48 1.973.48s1.972-.215 1.972-.48c0-.09-.1-.172-.27-.243"/><path d="M50.96 50.83c-.15.07-.237.147-.237.23 0 .265.883.48 1.973.48s1.972-.215 1.972-.48c0-.09-.1-.172-.27-.243"/><path d="M50.96 50.67c-.15.07-.237.147-.237.23 0 .265.883.48 1.973.48s1.972-.215 1.972-.48c0-.09-.1-.172-.27-.243"/><path d="M50.96 50.512c-.15.067-.237.145-.237.228 0 .265.883.48 1.973.48s1.972-.215 1.972-.48"/><path d="M50.723 50.58c0 .265.883.48 1.973.48s1.972-.215 1.972-.48"/><path d="M50.96 50.192c-.15.068-.237.146-.237.228 0 .265.883.48 1.973.48s1.972-.215 1.972-.48c0-.088-.1-.17-.27-.243"/><path d="M50.96 50.032c-.15.068-.237.146-.237.228 0 .265.883.48 1.973.48s1.972-.215 1.972-.48c0-.088-.1-.17-.27-.243"/><path d="M50.96 49.872c-.15.068-.237.146-.237.228 0 .265.883.48 1.973.48s1.972-.215 1.972-.48c0-.088-.1-.17-.27-.243"/><path d="M50.96 49.712c-.15.068-.237.146-.237.23 0 .264.883.478 1.973.478s1.972-.214 1.972-.48"/><path d="M50.723 49.78c0 .266.883.48 1.973.48s1.972-.214 1.972-.48"/><path d="M50.96 49.392c-.15.068-.237.146-.237.23 0 .264.883.478 1.973.478s1.972-.214 1.972-.48c0-.088-.1-.17-.27-.242"/><path d="M50.96 49.232c-.15.068-.237.146-.237.23 0 .264.883.48 1.973.48s1.972-.216 1.972-.48c0-.09-.1-.173-.27-.244"/><path d="M50.96 49.072c-.15.068-.237.146-.237.23 0 .264.883.48 1.973.48s1.972-.216 1.972-.48c0-.09-.1-.173-.27-.244"/><path d="M50.96 48.912c-.15.068-.237.146-.237.23 0 .264.883.48 1.973.48s1.972-.216 1.972-.48"/><path d="M50.723 48.98c0 .266.883.48 1.973.48s1.972-.214 1.972-.48"/><path d="M50.96 48.592c-.15.068-.237.146-.237.23 0 .264.883.48 1.973.48s1.972-.216 1.972-.48c0-.09-.1-.173-.27-.244"/><path d="M50.96 48.432c-.15.068-.237.146-.237.23 0 .264.883.48 1.973.48s1.972-.216 1.972-.48c0-.09-.1-.173-.27-.244"/><path d="M50.96 48.272c-.15.068-.237.146-.237.23 0 .264.883.48 1.973.48s1.972-.216 1.972-.48c0-.09-.1-.173-.27-.244"/><path d="M50.96 48.112c-.15.068-.237.146-.237.23 0 .264.883.48 1.973.48s1.972-.216 1.972-.48"/><path d="M50.723 48.18c0 .266.883.48 1.973.48s1.972-.214 1.972-.48"/><path d="M50.96 47.793c-.15.068-.237.145-.237.228 0 .266.883.48 1.973.48s1.972-.214 1.972-.48c0-.087-.1-.17-.27-.242"/><path d="M50.96 47.633c-.15.068-.237.146-.237.228 0 .266.883.48 1.973.48s1.972-.214 1.972-.48c0-.087-.1-.17-.27-.242"/><path d="M50.96 47.473c-.15.068-.237.146-.237.228 0 .266.883.48 1.973.48s1.972-.214 1.972-.48c0-.087-.1-.17-.27-.242"/><path d="M50.96 47.313c-.15.068-.237.146-.237.228 0 .266.883.48 1.973.48s1.972-.214 1.972-.48"/><path d="M50.723 47.382c0 .265.883.48 1.973.48s1.972-.215 1.972-.48"/><path d="M50.96 46.993c-.15.068-.237.146-.237.23 0 .264.883.478 1.973.478s1.972-.213 1.972-.478c0-.09-.1-.172-.27-.243"/><path d="M50.96 46.833c-.15.068-.237.146-.237.23 0 .264.883.478 1.973.478s1.972-.213 1.972-.478c0-.09-.1-.172-.27-.243"/><path d="M50.96 46.673c-.15.068-.237.146-.237.23 0 .264.883.48 1.973.48s1.972-.216 1.972-.48c0-.09-.1-.173-.27-.244"/><path d="M50.96 46.513c-.15.068-.237.146-.237.23 0 .264.883.48 1.973.48s1.972-.216 1.972-.48"/><path d="M50.723 46.582c0 .265.883.48 1.973.48s1.972-.215 1.972-.48"/><path d="M50.723 46.422c0 .265.883.48 1.973.48s1.972-.215 1.972-.48"/><path d="M50.723 46.262c0 .265.883.48 1.973.48s1.972-.215 1.972-.48"/></g></g><path d="M50.336 22.272c-.912 0-2.08.727-2.08 2.244 0 1.518 1.976 1.95 4.094 1.95 2.117 0 4.325-.663 4.325-2.254 0-1.59-1.95-1.934-2.224-1.934"/><path d="M50.46 23.23c-.47.18-.888.598-.888 1.27 0 .925 1.35 1.19 2.797 1.19 1.446 0 2.997-.504 2.997-1.475 0-.38-.443-.804-.703-.984"/><path d="M48.164 24.346c-.528 2.425 1.976 3.043 4.093 3.043s5.27-.735 4.325-3.52"/></g><path d="M47.106 14.45v1.214s.956.813 2.29.813c1.335 0 3.3.133 5.65 0 2.353-.133 2.617-.762 2.617-.762l.008-1.246"/><path d="M48.587 13.86c-.444 0-1.48.25-1.48.783 0 .534 1.898.82 2.32.82.425 0 4.544.237 6.31-.128 1.768-.365 1.82-.706 1.82-.875 0-.17-.77-.58-1.295-.59"/><path d="M50.756 12.573c-.307 0-1.557.466-2.04 1.29-.484.823.483.94 1.262.94.778 0 4.136.165 4.893-.022.76-.185 2.27-.175 1.136-1.19-1.135-1.017-1.85-1.206-1.85-1.206"/><path d="M52.3 12.09s-1.577.332-1.577.506c0 .173.9.29 1.508.29.607 0 1.917-.136 1.917-.37 0-.233-1.847-.427-1.847-.427z"/></g></g><path fill="#F9F9F9" d="M1.013 89.52v47.94s-.595 1.746 6.24 2.688c6.832.943 33.897 2.974 42.952 2.974s13.596-.444 19.71-2.647c6.114-2.204 10.706-6.507 10.706-6.507v-48.88s-.315-.197-.526 0c-.212.196-4.32 4.42-6.514 5.283-2.624 1.034-14.197 4.584-17.052 4.584-2.854 0-25.352-1.08-26.763-1.08-1.41 0-14.232-1.664-17.638-1.664-3.405 0-8.244-1.135-8.975-1.135-.73 0-2.14-1.554-2.14-1.554z"/><path fill="#FFF" d="M1 89.784c0 1.507 1.958 3.04 27.702 4.526 25.744 1.485 31.054.79 31.054.79s8.348-1.43 13.255-3.963c4.908-2.533 7.595-4.96 7.595-5.607L78.645 84l-1.915 2.717-4.247 2.287-6.76 2.6-5.344 1.503-11.253.295-9.53-.218-13.12-.97-13.26-1.105-8.922-1.398-1.743-1.89L1 89.784z"/></g><g fill="#358CF1"><path fill-rule="nonzero" stroke="#358CF1" stroke-linecap="square" d="M113 111.7H89h24zm-24 0l10.8 3v-6l-10.8 3z"/><text font-family="AvenirNext-Medium, Avenir Next" font-size="16" font-weight="400" transform="translate(89 104)"><tspan x="28" y="16">FWC</tspan> <tspan x="28" y="32">(Field Wiring </tspan> <tspan x="28" y="48">Compartment)</tspan></text></g></g></svg>