<svg width="176" height="240" viewBox="0 0 176 240" xmlns="http://www.w3.org/2000/svg" xmlns:xlink="http://www.w3.org/1999/xlink"><title>Group 20</title><defs><path id="a" d="M0 0h200v240H0z"/></defs><g fill="none" fill-rule="evenodd"><g><g transform="translate(-119.000000, -796.000000) translate(107.000000, 796.000000)"><mask id="b" fill="#fff"><use xlink:href="#a"/></mask><g mask="url(#b)"><g transform="translate(-59.000000, -53.000000)"><ellipse stroke="#747474" cx="141.222" cy="89.394" rx="12.222" ry="14.394"/><ellipse stroke="#747474" cx="142.106" cy="89.799" rx="10.106" ry="11.799"/><ellipse stroke="#747474" cx="141.222" cy="146.394" rx="12.222" ry="14.394"/><ellipse stroke="#747474" cx="142.106" cy="145.799" rx="10.106" ry="11.799"/><ellipse stroke="#747474" cx="141.222" cy="203.394" rx="12.222" ry="14.394"/><ellipse stroke="#747474" cx="142.106" cy="202.799" rx="10.106" ry="11.799"/><ellipse stroke="#747474" cx="141.222" cy="264.394" rx="12.222" ry="14.394"/><ellipse stroke="#747474" cx="142.106" cy="263.799" rx="10.106" ry="11.799"/><path stroke="#747474" d="M167.57 0v473.73l-50.098 28.135H117V23M113.463 26v472.43L1 485.03"/><path d="M87.894 147.887c3.167-1.594 12.886-3.687 25.31-4.375m18.884.154c42.4 3.15 92.94 27.02 47.455 123.178" class="cable A stroke" stroke="#B47239" stroke-width="4" stroke-linejoin="round"/><path d="M71.598 140.763c5.13-.81 21.596.21 41.716 4.422m18.997 3.76c34.242 7.733 90.092 29.14 78.155 114.823" class="cable B stroke" stroke="#F5A623" stroke-width="4" stroke-linejoin="round"/><path d="M94.545 154.373c3.364-.91 9.922-4.638 18.862-7.79m19.485-4.43c29.56-2.785 71.244 11.93 111.675 99.985" class="cable C stroke" stroke="#F8E71C" stroke-width="4" stroke-linejoin="round"/><path d="M78.493 150.588c7.437-4.64 21.305-9.438 34.618-10.997l-.464-3.972c-13.894 1.628-28.327 6.62-36.27 11.576l2.117 3.394zm55.635-10.646c13.538 2.31 24.726 8.886 32.87 20.38 9.564 13.5 14.732 33.49 14.732 60.648h4c0-27.927-5.374-48.713-15.467-62.96-8.785-12.398-20.918-19.53-35.463-22.01l-.672 3.942z" stroke="#979797" stroke-width=".5" class="cable N fill" fill="#FFF" fill-rule="nonzero"/><g stroke="#747474"><path d="M126.218 124.034v47.94s-.58 1.746 6.083 2.688c6.664.942 33.052 2.973 41.88 2.973 8.83 0 13.257-.444 19.218-2.647 5.962-2.204 10.44-6.506 10.44-6.506v-48.88" fill-opacity=".9" fill="#F9F9F9" fill-rule="nonzero"/><path d="M126.215 123.77c0 1.507 1.91 3.04 27.01 4.526 25.1 1.485 30.277.79 30.277.79s8.14-1.43 12.923-3.964c4.785-2.532 7.405-4.96 7.405-5.607"/><path d="M126.064 124.16c.622-1.686 6.074-5.41 6.074-5.41l1.366-.214s.463-.775 1.264-1.216c.8-.44 6.852-3.514 10.38-3.857 3.53-.343 4.21-.346 11.575-.346 7.364 0 31.78 1.402 38.188 2.482 6.408 1.08 6.925 2.034 6.925 2.034s2.01 1.542 2.01 2.064" fill="#F9F9F9" fill-rule="nonzero"/><path d="M128.004 122.157c.332 1.01.684 1.668 6.088 2.532 5.404.862 31.1 2.614 32.654 2.614 1.554 0 14.382.448 18.214-.473 3.83-.92 10.085-3.648 10.085-3.648s1.025.986 1.598.986c.572 0 2.105-.88 2.105-.88s-.402-1.67-.696-1.67c-.295 0 2.406-1.786 2.713-2.082.308-.296 1.183-1.374.847-2.128M132.337 118.904s-.205.882.297.882c.5 0 1.23-.736 1.23-.736s1.06-.166 1.06-.543c0-.378.027-1.058.027-1.058"/><path d="M195.893 123.53l2.563-.985" stroke-linecap="round"/><path d="M129.794 123.545c.95-.795 8.725-5.996 14.808-6.98s28.01.105 31.317.538c3.307.432 20.093 1.08 23.97 2.782"/><path d="M131.05 123.943c.952-.795 8.533-5.743 14.616-6.727 6.082-.984 27.22-.1 30.53.332 3.307.433 19.817 1.114 23.695 2.817M175.48 113.96v2.87M192.48 119.264v5.008M195.48 123.536v-4.368M197.48 123.056v-4.368M134.48 121.316v3.38M133.32 119.077v1.86"/><path d="M146.11 125.854v-7.084s1.312-.545 1.764-.08v7.39M157.5 116.88v9.644"/><path d="M155.767 126.5v-8.845s.022-.485-1.55-.89" stroke-linecap="round"/><path d="M154.5 126.51v-8.48"/><path d="M147.62 117.1c0 .392-.68 1.46 3.335 1.285 4.015-.177 5.1-.268 4.222-1.16-.878-.893-5.776-.392-5.776.497 0 .89 8.177.313 4.597-.536" stroke-linecap="round"/></g></g></g></g></g></g></svg>
