<svg width="239" height="80" viewBox="0 0 239 80" xmlns="http://www.w3.org/2000/svg" xmlns:xlink="http://www.w3.org/1999/xlink"><title>Group 51</title><defs><path id="a" d="M0 0h96v80H0z"/><mask id="f" x="0" y="0" width="96" height="80" fill="#fff"><use xlink:href="#a"/></mask><path id="b" d="M0 0h24v24H0z"/><mask id="g" x="0" y="0" width="24" height="24" fill="#fff"><use xlink:href="#b"/></mask><ellipse id="c" cx="12.287" cy="11.852" rx="11.614" ry="11.852"/><mask id="h" x="0" y="0" width="23.228" height="23.704" fill="#fff"><use xlink:href="#c"/></mask><path id="d" d="M0 0h24v24H0z"/><mask id="i" x="0" y="0" width="24" height="24" fill="#fff"><use xlink:href="#d"/></mask><ellipse id="e" cx="12.287" cy="11.852" rx="11.614" ry="11.852"/><mask id="j" x="0" y="0" width="23.228" height="23.704" fill="#fff"><use xlink:href="#e"/></mask></defs><g fill="none" fill-rule="evenodd"><g stroke="#747474" transform="translate(-108.000000, -444.000000) translate(108.000000, 444.000000)"><use mask="url(#f)" stroke-width="2" xlink:href="#a"/><path d="M46.918 8.76l-5.98 6.202L27.493 9.15v16.61H8.23v-17h38.688v16.453l-5.98 6.32-13.446-5.774M40.81 31.22V15.304"/><g transform="translate(63.000000, 8.000000)"><use mask="url(#g)" stroke-width="2" xlink:href="#b"/><use mask="url(#h)" stroke-width="2" xlink:href="#c"/><path d="M21.367 5.505L6.054 21.132M20.022 4.13L4.71 19.755"/></g><g transform="translate(63.000000, 48.000000)"><use mask="url(#i)" stroke-width="2" xlink:href="#d"/><use mask="url(#j)" stroke-width="2" xlink:href="#e"/><path d="M21.367 5.505L6.054 21.132M20.022 4.13L4.71 19.755"/></g></g><path d="M87 20h56" class="cable A stroke" stroke="#4A4A4A" stroke-width="8"/><path d="M87 60h56" class="cable B stroke" stroke="#D0011B" stroke-width="8"/><path d="M183 21h56" class="cable A stroke" stroke="#4A4A4A" stroke-width="8"/><path d="M183 60h56" class="cable B stroke" stroke="#D0011B" stroke-width="8"/><path d="M175 60c-1.32-.152-2.616-.444-3.886-.876s-2.387-1.03-3.352-1.79c-.965-.763-1.74-1.69-2.324-2.782-.584-1.092-.876-2.4-.876-3.923 0-1.627.292-3.392.876-5.297.584-1.904 1.232-3.822 1.943-5.752.712-1.878 1.347-3.694 1.906-5.447.558-1.752.838-3.314.838-4.685 0-1.727-.622-3.1-1.867-4.115-1.244-1.016-2.654-1.65-4.228-1.904V20c1.32.152 2.614.444 3.884.876s2.4 1.03 3.39 1.79c.99.763 1.79 1.702 2.4 2.82.61 1.117.915 2.438.915 3.962 0 1.676-.28 3.44-.84 5.295-.558 1.854-1.193 3.72-1.904 5.6-.71 1.93-1.36 3.77-1.943 5.524-.584 1.752-.876 3.365-.876 4.838 0 1.828.584 3.2 1.753 4.114 1.168.913 2.565 1.548 4.19 1.904V60zm-12.952 0c-1.32-.152-2.616-.444-3.886-.876s-2.4-1.03-3.39-1.79c-.99-.763-1.778-1.702-2.362-2.82-.585-1.117-.877-2.438-.877-3.962 0-1.625.292-3.39.877-5.295.584-1.905 1.23-3.797 1.942-5.676.71-1.878 1.346-3.694 1.905-5.447.56-1.752.838-3.314.838-4.685 0-1.727-.622-3.1-1.866-4.115-1.246-1.016-2.655-1.65-4.23-1.904V20c1.32.203 2.616.508 3.886.914 1.27.407 2.412.978 3.428 1.715 1.016.735 1.83 1.662 2.438 2.78.61 1.117.915 2.438.915 3.96 0 1.678-.28 3.443-.838 5.297-.56 1.854-1.195 3.746-1.906 5.676-.71 1.88-1.36 3.708-1.943 5.486-.583 1.776-.875 3.402-.875 4.875 0 1.778.584 3.124 1.752 4.038 1.168.914 2.565 1.55 4.19 1.905V60z" fill="#747474"/></g></svg>
