<svg xmlns="http://www.w3.org/2000/svg" width="182" height="98" viewBox="0 0 182 98">
  <g fill="none" fill-rule="evenodd" transform="rotate(90 90.5 91.5)">
    <g transform="translate(0 .502)">
      <g stroke="#747474">
        <path d="M0,0.0798906042 L0,87.529889 C0,90.2467264 1.6278657,92 4.08157357,92 L92.1722474,92 C94.1609543,92 96,89.0230197 96,87.5265479 C96,86.0300761 95.8772736,0 95.8772736,0 L0,0.0798906042 Z"/>
        <path d="M1 .0801430153L1 86.5157659C1 89.241187 2.62885827 91 5.08406225 91L91.1699135 91C93.1598329 91 95 88.013614 95 86.5124142 95 85.0112144 94.8771988 0 94.8771988 0M3.5 91L3.5 92M92.5 91L92.5 92"/>
        <polyline points="42 92 44 94.151 44 97"/>
        <polyline points="54 92 52 93.968 52 97"/>
        <path d="M44 93.5L53 93.5M43 96.5L52 96.5"/>
        <polyline points="44 92 46 94.226 46 97"/>
        <polyline points="53 92 51 94.243 51 97"/>
      </g>
      <g transform="rotate(-180 27.5 90.5)">
        <path stroke="#4A4A4A" stroke-width="4" d="M3,-3.46944695e-18 L3,16.3198687 C3,23.6957107 10,23.368442 10,33.3881138 C10,43.4077856 3,43.7985403 3,52.8191548 C3,61.8397693 8.13980457,64.0632826 8.13980457,70.5509197 C8.13980457,77.0385567 3.80567064,83.0125787 3.80567064,83.0125787 L3.80567064,85"/>
        <path fill="#FFF" fill-rule="nonzero" stroke="#747474" d="M6.63182556 40.3870271C5.34513201 38.2119292 4.87837692 36.429254 4.87837692 33.5891167 4.87837692 29.8819387 5.72802991 27.9697655 7.95751308 25.3335391 8.09341782 25.1728401 8.61318518 24.5656531 8.73316914 24.4240226 11.0239109 21.7200055 12 19.7031618 12 16.4181175L12 5.55111512e-17 8.12162308 5.55111512e-17 8.12162308 16.4181175C8.12162308 18.5417445 7.54751312 19.727999 5.82032048 21.7667964 5.70954522 21.8975568 5.18831271 22.5064554 5.04248692 22.6788854 2.2420247 25.9902593 1 28.7854785 1 33.5891167 1 37.9367931 1.93777606 40.5304296 4.28828951 44M5.83260531 47.5844714C6.77484664 49.2941838 7.16739469 51.0701428 7.16739469 53.2127825 7.16739469 56.6329081 4.13120554 63.36061 3.9331362 63.7516018 2.60783245 66.3677711 2 68.3494972 2 70.9042586 2 73.6780978 2.43587512 76.2358316 3.59229341 78.9809048 3.7619642 79.3836645 6.03452397 73.2872758 5.96310992 72.7644317 5.87726994 72.1359707 5.83260531 71.5148906 5.83260531 70.9042586 5.83260531 69.1090497 6.26258207 67.7071894 7.32291987 65.6140669 7.50640905 65.2518565 11 57.3980566 11 53.2127825 11 49.4618806 10.1554701 47.1713372 8.01144375 44M6 81.6034848C6.42774917 82.3155775 6.82065699 83.5628965 7.14518612 84L11 84C11 82.7603654 10.4819658 80.7316986 10.4819658 80.7316986 10.3647255 80.5737893 10.1352472 80.2407331 9.83098469 79.7567531 9.31356019 78.9337036 8.79420219 78.0062911 8.30999564 77"/>
      </g>
    </g>
    <circle cx="48" cy="46.002" r="35" stroke="#979797" stroke-width="1.5"/>
  </g>
</svg>
