<svg width="255" height="160" viewBox="0 0 255 160" xmlns="http://www.w3.org/2000/svg" xmlns:xlink="http://www.w3.org/1999/xlink"><title>Group</title><defs><path id="a" d="M32 12h96v96H32z"/><mask id="c" x="0" y="0" width="96" height="96" fill="#fff"><use xlink:href="#a"/></mask><path id="b" d="M0 0h96v160H0z"/><mask id="d" x="0" y="0" width="96" height="160" fill="#fff"><use xlink:href="#b"/></mask></defs><g fill="none" fill-rule="evenodd"><g><g transform="translate(95.000000, 20.000000)"><path stroke="#747474" class="cable A fill" fill="#4A4A4A" d="M160 8H0V0h160"/><path stroke="#747474" class="cable B fill" fill="#D0021B" d="M160 64H0v-8h160"/><use stroke="#358CF1" mask="url(#c)" stroke-width="2" stroke-dasharray="4" xlink:href="#a"/><path d="M110 60H34h76zm-76 0l10.8 3v-6L34 60zM103 60h24-24zm24 0l-10.8-3v6l10.8-3z" stroke="#358CF1" stroke-linecap="square" fill="#358CF1" fill-rule="nonzero"/><text fill="#358CF1" font-family="AvenirNext-Medium, Avenir Next" font-size="16" font-weight="400"><tspan x="95" y="48">1“</tspan></text><path d="M80 90V14v76zm0-76l-3 10.8h6L80 14zM80 82v24-24zm0 24l3-10.8h-6l3 10.8z" stroke="#358CF1" stroke-linecap="square" fill="#358CF1" fill-rule="nonzero"/><circle fill="#358CF1" cx="80" cy="60" r="4"/><path stroke="#747474" class="cable A fill" fill="#4A4A4A" d="M160 120H0v-8h160"/></g><use stroke="#747474" mask="url(#d)" stroke-width="2" fill="#F9F9F9" xlink:href="#b"/><text font-family="AvenirNext-Regular, Avenir Next" font-size="16" fill="#4A4A4A"><tspan x="24.08" y="80">Circuit</tspan> <tspan x="16" y="96">Breakers</tspan></text></g></g></svg>
