<svg width="309" height="160" viewBox="0 0 309 160" xmlns="http://www.w3.org/2000/svg" xmlns:xlink="http://www.w3.org/1999/xlink"><title>Group 65</title><defs><path id="a" d="M0 0h96v160H0z"/><mask id="h" x="0" y="0" width="96" height="160" fill="#fff"><use xlink:href="#a"/></mask><path id="b" d="M95 36h16v8H95z"/><mask id="i" x="0" y="0" width="16" height="8" fill="#fff"><use xlink:href="#b"/></mask><path id="c" d="M95 76h64v8H95z"/><mask id="j" x="0" y="0" width="64" height="8" fill="#fff"><use xlink:href="#c"/></mask><path id="d" d="M95 116h20v8H95z"/><mask id="k" x="0" y="0" width="20" height="8" fill="#fff"><use xlink:href="#d"/></mask><path id="e" d="M146.194 36H255v8H146.194z"/><mask id="l" x="0" y="0" width="108.806" height="8" fill="#fff"><use xlink:href="#e"/></mask><path id="f" d="M193.623 76H255v8h-61.8z"/><mask id="m" x="0" y="0" width="61.801" height="8" fill="#fff"><use xlink:href="#f"/></mask><path id="g" d="M149.824 116H255v8H149.333z"/><mask id="n" x="0" y="0" width="105.667" height="8" fill="#fff"><use xlink:href="#g"/></mask></defs><g fill="none" fill-rule="evenodd"><g><g><g transform="translate(-73.000000, -284.000000) translate(73.000000, 284.000000)"><use stroke="#747474" mask="url(#h)" stroke-width="2" xlink:href="#a"/><text font-family="AvenirNext-Regular, Avenir Next" font-size="16" fill="#4A4A4A"><tspan x="24.08" y="80">Circuit</tspan> <tspan x="16" y="96">Breakers</tspan></text><use stroke="#747474" mask="url(#i)" stroke-width="2" class="cable A fill" fill="#B47239" xlink:href="#b"/><use stroke="#747474" mask="url(#j)" stroke-width="2" class="cable B fill" fill="#F5A623" xlink:href="#c"/><text fill="#358CF1" font-family="AvenirNext-Medium, Avenir Next" font-size="16" font-weight="400"><tspan x="258" y="67">0.5”-1”</tspan></text><text fill="#358CF1" font-family="AvenirNext-Medium, Avenir Next" font-size="16" font-weight="400"><tspan x="258" y="106">0.5”-1”</tspan></text><use stroke="#747474" mask="url(#k)" stroke-width="2" class="cable C fill" fill="#F8E71C" xlink:href="#d"/><path d="M254.5 44.5v31.257M254.5 86.5v31.257" stroke="#358CF1" stroke-linecap="square" stroke-dasharray="4"/><path d="M250 44h8M250 116h8" stroke="#358CF1" stroke-linecap="square"/><path d="M140.487 47.82s.814-.11.954.42M140.487 46.248l3.746.462M141.782 36h2.656" stroke="#747474" stroke-width=".5"/><path d="M143.03 31.61c1.687.08 2.835 4.922 2.563 10.81-.272 5.887-1.862 10.603-3.55 10.524-1.685-.078-2.833-4.92-2.56-10.808.272-5.887 1.862-10.603 3.548-10.525z" stroke="#747474" stroke-width=".5"/><path d="M140.487 39.425v9.416l.954-.68s.093 2.254.41 2.182c.316-.07 2.28-1.505 2.383-1.91.102-.406.205-11.918.205-11.918s-.084-2.28-.818-1.797c-.733.483-2.098.914-2.247 2.39-.15 1.472-.136 1.772-.136 1.772l-.75.545zM129.382 44.474c.045.325.01 1.223-.336 1.774M143.463 27.592c.18-.15 14.02-9.09 13.37-9.15-4.393-.42-27.324-1.795-28.076-1.34-5.436 3.294-11.11 7.393-12.202 8.126-1.265.85-3.99 3.376-4.3 6.23.82.036 4.434.363 4.542.37.67.046.806-2.727 1.55-2.72 5.144.064 16.18.342 17.755.685.24-.22-1.03 3.167-1.03 3.167s4.42.114 4.843 0c.96-2.158 1.054-3.27 3.548-5.368zM157.263 45.928s.176-12.68 0-13.454c-.176-.772-.966-1.044-1.903-.29-.936.75-4.717 3.323-4.717 3.323s-1.578 9.032-1.692 9.253c-.114.22-2.226 1.46-2.23 1.676-.055 3.43-1.082 5.43-1.72 6.98-.037.22-.108 1.15 0 1.07 2.56-1.98 12.263-8.558 12.263-8.558zM135.676 30.62l-17.808-.934M135.47 31.6l-17.602-.98M135.098 32.58l-17.833-.98" stroke="#747474" stroke-width=".5"/><path d="M121.243 41.917c-.776-.004-2.42-.284-2.702 1.108-.28 1.393-.055 3.447.092 3.7.43.746 2.783 1.05 5.533 1.087 1.31.017 3.147-.04 3.666 0 .52.04 1.904-.165 2.087-1.358.18-1.173-.09-3.172-.355-3.385-.265-.215-.856-.803-2.864-.905-2.01-.102-4.678-.245-5.455-.248z" stroke="#747474" stroke-width=".5"/><path d="M128.86 43.318c-.947-.353-7.956-.83-8.216-.63-.26.198-.392.24-.294.61.097.365.142 1.318 1.037 1.52.896.2 7.836.24 7.836.24s.125-1.558-.364-1.74zM129.237 46.753c-.565-.027-8.743-.475-8.92-.44-.176.034-.603.14-.603.14s.03.2 1.034.483c1.003.282 7.62.39 7.818.352.198-.038.67-.535.67-.535" stroke="#747474" stroke-width=".5"/><path d="M120.748 42.635c-.443-.125-.79-.233-1.116 0-.327.234-.656 1.022-.515 1.142.14.12 1.2-.154 1.2-.154M118.632 43.954l.435.098.254 2.04-.913-.137M156.855 18.504c-.017.12.014 5.468 0 9.98-.007 2.2-.34 2.152-1.413 3.116-1.45 1.305-4.548 3.28-5.116 3.697-.015.01-1.014-1.463-1.014-1.463s-2.778 1.788-2.766 2.357c.004.19-.334 10.467-.767 12.5-.94 4.408-1.8 7.27-3.82 7.326-2.39.066-3.033-7.23-3.12-9.705-.085-2.474.356-8.744 1.364-12.534.735-2.764 2.195-4.72 4.18-6.356.086-.07.067.76.16.695 6.16-4.41 12.31-8.64 12.31-8.64" stroke="#747474" stroke-width=".5"/><path d="M157.263 45.928s.176-12.68 0-13.454c-.176-.772-.966-1.044-1.903-.29-.936.75-4.717 3.323-4.717 3.323s-1.578 9.032-1.692 9.253c-.114.22-2.226 1.46-2.23 1.676-.055 3.43-1.082 5.43-1.72 6.98-.037.22-.108 1.15 0 1.07 2.56-1.98 12.263-8.558 12.263-8.558z" stroke="#747474" stroke-width=".5"/><path d="M139.987 32.81c-.547.335-.634 2.275-1.088 4.575-.505 2.558-.712 5.22-.533 8.15.276 4.52.442 5.397.52 6.852.1 1.907-1.704 2.27-1.704 2.27s-21.54-1.12-22.88-1.124c-3.688-.014-4.356-3.784-4.295-8.68.067-5.363.326-8.86.726-10.13.837-2.655 1.027-3.01 1.522-3.123l27.73 1.21z" stroke="#747474" stroke-width=".5" fill="#F9F9F9"/><path d="M135.676 30.62l-17.808-.934M135.47 31.6l-17.602-.98M135.098 32.58l-17.833-.98M121.243 41.917c-.776-.004-2.42-.284-2.702 1.108-.28 1.393-.055 3.447.092 3.7.43.746 2.783 1.05 5.533 1.087 1.31.017 3.147-.04 3.666 0 .52.04 1.904-.165 2.087-1.358.18-1.173-.09-3.172-.355-3.385-.265-.215-.856-.803-2.864-.905-2.01-.102-4.678-.245-5.455-.248z" stroke="#747474" stroke-width=".5"/><path d="M128.86 43.318c-.947-.353-7.956-.83-8.216-.63-.26.198-.392.24-.294.61.097.365.142 1.318 1.037 1.52.896.2 7.836.24 7.836.24s.125-1.558-.364-1.74zM129.237 46.753c-.565-.027-8.743-.475-8.92-.44-.176.034-.603.14-.603.14s.03.2 1.034.483c1.003.282 7.62.39 7.818.352.198-.038.67-.535.67-.535" stroke="#747474" stroke-width=".5"/><path d="M120.748 42.635c-.443-.125-.79-.233-1.116 0-.327.234-.656 1.022-.515 1.142.14.12 1.2-.154 1.2-.154M118.632 43.954l.435.098.254 2.04-.913-.137M111.883 52.935s.898 1.702 1.566 1.98c.667.275 28.74 1.1 28.74 1.1M114.13 53.617c.367.582.885 1.326 1.227 1.5M114.744 53.617s.717 1.297 1.02 1.5" stroke="#747474" stroke-width=".5"/><path d="M136.81 54.49s.75 1.366 1.157 1.526c.41.16-.612-1.526-.612-1.526s.89 1.316 1.226 1.526M138.99 51.638s-.027 1.977 1.77 4.39M156.015 35.4c-.11-.85-1.56-3.364-2.11.34-.55 3.706-.253 9.12.272 9.62.524.502 2.034.3 1.907-4.23" stroke="#747474" stroke-width=".5"/><path d="M155.13 35.33c-1.243 1.378-1.044 4.064-.476 5.596.05.136 28.33 1.352 28.33 1.352l17.83.856c-.38-2.13-.314-3.983.18-5.573 0 0-45.7-2.41-45.864-2.23z" stroke="#747474" stroke-width=".5"/><path d="M201.69 36.194c-1.767.985-1.18 8.31-.34 7.9.044-.022 6.946.492 6.946.492l6.13 3.14 17.98.956s2.213-1.626 2.315-2.534c.103-.91 0-1.39 0-1.39l.75-.87v-7.353s-.393-.426-.75-.478c-.354-.05-.077-1.438-1.09-1.57-1.01-.13-17.502-.835-17.502-.835l-7.49 2.883s-6.856-.393-6.948-.34z" stroke="#747474" stroke-width=".5"/><path d="M208.5 36.535c-.695 1.082-.9 2.455-.953 4.3-.052 1.84.258 3.18.75 3.922M215.788 33.652c-.834.844-1.64 1.535-1.77 3.77-.13 2.235.204 9.075.204 9.075s-.022 1.04.272 1.296M232.61 38s.03 9.682.204 9.793c.174.11 1.567-1.296 1.567-1.296l-.135-10.713s-1.366.133-1.5.75c-.13.62-.135 1.467-.135 1.467z" stroke="#747474" stroke-width=".5"/><path d="M232.815 38.265s.018 8.746.118 8.846c.1.1.904-1.17.904-1.17l-.08-9.678s-.787.12-.863.678c-.077.56-.08 1.325-.08 1.325zM213.987 37.558l18.624.675M214.26 46.148l18.35.758M214.887 34.852l17.11.796.818.75M115.833 37.037l-.136 2.593 1.09.033v-.442h-.545l.068-2.206zM119.375 37.106c.273 0 1.225.29 1.225 1.364s-.96 1.425-1.293 1.425c-.334 0-1.226-.262-1.226-1.357s1.01-1.432 1.295-1.432" stroke="#747474" stroke-width=".5"/><path d="M119.34 37.65c.507.022.852.363.852.826 0 .462-.445.88-.85.88-.408 0-.784-.2-.784-.856 0-.655.55-.86.783-.85zM121.622 39.895l1.294-2.45h.41l.68 2.526h-.34l-.347-.545h-.95l-.34.47z" stroke="#747474" stroke-width=".5"/><path d="M122.984 38.197s-.4.715-.364.682c.037-.034.7 0 .7 0l-.336-.683M125.3 39.97l.272-2.387s.46-.048.892.068c.43.116.868.436.88 1.06.01.62-.353 1-.886 1.26-.534.262-1.158 0-1.158 0z" stroke="#747474" stroke-width=".5"/><path d="M125.913 38.06l-.068 1.498s.634.18.88-.2c.245-.382.23-1.01-.13-1.16-.36-.152-.682-.137-.682-.137M115.765 48.78h2.316l-.885 1.835-1.43-1.836M121.895 50.82l.408.136v-.75s.794.047.817-.51c.024-.555-.466-.7-.75-.72-.28-.018-.61 0-.61 0v.72l.066.17.07.954" stroke="#747474" stroke-width=".5"/><path d="M122.237 49.455c-.072 0 0 .42 0 .42s.368.038.402-.122c.034-.16.084-.296-.403-.298zM124.96 49.114s.09.905.136 1.23c.044.325.32.89.885.885.566-.006.58-.756.546-1.092-.035-.337-.16-.956-.16-.956h-.385s.145.518.137.887c-.008.368.083.626-.272.68-.356.057-.433-.388-.477-.787-.044-.4-.068-.78-.068-.78l-.34-.07zM128.5 49.455l.205 1.774.205.136h.75v-.41l-.682-.068-.137-1.57zM131.43 49.592l.204 1.774.204.136h.75v-.41l-.682-.068-.136-1.57zM187.487 87.82s.814-.11.954.42M187.487 86.248l3.746.462M188.782 76h2.656" stroke="#747474" stroke-width=".5"/><path d="M190.03 71.61c1.687.08 2.835 4.922 2.563 10.81-.272 5.887-1.862 10.603-3.55 10.524-1.685-.078-2.833-4.92-2.56-10.808.272-5.887 1.862-10.603 3.548-10.525z" stroke="#747474" stroke-width=".5"/><path d="M187.487 79.425v9.416l.954-.68s.093 2.254.41 2.182c.316-.07 2.28-1.505 2.383-1.91.102-.406.205-11.918.205-11.918s-.084-2.28-.818-1.797c-.733.483-2.098.914-2.247 2.39-.15 1.472-.136 1.772-.136 1.772l-.75.545zM176.382 84.474c.045.325.01 1.223-.336 1.774M190.463 67.592c.18-.15 14.02-9.09 13.37-9.15-4.393-.42-27.324-1.795-28.076-1.34-5.436 3.294-11.11 7.393-12.202 8.126-1.265.85-3.99 3.376-4.3 6.23.82.036 4.434.363 4.542.37.67.046.806-2.727 1.55-2.72 5.144.064 16.18.342 17.755.685.24-.22-1.03 3.167-1.03 3.167s4.42.114 4.843 0c.96-2.158 1.054-3.27 3.548-5.368zM204.263 85.928s.176-12.68 0-13.454c-.176-.772-.966-1.044-1.903-.29-.936.75-4.717 3.323-4.717 3.323s-1.578 9.032-1.692 9.253c-.114.22-2.226 1.46-2.23 1.676-.055 3.43-1.082 5.43-1.72 6.98-.037.22-.108 1.15 0 1.07 2.56-1.98 12.263-8.558 12.263-8.558zM182.676 70.62l-17.808-.934M182.47 71.6l-17.602-.98M182.098 72.58l-17.833-.98" stroke="#747474" stroke-width=".5"/><path d="M168.243 81.917c-.776-.004-2.42-.284-2.702 1.108-.28 1.393-.055 3.447.092 3.7.43.746 2.783 1.05 5.533 1.087 1.31.017 3.147-.04 3.666 0 .52.04 1.904-.165 2.087-1.358.18-1.173-.09-3.172-.355-3.385-.265-.215-.856-.803-2.864-.905-2.01-.102-4.678-.245-5.455-.248z" stroke="#747474" stroke-width=".5"/><path d="M175.86 83.318c-.947-.353-7.956-.83-8.216-.63-.26.198-.392.24-.294.61.097.365.142 1.318 1.037 1.52.896.2 7.836.24 7.836.24s.125-1.558-.364-1.74zM176.237 86.753c-.565-.027-8.743-.475-8.92-.44-.176.034-.603.14-.603.14s.03.2 1.034.483c1.003.282 7.62.39 7.818.352.198-.038.67-.535.67-.535" stroke="#747474" stroke-width=".5"/><path d="M167.748 82.635c-.443-.125-.79-.233-1.116 0-.327.234-.656 1.022-.515 1.142.14.12 1.2-.154 1.2-.154M165.632 83.954l.435.098.254 2.04-.913-.137M203.855 58.504c-.017.12.014 5.468 0 9.98-.007 2.2-.34 2.152-1.413 3.116-1.45 1.305-4.548 3.28-5.116 3.697-.015.01-1.014-1.463-1.014-1.463s-2.778 1.788-2.766 2.357c.004.19-.334 10.467-.767 12.5-.94 4.408-1.8 7.27-3.82 7.326-2.39.066-3.033-7.23-3.12-9.705-.085-2.474.356-8.744 1.364-12.534.735-2.764 2.195-4.72 4.18-6.356.086-.07.067.76.16.695 6.16-4.41 12.31-8.64 12.31-8.64" stroke="#747474" stroke-width=".5"/><path d="M204.263 85.928s.176-12.68 0-13.454c-.176-.772-.966-1.044-1.903-.29-.936.75-4.717 3.323-4.717 3.323s-1.578 9.032-1.692 9.253c-.114.22-2.226 1.46-2.23 1.676-.055 3.43-1.082 5.43-1.72 6.98-.037.22-.108 1.15 0 1.07 2.56-1.98 12.263-8.558 12.263-8.558z" stroke="#747474" stroke-width=".5"/><path d="M186.987 72.81c-.547.335-.634 2.275-1.088 4.575-.505 2.558-.712 5.22-.533 8.15.276 4.52.442 5.397.52 6.852.1 1.907-1.704 2.27-1.704 2.27s-21.54-1.12-22.88-1.124c-3.688-.014-4.356-3.784-4.295-8.68.067-5.363.326-8.86.726-10.13.837-2.655 1.027-3.01 1.522-3.123l27.73 1.21z" stroke="#747474" stroke-width=".5" fill="#F9F9F9"/><path d="M182.676 70.62l-17.808-.934M182.47 71.6l-17.602-.98M182.098 72.58l-17.833-.98M168.243 81.917c-.776-.004-2.42-.284-2.702 1.108-.28 1.393-.055 3.447.092 3.7.43.746 2.783 1.05 5.533 1.087 1.31.017 3.147-.04 3.666 0 .52.04 1.904-.165 2.087-1.358.18-1.173-.09-3.172-.355-3.385-.265-.215-.856-.803-2.864-.905-2.01-.102-4.678-.245-5.455-.248z" stroke="#747474" stroke-width=".5"/><path d="M175.86 83.318c-.947-.353-7.956-.83-8.216-.63-.26.198-.392.24-.294.61.097.365.142 1.318 1.037 1.52.896.2 7.836.24 7.836.24s.125-1.558-.364-1.74zM176.237 86.753c-.565-.027-8.743-.475-8.92-.44-.176.034-.603.14-.603.14s.03.2 1.034.483c1.003.282 7.62.39 7.818.352.198-.038.67-.535.67-.535" stroke="#747474" stroke-width=".5"/><path d="M167.748 82.635c-.443-.125-.79-.233-1.116 0-.327.234-.656 1.022-.515 1.142.14.12 1.2-.154 1.2-.154M165.632 83.954l.435.098.254 2.04-.913-.137M158.883 92.935s.898 1.702 1.566 1.98c.667.275 28.74 1.1 28.74 1.1M161.13 93.617c.367.582.885 1.326 1.227 1.5M161.744 93.617s.717 1.297 1.02 1.5" stroke="#747474" stroke-width=".5"/><path d="M183.81 94.49s.75 1.366 1.157 1.526c.41.16-.612-1.526-.612-1.526s.89 1.316 1.226 1.526M185.99 91.638s-.027 1.977 1.77 4.39M203.015 75.4c-.11-.85-1.56-3.364-2.11.34-.55 3.706-.253 9.12.272 9.62.524.502 2.034.3 1.907-4.23" stroke="#747474" stroke-width=".5"/><path d="M202.13 75.33c-1.243 1.378-1.044 4.064-.476 5.596.05.136 28.33 1.352 28.33 1.352l17.83.856c-.38-2.13-.314-3.983.18-5.573 0 0-45.7-2.41-45.864-2.23zM255.5 76.535c-.695 1.082-.9 2.455-.953 4.3-.052 1.84.258 3.18.75 3.922" stroke="#747474" stroke-width=".5"/><g><path d="M250 84h8" stroke="#358CF1" stroke-linecap="square"/><path d="M248.69 76.194c-1.767.985-1.18 8.31-.34 7.9.044-.022 6.946.492 6.946.492l6.13 3.14 17.98.956s2.213-1.626 2.315-2.534c.103-.91 0-1.39 0-1.39l.75-.87v-7.353s-.393-.426-.75-.478c-.354-.05-.077-1.438-1.09-1.57-1.01-.13-17.502-.835-17.502-.835l-7.49 2.883s-6.856-.393-6.948-.34z" stroke="#747474" stroke-width=".5"/><path d="M262.788 73.652c-.834.844-1.64 1.535-1.77 3.77-.13 2.235.204 9.075.204 9.075s-.022 1.04.272 1.296M279.61 78s.03 9.682.204 9.793c.174.11 1.567-1.296 1.567-1.296l-.135-10.713s-1.366.133-1.5.75c-.13.62-.135 1.467-.135 1.467z" stroke="#747474" stroke-width=".5"/><path d="M279.815 78.265s.018 8.746.118 8.846c.1.1.904-1.17.904-1.17l-.08-9.678s-.787.12-.863.678c-.077.56-.08 1.325-.08 1.325zM260.987 77.558l18.624.675M261.26 86.148l18.35.758M261.887 74.852l17.11.796.818.75" stroke="#747474" stroke-width=".5"/></g><path stroke="#747474" stroke-width=".5" d="M162.833 77.037l-.136 2.593 1.09.033v-.442h-.545l.068-2.206zM166.375 77.106c.273 0 1.225.29 1.225 1.364s-.96 1.425-1.293 1.425c-.334 0-1.226-.262-1.226-1.357s1.01-1.432 1.295-1.432"/><path d="M166.34 77.65c.507.022.852.363.852.826 0 .462-.445.88-.85.88-.408 0-.784-.2-.784-.856 0-.655.55-.86.783-.85zM168.622 79.895l1.294-2.45h.41l.68 2.526h-.34l-.347-.545h-.95l-.34.47z" stroke="#747474" stroke-width=".5"/><path d="M169.984 78.197s-.4.715-.364.682c.037-.034.7 0 .7 0l-.336-.683M172.3 79.97l.272-2.387s.46-.048.892.068c.43.116.868.436.88 1.06.01.62-.353 1-.886 1.26-.534.262-1.158 0-1.158 0z" stroke="#747474" stroke-width=".5"/><path d="M172.913 78.06l-.068 1.498s.634.18.88-.2c.245-.382.23-1.01-.13-1.16-.36-.152-.682-.137-.682-.137M162.765 88.78h2.316l-.885 1.835-1.43-1.836M168.895 90.82l.408.136v-.75s.794.047.817-.51c.024-.555-.466-.7-.75-.72-.28-.018-.61 0-.61 0v.72l.066.17.07.954" stroke="#747474" stroke-width=".5"/><path d="M169.237 89.455c-.072 0 0 .42 0 .42s.368.038.402-.122c.034-.16.084-.296-.403-.298zM171.96 89.114s.09.905.136 1.23c.044.325.32.89.885.885.566-.006.58-.756.546-1.092-.035-.337-.16-.956-.16-.956h-.385s.145.518.137.887c-.008.368.083.626-.272.68-.356.057-.433-.388-.477-.787-.044-.4-.068-.78-.068-.78l-.34-.07zM175.5 89.455l.205 1.774.205.136h.75v-.41l-.682-.068-.137-1.57zM178.43 89.592l.204 1.774.204.136h.75v-.41l-.682-.068-.136-1.57zM143.487 127.82s.814-.11.954.42M143.487 126.248l3.746.462M144.782 116h2.656" stroke="#747474" stroke-width=".5"/><path d="M146.03 111.61c1.687.08 2.835 4.922 2.563 10.81-.272 5.887-1.862 10.603-3.55 10.524-1.685-.078-2.833-4.92-2.56-10.808.272-5.887 1.862-10.603 3.548-10.525z" stroke="#747474" stroke-width=".5"/><path d="M143.487 119.425v9.416l.954-.68s.093 2.254.41 2.182c.316-.07 2.28-1.505 2.383-1.91.102-.406.205-11.918.205-11.918s-.084-2.28-.818-1.797c-.733.483-2.098.914-2.247 2.39-.15 1.472-.136 1.772-.136 1.772l-.75.545zM132.382 124.474c.045.325.01 1.223-.336 1.774M146.463 107.592c.18-.15 14.02-9.09 13.37-9.15-4.393-.42-27.324-1.795-28.076-1.34-5.436 3.294-11.11 7.393-12.202 8.126-1.265.85-3.99 3.376-4.3 6.23.82.036 4.434.363 4.542.37.67.046.806-2.727 1.55-2.72 5.144.064 16.18.342 17.755.685.24-.22-1.03 3.167-1.03 3.167s4.42.114 4.843 0c.96-2.158 1.054-3.27 3.548-5.368zM160.263 125.928s.176-12.68 0-13.454c-.176-.772-.966-1.044-1.903-.29-.936.75-4.717 3.323-4.717 3.323s-1.578 9.032-1.692 9.253c-.114.22-2.226 1.46-2.23 1.676-.055 3.43-1.082 5.43-1.72 6.98-.037.22-.108 1.15 0 1.07 2.56-1.98 12.263-8.558 12.263-8.558zM138.676 110.62l-17.808-.934M138.47 111.6l-17.602-.98M138.098 112.58l-17.833-.98" stroke="#747474" stroke-width=".5"/><path d="M124.243 121.917c-.776-.004-2.42-.284-2.702 1.108-.28 1.393-.055 3.447.092 3.7.43.746 2.783 1.05 5.533 1.087 1.31.017 3.147-.04 3.666 0 .52.04 1.904-.165 2.087-1.358.18-1.173-.09-3.172-.355-3.385-.265-.215-.856-.803-2.864-.905-2.01-.102-4.678-.245-5.455-.248z" stroke="#747474" stroke-width=".5"/><path d="M131.86 123.318c-.947-.353-7.956-.83-8.216-.63-.26.198-.392.24-.294.61.097.365.142 1.318 1.037 1.52.896.2 7.836.24 7.836.24s.125-1.558-.364-1.74zM132.237 126.753c-.565-.027-8.743-.475-8.92-.44-.176.034-.603.14-.603.14s.03.2 1.034.483c1.003.282 7.62.39 7.818.352.198-.038.67-.535.67-.535" stroke="#747474" stroke-width=".5"/><path d="M123.748 122.635c-.443-.125-.79-.233-1.116 0-.327.234-.656 1.022-.515 1.142.14.12 1.2-.154 1.2-.154M121.632 123.954l.435.098.254 2.04-.913-.137M159.855 98.504c-.017.12.014 5.468 0 9.98-.007 2.2-.34 2.152-1.413 3.116-1.45 1.305-4.548 3.28-5.116 3.697-.015.01-1.014-1.463-1.014-1.463s-2.778 1.788-2.766 2.357c.004.19-.334 10.467-.767 12.5-.94 4.408-1.8 7.27-3.82 7.326-2.39.066-3.033-7.23-3.12-9.705-.085-2.474.356-8.744 1.364-12.534.735-2.764 2.195-4.72 4.18-6.356.086-.07.067.76.16.695 6.16-4.41 12.31-8.64 12.31-8.64" stroke="#747474" stroke-width=".5"/><path d="M160.263 125.928s.176-12.68 0-13.454c-.176-.772-.966-1.044-1.903-.29-.936.75-4.717 3.323-4.717 3.323s-1.578 9.032-1.692 9.253c-.114.22-2.226 1.46-2.23 1.676-.055 3.43-1.082 5.43-1.72 6.98-.037.22-.108 1.15 0 1.07 2.56-1.98 12.263-8.558 12.263-8.558z" stroke="#747474" stroke-width=".5"/><path d="M142.987 112.81c-.547.335-.634 2.275-1.088 4.575-.505 2.558-.712 5.22-.533 8.15.276 4.52.442 5.397.52 6.852.1 1.907-1.704 2.27-1.704 2.27s-21.54-1.12-22.88-1.124c-3.688-.014-4.356-3.784-4.295-8.68.067-5.363.326-8.86.726-10.13.837-2.655 1.027-3.01 1.522-3.123l27.73 1.21z" stroke="#747474" stroke-width=".5" fill="#F9F9F9"/><path d="M138.676 110.62l-17.808-.934M138.47 111.6l-17.602-.98M138.098 112.58l-17.833-.98M124.243 121.917c-.776-.004-2.42-.284-2.702 1.108-.28 1.393-.055 3.447.092 3.7.43.746 2.783 1.05 5.533 1.087 1.31.017 3.147-.04 3.666 0 .52.04 1.904-.165 2.087-1.358.18-1.173-.09-3.172-.355-3.385-.265-.215-.856-.803-2.864-.905-2.01-.102-4.678-.245-5.455-.248z" stroke="#747474" stroke-width=".5"/><path d="M131.86 123.318c-.947-.353-7.956-.83-8.216-.63-.26.198-.392.24-.294.61.097.365.142 1.318 1.037 1.52.896.2 7.836.24 7.836.24s.125-1.558-.364-1.74zM132.237 126.753c-.565-.027-8.743-.475-8.92-.44-.176.034-.603.14-.603.14s.03.2 1.034.483c1.003.282 7.62.39 7.818.352.198-.038.67-.535.67-.535" stroke="#747474" stroke-width=".5"/><path d="M123.748 122.635c-.443-.125-.79-.233-1.116 0-.327.234-.656 1.022-.515 1.142.14.12 1.2-.154 1.2-.154M121.632 123.954l.435.098.254 2.04-.913-.137M114.883 132.935s.898 1.702 1.566 1.98c.667.275 28.74 1.1 28.74 1.1M117.13 133.617c.367.582.885 1.326 1.227 1.5M117.744 133.617s.717 1.297 1.02 1.5" stroke="#747474" stroke-width=".5"/><path d="M139.81 134.49s.75 1.366 1.157 1.526c.41.16-.612-1.526-.612-1.526s.89 1.316 1.226 1.526M141.99 131.638s-.027 1.977 1.77 4.39M159.015 115.4c-.11-.85-1.56-3.364-2.11.34-.55 3.706-.253 9.12.272 9.62.524.502 2.034.3 1.907-4.23" stroke="#747474" stroke-width=".5"/><path d="M158.13 115.33c-1.243 1.378-1.044 4.064-.476 5.596.05.136 28.33 1.352 28.33 1.352l17.83.856c-.38-2.13-.314-3.983.18-5.573 0 0-45.7-2.41-45.864-2.23z" stroke="#747474" stroke-width=".5"/><path d="M204.69 116.194c-1.767.985-1.18 8.31-.34 7.9.044-.022 6.946.492 6.946.492l6.13 3.14 17.98.956s2.213-1.626 2.315-2.534c.103-.91 0-1.39 0-1.39l.75-.87v-7.353s-.393-.426-.75-.478c-.354-.05-.077-1.438-1.09-1.57-1.01-.13-17.502-.835-17.502-.835l-7.49 2.883s-6.856-.393-6.948-.34z" stroke="#747474" stroke-width=".5"/><path d="M211.5 116.535c-.695 1.082-.9 2.455-.953 4.3-.052 1.84.258 3.18.75 3.922M218.788 113.652c-.834.844-1.64 1.535-1.77 3.77-.13 2.235.204 9.075.204 9.075s-.022 1.04.272 1.296M235.61 118s.03 9.682.204 9.793c.174.11 1.567-1.296 1.567-1.296l-.135-10.713s-1.366.133-1.5.75c-.13.62-.135 1.467-.135 1.467z" stroke="#747474" stroke-width=".5"/><path d="M235.815 118.265s.018 8.746.118 8.846c.1.1.904-1.17.904-1.17l-.08-9.678s-.787.12-.863.678c-.077.56-.08 1.325-.08 1.325zM216.987 117.558l18.624.675M217.26 126.148l18.35.758M217.887 114.852l17.11.796.818.75M118.833 117.037l-.136 2.593 1.09.033v-.442h-.545l.068-2.206zM122.375 117.106c.273 0 1.225.29 1.225 1.364s-.96 1.425-1.293 1.425c-.334 0-1.226-.262-1.226-1.357s1.01-1.432 1.295-1.432" stroke="#747474" stroke-width=".5"/><path d="M122.34 117.65c.507.022.852.363.852.826 0 .462-.445.88-.85.88-.408 0-.784-.2-.784-.856 0-.655.55-.86.783-.85zM124.622 119.895l1.294-2.45h.41l.68 2.526h-.34l-.347-.545h-.95l-.34.47z" stroke="#747474" stroke-width=".5"/><path d="M125.984 118.197s-.4.715-.364.682c.037-.034.7 0 .7 0l-.336-.683M128.3 119.97l.272-2.387s.46-.048.892.068c.43.116.868.436.88 1.06.01.62-.353 1-.886 1.26-.534.262-1.158 0-1.158 0z" stroke="#747474" stroke-width=".5"/><path d="M128.913 118.06l-.068 1.498s.634.18.88-.2c.245-.382.23-1.01-.13-1.16-.36-.152-.682-.137-.682-.137M118.765 128.78h2.316l-.885 1.835-1.43-1.836M124.895 130.82l.408.136v-.75s.794.047.817-.51c.024-.555-.466-.7-.75-.72-.28-.018-.61 0-.61 0v.72l.066.17.07.954" stroke="#747474" stroke-width=".5"/><path d="M125.237 129.455c-.072 0 0 .42 0 .42s.368.038.402-.122c.034-.16.084-.296-.403-.298zM127.96 129.114s.09.905.136 1.23c.044.325.32.89.885.885.566-.006.58-.756.546-1.092-.035-.337-.16-.956-.16-.956h-.385s.145.518.137.887c-.008.368.083.626-.272.68-.356.057-.433-.388-.477-.787-.044-.4-.068-.78-.068-.78l-.34-.07zM131.5 129.455l.205 1.774.205.136h.75v-.41l-.682-.068-.137-1.57zM134.43 129.592l.204 1.774.204.136h.75v-.41l-.682-.068-.136-1.57z" stroke="#747474" stroke-width=".5"/><use stroke="#747474" mask="url(#l)" stroke-width="2" class="cable A fill" fill="#B47239" xlink:href="#e"/><use stroke="#747474" mask="url(#m)" stroke-width="2" class="cable B fill" fill="#F5A623" xlink:href="#f"/><use stroke="#747474" mask="url(#n)" stroke-width="2" class="cable C fill" fill="#F8E71C" xlink:href="#g"/></g><g><path d="M250 84h8" stroke="#358CF1" stroke-linecap="square"/><path d="M248.69 76.194c-1.767.985-1.18 8.31-.34 7.9.044-.022 6.946.492 6.946.492l6.13 3.14 17.98.956s2.213-1.626 2.315-2.534c.103-.91 0-1.39 0-1.39l.75-.87v-7.353s-.393-.426-.75-.478c-.354-.05-.077-1.438-1.09-1.57-1.01-.13-17.502-.835-17.502-.835l-7.49 2.883s-6.856-.393-6.948-.34z" stroke="#747474" stroke-width=".5"/><path d="M262.788 73.652c-.834.844-1.64 1.535-1.77 3.77-.13 2.235.204 9.075.204 9.075s-.022 1.04.272 1.296M279.61 78s.03 9.682.204 9.793c.174.11 1.567-1.296 1.567-1.296l-.135-10.713s-1.366.133-1.5.75c-.13.62-.135 1.467-.135 1.467z" stroke="#747474" stroke-width=".5"/><path d="M279.815 78.265s.018 8.746.118 8.846c.1.1.904-1.17.904-1.17l-.08-9.678s-.787.12-.863.678c-.077.56-.08 1.325-.08 1.325zM260.987 77.558l18.624.675M261.26 86.148l18.35.758M261.887 74.852l17.11.796.818.75" stroke="#747474" stroke-width=".5"/></g></g></g></g></svg>