<svg xmlns="http://www.w3.org/2000/svg" xmlns:xlink="http://www.w3.org/1999/xlink" width="345" height="589" viewBox="0 0 345 589"><defs><path id="a" d="M0 0h350v596H0z"/><path id="c" d="M4 31h16v8H4z"/><path id="d" d="M0 79h20v8H0z"/><path id="e" d="M0 127h20v8H0z"/><path id="f" d="M98 31h16v8H98z"/><path id="g" d="M0 35h16v8H0z"/><path id="h" d="M0 47h16v8H0z"/><path id="i" d="M75 8H30V0h45"/><path id="j" d="M101 127h45v8h-45"/><path id="k" d="M.985 4.52l-.07 8.65 1.017.2.26 1.89 2.653-1.577s4.672.545 6.737 0c2.066-.546 5.678-3.278 5.678-3.278l.314-8.64L4.75.02 2.182.927l-.198 2.658-1 .935z"/><path id="m" d="M45 57H0v-8h45"/><path id="n" d="M44.6 8.976H0v-8h44.6"/><path id="o" d="M.985 4.52l-.07 8.65 1.017.2.26 1.89 2.653-1.577s4.672.545 6.737 0c2.066-.546 5.678-3.278 5.678-3.278l.314-8.64L4.75.02 2.182.927l-.198 2.658-1 .935z"/><path id="q" d="M0 1h45v8H0"/><path id="r" d="M.985 4.52l-.07 8.65 1.017.2.26 1.89 2.653-1.577s4.672.545 6.737 0c2.066-.546 5.678-3.278 5.678-3.278l.314-8.64L4.75.02 2.182.927l-.198 2.658-1 .935z"/><path id="t" d="M0 55h45v8H0"/><path id="u" d="M.985 4.52l-.07 8.65 1.017.2.26 1.89 2.653-1.577s4.672.545 6.737 0c2.066-.546 5.678-3.278 5.678-3.278l.314-8.64L4.75.02 2.182.927l-.198 2.658-1 .935z"/><path id="w" d="M.985 4.52l-.07 8.65 1.017.2.26 1.89 2.653-1.577s4.672.545 6.737 0c2.066-.546 5.678-3.278 5.678-3.278l.314-8.64L4.75.02 2.182.927l-.198 2.658-1 .935z"/><path id="y" d="M.985 4.52l-.07 8.65 1.017.2.26 1.89 2.653-1.577s4.672.545 6.737 0c2.066-.546 5.678-3.278 5.678-3.278l.314-8.64L4.75.02 2.182.927l-.198 2.658-1 .935z"/><path id="A" d="M94.342 150.855c8.938-5.574 25.607-11.335 41.608-13.207l-.56-4.77c-16.7 1.953-34.046 7.948-43.593 13.9l2.545 4.077zm66.868-12.786c16.272 2.772 29.72 10.67 39.508 24.477 11.495 16.21 17.41 103.166 17.41 135.784h4.807c0-33.538-6.162-121.45-18.294-138.56-10.557-14.89-25.14-23.458-42.622-26.436l-.808 4.735z"/></defs><g fill="none" fill-rule="evenodd"><g transform="translate(-1 -7) translate(1)"><mask id="b" fill="#fff"><use xlink:href="#a"/></mask><g mask="url(#b)"><g><g transform="translate(-54 7)"><g transform="translate(175)"><path stroke="#747474" d="M19.5.5h79v159h-79z"/><text fill="#4A4A4A" font-family="AvenirNext-Regular, Avenir Next" font-size="16"><tspan x="35.08" y="80">Circuit</tspan> <tspan x="27" y="96">Breakers</tspan></text><use class="cable A fill" fill="#B47239" xlink:href="#c"/><path stroke="#747474" d="M4.5 31.5h15v7h-15z"/><use class="cable A fill" fill="#B47239" xlink:href="#d"/><path stroke="#747474" d="M.5 79.5h19v7H.5z"/><use class="cable A fill" fill="#B47239" xlink:href="#e"/><path stroke="#747474" d="M.5 127.5h19v7H.5z"/><use class="cable A fill" fill="#B47239" xlink:href="#f"/><path stroke="#747474" d="M98.5 31.5h15v7h-15z"/><path stroke="#747474" stroke-width=".5" d="M144 42.01s.813-.11.953.42M144 41l3.746.462M145 31h2.656"/><path stroke="#747474" stroke-width=".5" d="M146.588 26c1.687.08 2.835 4.922 2.563 10.81-.27 5.887-1.862 10.603-3.548 10.525-1.686-.08-2.834-4.922-2.562-10.81.272-5.886 1.862-10.602 3.548-10.524z"/><path stroke="#747474" stroke-width=".5" d="M144 33.775v9.416l.953-.68s.093 2.253.41 2.182c.316-.07 2.28-1.505 2.383-1.91.102-.406.204-11.918.204-11.918s-.084-2.28-.817-1.797c-.733.483-2.098.914-2.248 2.388-.15 1.474-.136 1.774-.136 1.774l-.75.545zM132.336 39c.046.324.01 1.223-.336 1.774m14.207-18.194c.18-.15 14.02-9.09 13.37-9.15-4.393-.42-27.324-1.794-28.076-1.34-5.435 3.295-11.11 7.394-12.202 8.126-1.264.85-3.99 3.376-4.298 6.23.818.037 4.432.364 4.54.37.67.046.806-2.727 1.55-2.718 5.145.063 16.182.34 17.756.684.24-.22-1.03 3.167-1.03 3.167s4.42.113 4.842 0c.962-2.16 1.055-3.272 3.55-5.37zm14.114 17.61s.177-12.68 0-13.453c-.175-.773-.966-1.044-1.902-.292-.936.753-4.717 3.324-4.717 3.324s-1.577 9.032-1.692 9.253c-.114.22-2.227 1.46-2.23 1.675-.055 3.43-1.083 5.43-1.722 6.982-.035.22-.107 1.15 0 1.067 2.562-1.98 12.265-8.557 12.265-8.557zM138.81 24.935L121 24m17.603 1.98L121 25m16.833 1.98L120 26"/><path stroke="#747474" stroke-width=".5" d="M123.837 37.025c-.777-.003-2.422-.283-2.703 1.11-.28 1.39-.056 3.446.09 3.7.43.745 2.784 1.05 5.534 1.085 1.31.018 3.148-.04 3.666 0 .518.042 1.903-.164 2.086-1.358.18-1.172-.09-3.17-.355-3.385-.265-.213-.855-.8-2.864-.903-2.008-.102-4.677-.245-5.453-.25z"/><path stroke="#747474" stroke-width=".5" d="M131.54 37.678c-.945-.353-7.954-.83-8.213-.63-.26.198-.393.24-.295.61.098.365.142 1.318 1.038 1.52.895.2 7.835.24 7.835.24s.125-1.558-.364-1.74zm.983 3.765c-.565-.027-8.743-.475-8.92-.44-.176.033-.603.14-.603.14s.03.2 1.033.482c1.004.283 7.62.39 7.82.352.197-.038.67-.534.67-.534"/><path stroke="#747474" stroke-width=".5" d="M123.664 37.137c-.442-.125-.788-.233-1.115 0-.328.234-.657 1.022-.517 1.142.14.12 1.2-.155 1.2-.155M121.225 39l.435.098.254 2.04L121 41M160.024 13c-.016.12.015 5.468 0 9.98-.007 2.2-.34 2.152-1.413 3.116-1.45 1.305-4.546 3.28-5.115 3.697-.015.01-1.014-1.463-1.014-1.463s-2.776 1.788-2.765 2.357c.004.19-.334 10.466-.767 12.498-.94 4.41-1.8 7.27-3.82 7.327-2.387.066-3.032-7.23-3.117-9.706-.086-2.474.356-8.744 1.364-12.534.734-2.764 2.195-4.72 4.18-6.357.086-.07.066.76.158.696 6.16-4.41 12.312-8.64 12.312-8.64"/><path stroke="#747474" stroke-width=".5" d="M160.32 40.19s.177-12.68 0-13.453c-.175-.773-.966-1.044-1.902-.292-.936.753-4.717 3.324-4.717 3.324s-1.577 9.032-1.692 9.253c-.114.22-2.227 1.46-2.23 1.675-.055 3.43-1.083 5.43-1.722 6.982-.035.22-.107 1.15 0 1.067 2.562-1.98 12.265-8.557 12.265-8.557z"/><path fill="#F9F9F9" stroke="#747474" stroke-width=".5" d="M142.983 27.21c-.547.335-.635 2.275-1.088 4.576-.504 2.557-.71 5.22-.533 8.15.276 4.52.442 5.396.52 6.85.102 1.91-1.703 2.27-1.703 2.27s-21.54-1.117-22.88-1.122c-3.69-.015-4.358-3.785-4.296-8.68.067-5.364.325-8.86.726-10.132.837-2.653 1.026-3.01 1.522-3.122l27.73 1.21z"/><path stroke="#747474" stroke-width=".5" d="M138.808 24.935L121 24m17.603 1.98L121 25m16.833 1.98L120 26m3.837 11.025c-.777-.003-2.422-.283-2.703 1.11-.28 1.39-.056 3.446.09 3.7.43.745 2.784 1.05 5.534 1.085 1.31.018 3.148-.04 3.666 0 .518.042 1.903-.164 2.086-1.358.18-1.172-.09-3.17-.355-3.385-.265-.213-.855-.8-2.864-.903-2.008-.102-4.677-.245-5.453-.25z"/><path stroke="#747474" stroke-width=".5" d="M131.54 37.678c-.945-.353-7.954-.83-8.213-.63-.26.198-.393.24-.295.61.098.365.142 1.318 1.038 1.52.895.2 7.835.24 7.835.24s.125-1.558-.364-1.74zm.983 3.765c-.565-.027-8.743-.475-8.92-.44-.176.033-.603.14-.603.14s.03.2 1.033.482c1.004.283 7.62.39 7.82.352.197-.038.67-.534.67-.534"/><path stroke="#747474" stroke-width=".5" d="M123.664 37.137c-.442-.125-.788-.233-1.115 0-.328.234-.657 1.022-.517 1.142.14.12 1.2-.155 1.2-.155M121.225 39l.435.098.254 2.04L121 41M115 48s.898 1.702 1.566 1.98c.668.275 28.74 1.102 28.74 1.102M117 48c.366.582.884 1.326 1.226 1.5M118 48s.717 1.297 1.022 1.5M140 49s.75 1.366 1.158 1.527c.408.16-.613-1.527-.613-1.527s.89 1.316 1.226 1.527M142 46s-.026 1.976 1.77 4.39m15.635-20.766c-.11-.85-1.56-3.364-2.11.34-.55 3.706-.253 9.12.27 9.622.526.5 2.036.3 1.908-4.23M119.136 32.023L119 34.616l1.09.033v-.444h-.545l.068-2.206zM122.294 32c.273 0 1.226.29 1.226 1.364s-.96 1.426-1.294 1.426c-.333 0-1.226-.262-1.226-1.357 0-1.096 1.01-1.433 1.294-1.433"/><path stroke="#747474" stroke-width=".5" d="M122.783 32c.506.02.85.362.85.825 0 .462-.444.88-.85.88-.406 0-.783-.2-.783-.855 0-.656.55-.86.783-.85zM125 34.45l1.294-2.45h.41l.68 2.525h-.34l-.347-.546h-.948l-.34.47z"/><path stroke="#747474" stroke-width=".5" d="M126.367 33s-.4.715-.365.682c.037-.033.7 0 .7 0l-.335-.682M128 34.398l.272-2.388s.46-.048.893.067c.43.116.867.436.878 1.06.012.62-.352 1-.885 1.26-.533.262-1.158 0-1.158 0z"/><path stroke="#747474" stroke-width=".5" d="M129.068 33L129 34.498s.635.18.88-.202c.245-.38.23-1.01-.13-1.16-.36-.15-.682-.136-.682-.136M119 43h2.316l-.886 1.836L119 43M125.136 45.85l.41.137v-.75s.792.047.816-.51c.024-.555-.466-.7-.75-.718-.282-.02-.612 0-.612 0v.718l.068.168.068.955"/><path stroke="#747474" stroke-width=".5" d="M125.032 44c-.072 0 0 .42 0 .42s.368.038.402-.122c.035-.16.085-.296-.402-.298zM128 44s.092.905.136 1.23c.044.325.32.89.886.885.565-.005.58-.755.544-1.09-.034-.338-.158-.957-.158-.957h-.386s.143.518.136.887c-.008.37.083.627-.273.682-.356.055-.432-.39-.476-.79-.046-.398-.07-.78-.07-.78L128 44zM132 44.136l.205 1.774.204.137h.748v-.41l-.68-.068-.137-1.57z"/></g><g transform="translate(273 44)"><path stroke="#747474" stroke-width=".5" d="M40.808 28.935L23 28m17.603 1.98L23 29m16.833 1.98L22 30m3.837 11.025c-.777-.003-2.422-.283-2.703 1.11-.28 1.39-.056 3.446.09 3.7.43.745 2.784 1.05 5.534 1.085 1.31.018 3.148-.04 3.666 0 .518.042 1.903-.164 2.086-1.358.18-1.172-.09-3.17-.355-3.385-.265-.213-.855-.8-2.864-.903-2.008-.102-4.677-.245-5.453-.25z"/><path stroke="#747474" stroke-width=".5" d="M33.54 41.678c-.945-.353-7.954-.83-8.213-.63-.26.198-.393.24-.295.61.098.365.142 1.318 1.038 1.52.895.2 7.835.24 7.835.24s.125-1.558-.364-1.74zm.983 3.765c-.565-.027-8.743-.475-8.92-.44-.176.033-.603.14-.603.14s.03.2 1.033.482c1.004.283 7.62.39 7.82.352.197-.038.67-.534.67-.534"/><path stroke="#747474" stroke-width=".5" d="M25.664 41.137c-.442-.125-.788-.233-1.115 0-.328.234-.657 1.022-.517 1.142.14.12 1.2-.155 1.2-.155M23.225 43l.435.098.254 2.04L23 45M17 52s.898 1.702 1.566 1.98c.668.275 28.74 1.102 28.74 1.102M19 52c.366.582.884 1.326 1.226 1.5M20 52s.717 1.297 1.022 1.5M42 53s.75 1.366 1.158 1.527c.408.16-.613-1.527-.613-1.527s.89 1.316 1.226 1.527M44 50s-.026 1.976 1.77 4.39m15.635-20.766c-.11-.85-1.56-3.364-2.11.34-.55 3.706-.253 9.12.27 9.622.526.5 2.036.3 1.908-4.23M21.136 36.023L21 38.616l1.09.033v-.444h-.545L21.613 36zM24.294 36c.273 0 1.226.29 1.226 1.364s-.96 1.426-1.294 1.426c-.333 0-1.226-.262-1.226-1.357C23 36.337 24.01 36 24.294 36"/><path stroke="#747474" stroke-width=".5" d="M24.783 36c.506.02.85.362.85.825 0 .462-.444.88-.85.88-.406 0-.783-.2-.783-.855 0-.656.55-.86.783-.85zM36 .137l.204 1.774.205.137h.748v-.41l-.68-.068L36.34 0z"/><use class="cable A fill" fill="#B47239" xlink:href="#g"/><path stroke="#747474" d="M.5 35.5h15v7H.5z"/><path stroke="#747474" stroke-width=".5" d="M46 46.01s.813-.11.953.42M46 45l3.746.462M47 35h2.656"/><path stroke="#747474" stroke-width=".5" d="M48.588 30c1.687.08 2.835 4.922 2.563 10.81-.27 5.887-1.862 10.603-3.548 10.525-1.686-.08-2.834-4.922-2.562-10.81.272-5.886 1.862-10.602 3.548-10.524z"/><path stroke="#747474" stroke-width=".5" d="M46 37.775v9.416l.953-.68s.093 2.253.41 2.182c.316-.07 2.28-1.505 2.383-1.91.102-.406.204-11.918.204-11.918s-.084-2.28-.817-1.797c-.733.483-2.098.914-2.248 2.388-.15 1.474-.136 1.774-.136 1.774l-.75.545zM34.336 43c.046.324.01 1.223-.336 1.774M48.207 26.58c.18-.15 14.02-9.09 13.37-9.15-4.393-.42-27.324-1.794-28.076-1.34-5.435 3.295-11.11 7.394-12.202 8.126-1.264.85-3.99 3.376-4.298 6.23.818.037 4.432.364 4.54.37.67.046.806-2.727 1.55-2.718 5.145.063 16.182.34 17.756.684.24-.22-1.03 3.167-1.03 3.167s4.42.113 4.842 0c.962-2.16 1.055-3.272 3.55-5.37zM62.32 44.19s.177-12.68 0-13.453c-.175-.773-.966-1.044-1.902-.292-.936.753-4.717 3.324-4.717 3.324s-1.577 9.032-1.692 9.253c-.114.22-2.227 1.46-2.23 1.675-.055 3.43-1.083 5.43-1.722 6.982-.035.22-.107 1.15 0 1.067 2.562-1.98 12.265-8.557 12.265-8.557zM40.81 28.935L23 28m17.603 1.98L23 29m16.833 1.98L22 30"/><path stroke="#747474" stroke-width=".5" d="M25.837 41.025c-.777-.003-2.422-.283-2.703 1.11-.28 1.39-.056 3.446.09 3.7.43.745 2.784 1.05 5.534 1.085 1.31.018 3.148-.04 3.666 0 .518.042 1.903-.164 2.086-1.358.18-1.172-.09-3.17-.355-3.385-.265-.213-.855-.8-2.864-.903-2.008-.102-4.677-.245-5.453-.25z"/><path stroke="#747474" stroke-width=".5" d="M33.54 41.678c-.945-.353-7.954-.83-8.213-.63-.26.198-.393.24-.295.61.098.365.142 1.318 1.038 1.52.895.2 7.835.24 7.835.24s.125-1.558-.364-1.74zm.983 3.765c-.565-.027-8.743-.475-8.92-.44-.176.033-.603.14-.603.14s.03.2 1.033.482c1.004.283 7.62.39 7.82.352.197-.038.67-.534.67-.534"/><path stroke="#747474" stroke-width=".5" d="M25.664 41.137c-.442-.125-.788-.233-1.115 0-.328.234-.657 1.022-.517 1.142.14.12 1.2-.155 1.2-.155M23.225 43l.435.098.254 2.04L23 45M62.024 17c-.016.12.015 5.468 0 9.98-.007 2.2-.34 2.152-1.413 3.116-1.45 1.305-4.546 3.28-5.115 3.697-.015.01-1.014-1.463-1.014-1.463s-2.776 1.788-2.765 2.357c.004.19-.334 10.466-.767 12.498-.94 4.41-1.8 7.27-3.82 7.327-2.387.066-3.032-7.23-3.117-9.706-.086-2.474.356-8.744 1.364-12.534.734-2.764 2.195-4.72 4.18-6.357.086-.07.066.76.158.696 6.16-4.41 12.312-8.64 12.312-8.64"/><path stroke="#747474" stroke-width=".5" d="M62.32 44.19s.177-12.68 0-13.453c-.175-.773-.966-1.044-1.902-.292-.936.753-4.717 3.324-4.717 3.324s-1.577 9.032-1.692 9.253c-.114.22-2.227 1.46-2.23 1.675-.055 3.43-1.083 5.43-1.722 6.982-.035.22-.107 1.15 0 1.067 2.562-1.98 12.265-8.557 12.265-8.557z"/><path fill="#F9F9F9" stroke="#747474" stroke-width=".5" d="M44.983 31.21c-.547.335-.635 2.275-1.088 4.576-.504 2.557-.71 5.22-.533 8.15.276 4.52.442 5.396.52 6.85.102 1.91-1.703 2.27-1.703 2.27S20.64 51.94 19.3 51.934c-3.69-.015-4.358-3.785-4.296-8.68.067-5.364.325-8.86.726-10.132.837-2.653 1.026-3.01 1.522-3.122l27.73 1.21z"/><path stroke="#747474" stroke-width=".5" d="M25.837 41.025c-.777-.003-2.422-.283-2.703 1.11-.28 1.39-.056 3.446.09 3.7.43.745 2.784 1.05 5.534 1.085 1.31.018 3.148-.04 3.666 0 .518.042 1.903-.164 2.086-1.358.18-1.172-.09-3.17-.355-3.385-.265-.213-.855-.8-2.864-.903-2.008-.102-4.677-.245-5.453-.25z"/><path stroke="#747474" stroke-width=".5" d="M33.54 41.678c-.945-.353-7.954-.83-8.213-.63-.26.198-.393.24-.295.61.098.365.142 1.318 1.038 1.52.895.2 7.835.24 7.835.24s.125-1.558-.364-1.74zm.983 3.765c-.565-.027-8.743-.475-8.92-.44-.176.033-.603.14-.603.14s.03.2 1.033.482c1.004.283 7.62.39 7.82.352.197-.038.67-.534.67-.534"/><path stroke="#747474" stroke-width=".5" d="M25.664 41.137c-.442-.125-.788-.233-1.115 0-.328.234-.657 1.022-.517 1.142.14.12 1.2-.155 1.2-.155M23.225 43l.435.098.254 2.04L23 45M21.136 36.023L21 38.616l1.09.033v-.444h-.545L21.613 36zM24.294 36c.273 0 1.226.29 1.226 1.364s-.96 1.426-1.294 1.426c-.333 0-1.226-.262-1.226-1.357C23 36.337 24.01 36 24.294 36"/><path stroke="#747474" stroke-width=".5" d="M24.783 36c.506.02.85.362.85.825 0 .462-.444.88-.85.88-.406 0-.783-.2-.783-.855 0-.656.55-.86.783-.85zm6.285 1L31 38.498s.635.18.88-.202c.245-.38.23-1.01-.13-1.16-.36-.15-.682-.136-.682-.136"/></g><g transform="translate(273 80)"><path stroke="#747474" stroke-width=".5" d="M39.833 43.98L22 43m3.837 10.025c-.777-.003-2.422-.283-2.703 1.11-.28 1.39-.056 3.446.09 3.7.43.745 2.784 1.05 5.534 1.085 1.31.018 3.148-.04 3.666 0 .518.042 1.903-.164 2.086-1.358.18-1.172-.09-3.17-.355-3.385-.265-.213-.855-.8-2.864-.903-2.008-.102-4.677-.245-5.453-.25z"/><path stroke="#747474" stroke-width=".5" d="M33.54 54.678c-.945-.353-7.954-.83-8.213-.63-.26.198-.393.24-.295.61.098.365.142 1.318 1.038 1.52.895.2 7.835.24 7.835.24s.125-1.558-.364-1.74zm.983 3.765c-.565-.027-8.743-.475-8.92-.44-.176.033-.603.14-.603.14s.03.2 1.033.482c1.004.283 7.62.39 7.82.352.197-.038.67-.534.67-.534"/><path stroke="#747474" stroke-width=".5" d="M25.664 54.137c-.442-.125-.788-.233-1.115 0-.328.234-.657 1.022-.517 1.142.14.12 1.2-.155 1.2-.155M23.225 55l.435.098.254 2.04L23 57M62.024 30c-.016.12.015 5.468 0 9.98-.007 2.2-.34 2.152-1.413 3.116-1.45 1.305-4.546 3.28-5.115 3.697-.015.01-1.014-1.463-1.014-1.463s-2.776 1.788-2.765 2.357c.004.19-.334 10.466-.767 12.498-.94 4.41-1.8 7.27-3.82 7.327-2.387.066-3.032-7.23-3.117-9.706-.086-2.474.356-8.744 1.364-12.534.734-2.764 2.195-4.72 4.18-6.357.086-.07.066.76.158.696 6.16-4.41 12.312-8.64 12.312-8.64"/><path stroke="#747474" stroke-width=".5" d="M62.32 57.19s.177-12.68 0-13.453c-.175-.773-.966-1.044-1.902-.292-.936.753-4.717 3.324-4.717 3.324s-1.577 9.032-1.692 9.253c-.114.22-2.227 1.46-2.23 1.675-.055 3.43-1.083 5.43-1.722 6.982-.035.22-.107 1.15 0 1.067 2.562-1.98 12.265-8.557 12.265-8.557z"/><path fill="#F9F9F9" stroke="#747474" stroke-width=".5" d="M44.983 44.21c-.547.335-.635 2.275-1.088 4.576-.504 2.557-.71 5.22-.533 8.15.276 4.52.442 5.396.52 6.85.102 1.91-1.703 2.27-1.703 2.27S20.64 64.94 19.3 64.934c-3.69-.015-4.358-3.785-4.296-8.68.067-5.364.325-8.86.726-10.132.837-2.653 1.026-3.01 1.522-3.122l27.73 1.21z"/><path stroke="#747474" stroke-width=".5" d="M40.808 41.935L23 41m17.603 1.98L23 42m16.833 1.98L22 43m3.837 10.025c-.777-.003-2.422-.283-2.703 1.11-.28 1.39-.056 3.446.09 3.7.43.745 2.784 1.05 5.534 1.085 1.31.018 3.148-.04 3.666 0 .518.042 1.903-.164 2.086-1.358.18-1.172-.09-3.17-.355-3.385-.265-.213-.855-.8-2.864-.903-2.008-.102-4.677-.245-5.453-.25z"/><path stroke="#747474" stroke-width=".5" d="M33.54 54.678c-.945-.353-7.954-.83-8.213-.63-.26.198-.393.24-.295.61.098.365.142 1.318 1.038 1.52.895.2 7.835.24 7.835.24s.125-1.558-.364-1.74zm.983 3.765c-.565-.027-8.743-.475-8.92-.44-.176.033-.603.14-.603.14s.03.2 1.033.482c1.004.283 7.62.39 7.82.352.197-.038.67-.534.67-.534"/><path stroke="#747474" stroke-width=".5" d="M25.664 54.137c-.442-.125-.788-.233-1.115 0-.328.234-.657 1.022-.517 1.142.14.12 1.2-.155 1.2-.155M23.225 55l.435.098.254 2.04L23 57M17 64s.898 1.702 1.566 1.98c.668.275 28.74 1.102 28.74 1.102M19 65c.366.582.884 1.326 1.226 1.5M20 65s.717 1.297 1.022 1.5"/><path stroke="#747474" stroke-width=".5" d="M42 66s.75 1.366 1.158 1.527c.408.16-.613-1.527-.613-1.527s.89 1.316 1.226 1.527M44 63s-.026 1.976 1.77 4.39m15.635-20.766c-.11-.85-1.56-3.364-2.11.34-.55 3.706-.253 9.12.27 9.622.526.5 2.036.3 1.908-4.23"/><path stroke="#747474" stroke-width=".5" d="M59.922 53.532c3.212.75 20.943 6.34 26.01 9.91 5.065 3.572 11.452 9.31 11.452 9.31s3.637-2.33 5.1-2.743c0 0-7.79-6.675-12.583-9.998-4.793-3.324-29.978-13.002-29.978-13.002s-3.213 5.77 0 6.522zM27 2.45L28.294 0h.41l.68 2.525h-.34l-.347-.546h-.948l-.34.47z"/><path stroke="#747474" stroke-width=".5" d="M28.367 1s-.4.715-.365.682c.037-.033.7 0 .7 0L28.366 1M30 2.398L30.272.01s.46-.048.893.067c.43.116.867.436.878 1.06.012.62-.352 1-.885 1.26-.533.262-1.158 0-1.158 0zM21 11h2.316l-.886 1.836L21 11M27.136 13.85l.41.137v-.75s.792.047.816-.51c.024-.555-.466-.7-.75-.718-.282-.02-.612 0-.612 0v.718l.068.168.068.955"/><path stroke="#747474" stroke-width=".5" d="M27.032 12c-.072 0 0 .42 0 .42s.368.038.402-.122c.035-.16.085-.296-.402-.298zM30 12s.092.905.136 1.23c.044.325.32.89.886.885.565-.005.58-.755.544-1.09-.034-.338-.158-.957-.158-.957h-.386s.143.518.136.887c-.008.37.083.627-.273.682-.356.055-.432-.39-.476-.79-.046-.398-.07-.78-.07-.78L30 12zM34 12.136l.205 1.774.204.137h.748v-.41l-.68-.068L34.34 12zM36 12.137l.204 1.774.205.137h.748v-.41l-.68-.068L36.34 12z"/><use class="cable A fill" fill="#B47239" xlink:href="#h"/><path stroke="#747474" d="M.5 47.5h15v7H.5z"/><path stroke="#747474" stroke-width=".5" d="M45 59.01s.813-.11.953.42M45 58l3.746.462M47 47h2.656"/><path stroke="#747474" stroke-width=".5" d="M47.588 43c1.687.08 2.835 4.922 2.563 10.81-.27 5.887-1.862 10.603-3.548 10.525-1.686-.08-2.834-4.922-2.562-10.81.272-5.886 1.862-10.602 3.548-10.524z"/><path stroke="#747474" stroke-width=".5" d="M45 50.775v9.416l.953-.68s.093 2.253.41 2.182c.316-.07 2.28-1.505 2.383-1.91.102-.406.204-11.918.204-11.918s-.084-2.28-.817-1.797c-.733.483-2.098.914-2.248 2.388-.15 1.474-.136 1.774-.136 1.774l-.75.545zM34.336 56c.046.324.01 1.223-.336 1.774M48.207 38.58c.18-.15 14.02-9.09 13.37-9.15-4.393-.42-27.324-1.794-28.076-1.34-5.435 3.295-11.11 7.394-12.202 8.126-1.264.85-3.99 3.376-4.298 6.23.818.037 4.432.364 4.54.37.67.046.806-2.727 1.55-2.718 5.145.063 16.182.34 17.756.684.24-.22-1.03 3.167-1.03 3.167s4.42.113 4.842 0c.962-2.16 1.055-3.272 3.55-5.37zM62.32 57.19s.177-12.68 0-13.453c-.175-.773-.966-1.044-1.902-.292-.936.753-4.717 3.324-4.717 3.324s-1.577 9.032-1.692 9.253c-.114.22-2.227 1.46-2.23 1.675-.055 3.43-1.083 5.43-1.722 6.982-.035.22-.107 1.15 0 1.067 2.562-1.98 12.265-8.557 12.265-8.557zM40.81 41.935L23 41m17.603 1.98L23 42"/></g><g stroke="#747474" stroke-width=".5"><path d="M376.758 150.174c-1.755-1.007-7.733 3.27-6.947 3.777.042.028 3.157 6.21 3.157 6.21l.466 6.87 8.44 15.904s2.533 1.06 3.365.68c.83-.38 1.192-.717 1.192-.717l1.13.196 6.304-3.788s.162-.557.023-.888c-.14-.33 1.193-.808.784-1.743-.408-.934-8.298-15.433-8.298-15.433l-6.33-4.936s-3.193-6.077-3.284-6.13z"/><path d="M379.872 156.247c-1.287-.04-2.57.492-4.176 1.397-1.606.904-2.595 1.86-2.977 2.662m13.247.26c-1.153-.28-2.16-.616-4.143.424-1.983 1.04-7.674 4.85-7.674 4.85s-.904.517-.97.9m18.03 10.74s-8.282 5.013-8.287 5.22c-.006.204 1.917.674 1.917.674l9.113-5.634s-.818-1.103-1.415-.898c-.598.205-1.327.64-1.327.64z"/><path d="M390.537 177.886s-7.488 4.52-7.522 4.657c-.034.137 1.47.17 1.47.17l8.254-5.05s-.51-.615-1.027-.393c-.518.223-1.176.616-1.176.616zm-8.926-16.803l9.014 16.31m-16.728-11.675l8.802 16.12M384.697 160.395l8.13 15.076-.222 1.09"/></g><g transform="translate(294 127)"><path stroke="#747474" stroke-width=".5" d="M.136 1.023L0 3.616l1.09.033v-.444H.545L.613 1zM3.294 1c.273 0 1.226.29 1.226 1.364S3.56 3.79 3.226 3.79C2.893 3.79 2 3.528 2 2.433 2 1.337 3.01 1 3.294 1"/><path stroke="#747474" stroke-width=".5" d="M3.783 2c.506.02.85.362.85.825 0 .462-.444.88-.85.88-.406 0-.783-.2-.783-.855 0-.656.55-.86.783-.85zM6 4.45L7.294 2h.41l.68 2.525h-.34l-.347-.546H6.75l-.34.47z"/><path stroke="#747474" stroke-width=".5" d="M7.367 3s-.4.715-.365.682c.037-.033.7 0 .7 0L7.366 3M9 4.398l.272-2.388s.46-.048.893.067c.43.116.867.436.878 1.06.012.62-.352 1-.885 1.26-.533.262-1.158 0-1.158 0z"/><path stroke="#747474" stroke-width=".5" d="M10.068 2L10 3.498s.635.18.88-.202c.245-.38.23-1.01-.13-1.16-.36-.15-.682-.136-.682-.136M0 13h2.316l-.886 1.836L0 13M6.136 14.85l.41.137v-.75s.792.047.816-.51c.024-.555-.466-.7-.75-.718-.282-.02-.612 0-.612 0v.718l.068.168.068.955"/><path stroke="#747474" stroke-width=".5" d="M6.032 14c-.072 0 0 .42 0 .42s.368.038.402-.122c.035-.16.085-.296-.402-.298zM9 14s.092.905.136 1.23c.044.325.32.89.886.885.565-.005.58-.755.544-1.09-.034-.338-.158-.957-.158-.957h-.386s.143.518.136.887c-.008.37.083.627-.273.682-.356.055-.432-.39-.476-.79-.046-.398-.07-.78-.07-.78L9 14zM13 14.136l.205 1.774.204.137h.748v-.41l-.68-.068L13.34 14zM15 14.137l.204 1.774.205.137h.748v-.41l-.68-.068L15.34 14z"/><use class="cable A fill" fill="#B47239" xlink:href="#i"/><path stroke="#747474" d="M74.5 7.5h-44v-7h44v7z"/></g><g stroke="#747474" stroke-width=".5"><path d="M143 36h3.274M149 18l9.684 5.835M151 18l8.563 5.31M154 18l7.887 5.026M156 18l7.33 4.786M158 18l7.198 4.59M137 25.523c0-.62.09-3.045.262-3.474.17-.43.507-1.08.785-1.05.278.03 1.014 1.58 1.047 2.623.032 1.044.13 4.655.13 4.655s-.04 3.89-.85 4.13c-.81.238-.967-1.298-.982-1.443"/><path d="M136.358 33.55c-.158.647-.263.557-.33 2.626-.065 2.07 0 8.124 0 8.124s13.216 7.94 13.515 8.13c.3.187 1.963-.447 2.63-3.87.67-3.422.85-7.673.544-10.947-.306-3.273-1.392-11.303-3.86-11.603-2.47-.3-2.916 6.402-2.946 7.276-.028.875-.326 7.157-.326 7.157l-2.486-1.29-.982-2.72s-4.85-2.807-5.104-3.015c-.253-.21-.59-.133-.654.13z"/><path d="M148 33l.454.162 2.163-.162M150 53.298l27.615-.987s1.012-1.028 1.113-1.31m-42.726-19.838s-.076 1.266.85 1.9c.927.637 5.104 3.08 5.104 3.08l1.636-6.684 1.897 1.05s.79-5.25 1.832-5.508"/><path fill="#F9F9F9" d="M153.814 51.633s23.563-1.068 24.276-1.114c.714-.048 1.82-.092 2.03-1.312.207-1.22 1.732-9.603.718-13.898-1.013-4.295-1.502-5.304-3.73-5.31-2.227-.007-21.79.918-21.79.918s-2.33 1.034-2.027 3.31c.304 2.277.737 6.122.72 7.9-.016 1.777-.476 6.144-.785 7.276-.31 1.133-.45 2.243.59 2.23z"/><path d="M148.33 32c-.186.543-.326.026-.326 4.305 0 4.28-.01 8.615 0 8.65.19.8.857 1.21 2.16 1.705m1.11-3.66l-3.274.093"/><path d="M148.72 32.04c.398.22 1.756 1.113 1.897 1.64.14.525.202 2.523.202 2.523l.91.35-.066 8.795-.785-.46s-.037 1.955-.394 2.198c-.355.242-1.935-.632-2.16-1.213-.222-.58-.282-1.49-.26-3.475.02-1.984-.066-9.44-.066-9.44s.157-1.19.72-.917"/><path d="M149.464 29c1.535-.05 2.933 4.534 3.12 10.23.187 5.697-.908 10.362-2.443 10.413-1.535.05-2.933-4.533-3.12-10.23-.186-5.696.91-10.362 2.444-10.413zm24.768-5L174 25.31s1.454-.287 1.767-.26c.313.025 1.225.34 2.028 1.966.804 1.626 1.57 5.31 1.57 5.31M175 25c.445.4 1.775 1.893 2.37 5.287M174.027 45h1.08l-.262 2.163h-.262v-1.665H174l.027-.498M160.178 37.098l-.13-2.098H159v.393l.72.066.13 1.638zM163.178 37.098l-.13-2.098H162v.393l.72.066.13 1.638zM165.197 37.163s-.207-2.007-.197-1.9c.01.105.07-.27.59-.263.52.006.707.218.72.46l.064 1.638h-.327s-.11-1.313-.196-1.574c-.083-.26-.466-.055-.457.13.01.188.13 1.444.13 1.444l-.326.065zm3.655-2.097v.983s-.82-.234-.85.458c-.032.69.347.706.59.72.24.016.784 0 .784 0v-.95L169.31 35l-.458.066z"/><path d="M168.527 36.01s-.497-.07-.523.147c-.027.22.098.27.26.293.164.024.284-.012.263-.44zM173.72 35l-.72 2.032 2.16-.257L173.72 35zM159 46.983l2.207-.983-.31 1.9zM165.835 47.96l.196-1.947s-.837-.03-1.112 0c-.274.03-.882.578-.915 1.115-.034.537.248.96.59 1.05.34.086 1.242-.023 1.242-.023"/><path d="M165.058 47.377L164.992 46s-.93.202-.98.59c-.053.388.08.67.457.72.377.05.588.067.588.067zM167 46l.72 2.11h.262l1.243-2.11h-.458l-.23.407h-.883l-.327-.407z"/><path d="M168 47l.277.557.374-.557zM171.44 46c.41 0 1.042.372.983 1.05-.06.676-.795 1.113-1.31 1.113-.516 0-1.113-.476-1.113-1.114 0-.64.828-1.05 1.44-1.05z"/><path d="M171.895 46c.255 0 .65.23.612.652-.037.422-.495.694-.815.694-.32 0-.692-.297-.692-.694 0-.396.515-.652.895-.652zM136 18v7.408m1-7.228L163.893 17l11.19 6.883-2.16.197s2.04.78 2.88 2.294c.84 1.515 1.44 4 1.44 4l-21.856.917s-.864-3.937-2.29-5.178c-1.426-1.24-2.03-.983-2.03-.983l-2.943.26L137 18.18zm24.293 21.196c-.15.623-.576 2.863 0 3.606.576.743.756 1.092 4.188.918 3.433-.175 5.778-.146 6.348-1.115.57-.968.33-3.672-.196-4.326-.528-.656-2.423-.428-5.04-.395-2.615.033-4.945-.15-5.3 1.31z"/><path d="M162.28 38.765c-.185.514-.334 2.246-.26 2.884.072.637.384 1.056 2.158 1.048 1.774-.008 6.61-.393 6.61-.393s.948-.708.98-1.77c.033-1.063-.533-2.323-.916-2.492-.382-.168-7.316.203-7.59.263s-.866.138-.982.46z"/><path d="M161.196 40.6l.66-.29s6.91-.37 7.878-.3c.968.068.882 1.9-.066 1.9-.947 0-7.936.393-7.936.393l-.732-.197m-12 3.07l1.767-.176m1.018-1l-.785.444M154.72 52l-.72.983m2 0l.687-.983M157 52.344l16.953-.885.32-.46"/></g><g stroke="#747474" stroke-width=".5"><path d="M143 84h3.274M149 66l9.684 5.835M151 66l8.563 5.31M154 66l7.887 5.026M156 66l7.33 4.786M158 66l7.198 4.59M137 73.523c0-.62.09-3.045.262-3.474.17-.43.507-1.08.785-1.05.278.03 1.014 1.58 1.047 2.623.032 1.044.13 4.655.13 4.655s-.04 3.89-.85 4.13c-.81.238-.967-1.298-.982-1.443"/><path d="M136.358 81.55c-.158.647-.263.557-.33 2.626-.065 2.07 0 8.124 0 8.124s13.216 7.94 13.515 8.13c.3.187 1.963-.447 2.63-3.87.67-3.422.85-7.673.544-10.947-.306-3.273-1.392-11.303-3.86-11.603-2.47-.3-2.916 6.402-2.946 7.276-.028.875-.326 7.157-.326 7.157l-2.486-1.29-.982-2.72s-4.85-2.807-5.104-3.015c-.253-.21-.59-.133-.654.13z"/><path d="M148 81l.454.162 2.163-.162M150 101.298l27.615-.987s1.012-1.028 1.113-1.31m-42.726-19.838s-.076 1.266.85 1.9c.927.637 5.104 3.08 5.104 3.08l1.636-6.684 1.897 1.05s.79-5.25 1.832-5.508"/><path fill="#F9F9F9" d="M153.814 99.633s23.563-1.068 24.276-1.114c.714-.048 1.82-.092 2.03-1.312.207-1.22 1.732-9.603.718-13.898-1.013-4.295-1.502-5.304-3.73-5.31-2.227-.007-21.79.918-21.79.918s-2.33 1.034-2.027 3.31c.304 2.277.737 6.122.72 7.9-.016 1.777-.476 6.144-.785 7.276-.31 1.133-.45 2.243.59 2.23z"/><path d="M148.33 80c-.186.543-.326.026-.326 4.305 0 4.28-.01 8.615 0 8.65.19.8.857 1.21 2.16 1.705m1.11-3.66l-3.274.093"/><path d="M148.72 80.04c.398.22 1.756 1.113 1.897 1.64.14.525.202 2.523.202 2.523l.91.35-.066 8.795-.785-.46s-.037 1.955-.394 2.198c-.355.242-1.935-.632-2.16-1.213-.222-.58-.282-1.49-.26-3.475.02-1.984-.066-9.44-.066-9.44s.157-1.19.72-.917"/><path d="M149.464 77c1.535-.05 2.933 4.534 3.12 10.23.187 5.697-.908 10.362-2.443 10.413-1.535.05-2.933-4.533-3.12-10.23-.186-5.696.91-10.362 2.444-10.413zm24.768-5L174 73.31s1.454-.287 1.767-.26c.313.025 1.225.34 2.028 1.966.804 1.626 1.57 5.31 1.57 5.31M175 73c.445.4 1.775 1.893 2.37 5.287M174.027 93h1.08l-.262 2.163h-.262v-1.665H174l.027-.498M160.178 85.098l-.13-2.098H159v.393l.72.066.13 1.638zM163.178 85.098l-.13-2.098H162v.393l.72.066.13 1.638zM165.197 85.163s-.207-2.007-.197-1.9c.01.105.07-.27.59-.263.52.006.707.218.72.46l.064 1.638h-.327s-.11-1.313-.196-1.574c-.083-.26-.466-.055-.457.13.01.188.13 1.444.13 1.444l-.326.065zm3.655-2.097v.983s-.82-.234-.85.458c-.032.69.347.706.59.72.24.016.784 0 .784 0v-.95L169.31 83l-.458.066z"/><path d="M168.527 84.01s-.497-.07-.523.147c-.027.22.098.27.26.293.164.024.284-.012.263-.44zM173.72 83l-.72 2.032 2.16-.257L173.72 83zM159 94.983l2.207-.983-.31 1.9zM165.835 95.96l.196-1.947s-.837-.03-1.112 0c-.274.03-.882.578-.915 1.115-.034.537.248.96.59 1.05.34.086 1.242-.023 1.242-.023"/><path d="M165.058 95.377L164.992 94s-.93.202-.98.59c-.053.388.08.67.457.72.377.05.588.067.588.067zM167 94l.72 2.11h.262l1.243-2.11h-.458l-.23.407h-.883l-.327-.407z"/><path d="M168 95l.277.557.374-.557zM171.44 94c.41 0 1.042.372.983 1.05-.06.676-.795 1.113-1.31 1.113-.516 0-1.113-.476-1.113-1.114 0-.64.828-1.05 1.44-1.05z"/><path d="M171.895 94c.255 0 .65.23.612.652-.037.422-.495.694-.815.694-.32 0-.692-.297-.692-.694 0-.396.515-.652.895-.652zM136 66v7.408m1-7.228L163.893 65l11.19 6.883-2.16.197s2.04.78 2.88 2.294c.84 1.515 1.44 4 1.44 4l-21.856.917s-.864-3.937-2.29-5.178c-1.426-1.24-2.03-.983-2.03-.983l-2.943.26L137 66.18zm24.293 21.196c-.15.623-.576 2.863 0 3.606.576.743.756 1.092 4.188.918 3.433-.175 5.778-.146 6.348-1.115.57-.968.33-3.672-.196-4.326-.528-.656-2.423-.428-5.04-.395-2.615.033-4.945-.15-5.3 1.31z"/><path d="M162.28 86.765c-.185.514-.334 2.246-.26 2.884.072.637.384 1.056 2.158 1.048 1.774-.008 6.61-.393 6.61-.393s.948-.708.98-1.77c.033-1.063-.533-2.323-.916-2.492-.382-.168-7.316.203-7.59.263s-.866.138-.982.46z"/><path d="M161.196 88.6l.66-.29s6.91-.37 7.878-.3c.968.068.882 1.9-.066 1.9-.947 0-7.936.393-7.936.393l-.732-.197m-12 3.072l1.767-.178m1.018-1l-.785.444m3.72 7.556l-.72.983m2 0l.687-.983M157 100.344l16.953-.885.32-.46"/></g><g stroke="#747474" stroke-width=".5"><g><path d="M143 132h3.274M149 114l9.684 5.835M151 114l8.563 5.31M154 114l7.887 5.026M156 114l7.33 4.786M158 114l7.198 4.59M99.13 145.94c.72-.18 8.075-9.375 14.954-11.88 8.976-3.27 24.608-8.087 24.642-8.095.073-.018.052-1.423-.234-2.712-.286-1.29-1.205-2.47-1.205-2.47s-19.532 4.83-26.343 8.338c-9.398 4.838-17.997 14.783-17.997 14.783"/><path d="M137 121.524c0-.62.09-3.045.262-3.474.17-.43.507-1.08.785-1.05.278.03 1.014 1.58 1.047 2.623.032 1.044.13 4.655.13 4.655s-.04 3.89-.85 4.13c-.81.238-.967-1.298-.982-1.443"/><path d="M136.358 129.55c-.158.647-.263.557-.33 2.626-.065 2.07 0 8.124 0 8.124s13.216 7.94 13.515 8.13c.3.187 1.963-.447 2.63-3.87.67-3.422.85-7.673.544-10.947-.306-3.273-1.392-11.303-3.86-11.603-2.47-.3-2.916 6.402-2.946 7.276-.028.875-.326 7.157-.326 7.157l-2.486-1.29-.982-2.72s-4.85-2.807-5.104-3.015c-.253-.21-.59-.133-.654.13z"/><path d="M148 129l.454.162 2.163-.162M150 149.298l27.615-.987s1.012-1.028 1.113-1.31m-42.726-19.838s-.076 1.266.85 1.9c.927.637 5.104 3.08 5.104 3.08l1.636-6.684 1.897 1.05s.79-5.25 1.832-5.508"/><path fill="#F9F9F9" d="M153.814 147.633s23.563-1.068 24.276-1.114c.714-.048 1.82-.092 2.03-1.312.207-1.22 1.732-9.603.718-13.898-1.013-4.295-1.502-5.304-3.73-5.31-2.227-.007-21.79.918-21.79.918s-2.33 1.034-2.027 3.31c.304 2.277.737 6.122.72 7.9-.016 1.777-.476 6.144-.785 7.276-.31 1.133-.45 2.243.59 2.23z"/><path d="M148.33 128c-.186.543-.326.026-.326 4.305 0 4.28-.01 8.615 0 8.65.19.8.857 1.21 2.16 1.705m1.11-3.66l-3.274.093"/><path d="M148.72 128.04c.398.22 1.756 1.113 1.897 1.64.14.525.202 2.523.202 2.523l.91.35-.066 8.795-.785-.46s-.037 1.955-.394 2.198c-.355.242-1.935-.632-2.16-1.213-.222-.58-.282-1.49-.26-3.475.02-1.984-.066-9.44-.066-9.44s.157-1.19.72-.917"/><path d="M149.464 125c1.535-.05 2.933 4.534 3.12 10.23.187 5.697-.908 10.362-2.443 10.413-1.535.05-2.933-4.533-3.12-10.23-.186-5.696.91-10.362 2.444-10.413zm24.768-5l-.232 1.31s1.454-.287 1.767-.26c.313.025 1.225.34 2.028 1.966.804 1.626 1.57 5.31 1.57 5.31M175 121c.445.4 1.775 1.893 2.37 5.287M174.027 141h1.08l-.262 2.163h-.262v-1.665H174l.027-.498M160.178 133.098l-.13-2.098H159v.393l.72.066.13 1.638zM163.178 133.098l-.13-2.098H162v.393l.72.066.13 1.638zM165.197 133.163s-.207-2.007-.197-1.9c.01.105.07-.27.59-.263.52.006.707.218.72.46l.064 1.638h-.327s-.11-1.313-.196-1.574c-.083-.26-.466-.055-.457.13.01.188.13 1.444.13 1.444l-.326.065zm3.655-2.097v.983s-.82-.234-.85.458c-.032.69.347.706.59.72.24.016.784 0 .784 0v-.95L169.31 131l-.458.066z"/><path d="M168.527 132.01s-.497-.07-.523.147c-.027.22.098.27.26.293.164.024.284-.012.263-.44zM173.72 131l-.72 2.032 2.16-.257-1.44-1.775zM159 142.983l2.207-.983-.31 1.9zM165.835 143.96l.196-1.947s-.837-.03-1.112 0c-.274.03-.882.578-.915 1.115-.034.537.248.96.59 1.05.34.086 1.242-.023 1.242-.023"/><path d="M165.058 143.377l-.066-1.377s-.93.202-.98.59c-.053.388.08.67.457.72.377.05.588.067.588.067zM167 142l.72 2.11h.262l1.243-2.11h-.458l-.23.407h-.883l-.327-.407z"/><path d="M168 143l.277.557.374-.557zM171.44 142c.41 0 1.042.372.983 1.05-.06.676-.795 1.113-1.31 1.113-.516 0-1.113-.476-1.113-1.114 0-.64.828-1.05 1.44-1.05z"/><path d="M171.895 142c.255 0 .65.23.612.652-.037.422-.495.694-.815.694-.32 0-.692-.297-.692-.694 0-.396.515-.652.895-.652z"/><g><path d="M136 114v7.408m1-7.228l26.893-1.18 11.19 6.883-2.16.197s2.04.78 2.88 2.294c.84 1.515 1.44 4 1.44 4l-21.856.917s-.864-3.937-2.29-5.178c-1.426-1.24-2.03-.983-2.03-.983l-2.943.26L137 114.18zm24.293 21.196c-.15.623-.576 2.863 0 3.606.576.743.756 1.092 4.188.918 3.433-.175 5.778-.146 6.348-1.115.57-.968.33-3.672-.196-4.326-.528-.656-2.423-.428-5.04-.395-2.615.033-4.945-.15-5.3 1.31z"/><path d="M162.28 134.765c-.185.514-.334 2.246-.26 2.884.072.637.384 1.056 2.158 1.048 1.774-.008 6.61-.393 6.61-.393s.948-.708.98-1.77c.033-1.063-.533-2.323-.916-2.492-.382-.168-7.316.203-7.59.263s-.866.138-.982.46z"/><path d="M161.196 136.6l.66-.29s6.91-.37 7.878-.3c.968.068.882 1.9-.066 1.9-.947 0-7.936.393-7.936.393l-.732-.197m-12 3.072l1.767-.178m1.018-1l-.785.444m3.72 7.556l-.72.983m2 0l.687-.983M157 148.344l16.953-.885.32-.46"/></g></g><g><g><path d="M85.416 155.958c.986-.528 1.558-.708 2.786-.262 1.228.445 9.516 3.582 9.516 3.582s.413.037.544.49m-6.764 15.662l5.725-16.743"/><path d="M83.783 172.47l.582-.97 5.39-15.68M84.21 175.846l.78-.636m7.148-31.18c.8-.323 2.45-.362 3.903.238 1.455.6 3.45 1.743 3.43 2.157-.022.413-2.083 6.35-2.083 6.35s-.943-1.463-3.54-2.13c-2.596-.668-3.656-.352-3.656-.352s1.918-6.25 1.948-6.262z"/><path d="M80.047 171.774l5.274-15.568 5.22-5.916s2.985.032 4.223.71c1.238.677 2.492 1.225 2.843 1.932.35.707 1.002 6.482 1.002 6.482l-5.183 15.743s-1.062 1.344-1.765 1.706c-.703.36-1.264.27-2.468-.177-1.205-.446-8.65-3.46-8.65-3.46s-.77-.503-.495-1.452m.74 1.823l.35.975s6.797 2.824 7.165 2.75c.368-.075.895-.497.895-.497"/><path d="M80.662 173.923l.804.38-.532.286M80.258 172.187s1.33-1.423 2.172-1.058c.843.363 10.06 3.79 10.06 3.79s1.034.492.985.73"/><path d="M80.833 173.48l1.766-.797 9.338 3.77-1.25.686-9.855-3.66zM90.632 177.24l-.062-1.223"/></g><g><path fill="#DDD" d="M76.767 179.893s6.524-21.146 6.68-21.602c.158-.455 2.82-1.55 3.905-1.175 1.084.373 11.678 4.04 11.678 4.04s.53.118.212 1.044c-.32.925-6.492 20.9-6.492 20.9"/><path fill="#DDD" d="M81.558 182.006c-1.213-.462-3.093-.985-4.075-1.424-.983-.438-.68-.61-.68-.61s2.432-1.167 2.76-1.31c.327-.143 1.718.215 2.652.536.933.322 9.653 3.4 10.146 3.57.494.17.764-.07-.234.798-.998.87-2.838 1.08-3.41.884-.575-.198-1.062-.344-1.062-.344"/><path fill="#DDD" d="M82.146 180.582l-3.823-1.403 6.774-21.888"/><path fill="#F9F9F9" d="M88.122 182.64l3.343 1.224m-9.208-4.664l6.683-21.564m2.025 24.692l6.765-21.6"/><path fill="#DDD" d="M85.85 189.574s2.05-6.32 2.23-6.846c.182-.525-5.838-2.64-6.08-1.94-.24.7-2.206 6.93-2.206 6.93"/><path fill="#DDD" d="M80.482 188.568c-.237-.082-.72-.58-.65-.783.07-.203 1.985-.247 3.328.36 1.343.61 2.84 1.06 2.685 1.507-.154.45-.92.147-.92.147"/><path d="M78.387 179.174l3.852-.003"/></g></g></g><use class="cable A fill" fill="#B47239" xlink:href="#j"/><path stroke="#747474" d="M101.5 127.5h44v7h-44v-7z"/><g transform="translate(101 23)"><g transform="rotate(-2 3027.638 -6165.147)"><mask id="l" fill="#fff"><use xlink:href="#k"/></mask><g mask="url(#l)"><g fill="#F9F9F9" stroke="#747474" stroke-width=".5"><path d="M20.005 9.858s-5.715-.155-5.716-.1c-.007.476-.516.828-.516.828l-5.204-.15-5.375 2.285s-12.187-.26-12.86-.376c-.676-.115-.54-.948-.69-.93-.15.02-.465-.4-.465-.4l-.172-5.853s.406-.08.442-.476c.036-.395.01-1.407.54-2.034.53-.627 1.203-.93 1.203-.93l12.752.277 4.83 2.562 5.15.124s.458.396.467.904c.002.092 5.613.15 5.613.15l-6.133-.15s-.48 1.143-.466 2.185c.023 1.905.883 1.984.883 1.984"/><path d="M13.812 4.68s-.7 1.662-.7 3.043c0 1.38.333 2.868.637 2.888M8.815 4.68s-.79 1-.76 2.966c.028 1.967.563 2.965.563 2.965M3.93 2.073s-.826.64-1.03 1.206c-.203.566-.17 2.41-.17 2.41M-9.913 2.576l12.94.5M-10.576 4.68l13.302.5m-13.72.132c.29.326 1.186.354 2.186.377 1 .022 3.632 0 3.632 0l1.733.333h1.163m-8.295-.962s.056.223.32.252c.263.03 5.056.176 5.056.176l1.89.2h.663"/><path d="M-9.544 4.87c.26.412 3.372.39 5.62.505 2.248.114 6.65.314 6.65.314s1.247.032 1.78.15c.534.117 1.202.246 1.193 1.105-.01.858.28 3.908-.173 4.37-.454.46-1.012.574-1.596.552-.582-.022-6.21-.15-6.21-.15l-.367.15-2.405-.352-5.277-.075m6.888-5.417l.5 5.76m-2.38-6.094l.5 5.775M-10.33 5.69l.5 5.775"/><path d="M-10.992 8.37h.765l5.015.358 1.99.175h.575l.373-.15 7.923.15"/><path d="M-2.524 11.783l-.147-5.76.244-.334.344.333.098 5.442s6.077.24 6.49.15c.414-.087 1.004-.203.923-2.134-.083-1.93-.05-3.183-.738-3.214-.688-.03-4.737-.243-4.737-.243h-2.037"/></g></g></g><g transform="translate(0 7)"><g><g transform="translate(217) translate(6)"><path fill="#F9F9F9" stroke="#747474" stroke-width=".5" d="M8 53.63c.05 1.134 9.44.89 15.02 2.916 5.58 2.024 9.16 12.405 9.16 22.162 0 5.322-3.678 10.634-8.188 15.09-4.51 4.453-16.303 5.625-16.303 5.625-.75-.735-1.075 4.736 0 5.4 0 0 13.3.027 19.91-6.848 6.61-6.874 9.54-12.6 9.54-20.188 0-13.87-5.282-24.158-13.148-27.025-7.866-2.867-15.42-2.834-15.514-2.728-1.244 1.377-.556 3.8-.477 5.595z"/><use class="cable A fill" fill="#B47239" xlink:href="#m"/><path stroke="#747474" d="M44.5 56.5H.5v-7h44v7z"/><path fill="#F9F9F9" stroke="#747474" stroke-width=".5" d="M8.445 6.604c.05 1.136 9.44.893 15.02 2.918 5.58 2.024 9.158 12.405 9.158 22.162 0 5.322-3.677 11.162-8.187 15.616-4.51 4.455-12.695 6.406-16.303 5.743-3.765-.828-.784 4.13-.234 3.895 0 0 13.535.887 20.144-5.987 6.608-6.873 9.54-12.6 9.54-20.188 0-13.868-5.282-24.158-13.148-27.024C16.57.87 9.016.904 8.922 1.01c-1.244 1.377-.556 3.8-.477 5.594z"/><g><use class="cable A fill" fill="#B47239" xlink:href="#n"/><path stroke="#747474" d="M44.1 8.476H.5v-7h43.6v7z"/></g></g><g transform="translate(217) rotate(-2 1372.309 23.814)"><mask id="p" fill="#fff"><use xlink:href="#o"/></mask><g mask="url(#p)"><g fill="#F9F9F9" stroke="#747474" stroke-width=".5"><path d="M20.005 9.858s-5.715-.155-5.716-.1c-.007.476-.516.828-.516.828l-5.204-.15-5.375 2.285s-12.187-.26-12.86-.376c-.676-.115-.54-.948-.69-.93-.15.02-.465-.4-.465-.4l-.172-5.853s.406-.08.442-.476c.036-.395.01-1.407.54-2.034.53-.627 1.203-.93 1.203-.93l12.752.277 4.83 2.562 5.15.124s.458.396.467.904c.002.092 5.613.15 5.613.15l-6.133-.15s-.48 1.143-.466 2.185c.023 1.905.883 1.984.883 1.984"/><path d="M13.812 4.68s-.7 1.662-.7 3.043c0 1.38.333 2.868.637 2.888M8.815 4.68s-.79 1-.76 2.966c.028 1.967.563 2.965.563 2.965M3.93 2.073s-.826.64-1.03 1.206c-.203.566-.17 2.41-.17 2.41M-9.913 2.576l12.94.5M-10.576 4.68l13.302.5m-13.72.132c.29.326 1.186.354 2.186.377 1 .022 3.632 0 3.632 0l1.733.333h1.163m-8.295-.962s.056.223.32.252c.263.03 5.056.176 5.056.176l1.89.2h.663"/><path d="M-9.544 4.87c.26.412 3.372.39 5.62.505 2.248.114 6.65.314 6.65.314s1.247.032 1.78.15c.534.117 1.202.246 1.193 1.105-.01.858.28 3.908-.173 4.37-.454.46-1.012.574-1.596.552-.582-.022-6.21-.15-6.21-.15l-.367.15-2.405-.352-5.277-.075m6.888-5.417l.5 5.76m-2.38-6.094l.5 5.775M-10.33 5.69l.5 5.775"/><path d="M-10.992 8.37h.765l5.015.358 1.99.175h.575l.373-.15 7.923.15"/><path d="M-2.524 11.783l-.147-5.76.244-.334.344.333.098 5.442s6.077.24 6.49.15c.414-.087 1.004-.203.923-2.134-.083-1.93-.05-3.183-.738-3.214-.688-.03-4.737-.243-4.737-.243h-2.037"/></g></g></g></g><use class="cable A fill" fill="#B47239" xlink:href="#q"/><path stroke="#747474" d="M.5 1.5h44v7H.5v-7z"/></g><g><path fill="#F9F9F9" stroke="#747474" stroke-width=".5" d="M37 54.99c-.054 1.318-11.447 2.58-17.552 4.93-6.106 2.35-10.02 14.398-10.02 25.724 0 6.176 4.022 12.342 8.957 17.513 4.936 5.17 13.89 8.047 17.84 7.28 4.118-.963.856 4.79.254 4.52 0 0-14.81 1.03-22.042-6.95C7.208 100.027 4 93.38 4 84.574c0-16.098 5.78-28.04 14.385-31.368 8.607-3.328 17.99-4.832 18.094-4.71 1.36 1.6.608 4.41.52 6.494z"/><g transform="matrix(-1 0 0 1 52 48) rotate(-2 1659.126 8.01)"><mask id="s" fill="#fff"><use xlink:href="#r"/></mask><g mask="url(#s)"><g fill="#F9F9F9" stroke="#747474" stroke-width=".5"><path d="M20.005 9.858s-5.715-.155-5.716-.1c-.007.476-.516.828-.516.828l-5.204-.15-5.375 2.285s-12.187-.26-12.86-.376c-.676-.115-.54-.948-.69-.93-.15.02-.465-.4-.465-.4l-.172-5.853s.406-.08.442-.476c.036-.395.01-1.407.54-2.034.53-.627 1.203-.93 1.203-.93l12.752.277 4.83 2.562 5.15.124s.458.396.467.904c.002.092 5.613.15 5.613.15l-6.133-.15s-.48 1.143-.466 2.185c.023 1.905.883 1.984.883 1.984"/><path d="M13.812 4.68s-.7 1.662-.7 3.043c0 1.38.333 2.868.637 2.888M8.815 4.68s-.79 1-.76 2.966c.028 1.967.563 2.965.563 2.965M3.93 2.073s-.826.64-1.03 1.206c-.203.566-.17 2.41-.17 2.41M-9.913 2.576l12.94.5M-10.576 4.68l13.302.5m-13.72.132c.29.326 1.186.354 2.186.377 1 .022 3.632 0 3.632 0l1.733.333h1.163m-8.295-.962s.056.223.32.252c.263.03 5.056.176 5.056.176l1.89.2h.663"/><path d="M-9.544 4.87c.26.412 3.372.39 5.62.505 2.248.114 6.65.314 6.65.314s1.247.032 1.78.15c.534.117 1.202.246 1.193 1.105-.01.858.28 3.908-.173 4.37-.454.46-1.012.574-1.596.552-.582-.022-6.21-.15-6.21-.15l-.367.15-2.405-.352-5.277-.075m6.888-5.417l.51 5.76M-5.32 5.69l.51 5.775m-5.517-5.776l.512 5.775"/><path d="M-10.992 8.37h.765l5.015.358 1.99.175h.575l.373-.15 7.923.15"/><path d="M-2.524 11.783l-.147-5.76.244-.334.344.333.098 5.442s6.077.24 6.49.15c.414-.087 1.004-.203.923-2.134-.083-1.93-.05-3.183-.738-3.214-.688-.03-4.737-.243-4.737-.243h-2.037"/></g></g></g></g><use class="cable A fill" fill="#B47239" xlink:href="#t"/><path stroke="#747474" d="M.5 55.5h44v7H.5v-7z"/><g><g><path fill="#F9F9F9" stroke="#747474" stroke-width=".5" d="M37 6.99c-.054 1.318-11.447 2.58-17.552 4.93-6.106 2.35-10.02 14.398-10.02 25.724 0 6.176 4.022 12.342 8.957 17.513 4.936 5.17 13.89 8.047 17.84 7.28 4.118-.963 1.796 5.454 1.194 5.182 0 0-15.75.366-22.982-7.613C7.208 52.027 4 45.38 4 36.574 4 20.476 9.78 8.534 18.385 5.206 26.992 1.878 36.375.374 36.48.496c1.36 1.6.608 4.41.52 6.494z"/><g transform="translate(4) matrix(-1 0 0 1 48 0) rotate(-2 1659.126 8.01)"><mask id="v" fill="#fff"><use xlink:href="#u"/></mask><g mask="url(#v)"><g fill="#F9F9F9" stroke="#747474" stroke-width=".5"><path d="M13.774 10.586l-5.204-.15-5.375 2.285s-12.187-.26-12.86-.376c-.676-.115-.54-.948-.69-.93-.15.02-.465-.4-.465-.4l-.172-5.853s.406-.08.442-.476c.036-.395.01-1.407.54-2.034.53-.627 1.203-.93 1.203-.93l12.752.277 4.83 2.562 5.15.124"/><path d="M13.812 4.68s-.7 1.662-.7 3.043c0 1.38.333 2.868.637 2.888M8.815 4.68s-.79 1-.76 2.966c.028 1.967.563 2.965.563 2.965M3.93 2.073s-.826.64-1.03 1.206c-.203.566-.17 2.41-.17 2.41M-9.913 2.576l12.94.5M-10.576 4.68l13.302.5m-13.72.132c.29.326 1.186.354 2.186.377 1 .022 3.632 0 3.632 0l1.733.333h1.163m-8.295-.962s.056.223.32.252c.263.03 5.056.176 5.056.176l1.89.2h.663"/><path d="M-9.544 4.87c.26.412 3.372.39 5.62.505 2.248.114 6.65.314 6.65.314s1.247.032 1.78.15c.534.117 1.202.246 1.193 1.105-.01.858.28 3.908-.173 4.37-.454.46-1.012.574-1.596.552-.582-.022-6.21-.15-6.21-.15l-.367.15-2.405-.352-5.277-.075m6.818-3.42l.51 5.762M-5.32 5.69l.51 5.775m-5.517-5.776l.512 5.775"/><path d="M-10.992 8.37h.765l5.015.358 1.99.175h.575l.373-.15 7.923.15"/><path d="M-2.524 11.783l-.147-5.76.244-.334.344.333.098 5.442s6.077.24 6.49.15c.414-.087 1.004-.203.923-2.134-.083-1.93-.05-3.183-.738-3.214-.688-.03-4.737-.243-4.737-.243h-2.037"/></g></g></g></g><g transform="translate(4) scale(-1 1) rotate(-2 231.522 1358.469)"><mask id="x" fill="#fff"><use xlink:href="#w"/></mask><g mask="url(#x)"><g stroke="#747474" stroke-width=".5"><path fill="#DDD" d="M13.774 10.586l-5.204-.15-5.375 2.285s-12.187-.26-12.86-.376c-.676-.115-.54-.948-.69-.93-.15.02-.465-.4-.465-.4l-.172-5.853s.406-.08.442-.476c.036-.395.01-1.407.54-2.034.53-.627 1.203-.93 1.203-.93l12.752.277 4.83 2.562 5.15.124"/><path fill="#F9F9F9" d="M13.812 4.68s-.7 1.662-.7 3.043c0 1.38.333 2.868.637 2.888"/><path fill="#DDD" d="M8.816 4.68s-.79 1-.76 2.966c.028 1.967.563 2.965.563 2.965M3.93 2.073s-.826.64-1.03 1.206c-.203.566-.17 2.41-.17 2.41"/><path fill="#F9F9F9" d="M-9.912 2.575l12.94.5M-10.576 4.68l13.302.5m-13.72.132c.29.326 1.186.354 2.186.377 1 .022 3.632 0 3.632 0l1.733.333h1.163m-8.295-.962s.056.223.32.252c.263.03 5.056.176 5.056.176l1.89.2h.663"/><path fill="#F9F9F9" d="M-9.544 4.87c.26.412 3.372.39 5.62.505 2.248.114 6.65.314 6.65.314s1.247.032 1.78.15c.534.117 1.202.246 1.193 1.105-.01.858.28 3.908-.173 4.37-.454.46-1.012.574-1.596.552-.582-.022-6.21-.15-6.21-.15l-.367.15-2.405-.352-5.277-.075m6.818-3.42l.51 5.762M-5.32 5.69l.51 5.775m-5.517-5.776l.512 5.775"/><path fill="#F9F9F9" d="M-10.992 8.37h.765l5.015.358 1.99.175h.575l.373-.15 7.923.15"/><path fill="#DDD" d="M-2.524 11.783l-.147-5.76.244-.334.344.333.098 5.442s6.077.24 6.49.15c.414-.087 1.004-.203.923-2.134-.083-1.93-.05-3.183-.738-3.214-.688-.03-4.737-.243-4.737-.243h-2.037"/></g></g></g></g></g><g stroke="#747474" stroke-width=".5"><path fill="#DDD" d="M394.327 185.457c1.413-.777 3.893-1.777 4.097-2.488 0 0-4.64-9.962-9.282-19.922 0 0-2.897-.99-3.69-.604-.79.386-11.313 5.652-11.57 5.975-.257.32-.456.106.103 1.252.56 1.146 8.657 18.838 9.034 19.067.376.227 2.84 1.25 5.533-.065"/><path fill="#F9F9F9" d="M383.2 163.55l9.03 20.002m-17.11-15.806l9.03 20.006m3.843-.494l-3.43 2.367m12.14 1.29c-.462-.137-3.724.37-5.612 2.558m-5.01-31.107l9.132 20.214"/><path fill="#DDD" d="M398.333 182.882s-3.206-.786-4.142-.33c-.934.457-10.564 5.565-10.564 5.565s-.73.306-.57.635"/><path fill="#DDD" d="M396.155 191.707s.743-.667.662-.832l-2.942-6.398s-1.285-.064-3.294.916c-2.01.98-2.637 1.865-2.637 1.865l3.228 6.445s.64.065.837-.03"/><path d="M397.357 182.706l-3.262 2.075"/></g><g><g fill="#358CF1" font-family="AvenirNext-DemiBold, Avenir Next" font-size="16" font-weight="500"><text transform="translate(86 29) translate(0 191)"><tspan x="0" y="16">1</tspan></text><text transform="translate(86 29) translate(0 191)"><tspan x="32" y="16">-2</tspan></text></g><g transform="translate(86 29) rotate(-2 133.995 -6645.321)"><mask id="z" fill="#fff"><use xlink:href="#y"/></mask><g mask="url(#z)"><g stroke="#747474" stroke-width=".5"><path fill="#DDD" d="M20.005 9.858s-5.715-.155-5.716-.1c-.007.476-.516.828-.516.828l-5.204-.15-5.375 2.285s-12.187-.26-12.86-.376c-.676-.115-.54-.948-.69-.93-.15.02-.465-.4-.465-.4l-.172-5.853s.406-.08.442-.476c.036-.395.01-1.407.54-2.034.53-.627 1.203-.93 1.203-.93l12.752.277 4.83 2.562 5.15.124s.458.396.467.904c.002.092 5.613.15 5.613.15l-6.133-.15s-.48 1.143-.466 2.185c.023 1.905.883 1.984.883 1.984"/><path fill="#DDD" d="M13.812 4.68s-.7 1.662-.7 3.043c0 1.38.333 2.868.637 2.888M8.815 4.68s-.79 1-.76 2.966c.028 1.967.563 2.965.563 2.965"/><path fill="#F9F9F9" d="M3.93 2.072s-.826.64-1.03 1.206c-.203.566-.17 2.41-.17 2.41M-9.913 2.576l12.94.5M-10.576 4.68l13.302.5m-13.72.132c.29.326 1.186.354 2.186.377 1 .022 3.632 0 3.632 0l1.733.333h1.163m-8.295-.962s.056.223.32.252c.263.03 5.056.176 5.056.176l1.89.2h.663"/><path fill="#F9F9F9" d="M-9.544 4.87c.26.412 3.372.39 5.62.505 2.248.114 6.65.314 6.65.314s1.247.032 1.78.15c.534.117 1.202.246 1.193 1.105-.01.858.28 3.908-.173 4.37-.454.46-1.012.574-1.596.552-.582-.022-6.21-.15-6.21-.15l-.367.15-2.405-.352-5.277-.075m6.888-5.417l.5 5.76m-2.38-6.094l.5 5.775M-10.33 5.69l.5 5.775"/><path fill="#F9F9F9" d="M-10.992 8.37h.765l5.015.358 1.99.175h.575l.373-.15 7.923.15"/><path fill="#DDD" d="M-2.524 11.783l-.147-5.76.244-.334.344.333.098 5.442s6.077.24 6.49.15c.414-.087 1.004-.203.923-2.134-.083-1.93-.05-3.183-.738-3.214-.688-.03-4.737-.243-4.737-.243h-2.037"/></g></g></g></g><g><g stroke="#747474" stroke-width=".75"><path fill="#DDD" d="M318.833 524.258s-6.365 25.41-6.523 25.96c-.157.55-3.346 1.975-4.71 1.584-1.362-.39-14.68-4.232-14.68-4.232s-.66-.114-.342-1.23c.32-1.113 6.346-25.117 6.346-25.117"/><path fill="#DDD" d="M312.775 521.98c1.528.49 3.88 1.022 5.123 1.495 1.243.473.885.69.885.69s-2.9 1.503-3.292 1.69c-.39.185-2.13-.173-3.303-.51-1.173-.336-12.14-3.57-12.758-3.746-.62-.18-.934.12.225-.96 1.16-1.08 3.405-1.42 4.126-1.214.722.207 1.332.358 1.332.358"/><path fill="#DDD" d="M312.164 523.7l4.81 1.48-6.614 26.304"/><path fill="#F9F9F9" d="M304.65 521.55l-4.206-1.29m11.69 5.085l-6.527 25.915m-4.427-29.206l-6.626 25.96"/><path fill="#DDD" d="M306.904 513.207s-2.027 7.6-2.208 8.232c-.182.632 7.388 2.85 7.63 2.007.24-.842 2.17-8.33 2.17-8.33"/><path fill="#DDD" d="M313.584 514.142c.298.086.93.653.86.897-.07.244-2.422.388-4.12-.27-1.7-.655-3.577-1.116-3.422-1.656.155-.54 1.12-.22 1.12-.22"/><path d="M316.897 525.19l-4.738.19"/></g><path fill="#DDD" fill-rule="nonzero" stroke="#747474" stroke-width=".75" d="M252.7 403.846c2.694 1.797 5.478 3.65 8.353 5.562 62.32 41.442 84.406 57.06 89.404 64.808l3.788-2.44c-5.55-8.602-26.74-23.587-90.513-65.997-3.647-2.426-7.146-4.756-10.506-6.997m-22.728-15.242c-32.28-21.808-46.648-32.428-53.755-39.89l-3.265 3.106c7.58 7.958 22.475 18.93 56.735 42.03"/><g transform="translate(94 257) translate(.202 .9)"><ellipse cx="169.736" cy="77.362" stroke="#747474" stroke-width="1.2" rx="14.69" ry="17.287"/><ellipse cx="170.8" cy="77.847" stroke="#747474" stroke-width="1.2" rx="12.147" ry="14.17"/><ellipse cx="169.736" cy="145.818" stroke="#747474" stroke-width="1.2" rx="14.69" ry="17.287"/><ellipse cx="170.8" cy="145.103" stroke="#747474" stroke-width="1.2" rx="12.147" ry="14.17"/><ellipse cx="169.736" cy="214.275" stroke="#747474" stroke-width="1.2" rx="14.69" ry="17.287"/><ellipse cx="170.8" cy="213.56" stroke="#747474" stroke-width="1.2" rx="12.147" ry="14.17"/><ellipse cx="169.736" cy="287.536" stroke="#747474" stroke-width="1.2" rx="14.69" ry="17.287"/><ellipse cx="170.8" cy="286.82" stroke="#747474" stroke-width="1.2" rx="12.147" ry="14.17"/><path stroke="#747474" stroke-width="1.2" d="M201.404 0v274.658m0 16.682v247.605l-60.213 33.79h-.566V17.624"/><path fill="#DDD" fill-rule="nonzero" stroke="#747474" stroke-width=".75" d="M136.697 131.536c-12.392-7.334-26.33-14.488-41.912-21.483l-1.847 4.108c16.294 7.317 30.75 14.794 43.48 22.454m24.32 16.43c13.21 10.113 23.74 20.548 31.82 31.354 16.102 21.532 22.438 44.183 21.593 70.595l4.57 1.464c.877-27.387-5.804-52.36-22.552-74.755-9.317-12.46-21.74-24.394-37.59-35.88"/><path fill="#DDD" fill-rule="nonzero" stroke="#747474" stroke-width=".75" d="M136.65 143.708c-13.214-.008-27.846 2.58-44.022 7.803l1.386 4.287c15.668-5.058 29.746-7.57 42.398-7.592m24.63 3.634c9.8 3.158 18.504 8.367 26.24 15.585 20.437 19.072 34.53 52.31 44.636 102.175l4.417-.894c-10.274-50.703-24.696-84.713-45.978-104.573-9.004-8.403-19.24-14.233-30.833-17.453"/><path stroke="#747474" stroke-width="1.2" d="M136.373 21.226v547.386L1.203 552.516"/><path class="cable A fill" fill="#B47239" fill-rule="nonzero" stroke="#747474" d="M106.72 149.755c4.002-2.012 16.232-4.27 29.474-5.002l-.265-4.793c-13.85.767-26.63 3.125-31.367 5.507l2.156 4.288zm51.86-4.82c30.006 2.227 53.73 12.153 66.31 31.017 15.905 23.847 13.56 61.06-11.263 113.5l4.338 2.053c25.472-53.81 27.924-92.72 10.92-118.216-13.56-20.333-38.615-30.817-69.95-33.14l-.355 4.786z"/><g fill-rule="nonzero"><use class="cable N fill" fill="#FFF" fill-rule="evenodd" xlink:href="#A"/><path stroke="#979797" stroke-width=".75" d="M94.463 150.34l-2.148-3.44c10.023-6.143 27.156-11.726 42.747-13.607l.472 4.027c-14.983 1.81-31.545 7.188-41.07 13.02zm67.18-12.576l.68-3.997c17.62 3.09 31.807 11.826 42.012 26.22 5.455 7.692 10.137 30.595 13.63 62.943 2.798 25.912 4.572 56.333 4.595 75.026h-4.058c-.023-18.223-1.726-48.21-4.396-73.71-3.35-32.003-7.81-54.483-13.082-61.916-9.574-13.504-22.82-21.658-39.38-24.566z"/></g><path fill="#DDD" fill-rule="nonzero" stroke="#747474" stroke-width=".75" d="M136.66 136.728c-16.196-5.317-33.684-9.242-53.88-12.68l-.758 4.438c20.335 3.463 37.864 7.417 54.067 12.8m23.592 9.31c5.833 2.7 11.58 5.678 17.326 8.987 39.477 22.738 67.85 57.07 82.202 106.156l4.326-1.264c-14.69-50.24-43.826-85.495-84.277-108.794-6.91-3.98-13.814-7.487-20.854-10.612"/><g stroke="#747474" stroke-width="1.2"><path fill="#F9F9F9" fill-opacity=".9" fill-rule="nonzero" d="M151.704 118.964v57.574s-.697 2.098 7.31 3.23c8.01 1.13 39.725 3.57 50.336 3.57 10.61 0 15.932-.533 23.098-3.18 7.165-2.646 12.546-7.813 12.546-7.813V113.64"/><path d="M151.7 118.646c0 1.81 2.293 3.652 32.462 5.436 30.17 1.784 36.39.95 36.39.95s9.784-1.72 15.534-4.76c5.75-3.043 8.9-5.958 8.9-6.735"/><path fill="#F9F9F9" fill-rule="nonzero" d="M151.518 119.114c.747-2.024 7.3-6.496 7.3-6.496l1.642-.257s.557-.93 1.52-1.46c.96-.53 8.234-4.22 12.476-4.632 4.242-.412 5.06-.415 13.91-.415 8.853 0 38.2 1.683 45.9 2.98 7.7 1.297 8.322 2.445 8.322 2.445s2.417 1.85 2.417 2.48"/><path d="M153.85 116.71c.4 1.213.822 2.002 7.317 3.04 6.495 1.037 37.38 3.14 39.247 3.14 1.868 0 17.286.54 21.89-.567 4.607-1.106 12.124-4.382 12.124-4.382s1.232 1.185 1.92 1.185c.687 0 2.53-1.058 2.53-1.058s-.484-2.006-.837-2.006 2.893-2.143 3.263-2.498c.37-.356 1.42-1.65 1.017-2.556m-83.263 1.797s-.245 1.06.357 1.06c.603 0 1.478-.885 1.478-.885s1.275-.2 1.275-.653.032-1.27.032-1.27"/><path stroke-linecap="round" d="M235.446 118.357l3.08-1.18"/><path d="M156 118.377c1.143-.955 10.488-7.202 17.8-8.384 7.31-1.18 33.664.127 37.64.646 3.976.52 24.15 1.296 28.81 3.34"/><path d="M157.512 118.854c1.142-.954 10.254-6.897 17.565-8.08 7.31-1.18 32.718-.12 36.694.4 3.977.52 23.82 1.338 28.48 3.383m-29.337-7.693v3.45m20.432 2.92v6.016m3.606-.884v-5.246m2.405 4.67v-5.247m-75.72 3.156v4.06m-1.395-6.75v2.233"/><path d="M175.61 121.15v-8.508s1.58-.655 2.122-.098v8.878m11.57-11.052v11.584"/><path stroke-linecap="round" d="M187.22 121.926v-10.623s.025-.583-1.865-1.07"/><path d="M185.696 121.937v-10.183"/><path stroke-linecap="round" d="M177.427 110.634c0 .473-.818 1.757 4.008 1.545 4.825-.213 6.13-.323 5.074-1.395-1.057-1.07-6.943-.47-6.943.598s9.826.376 5.524-.643"/></g></g><g stroke="#747474" stroke-width=".75"><path fill="#DDD" d="M332.46 525.104c-2.194-1.1-9.205 4.485-8.22 5.047.05.03 4.203 7.307 4.203 7.307l.974 8.29 11.2 18.693s3.142 1.113 4.13.596c.988-.518 1.407-.95 1.407-.95l1.384.16 7.437-5.016s.164-.685-.024-1.077c-.187-.392 1.403-1.06.85-2.164-.552-1.105-11-18.133-11-18.133l-7.985-5.55s-4.242-7.145-4.356-7.203z"/><path d="M344.57 537.516c-1.418-.26-2.663-.6-5.01.794-2.35 1.394-9.04 6.395-9.04 6.395s-1.067.69-1.126 1.157m22.162 11.5s-9.77 6.632-9.763 6.882c.006.25 2.37.688 2.37.688l10.74-7.444s-1.057-1.28-1.772-.99c-.713.288-1.574.863-1.574.863z"/><path d="M351.428 557.746s-8.832 5.984-8.865 6.153c-.033.167 1.796.106 1.796.106l9.732-6.68s-.654-.71-1.27-.405c-.617.306-1.394.826-1.394.826zM339.4 538.373l11.922 19.147M330.9 544.505l11.652 18.93M342.747 537.43l10.774 17.71-.204 1.333"/></g><g stroke="#747474" stroke-width=".75"><path fill="#DDD" d="M361.163 523.794c-1.49-1.95-10.24-.003-9.6.933.033.05.575 8.41.575 8.41l-2.76 7.878 1.874 21.71s2.336 2.378 3.45 2.346c1.115-.03 1.68-.235 1.68-.235l1.175.75 8.883-1.248s.448-.544.45-.98c.004-.434 1.726-.337 1.713-1.57-.012-1.236-1.94-21.12-1.94-21.12l-4.742-8.49s-.68-8.28-.757-8.383z"/><path d="M366.607 540.26c-1.16-.857-2.13-1.707-4.85-1.484-2.723.223-10.93 1.786-10.93 1.786s-1.26.15-1.518.546m14.877 20.05s-11.688 1.68-11.792 1.907c-.105.227 1.83 1.657 1.83 1.657l12.916-1.982s-.39-1.614-1.158-1.668c-.77-.053-1.795.086-1.795.086z"/><path d="M363.903 561.448s-10.56 1.506-10.665 1.644c-.104.137 1.567.884 1.567.884l11.677-1.737s-.278-.926-.965-.922c-.687.003-1.614.13-1.614.13zm-2.317-22.685l2.32 22.435m-12.65-20.65l2.176 22.123M365.006 539.383l1.92 20.64-.768 1.11"/></g><g stroke="#747474" stroke-width=".75"><path fill="#DDD" d="M364.14 472.562s16.105 20.66 16.44 21.122c.336.46-.503 3.852-1.65 4.686-1.148.834-12.373 8.963-12.373 8.963s-.498.45-1.18-.487c-.68-.938-15.886-20.465-15.886-20.465"/><path fill="#DDD" d="M358.616 475.933c1.327-.902 3.193-2.43 4.33-3.118 1.14-.688 1.09-.27 1.09-.27s-.602 3.21-.696 3.633c-.095.422-1.447 1.572-2.435 2.29-.988.717-10.286 7.368-10.807 7.747-.522.38-.48.81-.617-.77-.136-1.577.98-3.556 1.586-3.997.606-.44 1.1-.83 1.1-.83"/><path fill="#DDD" d="M359.594 477.473l4.13-2.88L380.377 496"/><path fill="#F9F9F9" d="M353.275 482.07l-3.608 2.52m11.206-6.082l16.402 21.1m-25.74-14.493l16.376 21.204"/><path fill="#DDD" d="M348.088 475.158s4.74 6.276 5.126 6.808c.387.533 6.796-4.067 6.28-4.776-.515-.71-5.227-6.84-5.227-6.84"/><path fill="#DDD" d="M352.937 470.47c.25-.182 1.087-.332 1.237-.126.15.205-1.185 2.148-2.75 3.083-1.563.935-3.08 2.13-3.41 1.675-.33-.454.516-1.018.516-1.018"/><path d="M363.682 474.66l-2.768 3.85"/></g></g></g><path fill="#DDD" fill-rule="nonzero" stroke="#747474" stroke-width=".8" d="M123.932 389.275c-45.01-13.483-73.907-49.608-87.26-97.465-5.147-18.452-7.813-38.075-8.285-57.323-.375-15.303.715-29.567 2.592-38.48l-3.915-.824c-1.946 9.238-3.06 23.807-2.677 39.402.48 19.563 3.19 39.51 8.432 58.3 13.683 49.043 41.303 87.237 89.978 100.62"/><path fill="#DDD" fill-rule="nonzero" stroke="#747474" stroke-width=".8" d="M133.578 416.295c-48.052 1.566-65.08-19.996-51.88-53.93 12.29-31.606 48.17-67.434 86.816-85.715 12.39-5.86 25.915-11.175 41.017-16.252 12.888-4.333 25.972-8.213 43.475-13.037 4.363-1.202 18.69-5.102 20.402-5.572 7.736-2.12 13.47-3.737 18.78-5.31 18.46-5.472 30.467-10.127 38.632-15.428 9.852-6.397 13.822-13.404 11.387-22.426l-4.053 1.915c3.614 13.395-10.1 21.135-47.104 32.103-5.277 1.564-10.99 3.173-18.7 5.287-1.708.468-16.038 4.37-20.408 5.575-17.568 4.842-30.716 8.74-43.686 13.1-15.24 5.125-28.91 10.495-41.452 16.43-39.53 18.697-76.15 55.27-88.835 87.88-6.623 17.026-6.224 31.806 1.996 42.29 8.574 10.936 26.946 17.988 51.528 17.8 1.15-.01 2.48-.12 4.128-.657"/><path fill="#DDD" fill-rule="nonzero" stroke="#747474" stroke-width=".8" d="M135.97 375.328c-39.086-17.828-69.98-42.46-89.886-69.423-17.453-23.64-27.662-50.19-31.566-79.07-3.27-24.195-2.04-49.324 2.798-74.976 3.087-16.367 7.202-31.254 12.45-46.435.893-2.58 21.114-53.225 57.22-56.55V43.36c-40.18 1.993-60.608 58.508-61.475 61.054-5.214 15.303-8.99 30.08-12.125 46.704-4.913 26.048-6.163 51.598-2.83 76.254 3.99 29.523 14.443 56.706 32.31 80.91 20.325 27.528 51.532 53.05 91.215 71.15"/><path fill="#DDD" fill-rule="nonzero" stroke="#747474" stroke-width=".8" d="M122.868 350.858c-2.74-2.184-13.453-10.554-18.568-14.583-16.174-12.737-22.312-30.425-16.442-48.228 7.93-24.05 38.402-48.814 96.29-73.514 104.767-38.192 154.36-76.345 156.74-112.093.974-14.603-6.165-28.01-19.526-39.293-11.364-9.596-26.855-17.21-42.426-21.364l-1.03 3.865c15.028 4.008 29.99 11.363 40.875 20.556 12.47 10.527 18.996 22.786 18.118 35.97-1.027 15.417-12.063 31.95-34.39 49.123-25.52 19.63-65.104 39.568-119.78 59.496-58.975 25.154-90.293 50.6-98.67 76.002-6.44 19.53.956 37.383 17.045 52.872 4.178 4.02 15.275 11.75 19.025 14.72"/></g></g></g><g stroke="#358CF1" transform="translate(-1 -7) translate(45 234)"><ellipse cx="5.818" cy="2.909" rx="5.818" ry="2.909"/><ellipse cx="10.182" cy="5.091" rx="5.818" ry="2.909"/></g><text fill="#358CF1" font-family="AvenirNext-DemiBold, Avenir Next" font-size="16" font-weight="500" transform="translate(-1 -7)"><tspan x="0" y="140">1</tspan></text><text fill="#358CF1" font-family="AvenirNext-DemiBold, Avenir Next" font-size="16" font-weight="500" transform="translate(-1 -7)"><tspan x="33" y="140">-1</tspan></text><g stroke="#358CF1" transform="translate(-1 -7) translate(12 131)"><ellipse cx="5.818" cy="2.909" rx="5.818" ry="2.909"/><ellipse cx="10.182" cy="5.091" rx="5.818" ry="2.909"/></g><text fill="#358CF1" font-family="AvenirNext-DemiBold, Avenir Next" font-size="16" font-weight="500" transform="translate(-1 -7)"><tspan x="176" y="201">2</tspan></text><text fill="#358CF1" font-family="AvenirNext-DemiBold, Avenir Next" font-size="16" font-weight="500" transform="translate(-1 -7)"><tspan x="207" y="201">-3</tspan></text><g stroke="#358CF1" transform="translate(-1 -7) translate(188 192)"><ellipse cx="5.818" cy="2.909" rx="5.818" ry="2.909"/><ellipse cx="10.182" cy="5.091" rx="5.818" ry="2.909"/></g><text fill="#358CF1" font-family="AvenirNext-DemiBold, Avenir Next" font-size="16" font-weight="500" transform="translate(-1 -7)"><tspan x="242" y="239">2</tspan></text><text fill="#358CF1" font-family="AvenirNext-DemiBold, Avenir Next" font-size="16" font-weight="500" transform="translate(-1 -7)"><tspan x="276" y="239">-4</tspan></text><g stroke="#358CF1" transform="translate(-1 -7) translate(254 230)"><ellipse cx="5.818" cy="2.909" rx="5.818" ry="2.909"/><ellipse cx="10.182" cy="5.091" rx="5.818" ry="2.909"/></g></g></svg>