<svg xmlns="http://www.w3.org/2000/svg" xmlns:xlink="http://www.w3.org/1999/xlink" width="324" height="178" viewBox="0 0 324 178">
  <defs>
    <rect id="5.connectcts-1-a" width="66.898" height="8" x=".102" y="32.481"/>
    <rect id="5.connectcts-1-b" width="108.806" height="8" x="110.194" y="32.481"/>
    <rect id="5.connectcts-1-c" width="18.028" height="8" x=".972" y="32.481"/>
    <rect id="5.connectcts-1-d" width="108.806" height="8" x="62.194" y="32.481"/>
    <rect id="5.connectcts-1-e" width="18.028" height="8" x=".972" y="32.481"/>
    <rect id="5.connectcts-1-f" width="108.806" height="8" x="62.194" y="32.481"/>
  </defs>
  <g fill="none" fill-rule="evenodd" transform="translate(.5)">
    <path stroke="#747474" d="M0.5,18.5 L0.5,177.5 L79.5,177.5 L79.5,18.5 L0.5,18.5 Z"/>
    <text fill="#4A4A4A" font-family="AvenirNext-Regular, Avenir Next" font-size="16">
      <tspan x="16.08" y="98">Circuit</tspan> <tspan x="8" y="114">Breakers</tspan>
    </text>
    <text fill="#358CF1" font-family="AvenirNext-Medium, Avenir Next" font-size="16" font-weight="400">
      <tspan x="232.33" y="130">0.5”-1”</tspan>
    </text>
    <text fill="#358CF1" font-family="AvenirNext-Medium, Avenir Next" font-size="16" font-weight="400">
      <tspan x="232.33" y="75.012">0.5”-1”</tspan>
    </text>
    <g transform="translate(79 58)">
      <use fill="#F5A623" class="cable B fill" xlink:href="#5.connectcts-1-a"/>
      <rect width="65.898" height="7" x=".602" y="32.981" stroke="#747474"/>
      <path stroke="#747474" stroke-width=".75" d="M101.362477 46.9501445C101.362477 46.9501445 102.582461 46.7868279 102.792613 47.5815445M101.362477 44.5933473L106.981264 45.2863473M103.303613 29.2211311L107.287643 29.2211311"/>
      <path stroke="#747474" stroke-width=".75" d="M105.17728,22.6372932 C107.70684,22.7547527 109.428977,30.0195094 109.02084,38.8500229 C108.612704,47.6810905 106.227484,54.7552527 103.697924,54.6377932 C101.168363,54.5203338 99.4462266,47.255577 99.854916,38.4250635 C100.263052,29.5939959 102.648272,22.5203878 105.17728,22.6372932 L105.17728,22.6372932 Z"/>
      <path stroke="#747474" stroke-width=".75" d="M101.362477 34.3588608L101.362477 48.4828067 102.792613 47.4594689C102.792613 47.4594689 102.930871 50.8414148 103.405371 50.7344824 103.880424 50.62755 106.827522 48.4772662 106.981264 47.8683608 107.134454 47.2600094 107.287643 29.9918067 107.287643 29.9918067 107.287643 29.9918067 107.161552 26.5732932 106.061575 27.2968878 104.962151 28.0210365 102.914833 28.6681716 102.690302 30.8794013 102.466325 33.090077 102.486234 33.5399689 102.486234 33.5399689L101.362477 34.3588608 101.362477 34.3588608zM84.7039117 41.9327797C84.772136 42.4192392 84.7182389 43.7672527 84.1997342 44.5933473M105.826537 16.6086311C106.096416 16.3820229 126.855514 2.97502295 125.880522 2.88194187 119.291166 2.25530673 84.8954463.191455381 83.7667115.875158084 75.6133857 5.81510403 67.1000372 11.9639959 65.4630675 13.0626851 63.5661736 14.3364554 59.4776205 18.1267392 59.0158402 22.4073608 60.2430145 22.4627662 65.6643705 22.953104 65.8269615 22.9641851 66.8323705 23.0317797 67.0353327 18.8719419 68.1496887 18.8852392 75.8683327 18.9788743 92.4238478 19.3966311 94.7841811 19.9107932 95.1442039 19.5822392 93.2412266 24.6618067 93.2412266 24.6618067 93.2412266 24.6618067 99.8698478 24.8319013 100.503068 24.6618067 101.945371 21.4244689 102.085287 19.75455 105.826537 16.6086311L105.826537 16.6086311zM126.525908 44.1124284C126.525908 44.1124284 126.789704 25.0911986 126.525908 23.9321175 126.262113 22.7735905 125.076416 22.3663608 123.671719 23.4949689 122.267022 24.623577 116.595696 28.4814554 116.595696 28.4814554 116.595696 28.4814554 114.228727 42.0297392 114.057287 42.3610635 113.885848 42.6918338 110.716984 44.5501311 110.711454 44.8748067 110.629052 50.0191986 109.087757 53.0199554 108.129355 55.3469824 108.076264 55.6760905 107.968977 57.0723067 108.129355 56.9481986 111.97181 53.979577 126.525908 44.1124284 126.525908 44.1124284L126.525908 44.1124284zM94.1448781 21.1518743L67.4329615 19.7495635M93.8368402 22.6206716L67.4329615 21.1518743M93.2777266 24.0900229L66.5282039 22.6206716"/>
      <path stroke="#747474" stroke-width=".75" d="M72.4965069,38.0959554 C71.3318251,38.0904148 68.8642039,37.6709959 68.4427948,39.7592257 C68.0213857,41.8474554 68.3587342,44.929104 68.5793933,45.3108473 C69.2242266,46.4278202 72.754219,46.8832527 76.878719,46.9386581 C78.8430827,46.9652527 81.5999387,46.8771581 82.3774993,46.9386581 C83.1545069,47.0007121 85.2316887,46.69155 85.5070978,44.9014013 C85.7775296,43.1428338 85.3721584,40.1437392 84.9745296,39.82405 C84.5763478,39.5043608 83.6909463,38.6217527 80.6780372,38.4688338 C77.6651281,38.3159148 73.6606357,38.1009419 72.4965069,38.0959554 L72.4965069,38.0959554 Z"/>
      <path stroke="#747474" stroke-width=".75" d="M83.9199008 40.1985905C82.5002721 39.6689148 71.987166 38.9525229 71.5978327 39.2517121 71.2084993 39.5503473 71.0094084 39.6151716 71.1559615 40.1659013 71.3025145 40.716077 71.3688781 42.1455365 72.7121887 42.4474959 74.0554993 42.7500094 84.4657418 42.8092932 84.4657418 42.8092932 84.4657418 42.8092932 84.652666 40.4717392 83.9199008 40.1985905zM84.4867569 45.3512932C83.6389615 45.3102932 71.3727493 44.6382257 71.1078478 44.6897527 70.8423933 44.7412797 70.2025372 44.9014013 70.2025372 44.9014013 70.2025372 44.9014013 70.2478857 45.2005905 71.7526811 45.6244419 73.2574766 46.0488473 83.1832645 46.2111851 83.4802418 46.1530094 83.777219 46.0953878 84.4867569 45.3512932 84.4867569 45.3512932"/>
      <path stroke="#747474" stroke-width=".75" d="M71.7526811,39.1730365 C71.0884918,38.9863202 70.5703024,38.8245365 70.0797645,39.1746986 C69.5892266,39.5248608 69.0953705,40.706104 69.3060751,40.8861716 C69.5162266,41.0667932 71.1078478,40.6551311 71.1078478,40.6551311"/>
      <polyline stroke="#747474" stroke-width=".75" points="68.579 41.152 69.231 41.298 69.612 44.358 68.241 44.153"/>
      <path stroke="#747474" stroke-width=".75" d="M125.913704,2.97723916 C125.888818,3.15509052 125.935272,11.1789013 125.913704,17.9488878 C125.903196,21.2466175 125.401598,21.1756986 123.794492,22.6206716 C121.618318,24.5786986 116.972863,27.5401175 116.12009,28.1667527 C116.097969,28.1833743 114.598704,25.9726986 114.598704,25.9726986 C114.598704,25.9726986 110.432727,28.6537662 110.449871,29.5070094 C110.455954,29.7923473 109.948825,45.2072392 109.299568,48.2550905 C107.891552,54.8677257 106.601333,59.1605365 103.569068,59.2447527 C99.9881963,59.3444824 99.0220524,48.3991446 98.8931963,44.6869824 C98.7637872,40.9748202 99.4257645,31.5708608 100.937749,25.884604 C102.039939,21.7386175 104.230492,18.8037932 107.208007,16.3504419 C107.336863,16.2440635 107.307552,17.4917932 107.445257,17.3931716 C116.685287,10.7794284 125.913704,4.43440133 125.913704,4.43440133"/>
      <path stroke="#747474" stroke-width=".75" d="M126.525908,44.1124284 C126.525908,44.1124284 126.789704,25.0911986 126.525908,23.9321175 C126.262113,22.7735905 125.076416,22.3663608 123.671719,23.4949689 C122.267022,24.623577 116.595696,28.4814554 116.595696,28.4814554 C116.595696,28.4814554 114.228727,42.0297392 114.057287,42.3610635 C113.885848,42.6918338 110.716984,44.5501311 110.711454,44.8748067 C110.629052,50.0191986 109.087757,53.0199554 108.129355,55.3469824 C108.076264,55.6760905 107.968977,57.0723067 108.129355,56.9481986 C111.97181,53.979577 126.525908,44.1124284 126.525908,44.1124284 L126.525908,44.1124284 Z"/>
      <path fill="#F9F9F9" stroke="#747474" stroke-width=".75" d="M100.612116,24.4356564 C99.7919723,24.9387375 99.6602493,27.8487257 98.9800221,31.2993743 C98.2240296,35.1350905 97.9132266,39.1281581 98.1814463,43.5256851 C98.595113,50.3028743 98.8445296,51.6193067 98.961219,53.8017257 C99.1138554,56.6628608 96.406219,57.2047257 96.406219,57.2047257 C96.406219,57.2047257 64.0959766,55.5287121 62.0879236,55.5209554 C56.5531963,55.4999013 55.5516584,49.8441175 55.6434615,42.5017932 C55.744113,34.4563743 56.1317872,29.2100365 56.7329311,27.3035365 C57.9883099,23.3237662 58.2725675,22.7907662 59.0158402,22.6206716 L100.612116,24.4356564 Z"/>
      <path stroke="#747474" stroke-width=".75" d="M94.1448781 21.1518743L67.4329615 19.7495635M93.8368402 22.6206716L67.4329615 21.1518743M93.2777266 24.0900229L66.5282039 22.6206716M72.4965069 38.0959554C71.3318251 38.0904148 68.8642039 37.6709959 68.4427948 39.7592257 68.0213857 41.8474554 68.3587342 44.929104 68.5793933 45.3108473 69.2242266 46.4278202 72.754219 46.8832527 76.878719 46.9386581 78.8430827 46.9652527 81.5999387 46.8771581 82.3774993 46.9386581 83.1545069 47.0007121 85.2316887 46.69155 85.5070978 44.9014013 85.7775296 43.1428338 85.3721584 40.1437392 84.9745296 39.82405 84.5763478 39.5043608 83.6909463 38.6217527 80.6780372 38.4688338 77.6651281 38.3159148 73.6606357 38.1009419 72.4965069 38.0959554L72.4965069 38.0959554z"/>
      <path stroke="#747474" stroke-width=".75" d="M83.9199008 40.1985905C82.5002721 39.6689148 71.987166 38.9525229 71.5978327 39.2517121 71.2084993 39.5503473 71.0094084 39.6151716 71.1559615 40.1659013 71.3025145 40.716077 71.3688781 42.1455365 72.7121887 42.4474959 74.0554993 42.7500094 84.4657418 42.8092932 84.4657418 42.8092932 84.4657418 42.8092932 84.652666 40.4717392 83.9199008 40.1985905zM84.4867569 45.3512932C83.6389615 45.3102932 71.3727493 44.6382257 71.1078478 44.6897527 70.8423933 44.7412797 70.2025372 44.9014013 70.2025372 44.9014013 70.2025372 44.9014013 70.2478857 45.2005905 71.7526811 45.6244419 73.2574766 46.0488473 83.1832645 46.2111851 83.4802418 46.1530094 83.777219 46.0953878 84.4867569 45.3512932 84.4867569 45.3512932"/>
      <path stroke="#747474" stroke-width=".75" d="M71.7526811,39.1730365 C71.0884918,38.9863202 70.5703024,38.8245365 70.0797645,39.1746986 C69.5892266,39.5248608 69.0953705,40.706104 69.3060751,40.8861716 C69.5162266,41.0667932 71.1078478,40.6551311 71.1078478,40.6551311"/>
      <polyline stroke="#747474" stroke-width=".75" points="68.579 41.152 69.231 41.298 69.612 44.358 68.241 44.153"/>
      <path stroke="#747474" stroke-width=".75" d="M58.4561736 54.6233878C58.4561736 54.6233878 59.8033554 57.1764689 60.8054463 57.5914554 61.8075372 58.0064419 103.916371 59.2458608 103.916371 59.2458608M99.1149615 52.6786581C99.1149615 52.6786581 99.0762493 55.6434013 101.771166 59.2619284M124.654454 28.3202257C124.487992 27.0475635 122.312924 23.2744554 121.487802 28.8321716 120.662128 34.3898878 121.10953 42.5117662 121.896492 43.2630635 122.683454 44.0138067 124.948113 43.7129554 124.756764 36.9174824"/>
      <path stroke="#747474" stroke-width=".75" d="M123.326628,28.2182797 C121.461257,30.2837932 121.760446,34.3123202 122.61156,36.6105365 C122.686772,36.8138743 165.109174,38.6378202 165.109174,38.6378202 L191.85206,39.9215635 C191.28078,36.7274419 191.381431,33.9471986 192.124151,31.56255 C192.124151,31.56255 123.570514,27.9479013 123.326628,28.2182797 L123.326628,28.2182797 Z"/>
      <path stroke="#747474" stroke-width=".75" d="M193.166613,29.5114419 C190.515386,30.9902121 191.396363,41.9793202 192.655613,41.362104 C192.721977,41.3294148 203.07581,42.100104 203.07581,42.100104 L212.269939,46.8084554 L239.239568,48.2434554 C239.239568,48.2434554 242.559961,45.8056175 242.713151,44.4431986 C242.86634,43.0802257 242.713151,42.356077 242.713151,42.356077 L243.836908,41.0551581 L243.836908,30.0233878 C243.836908,30.0233878 243.246272,29.3845635 242.713151,29.3069959 C242.18003,29.2294284 242.595908,27.1489554 241.078393,26.9528202 C239.561431,26.7566851 214.823833,25.69955 214.823833,25.69955 L203.58681,30.0233878 C203.58681,30.0233878 193.304871,29.4344284 193.166613,29.5114419 L193.166613,29.5114419 Z"/>
      <path stroke="#747474" stroke-width=".75" d="M203.382189 30.0233878C202.338068 31.6467662 202.03003 33.7067392 201.952052 36.4714689 201.874075 39.2356446 202.339174 41.2451986 203.07581 42.356077M214.313386 25.69955C213.062984 26.9655635 211.852401 28.0016446 211.657181 31.3536716 211.461408 34.7062527 211.96356 44.9662257 211.96356 44.9662257 211.96356 44.9662257 211.930931 46.5286581 212.372249 46.9104013M239.546499 32.2229824C239.546499 32.2229824 239.591848 46.7447392 239.852878 46.9104013 240.113355 47.0760635 242.202151 44.9662257 242.202151 44.9662257L241.998083 28.89755C241.998083 28.89755 239.949105 29.0964554 239.750568 30.0233878 239.552583 30.9503202 239.546499 32.2229824 239.546499 32.2229824z"/>
      <path stroke="#747474" stroke-width=".75" d="M239.853984 32.618577C239.853984 32.618577 239.88053 45.7380229 240.030954 45.8881716 240.181378 46.0377662 241.386431 44.1312662 241.386431 44.1312662L241.268636 29.6139419C241.268636 29.6139419 240.086257 29.7934554 239.97178 30.6311851 239.857302 31.4689148 239.853984 32.618577 239.853984 32.618577L239.853984 32.618577zM211.611833 31.5586716L239.547605 32.5709284M212.020522 44.4431986L239.547605 45.5801175"/>
      <polyline stroke="#747474" stroke-width=".75" points="212.962 27.499 238.627 28.693 239.854 29.819"/>
      <polygon stroke="#747474" stroke-width=".75" points="64.381 30.777 64.177 34.666 65.811 34.716 65.811 34.052 64.994 34.052 65.096 30.743"/>
      <path stroke="#747474" stroke-width=".75" d="M69.6931963,30.8794013 C70.1029918,30.8794013 71.5320221,31.3154419 71.5320221,32.926077 C71.5320221,34.5367121 70.0908251,35.0641716 69.5914387,35.0641716 C69.0914993,35.0641716 67.752613,34.6713473 67.752613,33.028577 C67.752613,31.3852527 69.2657039,30.8794013 69.6931963,30.8794013"/>
      <path stroke="#747474" stroke-width=".75" d="M69.6423175,31.6977392 C70.4010751,31.7293202 70.9192645,32.2407121 70.9192645,32.9343878 C70.9192645,33.6280635 70.2517569,34.2563608 69.6423175,34.2563608 C69.0328781,34.2563608 68.4676811,33.9549554 68.4676811,32.9715094 C68.4676811,31.9886175 69.2933554,31.6833338 69.6423175,31.6977392 Z"/>
      <polygon stroke="#747474" stroke-width=".75" points="73.064 35.064 75.006 31.391 75.618 31.391 76.64 35.178 76.129 35.178 75.61 34.359 74.188 34.359 73.678 35.064"/>
      <path stroke="#747474" stroke-width=".75" d="M75.107916,32.5166311 C75.107916,32.5166311 74.5073251,33.5898338 74.5615221,33.5399689 C74.6162721,33.4906581 75.6100675,33.5399689 75.6100675,33.5399689 L75.107916,32.5166311"/>
      <polygon fill="#000" points="92.645 33.21 84.857 38.216 84.857 28.204"/>
      <path stroke="#747474" stroke-width=".75" d="M78.5809463,35.1777527 L78.9896357,31.5957932 C78.9896357,31.5957932 79.6809236,31.5243202 80.327969,31.6971851 C80.9744615,31.870604 81.6286963,32.3504148 81.6458402,33.28455 C81.6629842,34.2181311 81.1176963,34.7865905 80.3180145,35.1777527 C79.5177796,35.5689148 78.5809463,35.1777527 78.5809463,35.1777527 L78.5809463,35.1777527 Z"/>
      <path stroke="#747474" stroke-width=".75" d="M79.5006357,32.3121851 L79.3983251,34.5583202 C79.3983251,34.5583202 80.3500902,34.8275905 80.7178554,34.2563608 C81.0856205,33.6856851 81.0618402,32.7426851 80.5220827,32.5166311 C79.9823251,32.290577 79.5006357,32.3121851 79.5006357,32.3121851"/>
      <polyline stroke="#747474" stroke-width=".75" points="64.279 48.39 67.753 48.39 66.424 51.144 64.279 48.39"/>
      <path stroke="#747474" stroke-width=".75" d="M73.4731584,51.4508743 L74.086469,51.6553202 L74.086469,50.5294824 C74.086469,50.5294824 75.2765902,50.6009554 75.3119842,49.76655 C75.3479311,48.9321446 74.6129539,48.7160635 74.1882266,48.6872527 C73.7640524,48.6584419 73.2690902,48.6872527 73.2690902,48.6872527 L73.2690902,49.76655 L73.3708478,50.0180905 L73.4731584,51.4508743"/>
      <path stroke="#747474" stroke-width=".75" d="M73.9864911 49.4036446C73.878932 49.4036446 73.9864911 50.0350446 73.9864911 50.0350446 73.9864911 50.0350446 74.5382402 50.0910779 74.5899848 49.8512279 74.6417295 49.6120612 74.7178929 49.4063779 73.9864911 49.4036446zM78.0704993 48.8922527C78.0704993 48.8922527 78.2082039 50.2496851 78.2745675 50.7366986 78.3409311 51.2242662 78.7551508 52.0719689 79.6029463 52.0647662 80.4507418 52.0575635 80.4717569 50.9322797 80.4197721 50.4275365 80.3683402 49.9227932 80.181969 48.9941986 80.181969 48.9941986L79.6029463 48.9941986C79.6029463 48.9941986 79.8186281 49.7715365 79.8070145 50.3250365 79.7954008 50.8785365 79.9319993 51.2658202 79.3983251 51.3483743 78.8646508 51.4309284 78.7496205 50.7638473 78.6832569 50.1649148 78.6168933 49.5659824 78.5809463 48.9941986 78.5809463 48.9941986L78.0704993 48.8922527z"/>
      <polygon stroke="#747474" stroke-width=".75" points="83.382 49.404 83.689 52.065 83.996 52.27 85.119 52.27 85.119 51.655 84.098 51.553 83.893 49.199"/>
      <polygon stroke="#747474" stroke-width=".75" points="87.776 49.609 88.082 52.27 88.388 52.474 89.512 52.474 89.512 51.86 88.491 51.758 88.286 49.404"/>
      <g>
        <use fill="#F5A623" class="cable B fill" xlink:href="#5.connectcts-1-b"/>
        <rect width="107.806" height="7" x="110.694" y="32.981" stroke="#747474"/>
      </g>
    </g>
    <g transform="translate(79 118)">
      <use fill="#F8E71C" class="cable C fill" xlink:href="#5.connectcts-1-c"/>
      <rect width="17.028" height="7" x="1.472" y="32.981" stroke="#747474"/>
      <path stroke="#747474" stroke-width=".75" d="M53.3624766 46.9501445C53.3624766 46.9501445 54.5824615 46.7868279 54.792613 47.5815445M53.3624766 44.5933473L58.9812645 45.2863473M55.303613 29.2211311L59.2876433 29.2211311"/>
      <path stroke="#747474" stroke-width=".75" d="M57.1772796,22.6372932 C59.7068402,22.7547527 61.4289766,30.0195094 61.0208402,38.8500229 C60.6127039,47.6810905 58.2274842,54.7552527 55.6979236,54.6377932 C53.168363,54.5203338 51.4462266,47.255577 51.854916,38.4250635 C52.2630524,29.5939959 54.6482721,22.5203878 57.1772796,22.6372932 L57.1772796,22.6372932 Z"/>
      <path stroke="#747474" stroke-width=".75" d="M53.3624766 34.3588608L53.3624766 48.4828067 54.792613 47.4594689C54.792613 47.4594689 54.9308705 50.8414148 55.4053705 50.7344824 55.8804236 50.62755 58.8275221 48.4772662 58.9812645 47.8683608 59.1344539 47.2600094 59.2876433 29.9918067 59.2876433 29.9918067 59.2876433 29.9918067 59.1615524 26.5732932 58.0615751 27.2968878 56.9621508 28.0210365 54.9148327 28.6681716 54.6903024 30.8794013 54.4663251 33.090077 54.4862342 33.5399689 54.4862342 33.5399689L53.3624766 34.3588608 53.3624766 34.3588608zM36.7039117 41.9327797C36.772136 42.4192392 36.7182389 43.7672527 36.1997342 44.5933473M57.8265372 16.6086311C58.096416 16.3820229 78.8555145 2.97502295 77.8805221 2.88194187 71.291166 2.25530673 36.8954463.191455381 35.7667115.875158084 27.6133857 5.81510403 19.1000372 11.9639959 17.4630675 13.0626851 15.5661736 14.3364554 11.4776205 18.1267392 11.0158402 22.4073608 12.2430145 22.4627662 17.6643705 22.953104 17.8269615 22.9641851 18.8323705 23.0317797 19.0353327 18.8719419 20.1496887 18.8852392 27.8683327 18.9788743 44.4238478 19.3966311 46.7841811 19.9107932 47.1442039 19.5822392 45.2412266 24.6618067 45.2412266 24.6618067 45.2412266 24.6618067 51.8698478 24.8319013 52.5030675 24.6618067 53.9453705 21.4244689 54.0852872 19.75455 57.8265372 16.6086311L57.8265372 16.6086311zM78.5259084 44.1124284C78.5259084 44.1124284 78.7897039 25.0911986 78.5259084 23.9321175 78.262113 22.7735905 77.076416 22.3663608 75.671719 23.4949689 74.2670221 24.623577 68.5956963 28.4814554 68.5956963 28.4814554 68.5956963 28.4814554 66.2287266 42.0297392 66.0572872 42.3610635 65.8858478 42.6918338 62.7169842 44.5501311 62.7114539 44.8748067 62.6290524 50.0191986 61.0877569 53.0199554 60.1293554 55.3469824 60.0762645 55.6760905 59.9689766 57.0723067 60.1293554 56.9481986 63.9718099 53.979577 78.5259084 44.1124284 78.5259084 44.1124284L78.5259084 44.1124284zM46.1448781 21.1518743L19.4329615 19.7495635M45.8368402 22.6206716L19.4329615 21.1518743M45.2777266 24.0900229L18.5282039 22.6206716"/>
      <path stroke="#747474" stroke-width=".75" d="M24.4965069,38.0959554 C23.3318251,38.0904148 20.8642039,37.6709959 20.4427948,39.7592257 C20.0213857,41.8474554 20.3587342,44.929104 20.5793933,45.3108473 C21.2242266,46.4278202 24.754219,46.8832527 28.878719,46.9386581 C30.8430827,46.9652527 33.5999387,46.8771581 34.3774993,46.9386581 C35.1545069,47.0007121 37.2316887,46.69155 37.5070978,44.9014013 C37.7775296,43.1428338 37.3721584,40.1437392 36.9745296,39.82405 C36.5763478,39.5043608 35.6909463,38.6217527 32.6780372,38.4688338 C29.6651281,38.3159148 25.6606357,38.1009419 24.4965069,38.0959554 L24.4965069,38.0959554 Z"/>
      <path stroke="#747474" stroke-width=".75" d="M35.9199008 40.1985905C34.5002721 39.6689148 23.987166 38.9525229 23.5978327 39.2517121 23.2084993 39.5503473 23.0094084 39.6151716 23.1559615 40.1659013 23.3025145 40.716077 23.3688781 42.1455365 24.7121887 42.4474959 26.0554993 42.7500094 36.4657418 42.8092932 36.4657418 42.8092932 36.4657418 42.8092932 36.652666 40.4717392 35.9199008 40.1985905zM36.4867569 45.3512932C35.6389615 45.3102932 23.3727493 44.6382257 23.1078478 44.6897527 22.8423933 44.7412797 22.2025372 44.9014013 22.2025372 44.9014013 22.2025372 44.9014013 22.2478857 45.2005905 23.7526811 45.6244419 25.2574766 46.0488473 35.1832645 46.2111851 35.4802418 46.1530094 35.777219 46.0953878 36.4867569 45.3512932 36.4867569 45.3512932"/>
      <path stroke="#747474" stroke-width=".75" d="M23.7526811,39.1730365 C23.0884918,38.9863202 22.5703024,38.8245365 22.0797645,39.1746986 C21.5892266,39.5248608 21.0953705,40.706104 21.3060751,40.8861716 C21.5162266,41.0667932 23.1078478,40.6551311 23.1078478,40.6551311"/>
      <polyline stroke="#747474" stroke-width=".75" points="20.579 41.152 21.231 41.298 21.612 44.358 20.241 44.153"/>
      <path stroke="#747474" stroke-width=".75" d="M77.9137039,2.97723916 C77.8888175,3.15509052 77.9352721,11.1789013 77.9137039,17.9488878 C77.9031963,21.2466175 77.4015978,21.1756986 75.7944918,22.6206716 C73.6183175,24.5786986 68.972863,27.5401175 68.1200902,28.1667527 C68.097969,28.1833743 66.5987039,25.9726986 66.5987039,25.9726986 C66.5987039,25.9726986 62.4327266,28.6537662 62.4498705,29.5070094 C62.4559539,29.7923473 61.9488251,45.2072392 61.2995675,48.2550905 C59.8915524,54.8677257 58.6013327,59.1605365 55.5690675,59.2447527 C51.9881963,59.3444824 51.0220524,48.3991446 50.8931963,44.6869824 C50.7637872,40.9748202 51.4257645,31.5708608 52.9377493,25.884604 C54.0399387,21.7386175 56.2304918,18.8037932 59.2080069,16.3504419 C59.336863,16.2440635 59.3075524,17.4917932 59.4452569,17.3931716 C68.6852872,10.7794284 77.9137039,4.43440133 77.9137039,4.43440133"/>
      <path stroke="#747474" stroke-width=".75" d="M78.5259084,44.1124284 C78.5259084,44.1124284 78.7897039,25.0911986 78.5259084,23.9321175 C78.262113,22.7735905 77.076416,22.3663608 75.671719,23.4949689 C74.2670221,24.623577 68.5956963,28.4814554 68.5956963,28.4814554 C68.5956963,28.4814554 66.2287266,42.0297392 66.0572872,42.3610635 C65.8858478,42.6918338 62.7169842,44.5501311 62.7114539,44.8748067 C62.6290524,50.0191986 61.0877569,53.0199554 60.1293554,55.3469824 C60.0762645,55.6760905 59.9689766,57.0723067 60.1293554,56.9481986 C63.9718099,53.979577 78.5259084,44.1124284 78.5259084,44.1124284 L78.5259084,44.1124284 Z"/>
      <path fill="#F9F9F9" stroke="#747474" stroke-width=".75" d="M52.6121162,24.4356564 C51.7919723,24.9387375 51.6602493,27.8487257 50.9800221,31.2993743 C50.2240296,35.1350905 49.9132266,39.1281581 50.1814463,43.5256851 C50.595113,50.3028743 50.8445296,51.6193067 50.961219,53.8017257 C51.1138554,56.6628608 48.406219,57.2047257 48.406219,57.2047257 C48.406219,57.2047257 16.0959766,55.5287121 14.0879236,55.5209554 C8.5531963,55.4999013 7.55165842,49.8441175 7.64346145,42.5017932 C7.74411297,34.4563743 8.13178721,29.2100365 8.73293115,27.3035365 C9.98830994,23.3237662 10.2725675,22.7907662 11.0158402,22.6206716 L52.6121162,24.4356564 Z"/>
      <path stroke="#747474" stroke-width=".75" d="M46.1448781 21.1518743L19.4329615 19.7495635M45.8368402 22.6206716L19.4329615 21.1518743M45.2777266 24.0900229L18.5282039 22.6206716M24.4965069 38.0959554C23.3318251 38.0904148 20.8642039 37.6709959 20.4427948 39.7592257 20.0213857 41.8474554 20.3587342 44.929104 20.5793933 45.3108473 21.2242266 46.4278202 24.754219 46.8832527 28.878719 46.9386581 30.8430827 46.9652527 33.5999387 46.8771581 34.3774993 46.9386581 35.1545069 47.0007121 37.2316887 46.69155 37.5070978 44.9014013 37.7775296 43.1428338 37.3721584 40.1437392 36.9745296 39.82405 36.5763478 39.5043608 35.6909463 38.6217527 32.6780372 38.4688338 29.6651281 38.3159148 25.6606357 38.1009419 24.4965069 38.0959554L24.4965069 38.0959554z"/>
      <path stroke="#747474" stroke-width=".75" d="M35.9199008 40.1985905C34.5002721 39.6689148 23.987166 38.9525229 23.5978327 39.2517121 23.2084993 39.5503473 23.0094084 39.6151716 23.1559615 40.1659013 23.3025145 40.716077 23.3688781 42.1455365 24.7121887 42.4474959 26.0554993 42.7500094 36.4657418 42.8092932 36.4657418 42.8092932 36.4657418 42.8092932 36.652666 40.4717392 35.9199008 40.1985905zM36.4867569 45.3512932C35.6389615 45.3102932 23.3727493 44.6382257 23.1078478 44.6897527 22.8423933 44.7412797 22.2025372 44.9014013 22.2025372 44.9014013 22.2025372 44.9014013 22.2478857 45.2005905 23.7526811 45.6244419 25.2574766 46.0488473 35.1832645 46.2111851 35.4802418 46.1530094 35.777219 46.0953878 36.4867569 45.3512932 36.4867569 45.3512932"/>
      <path stroke="#747474" stroke-width=".75" d="M23.7526811,39.1730365 C23.0884918,38.9863202 22.5703024,38.8245365 22.0797645,39.1746986 C21.5892266,39.5248608 21.0953705,40.706104 21.3060751,40.8861716 C21.5162266,41.0667932 23.1078478,40.6551311 23.1078478,40.6551311"/>
      <polyline stroke="#747474" stroke-width=".75" points="20.579 41.152 21.231 41.298 21.612 44.358 20.241 44.153"/>
      <path stroke="#747474" stroke-width=".75" d="M10.4561736 54.6233878C10.4561736 54.6233878 11.8033554 57.1764689 12.8054463 57.5914554 13.8075372 58.0064419 55.9163705 59.2458608 55.9163705 59.2458608M51.1149615 52.6786581C51.1149615 52.6786581 51.0762493 55.6434013 53.771166 59.2619284M76.6544539 28.3202257C76.4879918 27.0475635 74.3129236 23.2744554 73.4878024 28.8321716 72.6621281 34.3898878 73.1095296 42.5117662 73.8964918 43.2630635 74.6834539 44.0138067 76.948113 43.7129554 76.7567645 36.9174824"/>
      <path stroke="#747474" stroke-width=".75" d="M75.3266281,28.2182797 C73.4612569,30.2837932 73.7604463,34.3123202 74.6115599,36.6105365 C74.6867721,36.8138743 117.109174,38.6378202 117.109174,38.6378202 L143.85206,39.9215635 C143.28078,36.7274419 143.381431,33.9471986 144.124151,31.56255 C144.124151,31.56255 75.5705145,27.9479013 75.3266281,28.2182797 L75.3266281,28.2182797 Z"/>
      <path stroke="#747474" stroke-width=".75" d="M145.166613,29.5114419 C142.515386,30.9902121 143.396363,41.9793202 144.655613,41.362104 C144.721977,41.3294148 155.07581,42.100104 155.07581,42.100104 L164.269939,46.8084554 L191.239568,48.2434554 C191.239568,48.2434554 194.559961,45.8056175 194.713151,44.4431986 C194.86634,43.0802257 194.713151,42.356077 194.713151,42.356077 L195.836908,41.0551581 L195.836908,30.0233878 C195.836908,30.0233878 195.246272,29.3845635 194.713151,29.3069959 C194.18003,29.2294284 194.595908,27.1489554 193.078393,26.9528202 C191.561431,26.7566851 166.823833,25.69955 166.823833,25.69955 L155.58681,30.0233878 C155.58681,30.0233878 145.304871,29.4344284 145.166613,29.5114419 L145.166613,29.5114419 Z"/>
      <path stroke="#747474" stroke-width=".75" d="M155.382189 30.0233878C154.338068 31.6467662 154.03003 33.7067392 153.952052 36.4714689 153.874075 39.2356446 154.339174 41.2451986 155.07581 42.356077M166.313386 25.69955C165.062984 26.9655635 163.852401 28.0016446 163.657181 31.3536716 163.461408 34.7062527 163.96356 44.9662257 163.96356 44.9662257 163.96356 44.9662257 163.930931 46.5286581 164.372249 46.9104013M191.546499 32.2229824C191.546499 32.2229824 191.591848 46.7447392 191.852878 46.9104013 192.113355 47.0760635 194.202151 44.9662257 194.202151 44.9662257L193.998083 28.89755C193.998083 28.89755 191.949105 29.0964554 191.750568 30.0233878 191.552583 30.9503202 191.546499 32.2229824 191.546499 32.2229824z"/>
      <path stroke="#747474" stroke-width=".75" d="M191.853984 32.618577C191.853984 32.618577 191.88053 45.7380229 192.030954 45.8881716 192.181378 46.0377662 193.386431 44.1312662 193.386431 44.1312662L193.268636 29.6139419C193.268636 29.6139419 192.086257 29.7934554 191.97178 30.6311851 191.857302 31.4689148 191.853984 32.618577 191.853984 32.618577L191.853984 32.618577zM163.611833 31.5586716L191.547605 32.5709284M164.020522 44.4431986L191.547605 45.5801175"/>
      <polyline stroke="#747474" stroke-width=".75" points="164.962 27.499 190.627 28.693 191.854 29.819"/>
      <polygon stroke="#747474" stroke-width=".75" points="16.381 30.777 16.177 34.666 17.811 34.716 17.811 34.052 16.994 34.052 17.096 30.743"/>
      <path stroke="#747474" stroke-width=".75" d="M21.6931963,30.8794013 C22.1029918,30.8794013 23.5320221,31.3154419 23.5320221,32.926077 C23.5320221,34.5367121 22.0908251,35.0641716 21.5914387,35.0641716 C21.0914993,35.0641716 19.752613,34.6713473 19.752613,33.028577 C19.752613,31.3852527 21.2657039,30.8794013 21.6931963,30.8794013"/>
      <path stroke="#747474" stroke-width=".75" d="M21.6423175,31.6977392 C22.4010751,31.7293202 22.9192645,32.2407121 22.9192645,32.9343878 C22.9192645,33.6280635 22.2517569,34.2563608 21.6423175,34.2563608 C21.0328781,34.2563608 20.4676811,33.9549554 20.4676811,32.9715094 C20.4676811,31.9886175 21.2933554,31.6833338 21.6423175,31.6977392 Z"/>
      <polygon stroke="#747474" stroke-width=".75" points="25.064 35.064 27.006 31.391 27.618 31.391 28.64 35.178 28.129 35.178 27.61 34.359 26.188 34.359 25.678 35.064"/>
      <path stroke="#747474" stroke-width=".75" d="M27.107916,32.5166311 C27.107916,32.5166311 26.5073251,33.5898338 26.5615221,33.5399689 C26.6162721,33.4906581 27.6100675,33.5399689 27.6100675,33.5399689 L27.107916,32.5166311"/>
      <polygon fill="#000" points="44.645 33.21 36.857 38.216 36.857 28.204"/>
      <path stroke="#747474" stroke-width=".75" d="M30.5809463,35.1777527 L30.9896357,31.5957932 C30.9896357,31.5957932 31.6809236,31.5243202 32.327969,31.6971851 C32.9744615,31.870604 33.6286963,32.3504148 33.6458402,33.28455 C33.6629842,34.2181311 33.1176963,34.7865905 32.3180145,35.1777527 C31.5177796,35.5689148 30.5809463,35.1777527 30.5809463,35.1777527 L30.5809463,35.1777527 Z"/>
      <path stroke="#747474" stroke-width=".75" d="M31.5006357,32.3121851 L31.3983251,34.5583202 C31.3983251,34.5583202 32.3500902,34.8275905 32.7178554,34.2563608 C33.0856205,33.6856851 33.0618402,32.7426851 32.5220827,32.5166311 C31.9823251,32.290577 31.5006357,32.3121851 31.5006357,32.3121851"/>
      <polyline stroke="#747474" stroke-width=".75" points="16.279 48.39 19.753 48.39 18.424 51.144 16.279 48.39"/>
      <path stroke="#747474" stroke-width=".75" d="M25.4731584,51.4508743 L26.086469,51.6553202 L26.086469,50.5294824 C26.086469,50.5294824 27.2765902,50.6009554 27.3119842,49.76655 C27.3479311,48.9321446 26.6129539,48.7160635 26.1882266,48.6872527 C25.7640524,48.6584419 25.2690902,48.6872527 25.2690902,48.6872527 L25.2690902,49.76655 L25.3708478,50.0180905 L25.4731584,51.4508743"/>
      <path stroke="#747474" stroke-width=".75" d="M25.9864911 49.4036446C25.878932 49.4036446 25.9864911 50.0350446 25.9864911 50.0350446 25.9864911 50.0350446 26.5382402 50.0910779 26.5899848 49.8512279 26.6417295 49.6120612 26.7178929 49.4063779 25.9864911 49.4036446zM30.0704993 48.8922527C30.0704993 48.8922527 30.2082039 50.2496851 30.2745675 50.7366986 30.3409311 51.2242662 30.7551508 52.0719689 31.6029463 52.0647662 32.4507418 52.0575635 32.4717569 50.9322797 32.4197721 50.4275365 32.3683402 49.9227932 32.181969 48.9941986 32.181969 48.9941986L31.6029463 48.9941986C31.6029463 48.9941986 31.8186281 49.7715365 31.8070145 50.3250365 31.7954008 50.8785365 31.9319993 51.2658202 31.3983251 51.3483743 30.8646508 51.4309284 30.7496205 50.7638473 30.6832569 50.1649148 30.6168933 49.5659824 30.5809463 48.9941986 30.5809463 48.9941986L30.0704993 48.8922527z"/>
      <polygon stroke="#747474" stroke-width=".75" points="35.382 49.404 35.689 52.065 35.996 52.27 37.119 52.27 37.119 51.655 36.098 51.553 35.893 49.199"/>
      <polygon stroke="#747474" stroke-width=".75" points="39.776 49.609 40.082 52.27 40.388 52.474 41.512 52.474 41.512 51.86 40.491 51.758 40.286 49.404"/>
      <g>
        <use fill="#F8E71C" class="cable C fill" xlink:href="#5.connectcts-1-d"/>
        <rect width="107.806" height="7" x="62.694" y="32.981" stroke="#747474"/>
      </g>
    </g>
    <g transform="translate(79 .012)">
      <use fill="#B47239" class="cable A fill" xlink:href="#5.connectcts-1-e"/>
      <rect width="17.028" height="7" x="1.472" y="32.981" stroke="#747474"/>
      <path stroke="#747474" stroke-width=".75" d="M53.3624766 46.9501445C53.3624766 46.9501445 54.5824615 46.7868279 54.792613 47.5815445M53.3624766 44.5933473L58.9812645 45.2863473M55.303613 29.2211311L59.2876433 29.2211311"/>
      <path stroke="#747474" stroke-width=".75" d="M57.1772796,22.6372932 C59.7068402,22.7547527 61.4289766,30.0195094 61.0208402,38.8500229 C60.6127039,47.6810905 58.2274842,54.7552527 55.6979236,54.6377932 C53.168363,54.5203338 51.4462266,47.255577 51.854916,38.4250635 C52.2630524,29.5939959 54.6482721,22.5203878 57.1772796,22.6372932 L57.1772796,22.6372932 Z"/>
      <path stroke="#747474" stroke-width=".75" d="M53.3624766 34.3588608L53.3624766 48.4828067 54.792613 47.4594689C54.792613 47.4594689 54.9308705 50.8414148 55.4053705 50.7344824 55.8804236 50.62755 58.8275221 48.4772662 58.9812645 47.8683608 59.1344539 47.2600094 59.2876433 29.9918067 59.2876433 29.9918067 59.2876433 29.9918067 59.1615524 26.5732932 58.0615751 27.2968878 56.9621508 28.0210365 54.9148327 28.6681716 54.6903024 30.8794013 54.4663251 33.090077 54.4862342 33.5399689 54.4862342 33.5399689L53.3624766 34.3588608 53.3624766 34.3588608zM36.7039117 41.9327797C36.772136 42.4192392 36.7182389 43.7672527 36.1997342 44.5933473M57.8265372 16.6086311C58.096416 16.3820229 78.8555145 2.97502295 77.8805221 2.88194187 71.291166 2.25530673 36.8954463.191455381 35.7667115.875158084 27.6133857 5.81510403 19.1000372 11.9639959 17.4630675 13.0626851 15.5661736 14.3364554 11.4776205 18.1267392 11.0158402 22.4073608 12.2430145 22.4627662 17.6643705 22.953104 17.8269615 22.9641851 18.8323705 23.0317797 19.0353327 18.8719419 20.1496887 18.8852392 27.8683327 18.9788743 44.4238478 19.3966311 46.7841811 19.9107932 47.1442039 19.5822392 45.2412266 24.6618067 45.2412266 24.6618067 45.2412266 24.6618067 51.8698478 24.8319013 52.5030675 24.6618067 53.9453705 21.4244689 54.0852872 19.75455 57.8265372 16.6086311L57.8265372 16.6086311zM78.5259084 44.1124284C78.5259084 44.1124284 78.7897039 25.0911986 78.5259084 23.9321175 78.262113 22.7735905 77.076416 22.3663608 75.671719 23.4949689 74.2670221 24.623577 68.5956963 28.4814554 68.5956963 28.4814554 68.5956963 28.4814554 66.2287266 42.0297392 66.0572872 42.3610635 65.8858478 42.6918338 62.7169842 44.5501311 62.7114539 44.8748067 62.6290524 50.0191986 61.0877569 53.0199554 60.1293554 55.3469824 60.0762645 55.6760905 59.9689766 57.0723067 60.1293554 56.9481986 63.9718099 53.979577 78.5259084 44.1124284 78.5259084 44.1124284L78.5259084 44.1124284zM46.1448781 21.1518743L19.4329615 19.7495635M45.8368402 22.6206716L19.4329615 21.1518743M45.2777266 24.0900229L18.5282039 22.6206716"/>
      <path stroke="#747474" stroke-width=".75" d="M24.4965069,38.0959554 C23.3318251,38.0904148 20.8642039,37.6709959 20.4427948,39.7592257 C20.0213857,41.8474554 20.3587342,44.929104 20.5793933,45.3108473 C21.2242266,46.4278202 24.754219,46.8832527 28.878719,46.9386581 C30.8430827,46.9652527 33.5999387,46.8771581 34.3774993,46.9386581 C35.1545069,47.0007121 37.2316887,46.69155 37.5070978,44.9014013 C37.7775296,43.1428338 37.3721584,40.1437392 36.9745296,39.82405 C36.5763478,39.5043608 35.6909463,38.6217527 32.6780372,38.4688338 C29.6651281,38.3159148 25.6606357,38.1009419 24.4965069,38.0959554 L24.4965069,38.0959554 Z"/>
      <path stroke="#747474" stroke-width=".75" d="M35.9199008 40.1985905C34.5002721 39.6689148 23.987166 38.9525229 23.5978327 39.2517121 23.2084993 39.5503473 23.0094084 39.6151716 23.1559615 40.1659013 23.3025145 40.716077 23.3688781 42.1455365 24.7121887 42.4474959 26.0554993 42.7500094 36.4657418 42.8092932 36.4657418 42.8092932 36.4657418 42.8092932 36.652666 40.4717392 35.9199008 40.1985905zM36.4867569 45.3512932C35.6389615 45.3102932 23.3727493 44.6382257 23.1078478 44.6897527 22.8423933 44.7412797 22.2025372 44.9014013 22.2025372 44.9014013 22.2025372 44.9014013 22.2478857 45.2005905 23.7526811 45.6244419 25.2574766 46.0488473 35.1832645 46.2111851 35.4802418 46.1530094 35.777219 46.0953878 36.4867569 45.3512932 36.4867569 45.3512932"/>
      <path stroke="#747474" stroke-width=".75" d="M23.7526811,39.1730365 C23.0884918,38.9863202 22.5703024,38.8245365 22.0797645,39.1746986 C21.5892266,39.5248608 21.0953705,40.706104 21.3060751,40.8861716 C21.5162266,41.0667932 23.1078478,40.6551311 23.1078478,40.6551311"/>
      <polyline stroke="#747474" stroke-width=".75" points="20.579 41.152 21.231 41.298 21.612 44.358 20.241 44.153"/>
      <path stroke="#747474" stroke-width=".75" d="M77.9137039,2.97723916 C77.8888175,3.15509052 77.9352721,11.1789013 77.9137039,17.9488878 C77.9031963,21.2466175 77.4015978,21.1756986 75.7944918,22.6206716 C73.6183175,24.5786986 68.972863,27.5401175 68.1200902,28.1667527 C68.097969,28.1833743 66.5987039,25.9726986 66.5987039,25.9726986 C66.5987039,25.9726986 62.4327266,28.6537662 62.4498705,29.5070094 C62.4559539,29.7923473 61.9488251,45.2072392 61.2995675,48.2550905 C59.8915524,54.8677257 58.6013327,59.1605365 55.5690675,59.2447527 C51.9881963,59.3444824 51.0220524,48.3991446 50.8931963,44.6869824 C50.7637872,40.9748202 51.4257645,31.5708608 52.9377493,25.884604 C54.0399387,21.7386175 56.2304918,18.8037932 59.2080069,16.3504419 C59.336863,16.2440635 59.3075524,17.4917932 59.4452569,17.3931716 C68.6852872,10.7794284 77.9137039,4.43440133 77.9137039,4.43440133"/>
      <path stroke="#747474" stroke-width=".75" d="M78.5259084,44.1124284 C78.5259084,44.1124284 78.7897039,25.0911986 78.5259084,23.9321175 C78.262113,22.7735905 77.076416,22.3663608 75.671719,23.4949689 C74.2670221,24.623577 68.5956963,28.4814554 68.5956963,28.4814554 C68.5956963,28.4814554 66.2287266,42.0297392 66.0572872,42.3610635 C65.8858478,42.6918338 62.7169842,44.5501311 62.7114539,44.8748067 C62.6290524,50.0191986 61.0877569,53.0199554 60.1293554,55.3469824 C60.0762645,55.6760905 59.9689766,57.0723067 60.1293554,56.9481986 C63.9718099,53.979577 78.5259084,44.1124284 78.5259084,44.1124284 L78.5259084,44.1124284 Z"/>
      <path fill="#F9F9F9" stroke="#747474" stroke-width=".75" d="M52.6121162,24.4356564 C51.7919723,24.9387375 51.6602493,27.8487257 50.9800221,31.2993743 C50.2240296,35.1350905 49.9132266,39.1281581 50.1814463,43.5256851 C50.595113,50.3028743 50.8445296,51.6193067 50.961219,53.8017257 C51.1138554,56.6628608 48.406219,57.2047257 48.406219,57.2047257 C48.406219,57.2047257 16.0959766,55.5287121 14.0879236,55.5209554 C8.5531963,55.4999013 7.55165842,49.8441175 7.64346145,42.5017932 C7.74411297,34.4563743 8.13178721,29.2100365 8.73293115,27.3035365 C9.98830994,23.3237662 10.2725675,22.7907662 11.0158402,22.6206716 L52.6121162,24.4356564 Z"/>
      <path stroke="#747474" stroke-width=".75" d="M46.1448781 21.1518743L19.4329615 19.7495635M45.8368402 22.6206716L19.4329615 21.1518743M45.2777266 24.0900229L18.5282039 22.6206716M24.4965069 38.0959554C23.3318251 38.0904148 20.8642039 37.6709959 20.4427948 39.7592257 20.0213857 41.8474554 20.3587342 44.929104 20.5793933 45.3108473 21.2242266 46.4278202 24.754219 46.8832527 28.878719 46.9386581 30.8430827 46.9652527 33.5999387 46.8771581 34.3774993 46.9386581 35.1545069 47.0007121 37.2316887 46.69155 37.5070978 44.9014013 37.7775296 43.1428338 37.3721584 40.1437392 36.9745296 39.82405 36.5763478 39.5043608 35.6909463 38.6217527 32.6780372 38.4688338 29.6651281 38.3159148 25.6606357 38.1009419 24.4965069 38.0959554L24.4965069 38.0959554z"/>
      <path stroke="#747474" stroke-width=".75" d="M35.9199008 40.1985905C34.5002721 39.6689148 23.987166 38.9525229 23.5978327 39.2517121 23.2084993 39.5503473 23.0094084 39.6151716 23.1559615 40.1659013 23.3025145 40.716077 23.3688781 42.1455365 24.7121887 42.4474959 26.0554993 42.7500094 36.4657418 42.8092932 36.4657418 42.8092932 36.4657418 42.8092932 36.652666 40.4717392 35.9199008 40.1985905zM36.4867569 45.3512932C35.6389615 45.3102932 23.3727493 44.6382257 23.1078478 44.6897527 22.8423933 44.7412797 22.2025372 44.9014013 22.2025372 44.9014013 22.2025372 44.9014013 22.2478857 45.2005905 23.7526811 45.6244419 25.2574766 46.0488473 35.1832645 46.2111851 35.4802418 46.1530094 35.777219 46.0953878 36.4867569 45.3512932 36.4867569 45.3512932"/>
      <path stroke="#747474" stroke-width=".75" d="M23.7526811,39.1730365 C23.0884918,38.9863202 22.5703024,38.8245365 22.0797645,39.1746986 C21.5892266,39.5248608 21.0953705,40.706104 21.3060751,40.8861716 C21.5162266,41.0667932 23.1078478,40.6551311 23.1078478,40.6551311"/>
      <polyline stroke="#747474" stroke-width=".75" points="20.579 41.152 21.231 41.298 21.612 44.358 20.241 44.153"/>
      <path stroke="#747474" stroke-width=".75" d="M10.4561736 54.6233878C10.4561736 54.6233878 11.8033554 57.1764689 12.8054463 57.5914554 13.8075372 58.0064419 55.9163705 59.2458608 55.9163705 59.2458608M51.1149615 52.6786581C51.1149615 52.6786581 51.0762493 55.6434013 53.771166 59.2619284M76.6544539 28.3202257C76.4879918 27.0475635 74.3129236 23.2744554 73.4878024 28.8321716 72.6621281 34.3898878 73.1095296 42.5117662 73.8964918 43.2630635 74.6834539 44.0138067 76.948113 43.7129554 76.7567645 36.9174824"/>
      <path stroke="#747474" stroke-width=".75" d="M75.3266281,28.2182797 C73.4612569,30.2837932 73.7604463,34.3123202 74.6115599,36.6105365 C74.6867721,36.8138743 117.109174,38.6378202 117.109174,38.6378202 L143.85206,39.9215635 C143.28078,36.7274419 143.381431,33.9471986 144.124151,31.56255 C144.124151,31.56255 75.5705145,27.9479013 75.3266281,28.2182797 L75.3266281,28.2182797 Z"/>
      <path stroke="#747474" stroke-width=".75" d="M145.166613,29.5114419 C142.515386,30.9902121 143.396363,41.9793202 144.655613,41.362104 C144.721977,41.3294148 155.07581,42.100104 155.07581,42.100104 L164.269939,46.8084554 L191.239568,48.2434554 C191.239568,48.2434554 194.559961,45.8056175 194.713151,44.4431986 C194.86634,43.0802257 194.713151,42.356077 194.713151,42.356077 L195.836908,41.0551581 L195.836908,30.0233878 C195.836908,30.0233878 195.246272,29.3845635 194.713151,29.3069959 C194.18003,29.2294284 194.595908,27.1489554 193.078393,26.9528202 C191.561431,26.7566851 166.823833,25.69955 166.823833,25.69955 L155.58681,30.0233878 C155.58681,30.0233878 145.304871,29.4344284 145.166613,29.5114419 L145.166613,29.5114419 Z"/>
      <path stroke="#747474" stroke-width=".75" d="M155.382189 30.0233878C154.338068 31.6467662 154.03003 33.7067392 153.952052 36.4714689 153.874075 39.2356446 154.339174 41.2451986 155.07581 42.356077M166.313386 25.69955C165.062984 26.9655635 163.852401 28.0016446 163.657181 31.3536716 163.461408 34.7062527 163.96356 44.9662257 163.96356 44.9662257 163.96356 44.9662257 163.930931 46.5286581 164.372249 46.9104013M191.546499 32.2229824C191.546499 32.2229824 191.591848 46.7447392 191.852878 46.9104013 192.113355 47.0760635 194.202151 44.9662257 194.202151 44.9662257L193.998083 28.89755C193.998083 28.89755 191.949105 29.0964554 191.750568 30.0233878 191.552583 30.9503202 191.546499 32.2229824 191.546499 32.2229824z"/>
      <path stroke="#747474" stroke-width=".75" d="M191.853984 32.618577C191.853984 32.618577 191.88053 45.7380229 192.030954 45.8881716 192.181378 46.0377662 193.386431 44.1312662 193.386431 44.1312662L193.268636 29.6139419C193.268636 29.6139419 192.086257 29.7934554 191.97178 30.6311851 191.857302 31.4689148 191.853984 32.618577 191.853984 32.618577L191.853984 32.618577zM163.611833 31.5586716L191.547605 32.5709284M164.020522 44.4431986L191.547605 45.5801175"/>
      <polyline stroke="#747474" stroke-width=".75" points="164.962 27.499 190.627 28.693 191.854 29.819"/>
      <polygon stroke="#747474" stroke-width=".75" points="16.381 30.777 16.177 34.666 17.811 34.716 17.811 34.052 16.994 34.052 17.096 30.743"/>
      <path stroke="#747474" stroke-width=".75" d="M21.6931963,30.8794013 C22.1029918,30.8794013 23.5320221,31.3154419 23.5320221,32.926077 C23.5320221,34.5367121 22.0908251,35.0641716 21.5914387,35.0641716 C21.0914993,35.0641716 19.752613,34.6713473 19.752613,33.028577 C19.752613,31.3852527 21.2657039,30.8794013 21.6931963,30.8794013"/>
      <path stroke="#747474" stroke-width=".75" d="M21.6423175,31.6977392 C22.4010751,31.7293202 22.9192645,32.2407121 22.9192645,32.9343878 C22.9192645,33.6280635 22.2517569,34.2563608 21.6423175,34.2563608 C21.0328781,34.2563608 20.4676811,33.9549554 20.4676811,32.9715094 C20.4676811,31.9886175 21.2933554,31.6833338 21.6423175,31.6977392 Z"/>
      <polygon stroke="#747474" stroke-width=".75" points="25.064 35.064 27.006 31.391 27.618 31.391 28.64 35.178 28.129 35.178 27.61 34.359 26.188 34.359 25.678 35.064"/>
      <path stroke="#747474" stroke-width=".75" d="M27.107916,32.5166311 C27.107916,32.5166311 26.5073251,33.5898338 26.5615221,33.5399689 C26.6162721,33.4906581 27.6100675,33.5399689 27.6100675,33.5399689 L27.107916,32.5166311"/>
      <polygon fill="#000" points="44.645 33.21 36.857 38.216 36.857 28.204"/>
      <path stroke="#747474" stroke-width=".75" d="M30.5809463,35.1777527 L30.9896357,31.5957932 C30.9896357,31.5957932 31.6809236,31.5243202 32.327969,31.6971851 C32.9744615,31.870604 33.6286963,32.3504148 33.6458402,33.28455 C33.6629842,34.2181311 33.1176963,34.7865905 32.3180145,35.1777527 C31.5177796,35.5689148 30.5809463,35.1777527 30.5809463,35.1777527 L30.5809463,35.1777527 Z"/>
      <path stroke="#747474" stroke-width=".75" d="M31.5006357,32.3121851 L31.3983251,34.5583202 C31.3983251,34.5583202 32.3500902,34.8275905 32.7178554,34.2563608 C33.0856205,33.6856851 33.0618402,32.7426851 32.5220827,32.5166311 C31.9823251,32.290577 31.5006357,32.3121851 31.5006357,32.3121851"/>
      <polyline stroke="#747474" stroke-width=".75" points="16.279 48.39 19.753 48.39 18.424 51.144 16.279 48.39"/>
      <path stroke="#747474" stroke-width=".75" d="M25.4731584,51.4508743 L26.086469,51.6553202 L26.086469,50.5294824 C26.086469,50.5294824 27.2765902,50.6009554 27.3119842,49.76655 C27.3479311,48.9321446 26.6129539,48.7160635 26.1882266,48.6872527 C25.7640524,48.6584419 25.2690902,48.6872527 25.2690902,48.6872527 L25.2690902,49.76655 L25.3708478,50.0180905 L25.4731584,51.4508743"/>
      <path stroke="#747474" stroke-width=".75" d="M25.9864911 49.4036446C25.878932 49.4036446 25.9864911 50.0350446 25.9864911 50.0350446 25.9864911 50.0350446 26.5382402 50.0910779 26.5899848 49.8512279 26.6417295 49.6120612 26.7178929 49.4063779 25.9864911 49.4036446zM30.0704993 48.8922527C30.0704993 48.8922527 30.2082039 50.2496851 30.2745675 50.7366986 30.3409311 51.2242662 30.7551508 52.0719689 31.6029463 52.0647662 32.4507418 52.0575635 32.4717569 50.9322797 32.4197721 50.4275365 32.3683402 49.9227932 32.181969 48.9941986 32.181969 48.9941986L31.6029463 48.9941986C31.6029463 48.9941986 31.8186281 49.7715365 31.8070145 50.3250365 31.7954008 50.8785365 31.9319993 51.2658202 31.3983251 51.3483743 30.8646508 51.4309284 30.7496205 50.7638473 30.6832569 50.1649148 30.6168933 49.5659824 30.5809463 48.9941986 30.5809463 48.9941986L30.0704993 48.8922527z"/>
      <polygon stroke="#747474" stroke-width=".75" points="35.382 49.404 35.689 52.065 35.996 52.27 37.119 52.27 37.119 51.655 36.098 51.553 35.893 49.199"/>
      <polygon stroke="#747474" stroke-width=".75" points="39.776 49.609 40.082 52.27 40.388 52.474 41.512 52.474 41.512 51.86 40.491 51.758 40.286 49.404"/>
      <use fill="#B47239" class="cable A fill" xlink:href="#5.connectcts-1-f"/>
      <rect width="107.806" height="7" x="62.694" y="32.981" stroke="#747474"/>
      <g stroke="#358CF1" stroke-linecap="square" transform="translate(144.33 39.488)">
        <path d="M0 1.55516118L8 1.55516118M0 51.5551612L8 51.5551612"/>
        <path stroke-dasharray="4" d="M4.5,2.78441852 L4.5,51"/>
        <g transform="rotate(-180 4.5 56)">
          <path d="M0 1.55516118L8 1.55516118M0 52.5551612L8 52.5551612"/>
          <path stroke-dasharray="4" d="M4.5,2.78441852 L4.5,51"/>
        </g>
      </g>
    </g>
  </g>
</svg>
