<svg xmlns="http://www.w3.org/2000/svg" width="340" height="130" viewBox="0 0 340 130">
  <g fill="none" fill-rule="evenodd" transform="translate(0 1)">
    <g transform="translate(70)">
      <g transform="rotate(90 134.75 134.75)">
        <g stroke="#747474">
          <path d="M36.096 163.934827L33.1093333 166.546565M39.0826667 164.494656L33.1093333 168.598473M39.0826667 167.636767L35.2590507 167.121441M39.0826667 168L33.4506667 168M43.3493333 164.494656L40.6186667 166.546565M46.08 165.240525L41.0146133 168.598473M46.08 167L42.8202667 167M46.08 168L41.0146133 168M34.6026667 174.412214C34.6026667 174.412214 34.00704 171.498162 36.2666667 171.505344 38.5262933 171.512525 39.1376213 172.556263 39.0826667 173.899237 39.027712 175.242211 38.5928533 176.145734 37.1708587 176.122137 35.748864 176.09854 34.5309867 175.773313 34.6026667 174.412214zM44.4501333 171.505344C42.7072853 171.362394 42.1454507 172.409893 41.984 173.899237 41.8225493 175.38858 42.672128 176.197716 44.4501333 176.122479 46.22848 176.047585 47.3146027 174.721026 47.104 173.899237 46.8933973 173.077447 46.5107627 171.674284 44.4501333 171.505344zM39.08608 173.809979L41.964544 173.974203M39.08608 175L41.984 175"/>
          <path d="M35.2590507 175.096183C35.2590507 175.096183 35.219456 172.713576 37.1708587 173.044275 38.6164053 173.289136 38.26688 174.425209 38.2296747 175.096183M42.7769173 175.096183C42.7769173 175.096183 43.049984 172.75564 44.4501333 173.012812 45.8502827 173.269985 46.468096 174.417685 46.08 175.096183M36.775936 176.29313C36.775936 176.29313 41.104384 176.044165 40.5251413 178.858015 39.94624 181.671866 37.9313493 182.4256 36.775936 182.277863 35.620864 182.130125 33.3339307 180.665747 33.4506667 178.858015 33.5674027 177.050284 34.6610347 176.16386 36.775936 176.29313zM44.5474133 176.122479C44.5474133 176.122479 47.494144 175.904635 47.4453333 179.288232 47.3965227 182.671487 45.71648 182.133203 44.4852907 182.295304 43.2544427 182.457747 41.1262293 181.332959 41.0146133 178.597765 40.9029973 175.862229 43.414528 176.189166 44.5474133 176.29313"/>
          <polyline points="76.8 9.576 79.189 8.55 85.675 8.892"/>
          <polyline points="96.597 8.55 97.963 8.55 100.014 9.576"/>
          <polyline points="30.037 174.412 29.696 183.988 47.787 183.988 48.469 164.495 30.037 163.811 30.037 174.412 34.475 174.412"/>
          <polyline points="33.382 163.935 33.109 170.308 39.083 170.308 39.083 164.495"/>
          <polyline points="40.619 164.495 41.015 170.308 46.08 170.308 46.08 164.495"/>
          <path d="M60.3306667 163.934827L57.344 166.546565M63.3173333 164.494656L57.344 168.598473M63.3173333 167.636767L59.4937173 167.121441M63.3173333 168L57.6853333 168M67.584 164.494656L64.8533333 166.546565M70.3146667 165.240525L65.24928 168.598473M70.3146667 167L67.0549333 167M70.3146667 168L65.24928 168M58.8373333 174.412214C58.8373333 174.412214 58.2417067 171.498162 60.5013333 171.505344 62.76096 171.512525 63.372288 172.556263 63.3173333 173.899237 63.2623787 175.242211 62.82752 176.145734 61.4055253 176.122137 59.9835307 176.09854 58.7656533 175.773313 58.8373333 174.412214zM68.6848 171.505344C66.941952 171.362394 66.3801173 172.409893 66.2186667 173.899237 66.057216 175.38858 66.9067947 176.197716 68.6848 176.122479 70.4631467 176.047585 71.5492693 174.721026 71.3386667 173.899237 71.128064 173.077447 70.7454293 171.674284 68.6848 171.505344zM63.3207467 173.809979L66.1992107 173.974203M63.3207467 175L66.2186667 175"/>
          <path d="M59.4937173 175.096183C59.4937173 175.096183 59.4541227 172.713576 61.4055253 173.044275 62.851072 173.289136 62.5015467 174.425209 62.4643413 175.096183M67.011584 175.096183C67.011584 175.096183 67.2846507 172.75564 68.6848 173.012812 70.0849493 173.269985 70.7027627 174.417685 70.3146667 175.096183M61.0106027 176.29313C61.0106027 176.29313 65.3390507 176.044165 64.759808 178.858015 64.1809067 181.671866 62.166016 182.4256 61.0106027 182.277863 59.8555307 182.130125 57.5685973 180.665747 57.6853333 178.858015 57.8020693 177.050284 58.8957013 176.16386 61.0106027 176.29313zM68.78208 176.122479C68.78208 176.122479 71.7288107 175.904635 71.68 179.288232 71.6311893 182.671487 69.9511467 182.133203 68.7199573 182.295304 67.4891093 182.457747 65.360896 181.332959 65.24928 178.597765 65.137664 175.862229 67.6491947 176.189166 68.78208 176.29313"/>
          <polyline points="54.272 174.412 53.931 183.988 72.021 183.988 72.704 164.495 54.272 163.811 54.272 174.412 58.709 174.412"/>
          <polyline points="57.617 163.935 57.344 170.308 63.317 170.308 63.317 164.495"/>
          <polyline points="64.853 164.495 65.249 170.308 70.315 170.308 70.315 164.495"/>
          <path d="M84.9066667 163.934827L81.92 166.546565M87.8933333 164.494656L81.92 168.598473M87.8933333 167.636767L84.0697173 167.121441M87.8933333 168L82.2613333 168M92.16 164.494656L89.4293333 166.546565M94.8906667 165.240525L89.82528 168.598473M94.8906667 167L91.6309333 167M94.8906667 168L89.82528 168M83.4133333 174.412214C83.4133333 174.412214 82.8177067 171.498162 85.0773333 171.505344 87.33696 171.512525 87.948288 172.556263 87.8933333 173.899237 87.8383787 175.242211 87.40352 176.145734 85.9815253 176.122137 84.5595307 176.09854 83.3416533 175.773313 83.4133333 174.412214zM93.2608 171.505344C91.517952 171.362394 90.9561173 172.409893 90.7946667 173.899237 90.633216 175.38858 91.4827947 176.197716 93.2608 176.122479 95.0391467 176.047585 96.1252693 174.721026 95.9146667 173.899237 95.704064 173.077447 95.3214293 171.674284 93.2608 171.505344zM87.8967467 173.809979L90.7752107 173.974203M87.8967467 175L90.7946667 175"/>
          <path d="M84.0697173 175.096183C84.0697173 175.096183 84.0301227 172.713576 85.9815253 173.044275 87.427072 173.289136 87.0775467 174.425209 87.0403413 175.096183M91.587584 175.096183C91.587584 175.096183 91.8606507 172.75564 93.2608 173.012812 94.6609493 173.269985 95.2787627 174.417685 94.8906667 175.096183M85.5866027 176.29313C85.5866027 176.29313 89.9150507 176.044165 89.335808 178.858015 88.7569067 181.671866 86.742016 182.4256 85.5866027 182.277863 84.4315307 182.130125 82.1445973 180.665747 82.2613333 178.858015 82.3780693 177.050284 83.4717013 176.16386 85.5866027 176.29313zM93.35808 176.122479C93.35808 176.122479 96.3048107 175.904635 96.256 179.288232 96.2071893 182.671487 94.5271467 182.133203 93.2959573 182.295304 92.0651093 182.457747 89.936896 181.332959 89.82528 178.597765 89.713664 175.862229 92.2251947 176.189166 93.35808 176.29313"/>
          <polyline points="78.848 174.412 78.507 183.988 96.597 183.988 97.28 164.495 78.848 163.811 78.848 174.412 83.285 174.412"/>
          <polyline points="82.193 163.935 81.92 170.308 87.893 170.308 87.893 164.495"/>
          <polyline points="89.429 164.495 89.825 170.308 94.891 170.308 94.891 164.495"/>
          <path d="M79.5306667 3.41984733L78.848 14.3633588M86.3573333 120.378626C84.79744 120.87553 82.4879787 123.077227 82.4879787 127.868776 82.4879787 132.659982 87.6571307 135.083969 91.136 135.083969 94.6148693 135.083969 99.328 132.090919 99.328 127.868776 99.328 123.64629 95.9146667 120.036641 95.9146667 120.036641"/>
          <path d="M86.016,110.461069 L86.016,129.954198 C86.016,131.075224 89.0589867,133.032061 90.9079893,133.032061 C92.7573333,133.032061 95.9146667,131.574864 95.9146667,130.296183 L95.9146667,51.6396947 C95.9146667,51.6396947 93.7816747,52.6656489 90.9079893,52.6656489 C88.0346453,52.6656489 85.6746667,50.9557252 85.6746667,50.9557252 L86.016,110.461069 Z"/>
          <path d="M83.968,40.0122137 L83.968,48.9038168 C83.968,48.9038168 85.615616,52.6656489 90.9079893,52.6656489 C96.2003627,52.6656489 97.9626667,49.8134962 97.9626667,48.5618321 L97.9626667,39.3282443 C97.9626667,39.3282443 96.8250027,44.4580153 90.9079893,44.4580153 C84.9913173,44.4580153 83.968,40.0122137 83.968,40.0122137 Z"/>
          <path d="M81.5786667,16.4152672 L81.5786667,36.9343511 C81.5786667,36.9343511 82.6760533,38.7116458 83.968,39.3282443 C85.2599467,39.9448427 90.9653333,40.0122137 90.9653333,40.0122137 C90.9653333,40.0122137 97.3356373,40.0173435 97.9626667,39.3282443 C98.589696,38.639145 100.091221,36.9511084 100.010667,36.9343511 C99.930112,36.9175939 100.010667,3.41984733 100.010667,3.41984733 C100.010667,3.41984733 99.923968,0.590949618 91.8186667,0.341984733 C83.7133653,0.0930198473 82.7136,2.94004275 82.4879787,3.0778626 C82.2626987,3.21568244 78.848,3.0778626 78.848,3.0778626 C78.848,3.0778626 77.1413333,3.50431756 77.1413333,4.78778626 C77.1413333,6.07125496 76.8,7.18167939 76.8,7.18167939 L76.4586667,13.6793893 L73.728,16.7572519 L73.728,27.7007634 L75.4346667,28.7267176 L75.4346667,40.3541985 C75.4346667,40.3541985 77.4826667,41.0942534 77.4826667,40.3541985 C77.4826667,39.6141435 78.1653333,28.3847328 78.1653333,28.3847328 L78.848,17.7832061 C78.848,17.7832061 81.0984107,16.0213008 81.5786667,16.4152672 Z"/>
          <polyline points="85.675 16.073 85.675 2.052 96.597 2.052 96.597 16.073"/>
          <path d="M97.9626667,2.73587786 L97.9626667,15.0473282 C97.9626667,15.0473282 97.4247253,16.7705893 95.9146667,16.7572519 C94.404608,16.7439145 85.6746667,16.7572519 85.6746667,16.7572519 C85.6746667,16.7572519 82.958336,15.8058504 82.944,14.7053435 C82.929664,13.6048366 77.4826667,14.7053435 77.4826667,14.7053435 L76.8,23.9389313 L73.728,27.3587786"/>
          <path d="M87.7226667 16.754516L87.7226667 13.6793893 90.7946667 11.9694656 93.5253333 12.6534351 93.5253333 16.7572519M85 16.7572519L85 39.3282443M94 16.7572519L94 40.0122137M73.728 21.5450382L76.8 18.1251908M76 14.021374L76 24.280916"/>
          <polygon points="28.331 204.849 31.628 210.321 32.536 210.321 35.84 205.875 34.475 205.533 32.085 208.611 29.696 204.849"/>
          <polygon points="37.888 206.217 37.888 211.005 39.253 211.347 43.349 211.689 43.349 211.005 39.253 210.663 39.253 209.637 43.008 209.295 43.008 208.611 38.912 208.269 39.253 206.901 43.349 207.243 43.349 206.559"/>
          <path d="M46.08,211.68855 L47.4453333,211.68855 L47.4453333,209.978626 L49.4933333,209.978626 L50.8593493,212.030534 L52.224,212.030534 L50.8593493,209.978626 C50.8593493,209.978626 52.2130773,209.733081 52.224,208.610687 C52.2349227,207.488293 51.1412907,206.975316 50.176,206.900763 C49.2107093,206.826211 46.08,206.900763 46.08,206.900763 L46.08,211.68855 Z"/>
          <path d="M47.4453333 207.584733L47.4453333 209.294656C47.4453333 209.294656 49.737728 209.449234 50.176 209.449234 50.614272 209.449234 51.1607467 207.584733 49.8346667 207.584733L47.4453333 207.584733zM54.6133333 207.242748L54.6133333 212.372519 59.392 212.372519C60.3077973 212.372519 62.107648 211.000476 62.1226667 209.636641 62.1376853 208.272806 60.473344 207.262241 59.392 207.242748 58.310656 207.223255 54.6133333 207.242748 54.6133333 207.242748z"/>
          <path d="M55.9786667,207.926718 L55.9786667,211.68855 L59.392,211.68855 C60.06272,211.68855 61.2471467,207.926718 59.392,207.926718 L55.9786667,207.926718 Z"/>
          <polygon points="64 207.585 64.174 212.373 65.877 212.373 65.877 207.585"/>
          <path d="M72.0213333 207.233856C71.088128 207.233856 67.7546667 207.546773 67.7546667 209.449234 67.7546667 211.351695 69.6886613 212.372519 72.0213333 212.372519 74.3540053 212.372519 75.0933333 211.346565 75.0933333 211.346565L75.4346667 209.978626 73.728 209.978626 73.728 211.346565 70.1207893 211.346565C70.1207893 211.346565 69.632 211.13556 69.632 209.803188 69.632 208.471157 71.0447787 208.275542 72.0213333 208.268702 72.997888 208.261863 74.4106667 208.268702 74.4106667 208.268702L74.4106667 207.584733C74.4106667 207.584733 72.9545387 207.233856 72.0213333 207.233856zM77.4827278 207.233856L77.4827278 212.030534 78.1653883 212.372519 79.1893792 212.030534 79.1893792 210.320611 80.5547003 210.320611 82.2613517 212.030534 84.3093333 212.030534 82.6026819 210.320611C82.6026819 210.320611 83.9680031 209.723505 83.9680031 208.952672 83.9680031 208.181838 83.6809443 207.233856 80.5547003 207.233856L77.4827278 207.233856z"/>
          <path d="M78.848,207.926718 L78.848,209.449234 L81.92,209.449234 C82.3596373,209.449234 82.9412693,207.926718 81.92,207.926718 L78.848,207.926718"/>
          <rect width="1.365" height="4.797" x="86.357" y="207.234"/>
          <path d="M93.8666667 205.874809C93.1734187 205.874809 90.112 206.127878 90.112 207.584733 90.112 209.041588 91.5831467 208.952672 92.8426667 208.952672 94.1021867 208.952672 95.2920747 210.320611 92.8426667 210.320611 90.3932587 210.320611 88.4722347 211.68855 92.8426667 211.68855 94.8596053 211.68855 95.9146667 210.559316 95.9146667 209.632195 95.9146667 208.705417 94.7438933 208.268702 92.8426667 208.268702 90.94144 208.268702 91.762688 206.867591 93.8666667 206.867591 95.9706453 206.867591 96.2362027 205.874809 93.8666667 205.874809zM25.6 133.374046L25.9413333 121.746565 32.0853333 121.746565C32.0853333 121.746565 31.9197867 118.608855 34.4746667 118.668702 37.0295467 118.72855 47.0862507 118.367756 48.4693333 118.668702 49.852416 118.969649 50.8900693 120.213105 50.8586667 122.08855 50.827264 123.963994 50.176 134.058015 50.176 134.058015 50.176 134.058015 50.1015893 137.671768 48.4693333 137.135878"/>
          <path d="M38.2296747 137.135878C38.71232 133.426711 38.2296747 127.868776 38.2296747 127.868776 38.2296747 127.868776 43.445248 125.072366 43.6906667 127.868776 43.9360853 130.664843 43.6906667 137.135878 43.6906667 137.135878M35 115.364446L35 137.135878"/>
          <polyline points="47.445 115.364 47.104 118.547 47.787 137.136"/>
          <polyline points="30.72 118.547 32.085 121.747 32.536 137.136"/>
          <ellipse cx="64" cy="146.567" rx="11.093" ry="7.668"/>
          <path d="M58.7615573 153.326803C60.690432 151.581997 67.4187947 150.963347 70.1207893 152.961905M1.024 164.494656C1.024 164.494656.654336 178.542021 2.048 189.459542 3.441664 200.377063 5.03534933 206.668214 12.9706667 213.398473 20.905984 220.128733 24.963072 221.349618 38.2293333 222.632061 51.4955947 223.914504 84.9698133 224.205533 94.208 222.290076 103.446187 220.37462 110.149973 219.152366 114.688 214.082443 119.226027 209.012519 124.388011 200.389716 125.952 191.717667 127.515989 183.045618 127.81568 154.235115 127.81568 154.235115M30.72 119.010687L23.8933333 119.010687 23.552 133.374046 30.72 133.716031C30.72 133.716031 30.180352 136.497392 36.864 136.793893 43.547648 137.090394 48.128 137.135878 48.128 137.135878 48.128 137.135878 52.3113813 136.030583 52.5653333 133.374046 52.8192853 130.717508 52.9066667 119.352672 52.9066667 119.352672 52.9066667 119.352672 52.0690347 116.107579 48.128 115.59084 44.1869653 115.074101 36.3871573 115.605203 34.4746667 115.59084 32.562176 115.576476 30.974976 118.077069 30.72 119.010687z"/>
          <path d="M85.6746667,102.253435 C85.3643947,102.746919 59.5759787,100.638241 42.9912747,101.696342 C23.3209173,102.951084 12.6692693,108.45909 9.516032,116.634919 C7.70082133,121.341655 5.49546667,124.953356 4.43733333,144.659542 C3.16654933,168.32386 6.61469867,182.039841 21.8453333,187.065649 C37.075968,192.091456 85.2578987,192.926241 96.256,190.143511 C107.254101,187.360782 118.807211,185.471658 122.538667,165.178626 C126.270123,144.885594 123.196075,119.42996 116.736,112.170992 C110.275925,104.912024 96.256,103.279389 96.256,103.279389"/>
          <path d="M86.460416,100.940898 C86.1289813,101.466186 59.261952,99.2217405 41.544704,100.347896 C20.5312,101.683347 9.529344,110.105063 6.807552,116.248134 C4.631552,121.159035 1.48821333,125.101777 0.357717333,146.076385 C-0.999765333,171.263902 4.780032,185.74422 18.9545813,191.211872 C34.9354667,197.376489 86.697984,196.766046 98.4470187,193.804116 C110.196053,190.842186 121.855317,189.515627 125.841749,167.916214 C129.828181,146.3168 127.783253,119.913869 119.642795,112.522553 C111.974741,105.560085 96.0576853,102.37484 96.0576853,102.37484"/>
          <g stroke-width=".6" transform="translate(31.061 157.655)">
            <path d="M3.016704,3.09256794 L3.877888,3.36615573 C3.745792,3.84698626 3.52631467,4.20401832 3.219456,4.43759389 C2.912256,4.67116947 2.52279467,4.78778626 2.05073067,4.78778626 C1.46670933,4.78778626 0.986794667,4.58806718 0.610986667,4.18828702 C0.234837333,3.78850687 0.0467626667,3.24167328 0.0467626667,2.54847023 C0.0467626667,1.81525496 0.235861333,1.2455084 0.613717333,0.839914504 C0.991914667,0.433978626 1.488896,0.231181679 2.10500267,0.231181679 C2.642944,0.231181679 3.07985067,0.390546565 3.41572267,0.708934351 C3.615744,0.897367939 3.76593067,1.16787786 3.86594133,1.52046412 L2.98666667,1.73112672 C2.934784,1.50268092 2.82624,1.32211298 2.661376,1.18976489 C2.49617067,1.05775878 2.295808,0.99141374 2.05994667,0.99141374 C1.73397333,0.99141374 1.46944,1.1087145 1.26634667,1.34331603 C1.06325333,1.57757557 0.961877333,1.95752061 0.961877333,2.48246718 C0.961877333,3.03956031 1.061888,3.4362626 1.26190933,3.67257405 C1.46193067,3.90922748 1.72168533,4.02721221 2.041856,4.02721221 C2.27771733,4.02721221 2.48081067,3.95231756 2.65079467,3.80184427 C2.82077867,3.65171298 2.942976,3.41505954 3.016704,3.09256794 L3.016704,3.09256794 Z"/>
            <polygon points="5.63 4.713 5.63 1.052 4.325 1.052 4.325 .306 7.82 .306 7.82 1.052 6.518 1.052 6.518 4.713"/>
            <path d="M10.363904,4.71254962 L9.52081067,4.71254962 L9.52081067,1.52969771 C9.212928,1.81799084 8.84974933,2.03138931 8.43195733,2.16989313 L8.43195733,1.40350534 C8.651776,1.33134656 8.89070933,1.19455267 9.14875733,0.993123664 C9.40680533,0.791694656 9.58395733,0.556751145 9.679872,0.28829313 L10.363904,0.28829313 L10.363904,4.71254962 L10.363904,4.71254962 Z"/>
          </g>
          <g stroke-width=".6" transform="translate(54.955 157.655)">
            <path d="M3.20750933,2.94312061 L4.06869333,3.2167084 C3.93659733,3.69753893 3.71712,4.05457099 3.41026133,4.28814656 C3.10306133,4.52172214 2.7136,4.63833893 2.241536,4.63833893 C1.65751467,4.63833893 1.1776,4.43827786 0.801450667,4.03849771 C0.425642667,3.63871756 0.237568,3.09222595 0.237568,2.3990229 C0.237568,1.66546565 0.426666667,1.09606107 0.804522667,0.690125191 C1.18272,0.284531298 1.67970133,0.0817343511 2.29546667,0.0817343511 C2.83374933,0.0817343511 3.270656,0.240757252 3.606528,0.559487023 C3.80654933,0.747920611 3.956736,1.01843053 4.05674667,1.37101679 L3.177472,1.5813374 C3.12558933,1.3528916 3.01704533,1.17266565 2.85218133,1.04031756 C2.686976,0.90831145 2.48661333,0.841966412 2.250752,0.841966412 C1.92477867,0.841966412 1.66024533,0.959267176 1.457152,1.1938687 C1.25405867,1.42812824 1.15268267,1.8077313 1.15268267,2.33301985 C1.15268267,2.89011298 1.25269333,3.28681527 1.45271467,3.52312672 C1.652736,3.75978015 1.91249067,3.87776489 2.23266133,3.87776489 C2.46852267,3.87776489 2.671616,3.80252824 2.8416,3.65239695 C3.011584,3.50226565 3.13344,3.26561221 3.20750933,2.94312061 L3.20750933,2.94312061 Z"/>
            <polygon points="5.821 4.563 5.821 .902 4.515 .902 4.515 .157 8.011 .157 8.011 .902 6.709 .902 6.709 4.563"/>
            <path d="M11.244544,3.77858931 L11.244544,4.56310229 L8.28962133,4.56310229 C8.32170667,4.26660153 8.41762133,3.98549008 8.57770667,3.72010992 C8.73745067,3.45438779 9.05352533,3.1024855 9.52558933,2.6633771 C9.90549333,2.30873893 10.138624,2.06832366 10.22464,1.9421313 C10.3406933,1.76771908 10.39872,1.59535878 10.39872,1.42505038 C10.39872,1.23695878 10.3482027,1.09195725 10.247168,0.990729771 C10.1461333,0.88950229 10.006528,0.83888855 9.82869333,0.83888855 C9.65256533,0.83888855 9.51261867,0.892238168 9.408512,0.998253435 C9.30474667,1.10461069 9.244672,1.28073282 9.22862933,1.52730382 L8.388608,1.44317557 C8.43844267,0.978418321 8.595456,0.644641221 8.859648,0.44218626 C9.12349867,0.240073282 9.453568,0.138845802 9.84951467,0.138845802 C10.2836907,0.138845802 10.6246827,0.25580458 10.8724907,0.490406107 C11.12064,0.724665649 11.244544,1.01637863 11.244544,1.36520305 C11.244544,1.5635542 11.2090453,1.75232977 11.138048,1.93152977 C11.0670507,2.11107176 10.954752,2.29882137 10.8004693,2.49512061 C10.698752,2.62541679 10.5147733,2.81282443 10.2485333,3.05734351 C9.98263467,3.3018626 9.814016,3.46396336 9.74301867,3.54432977 C9.67202133,3.6243542 9.61467733,3.7026687 9.57064533,3.77858931 L11.244544,3.77858931 Z"/>
          </g>
          <g stroke-width=".6" transform="translate(79.872 157.655)">
            <path d="M3.15869867,3.09256794 L4.01988267,3.36615573 C3.88778667,3.84698626 3.66830933,4.20401832 3.36110933,4.43759389 C3.05425067,4.67116947 2.66478933,4.78778626 2.19272533,4.78778626 C1.608704,4.78778626 1.12878933,4.58806718 0.75264,4.18828702 C0.376832,3.78850687 0.188757333,3.24167328 0.188757333,2.54847023 C0.188757333,1.81525496 0.377856,1.2455084 0.755712,0.839914504 C1.133568,0.433978626 1.63054933,0.231181679 2.246656,0.231181679 C2.78459733,0.231181679 3.22184533,0.390546565 3.55771733,0.708934351 C3.75773867,0.897367939 3.907584,1.16787786 4.00759467,1.52046412 L3.12866133,1.73112672 C3.07677867,1.50268092 2.96823467,1.32211298 2.80337067,1.18976489 C2.63816533,1.05775878 2.43780267,0.99141374 2.2016,0.99141374 C1.87562667,0.99141374 1.61109333,1.1087145 1.40834133,1.34331603 C1.205248,1.57757557 1.103872,1.95752061 1.103872,2.48246718 C1.103872,3.03956031 1.20388267,3.4362626 1.40356267,3.67257405 C1.603584,3.90922748 1.86368,4.02721221 2.18385067,4.02721221 C2.419712,4.02721221 2.62280533,3.95231756 2.79278933,3.80184427 C2.96277333,3.65171298 3.08462933,3.41505954 3.15869867,3.09256794 L3.15869867,3.09256794 Z"/>
            <polygon points="5.772 4.713 5.772 1.052 4.467 1.052 4.467 .306 7.962 .306 7.962 1.052 6.66 1.052 6.66 4.713 5.772 4.713"/>
            <path d="M8.31863467,3.54330382 L9.13476267,3.44412824 C9.160704,3.65273893 9.23067733,3.81176183 9.34468267,3.9222229 C9.458688,4.03234198 9.59658667,4.08740153 9.75872,4.08740153 C9.9328,4.08740153 10.079232,4.02139847 10.1983573,3.88905038 C10.3171413,3.75670229 10.3768747,3.57852824 10.3768747,3.35418626 C10.3768747,3.14181374 10.319872,2.97321527 10.2058667,2.84907481 C10.0918613,2.72493435 9.95259733,2.66269313 9.78875733,2.66269313 C9.68055467,2.66269313 9.551872,2.68389618 9.40168533,2.72596031 L9.49486933,2.03754504 C9.72288,2.04370076 9.89661867,1.99411298 10.016768,1.88878168 C10.136576,1.78345038 10.1966507,1.64392061 10.1966507,1.4695084 C10.1966507,1.32108702 10.1526187,1.20310229 10.0645547,1.11487023 C9.976832,1.02663817 9.85975467,0.982522137 9.713664,0.982522137 C9.56962133,0.982522137 9.44674133,1.03279389 9.34468267,1.13265344 C9.242624,1.23285496 9.18084267,1.37922443 9.158656,1.57176183 L8.38178133,1.43941374 C8.435712,1.17300763 8.51729067,0.959951145 8.626176,0.80058626 C8.73506133,0.641221374 8.887296,0.516054962 9.08219733,0.425087023 C9.27709867,0.333777099 9.495552,0.28829313 9.73755733,0.28829313 C10.1515947,0.28829313 10.483712,0.420299237 10.733568,0.68499542 C10.9397333,0.901471756 11.042816,1.14599084 11.042816,1.41821069 C11.042816,1.80499542 10.831872,2.11380763 10.4096427,2.34396336 C10.6615467,2.39833893 10.8632747,2.51940153 11.014144,2.70783511 C11.1653547,2.8962687 11.2407893,3.12368855 11.2407893,3.39009466 C11.2407893,3.77687939 11.0998187,4.10655267 10.8178773,4.3791145 C10.5355947,4.65167634 10.184704,4.78778626 9.764864,4.78778626 C9.36686933,4.78778626 9.0368,4.67322137 8.774656,4.44374962 C8.51285333,4.21427786 8.36061867,3.91401527 8.31863467,3.54330382 L8.31863467,3.54330382 Z"/>
          </g>
          <ellipse cx="45.532" cy="160.329" rx="1.304" ry="1.306"/>
          <ellipse cx="69.766" cy="160.329" rx="1.304" ry="1.306"/>
          <ellipse cx="94.342" cy="160.671" rx="1.304" ry="1.306"/>
        </g>
        <rect width="7" height="20" x="41" y="164" fill="#4A4A4A" fill-opacity=".8"/>
        <polygon fill="#4A4A4A" fill-opacity=".8" points="65 164 72.582 164 72 184 65 184"/>
        <polygon fill="#4A4A4A" fill-opacity=".8" points="89 164 97.582 164 97 184 89 184"/>
      </g>
      <g transform="matrix(0 -1 -1 0 89.5 47)">
        <path stroke="#4A4A4A" stroke-width="4" d="M2.89084622,-6.82121026e-13 L2.89084622,16.3177915 C2.89084622,23.6926946 10.2357982,23.3654676 10.2357982,33.3838641 C10.2357982,43.4022605 2.89084622,43.7929655 2.89084622,52.8124318 C2.89084622,61.8318982 8.28393449,64.0551285 8.28393449,70.5419398 C8.28393449,77.0287511 3.73621939,83.0020127 3.73621939,83.0020127"/>
        <path fill="#FFF" fill-rule="nonzero" stroke="#747474" d="M6.35432974 40.1402345C5.02728641 37.978428 4.54589422 36.2066461 4.54589422 33.3838641 4.54589422 29.6993395 5.42219171 27.7988509 7.72158985 25.1787337 7.86175647 25.0190167 8.39782336 24.41554 8.52156993 24.274775 10.8841477 21.5872813 11.8908462 19.5827619 11.8908462 16.3177915L11.8908462-6.82121026e-13 7.89084622-6.82121026e-13 7.89084622 16.3177915C7.89084622 18.4284416 7.29873259 19.6074473 5.51737645 21.6337863 5.40312736 21.7637476 4.86554937 22.3689255 4.71515059 22.5403018 1.8268679 25.8314409.545894216 28.6095794.545894216 33.3838641.545894216 37.7049731 1.51307826 40.2827608 3.9373021 43.7311297M6 47.5921771C6.98339511 49.3055648 7.39308827 51.0853416 7.39308827 53.2325874 7.39308827 56.6600654 4.22428908 63.40223 4.01756878 63.7940623 2.63438043 66.4158556 2 68.4018419 2 70.9620954 2 73.7418975 2.71077459 76.5519072 3.91770116 79.3028815 4.09478257 79.7065071 6.44693748 74.4117601 6.44693748 74.4117601 6.44693748 74.4117601 6.21073775 73.3502354 6.13620459 72.8262672 6.04661542 72.1964553 6 71.57404 6 70.9620954 6 69.1630272 6.44875662 67.7581533 7.55540624 65.6605312 7.74690958 65.2975422 11.3930883 57.4268587 11.3930883 53.2325874 11.3930883 49.4736221 10.5116722 47.1781547 8.27400242 44M6.20930668 82.2566958C6.61728928 82.9190292 6.99204056 83.4623143 7.30157299 83.8688741L10.4841579 81.4458278C10.3723353 81.2989528 10.1534614 80.9891698 9.86325901 80.539009 9.36974505 79.7734722 8.87438693 78.910865 8.41255588 77.974891"/>
      </g>
      <path stroke="#747474" d="M7.10542736e-15,5.33057851 L7.29455078,5.33057851" transform="matrix(0 -1 1 0 .5 43)"/>
    </g>
    <g transform="rotate(-90 39.25 39.25)">
      <g stroke="#747474" stroke-width=".8" transform="translate(0 .402)">
        <path d="M0,0.0639124834 L0,70.0239112 C0,72.1973811 1.30229256,73.6 3.26525886,73.6 L73.7377979,73.6 C75.3287634,73.6 76.8,71.2184157 76.8,70.0212383 C76.8,68.8240609 76.7018189,0 76.7018189,0 L0,0.0639124834 Z"/>
        <path d="M.8.0641144122L.8 69.2126127C.8 71.3929496 2.10308661 72.8 4.0672498 72.8L72.9359308 72.8C74.5278663 72.8 76 70.4108912 76 69.2099314 76 68.0089715 75.901759 0 75.901759 0M2.8 72.8L2.8 73.6M74 72.8L74 73.6"/>
        <polyline points="33.6 73.6 35.2 75.321 35.2 77.6"/>
        <polyline points="43.2 73.6 41.6 75.174 41.6 77.6"/>
        <path d="M35.2 74.8L42.4 74.8M34.4 77.2L41.6 77.2"/>
        <polyline points="35.2 73.6 36.8 75.381 36.8 77.6"/>
        <polyline points="42.4 73.6 40.8 75.394 40.8 77.6"/>
      </g>
      <circle cx="38.4" cy="36.802" r="28" stroke="#979797" stroke-width="1.2"/>
    </g>
  </g>
</svg>
