<svg xmlns="http://www.w3.org/2000/svg" xmlns:xlink="http://www.w3.org/1999/xlink" width="368" height="489" viewBox="0 0 368 489"><defs><path id="a" d="M0 0h191v155H0z"/></defs><g fill="none" fill-rule="evenodd"><g stroke="#747474" transform="translate(1 1)"><g transform="translate(9 267)"><ellipse cx="34.5" cy="19" rx="1.5" ry="2"/><ellipse cx="34.5" cy="26" rx="1.5" ry="2"/><ellipse cx="34.5" cy="34" rx="1.5" ry="2"/><ellipse cx="34.5" cy="42" rx="1.5" ry="2"/><ellipse cx="32.5" cy="21" rx="1.5" ry="2"/><ellipse cx="32.5" cy="29" rx="1.5" ry="2"/><ellipse cx="32.5" cy="36" rx="1.5" ry="2"/><ellipse cx="29.5" cy="17" rx="1.5" ry="2"/><ellipse cx="29.5" cy="24" rx="1.5" ry="2"/><ellipse cx="29.5" cy="32" rx="1.5" ry="2"/><ellipse cx="29.5" cy="39" rx="1.5" ry="2"/><ellipse cx="26.5" cy="19" rx="1.5" ry="2"/><ellipse cx="26.5" cy="27" rx="1.5" ry="2"/><ellipse cx="26.5" cy="34" rx="1.5" ry="2"/><ellipse cx="24.5" cy="14" rx="1.5" ry="2"/><ellipse cx="24.5" cy="22" rx="1.5" ry="2"/><ellipse cx="24.5" cy="29" rx="1.5" ry="2"/><ellipse cx="24.5" cy="37" rx="1.5" ry="2"/><ellipse cx="22.5" cy="17" rx="1.5" ry="2"/><ellipse cx="22.5" cy="24" rx="1.5" ry="2"/><ellipse cx="22.5" cy="32" rx="1.5" ry="2"/><ellipse cx="19.5" cy="12" rx="1.5" ry="2"/><ellipse cx="19.5" cy="20" rx="1.5" ry="2"/><ellipse cx="19.5" cy="27" rx="1.5" ry="2"/><ellipse cx="19.5" cy="35" rx="1.5" ry="2"/><ellipse cx="17.5" cy="15" rx="1.5" ry="2"/><ellipse cx="17.5" cy="22" rx="1.5" ry="2"/><ellipse cx="17.5" cy="30" rx="1.5" ry="2"/><ellipse cx="15" cy="10" rx="1" ry="2"/><ellipse cx="15" cy="17" rx="1" ry="2"/><ellipse cx="15" cy="25" rx="1" ry="2"/><ellipse cx="15" cy="32" rx="1" ry="2"/><ellipse cx="13" cy="12" rx="1" ry="2"/><ellipse cx="13" cy="20" rx="1" ry="2"/><ellipse cx="13" cy="27" rx="1" ry="2"/><ellipse cx="10" cy="7" rx="1" ry="2"/><ellipse cx="10" cy="14" rx="1" ry="2"/><ellipse cx="10" cy="22" rx="1" ry="2"/><ellipse cx="10" cy="29" rx="1" ry="2"/><ellipse cx="8" cy="9" rx="1" ry="2"/><ellipse cx="8" cy="17" rx="1" ry="2"/><ellipse cx="8" cy="24" rx="1" ry="2"/><ellipse cx="6" cy="5" rx="1" ry="2"/><ellipse cx="6" cy="12" rx="1" ry="2"/><ellipse cx="6" cy="20" rx="1" ry="2"/><ellipse cx="6" cy="27" rx="1" ry="2"/><ellipse cx="4" cy="7" rx="1" ry="2"/><ellipse cx="4" cy="15" rx="1" ry="2"/><ellipse cx="4" cy="22" rx="1" ry="2"/><ellipse cx="1" cy="2" rx="1" ry="2"/><ellipse cx="1" cy="10" rx="1" ry="2"/><ellipse cx="1" cy="17" rx="1" ry="2"/><ellipse cx="1" cy="25" rx="1" ry="2"/></g><g transform="translate(9 368)"><ellipse cx="34.5" cy="19" rx="1.5" ry="2"/><ellipse cx="34.5" cy="26" rx="1.5" ry="2"/><ellipse cx="34.5" cy="34" rx="1.5" ry="2"/><ellipse cx="34.5" cy="42" rx="1.5" ry="2"/><ellipse cx="32.5" cy="21" rx="1.5" ry="2"/><ellipse cx="32.5" cy="29" rx="1.5" ry="2"/><ellipse cx="32.5" cy="36" rx="1.5" ry="2"/><ellipse cx="29.5" cy="17" rx="1.5" ry="2"/><ellipse cx="29.5" cy="24" rx="1.5" ry="2"/><ellipse cx="29.5" cy="32" rx="1.5" ry="2"/><ellipse cx="29.5" cy="39" rx="1.5" ry="2"/><ellipse cx="26.5" cy="19" rx="1.5" ry="2"/><ellipse cx="26.5" cy="27" rx="1.5" ry="2"/><ellipse cx="26.5" cy="34" rx="1.5" ry="2"/><ellipse cx="24.5" cy="14" rx="1.5" ry="2"/><ellipse cx="24.5" cy="22" rx="1.5" ry="2"/><ellipse cx="24.5" cy="29" rx="1.5" ry="2"/><ellipse cx="24.5" cy="37" rx="1.5" ry="2"/><ellipse cx="22.5" cy="17" rx="1.5" ry="2"/><ellipse cx="22.5" cy="24" rx="1.5" ry="2"/><ellipse cx="22.5" cy="32" rx="1.5" ry="2"/><ellipse cx="19.5" cy="12" rx="1.5" ry="2"/><ellipse cx="19.5" cy="20" rx="1.5" ry="2"/><ellipse cx="19.5" cy="27" rx="1.5" ry="2"/><ellipse cx="19.5" cy="35" rx="1.5" ry="2"/><ellipse cx="17.5" cy="15" rx="1.5" ry="2"/><ellipse cx="17.5" cy="22" rx="1.5" ry="2"/><ellipse cx="17.5" cy="30" rx="1.5" ry="2"/><ellipse cx="15" cy="10" rx="1" ry="2"/><ellipse cx="15" cy="17" rx="1" ry="2"/><ellipse cx="15" cy="25" rx="1" ry="2"/><ellipse cx="15" cy="32" rx="1" ry="2"/><ellipse cx="13" cy="12" rx="1" ry="2"/><ellipse cx="13" cy="20" rx="1" ry="2"/><ellipse cx="13" cy="27" rx="1" ry="2"/><ellipse cx="10" cy="7" rx="1" ry="2"/><ellipse cx="10" cy="14" rx="1" ry="2"/><ellipse cx="10" cy="22" rx="1" ry="2"/><ellipse cx="10" cy="29" rx="1" ry="2"/><ellipse cx="8" cy="9" rx="1" ry="2"/><ellipse cx="8" cy="17" rx="1" ry="2"/><ellipse cx="8" cy="24" rx="1" ry="2"/><ellipse cx="6" cy="5" rx="1" ry="2"/><ellipse cx="6" cy="12" rx="1" ry="2"/><ellipse cx="6" cy="20" rx="1" ry="2"/><ellipse cx="6" cy="27" rx="1" ry="2"/><ellipse cx="4" cy="7" rx="1" ry="2"/><ellipse cx="4" cy="15" rx="1" ry="2"/><ellipse cx="4" cy="22" rx="1" ry="2"/><ellipse cx="1" cy="2" rx="1" ry="2"/><ellipse cx="1" cy="10" rx="1" ry="2"/><ellipse cx="1" cy="17" rx="1" ry="2"/><ellipse cx="1" cy="25" rx="1" ry="2"/></g><g transform="translate(9 165)"><ellipse cx="34.5" cy="19" rx="1.5" ry="2"/><ellipse cx="34.5" cy="26" rx="1.5" ry="2"/><ellipse cx="34.5" cy="34" rx="1.5" ry="2"/><ellipse cx="34.5" cy="42" rx="1.5" ry="2"/><ellipse cx="32.5" cy="21" rx="1.5" ry="2"/><ellipse cx="32.5" cy="29" rx="1.5" ry="2"/><ellipse cx="32.5" cy="36" rx="1.5" ry="2"/><ellipse cx="29.5" cy="17" rx="1.5" ry="2"/><ellipse cx="29.5" cy="24" rx="1.5" ry="2"/><ellipse cx="29.5" cy="32" rx="1.5" ry="2"/><ellipse cx="29.5" cy="39" rx="1.5" ry="2"/><ellipse cx="26.5" cy="19" rx="1.5" ry="2"/><ellipse cx="26.5" cy="27" rx="1.5" ry="2"/><ellipse cx="26.5" cy="34" rx="1.5" ry="2"/><ellipse cx="24.5" cy="14" rx="1.5" ry="2"/><ellipse cx="24.5" cy="22" rx="1.5" ry="2"/><ellipse cx="24.5" cy="29" rx="1.5" ry="2"/><ellipse cx="24.5" cy="37" rx="1.5" ry="2"/><ellipse cx="22.5" cy="17" rx="1.5" ry="2"/><ellipse cx="22.5" cy="24" rx="1.5" ry="2"/><ellipse cx="22.5" cy="32" rx="1.5" ry="2"/><ellipse cx="19.5" cy="12" rx="1.5" ry="2"/><ellipse cx="19.5" cy="20" rx="1.5" ry="2"/><ellipse cx="19.5" cy="27" rx="1.5" ry="2"/><ellipse cx="19.5" cy="35" rx="1.5" ry="2"/><ellipse cx="17.5" cy="15" rx="1.5" ry="2"/><ellipse cx="17.5" cy="22" rx="1.5" ry="2"/><ellipse cx="17.5" cy="30" rx="1.5" ry="2"/><ellipse cx="15" cy="10" rx="1" ry="2"/><ellipse cx="15" cy="17" rx="1" ry="2"/><ellipse cx="15" cy="25" rx="1" ry="2"/><ellipse cx="15" cy="32" rx="1" ry="2"/><ellipse cx="13" cy="12" rx="1" ry="2"/><ellipse cx="13" cy="20" rx="1" ry="2"/><ellipse cx="13" cy="27" rx="1" ry="2"/><ellipse cx="10" cy="7" rx="1" ry="2"/><ellipse cx="10" cy="14" rx="1" ry="2"/><ellipse cx="10" cy="22" rx="1" ry="2"/><ellipse cx="10" cy="29" rx="1" ry="2"/><ellipse cx="8" cy="9" rx="1" ry="2"/><ellipse cx="8" cy="17" rx="1" ry="2"/><ellipse cx="8" cy="24" rx="1" ry="2"/><ellipse cx="6" cy="5" rx="1" ry="2"/><ellipse cx="6" cy="12" rx="1" ry="2"/><ellipse cx="6" cy="20" rx="1" ry="2"/><ellipse cx="6" cy="27" rx="1" ry="2"/><ellipse cx="4" cy="7" rx="1" ry="2"/><ellipse cx="4" cy="15" rx="1" ry="2"/><ellipse cx="4" cy="22" rx="1" ry="2"/><ellipse cx="1" cy="2" rx="1" ry="2"/><ellipse cx="1" cy="10" rx="1" ry="2"/><ellipse cx="1" cy="17" rx="1" ry="2"/><ellipse cx="1" cy="25" rx="1" ry="2"/></g><g><path d="M43.327 9.39c35.116-9.163 61.22-16.834 97.87 3.34 36.652 20.175 48.347 23.595-16.766 38.223-65.11 14.628-64.264 7.524-94.397-7.02C-15.322 23.26 8.21 18.552 43.327 9.39z"/><path stroke-linecap="round" d="M7.697 21C3.06 23.807-3.056 29.365 1.895 33.26c4.95 3.896 36.225 22.548 47.46 25.93 11.234 3.384 20.218 6.767 44.45 3.384 24.23-3.383 63.275-14.65 68.288-16.702 5.014-2.052 20.594-7.06 5.452-17.566"/></g><g transform="translate(10 19)"><ellipse cx="14" cy="5.5" rx="14" ry="5.5"/><path stroke-linecap="round" d="M21.915 9.875c.056-.25.085-.51.085-.77C22 6.284 18.642 4 14.5 4 10.358 4 7 6.285 7 9.104c0 .306.04.605.115.896"/><ellipse cx="14" cy="5.5" rx="4" ry="1.5"/><ellipse cx="14" cy="5" rx="3" ry="1"/><ellipse cx="14" cy="5.5" rx="1" ry="1"/><ellipse cx="14" cy="6" rx="14" ry="5"/><path d="M8.897 5C5.954 5.576 4 6.592 4 7.75 4 9.545 8.7 11 14.5 11S25 9.545 25 7.75c0-1.097-1.754-2.067-4.442-2.656"/><path d="M8.39 6C5.733 6.6 4 7.582 4 8.69 4 10.52 8.7 12 14.5 12S25 10.52 25 8.69c0-1.026-1.487-1.945-3.82-2.552"/><path d="M7.797 7C5.477 7.415 4 8.04 4 8.74 4 9.988 8.7 11 14.5 11S25 9.988 25 8.74c0-.615-1.14-1.173-2.99-1.58"/></g><ellipse cx="150" cy="33.5" rx="14" ry="5.5"/><path stroke-linecap="round" d="M157.915 36.875c.056-.25.085-.51.085-.77 0-2.82-3.358-5.105-7.5-5.105-4.142 0-7.5 2.285-7.5 5.104 0 .306.04.605.115.896"/><ellipse cx="150" cy="32.5" rx="4" ry="1.5"/><ellipse cx="150" cy="33" rx="3" ry="1"/><ellipse cx="150" cy="32.5" rx="1" ry="1"/><ellipse cx="150" cy="34" rx="14" ry="5"/><path d="M144.897 33c-2.943.576-4.897 1.592-4.897 2.75 0 1.795 4.7 3.25 10.5 3.25s10.5-1.455 10.5-3.25c0-1.097-1.754-2.067-4.442-2.656"/><path d="M144.39 34c-2.658.6-4.39 1.582-4.39 2.69 0 1.83 4.7 3.31 10.5 3.31s10.5-1.48 10.5-3.31c0-1.026-1.487-1.945-3.82-2.552"/><path d="M143.797 34c-2.32.415-3.797 1.04-3.797 1.74 0 1.248 4.7 2.26 10.5 2.26s10.5-1.012 10.5-2.26c0-.615-1.14-1.173-2.99-1.58M80.29 23.434L74 28.854 83.088 34l18.524-.602L108 27.82 97.65 23z"/><path d="M75 29l16.66-.555L98 23M23.984 43.154c-.747 1.015-1.245 1.07-.838 2.35C23.553 46.78 30.92 50 30.92 50S33 48.865 33 47.647c0-1.218-8.27-5.508-9.016-4.493z"/><path d="M25 43c0 1.193 1.77 2.022 1.77 2.022L33 48m-10-2c.814-.672 2.338-1.657 4-.38M27 44c0 .758 1.76 2.706 5 4"/><ellipse cx="91" cy="29" rx="9" ry="3"/><path stroke-linecap="round" d="M.01 30c0-1-.024 393.274 0 399.343.026 6.068-.292 5.752 1.647 7.484 10.484 9.985 36.277 22.755 56.663 28.9 19.256 5.05 39.016.512 52.726-2.333 13.71-2.844 45.49-11.39 53.34-15.242 9.525-4.396 9.614-4.304 9.525-17.712-.088-13.408.09-392.863.09-392.863"/><path d="M.015 130c-.387 1.15 6.72 8.12 21.96 16.176 14.36 8.157 33.398 16.336 46.796 17.507 25.722 2.248 58.5-7.985 79.745-14.08 21.244-6.093 24.38-10.387 25.485-11.59M.015 232c-.387 1.15 6.72 8.12 21.96 16.176 14.36 8.157 33.398 16.336 46.796 17.507 25.722 2.248 58.5-7.985 79.745-14.08 21.244-6.093 24.38-10.387 25.485-11.59M.015 333c-.387 1.15 6.72 8.12 21.96 16.176 14.36 8.157 33.398 16.336 46.796 17.507 25.722 2.248 58.5-7.985 79.745-14.08 21.244-6.093 24.38-10.387 25.485-11.59"/><path d="M.015 127c-.387 1.15 6.72 8.12 21.96 16.176 14.36 8.157 33.398 16.336 46.796 17.507 25.722 2.248 58.5-7.985 79.745-14.08 21.244-6.093 24.38-10.387 25.485-11.59"/></g><g transform="translate(177 278)"><mask id="b" fill="#fff"><use xlink:href="#a"/></mask><g stroke="#747474" mask="url(#b)"><g transform="translate(-29 21)"><path d="M51.225 61.906S-1.17 44.162.02 43.746C8.053 40.95 41 29.46 42.6 30.02c11.56 4.04 56.382 19.412 58.733 20.364 2.726 1.103 9.52 6.46 11.667 10.24-1.514.44-3.84 1.36-6.44 2.18-.195.06-.682-.42-.88-.357-9.783 3.095-24.398 7.97-27.596 9.553-.543-.323-4.976-5.724-4.976-5.724s-1.386.96-2.223.926c-4.006-3.856-13.323-6.883-14.558-6.883-.45 0-5.102 1.586-5.102 1.586z"/><path d="M93 47.416s57.4-19.173 69.36-23.36c5.086-.825 7.94 7.8 3.287 9.917-5.17 1.88-40.584 14.256-58.542 20.027"/><path d="M161 24.793c.296-1.26 1.254-3.454 4.15-2.6 1.413.415 3.283 2.955 4.166 5.594.93 2.78.96 5.944-.207 7.81-2.024 3.24-4.894-.148-4.894-.148"/><path d="M164 22.338s5.304-2.007 9.37-3.21c5.944-1.608 8.7 12.442 4.853 14.355-.506 0-10.184 3.517-10.184 3.517"/><path d="M173 18.804s7.145-9.06 7.41-9.35c.267-.29.84-.72 2.146-.235 1.306.484 4.486 1.515 5.36 1.907.875.392 2.846 2.52 3.01 4.336.165 1.814 1.216 17.763 1.058 18.65-.16.886-.197 2.292-2.894 1.777-2.698-.515-11.562-2.218-11.562-2.218"/><path d="M182 8.58S205.626.67 206.89.294c1.262-.376 2.8-.436 3.738.092.938.53 5.57 2.105 6.025 2.617.455.512 1.46 2.347 1.46 3.54 0 1.19.887 16.292.887 17.136 0 .843-.05 2.38-2.05 3.09-2 .712-24.907 8.232-24.907 8.232M188 11l26-9m-23 15l26-9m-25 25l26-9"/><path d="M209 0c2.38.922 7.662 1.36 7.964 8.32C217.267 15.277 218 25 218 25m-47-6c0-1.713.036-2.175.036-3.368s.804-1.596 1.486-1.87C173.204 13.485 178 12 178 12"/><path d="M169 19c0-1.67.037-2.12.037-3.282s.817-2.123 1.51-2.39C171.242 13.057 178 11 178 11"/><path d="M168 20c0-2.198.037-2.79.037-4.322 0-1.53.816-2.048 1.508-2.4C170.238 12.925 179 10 179 10M.447 44c-.618 1.315.125 13.05.804 16.884.68 3.834 1.363 6.542 6.393 7.994 5.03 1.45 21.613 7.585 21.613 7.585s3.074-2.295 4.49-2.573c.468.59 8.105 2.893 9.255 3.422 1.15.53 2.552 3.107 2.552 4.96 0 1.852.655 14.618 6.546 23.14 5.89 8.525 10.445 12.946 18.4 11.218 7.956-1.727 8.21-19.366 6.91-24.57-1.303-5.203-4.453-15.7-11.35-22.22-1.71-1.615-7.532-4.3-13.96-6.765-.278-.107.284 1.633 0 1.526C32.47 57.164 0 46.51 0 46.51"/><path d="M3.683 95.94s-1.1-14.027-1.1-16.367c0-2.34-.583-6.213-.583-7.993 0-1.78.924-3.35 4.157-2.17 3.232 1.178 22.556 8.006 22.556 8.006s7.612 16.71 8.093 17.136c.48.427 8.322 2.916 8.69 3.316.368.4 1.43 3.072 1.982 4.37.553 1.3 3.252 7.286 6.147 10.365.25.463 1.682 1.514 1.315 1.386-8.79-3.054-51.257-18.05-51.257-18.05z"/><path d="M35.026 74S32.814 75.39 30 76.673c2.11 6.557 8.068 17.36 8.068 17.36l6.987 2.29s1.455 0 2.288 1.994c1.097 4.298 6.486 13.323 8.124 14.933 1.64 1.61 3.027.316 2.364-.957M37 93l9-3m-8 4.85L46 92m-1 6l3-1m-2 3l2-1m8 12c-.464.38-2 1-2 1m3 0c-.58.325-1.698 1-2 1m2 0c-.283.29-1.62 1-2 1m39.47-66L90 49.615s3.53 1.276 5.134 1.888c1.605.613 7.133 2.478 8.866 4.497m-51 6.253c1.158.415 9.106 2.496 13.764 6.556 4.658 4.058 10.93 14.467 11.834 23.56.905 9.092-.2 15.895-1.28 18.605-1.08 2.71 2.25 3.025 2.25 3.025s33.12-10.544 35.465-11.613c2.345-1.07 8.545-4.44 7.923-15.255-.62-10.815-4.55-22.255-6.236-24.266-1.687-2.01-2.236-1.864-3.205-1.864"/><path d="M74 66l30.282-10L109 61.675M75 68l26-9"/><path stroke-linecap="round" d="M77 70l2 .26-.264 1.74M103.97 60.39l-2.875-1.097.54-2.262"/><path d="M78.29 69.996L104.833 61M101 57s1.828 2.896 2.865 3.4C104.902 60.902 106 62 106 62M60.35 80L55 83.18l.502 10.223L61.525 101 67 97.472l-.517-10.265z"/><path d="M56 84l5.57 6L67 86.908"/><path d="M63.338 97.36c1.494-.428 2.32-3.282 1.322-6.76-.998-3.48-3.462-6.15-4.955-5.722-1.494.43-1.896 3.596-.9 7.074.998 3.48 3.04 5.837 4.533 5.408zM86 81l1.46 4 1.54-.365M96 83v-4.693l.513-.307L99 81.725M96 81l2-1m2-3.763L101.154 80s1.782-.29 1.782-1.086.377-1.884-.703-2.578c-1.08-.693-2.233-.1-2.233-.1zM108 74l1.338 4L112 74.998zM88 102.936l3-.936v.374L89.205 105zM97 103l.444-3.844s1.54-.386 1.54.057.14 1.012-.42 1.298c-.563.288-.954.302-1.118.302m4.73-3.286c0 1.09-.627 3.474.488 3.474 1.116 0 1.336-3.004 1.336-4M108.11 96l-.11 3 1-.262M112.11 94l-.11 3 1-.262M104.623 84.526c1.257-.303 3.804-1.48 4.86 1.14 1.058 2.618.21 6.436-.074 6.89-.284.457.06 1.644-4.767 3.06-4.827 1.414-8.453 2.868-9.276 3.147-.823.278-2.93.757-3.134-1.608-.203-2.365-.382-6.232-.044-6.75.337-.52.123-1.867 3.336-2.834 3.213-.965 7.84-2.74 9.097-3.044z"/><path d="M93.268 90.273c1.295-1.19 10.385-4.554 10.892-4.254.507.298.74.333.74 1.11 0 .78.526 1.413-.84 2.17C102.697 90.06 93 93 93 93m0 2.835C93.92 95.55 107.647 91 107.954 91c.307 0 1.008.283 1.008.283s.364 1.16-1.166 2.15C106.266 94.42 95.016 98 94.673 98c-.344 0-1.42-.074-1.42-.074M93 96c.88-.228 15-5 15-5"/><path d="M104 85.96c.67-.47 2.05-1.237 2.686-.858.636.378 1.467.508 1.29.837-.177.328-3.378 1.06-3.378 1.06M110 87l-2 .007V90h1.856M108.5 91v-5M78.995 72c-1.1.615-3.908 1.32-4.794 1.9-.886.582-1.798 1.483-.09 4.11 1.71 2.628 4.603 8.778 5.327 13.837.724 5.06.8 13.253-.072 15.88-.872 2.63-.872 8.69-10.365 9.273m12-3l-6 2m4-46l1 2"/><ellipse cx="91.681" cy="81.08" rx="2" ry="2.5" transform="rotate(-20 91.576 80.906)"/><ellipse cx="61.6" cy="91.129" rx="11.5" ry="20.5" transform="rotate(-19 61.567 91.284)"/></g></g></g><g stroke="#747474" transform="translate(89 249)"><path d="M81.176 44.63S78.314 46 75.016 46c-3.3 0-5.854-1.063-5.854-1.063l-1.153-7.613L68 34s3.162 2.062 4.875 2.062 3.295.566 6.915-.378S86 34 86 34v.673l-4.824 9.958z"/><path stroke-linecap="round" d="M86 34.035V5.4s-.93-1.505-1.344-1.505c-.415 0-7.29-3.79-8.26-3.79-.97 0-3.036-.317-4.82.153-1.786.47-6.764 1.194-6.764 1.194l-1.458 1.374s-.63-.31-1.54.38-1.562.563-1.562 3.88c0 3.32-.156 10.06-.156 10.06l-1.9 4.87L58 23.483l1.675 1.06s-.2 13.047-.2 14.313c0 1.267-.56 2.47 1.225 3.228 1.784.758 4.125 1.868 4.66 1.868.535 0 1.527.615 1.527-2.62 0-2.76.34-11.79.44-14.37.017-.44-.32-.518-.32-.518s-.527.38-1.36.38c-.835 0-4.535-1.797-5.353-2.04"/><path d="M65 44c.696-.77.755-13.756 1-17m-8-5l7 3m-4-8l6 3"/><path fill="#FFF" d="M70.728 157.29c-5.38 0-28.875 2.952-40.772 5.85-11.897 2.896-36.764 6.016-22.832 14.518 13.932 8.502 35.197 17.75 53.663 16.163 18.466-1.587 55.85-6.933 64.486-11.792 8.634-4.86 6.356-7.037-14.5-16.875-17.554-7.31-24.955-6.984-30.427-8.153"/><path d="M61 6l7 3m-6-6l7 3"/><path stroke-linecap="round" d="M66 2l9 4"/><path d="M65.32 2l.68.834L64 3M65 27l.084-1.76 1.983-5.087s.33-10.16.33-11.12c0-.958.867-2.034 1.666-2.357.8-.323 3.13-1.11 3.937-.366"/><path d="M66 27l.036-1.393 2.1-5.21s.076-10.89.324-11.518C68.708 8.25 69.047 7 72 7m-5 13.568l1-.136m-3 5.083l1-.03"/><path d="M68 34c0-2.008.58-20.435.8-21.46.22-1.027.663-3.082 2.2-3.54m2-2.975s-1-.384-1 1.832c0 2.217.14 28.143.14 28.143M77.1 6L77 8.046V36M83 5l1 1.883V35"/><path d="M72 8.183c.675.57 2.122.817 2.877.817.755 0 2.407-.367 2.407-.367l6.97-1.64S86 6.362 86 6m-13-.263c.704.23 2.6.424 4.33.063 1.73-.36 6.434-1.043 6.434-1.043S84.718 4.39 85 4M74 5l.088-3.55L75 0"/><path stroke-linecap="round" d="M68 2.284S73.57 1 74.21 1C74.85 1 83 5 83 5M68.506 38s-.017 4.12-.453 4.634C67.618 43.148 70 45 70 45"/><path fill="#FFF" stroke-linecap="round" d="M0 176v32.402c0 4.497 1.41 9.88 8.983 14.683 7.575 4.802 28.41 14.275 36.215 15.183 7.806.91 23.143 1.17 31.223-.382 8.08-1.55 38.643-5.522 47.837-11.034 9.193-5.51 7.84-12.518 8.413-19.753.574-7.235.225-27.124.225-27.124s-.044 3.114-4.34 4.75c-4.298 1.633-20.7 8.11-45.15 9.934-24.453 1.824-30.765 6.41-55.37-2.378C3.428 183.495.7 178.378.7 177.665"/><path d="M17 173.706L26.088 178s4.433-1.042 4.86-1.042c.425 0 3.01.667 4.136.49 1.127-.178 12.288-2.113 12.705-2.347.416-.234 2.706-.748-.37-1.934-3.078-1.186-8.375-3.577-9.055-3.78-.68-.206-3.167-.643-5.97-.183-2.804.46-7.996 1.295-9.555 1.677-1.56.382-1.7 1.703-1.7 1.703L17 173.5v.206zM21 176l3-1"/><path d="M22 173l1.97 1.985L24 177"/><path d="M23 174.426s1.14-.702 1.554-.702c.415 0 8.574-1.594 8.574-1.594s2.43-.406 3.946.216C38.592 172.966 45 176 45 176m3-2l-1 2"/><path d="M39 170l-.982 1.734L38 177M33 170l1 2.447-.186 1.677V178M24 171l.122.857.878 1.337V177M53.795 184.182c-.216.302-.988.63-.988.63l-2.006.012-.8-.665.585-.383L54.5 183l2.333 1.363-3.077.938-1.172.585L65.59 192s14.633-2.78 14.407-3.028c-.225-.248-6.12-2.88-6.12-2.88l-.58-.687-3.313-1.434"/><path stroke-linecap="round" d="M54 186l6 3"/><path d="M55 183.378c.204 0 2.303-.49 2.303-.49l-.566 1.17.454 1.06.013.804L59.62 187l4.38-.96-.064-2.224-.236-.88-.988-.297-.57-.64-1.13.08-.812.566-.848-.256-1.292.02-.45.613"/><path d="M57 183l1.31.42.69 1.146V186M63 183.337L59 184l1.605-2"/><path d="M62 182.556l.655-.556 1.348.788.997 1.606V186"/><path d="M64 185.504l1.148.496 4.28-.776.572-.743v-1.72l-.628-.853-2.035-.907-2.25 2.588L70 182.76"/><path d="M68 182.68l-2.107.32-1.17-1-1.723.252M64 183l1-1m-6 6.947l3.006-.765s-.658-.456.09-.84c.75-.385 2.553-.34 2.553-.34l1.1.3-.48 1.155.012 2.038L67 192"/><path d="M60 188.797l3.17-.797.83.96-.47.465V191M64 190.77l1.99-.706L67.01 189S69 190.596 69 191"/><path d="M65.38 190.06l-1.38-.072.04-1.968s2.267-.16 2.713.425c.445.585.694-.128.694-.128S69.563 189.667 70 191"/><path stroke-linecap="round" d="M69.533 190c0-.305.137-1.788.424-1.99.287-.205-.952-1.01-.952-1.01l-2.005.07.25 1.295"/><path d="M68.362 187.494L68 186.65s.223-.65 1.18-.65c.956 0 2.55.263 2.777.263.225 0-.504 1.073-.504 1.468S71.3 190 71.3 190"/><path d="M69 189.52s1.977-.52 2.347-.52c.37 0 1.653 1 1.653 1"/><path d="M69 188.878l2.206.304.816-.805.39-2.377 1.563 1.483s1.327 2.474.96 2.516c-.405.046-2.027-2.517-2.913-2.517"/><path d="M74 190s-1.49-1.856-1.802-2.083c-.31-.226-.842-.74-.842-.74L68.38 187l-1.38.53M83 211l-4 .41V217l3.753-.662"/><path fill="#FFF" stroke-linecap="round" d="M122.337 184.268c-14.342 3.958-41.35 10.117-63.002 11.063-21.653.946-33.443-7.197-45.893-12.997-12.45-5.8-10.627-7.925-10.627-7.925s.98-2.878-.534-1.59c-1.514 1.285-3.606 2.64-1.15 5.958 2.454 3.317 31.094 18.26 47.813 19.123 16.72.863 54.557-3.915 75.898-11.062 20.52-7.187-9.595-18.838-9.595-18.838s24.81 9.444 7.092 16.268z"/><path d="M89 217l-2-3"/><ellipse cx="68" cy="175" rx="6" ry="2"/><path d="M70.093 164c-2.876 0-5.093.685-5.093 1.408 0 .724.633 1.84 5.667 3.123 5.034 1.285 9.945-.416 11.05-.962 1.104-.545-1.302-2.192-2.344-2.192"/><path fill="#FFF" d="M80 57c-.18.267-.438 110.116 0 110.116-1.79.99-6.455 1.5-9-.4V57.54"/><g><path d="M71.795 180.182c-.216.302-.988.63-.988.63l-2.006.012-.8-.665.585-.383L72.5 179l2.333 1.363-3.077.938-1.172.585L83.59 188s14.633-2.78 14.407-3.028c-.225-.248-6.12-2.88-6.12-2.88l-.58-.687-3.313-1.434"/><path stroke-linecap="round" d="M72 182l6 3"/><path d="M73 179.378c.204 0 2.303-.49 2.303-.49l-.566 1.17.454 1.06.013.804L77.62 183l4.38-.96-.064-2.224-.236-.88-.988-.297-.57-.64-1.13.08-.812.566-.848-.256-1.292.02-.45.613"/><path d="M76 179l1.31.42.69 1.146V182M82 179.404L78 180l1.695-2"/><path d="M81 178.556l.655-.556 1.348.788.997 1.606V182"/><path d="M83 181.504l1.148.496 4.28-.776.572-.743v-1.72l-.628-.853-2.035-.907-2.25 2.588L89 178.76"/><path d="M87 177.68l-2.107.32-1.17-1-1.723.252M83 179l1-1m-7 6.947l3.006-.765s-.658-.456.09-.84c.75-.385 2.553-.34 2.553-.34l1.1.3-.48 1.155.012 2.038L85 188"/><path d="M78 184.797l3.17-.797.83.96-.47.465V187M82 186.77l1.99-.706L85.01 185S87 186.596 87 187"/><path d="M83.38 186.06l-1.38-.072.04-1.968s2.267-.16 2.713.425c.445.585.694-.128.694-.128S87.563 185.667 88 187"/><path stroke-linecap="round" d="M87.533 186c0-.305.137-1.788.424-1.99.287-.205-.952-1.01-.952-1.01l-2.005.07.25 1.295"/><path d="M86.362 183.494L86 182.65s.223-.65 1.18-.65c.956 0 2.55.263 2.777.263.225 0-.504 1.073-.504 1.468S89.3 186 89.3 186"/><path d="M88 185.52s1.977-.52 2.347-.52c.37 0 1.653 1 1.653 1"/><path d="M88 184.878l2.206.304.816-.805.39-2.377 1.563 1.483s1.327 2.474.96 2.516c-.405.046-2.027-2.517-2.913-2.517"/><path d="M93 186s-1.49-1.856-1.802-2.083c-.31-.226-.842-.74-.842-.74L87.38 183l-1.38.53"/></g><g><path d="M90.795 177.182c-.216.302-.988.63-.988.63l-2.006.012-.8-.665.585-.383L91.5 176l2.333 1.363-3.077.938-1.172.585L102.59 185s14.633-2.78 14.407-3.028c-.225-.248-6.12-2.88-6.12-2.88l-.58-.687-3.313-1.434"/><path stroke-linecap="round" d="M91 179l6 3"/><path d="M92 176.378c.204 0 2.303-.49 2.303-.49l-.566 1.17.454 1.06.013.804L96.62 180l4.38-.96-.064-2.224-.236-.88-.988-.297-.57-.64-1.13.08-.812.566-.848-.256-1.292.02-.45.613"/><path d="M95 176l1.31.42.69 1.146V179M101 176.404L97 177l1.695-2"/><path d="M100 175.556l.655-.556 1.348.788.997 1.606V179"/><path d="M102 178.504l1.148.496 4.28-.776.572-.743v-1.72l-.628-.853-2.035-.907-2.25 2.588 4.913-.828"/><path d="M106 174.68l-2.107.32-1.17-1-1.723.252M102 176l1-1m-7 6.947l3.006-.765s-.658-.456.09-.84c.75-.385 2.553-.34 2.553-.34l1.1.3-.48 1.155.012 2.038L104 185"/><path d="M97 181.797l3.17-.797.83.96-.47.465V184M101 183.77l1.99-.706L104.01 182s1.992 1.596 1.992 2"/><path d="M102.38 183.06l-1.38-.072.04-1.968s2.267-.16 2.713.425c.445.585.694-.128.694-.128s2.116 1.35 2.553 2.683"/><path stroke-linecap="round" d="M106.533 183c0-.305.137-1.788.424-1.99.287-.205-.952-1.01-.952-1.01l-2.005.07.25 1.295"/><path d="M105.362 180.494l-.362-.845s.223-.65 1.18-.65c.956 0 2.55.263 2.777.263.225 0-.504 1.073-.504 1.468S108.3 183 108.3 183"/><path d="M107 182.52s1.977-.52 2.347-.52c.37 0 1.653 1 1.653 1"/><path d="M107 181.878l2.206.304.816-.805.39-2.377 1.563 1.483s1.327 2.474.96 2.516c-.405.046-2.027-2.517-2.913-2.517"/><path d="M112 183s-1.49-1.856-1.802-2.083c-.31-.226-.842-.74-.842-.74L106.38 180l-1.38.53"/></g><g><path d="M98.5 208v7m17-11v7m-9.56-3.787c-2.385-.686-3.94.264-3.94 3.13 0 2.87 2.246 3.384 3.858 1.693.142 0 .142-2.042.142-2.042m14.835-6.83c-1.257-.47-2.61.096-2.61 1.36 0 2.446 2.775.923 2.775 2.446 0 1.523-.314 2.51-3 1.79M70 212.506l2.48 5.46.97.034 2.55-6M85 217v-6.655s2.066-.345 3.013-.345c.948 0 1.448 2.385.41 3.194-1.04.81-3.18.81-3.18.81M109 213v-6.655s2.066-.345 3.013-.345c.948 0 1.448 2.385.41 3.194-1.04.81-3.18.81-3.18.81M114 212l-2-3m-20 6v-5.678s2.223-.596 2.822-.166c.598.43 1.32 1.107 1.153 2.77-.167 1.663-1.594 2.543-1.986 2.735-.394.193-1.99.34-1.99.34zm-13-.284l3-.432"/></g><path d="M68.1 45L68 56.168S70.034 58 74.736 58c4.7 0 6.262-2.082 6.262-2.082L81 45.026"/></g></g></svg>