<svg width="62" height="62" viewBox="0 0 62 62" fill="none" xmlns="http://www.w3.org/2000/svg">
<rect opacity="0.6" x="0.5" y="0.5" width="61" height="61" rx="18.5" stroke="url(#paint0_linear)"/>
<g filter="url(#filter0_ii)">
<rect x="3" y="3" width="56" height="56" rx="16" fill="#F1F7FA"/>
</g>
<path d="M27.346 36.398C26.266 37.136 24.502 37.82 22.936 38.27C23.242 38.468 23.692 38.936 23.926 39.17C25.438 38.63 27.292 37.748 28.534 36.848L27.346 36.398ZM33.394 37.064C34.942 37.586 36.868 38.468 37.822 39.134L38.83 38.324C37.786 37.658 35.842 36.812 34.33 36.344L33.394 37.064ZM27.616 29.594C27.688 29.252 27.742 28.874 27.796 28.478H29.578C29.542 28.91 29.488 29.288 29.434 29.594H27.616ZM26.842 28.478C26.788 28.874 26.716 29.252 26.662 29.594H24.934C25.006 29.234 25.078 28.856 25.15 28.478H26.842ZM25.492 26.606H27.076C27.04 26.948 27.004 27.29 26.95 27.65H25.294L25.492 26.606ZM27.904 27.65L28.03 26.606H29.74C29.704 26.984 29.686 27.326 29.668 27.65H27.904ZM36.544 25.796C36.238 26.822 35.752 27.686 35.104 28.424C34.438 27.65 33.898 26.768 33.538 25.796H36.544ZM33.664 34.04C34.222 34.31 34.834 34.634 35.41 34.976C33.556 35.012 31.684 35.048 29.92 35.066C31.396 34.274 32.962 33.302 34.222 32.42L33.124 31.79C32.188 32.546 30.82 33.446 29.47 34.238C29.11 34.004 28.696 33.77 28.264 33.518C29.074 32.996 30.028 32.33 30.82 31.646L30.046 31.268C30.154 31.088 30.244 30.818 30.334 30.422H31.702V29.594H30.478C30.514 29.27 30.568 28.91 30.604 28.478H31.72V27.668L31.828 27.776C32.152 27.488 32.476 27.146 32.764 26.768C33.178 27.668 33.682 28.496 34.276 29.216C33.376 29.972 32.242 30.548 30.928 30.962C31.18 31.196 31.594 31.682 31.738 31.934C33.016 31.448 34.15 30.836 35.086 30.062C36.076 30.962 37.264 31.664 38.668 32.096C38.848 31.754 39.208 31.268 39.46 31.016C38.092 30.674 36.922 30.062 35.95 29.234C36.778 28.316 37.426 27.182 37.84 25.796H39.046V24.734H34.06C34.312 24.248 34.546 23.744 34.726 23.222L33.538 22.934C33.016 24.482 32.044 25.958 30.91 26.93C31.126 27.092 31.486 27.434 31.702 27.65H30.676C30.712 27.236 30.748 26.786 30.784 26.282C30.802 26.12 30.82 25.814 30.82 25.814H24.592C24.826 25.544 25.06 25.274 25.294 24.968H31.432V24.05H25.906C26.086 23.762 26.23 23.456 26.374 23.168L25.24 22.88C24.718 24.032 23.836 25.112 22.864 25.886C23.152 26.03 23.638 26.354 23.854 26.552C24.07 26.354 24.304 26.138 24.52 25.886C24.448 26.426 24.34 27.038 24.232 27.65H22.882V28.478H24.088C23.89 29.432 23.692 30.332 23.512 31.034L24.592 31.16C24.646 30.944 24.7 30.692 24.772 30.422H29.254C29.2 30.656 29.11 30.8 29.038 30.89C28.912 31.034 28.786 31.052 28.552 31.052C28.318 31.052 27.76 31.052 27.13 30.998C27.274 31.232 27.382 31.61 27.4 31.862C27.922 31.916 28.48 31.916 28.822 31.898C28.336 32.294 27.814 32.708 27.328 33.032C26.86 32.798 26.374 32.582 25.942 32.402L25.024 33.122C26.104 33.608 27.4 34.31 28.282 34.886C28.138 34.958 28.012 35.03 27.886 35.102C26.104 35.12 24.502 35.138 23.224 35.138L23.278 36.254C25.15 36.218 27.616 36.164 30.298 36.092V39.404H31.612V36.056L36.886 35.912C37.336 36.218 37.714 36.524 38.002 36.776L38.938 36.038C37.966 35.21 36.076 34.094 34.564 33.392L33.664 34.04Z" fill="#0FC8C3"/>
<defs>
<filter id="filter0_ii" x="0" y="0" width="62" height="62" filterUnits="userSpaceOnUse" color-interpolation-filters="sRGB">
<feFlood flood-opacity="0" result="BackgroundImageFix"/>
<feBlend mode="normal" in="SourceGraphic" in2="BackgroundImageFix" result="shape"/>
<feColorMatrix in="SourceAlpha" type="matrix" values="0 0 0 0 0 0 0 0 0 0 0 0 0 0 0 0 0 0 127 0" result="hardAlpha"/>
<feOffset dx="3" dy="3"/>
<feGaussianBlur stdDeviation="3.5"/>
<feComposite in2="hardAlpha" operator="arithmetic" k2="-1" k3="1"/>
<feColorMatrix type="matrix" values="0 0 0 0 0.534167 0 0 0 0 0.645967 0 0 0 0 0.749167 0 0 0 0.48 0"/>
<feBlend mode="normal" in2="shape" result="effect1_innerShadow"/>
<feColorMatrix in="SourceAlpha" type="matrix" values="0 0 0 0 0 0 0 0 0 0 0 0 0 0 0 0 0 0 127 0" result="hardAlpha"/>
<feOffset dx="-3" dy="-3"/>
<feGaussianBlur stdDeviation="3.5"/>
<feComposite in2="hardAlpha" operator="arithmetic" k2="-1" k3="1"/>
<feColorMatrix type="matrix" values="0 0 0 0 1 0 0 0 0 1 0 0 0 0 1 0 0 0 1 0"/>
<feBlend mode="normal" in2="effect1_innerShadow" result="effect2_innerShadow"/>
</filter>
<linearGradient id="paint0_linear" x1="1" y1="1" x2="124.103" y2="104.966" gradientUnits="userSpaceOnUse">
<stop offset="0.188476" stop-color="white"/>
<stop offset="1" stop-color="#37536F" stop-opacity="0.4"/>
</linearGradient>
</defs>
</svg>
