<svg width="24" height="30" viewBox="0 0 24 30" fill="none" xmlns="http://www.w3.org/2000/svg">
<path d="M11.6018 15.6987C11.8469 15.8536 12.1531 15.8536 12.3982 15.6987L23.6241 8.60621C23.9907 8.37463 24.1095 7.87403 23.8896 7.48808C23.6697 7.10213 23.1943 6.97698 22.8277 7.20855L12.0071 14.054L1.17226 7.20855C0.805736 6.97698 0.330328 7.10213 0.110411 7.48808C-0.109506 7.87403 0.00934555 8.37463 0.375874 8.60621L11.6018 15.6987ZM12 8.72234C15.2925 8.72234 17.9616 11.5329 17.9616 14.9999C17.9616 18.4669 15.2925 21.2774 12 21.2774C8.7075 21.2774 6.03839 18.4669 6.03839 14.9999C6.03839 11.5329 8.7075 8.72234 12 8.72234ZM4.49049 14.9999C4.49049 19.3671 7.85262 22.9074 12 22.9074C16.1474 22.9074 19.5095 19.3671 19.5095 14.9999C19.5095 10.6327 16.1474 7.09241 12 7.09241C7.85262 7.09241 4.49049 10.6327 4.49049 14.9999Z" fill="#0FC8C3"/>
<path d="M12.3981 29.8839L23.624 22.7913C23.8571 22.6441 23.9998 22.3788 23.9998 22.0925V7.90748C23.9998 7.62122 23.8571 7.35594 23.624 7.20865L12.3981 0.116139C12.153 -0.0387129 11.8468 -0.0387129 11.6017 0.116139L0.375757 7.20865C0.142638 7.35594 0 7.62122 0 7.90748V22.0925C0 22.3788 0.142638 22.6441 0.375757 22.7913L11.6017 29.8839C11.8468 30.0387 12.153 30.0387 12.3981 29.8839ZM1.54787 21.6324L1.54675 8.36964L12.0074 1.77025L22.4519 8.37172L22.4543 21.6297L12.0032 28.2364L1.54787 21.6324Z" fill="#0FC8C3"/>
</svg>
